G75*
%MOIN*%
%OFA0B0*%
%FSLAX24Y24*%
%IPPOS*%
%LPD*%
%AMOC8*
5,1,8,0,0,1.08239X$1,22.5*
%
%ADD10C,0.0000*%
%ADD11R,0.0640X0.0640*%
%ADD12C,0.0640*%
%ADD13C,0.0865*%
%ADD14OC8,0.0640*%
%ADD15C,0.0985*%
D10*
X002552Y003472D02*
X009875Y003472D01*
X009876Y003473D02*
X009910Y003476D01*
X009944Y003483D01*
X009978Y003494D01*
X010010Y003507D01*
X010040Y003524D01*
X010069Y003543D01*
X010096Y003565D01*
X010121Y003590D01*
X010142Y003617D01*
X010162Y003646D01*
X010178Y003677D01*
X010191Y003710D01*
X010201Y003743D01*
X010207Y003777D01*
X010211Y003812D01*
X010210Y003847D01*
X010210Y003846D02*
X010210Y004654D01*
X010486Y004654D01*
X010486Y003886D01*
X010485Y003886D02*
X010484Y003848D01*
X010487Y003810D01*
X010493Y003773D01*
X010503Y003736D01*
X010517Y003701D01*
X010533Y003667D01*
X010554Y003635D01*
X010577Y003605D01*
X010603Y003578D01*
X010631Y003553D01*
X010662Y003531D01*
X010695Y003513D01*
X010729Y003497D01*
X010765Y003485D01*
X010802Y003477D01*
X010839Y003472D01*
X010840Y003472D02*
X031056Y003472D01*
X031057Y003473D02*
X031086Y003476D01*
X031115Y003483D01*
X031143Y003493D01*
X031170Y003506D01*
X031195Y003522D01*
X031217Y003542D01*
X031238Y003563D01*
X031255Y003587D01*
X031269Y003613D01*
X031280Y003641D01*
X031288Y003670D01*
X031292Y003699D01*
X031293Y003729D01*
X031293Y003728D02*
X031293Y004555D01*
X031608Y004555D01*
X031608Y003728D01*
X031608Y003729D02*
X031609Y003699D01*
X031613Y003670D01*
X031621Y003641D01*
X031632Y003613D01*
X031646Y003587D01*
X031663Y003563D01*
X031684Y003542D01*
X031706Y003522D01*
X031731Y003506D01*
X031758Y003493D01*
X031786Y003483D01*
X031815Y003476D01*
X031844Y003473D01*
X031844Y003472D02*
X041430Y003472D01*
X041471Y003471D01*
X041511Y003474D01*
X041551Y003480D01*
X041591Y003490D01*
X041629Y003503D01*
X041666Y003519D01*
X041701Y003539D01*
X041735Y003561D01*
X041767Y003587D01*
X041796Y003615D01*
X041822Y003645D01*
X041846Y003678D01*
X041867Y003713D01*
X041885Y003749D01*
X041900Y003787D01*
X041911Y003825D01*
X041919Y003865D01*
X041923Y003905D01*
X041923Y003906D02*
X041923Y012823D01*
X036486Y012823D01*
X036486Y019909D01*
X041923Y019909D01*
X041923Y030441D01*
X041923Y030440D02*
X041918Y030480D01*
X041910Y030519D01*
X041898Y030558D01*
X041883Y030595D01*
X041865Y030631D01*
X041844Y030665D01*
X041820Y030697D01*
X041793Y030727D01*
X041764Y030754D01*
X041733Y030779D01*
X041699Y030801D01*
X041664Y030820D01*
X041627Y030835D01*
X041589Y030848D01*
X041550Y030857D01*
X041511Y030863D01*
X041471Y030865D01*
X041431Y030864D01*
X041430Y030864D02*
X026125Y030864D01*
X026125Y030854D02*
X022434Y030854D01*
X022435Y030854D02*
X022407Y030847D01*
X022379Y030837D01*
X022354Y030824D01*
X022330Y030808D01*
X022308Y030790D01*
X022288Y030768D01*
X022271Y030745D01*
X022258Y030720D01*
X022247Y030693D01*
X022240Y030665D01*
X022236Y030636D01*
X022235Y030607D01*
X022238Y030579D01*
X022237Y030579D02*
X022237Y029654D01*
X021982Y029654D01*
X021982Y030579D01*
X021981Y030579D02*
X021984Y030607D01*
X021983Y030636D01*
X021979Y030665D01*
X021972Y030693D01*
X021961Y030720D01*
X021948Y030745D01*
X021931Y030768D01*
X021911Y030790D01*
X021889Y030808D01*
X021865Y030824D01*
X021840Y030837D01*
X021812Y030847D01*
X021784Y030854D01*
X021785Y030854D02*
X010958Y030854D01*
X010917Y030852D01*
X010876Y030847D01*
X010836Y030838D01*
X010797Y030826D01*
X010759Y030810D01*
X010722Y030791D01*
X010687Y030769D01*
X010655Y030744D01*
X010624Y030716D01*
X010596Y030685D01*
X010571Y030653D01*
X010549Y030618D01*
X010530Y030581D01*
X010514Y030543D01*
X010502Y030504D01*
X010493Y030464D01*
X010488Y030423D01*
X010486Y030382D01*
X010486Y029437D01*
X010171Y029437D01*
X010171Y030382D01*
X010174Y030421D01*
X010173Y030460D01*
X010169Y030498D01*
X010162Y030537D01*
X010151Y030574D01*
X010136Y030610D01*
X010119Y030645D01*
X010098Y030678D01*
X010074Y030709D01*
X010047Y030737D01*
X010018Y030763D01*
X009987Y030786D01*
X009954Y030807D01*
X009919Y030824D01*
X009882Y030837D01*
X009845Y030848D01*
X009806Y030855D01*
X009806Y030854D02*
X002552Y030854D01*
X002552Y003472D01*
D11*
X016178Y005579D03*
X022793Y005500D03*
X029210Y005520D03*
X034391Y005579D03*
X036535Y008156D03*
X037580Y005579D03*
X041104Y005539D03*
X036535Y027201D03*
X018541Y028748D03*
X014820Y028709D03*
X011139Y028689D03*
D12*
X012139Y028989D02*
X012139Y028389D01*
X013139Y028389D02*
X013139Y028989D01*
X015820Y029009D02*
X015820Y028409D01*
X016820Y028409D02*
X016820Y029009D01*
X019541Y029048D02*
X019541Y028448D01*
X020541Y028448D02*
X020541Y029048D01*
X015178Y005879D02*
X015178Y005279D01*
X014178Y005279D02*
X014178Y005879D01*
X013178Y005879D02*
X013178Y005279D01*
X019793Y005200D02*
X019793Y005800D01*
X020793Y005800D02*
X020793Y005200D01*
X021793Y005200D02*
X021793Y005800D01*
X026210Y005820D02*
X026210Y005220D01*
X027210Y005220D02*
X027210Y005820D01*
X028210Y005820D02*
X028210Y005220D01*
X033391Y005279D02*
X033391Y005879D01*
X036580Y005879D02*
X036580Y005279D01*
X040104Y005239D02*
X040104Y005839D01*
D13*
X004561Y004902D02*
X003736Y004902D01*
X003736Y006902D02*
X004561Y006902D01*
X004561Y008902D02*
X003736Y008902D01*
X003736Y010902D02*
X004561Y010902D01*
X004561Y013752D02*
X003736Y013752D01*
X003736Y015752D02*
X004561Y015752D01*
X004493Y020425D02*
X003668Y020425D01*
X003668Y022425D02*
X004493Y022425D01*
X004561Y027453D02*
X003736Y027453D01*
X003736Y029453D02*
X004561Y029453D01*
D14*
X014535Y027201D03*
X015535Y027201D03*
X016535Y027201D03*
X017535Y027201D03*
X018535Y027201D03*
X019535Y027201D03*
X020535Y027201D03*
X021535Y027201D03*
X022535Y027201D03*
X023535Y027201D03*
X024535Y027201D03*
X025535Y027201D03*
X026535Y027201D03*
X027535Y027201D03*
X028535Y027201D03*
X029535Y027201D03*
X030535Y027201D03*
X031535Y027201D03*
X032535Y027201D03*
X033535Y027201D03*
X034535Y027201D03*
X035535Y027201D03*
X035535Y026201D03*
X036535Y026201D03*
X034535Y026201D03*
X033535Y026201D03*
X032535Y026201D03*
X031535Y026201D03*
X030535Y026201D03*
X029535Y026201D03*
X028535Y026201D03*
X027535Y026201D03*
X026535Y026201D03*
X025535Y026201D03*
X024535Y026201D03*
X023535Y026201D03*
X022535Y026201D03*
X021535Y026201D03*
X020535Y026201D03*
X019535Y026201D03*
X018535Y026201D03*
X017535Y026201D03*
X016535Y026201D03*
X015535Y026201D03*
X014535Y026201D03*
X016442Y024902D03*
X017442Y024902D03*
X017442Y023902D03*
X016442Y023902D03*
X016442Y022902D03*
X017442Y022902D03*
X017442Y021902D03*
X016442Y021902D03*
X016442Y020902D03*
X017442Y020902D03*
X017535Y008156D03*
X016535Y008156D03*
X015535Y008156D03*
X014535Y008156D03*
X014535Y007156D03*
X015535Y007156D03*
X016535Y007156D03*
X017535Y007156D03*
X018535Y007156D03*
X019535Y007156D03*
X020535Y007156D03*
X020535Y008156D03*
X019535Y008156D03*
X018535Y008156D03*
X021535Y008156D03*
X022535Y008156D03*
X023535Y008156D03*
X024535Y008156D03*
X025535Y008156D03*
X026535Y008156D03*
X027535Y008156D03*
X028535Y008156D03*
X029535Y008156D03*
X030535Y008156D03*
X031535Y008156D03*
X032535Y008156D03*
X033535Y008156D03*
X034535Y008156D03*
X035535Y008156D03*
X035535Y007156D03*
X036535Y007156D03*
X034535Y007156D03*
X033535Y007156D03*
X032535Y007156D03*
X031535Y007156D03*
X030535Y007156D03*
X029535Y007156D03*
X028535Y007156D03*
X027535Y007156D03*
X026535Y007156D03*
X025535Y007156D03*
X024535Y007156D03*
X023535Y007156D03*
X022535Y007156D03*
X021535Y007156D03*
D15*
X007100Y005677D03*
X005761Y005677D03*
X005761Y010559D03*
X007100Y010559D03*
M02*
