G75*
%MOIN*%
%OFA0B0*%
%FSLAX24Y24*%
%IPPOS*%
%LPD*%
%AMOC8*
5,1,8,0,0,1.08239X$1,22.5*
%
%ADD10C,0.0000*%
%ADD11C,0.0118*%
%ADD12C,0.0040*%
%ADD13C,0.0030*%
%ADD14C,0.0090*%
%ADD15C,0.0060*%
%ADD16C,0.0316*%
%ADD17C,0.0020*%
%ADD18C,0.0050*%
%ADD19R,0.0059X0.0118*%
%ADD20R,0.0118X0.0118*%
%ADD21C,0.0080*%
%ADD22R,0.0118X0.0059*%
%ADD23C,0.0100*%
%ADD24C,0.0070*%
%ADD25R,0.1440X0.0080*%
%ADD26R,0.0060X0.0090*%
%ADD27R,0.0591X0.0591*%
%ADD28R,0.0197X0.0295*%
%ADD29R,0.4030X0.0010*%
%ADD30R,0.1910X0.0010*%
%ADD31R,0.0150X0.0010*%
%ADD32R,0.0660X0.0010*%
%ADD33R,0.0040X0.0010*%
%ADD34R,0.0110X0.0010*%
%ADD35R,0.0770X0.0010*%
%ADD36R,0.0640X0.0010*%
%ADD37R,0.0020X0.0010*%
%ADD38R,0.0100X0.0010*%
%ADD39R,0.0620X0.0010*%
%ADD40R,0.0090X0.0010*%
%ADD41R,0.0600X0.0010*%
%ADD42R,0.1110X0.0010*%
%ADD43R,0.0610X0.0010*%
%ADD44R,0.0010X0.0010*%
%ADD45R,0.0780X0.0010*%
%ADD46R,0.0550X0.0010*%
%ADD47R,0.1060X0.0010*%
%ADD48R,0.0080X0.0010*%
%ADD49R,0.0520X0.0010*%
%ADD50R,0.1030X0.0010*%
%ADD51R,0.0070X0.0010*%
%ADD52R,0.0060X0.0010*%
%ADD53R,0.0790X0.0010*%
%ADD54R,0.0490X0.0010*%
%ADD55R,0.1000X0.0010*%
%ADD56R,0.0460X0.0010*%
%ADD57R,0.0970X0.0010*%
%ADD58R,0.0440X0.0010*%
%ADD59R,0.0950X0.0010*%
%ADD60R,0.0800X0.0010*%
%ADD61R,0.0420X0.0010*%
%ADD62R,0.0930X0.0010*%
%ADD63R,0.0700X0.0010*%
%ADD64R,0.0030X0.0010*%
%ADD65R,0.0400X0.0010*%
%ADD66R,0.0910X0.0010*%
%ADD67R,0.0650X0.0010*%
%ADD68R,0.0390X0.0010*%
%ADD69R,0.0890X0.0010*%
%ADD70R,0.0050X0.0010*%
%ADD71R,0.0810X0.0010*%
%ADD72R,0.0370X0.0010*%
%ADD73R,0.0880X0.0010*%
%ADD74R,0.0360X0.0010*%
%ADD75R,0.0860X0.0010*%
%ADD76R,0.0590X0.0010*%
%ADD77R,0.0820X0.0010*%
%ADD78R,0.0340X0.0010*%
%ADD79R,0.0850X0.0010*%
%ADD80R,0.0580X0.0010*%
%ADD81R,0.0330X0.0010*%
%ADD82R,0.0840X0.0010*%
%ADD83R,0.0570X0.0010*%
%ADD84R,0.0160X0.0010*%
%ADD85R,0.0320X0.0010*%
%ADD86R,0.0220X0.0010*%
%ADD87R,0.0560X0.0010*%
%ADD88R,0.0830X0.0010*%
%ADD89R,0.0310X0.0010*%
%ADD90R,0.0300X0.0010*%
%ADD91R,0.0290X0.0010*%
%ADD92R,0.0280X0.0010*%
%ADD93R,0.0410X0.0010*%
%ADD94R,0.0270X0.0010*%
%ADD95R,0.0450X0.0010*%
%ADD96R,0.0260X0.0010*%
%ADD97R,0.0250X0.0010*%
%ADD98R,0.0760X0.0010*%
%ADD99R,0.0750X0.0010*%
%ADD100R,0.0140X0.0010*%
%ADD101R,0.0240X0.0010*%
%ADD102R,0.0210X0.0010*%
%ADD103R,0.2870X0.0010*%
%ADD104R,0.0230X0.0010*%
%ADD105R,0.0190X0.0010*%
%ADD106R,0.2860X0.0010*%
%ADD107R,0.0170X0.0010*%
%ADD108R,0.2850X0.0010*%
%ADD109R,0.2840X0.0010*%
%ADD110R,0.2830X0.0010*%
%ADD111R,0.0200X0.0010*%
%ADD112R,0.0130X0.0010*%
%ADD113R,0.2820X0.0010*%
%ADD114R,0.0180X0.0010*%
%ADD115R,0.0120X0.0010*%
%ADD116R,0.2810X0.0010*%
%ADD117R,0.2800X0.0010*%
%ADD118R,0.0380X0.0010*%
%ADD119R,0.0480X0.0010*%
%ADD120C,0.0006*%
D10*
X002552Y003472D02*
X009875Y003472D01*
X009876Y003473D02*
X009910Y003476D01*
X009944Y003483D01*
X009978Y003494D01*
X010010Y003507D01*
X010040Y003524D01*
X010069Y003543D01*
X010096Y003565D01*
X010121Y003590D01*
X010142Y003617D01*
X010162Y003646D01*
X010178Y003677D01*
X010191Y003710D01*
X010201Y003743D01*
X010207Y003777D01*
X010211Y003812D01*
X010210Y003847D01*
X010210Y003846D02*
X010210Y004654D01*
X010486Y004654D01*
X010486Y003886D01*
X010485Y003886D02*
X010484Y003848D01*
X010487Y003810D01*
X010493Y003773D01*
X010503Y003736D01*
X010517Y003701D01*
X010533Y003667D01*
X010554Y003635D01*
X010577Y003605D01*
X010603Y003578D01*
X010631Y003553D01*
X010662Y003531D01*
X010695Y003513D01*
X010729Y003497D01*
X010765Y003485D01*
X010802Y003477D01*
X010839Y003472D01*
X010840Y003472D02*
X031056Y003472D01*
X031057Y003473D02*
X031086Y003476D01*
X031115Y003483D01*
X031143Y003493D01*
X031170Y003506D01*
X031195Y003522D01*
X031217Y003542D01*
X031238Y003563D01*
X031255Y003587D01*
X031269Y003613D01*
X031280Y003641D01*
X031288Y003670D01*
X031292Y003699D01*
X031293Y003729D01*
X031293Y003728D02*
X031293Y004555D01*
X031608Y004555D01*
X031608Y003728D01*
X031608Y003729D02*
X031609Y003699D01*
X031613Y003670D01*
X031621Y003641D01*
X031632Y003613D01*
X031646Y003587D01*
X031663Y003563D01*
X031684Y003542D01*
X031706Y003522D01*
X031731Y003506D01*
X031758Y003493D01*
X031786Y003483D01*
X031815Y003476D01*
X031844Y003473D01*
X031844Y003472D02*
X041430Y003472D01*
X041471Y003471D01*
X041511Y003474D01*
X041551Y003480D01*
X041591Y003490D01*
X041629Y003503D01*
X041666Y003519D01*
X041701Y003539D01*
X041735Y003561D01*
X041767Y003587D01*
X041796Y003615D01*
X041822Y003645D01*
X041846Y003678D01*
X041867Y003713D01*
X041885Y003749D01*
X041900Y003787D01*
X041911Y003825D01*
X041919Y003865D01*
X041923Y003905D01*
X041923Y003906D02*
X041923Y012823D01*
X036486Y012823D01*
X036486Y019909D01*
X041923Y019909D01*
X041923Y030441D01*
X041923Y030440D02*
X041918Y030480D01*
X041910Y030519D01*
X041898Y030558D01*
X041883Y030595D01*
X041865Y030631D01*
X041844Y030665D01*
X041820Y030697D01*
X041793Y030727D01*
X041764Y030754D01*
X041733Y030779D01*
X041699Y030801D01*
X041664Y030820D01*
X041627Y030835D01*
X041589Y030848D01*
X041550Y030857D01*
X041511Y030863D01*
X041471Y030865D01*
X041431Y030864D01*
X041430Y030864D02*
X026125Y030864D01*
X026125Y030854D02*
X022434Y030854D01*
X022435Y030854D02*
X022407Y030847D01*
X022379Y030837D01*
X022354Y030824D01*
X022330Y030808D01*
X022308Y030790D01*
X022288Y030768D01*
X022271Y030745D01*
X022258Y030720D01*
X022247Y030693D01*
X022240Y030665D01*
X022236Y030636D01*
X022235Y030607D01*
X022238Y030579D01*
X022237Y030579D02*
X022237Y029654D01*
X021982Y029654D01*
X021982Y030579D01*
X021981Y030579D02*
X021984Y030607D01*
X021983Y030636D01*
X021979Y030665D01*
X021972Y030693D01*
X021961Y030720D01*
X021948Y030745D01*
X021931Y030768D01*
X021911Y030790D01*
X021889Y030808D01*
X021865Y030824D01*
X021840Y030837D01*
X021812Y030847D01*
X021784Y030854D01*
X021785Y030854D02*
X010958Y030854D01*
X010917Y030852D01*
X010876Y030847D01*
X010836Y030838D01*
X010797Y030826D01*
X010759Y030810D01*
X010722Y030791D01*
X010687Y030769D01*
X010655Y030744D01*
X010624Y030716D01*
X010596Y030685D01*
X010571Y030653D01*
X010549Y030618D01*
X010530Y030581D01*
X010514Y030543D01*
X010502Y030504D01*
X010493Y030464D01*
X010488Y030423D01*
X010486Y030382D01*
X010486Y029437D01*
X010171Y029437D01*
X010171Y030382D01*
X010174Y030421D01*
X010173Y030460D01*
X010169Y030498D01*
X010162Y030537D01*
X010151Y030574D01*
X010136Y030610D01*
X010119Y030645D01*
X010098Y030678D01*
X010074Y030709D01*
X010047Y030737D01*
X010018Y030763D01*
X009987Y030786D01*
X009954Y030807D01*
X009919Y030824D01*
X009882Y030837D01*
X009845Y030848D01*
X009806Y030855D01*
X009806Y030854D02*
X002552Y030854D01*
X002552Y003472D01*
D11*
X010387Y004811D02*
X010387Y006661D01*
X031450Y006661D01*
X041834Y006661D01*
X031450Y006661D02*
X031450Y004604D01*
X010535Y011337D02*
X010515Y027705D01*
X022119Y027705D01*
X022119Y029644D01*
X010535Y011337D02*
X004984Y011337D01*
D12*
X011007Y008338D02*
X011007Y008185D01*
X011084Y008108D01*
X011007Y008338D02*
X011084Y008415D01*
X011161Y008415D01*
X011467Y008108D01*
X011467Y008415D01*
X011467Y007955D02*
X011467Y007648D01*
X011467Y007801D02*
X011007Y007801D01*
X011161Y007648D01*
X011084Y007494D02*
X011007Y007418D01*
X011007Y007264D01*
X011084Y007187D01*
X011391Y007187D01*
X011467Y007264D01*
X011467Y007418D01*
X011391Y007494D01*
X008027Y004504D02*
X008027Y004157D01*
X007854Y003984D01*
X007680Y004157D01*
X007680Y004504D01*
X007425Y004504D02*
X007165Y004244D01*
X007512Y004244D01*
X007425Y003984D02*
X007425Y004504D01*
X006996Y004417D02*
X006909Y004504D01*
X006736Y004504D01*
X006649Y004417D01*
X006996Y004417D02*
X006996Y004331D01*
X006649Y003984D01*
X006996Y003984D01*
X006478Y003984D02*
X006391Y003984D01*
X006391Y004070D01*
X006478Y004070D01*
X006478Y003984D01*
X006220Y003984D02*
X006134Y003984D01*
X006134Y004070D01*
X006220Y004070D01*
X006220Y003984D01*
X005965Y003984D02*
X005618Y003984D01*
X005965Y004331D01*
X005965Y004417D01*
X005878Y004504D01*
X005705Y004504D01*
X005618Y004417D01*
X005276Y004504D02*
X005276Y003984D01*
X005449Y003984D02*
X005102Y003984D01*
X005102Y004331D02*
X005276Y004504D01*
X015978Y006042D02*
X016285Y006042D01*
X016438Y006042D02*
X016745Y006349D01*
X016899Y006349D02*
X017052Y006349D01*
X016975Y006425D02*
X016975Y006118D01*
X017052Y006042D01*
X017206Y006118D02*
X017282Y006042D01*
X017436Y006042D01*
X017513Y006118D01*
X017513Y006195D01*
X017436Y006272D01*
X017359Y006272D01*
X017436Y006272D02*
X017513Y006349D01*
X017513Y006425D01*
X017436Y006502D01*
X017282Y006502D01*
X017206Y006425D01*
X016745Y006042D02*
X016438Y006349D01*
X016285Y006502D02*
X015978Y006502D01*
X015978Y006042D01*
X015978Y006272D02*
X016131Y006272D01*
X022494Y006223D02*
X022647Y006223D01*
X022494Y006453D02*
X022494Y005992D01*
X022801Y005992D01*
X022954Y005992D02*
X023261Y006299D01*
X023414Y006299D02*
X023568Y006299D01*
X023491Y006376D02*
X023491Y006069D01*
X023568Y005992D01*
X023721Y006223D02*
X024028Y006223D01*
X023952Y006453D02*
X023952Y005992D01*
X023721Y006223D02*
X023952Y006453D01*
X023261Y005992D02*
X022954Y006299D01*
X022801Y006453D02*
X022494Y006453D01*
X028685Y006502D02*
X028685Y006042D01*
X028992Y006042D01*
X029145Y006042D02*
X029452Y006349D01*
X029605Y006349D02*
X029759Y006349D01*
X029682Y006425D02*
X029682Y006118D01*
X029759Y006042D01*
X029912Y006118D02*
X029989Y006042D01*
X030143Y006042D01*
X030219Y006118D01*
X030219Y006272D01*
X030143Y006349D01*
X030066Y006349D01*
X029912Y006272D01*
X029912Y006502D01*
X030219Y006502D01*
X029452Y006042D02*
X029145Y006349D01*
X028992Y006502D02*
X028685Y006502D01*
X028685Y006272D02*
X028838Y006272D01*
X034177Y006513D02*
X034177Y005992D01*
X034437Y005992D01*
X034524Y006079D01*
X034524Y006426D01*
X034437Y006513D01*
X034177Y006513D01*
X037425Y006503D02*
X037425Y005983D01*
X037772Y005983D01*
X037598Y006243D02*
X037425Y006243D01*
X037425Y006503D02*
X037772Y006503D01*
X040948Y006533D02*
X040948Y006012D01*
X040948Y006272D02*
X041122Y006272D01*
X040948Y006533D02*
X041295Y006533D01*
X041332Y021691D02*
X040871Y021691D01*
X040871Y021921D01*
X040948Y021998D01*
X041101Y021998D01*
X041178Y021921D01*
X041178Y021691D01*
X041101Y022152D02*
X041255Y022152D01*
X041332Y022228D01*
X041332Y022382D01*
X041255Y022459D01*
X041101Y022459D01*
X041025Y022382D01*
X041025Y022228D01*
X041101Y022152D01*
X041025Y022612D02*
X041255Y022612D01*
X041332Y022689D01*
X041255Y022766D01*
X041332Y022842D01*
X041255Y022919D01*
X041025Y022919D01*
X041101Y023072D02*
X041025Y023149D01*
X041025Y023303D01*
X041101Y023379D01*
X041178Y023379D01*
X041178Y023072D01*
X041255Y023072D02*
X041101Y023072D01*
X041255Y023072D02*
X041332Y023149D01*
X041332Y023303D01*
X041332Y023533D02*
X041025Y023533D01*
X041178Y023533D02*
X041025Y023686D01*
X041025Y023763D01*
X028263Y028310D02*
X028186Y028234D01*
X028033Y028234D01*
X027956Y028310D01*
X028263Y028617D01*
X028263Y028310D01*
X027956Y028310D02*
X027956Y028617D01*
X028033Y028694D01*
X028186Y028694D01*
X028263Y028617D01*
X027803Y028540D02*
X027803Y028234D01*
X027803Y028464D02*
X027496Y028464D01*
X027496Y028540D02*
X027649Y028694D01*
X027803Y028540D01*
X027496Y028540D02*
X027496Y028234D01*
X026882Y028540D02*
X026729Y028234D01*
X026575Y028540D01*
X026422Y028464D02*
X026422Y028387D01*
X026115Y028387D01*
X026115Y028310D02*
X026115Y028464D01*
X026191Y028540D01*
X026345Y028540D01*
X026422Y028464D01*
X026345Y028234D02*
X026191Y028234D01*
X026115Y028310D01*
X025961Y028234D02*
X025808Y028387D01*
X025884Y028387D02*
X025654Y028387D01*
X025654Y028234D02*
X025654Y028694D01*
X025884Y028694D01*
X025961Y028617D01*
X025961Y028464D01*
X025884Y028387D01*
D13*
X026993Y025447D02*
X026993Y025205D01*
X027041Y025157D01*
X027138Y025157D01*
X027186Y025205D01*
X027186Y025447D01*
X027287Y025350D02*
X027384Y025447D01*
X027384Y025157D01*
X027287Y025157D02*
X027481Y025157D01*
X027582Y025205D02*
X027775Y025399D01*
X027775Y025205D01*
X027727Y025157D01*
X027630Y025157D01*
X027582Y025205D01*
X027582Y025399D01*
X027630Y025447D01*
X027727Y025447D01*
X027775Y025399D01*
X029109Y025495D02*
X029109Y025302D01*
X029157Y025253D01*
X029254Y025253D01*
X029302Y025302D01*
X029403Y025302D02*
X029452Y025253D01*
X029549Y025253D01*
X029597Y025302D01*
X029597Y025398D01*
X029549Y025447D01*
X029500Y025447D01*
X029403Y025398D01*
X029403Y025543D01*
X029597Y025543D01*
X029698Y025398D02*
X029892Y025398D01*
X029843Y025253D02*
X029843Y025543D01*
X029698Y025398D01*
X029302Y025495D02*
X029254Y025543D01*
X029157Y025543D01*
X029109Y025495D01*
X030920Y025012D02*
X030920Y024722D01*
X030920Y024818D02*
X031065Y024818D01*
X031113Y024867D01*
X031113Y024964D01*
X031065Y025012D01*
X030920Y025012D01*
X031017Y024818D02*
X031113Y024722D01*
X031214Y024867D02*
X031360Y025012D01*
X031360Y024722D01*
X031408Y024867D02*
X031214Y024867D01*
X031509Y024867D02*
X031703Y024867D01*
X031654Y024722D02*
X031654Y025012D01*
X031509Y024867D01*
X031408Y024520D02*
X031214Y024520D01*
X031214Y024375D01*
X031311Y024423D01*
X031360Y024423D01*
X031408Y024375D01*
X031408Y024278D01*
X031360Y024230D01*
X031263Y024230D01*
X031214Y024278D01*
X031113Y024278D02*
X031065Y024230D01*
X030968Y024230D01*
X030920Y024278D01*
X030920Y024471D01*
X030968Y024520D01*
X031065Y024520D01*
X031113Y024471D01*
X031509Y024375D02*
X031509Y024278D01*
X031557Y024230D01*
X031654Y024230D01*
X031703Y024278D01*
X031703Y024326D01*
X031654Y024375D01*
X031509Y024375D01*
X031606Y024471D01*
X031703Y024520D01*
X030981Y023479D02*
X030981Y023285D01*
X030788Y023479D01*
X030740Y023479D01*
X030691Y023430D01*
X030691Y023334D01*
X030740Y023285D01*
X030836Y023184D02*
X030836Y022991D01*
X030691Y023136D01*
X030981Y023136D01*
X030981Y022890D02*
X030885Y022793D01*
X030885Y022841D02*
X030885Y022696D01*
X030981Y022696D02*
X030691Y022696D01*
X030691Y022841D01*
X030740Y022890D01*
X030836Y022890D01*
X030885Y022841D01*
X029827Y022135D02*
X029779Y022183D01*
X029682Y022183D01*
X029634Y022135D01*
X029827Y022135D02*
X029827Y022086D01*
X029634Y021893D01*
X029827Y021893D01*
X029533Y021893D02*
X029339Y021893D01*
X029339Y022183D01*
X029281Y022824D02*
X029281Y022969D01*
X029329Y023018D01*
X029426Y023018D01*
X029474Y022969D01*
X029474Y022824D01*
X029474Y022921D02*
X029571Y023018D01*
X029426Y023119D02*
X029426Y023312D01*
X029523Y023413D02*
X029571Y023462D01*
X029571Y023558D01*
X029523Y023607D01*
X029474Y023607D01*
X029426Y023558D01*
X029426Y023510D01*
X029426Y023558D02*
X029377Y023607D01*
X029329Y023607D01*
X029281Y023558D01*
X029281Y023462D01*
X029329Y023413D01*
X029281Y023264D02*
X029426Y023119D01*
X029571Y023264D02*
X029281Y023264D01*
X029281Y022824D02*
X029571Y022824D01*
X030477Y020739D02*
X030525Y020739D01*
X030573Y020690D01*
X030622Y020739D01*
X030670Y020739D01*
X030719Y020690D01*
X030719Y020594D01*
X030670Y020545D01*
X030670Y020444D02*
X030719Y020396D01*
X030719Y020299D01*
X030670Y020251D01*
X030573Y020251D02*
X030525Y020347D01*
X030525Y020396D01*
X030573Y020444D01*
X030670Y020444D01*
X030573Y020251D02*
X030428Y020251D01*
X030428Y020444D01*
X030477Y020545D02*
X030428Y020594D01*
X030428Y020690D01*
X030477Y020739D01*
X030573Y020690D02*
X030573Y020642D01*
X030477Y020149D02*
X030428Y020101D01*
X030428Y020004D01*
X030477Y019956D01*
X030670Y019956D01*
X030719Y020004D01*
X030719Y020101D01*
X030670Y020149D01*
X035015Y020064D02*
X035209Y020064D01*
X035112Y020064D02*
X035112Y020354D01*
X035015Y020257D01*
X035310Y020305D02*
X035358Y020354D01*
X035455Y020354D01*
X035503Y020305D01*
X035503Y020257D01*
X035310Y020064D01*
X035503Y020064D01*
X035604Y020064D02*
X035653Y020064D01*
X035653Y020112D01*
X035604Y020112D01*
X035604Y020064D01*
X035752Y020064D02*
X035800Y020064D01*
X035800Y020112D01*
X035752Y020112D01*
X035752Y020064D01*
X035899Y020064D02*
X036093Y020257D01*
X036093Y020305D01*
X036044Y020354D01*
X035947Y020354D01*
X035899Y020305D01*
X035899Y020064D02*
X036093Y020064D01*
X036194Y020209D02*
X036387Y020209D01*
X036488Y020160D02*
X036488Y020354D01*
X036339Y020354D02*
X036194Y020209D01*
X036339Y020064D02*
X036339Y020354D01*
X036488Y020160D02*
X036585Y020064D01*
X036682Y020160D01*
X036682Y020354D01*
X035993Y024538D02*
X036090Y024635D01*
X036090Y024828D01*
X035896Y024828D02*
X035896Y024635D01*
X035993Y024538D01*
X035795Y024586D02*
X035747Y024538D01*
X035650Y024538D01*
X035602Y024586D01*
X035503Y024586D02*
X035503Y024538D01*
X035454Y024538D01*
X035454Y024586D01*
X035503Y024586D01*
X035353Y024586D02*
X035305Y024538D01*
X035208Y024538D01*
X035160Y024586D01*
X035257Y024683D02*
X035305Y024683D01*
X035353Y024635D01*
X035353Y024586D01*
X035305Y024683D02*
X035353Y024731D01*
X035353Y024780D01*
X035305Y024828D01*
X035208Y024828D01*
X035160Y024780D01*
X035602Y024780D02*
X035650Y024828D01*
X035747Y024828D01*
X035795Y024780D01*
X035795Y024731D01*
X035747Y024683D01*
X035795Y024635D01*
X035795Y024586D01*
X035747Y024683D02*
X035699Y024683D01*
X025575Y024621D02*
X025575Y024525D01*
X025526Y024476D01*
X025430Y024476D02*
X025381Y024573D01*
X025381Y024621D01*
X025430Y024670D01*
X025526Y024670D01*
X025575Y024621D01*
X025430Y024476D02*
X025285Y024476D01*
X025285Y024670D01*
X025285Y024375D02*
X025285Y024182D01*
X025430Y024182D01*
X025381Y024278D01*
X025381Y024327D01*
X025430Y024375D01*
X025526Y024375D01*
X025575Y024327D01*
X025575Y024230D01*
X025526Y024182D01*
X025526Y024081D02*
X025575Y024032D01*
X025575Y023935D01*
X025526Y023887D01*
X025333Y023887D01*
X025285Y023935D01*
X025285Y024032D01*
X025333Y024081D01*
X024656Y023692D02*
X024656Y023498D01*
X024462Y023692D01*
X024414Y023692D01*
X024365Y023643D01*
X024365Y023546D01*
X024414Y023498D01*
X024365Y023397D02*
X024365Y023203D01*
X024510Y023203D01*
X024462Y023300D01*
X024462Y023348D01*
X024510Y023397D01*
X024607Y023397D01*
X024656Y023348D01*
X024656Y023252D01*
X024607Y023203D01*
X024607Y023102D02*
X024656Y023054D01*
X024656Y022957D01*
X024607Y022909D01*
X024414Y022909D01*
X024365Y022957D01*
X024365Y023054D01*
X024414Y023102D01*
X024071Y021201D02*
X024071Y021008D01*
X023925Y021153D01*
X024216Y021153D01*
X024167Y020907D02*
X023974Y020907D01*
X023925Y020858D01*
X023925Y020713D01*
X024216Y020713D01*
X024216Y020858D01*
X024167Y020907D01*
X021666Y022669D02*
X021353Y022983D01*
X021267Y023112D02*
X021509Y023112D01*
X021557Y023160D01*
X021557Y023257D01*
X021509Y023305D01*
X021267Y023305D01*
X021412Y023406D02*
X021412Y023600D01*
X021267Y023551D02*
X021412Y023406D01*
X021557Y023551D02*
X021267Y023551D01*
X021509Y022983D02*
X021509Y022669D01*
X021353Y022669D02*
X021666Y022983D01*
X021666Y022826D02*
X021353Y022826D01*
X021304Y027798D02*
X021449Y027798D01*
X021498Y027847D01*
X021449Y027895D01*
X021353Y027895D01*
X021304Y027944D01*
X021353Y027992D01*
X021498Y027992D01*
X021599Y027992D02*
X021696Y027992D01*
X021647Y028040D02*
X021647Y027847D01*
X021696Y027798D01*
X021795Y027847D02*
X021844Y027798D01*
X021940Y027798D01*
X021989Y027847D01*
X021989Y027944D01*
X021940Y027992D01*
X021844Y027992D01*
X021795Y027944D01*
X021795Y027847D01*
X022090Y027895D02*
X022187Y027992D01*
X022235Y027992D01*
X022335Y027944D02*
X022384Y027992D01*
X022529Y027992D01*
X022481Y027895D02*
X022384Y027895D01*
X022335Y027944D01*
X022335Y027798D02*
X022481Y027798D01*
X022529Y027847D01*
X022481Y027895D01*
X022090Y027798D02*
X022090Y027992D01*
X021204Y027798D02*
X021108Y027798D01*
X021156Y027798D02*
X021156Y027992D01*
X021108Y027992D01*
X021156Y028089D02*
X021156Y028137D01*
X021007Y027944D02*
X021007Y027798D01*
X020910Y027798D02*
X020910Y027944D01*
X020958Y027992D01*
X021007Y027944D01*
X020910Y027944D02*
X020861Y027992D01*
X020813Y027992D01*
X020813Y027798D01*
X020713Y027992D02*
X020664Y027992D01*
X020568Y027895D01*
X020568Y027798D02*
X020568Y027992D01*
X020466Y027944D02*
X020466Y027895D01*
X020273Y027895D01*
X020273Y027847D02*
X020273Y027944D01*
X020321Y027992D01*
X020418Y027992D01*
X020466Y027944D01*
X020418Y027798D02*
X020321Y027798D01*
X020273Y027847D01*
X020172Y027798D02*
X020172Y027944D01*
X020123Y027992D01*
X020027Y027992D01*
X019978Y027944D01*
X019978Y028089D02*
X019978Y027798D01*
X019780Y027798D02*
X019780Y028089D01*
X019684Y028089D02*
X019877Y028089D01*
X019245Y028044D02*
X019197Y027995D01*
X019100Y027995D01*
X019052Y028044D01*
X019052Y028140D02*
X019149Y028189D01*
X019197Y028189D01*
X019245Y028140D01*
X019245Y028044D01*
X019052Y028140D02*
X019052Y028286D01*
X019245Y028286D01*
X018952Y028189D02*
X018856Y028189D01*
X018904Y028237D02*
X018904Y028044D01*
X018952Y027995D01*
X018754Y027995D02*
X018561Y028189D01*
X018460Y028286D02*
X018266Y028286D01*
X018266Y027995D01*
X018460Y027995D01*
X018561Y027995D02*
X018754Y028189D01*
X018363Y028140D02*
X018266Y028140D01*
X015350Y028047D02*
X015157Y028047D01*
X015302Y028192D01*
X015302Y027902D01*
X015057Y027902D02*
X015009Y027950D01*
X015009Y028144D01*
X015057Y028095D02*
X014960Y028095D01*
X014859Y028095D02*
X014666Y027902D01*
X014564Y027902D02*
X014371Y027902D01*
X014371Y028192D01*
X014564Y028192D01*
X014666Y028095D02*
X014859Y027902D01*
X014468Y028047D02*
X014371Y028047D01*
X011734Y028060D02*
X011734Y028012D01*
X011686Y027964D01*
X011589Y027964D01*
X011541Y028012D01*
X011441Y027964D02*
X011393Y028012D01*
X011393Y028206D01*
X011441Y028157D02*
X011344Y028157D01*
X011243Y028157D02*
X011050Y027964D01*
X010948Y027964D02*
X010755Y027964D01*
X010755Y028254D01*
X010948Y028254D01*
X011050Y028157D02*
X011243Y027964D01*
X011541Y028206D02*
X011589Y028254D01*
X011686Y028254D01*
X011734Y028206D01*
X011734Y028157D01*
X011686Y028109D01*
X011734Y028060D01*
X011686Y028109D02*
X011637Y028109D01*
X010852Y028109D02*
X010755Y028109D01*
X009604Y027352D02*
X009604Y027228D01*
X009543Y027166D01*
X009419Y027166D02*
X009357Y027290D01*
X009357Y027352D01*
X009419Y027413D01*
X009543Y027413D01*
X009604Y027352D01*
X009419Y027166D02*
X009234Y027166D01*
X009234Y027413D01*
X009357Y027044D02*
X009357Y026921D01*
X009296Y026983D02*
X009543Y026983D01*
X009604Y027044D01*
X009604Y026799D02*
X009357Y026553D01*
X009234Y026431D02*
X009234Y026184D01*
X009604Y026184D01*
X009604Y026431D01*
X009604Y026553D02*
X009357Y026799D01*
X009419Y026308D02*
X009419Y026184D01*
X009409Y020415D02*
X009409Y020168D01*
X009224Y020354D01*
X009595Y020354D01*
X009595Y020046D02*
X009533Y019985D01*
X009286Y019985D01*
X009348Y020046D02*
X009348Y019923D01*
X009348Y019801D02*
X009595Y019555D01*
X009595Y019433D02*
X009595Y019186D01*
X009224Y019186D01*
X009224Y019433D01*
X009348Y019555D02*
X009595Y019801D01*
X009409Y019310D02*
X009409Y019186D01*
X009415Y014244D02*
X009476Y014182D01*
X009476Y014059D01*
X009415Y013997D01*
X009476Y013875D02*
X009415Y013813D01*
X009168Y013813D01*
X009230Y013752D02*
X009230Y013875D01*
X009168Y013997D02*
X009106Y014059D01*
X009106Y014182D01*
X009168Y014244D01*
X009230Y014244D01*
X009291Y014182D01*
X009353Y014244D01*
X009415Y014244D01*
X009291Y014182D02*
X009291Y014121D01*
X009230Y013630D02*
X009476Y013383D01*
X009476Y013262D02*
X009476Y013015D01*
X009106Y013015D01*
X009106Y013262D01*
X009230Y013383D02*
X009476Y013630D01*
X009291Y013138D02*
X009291Y013015D01*
X010139Y013042D02*
X010333Y013042D01*
X010236Y013042D02*
X010139Y013138D01*
X010139Y013187D01*
X010188Y013287D02*
X010139Y013336D01*
X010139Y013481D01*
X010236Y013432D02*
X010236Y013336D01*
X010188Y013287D01*
X010333Y013287D02*
X010333Y013432D01*
X010284Y013481D01*
X010236Y013432D01*
X010236Y012940D02*
X010236Y012747D01*
X010284Y012747D02*
X010188Y012747D01*
X010139Y012795D01*
X010139Y012892D01*
X010188Y012940D01*
X010236Y012940D01*
X010333Y012892D02*
X010333Y012795D01*
X010284Y012747D01*
X010333Y012647D02*
X010284Y012599D01*
X010091Y012599D01*
X010139Y012551D02*
X010139Y012647D01*
X010188Y012449D02*
X010333Y012449D01*
X010333Y012304D01*
X010284Y012256D01*
X010236Y012304D01*
X010236Y012449D01*
X010188Y012449D02*
X010139Y012401D01*
X010139Y012304D01*
X010188Y012155D02*
X010236Y012155D01*
X010236Y011961D01*
X010284Y011961D02*
X010188Y011961D01*
X010139Y012010D01*
X010139Y012106D01*
X010188Y012155D01*
X010333Y012106D02*
X010333Y012010D01*
X010284Y011961D01*
X010333Y011860D02*
X010042Y011860D01*
X010188Y011860D02*
X010188Y011667D01*
X010333Y011667D02*
X010042Y011667D01*
X001850Y011627D02*
X001560Y011820D01*
X001609Y011921D02*
X001560Y011970D01*
X001560Y012067D01*
X001609Y012115D01*
X001657Y012115D01*
X001850Y011921D01*
X001850Y012115D01*
X001850Y011820D02*
X001560Y011627D01*
X001542Y016460D02*
X001832Y016653D01*
X001783Y016754D02*
X001832Y016803D01*
X001832Y016899D01*
X001783Y016948D01*
X001735Y016948D01*
X001687Y016899D01*
X001687Y016851D01*
X001687Y016899D02*
X001638Y016948D01*
X001590Y016948D01*
X001542Y016899D01*
X001542Y016803D01*
X001590Y016754D01*
X001542Y016653D02*
X001832Y016460D01*
X001763Y023093D02*
X001473Y023287D01*
X001569Y023388D02*
X001473Y023485D01*
X001763Y023485D01*
X001763Y023388D02*
X001763Y023582D01*
X001763Y023287D02*
X001473Y023093D01*
X001481Y030024D02*
X001772Y030218D01*
X001772Y030319D02*
X001578Y030513D01*
X001530Y030513D01*
X001481Y030464D01*
X001481Y030367D01*
X001530Y030319D01*
X001481Y030218D02*
X001772Y030024D01*
X001772Y030319D02*
X001772Y030513D01*
X001772Y030614D02*
X001772Y030807D01*
X001772Y030711D02*
X001481Y030711D01*
X001578Y030614D01*
X019988Y006524D02*
X019939Y006475D01*
X019939Y006427D01*
X019988Y006379D01*
X020085Y006379D01*
X020133Y006330D01*
X020133Y006282D01*
X020085Y006234D01*
X019988Y006234D01*
X019939Y006282D01*
X019988Y006524D02*
X020085Y006524D01*
X020133Y006475D01*
X020234Y006427D02*
X020331Y006427D01*
X020283Y006475D02*
X020283Y006282D01*
X020331Y006234D01*
X020431Y006282D02*
X020431Y006379D01*
X020479Y006427D01*
X020576Y006427D01*
X020624Y006379D01*
X020624Y006330D01*
X020431Y006330D01*
X020431Y006282D02*
X020479Y006234D01*
X020576Y006234D01*
X020725Y006234D02*
X020870Y006234D01*
X020919Y006282D01*
X020919Y006379D01*
X020870Y006427D01*
X020725Y006427D01*
X020725Y006137D01*
X021020Y006137D02*
X021020Y006427D01*
X021165Y006427D01*
X021213Y006379D01*
X021213Y006282D01*
X021165Y006234D01*
X021020Y006234D01*
X021315Y006282D02*
X021315Y006379D01*
X021363Y006427D01*
X021460Y006427D01*
X021508Y006379D01*
X021508Y006330D01*
X021315Y006330D01*
X021315Y006282D02*
X021363Y006234D01*
X021460Y006234D01*
X021609Y006234D02*
X021609Y006427D01*
X021609Y006330D02*
X021706Y006427D01*
X021754Y006427D01*
X021855Y006379D02*
X021903Y006427D01*
X022048Y006427D01*
X022000Y006330D02*
X021903Y006330D01*
X021855Y006379D01*
X021855Y006234D02*
X022000Y006234D01*
X022048Y006282D01*
X022000Y006330D01*
X038542Y006307D02*
X038663Y006307D01*
X038542Y006125D02*
X038542Y006489D01*
X038785Y006489D01*
X038965Y006368D02*
X039086Y006368D01*
X039147Y006307D01*
X039147Y006125D01*
X038965Y006125D01*
X038904Y006186D01*
X038965Y006247D01*
X039147Y006247D01*
X039267Y006368D02*
X039449Y006368D01*
X039510Y006307D01*
X039510Y006125D01*
X039629Y006125D02*
X039811Y006125D01*
X039872Y006186D01*
X039811Y006247D01*
X039690Y006247D01*
X039629Y006307D01*
X039690Y006368D01*
X039872Y006368D01*
X039267Y006368D02*
X039267Y006125D01*
D14*
X028325Y029108D02*
X028325Y029654D01*
X028143Y029836D01*
X027779Y029836D01*
X027597Y029654D01*
X027238Y029836D02*
X026692Y029836D01*
X026510Y029654D01*
X026510Y029290D01*
X026692Y029108D01*
X027238Y029108D01*
X027597Y029108D02*
X027597Y030200D01*
X026150Y029654D02*
X026150Y029108D01*
X025604Y029108D01*
X025422Y029290D01*
X025604Y029472D01*
X026150Y029472D01*
X026150Y029654D02*
X025968Y029836D01*
X025604Y029836D01*
X025063Y029654D02*
X025063Y029472D01*
X024335Y029472D01*
X024335Y029290D02*
X024335Y029654D01*
X024517Y029836D01*
X024881Y029836D01*
X025063Y029654D01*
X024881Y029108D02*
X024517Y029108D01*
X024335Y029290D01*
X023975Y029108D02*
X023611Y029472D01*
X023793Y029472D02*
X023247Y029472D01*
X023793Y029472D02*
X023975Y029654D01*
X023975Y030018D01*
X023793Y030200D01*
X023247Y030200D01*
X023247Y029108D01*
D15*
X000199Y004552D02*
X000199Y003502D01*
X001399Y003502D01*
X004949Y003502D01*
X004949Y004652D01*
X004949Y005152D02*
X004949Y006652D01*
X004949Y007152D02*
X004949Y008652D01*
X004949Y009152D02*
X004949Y010652D01*
X004949Y011152D02*
X004949Y012302D01*
X001399Y012302D01*
X000199Y012302D01*
X000199Y011252D01*
X000199Y010552D01*
X000199Y009252D01*
X000199Y008552D01*
X000199Y007252D01*
X000699Y007102D01*
X000699Y006702D01*
X000199Y006552D01*
X000199Y005252D01*
X000699Y005102D01*
X000699Y004702D01*
X000199Y004552D01*
X000199Y005252D01*
X000199Y006552D02*
X000199Y007252D01*
X000199Y008552D02*
X000699Y008702D01*
X000699Y009102D01*
X000199Y009252D01*
X000199Y010552D02*
X000699Y010702D01*
X000699Y011102D01*
X000199Y011252D01*
X001399Y012302D02*
X001399Y003502D01*
X001399Y012352D02*
X000199Y012352D01*
X000199Y013402D01*
X000199Y014102D01*
X000699Y013952D01*
X000699Y013552D01*
X000199Y013402D01*
X000199Y014102D02*
X000199Y015402D01*
X000199Y016102D01*
X000699Y015952D01*
X000699Y015552D01*
X000199Y015402D01*
X000199Y016102D02*
X000199Y017152D01*
X001399Y017152D01*
X001399Y012352D01*
X004949Y012352D01*
X004949Y013502D01*
X004949Y014002D02*
X004949Y015502D01*
X004949Y016002D02*
X004949Y017152D01*
X001399Y017152D01*
X001330Y019025D02*
X000130Y019025D01*
X000130Y020075D01*
X000130Y020775D01*
X000630Y020625D01*
X000630Y020225D01*
X000130Y020075D01*
X000130Y020775D02*
X000130Y022075D01*
X000130Y022775D01*
X000630Y022625D01*
X000630Y022225D01*
X000130Y022075D01*
X000130Y022775D02*
X000130Y023825D01*
X001330Y023825D01*
X001330Y019025D01*
X004880Y019025D01*
X004880Y020175D01*
X004880Y020675D02*
X004880Y022175D01*
X004880Y022675D02*
X004880Y023825D01*
X001330Y023825D01*
X001399Y026053D02*
X000199Y026053D01*
X000199Y027103D01*
X000199Y027803D01*
X000699Y027653D01*
X000699Y027253D01*
X000199Y027103D01*
X000199Y027803D02*
X000199Y029103D01*
X000199Y029803D01*
X000699Y029653D01*
X000699Y029253D01*
X000199Y029103D01*
X000199Y029803D02*
X000199Y030853D01*
X001399Y030853D01*
X001399Y026053D01*
X004949Y026053D01*
X004949Y027203D01*
X004949Y027703D02*
X004949Y029203D01*
X004949Y029703D02*
X004949Y030853D01*
X001399Y030853D01*
X008336Y030312D02*
X008336Y030275D01*
X008336Y030312D02*
X008974Y030312D01*
X008974Y030275D01*
X008974Y029957D02*
X008974Y029920D01*
X008974Y029583D02*
X008974Y029546D01*
X008974Y029229D02*
X008974Y029192D01*
X008336Y029192D01*
X008336Y029229D01*
X008336Y029546D02*
X008336Y029957D01*
X015942Y025152D02*
X015942Y024652D01*
X016192Y024402D01*
X015942Y024152D01*
X015942Y023652D01*
X016192Y023402D01*
X015942Y023152D01*
X015942Y022652D01*
X016192Y022402D01*
X015942Y022152D01*
X015942Y021652D01*
X016192Y021402D01*
X015942Y021152D01*
X015942Y020652D01*
X016192Y020402D01*
X017692Y020402D01*
X017942Y020652D01*
X017942Y021152D01*
X017692Y021402D01*
X017942Y021652D01*
X017942Y022152D01*
X017692Y022402D01*
X017942Y022652D01*
X017942Y023152D01*
X017692Y023402D01*
X017942Y023652D01*
X017942Y024152D01*
X017692Y024402D01*
X017942Y024652D01*
X017942Y025152D01*
X017692Y025402D01*
X016192Y025402D01*
X015942Y025152D01*
X021710Y023384D02*
X021710Y023324D01*
X022490Y023324D02*
X022490Y023384D01*
X027206Y023768D02*
X027202Y024984D01*
X027304Y025087D02*
X028273Y025087D01*
X028371Y024984D02*
X028375Y023783D01*
X028375Y023780D02*
X028376Y023759D01*
X028373Y023739D01*
X028367Y023720D01*
X028357Y023702D01*
X028344Y023686D01*
X028329Y023672D01*
X028312Y023662D01*
X028293Y023654D01*
X028273Y023650D01*
X027300Y023650D01*
X027300Y023649D02*
X027283Y023653D01*
X027266Y023659D01*
X027251Y023668D01*
X027238Y023679D01*
X027227Y023693D01*
X027218Y023708D01*
X027212Y023725D01*
X027209Y023742D01*
X027209Y023760D01*
X033367Y028408D02*
X033387Y028388D01*
X033507Y028388D01*
X033507Y028398D01*
X033547Y028438D01*
X033537Y028438D01*
X033497Y028478D01*
X033497Y028848D01*
X033527Y028878D01*
X033527Y028938D01*
X033597Y029008D01*
X033597Y029118D01*
X033607Y029128D01*
X033567Y029128D01*
X033567Y029108D01*
X033547Y029108D01*
X033547Y029078D01*
X033527Y029078D01*
X033527Y029048D01*
X033517Y029048D01*
X033517Y029018D01*
X033497Y029018D01*
X033497Y028948D01*
X033467Y028918D01*
X033467Y028868D01*
X033457Y028858D01*
X033457Y028808D01*
X033417Y028768D01*
X033417Y028688D01*
X033397Y028668D01*
X033397Y028538D01*
X033417Y028518D01*
X033417Y028488D01*
X033387Y028458D01*
X033387Y028438D01*
X033367Y028418D01*
X033367Y028408D01*
X033381Y028394D02*
X033507Y028394D01*
X033527Y028378D02*
X033540Y028385D01*
X033551Y028396D01*
X033560Y028409D01*
X033565Y028423D01*
X033567Y028438D01*
X033565Y028453D01*
X033560Y028467D01*
X033551Y028480D01*
X033540Y028491D01*
X033527Y028498D01*
X033497Y028511D02*
X033417Y028511D01*
X033377Y028498D02*
X033377Y028718D01*
X033417Y028745D02*
X033497Y028745D01*
X033497Y028803D02*
X033452Y028803D01*
X033407Y028768D02*
X033477Y028968D01*
X033497Y028979D02*
X033567Y028979D01*
X033617Y028998D02*
X033617Y029008D01*
X034067Y029008D01*
X034067Y028688D01*
X034337Y028688D01*
X034337Y028718D01*
X034467Y028718D01*
X034467Y028698D01*
X034777Y028698D01*
X034777Y028568D01*
X034747Y028568D01*
X034747Y028588D01*
X034727Y028588D01*
X034727Y028498D01*
X034657Y028498D01*
X034657Y028598D01*
X034647Y028598D01*
X034647Y028478D01*
X034617Y028478D01*
X034617Y028048D01*
X034667Y028048D01*
X034667Y027918D01*
X034707Y027918D01*
X034707Y027898D01*
X034567Y027898D01*
X034567Y027948D01*
X034507Y027948D01*
X034507Y028008D01*
X034487Y028008D01*
X034477Y028015D01*
X034470Y028024D01*
X034466Y028035D01*
X034466Y028047D01*
X034470Y028058D01*
X034477Y028068D01*
X034497Y028088D01*
X034527Y028088D01*
X034527Y028478D01*
X034517Y028488D01*
X033977Y028488D01*
X033937Y028448D01*
X033937Y028088D01*
X033967Y028058D01*
X033947Y028038D01*
X033947Y027938D01*
X033907Y027898D01*
X033767Y027898D01*
X033777Y027908D01*
X033777Y027948D01*
X033787Y027958D01*
X033787Y027988D01*
X033817Y028018D01*
X033817Y028038D01*
X033827Y028048D01*
X033827Y028058D01*
X033867Y028098D01*
X033867Y028488D01*
X033857Y028498D01*
X033797Y028498D01*
X033757Y028538D01*
X033737Y028538D01*
X033687Y028588D01*
X033687Y028968D01*
X033657Y028998D01*
X033617Y028998D01*
X033627Y029018D02*
X033627Y029108D01*
X033637Y029118D01*
X033647Y029118D01*
X034237Y029148D01*
X034217Y029148D01*
X034157Y029138D01*
X034017Y028998D01*
X033647Y028998D01*
X033627Y029018D01*
X033627Y029037D02*
X034056Y029037D01*
X034107Y029037D02*
X034148Y029037D01*
X034127Y029058D02*
X034107Y029058D01*
X034107Y028818D01*
X034107Y028838D01*
X034237Y028968D01*
X034217Y028968D01*
X034127Y029058D01*
X034114Y029096D02*
X033627Y029096D01*
X033597Y029096D02*
X033547Y029096D01*
X033517Y029037D02*
X033597Y029037D01*
X033637Y028958D02*
X033637Y028628D01*
X033647Y028618D01*
X033687Y028628D02*
X034777Y028628D01*
X034817Y028658D02*
X034817Y028988D01*
X034837Y028988D01*
X034837Y029018D02*
X034787Y029018D01*
X034787Y028748D01*
X034737Y028748D01*
X034727Y028758D01*
X034727Y028838D01*
X034697Y028868D01*
X034687Y028868D01*
X034557Y028998D01*
X034277Y028998D01*
X034267Y029008D01*
X034597Y029018D01*
X034597Y029038D01*
X034647Y029088D01*
X034847Y029088D01*
X034897Y029138D01*
X034897Y029108D01*
X034957Y029048D01*
X034957Y028978D01*
X035007Y028928D01*
X035007Y028838D01*
X035057Y028788D01*
X035057Y028488D01*
X035087Y028458D01*
X035087Y028448D01*
X035107Y028428D01*
X035107Y028408D01*
X035077Y028378D01*
X034987Y028378D01*
X034967Y028398D01*
X034947Y028398D01*
X034927Y028418D01*
X034927Y028468D01*
X034947Y028468D01*
X034977Y028498D01*
X034977Y028728D01*
X034947Y028758D01*
X034947Y028848D01*
X034897Y028898D01*
X034897Y028958D01*
X034837Y029018D01*
X034876Y028979D02*
X034957Y028979D01*
X034957Y029037D02*
X034597Y029037D01*
X034617Y029058D02*
X034777Y029058D01*
X034837Y029118D01*
X034837Y029128D01*
X034607Y029128D01*
X034597Y029138D01*
X034517Y029138D01*
X034557Y029178D01*
X034567Y029178D01*
X034607Y029138D01*
X034607Y029108D01*
X034617Y029098D01*
X034617Y029058D01*
X034617Y029096D02*
X034814Y029096D01*
X034854Y029096D02*
X034909Y029096D01*
X034867Y029158D02*
X033617Y029158D01*
X033597Y029178D01*
X033597Y029378D01*
X033607Y029388D01*
X033617Y029378D01*
X033617Y029388D01*
X033917Y029388D01*
X033957Y029348D01*
X034097Y029348D01*
X034107Y029358D01*
X035037Y029358D01*
X035037Y029328D01*
X034987Y029278D01*
X034937Y029278D01*
X034857Y029198D01*
X034857Y029168D01*
X034867Y029158D01*
X034871Y029213D02*
X033597Y029213D01*
X033572Y029213D01*
X033597Y029188D02*
X033597Y029568D01*
X033607Y029578D01*
X033587Y029578D01*
X033517Y029648D01*
X033517Y029838D01*
X033617Y029938D01*
X033617Y030068D01*
X033517Y030068D01*
X033487Y030098D01*
X033487Y030108D01*
X033427Y030048D01*
X033427Y029458D01*
X033437Y029448D01*
X033437Y029338D01*
X033527Y029248D01*
X033537Y029248D01*
X033597Y029188D01*
X033597Y029271D02*
X034930Y029271D01*
X034892Y029379D02*
X034897Y029382D01*
X034900Y029387D01*
X034902Y029393D01*
X034900Y029399D01*
X034897Y029404D01*
X034892Y029407D01*
X034887Y029408D01*
X034897Y029408D01*
X034917Y029411D01*
X034937Y029418D01*
X034954Y029431D01*
X034967Y029447D01*
X034975Y029466D01*
X034979Y029487D01*
X034977Y029508D01*
X034987Y029508D01*
X034987Y029918D01*
X034977Y029918D01*
X034977Y030028D01*
X034927Y030028D01*
X034927Y030048D01*
X034917Y030048D01*
X034917Y030088D01*
X034967Y030088D01*
X034967Y030078D01*
X034987Y030088D01*
X035007Y030088D01*
X035007Y030018D01*
X035037Y030018D01*
X035037Y029998D01*
X035057Y029998D01*
X035057Y029378D01*
X034867Y029378D01*
X034887Y029378D01*
X034892Y029379D01*
X034901Y029388D02*
X035057Y029388D01*
X035077Y029438D02*
X035077Y029958D01*
X035057Y029973D02*
X034977Y029973D01*
X034987Y029915D02*
X035057Y029915D01*
X035057Y029856D02*
X034987Y029856D01*
X034987Y029798D02*
X035057Y029798D01*
X035057Y029739D02*
X034987Y029739D01*
X034987Y029681D02*
X035057Y029681D01*
X035057Y029622D02*
X034987Y029622D01*
X034987Y029564D02*
X035057Y029564D01*
X035057Y029505D02*
X034977Y029505D01*
X034966Y029447D02*
X035057Y029447D01*
X035037Y029330D02*
X033597Y029330D01*
X033445Y029330D01*
X033437Y029388D02*
X033597Y029388D01*
X033537Y029198D02*
X033511Y029208D01*
X033486Y029220D01*
X033463Y029236D01*
X033443Y029255D01*
X033425Y029277D01*
X033411Y029301D01*
X033399Y029326D01*
X033392Y029353D01*
X033388Y029380D01*
X033387Y029408D01*
X033387Y029968D01*
X033427Y029973D02*
X033617Y029973D01*
X033616Y030198D02*
X033588Y030199D01*
X033560Y030196D01*
X033533Y030189D01*
X033506Y030180D01*
X033481Y030166D01*
X033458Y030150D01*
X033438Y030131D01*
X033419Y030110D01*
X033404Y030086D01*
X033392Y030060D01*
X033383Y030034D01*
X033378Y030006D01*
X033376Y029978D01*
X033427Y030032D02*
X033617Y030032D01*
X033647Y030032D02*
X033967Y030032D01*
X033967Y030028D02*
X033907Y029968D01*
X033907Y029598D01*
X033897Y029588D01*
X033897Y029578D01*
X033867Y029548D01*
X033867Y029488D01*
X033877Y029478D01*
X033877Y029438D01*
X033907Y029408D01*
X033667Y029408D01*
X033657Y029418D01*
X033657Y029518D01*
X033637Y029538D01*
X033707Y029538D01*
X033767Y029598D01*
X033767Y029608D01*
X033837Y029678D01*
X033837Y029798D01*
X033827Y029808D01*
X033827Y029818D01*
X033717Y029928D01*
X033647Y029928D01*
X033647Y030058D01*
X033637Y030068D01*
X033947Y030068D01*
X033967Y030048D01*
X033967Y030028D01*
X033967Y030078D02*
X034047Y030068D01*
X034387Y030278D01*
X034327Y030278D02*
X034325Y030287D01*
X034321Y030296D01*
X034314Y030302D01*
X034306Y030306D01*
X034297Y030308D01*
X034207Y030308D01*
X034130Y030301D01*
X034056Y030279D01*
X033988Y030245D01*
X033927Y030198D01*
X033909Y030185D01*
X033889Y030178D01*
X033868Y030175D01*
X033847Y030178D01*
X033577Y030178D01*
X033577Y030168D01*
X033567Y030168D01*
X034887Y030168D01*
X034527Y030168D01*
X034497Y030198D01*
X034494Y030213D01*
X034487Y030227D01*
X034476Y030238D01*
X034462Y030246D01*
X034447Y030248D01*
X034247Y030248D01*
X034248Y030257D01*
X034252Y030266D01*
X034259Y030272D01*
X034267Y030276D01*
X034277Y030278D01*
X034327Y030278D01*
X034252Y030266D02*
X034029Y030266D01*
X033938Y030207D02*
X034495Y030207D01*
X034537Y030208D02*
X034827Y030208D01*
X034817Y030048D02*
X034787Y030048D01*
X034097Y030048D01*
X034077Y030048D01*
X034137Y029928D02*
X034767Y029928D01*
X034767Y029888D01*
X034507Y029888D01*
X034507Y029718D01*
X034417Y029718D01*
X034417Y029888D01*
X034457Y029888D01*
X034467Y029898D01*
X034467Y029768D01*
X034417Y029888D02*
X034137Y029888D01*
X033877Y030218D02*
X033908Y030246D01*
X033942Y030271D01*
X033977Y030292D01*
X034015Y030310D01*
X034054Y030325D01*
X034094Y030336D01*
X034135Y030344D01*
X034176Y030348D01*
X034218Y030348D01*
X034259Y030344D01*
X034300Y030336D01*
X034340Y030325D01*
X034379Y030310D01*
X034417Y030292D01*
X034452Y030271D01*
X034486Y030246D01*
X034517Y030218D01*
X034837Y030208D02*
X034866Y030206D01*
X034894Y030201D01*
X034922Y030192D01*
X034949Y030181D01*
X034973Y030166D01*
X034996Y030148D01*
X035017Y030127D01*
X035035Y030104D01*
X035050Y030080D01*
X035061Y030053D01*
X035070Y030025D01*
X035075Y029997D01*
X035077Y029968D01*
X035007Y030032D02*
X034927Y030032D01*
X034947Y029908D02*
X034947Y029578D01*
X034947Y029568D02*
X034947Y029547D01*
X034943Y029527D01*
X034936Y029507D01*
X034925Y029489D01*
X034912Y029473D01*
X034896Y029460D01*
X034878Y029449D01*
X034858Y029442D01*
X034838Y029438D01*
X034817Y029438D01*
X034817Y029428D02*
X034087Y029428D01*
X034087Y029418D02*
X034827Y029418D01*
X034827Y029428D01*
X034917Y029218D02*
X034942Y029220D01*
X034966Y029225D01*
X034989Y029234D01*
X035011Y029246D01*
X035031Y029261D01*
X035048Y029279D01*
X035063Y029299D01*
X035074Y029321D01*
X035083Y029344D01*
X035088Y029368D01*
X035089Y029393D01*
X035087Y029418D01*
X034757Y029708D02*
X034759Y029716D01*
X034764Y029723D01*
X034771Y029727D01*
X034779Y029728D01*
X034787Y029725D01*
X034793Y029720D01*
X034797Y029712D01*
X034797Y029704D01*
X034793Y029696D01*
X034787Y029691D01*
X034779Y029688D01*
X034771Y029689D01*
X034764Y029693D01*
X034759Y029700D01*
X034757Y029708D01*
X034707Y029718D02*
X034709Y029731D01*
X034714Y029744D01*
X034723Y029755D01*
X034734Y029762D01*
X034747Y029767D01*
X034760Y029768D01*
X034774Y029765D01*
X034786Y029759D01*
X034796Y029750D01*
X034803Y029738D01*
X034807Y029725D01*
X034807Y029711D01*
X034803Y029698D01*
X034796Y029686D01*
X034786Y029677D01*
X034774Y029671D01*
X034760Y029668D01*
X034747Y029669D01*
X034734Y029674D01*
X034723Y029681D01*
X034714Y029692D01*
X034709Y029705D01*
X034707Y029718D01*
X034617Y029608D02*
X034617Y029538D01*
X034507Y029538D02*
X034507Y029608D01*
X034417Y029608D02*
X034417Y029538D01*
X034307Y029538D02*
X034307Y029608D01*
X034127Y029708D02*
X034129Y029713D01*
X034133Y029717D01*
X034138Y029718D01*
X034144Y029716D01*
X034147Y029711D01*
X034147Y029705D01*
X034144Y029700D01*
X034138Y029698D01*
X034133Y029699D01*
X034129Y029703D01*
X034127Y029708D01*
X034087Y029708D02*
X034089Y029721D01*
X034094Y029734D01*
X034103Y029745D01*
X034114Y029752D01*
X034127Y029757D01*
X034140Y029758D01*
X034154Y029755D01*
X034166Y029749D01*
X034176Y029740D01*
X034183Y029728D01*
X034187Y029715D01*
X034187Y029701D01*
X034183Y029688D01*
X034176Y029676D01*
X034166Y029667D01*
X034154Y029661D01*
X034140Y029658D01*
X034127Y029659D01*
X034114Y029664D01*
X034103Y029671D01*
X034094Y029682D01*
X034089Y029695D01*
X034087Y029708D01*
X033927Y029568D02*
X033929Y029546D01*
X033934Y029525D01*
X033942Y029505D01*
X033953Y029486D01*
X033967Y029469D01*
X033984Y029455D01*
X034002Y029443D01*
X034022Y029435D01*
X034043Y029429D01*
X034065Y029427D01*
X034087Y029428D01*
X034087Y029368D02*
X034065Y029359D01*
X034042Y029353D01*
X034019Y029351D01*
X033995Y029353D01*
X033972Y029358D01*
X033950Y029366D01*
X033930Y029378D01*
X033911Y029393D01*
X033895Y029410D01*
X033882Y029430D01*
X033873Y029452D01*
X033866Y029474D01*
X033863Y029498D01*
X033864Y029521D01*
X033868Y029545D01*
X033876Y029567D01*
X033887Y029588D01*
X033882Y029564D02*
X033732Y029564D01*
X033781Y029622D02*
X033907Y029622D01*
X033927Y029578D02*
X033927Y029908D01*
X033937Y029908D01*
X033907Y029915D02*
X033730Y029915D01*
X033789Y029856D02*
X033907Y029856D01*
X033907Y029798D02*
X033837Y029798D01*
X033837Y029739D02*
X033907Y029739D01*
X033907Y029681D02*
X033837Y029681D01*
X033667Y029589D02*
X033643Y029593D01*
X033620Y029601D01*
X033598Y029612D01*
X033578Y029627D01*
X033561Y029645D01*
X033547Y029665D01*
X033536Y029687D01*
X033529Y029711D01*
X033525Y029735D01*
X033526Y029759D01*
X033530Y029784D01*
X033538Y029807D01*
X033549Y029829D01*
X033564Y029848D01*
X033582Y029866D01*
X033602Y029880D01*
X033624Y029891D01*
X033647Y029898D01*
X033593Y029915D02*
X033427Y029915D01*
X033427Y029856D02*
X033535Y029856D01*
X033517Y029798D02*
X033427Y029798D01*
X033427Y029739D02*
X033517Y029739D01*
X033517Y029681D02*
X033427Y029681D01*
X033427Y029622D02*
X033543Y029622D01*
X033597Y029564D02*
X033427Y029564D01*
X033427Y029505D02*
X033597Y029505D01*
X033597Y029447D02*
X033437Y029447D01*
X033504Y029271D02*
X033597Y029271D01*
X033657Y029447D02*
X033877Y029447D01*
X033867Y029505D02*
X033657Y029505D01*
X033687Y029598D02*
X033710Y029606D01*
X033732Y029617D01*
X033751Y029631D01*
X033768Y029648D01*
X033782Y029668D01*
X033793Y029690D01*
X033800Y029713D01*
X033804Y029737D01*
X033803Y029761D01*
X033799Y029785D01*
X033791Y029808D01*
X033779Y029829D01*
X033764Y029848D01*
X033747Y029865D01*
X033727Y029878D01*
X033704Y029889D01*
X033681Y029895D01*
X033657Y029898D01*
X033647Y029973D02*
X033912Y029973D01*
X033926Y029908D02*
X033929Y029931D01*
X033935Y029952D01*
X033944Y029973D01*
X033956Y029992D01*
X033971Y030009D01*
X033989Y030023D01*
X034008Y030035D01*
X034029Y030043D01*
X034051Y030048D01*
X034074Y030050D01*
X034096Y030048D01*
X033887Y030218D02*
X033867Y030198D01*
X033627Y030198D01*
X033495Y030090D02*
X033469Y030090D01*
X034347Y029138D02*
X034447Y029138D01*
X034457Y029148D01*
X034533Y029154D02*
X034591Y029154D01*
X034494Y029078D02*
X034496Y029093D01*
X034501Y029107D01*
X034510Y029120D01*
X034521Y029130D01*
X034535Y029137D01*
X034549Y029141D01*
X034565Y029141D01*
X034579Y029137D01*
X034593Y029130D01*
X034604Y029120D01*
X034613Y029107D01*
X034618Y029093D01*
X034620Y029078D01*
X034618Y029063D01*
X034613Y029049D01*
X034604Y029036D01*
X034593Y029026D01*
X034579Y029019D01*
X034565Y029015D01*
X034549Y029015D01*
X034535Y029019D01*
X034521Y029026D01*
X034510Y029036D01*
X034501Y029049D01*
X034496Y029063D01*
X034494Y029078D01*
X034330Y029078D02*
X034332Y029094D01*
X034338Y029109D01*
X034347Y029122D01*
X034359Y029133D01*
X034373Y029141D01*
X034389Y029145D01*
X034405Y029145D01*
X034421Y029141D01*
X034435Y029133D01*
X034447Y029122D01*
X034456Y029109D01*
X034462Y029094D01*
X034464Y029078D01*
X034462Y029062D01*
X034456Y029047D01*
X034447Y029034D01*
X034435Y029023D01*
X034421Y029015D01*
X034405Y029011D01*
X034389Y029011D01*
X034373Y029015D01*
X034359Y029023D01*
X034347Y029034D01*
X034338Y029047D01*
X034332Y029062D01*
X034330Y029078D01*
X034170Y029078D02*
X034172Y029094D01*
X034178Y029109D01*
X034187Y029122D01*
X034199Y029133D01*
X034213Y029141D01*
X034229Y029145D01*
X034245Y029145D01*
X034261Y029141D01*
X034275Y029133D01*
X034287Y029122D01*
X034296Y029109D01*
X034302Y029094D01*
X034304Y029078D01*
X034302Y029062D01*
X034296Y029047D01*
X034287Y029034D01*
X034275Y029023D01*
X034261Y029015D01*
X034245Y029011D01*
X034229Y029011D01*
X034213Y029015D01*
X034199Y029023D01*
X034187Y029034D01*
X034178Y029047D01*
X034172Y029062D01*
X034170Y029078D01*
X034206Y028979D02*
X034107Y028979D01*
X034067Y028979D02*
X033676Y028979D01*
X033687Y028920D02*
X034067Y028920D01*
X034107Y028920D02*
X034189Y028920D01*
X034130Y028862D02*
X034107Y028862D01*
X034067Y028862D02*
X033687Y028862D01*
X033687Y028803D02*
X034067Y028803D01*
X034067Y028745D02*
X033687Y028745D01*
X033687Y028686D02*
X034777Y028686D01*
X034687Y028728D02*
X034467Y028728D01*
X035057Y028838D02*
X035050Y028883D01*
X035039Y028928D01*
X035025Y028972D01*
X035007Y029014D01*
X034987Y029056D01*
X034963Y029095D01*
X034937Y029133D01*
X034907Y029168D01*
X034787Y028979D02*
X034576Y028979D01*
X034635Y028920D02*
X034787Y028920D01*
X034787Y028862D02*
X034703Y028862D01*
X034727Y028803D02*
X034787Y028803D01*
X034687Y028768D02*
X034695Y028766D01*
X034701Y028762D01*
X034705Y028756D01*
X034707Y028748D01*
X034705Y028740D01*
X034701Y028734D01*
X034695Y028730D01*
X034687Y028728D01*
X034817Y028638D02*
X034815Y028612D01*
X034809Y028586D01*
X034799Y028562D01*
X034786Y028539D01*
X034770Y028518D01*
X034752Y028500D01*
X034730Y028484D01*
X034707Y028472D01*
X034683Y028463D01*
X034657Y028458D01*
X034647Y028438D02*
X034637Y028438D01*
X034637Y028098D01*
X034617Y028101D02*
X034527Y028101D01*
X034497Y028098D02*
X034497Y028438D01*
X033967Y028438D01*
X033967Y028098D01*
X033977Y028098D01*
X033937Y028101D02*
X033867Y028101D01*
X033827Y028118D02*
X033827Y028468D01*
X033797Y028468D01*
X033784Y028511D02*
X034647Y028511D01*
X034657Y028511D02*
X034727Y028511D01*
X034727Y028569D02*
X034657Y028569D01*
X034647Y028569D02*
X033706Y028569D01*
X033657Y028638D02*
X033654Y028616D01*
X033655Y028593D01*
X033660Y028570D01*
X033668Y028549D01*
X033680Y028529D01*
X033694Y028512D01*
X033711Y028496D01*
X033731Y028484D01*
X033752Y028475D01*
X033774Y028470D01*
X033797Y028468D01*
X033867Y028452D02*
X033941Y028452D01*
X033937Y028394D02*
X033867Y028394D01*
X033867Y028335D02*
X033937Y028335D01*
X033937Y028277D02*
X033867Y028277D01*
X033867Y028218D02*
X033937Y028218D01*
X033937Y028160D02*
X033867Y028160D01*
X033821Y028043D02*
X033951Y028043D01*
X033987Y028009D02*
X033997Y028017D01*
X034005Y028027D01*
X034010Y028039D01*
X034012Y028052D01*
X034010Y028065D01*
X034005Y028078D01*
X033997Y028088D01*
X033947Y027984D02*
X033787Y027984D01*
X033777Y027926D02*
X033934Y027926D01*
X033907Y027878D02*
X033922Y027877D01*
X033938Y027880D01*
X033952Y027886D01*
X033965Y027894D01*
X033976Y027905D01*
X033984Y027918D01*
X033989Y027933D01*
X033992Y027948D01*
X033991Y027963D01*
X033987Y027978D01*
X033927Y027868D02*
X033917Y027858D01*
X033787Y027858D01*
X033767Y027848D02*
X033754Y027850D01*
X033743Y027855D01*
X033733Y027863D01*
X033726Y027873D01*
X033721Y027885D01*
X033720Y027897D01*
X033722Y027910D01*
X033728Y027921D01*
X033736Y027931D01*
X033747Y027938D01*
X033767Y028008D02*
X033761Y028022D01*
X033758Y028036D01*
X033759Y028050D01*
X033763Y028064D01*
X033771Y028076D01*
X033781Y028087D01*
X033793Y028094D01*
X033807Y028098D01*
X033526Y028238D02*
X033537Y028253D01*
X033544Y028271D01*
X033548Y028289D01*
X033548Y028307D01*
X033544Y028326D01*
X033536Y028343D01*
X033526Y028358D01*
X033513Y028371D01*
X033497Y028381D01*
X033480Y028388D01*
X033461Y028391D01*
X033443Y028390D01*
X033425Y028386D01*
X033408Y028378D01*
X033393Y028367D01*
X033380Y028353D01*
X033371Y028337D01*
X033365Y028320D01*
X033362Y028301D01*
X033363Y028283D01*
X033368Y028265D01*
X033377Y028248D01*
X033367Y028368D02*
X033353Y028379D01*
X033341Y028392D01*
X033333Y028407D01*
X033327Y028424D01*
X033326Y028441D01*
X033328Y028458D01*
X033334Y028475D01*
X033344Y028490D01*
X033356Y028502D01*
X033371Y028511D01*
X033387Y028518D01*
X033397Y028569D02*
X033497Y028569D01*
X033497Y028628D02*
X033397Y028628D01*
X033415Y028686D02*
X033497Y028686D01*
X033510Y028862D02*
X033460Y028862D01*
X033469Y028920D02*
X033527Y028920D01*
X033523Y028452D02*
X033387Y028452D01*
X034847Y028978D02*
X034871Y028924D01*
X034891Y028868D01*
X034909Y028812D01*
X034923Y028754D01*
X034934Y028696D01*
X034942Y028637D01*
X034946Y028578D01*
X034947Y028518D01*
X034977Y028511D02*
X035057Y028511D01*
X035087Y028498D02*
X035057Y028838D01*
X035042Y028803D02*
X034947Y028803D01*
X034960Y028745D02*
X035057Y028745D01*
X035057Y028686D02*
X034977Y028686D01*
X034977Y028628D02*
X035057Y028628D01*
X035057Y028569D02*
X034977Y028569D01*
X034937Y028518D02*
X034923Y028510D01*
X034910Y028500D01*
X034900Y028487D01*
X034893Y028472D01*
X034889Y028456D01*
X034888Y028440D01*
X034891Y028424D01*
X034897Y028408D01*
X034906Y028395D01*
X034918Y028383D01*
X034932Y028374D01*
X034947Y028369D01*
X034971Y028394D02*
X035092Y028394D01*
X035117Y028378D02*
X035129Y028388D01*
X035139Y028402D01*
X035145Y028417D01*
X035147Y028433D01*
X035146Y028449D01*
X035141Y028464D01*
X035132Y028478D01*
X035121Y028490D01*
X035107Y028498D01*
X035087Y028452D02*
X034927Y028452D01*
X034777Y028569D02*
X034747Y028569D01*
X034617Y028452D02*
X034527Y028452D01*
X034527Y028394D02*
X034617Y028394D01*
X034617Y028335D02*
X034527Y028335D01*
X034527Y028277D02*
X034617Y028277D01*
X034617Y028218D02*
X034527Y028218D01*
X034527Y028160D02*
X034617Y028160D01*
X034667Y028098D02*
X034678Y028089D01*
X034687Y028077D01*
X034693Y028064D01*
X034696Y028050D01*
X034696Y028036D01*
X034692Y028022D01*
X034686Y028009D01*
X034677Y027998D01*
X034667Y027984D02*
X034507Y027984D01*
X034466Y028043D02*
X034667Y028043D01*
X034667Y027926D02*
X034567Y027926D01*
X034507Y027938D02*
X034506Y027921D01*
X034510Y027903D01*
X034517Y027887D01*
X034527Y027873D01*
X034540Y027862D01*
X034555Y027853D01*
X034572Y027848D01*
X034589Y027846D01*
X034606Y027848D01*
X034597Y027848D02*
X034727Y027848D01*
X034747Y027868D01*
X034767Y027878D02*
X034759Y027871D01*
X034749Y027866D01*
X034738Y027864D01*
X034727Y027865D01*
X034717Y027868D01*
X034757Y027898D02*
X034752Y027914D01*
X034745Y027928D01*
X034736Y027941D01*
X034725Y027952D01*
X034711Y027961D01*
X034697Y027968D01*
X034956Y028238D02*
X034950Y028256D01*
X034946Y028275D01*
X034947Y028295D01*
X034951Y028314D01*
X034958Y028332D01*
X034969Y028348D01*
X034983Y028362D01*
X034999Y028373D01*
X035016Y028381D01*
X035035Y028385D01*
X035055Y028386D01*
X035074Y028383D01*
X035092Y028376D01*
X035109Y028367D01*
X035124Y028354D01*
X035136Y028339D01*
X035145Y028321D01*
X035150Y028303D01*
X035152Y028283D01*
X035150Y028264D01*
X035145Y028245D01*
X035136Y028228D01*
X035007Y028862D02*
X034933Y028862D01*
X034897Y028920D02*
X035007Y028920D01*
X035587Y028951D02*
X035587Y029211D01*
X035887Y029271D01*
X035937Y029251D02*
X036037Y029551D01*
X035837Y029751D01*
X035987Y029901D01*
X036287Y029751D01*
X036587Y029901D01*
X036537Y029901D01*
X036587Y030151D01*
X036837Y030151D01*
X036837Y029851D01*
X037137Y029751D01*
X037387Y029901D01*
X037537Y029801D01*
X037387Y029501D01*
X037487Y029251D01*
X037787Y029201D01*
X037787Y028951D01*
X037487Y028951D01*
X037387Y028601D01*
X037537Y028401D01*
X037387Y028251D01*
X037187Y028401D01*
X037087Y028351D01*
X036887Y028751D01*
X037087Y028951D01*
X037087Y029201D01*
X036937Y029451D01*
X036687Y029501D01*
X036387Y029401D01*
X036437Y029401D01*
X036287Y029151D01*
X036387Y028851D01*
X036487Y028751D01*
X036337Y028351D01*
X036237Y028401D01*
X036037Y028251D01*
X035887Y028401D01*
X036037Y028651D01*
X035937Y028901D01*
X035637Y029001D01*
X035637Y028951D01*
X035637Y029201D01*
X035937Y029251D01*
X035944Y029271D02*
X036359Y029271D01*
X036324Y029213D02*
X035707Y029213D01*
X035637Y029154D02*
X036289Y029154D01*
X036306Y029096D02*
X035637Y029096D01*
X035637Y029037D02*
X036325Y029037D01*
X036345Y028979D02*
X035704Y028979D01*
X035587Y028951D02*
X035887Y028901D01*
X035880Y028920D02*
X036364Y028920D01*
X036384Y028862D02*
X035953Y028862D01*
X035976Y028803D02*
X036435Y028803D01*
X036485Y028745D02*
X036000Y028745D01*
X036023Y028686D02*
X036463Y028686D01*
X036441Y028628D02*
X036023Y028628D01*
X035987Y028631D02*
X035827Y028391D01*
X036007Y028201D01*
X036247Y028371D01*
X036347Y028311D01*
X036547Y028761D01*
X036419Y028569D02*
X035988Y028569D01*
X035953Y028511D02*
X036397Y028511D01*
X036375Y028452D02*
X035918Y028452D01*
X035895Y028394D02*
X036227Y028394D01*
X036252Y028394D02*
X036353Y028394D01*
X036149Y028335D02*
X035953Y028335D01*
X036012Y028277D02*
X036071Y028277D01*
X036867Y028761D02*
X037057Y028311D01*
X037157Y028371D01*
X037397Y028201D01*
X037587Y028391D01*
X037417Y028631D01*
X037395Y028628D02*
X036949Y028628D01*
X036920Y028686D02*
X037412Y028686D01*
X037428Y028745D02*
X036890Y028745D01*
X036939Y028803D02*
X037445Y028803D01*
X037462Y028862D02*
X036998Y028862D01*
X037056Y028920D02*
X037478Y028920D01*
X037517Y028901D02*
X037817Y028951D01*
X037817Y029211D01*
X037517Y029271D01*
X037479Y029271D02*
X037045Y029271D01*
X037010Y029330D02*
X037456Y029330D01*
X037432Y029388D02*
X036975Y029388D01*
X036940Y029447D02*
X037409Y029447D01*
X037389Y029505D02*
X036022Y029505D01*
X035997Y029521D02*
X035817Y029781D01*
X036007Y029961D01*
X036267Y029781D01*
X036194Y029798D02*
X035884Y029798D01*
X035849Y029739D02*
X037506Y029739D01*
X037477Y029681D02*
X035908Y029681D01*
X035966Y029622D02*
X037448Y029622D01*
X037419Y029564D02*
X036025Y029564D01*
X036002Y029447D02*
X036524Y029447D01*
X036430Y029388D02*
X035983Y029388D01*
X035963Y029330D02*
X036394Y029330D01*
X036547Y028771D02*
X036514Y028789D01*
X036484Y028810D01*
X036455Y028834D01*
X036429Y028861D01*
X036407Y028890D01*
X036387Y028922D01*
X036370Y028955D01*
X036357Y028990D01*
X036348Y029026D01*
X036342Y029063D01*
X036340Y029100D01*
X036342Y029137D01*
X036347Y029174D01*
X036357Y029210D01*
X036369Y029245D01*
X036386Y029279D01*
X036405Y029310D01*
X036428Y029340D01*
X036454Y029367D01*
X036482Y029391D01*
X036513Y029412D01*
X036545Y029430D01*
X036579Y029445D01*
X036615Y029456D01*
X036651Y029464D01*
X036688Y029468D01*
X036726Y029468D01*
X036763Y029464D01*
X036799Y029456D01*
X036835Y029445D01*
X036869Y029430D01*
X036901Y029412D01*
X036932Y029391D01*
X036960Y029367D01*
X036986Y029340D01*
X037009Y029310D01*
X037028Y029279D01*
X037045Y029245D01*
X037057Y029210D01*
X037067Y029174D01*
X037072Y029137D01*
X037074Y029100D01*
X037072Y029063D01*
X037066Y029026D01*
X037057Y028990D01*
X037044Y028955D01*
X037027Y028922D01*
X037007Y028890D01*
X036985Y028861D01*
X036959Y028834D01*
X036930Y028810D01*
X036900Y028789D01*
X036867Y028771D01*
X036978Y028569D02*
X037411Y028569D01*
X037455Y028511D02*
X037007Y028511D01*
X037037Y028452D02*
X037499Y028452D01*
X037530Y028394D02*
X037197Y028394D01*
X037173Y028394D02*
X037066Y028394D01*
X037275Y028335D02*
X037471Y028335D01*
X037413Y028277D02*
X037353Y028277D01*
X037087Y028979D02*
X037787Y028979D01*
X037787Y029037D02*
X037087Y029037D01*
X037087Y029096D02*
X037787Y029096D01*
X037787Y029154D02*
X037087Y029154D01*
X037080Y029213D02*
X037717Y029213D01*
X037407Y029521D02*
X037587Y029781D01*
X037397Y029961D01*
X037137Y029781D01*
X037215Y029798D02*
X037536Y029798D01*
X037454Y029856D02*
X037313Y029856D01*
X036997Y029798D02*
X036381Y029798D01*
X036498Y029856D02*
X036837Y029856D01*
X036887Y029881D02*
X036837Y030201D01*
X036567Y030201D01*
X036517Y029881D01*
X036540Y029915D02*
X036837Y029915D01*
X036837Y029973D02*
X036552Y029973D01*
X036563Y030032D02*
X036837Y030032D01*
X036837Y030090D02*
X036575Y030090D01*
X036587Y030149D02*
X036837Y030149D01*
X036077Y029856D02*
X035942Y029856D01*
X036271Y029784D02*
X036316Y029809D01*
X036363Y029832D01*
X036411Y029851D01*
X036460Y029868D01*
X036510Y029881D01*
X035998Y029516D02*
X035971Y029469D01*
X035947Y029422D01*
X035926Y029373D01*
X035908Y029322D01*
X035894Y029271D01*
X035888Y028900D02*
X035901Y028844D01*
X035918Y028789D01*
X035939Y028736D01*
X035963Y028684D01*
X035991Y028634D01*
X036892Y029883D02*
X036944Y029869D01*
X036995Y029852D01*
X037045Y029832D01*
X037094Y029809D01*
X037141Y029782D01*
X037406Y029519D02*
X037435Y029472D01*
X037460Y029424D01*
X037482Y029374D01*
X037501Y029323D01*
X037516Y029271D01*
X037518Y028898D02*
X037508Y028851D01*
X037495Y028805D01*
X037480Y028760D01*
X037462Y028715D01*
X037441Y028672D01*
X037418Y028631D01*
X038508Y026746D02*
X039628Y026746D01*
X039628Y024786D02*
X039188Y024786D01*
X038948Y024786D01*
X038508Y024786D01*
X038948Y024786D02*
X038950Y024807D01*
X038955Y024827D01*
X038964Y024846D01*
X038976Y024863D01*
X038991Y024878D01*
X039008Y024890D01*
X039027Y024899D01*
X039047Y024904D01*
X039068Y024906D01*
X039089Y024904D01*
X039109Y024899D01*
X039128Y024890D01*
X039145Y024878D01*
X039160Y024863D01*
X039172Y024846D01*
X039181Y024827D01*
X039186Y024807D01*
X039188Y024786D01*
X039186Y024807D01*
X039181Y024827D01*
X039172Y024846D01*
X039160Y024863D01*
X039145Y024878D01*
X039128Y024890D01*
X039109Y024899D01*
X039089Y024904D01*
X039068Y024906D01*
X039047Y024904D01*
X039027Y024899D01*
X039008Y024890D01*
X038991Y024878D01*
X038976Y024863D01*
X038964Y024846D01*
X038955Y024827D01*
X038950Y024807D01*
X038948Y024786D01*
X035077Y028538D02*
X035080Y028582D01*
X035081Y028626D01*
X035079Y028670D01*
X035074Y028714D01*
X035067Y028758D01*
X034457Y028868D02*
X034417Y028778D01*
X034407Y028788D02*
X034457Y028868D01*
X034447Y028738D02*
X034441Y028750D01*
X034432Y028759D01*
X034421Y028766D01*
X034409Y028770D01*
X034395Y028770D01*
X034383Y028766D01*
X034372Y028759D01*
X034363Y028750D01*
X034357Y028738D01*
X034337Y028728D02*
X034117Y028728D01*
X034110Y028729D01*
X034105Y028734D01*
X034102Y028740D01*
X034102Y028746D01*
X034105Y028752D01*
X034110Y028757D01*
X034117Y028758D01*
X033547Y029168D02*
X033514Y029125D01*
X033484Y029079D01*
X033458Y029031D01*
X033435Y028982D01*
X033416Y028931D01*
X033401Y028879D01*
X033389Y028826D01*
X033381Y028772D01*
X033377Y028718D01*
X033517Y028518D02*
X033511Y028571D01*
X033509Y028625D01*
X033511Y028679D01*
X033516Y028733D01*
X033525Y028786D01*
X033538Y028838D01*
X033554Y028889D01*
X033574Y028939D01*
X033597Y028988D01*
X034117Y028768D02*
X034127Y028800D01*
X034141Y028830D01*
X034158Y028859D01*
X034178Y028885D01*
X034201Y028909D01*
X034227Y028931D01*
X034255Y028949D01*
X034284Y028964D01*
X034316Y028976D01*
X034348Y028984D01*
X034381Y028988D01*
X034414Y028989D01*
X034448Y028986D01*
X034480Y028979D01*
X034512Y028968D01*
X034542Y028954D01*
X034571Y028937D01*
X034597Y028916D01*
X034621Y028893D01*
X034642Y028867D01*
X034660Y028839D01*
X034675Y028809D01*
X034687Y028778D01*
X034957Y029918D02*
X034957Y029939D01*
X034953Y029960D01*
X034946Y029980D01*
X034936Y029998D01*
X034923Y030015D01*
X034907Y030029D01*
X034889Y030040D01*
X034870Y030049D01*
X034850Y030053D01*
X034829Y030055D01*
X034808Y030053D01*
X034787Y030048D01*
X034827Y030048D02*
X034847Y030048D01*
X034866Y030044D01*
X034884Y030038D01*
X034901Y030028D01*
X034916Y030016D01*
X034929Y030001D01*
X034939Y029984D01*
X034946Y029966D01*
X034949Y029947D01*
X034950Y029927D01*
X034947Y029908D01*
X028434Y017628D02*
X028434Y016148D01*
X026434Y016148D02*
X026434Y016768D01*
X026434Y017008D01*
X026434Y017628D01*
X026434Y017008D02*
X026455Y017006D01*
X026475Y017001D01*
X026494Y016992D01*
X026511Y016980D01*
X026526Y016965D01*
X026538Y016948D01*
X026547Y016929D01*
X026552Y016909D01*
X026554Y016888D01*
X026552Y016867D01*
X026547Y016847D01*
X026538Y016828D01*
X026526Y016811D01*
X026511Y016796D01*
X026494Y016784D01*
X026475Y016775D01*
X026455Y016770D01*
X026434Y016768D01*
X025795Y014007D02*
X025795Y012288D01*
X029566Y012288D01*
X029566Y014007D01*
X025795Y014007D01*
X023070Y014125D02*
X023070Y012406D01*
X019299Y012406D01*
X019299Y014125D01*
X023070Y014125D01*
X021938Y016266D02*
X021938Y017746D01*
X019938Y017746D02*
X019938Y017126D01*
X019938Y016886D01*
X019938Y016266D01*
X019938Y016886D02*
X019959Y016888D01*
X019979Y016893D01*
X019998Y016902D01*
X020015Y016914D01*
X020030Y016929D01*
X020042Y016946D01*
X020051Y016965D01*
X020056Y016985D01*
X020058Y017006D01*
X020056Y017027D01*
X020051Y017047D01*
X020042Y017066D01*
X020030Y017083D01*
X020015Y017098D01*
X019998Y017110D01*
X019979Y017119D01*
X019959Y017124D01*
X019938Y017126D01*
X016200Y014125D02*
X012429Y014125D01*
X012429Y012406D01*
X016200Y012406D01*
X016200Y014125D01*
X015068Y016266D02*
X015068Y017746D01*
X013068Y017746D02*
X013068Y017126D01*
X013068Y016886D01*
X013068Y016266D01*
X013068Y016886D02*
X013089Y016888D01*
X013109Y016893D01*
X013128Y016902D01*
X013145Y016914D01*
X013160Y016929D01*
X013172Y016946D01*
X013181Y016965D01*
X013186Y016985D01*
X013188Y017006D01*
X013186Y017027D01*
X013181Y017047D01*
X013172Y017066D01*
X013160Y017083D01*
X013145Y017098D01*
X013128Y017110D01*
X013109Y017119D01*
X013089Y017124D01*
X013068Y017126D01*
X009121Y017123D02*
X009121Y017086D01*
X009121Y017123D02*
X008484Y017123D01*
X008484Y017086D01*
X008484Y016769D02*
X008484Y016357D01*
X008484Y016040D02*
X008484Y016003D01*
X009121Y016003D01*
X009121Y016040D01*
X009121Y016357D02*
X009121Y016394D01*
X009121Y016731D02*
X009121Y016769D01*
X008974Y022007D02*
X008336Y022007D01*
X008336Y022044D01*
X008336Y022361D02*
X008336Y022772D01*
X008336Y023090D02*
X008336Y023127D01*
X008974Y023127D01*
X008974Y023090D01*
X008974Y022772D02*
X008974Y022735D01*
X008974Y022398D02*
X008974Y022361D01*
X008974Y022044D02*
X008974Y022007D01*
D16*
X012769Y012737D03*
X019639Y012737D03*
X026135Y012618D03*
D17*
X025221Y012489D02*
X025221Y012416D01*
X025184Y012379D01*
X025111Y012379D02*
X025074Y012453D01*
X025074Y012489D01*
X025111Y012526D01*
X025184Y012526D01*
X025221Y012489D01*
X025111Y012379D02*
X025001Y012379D01*
X025001Y012526D01*
X025037Y012305D02*
X025001Y012268D01*
X025001Y012195D01*
X025037Y012158D01*
X025184Y012158D01*
X025221Y012195D01*
X025221Y012268D01*
X025184Y012305D01*
X024007Y011355D02*
X024007Y011208D01*
X023860Y011355D01*
X023823Y011355D01*
X023787Y011318D01*
X023787Y011245D01*
X023823Y011208D01*
X023823Y011134D02*
X023860Y011134D01*
X023897Y011097D01*
X023933Y011134D01*
X023970Y011134D01*
X024007Y011097D01*
X024007Y011024D01*
X023970Y010987D01*
X023970Y010913D02*
X024007Y010876D01*
X024007Y010803D01*
X023970Y010766D01*
X023823Y010766D01*
X023787Y010803D01*
X023787Y010876D01*
X023823Y010913D01*
X023823Y010987D02*
X023787Y011024D01*
X023787Y011097D01*
X023823Y011134D01*
X023897Y011097D02*
X023897Y011061D01*
X023958Y011879D02*
X023958Y012026D01*
X023958Y012100D02*
X023958Y012247D01*
X023958Y012321D02*
X023958Y012432D01*
X023921Y012468D01*
X023774Y012468D01*
X023737Y012432D01*
X023737Y012321D01*
X023958Y012321D01*
X023848Y012174D02*
X023848Y012100D01*
X023958Y012100D02*
X023737Y012100D01*
X023737Y012247D01*
X023811Y012542D02*
X023737Y012616D01*
X023958Y012616D01*
X023958Y012689D02*
X023958Y012542D01*
X023921Y012763D02*
X023774Y012910D01*
X023921Y012910D01*
X023958Y012874D01*
X023958Y012800D01*
X023921Y012763D01*
X023774Y012763D01*
X023737Y012800D01*
X023737Y012874D01*
X023774Y012910D01*
X023833Y013291D02*
X023833Y013402D01*
X023797Y013438D01*
X023723Y013438D01*
X023686Y013402D01*
X023686Y013291D01*
X023907Y013291D01*
X023833Y013365D02*
X023907Y013438D01*
X023870Y013512D02*
X023833Y013512D01*
X023797Y013549D01*
X023797Y013623D01*
X023833Y013659D01*
X023870Y013659D01*
X023907Y013623D01*
X023907Y013549D01*
X023870Y013512D01*
X023797Y013549D02*
X023760Y013512D01*
X023723Y013512D01*
X023686Y013549D01*
X023686Y013623D01*
X023723Y013659D01*
X023760Y013659D01*
X023797Y013623D01*
X024961Y013687D02*
X024998Y013614D01*
X025071Y013540D01*
X025071Y013650D01*
X025108Y013687D01*
X025145Y013687D01*
X025181Y013650D01*
X025181Y013577D01*
X025145Y013540D01*
X025071Y013540D01*
X024998Y013466D02*
X024961Y013429D01*
X024961Y013356D01*
X024998Y013319D01*
X025145Y013319D01*
X025181Y013356D01*
X025181Y013429D01*
X025145Y013466D01*
X025893Y014731D02*
X025967Y014731D01*
X026003Y014767D01*
X026003Y014951D01*
X026078Y014878D02*
X026151Y014951D01*
X026151Y014731D01*
X026078Y014731D02*
X026224Y014731D01*
X026299Y014767D02*
X026335Y014731D01*
X026409Y014731D01*
X026445Y014767D01*
X026445Y014841D01*
X026409Y014878D01*
X026372Y014878D01*
X026299Y014841D01*
X026299Y014951D01*
X026445Y014951D01*
X025857Y014951D02*
X025857Y014767D01*
X025893Y014731D01*
X026131Y016178D02*
X026315Y016178D01*
X026351Y016214D01*
X026351Y016288D01*
X026315Y016324D01*
X026131Y016324D01*
X026168Y016399D02*
X026131Y016435D01*
X026131Y016509D01*
X026168Y016545D01*
X026205Y016545D01*
X026241Y016509D01*
X026278Y016545D01*
X026315Y016545D01*
X026351Y016509D01*
X026351Y016435D01*
X026315Y016399D01*
X026241Y016472D02*
X026241Y016509D01*
X025740Y017063D02*
X025776Y017099D01*
X025776Y017173D01*
X025740Y017210D01*
X025740Y017284D02*
X025776Y017320D01*
X025776Y017394D01*
X025740Y017431D01*
X025703Y017431D01*
X025666Y017394D01*
X025666Y017357D01*
X025666Y017394D02*
X025630Y017431D01*
X025593Y017431D01*
X025556Y017394D01*
X025556Y017320D01*
X025593Y017284D01*
X025593Y017210D02*
X025556Y017173D01*
X025556Y017099D01*
X025593Y017063D01*
X025740Y017063D01*
X025740Y017505D02*
X025776Y017541D01*
X025776Y017615D01*
X025740Y017652D01*
X025593Y017652D01*
X025556Y017615D01*
X025556Y017541D01*
X025593Y017505D01*
X025630Y017505D01*
X025666Y017541D01*
X025666Y017652D01*
X029060Y017579D02*
X029097Y017616D01*
X029134Y017616D01*
X029171Y017579D01*
X029207Y017616D01*
X029244Y017616D01*
X029281Y017579D01*
X029281Y017506D01*
X029244Y017469D01*
X029281Y017395D02*
X029207Y017322D01*
X029207Y017358D02*
X029207Y017248D01*
X029281Y017248D02*
X029060Y017248D01*
X029060Y017358D01*
X029097Y017395D01*
X029171Y017395D01*
X029207Y017358D01*
X029097Y017469D02*
X029060Y017506D01*
X029060Y017579D01*
X029171Y017579D02*
X029171Y017543D01*
X029171Y017690D02*
X029171Y017800D01*
X029207Y017837D01*
X029244Y017837D01*
X029281Y017800D01*
X029281Y017727D01*
X029244Y017690D01*
X029171Y017690D01*
X029097Y017764D01*
X029060Y017837D01*
X030281Y013915D02*
X030318Y013915D01*
X030464Y013768D01*
X030501Y013768D01*
X030501Y013694D02*
X030428Y013621D01*
X030428Y013657D02*
X030428Y013547D01*
X030501Y013547D02*
X030281Y013547D01*
X030281Y013657D01*
X030318Y013694D01*
X030391Y013694D01*
X030428Y013657D01*
X030281Y013768D02*
X030281Y013915D01*
X030290Y012792D02*
X030253Y012755D01*
X030253Y012682D01*
X030290Y012645D01*
X030327Y012645D01*
X030363Y012682D01*
X030363Y012792D01*
X030290Y012792D02*
X030437Y012792D01*
X030473Y012755D01*
X030473Y012682D01*
X030437Y012645D01*
X030437Y012571D02*
X030290Y012571D01*
X030253Y012534D01*
X030253Y012424D01*
X030473Y012424D01*
X030473Y012534D01*
X030437Y012571D01*
X030473Y012350D02*
X030473Y012203D01*
X030253Y012203D01*
X030253Y012350D01*
X030363Y012277D02*
X030363Y012203D01*
X030473Y012129D02*
X030473Y011982D01*
X030253Y011982D01*
X030201Y011218D02*
X030201Y011071D01*
X030090Y011181D01*
X030311Y011181D01*
X030274Y010997D02*
X030311Y010960D01*
X030311Y010886D01*
X030274Y010850D01*
X030274Y010776D02*
X030311Y010739D01*
X030311Y010665D01*
X030274Y010629D01*
X030127Y010629D01*
X030090Y010665D01*
X030090Y010739D01*
X030127Y010776D01*
X030127Y010850D02*
X030090Y010886D01*
X030090Y010960D01*
X030127Y010997D01*
X030164Y010997D01*
X030201Y010960D01*
X030237Y010997D01*
X030274Y010997D01*
X030201Y010960D02*
X030201Y010923D01*
X028858Y010857D02*
X028711Y010857D01*
X028858Y011004D01*
X028858Y011040D01*
X028821Y011077D01*
X028748Y011077D01*
X028711Y011040D01*
X028637Y010967D02*
X028490Y010967D01*
X028600Y011077D01*
X028600Y010857D01*
X028416Y010894D02*
X028379Y010857D01*
X028306Y010857D01*
X028269Y010894D01*
X028269Y011040D01*
X028306Y011077D01*
X028379Y011077D01*
X028416Y011040D01*
X027088Y011073D02*
X026941Y011073D01*
X026941Y010963D01*
X027015Y011000D01*
X027051Y011000D01*
X027088Y010963D01*
X027088Y010890D01*
X027051Y010853D01*
X026978Y010853D01*
X026941Y010890D01*
X026867Y010890D02*
X026830Y010853D01*
X026757Y010853D01*
X026720Y010890D01*
X026646Y010890D02*
X026609Y010853D01*
X026536Y010853D01*
X026499Y010890D01*
X026499Y011036D01*
X026536Y011073D01*
X026609Y011073D01*
X026646Y011036D01*
X026720Y011036D02*
X026757Y011073D01*
X026830Y011073D01*
X026867Y011036D01*
X026867Y011000D01*
X026830Y010963D01*
X026867Y010926D01*
X026867Y010890D01*
X026830Y010963D02*
X026794Y010963D01*
X026436Y009760D02*
X026399Y009760D01*
X026363Y009723D01*
X026363Y009613D01*
X026436Y009613D01*
X026473Y009650D01*
X026473Y009723D01*
X026436Y009760D01*
X026289Y009686D02*
X026363Y009613D01*
X026363Y009539D02*
X026399Y009502D01*
X026399Y009392D01*
X026399Y009465D02*
X026473Y009539D01*
X026363Y009539D02*
X026289Y009539D01*
X026253Y009502D01*
X026253Y009392D01*
X026473Y009392D01*
X026289Y009686D02*
X026253Y009760D01*
X028594Y009716D02*
X028594Y009569D01*
X028704Y009569D01*
X028667Y009642D01*
X028667Y009679D01*
X028704Y009716D01*
X028777Y009716D01*
X028814Y009679D01*
X028814Y009606D01*
X028777Y009569D01*
X028814Y009495D02*
X028740Y009421D01*
X028740Y009458D02*
X028740Y009348D01*
X028814Y009348D02*
X028594Y009348D01*
X028594Y009458D01*
X028630Y009495D01*
X028704Y009495D01*
X028740Y009458D01*
X032529Y011427D02*
X032529Y011500D01*
X032565Y011537D01*
X032712Y011537D01*
X032749Y011500D01*
X032749Y011427D01*
X032712Y011390D01*
X032565Y011390D01*
X032529Y011427D01*
X032675Y011463D02*
X032749Y011537D01*
X032639Y011611D02*
X032639Y011758D01*
X032749Y011721D02*
X032529Y011721D01*
X032639Y011611D01*
X035777Y011579D02*
X035813Y011615D01*
X035960Y011615D01*
X035997Y011579D01*
X035997Y011505D01*
X035960Y011469D01*
X035813Y011469D01*
X035777Y011505D01*
X035777Y011579D01*
X035777Y011690D02*
X035887Y011690D01*
X035850Y011763D01*
X035850Y011800D01*
X035887Y011836D01*
X035960Y011836D01*
X035997Y011800D01*
X035997Y011726D01*
X035960Y011690D01*
X035997Y011615D02*
X035923Y011542D01*
X035777Y011690D02*
X035777Y011836D01*
X039379Y011817D02*
X039416Y011743D01*
X039489Y011670D01*
X039489Y011780D01*
X039526Y011817D01*
X039563Y011817D01*
X039599Y011780D01*
X039599Y011707D01*
X039563Y011670D01*
X039489Y011670D01*
X039416Y011596D02*
X039563Y011596D01*
X039599Y011559D01*
X039599Y011486D01*
X039563Y011449D01*
X039416Y011449D01*
X039379Y011486D01*
X039379Y011559D01*
X039416Y011596D01*
X039526Y011522D02*
X039599Y011596D01*
X038827Y005739D02*
X038974Y005592D01*
X039011Y005592D01*
X038974Y005518D02*
X038827Y005518D01*
X038791Y005481D01*
X038791Y005371D01*
X039011Y005371D01*
X039011Y005481D01*
X038974Y005518D01*
X038791Y005592D02*
X038791Y005739D01*
X038827Y005739D01*
X038791Y005297D02*
X038791Y005150D01*
X039011Y005150D01*
X039011Y005297D01*
X038901Y005224D02*
X038901Y005150D01*
X039011Y005076D02*
X039011Y004929D01*
X038791Y004929D01*
X038962Y004426D02*
X038962Y004279D01*
X038962Y004353D02*
X038741Y004353D01*
X038815Y004279D01*
X038815Y004205D02*
X038778Y004205D01*
X038741Y004168D01*
X038741Y004095D01*
X038778Y004058D01*
X038778Y003984D02*
X038851Y003984D01*
X038888Y003947D01*
X038888Y003837D01*
X038962Y003837D02*
X038741Y003837D01*
X038741Y003947D01*
X038778Y003984D01*
X038888Y003911D02*
X038962Y003984D01*
X038962Y004058D02*
X038815Y004205D01*
X038962Y004205D02*
X038962Y004058D01*
X040480Y003881D02*
X040627Y003660D01*
X040701Y003697D02*
X040737Y003660D01*
X040811Y003660D01*
X040848Y003697D01*
X040848Y003734D01*
X040811Y003771D01*
X040701Y003771D01*
X040701Y003697D01*
X040701Y003771D02*
X040774Y003844D01*
X040848Y003881D01*
X040627Y003881D02*
X040480Y003660D01*
X037353Y003756D02*
X037317Y003719D01*
X037243Y003719D01*
X037207Y003756D01*
X037207Y003830D02*
X037280Y003866D01*
X037317Y003866D01*
X037353Y003830D01*
X037353Y003756D01*
X037207Y003830D02*
X037207Y003940D01*
X037353Y003940D01*
X037132Y003940D02*
X036986Y003719D01*
X037132Y003719D02*
X036986Y003940D01*
X035458Y003892D02*
X035238Y003892D01*
X035238Y004002D01*
X035274Y004039D01*
X035348Y004039D01*
X035384Y004002D01*
X035384Y003892D01*
X035384Y003965D02*
X035458Y004039D01*
X035458Y004113D02*
X035311Y004260D01*
X035274Y004260D01*
X035238Y004223D01*
X035238Y004150D01*
X035274Y004113D01*
X035458Y004113D02*
X035458Y004260D01*
X035421Y004334D02*
X035274Y004481D01*
X035421Y004481D01*
X035458Y004444D01*
X035458Y004371D01*
X035421Y004334D01*
X035274Y004334D01*
X035238Y004371D01*
X035238Y004444D01*
X035274Y004481D01*
X035238Y005000D02*
X035458Y005000D01*
X035458Y005147D01*
X035458Y005221D02*
X035458Y005368D01*
X035458Y005442D02*
X035458Y005552D01*
X035421Y005589D01*
X035274Y005589D01*
X035238Y005552D01*
X035238Y005442D01*
X035458Y005442D01*
X035348Y005295D02*
X035348Y005221D01*
X035238Y005221D02*
X035458Y005221D01*
X035238Y005221D02*
X035238Y005368D01*
X035348Y005663D02*
X035274Y005737D01*
X035238Y005810D01*
X035348Y005773D02*
X035348Y005663D01*
X035421Y005663D01*
X035458Y005700D01*
X035458Y005773D01*
X035421Y005810D01*
X035384Y005810D01*
X035348Y005773D01*
X034118Y003920D02*
X034008Y003810D01*
X034155Y003810D01*
X034118Y003700D02*
X034118Y003920D01*
X033934Y003920D02*
X033787Y003700D01*
X033934Y003700D02*
X033787Y003920D01*
X032298Y003912D02*
X032078Y003912D01*
X032078Y004022D01*
X032115Y004058D01*
X032188Y004058D01*
X032225Y004022D01*
X032225Y003912D01*
X032225Y003985D02*
X032298Y004058D01*
X032298Y004133D02*
X032298Y004279D01*
X032298Y004206D02*
X032078Y004206D01*
X032152Y004133D01*
X032152Y004354D02*
X032188Y004390D01*
X032188Y004500D01*
X032115Y004500D02*
X032078Y004464D01*
X032078Y004390D01*
X032115Y004354D01*
X032152Y004354D01*
X032262Y004354D02*
X032298Y004390D01*
X032298Y004464D01*
X032262Y004500D01*
X032115Y004500D01*
X032068Y004951D02*
X032289Y004951D01*
X032289Y005098D01*
X032289Y005172D02*
X032289Y005319D01*
X032289Y005393D02*
X032289Y005503D01*
X032252Y005540D01*
X032105Y005540D01*
X032068Y005503D01*
X032068Y005393D01*
X032289Y005393D01*
X032178Y005245D02*
X032178Y005172D01*
X032068Y005172D02*
X032289Y005172D01*
X032068Y005172D02*
X032068Y005319D01*
X032068Y005614D02*
X032178Y005614D01*
X032142Y005687D01*
X032142Y005724D01*
X032178Y005761D01*
X032252Y005761D01*
X032289Y005724D01*
X032289Y005651D01*
X032252Y005614D01*
X032068Y005614D02*
X032068Y005761D01*
X027894Y004013D02*
X027820Y003976D01*
X027747Y003903D01*
X027857Y003903D01*
X027894Y003866D01*
X027894Y003829D01*
X027857Y003793D01*
X027784Y003793D01*
X027747Y003829D01*
X027747Y003903D01*
X027673Y003793D02*
X027526Y003793D01*
X027599Y003793D02*
X027599Y004013D01*
X027526Y003940D01*
X027452Y004013D02*
X027305Y003793D01*
X027452Y003793D02*
X027305Y004013D01*
X021457Y003875D02*
X021310Y003875D01*
X021310Y003765D01*
X021383Y003802D01*
X021420Y003802D01*
X021457Y003765D01*
X021457Y003692D01*
X021420Y003655D01*
X021347Y003655D01*
X021310Y003692D01*
X021236Y003655D02*
X021089Y003655D01*
X021162Y003655D02*
X021162Y003875D01*
X021089Y003802D01*
X021015Y003875D02*
X020868Y003655D01*
X021015Y003655D02*
X020868Y003875D01*
X014862Y003962D02*
X014716Y003962D01*
X014826Y004072D01*
X014826Y003852D01*
X014641Y003852D02*
X014495Y003852D01*
X014568Y003852D02*
X014568Y004072D01*
X014495Y003999D01*
X014420Y004072D02*
X014274Y003852D01*
X014420Y003852D02*
X014274Y004072D01*
X009766Y005944D02*
X009729Y005908D01*
X009656Y005908D01*
X009619Y005944D01*
X009619Y005981D01*
X009656Y006018D01*
X009729Y006018D01*
X009766Y005981D01*
X009766Y005944D01*
X009729Y006018D02*
X009766Y006054D01*
X009766Y006091D01*
X009729Y006128D01*
X009656Y006128D01*
X009619Y006091D01*
X009619Y006054D01*
X009656Y006018D01*
X009545Y006091D02*
X009508Y006128D01*
X009398Y006128D01*
X009398Y005908D01*
X009508Y005908D01*
X009545Y005944D01*
X009545Y006091D01*
X009324Y006128D02*
X009177Y006128D01*
X009177Y005908D01*
X009324Y005908D01*
X009251Y006018D02*
X009177Y006018D01*
X009103Y005908D02*
X008956Y005908D01*
X008956Y006128D01*
X009045Y006597D02*
X009045Y006817D01*
X009155Y006817D01*
X009192Y006780D01*
X009192Y006707D01*
X009155Y006670D01*
X009045Y006670D01*
X009118Y006670D02*
X009192Y006597D01*
X009266Y006707D02*
X009413Y006707D01*
X009487Y006707D02*
X009560Y006743D01*
X009597Y006743D01*
X009633Y006707D01*
X009633Y006633D01*
X009597Y006597D01*
X009523Y006597D01*
X009487Y006633D01*
X009487Y006707D02*
X009487Y006817D01*
X009633Y006817D01*
X009376Y006817D02*
X009266Y006707D01*
X009376Y006597D02*
X009376Y006817D01*
X013033Y009475D02*
X013033Y009586D01*
X013070Y009622D01*
X013143Y009622D01*
X013180Y009586D01*
X013180Y009475D01*
X013253Y009475D02*
X013033Y009475D01*
X013180Y009549D02*
X013253Y009622D01*
X013253Y009696D02*
X013106Y009843D01*
X013070Y009843D01*
X013033Y009807D01*
X013033Y009733D01*
X013070Y009696D01*
X013253Y009696D02*
X013253Y009843D01*
X013320Y010848D02*
X013466Y010848D01*
X013503Y010884D01*
X013503Y010958D01*
X013466Y010994D01*
X013466Y011069D02*
X013503Y011105D01*
X013503Y011179D01*
X013466Y011215D01*
X013430Y011215D01*
X013393Y011179D01*
X013393Y011142D01*
X013393Y011179D02*
X013356Y011215D01*
X013320Y011215D01*
X013283Y011179D01*
X013283Y011105D01*
X013320Y011069D01*
X013320Y010994D02*
X013283Y010958D01*
X013283Y010884D01*
X013320Y010848D01*
X013356Y011290D02*
X013283Y011363D01*
X013503Y011363D01*
X013503Y011290D02*
X013503Y011436D01*
X014894Y010975D02*
X014894Y010828D01*
X014931Y010792D01*
X015005Y010792D01*
X015041Y010828D01*
X015115Y010792D02*
X015262Y010938D01*
X015262Y010975D01*
X015225Y011012D01*
X015152Y011012D01*
X015115Y010975D01*
X015041Y010975D02*
X015005Y011012D01*
X014931Y011012D01*
X014894Y010975D01*
X015115Y010792D02*
X015262Y010792D01*
X015336Y010792D02*
X015336Y010828D01*
X015483Y010975D01*
X015483Y011012D01*
X015336Y011012D01*
X016798Y011044D02*
X016798Y011117D01*
X016835Y011154D01*
X016872Y011154D01*
X016909Y011117D01*
X016945Y011154D01*
X016982Y011154D01*
X017019Y011117D01*
X017019Y011044D01*
X016982Y011007D01*
X016982Y010933D02*
X017019Y010896D01*
X017019Y010823D01*
X016982Y010786D01*
X016835Y010786D01*
X016798Y010823D01*
X016798Y010896D01*
X016835Y010933D01*
X016835Y011007D02*
X016798Y011044D01*
X016909Y011080D02*
X016909Y011117D01*
X016982Y011228D02*
X016835Y011375D01*
X016982Y011375D01*
X017019Y011338D01*
X017019Y011265D01*
X016982Y011228D01*
X016835Y011228D01*
X016798Y011265D01*
X016798Y011338D01*
X016835Y011375D01*
X017084Y012391D02*
X017304Y012391D01*
X017304Y012538D01*
X017304Y012612D02*
X017304Y012759D01*
X017304Y012833D02*
X017304Y012943D01*
X017267Y012980D01*
X017121Y012980D01*
X017084Y012943D01*
X017084Y012833D01*
X017304Y012833D01*
X017194Y012686D02*
X017194Y012612D01*
X017084Y012612D02*
X017304Y012612D01*
X017084Y012612D02*
X017084Y012759D01*
X017157Y013054D02*
X017084Y013128D01*
X017304Y013128D01*
X017304Y013201D02*
X017304Y013054D01*
X017304Y013275D02*
X017304Y013422D01*
X017304Y013349D02*
X017084Y013349D01*
X017157Y013275D01*
X017092Y013980D02*
X017092Y014091D01*
X017129Y014127D01*
X017202Y014127D01*
X017239Y014091D01*
X017239Y013980D01*
X017312Y013980D02*
X017092Y013980D01*
X017239Y014054D02*
X017312Y014127D01*
X017275Y014201D02*
X017312Y014238D01*
X017312Y014312D01*
X017275Y014348D01*
X017129Y014348D01*
X017092Y014312D01*
X017092Y014238D01*
X017129Y014201D01*
X017165Y014201D01*
X017202Y014238D01*
X017202Y014348D01*
X018483Y013868D02*
X018593Y013758D01*
X018593Y013905D01*
X018703Y013868D02*
X018483Y013868D01*
X018520Y013684D02*
X018483Y013647D01*
X018483Y013574D01*
X018520Y013537D01*
X018666Y013537D01*
X018703Y013574D01*
X018703Y013647D01*
X018666Y013684D01*
X018676Y012730D02*
X018713Y012693D01*
X018713Y012620D01*
X018676Y012583D01*
X018676Y012509D02*
X018713Y012472D01*
X018713Y012399D01*
X018676Y012362D01*
X018529Y012362D01*
X018492Y012399D01*
X018492Y012472D01*
X018529Y012509D01*
X018529Y012583D02*
X018492Y012620D01*
X018492Y012693D01*
X018529Y012730D01*
X018566Y012730D01*
X018602Y012693D01*
X018639Y012730D01*
X018676Y012730D01*
X018602Y012693D02*
X018602Y012656D01*
X020025Y011167D02*
X019988Y011130D01*
X019988Y010984D01*
X020025Y010947D01*
X020098Y010947D01*
X020135Y010984D01*
X020209Y010984D02*
X020246Y010947D01*
X020319Y010947D01*
X020356Y010984D01*
X020356Y011020D01*
X020319Y011057D01*
X020283Y011057D01*
X020319Y011057D02*
X020356Y011094D01*
X020356Y011130D01*
X020319Y011167D01*
X020246Y011167D01*
X020209Y011130D01*
X020135Y011130D02*
X020098Y011167D01*
X020025Y011167D01*
X020430Y011130D02*
X020430Y011094D01*
X020467Y011057D01*
X020540Y011057D01*
X020577Y011020D01*
X020577Y010984D01*
X020540Y010947D01*
X020467Y010947D01*
X020430Y010984D01*
X020430Y011020D01*
X020467Y011057D01*
X020540Y011057D02*
X020577Y011094D01*
X020577Y011130D01*
X020540Y011167D01*
X020467Y011167D01*
X020430Y011130D01*
X021835Y011137D02*
X021835Y010990D01*
X021872Y010954D01*
X021945Y010954D01*
X021982Y010990D01*
X022056Y010990D02*
X022093Y010954D01*
X022166Y010954D01*
X022203Y010990D01*
X022203Y011027D01*
X022166Y011064D01*
X022130Y011064D01*
X022166Y011064D02*
X022203Y011101D01*
X022203Y011137D01*
X022166Y011174D01*
X022093Y011174D01*
X022056Y011137D01*
X021982Y011137D02*
X021945Y011174D01*
X021872Y011174D01*
X021835Y011137D01*
X022277Y011137D02*
X022314Y011174D01*
X022387Y011174D01*
X022424Y011137D01*
X022424Y011101D01*
X022387Y011064D01*
X022424Y011027D01*
X022424Y010990D01*
X022387Y010954D01*
X022314Y010954D01*
X022277Y010990D01*
X022351Y011064D02*
X022387Y011064D01*
X023737Y011879D02*
X023958Y011879D01*
X022428Y009888D02*
X022465Y009851D01*
X022465Y009778D01*
X022428Y009741D01*
X022465Y009667D02*
X022392Y009593D01*
X022392Y009630D02*
X022392Y009520D01*
X022465Y009520D02*
X022245Y009520D01*
X022245Y009630D01*
X022282Y009667D01*
X022355Y009667D01*
X022392Y009630D01*
X022282Y009741D02*
X022245Y009778D01*
X022245Y009851D01*
X022282Y009888D01*
X022318Y009888D01*
X022355Y009851D01*
X022392Y009888D01*
X022428Y009888D01*
X022355Y009851D02*
X022355Y009814D01*
X020124Y009872D02*
X019904Y009872D01*
X020014Y009762D01*
X020014Y009909D01*
X020014Y009688D02*
X020050Y009651D01*
X020050Y009541D01*
X020050Y009614D02*
X020124Y009688D01*
X020014Y009688D02*
X019940Y009688D01*
X019904Y009651D01*
X019904Y009541D01*
X020124Y009541D01*
X015693Y009578D02*
X015620Y009504D01*
X015620Y009541D02*
X015620Y009431D01*
X015693Y009431D02*
X015473Y009431D01*
X015473Y009541D01*
X015510Y009578D01*
X015583Y009578D01*
X015620Y009541D01*
X015693Y009652D02*
X015693Y009799D01*
X015693Y009725D02*
X015473Y009725D01*
X015547Y009652D01*
X011686Y012317D02*
X011686Y012390D01*
X011650Y012427D01*
X011686Y012501D02*
X011686Y012648D01*
X011686Y012575D02*
X011466Y012575D01*
X011540Y012501D01*
X011503Y012427D02*
X011466Y012390D01*
X011466Y012317D01*
X011503Y012280D01*
X011650Y012280D01*
X011686Y012317D01*
X011651Y013468D02*
X011688Y013504D01*
X011688Y013578D01*
X011651Y013614D01*
X011688Y013689D02*
X011541Y013835D01*
X011504Y013835D01*
X011468Y013799D01*
X011468Y013725D01*
X011504Y013689D01*
X011504Y013614D02*
X011468Y013578D01*
X011468Y013504D01*
X011504Y013468D01*
X011651Y013468D01*
X011688Y013689D02*
X011688Y013835D01*
X011706Y015020D02*
X011743Y015057D01*
X011706Y015020D02*
X011633Y015020D01*
X011596Y015057D01*
X011596Y015203D01*
X011633Y015240D01*
X011706Y015240D01*
X011743Y015203D01*
X011817Y015203D02*
X011854Y015240D01*
X011927Y015240D01*
X011964Y015203D01*
X011964Y015167D01*
X011817Y015020D01*
X011964Y015020D01*
X012038Y015057D02*
X012075Y015020D01*
X012148Y015020D01*
X012185Y015057D01*
X012185Y015093D01*
X012148Y015130D01*
X012112Y015130D01*
X012148Y015130D02*
X012185Y015167D01*
X012185Y015203D01*
X012148Y015240D01*
X012075Y015240D01*
X012038Y015203D01*
X012004Y015554D02*
X011857Y015554D01*
X012004Y015700D01*
X012004Y015737D01*
X011967Y015774D01*
X011894Y015774D01*
X011857Y015737D01*
X011783Y015737D02*
X011746Y015774D01*
X011673Y015774D01*
X011636Y015737D01*
X011636Y015590D01*
X011673Y015554D01*
X011746Y015554D01*
X011783Y015590D01*
X012078Y015554D02*
X012225Y015700D01*
X012225Y015737D01*
X012188Y015774D01*
X012115Y015774D01*
X012078Y015737D01*
X012078Y015554D02*
X012225Y015554D01*
X012459Y015118D02*
X012459Y014934D01*
X012495Y014898D01*
X012569Y014898D01*
X012606Y014934D01*
X012606Y015118D01*
X012680Y015044D02*
X012753Y015118D01*
X012753Y014898D01*
X012680Y014898D02*
X012827Y014898D01*
X012901Y014934D02*
X012937Y014898D01*
X013011Y014898D01*
X013048Y014934D01*
X013048Y014971D01*
X013011Y015008D01*
X012974Y015008D01*
X013011Y015008D02*
X013048Y015044D01*
X013048Y015081D01*
X013011Y015118D01*
X012937Y015118D01*
X012901Y015081D01*
X012880Y016217D02*
X012916Y016254D01*
X012916Y016327D01*
X012880Y016364D01*
X012696Y016364D01*
X012770Y016438D02*
X012696Y016511D01*
X012916Y016511D01*
X012916Y016438D02*
X012916Y016585D01*
X012934Y016753D02*
X013080Y016753D01*
X013007Y016753D02*
X013007Y016973D01*
X012934Y016900D01*
X012860Y016863D02*
X012713Y016863D01*
X012823Y016973D01*
X012823Y016753D01*
X012639Y016790D02*
X012602Y016753D01*
X012528Y016753D01*
X012492Y016790D01*
X012492Y016936D01*
X012528Y016973D01*
X012602Y016973D01*
X012639Y016936D01*
X012696Y016217D02*
X012880Y016217D01*
X015301Y018488D02*
X015301Y018598D01*
X015337Y018635D01*
X015411Y018635D01*
X015447Y018598D01*
X015447Y018488D01*
X015447Y018562D02*
X015521Y018635D01*
X015521Y018709D02*
X015521Y018856D01*
X015521Y018783D02*
X015301Y018783D01*
X015374Y018709D01*
X015337Y018930D02*
X015301Y018967D01*
X015301Y019040D01*
X015337Y019077D01*
X015374Y019077D01*
X015521Y018930D01*
X015521Y019077D01*
X015521Y018488D02*
X015301Y018488D01*
X019341Y015079D02*
X019341Y014895D01*
X019378Y014859D01*
X019451Y014859D01*
X019488Y014895D01*
X019488Y015079D01*
X019562Y015005D02*
X019635Y015079D01*
X019635Y014859D01*
X019562Y014859D02*
X019709Y014859D01*
X019783Y014969D02*
X019893Y015079D01*
X019893Y014859D01*
X019930Y014969D02*
X019783Y014969D01*
X019720Y016207D02*
X019757Y016244D01*
X019757Y016317D01*
X019720Y016354D01*
X019537Y016354D01*
X019574Y016428D02*
X019537Y016465D01*
X019537Y016538D01*
X019574Y016575D01*
X019610Y016575D01*
X019757Y016428D01*
X019757Y016575D01*
X019720Y016207D02*
X019537Y016207D01*
X020101Y017447D02*
X020248Y017447D01*
X020284Y017484D01*
X020284Y017557D01*
X020248Y017594D01*
X020174Y017668D02*
X020174Y017815D01*
X020101Y017889D02*
X020064Y017926D01*
X020064Y017999D01*
X020101Y018036D01*
X020248Y017889D01*
X020284Y017926D01*
X020284Y017999D01*
X020248Y018036D01*
X020101Y018036D01*
X020101Y017889D02*
X020248Y017889D01*
X020284Y017778D02*
X020064Y017778D01*
X020174Y017668D01*
X020101Y017594D02*
X020064Y017557D01*
X020064Y017484D01*
X020101Y017447D01*
X021747Y017563D02*
X021747Y017673D01*
X021784Y017710D01*
X021858Y017710D01*
X021894Y017673D01*
X021894Y017563D01*
X021894Y017637D02*
X021968Y017710D01*
X021931Y017784D02*
X021968Y017821D01*
X021968Y017894D01*
X021931Y017931D01*
X021894Y017931D01*
X021858Y017894D01*
X021858Y017858D01*
X021858Y017894D02*
X021821Y017931D01*
X021784Y017931D01*
X021747Y017894D01*
X021747Y017821D01*
X021784Y017784D01*
X021747Y017563D02*
X021968Y017563D01*
X021931Y018005D02*
X021968Y018042D01*
X021968Y018115D01*
X021931Y018152D01*
X021858Y018152D01*
X021821Y018115D01*
X021821Y018079D01*
X021858Y018005D01*
X021747Y018005D01*
X021747Y018152D01*
X012304Y026079D02*
X012304Y026152D01*
X012267Y026189D01*
X012304Y026263D02*
X012157Y026410D01*
X012121Y026410D01*
X012084Y026373D01*
X012084Y026300D01*
X012121Y026263D01*
X012121Y026189D02*
X012084Y026152D01*
X012084Y026079D01*
X012121Y026042D01*
X012267Y026042D01*
X012304Y026079D01*
X012304Y026263D02*
X012304Y026410D01*
X012267Y026484D02*
X012304Y026521D01*
X012304Y026594D01*
X012267Y026631D01*
X012231Y026631D01*
X012194Y026594D01*
X012194Y026484D01*
X012267Y026484D01*
X012194Y026484D02*
X012121Y026557D01*
X012084Y026631D01*
X011753Y026600D02*
X011533Y026600D01*
X011643Y026490D01*
X011643Y026637D01*
X011753Y026416D02*
X011753Y026269D01*
X011753Y026342D02*
X011533Y026342D01*
X011606Y026269D01*
X011569Y026195D02*
X011533Y026158D01*
X011533Y026085D01*
X011569Y026048D01*
X011716Y026048D01*
X011753Y026085D01*
X011753Y026158D01*
X011716Y026195D01*
X011182Y026248D02*
X011109Y026174D01*
X011109Y026211D02*
X011109Y026101D01*
X011182Y026101D02*
X010962Y026101D01*
X010962Y026211D01*
X010999Y026248D01*
X011072Y026248D01*
X011109Y026211D01*
X011145Y026322D02*
X011182Y026359D01*
X011182Y026432D01*
X011145Y026469D01*
X011109Y026469D01*
X011072Y026432D01*
X011072Y026395D01*
X011072Y026432D02*
X011035Y026469D01*
X010999Y026469D01*
X010962Y026432D01*
X010962Y026359D01*
X010999Y026322D01*
X010999Y026543D02*
X011035Y026543D01*
X011072Y026580D01*
X011072Y026653D01*
X011109Y026690D01*
X011145Y026690D01*
X011182Y026653D01*
X011182Y026580D01*
X011145Y026543D01*
X011109Y026543D01*
X011072Y026580D01*
X011072Y026653D02*
X011035Y026690D01*
X010999Y026690D01*
X010962Y026653D01*
X010962Y026580D01*
X010999Y026543D01*
X010296Y027768D02*
X010222Y027768D01*
X010186Y027805D01*
X010186Y027841D01*
X010222Y027878D01*
X010296Y027878D01*
X010332Y027841D01*
X010332Y027805D01*
X010296Y027768D01*
X010296Y027878D02*
X010332Y027915D01*
X010332Y027951D01*
X010296Y027988D01*
X010222Y027988D01*
X010186Y027951D01*
X010186Y027915D01*
X010222Y027878D01*
X010111Y027878D02*
X009965Y027878D01*
X010075Y027988D01*
X010075Y027768D01*
X009890Y027768D02*
X009817Y027841D01*
X009854Y027841D02*
X009744Y027841D01*
X009744Y027768D02*
X009744Y027988D01*
X009854Y027988D01*
X009890Y027951D01*
X009890Y027878D01*
X009854Y027841D01*
X009882Y028195D02*
X009918Y028232D01*
X009882Y028195D02*
X009808Y028195D01*
X009772Y028232D01*
X009772Y028379D01*
X009808Y028415D01*
X009882Y028415D01*
X009918Y028379D01*
X009993Y028379D02*
X010029Y028415D01*
X010103Y028415D01*
X010139Y028379D01*
X010139Y028342D01*
X009993Y028195D01*
X010139Y028195D01*
X010213Y028232D02*
X010250Y028195D01*
X010324Y028195D01*
X010360Y028232D01*
X010360Y028305D01*
X010324Y028342D01*
X010287Y028342D01*
X010213Y028305D01*
X010213Y028415D01*
X010360Y028415D01*
X010361Y028676D02*
X010361Y028896D01*
X010251Y028786D01*
X010398Y028786D01*
X010177Y028822D02*
X010177Y028859D01*
X010140Y028896D01*
X010067Y028896D01*
X010030Y028859D01*
X009956Y028859D02*
X009919Y028896D01*
X009846Y028896D01*
X009809Y028859D01*
X009809Y028712D01*
X009846Y028676D01*
X009919Y028676D01*
X009956Y028712D01*
X010030Y028676D02*
X010177Y028822D01*
X010177Y028676D02*
X010030Y028676D01*
X008187Y029801D02*
X008041Y029654D01*
X008041Y029617D01*
X007966Y029654D02*
X007966Y029837D01*
X008041Y029837D02*
X008187Y029837D01*
X008187Y029801D01*
X007966Y029654D02*
X007930Y029617D01*
X007856Y029617D01*
X007820Y029654D01*
X007820Y029837D01*
X007380Y030228D02*
X007343Y030191D01*
X007270Y030191D01*
X007233Y030228D01*
X007159Y030228D02*
X007159Y030375D01*
X007122Y030411D01*
X007012Y030411D01*
X007012Y030191D01*
X007122Y030191D01*
X007159Y030228D01*
X007233Y030375D02*
X007270Y030411D01*
X007343Y030411D01*
X007380Y030375D01*
X007380Y030338D01*
X007343Y030301D01*
X007380Y030265D01*
X007380Y030228D01*
X007343Y030301D02*
X007307Y030301D01*
X007694Y028806D02*
X007731Y028806D01*
X007878Y028659D01*
X007914Y028659D01*
X007878Y028585D02*
X007914Y028548D01*
X007914Y028475D01*
X007878Y028438D01*
X007914Y028364D02*
X007841Y028291D01*
X007841Y028327D02*
X007841Y028217D01*
X007914Y028217D02*
X007694Y028217D01*
X007694Y028327D01*
X007731Y028364D01*
X007804Y028364D01*
X007841Y028327D01*
X007731Y028438D02*
X007694Y028475D01*
X007694Y028548D01*
X007731Y028585D01*
X007768Y028585D01*
X007804Y028548D01*
X007841Y028585D01*
X007878Y028585D01*
X007804Y028548D02*
X007804Y028511D01*
X007694Y028659D02*
X007694Y028806D01*
X007411Y028230D02*
X007338Y028230D01*
X007301Y028193D01*
X007227Y028193D02*
X007227Y028047D01*
X007190Y028010D01*
X007117Y028010D01*
X007080Y028047D01*
X007080Y028193D01*
X007117Y028230D01*
X007190Y028230D01*
X007227Y028193D01*
X007154Y028083D02*
X007227Y028010D01*
X007301Y028010D02*
X007448Y028157D01*
X007448Y028193D01*
X007411Y028230D01*
X007448Y028010D02*
X007301Y028010D01*
X007625Y025626D02*
X007588Y025589D01*
X007588Y025442D01*
X007625Y025406D01*
X007698Y025406D01*
X007735Y025442D01*
X007809Y025442D02*
X007846Y025406D01*
X007919Y025406D01*
X007956Y025442D01*
X007956Y025516D01*
X007919Y025552D01*
X007882Y025552D01*
X007809Y025516D01*
X007809Y025626D01*
X007956Y025626D01*
X008030Y025626D02*
X008177Y025626D01*
X008177Y025589D01*
X008030Y025442D01*
X008030Y025406D01*
X008016Y025098D02*
X008126Y025098D01*
X008163Y025062D01*
X008163Y024915D01*
X008126Y024878D01*
X008016Y024878D01*
X008016Y025098D01*
X007942Y025098D02*
X007795Y025098D01*
X007795Y024878D01*
X007942Y024878D01*
X007869Y024988D02*
X007795Y024988D01*
X007721Y024878D02*
X007574Y024878D01*
X007574Y025098D01*
X007735Y025589D02*
X007698Y025626D01*
X007625Y025626D01*
X008237Y025025D02*
X008311Y025098D01*
X008311Y024878D01*
X008384Y024878D02*
X008237Y024878D01*
X008150Y024547D02*
X008040Y024437D01*
X008187Y024437D01*
X008150Y024327D02*
X008150Y024547D01*
X007892Y024547D02*
X007892Y024327D01*
X007819Y024327D02*
X007966Y024327D01*
X007819Y024474D02*
X007892Y024547D01*
X007745Y024510D02*
X007745Y024437D01*
X007708Y024400D01*
X007598Y024400D01*
X007598Y024327D02*
X007598Y024547D01*
X007708Y024547D01*
X007745Y024510D01*
X007671Y024400D02*
X007745Y024327D01*
X008631Y024090D02*
X008631Y023870D01*
X008631Y023944D02*
X008741Y023944D01*
X008778Y023980D01*
X008778Y024054D01*
X008741Y024090D01*
X008631Y024090D01*
X008705Y023944D02*
X008778Y023870D01*
X008852Y023980D02*
X008999Y023980D01*
X009073Y023980D02*
X009183Y023980D01*
X009220Y023944D01*
X009220Y023907D01*
X009183Y023870D01*
X009110Y023870D01*
X009073Y023907D01*
X009073Y023980D01*
X009147Y024054D01*
X009220Y024090D01*
X008962Y024090D02*
X008852Y023980D01*
X008962Y023870D02*
X008962Y024090D01*
X007760Y022736D02*
X007796Y022699D01*
X007796Y022626D01*
X007760Y022589D01*
X007723Y022589D01*
X007686Y022626D01*
X007686Y022699D01*
X007723Y022736D01*
X007760Y022736D01*
X007686Y022699D02*
X007650Y022736D01*
X007613Y022736D01*
X007576Y022699D01*
X007576Y022626D01*
X007613Y022589D01*
X007650Y022589D01*
X007686Y022626D01*
X007760Y022515D02*
X007576Y022515D01*
X007576Y022368D02*
X007760Y022368D01*
X007796Y022405D01*
X007796Y022478D01*
X007760Y022515D01*
X007814Y021892D02*
X007814Y021745D01*
X007814Y021819D02*
X007594Y021819D01*
X007667Y021745D01*
X007667Y021671D02*
X007704Y021634D01*
X007741Y021671D01*
X007777Y021671D01*
X007814Y021634D01*
X007814Y021561D01*
X007777Y021524D01*
X007814Y021450D02*
X007741Y021377D01*
X007741Y021413D02*
X007741Y021303D01*
X007814Y021303D02*
X007594Y021303D01*
X007594Y021413D01*
X007631Y021450D01*
X007704Y021450D01*
X007741Y021413D01*
X007631Y021524D02*
X007594Y021561D01*
X007594Y021634D01*
X007631Y021671D01*
X007667Y021671D01*
X007704Y021634D02*
X007704Y021598D01*
X008635Y020864D02*
X008855Y020864D01*
X008855Y020791D02*
X008855Y020938D01*
X008708Y020791D02*
X008635Y020864D01*
X008672Y020717D02*
X008819Y020717D01*
X008855Y020680D01*
X008855Y020607D01*
X008819Y020570D01*
X008672Y020570D01*
X008635Y020607D01*
X008635Y020680D01*
X008672Y020717D01*
X008782Y020643D02*
X008855Y020717D01*
X009748Y021041D02*
X009785Y021004D01*
X009858Y021004D01*
X009895Y021041D01*
X009969Y021004D02*
X010116Y021151D01*
X010116Y021188D01*
X010079Y021224D01*
X010006Y021224D01*
X009969Y021188D01*
X009895Y021188D02*
X009858Y021224D01*
X009785Y021224D01*
X009748Y021188D01*
X009748Y021041D01*
X009969Y021004D02*
X010116Y021004D01*
X010190Y021004D02*
X010337Y021004D01*
X010263Y021004D02*
X010263Y021224D01*
X010190Y021151D01*
X010207Y021496D02*
X010170Y021533D01*
X010317Y021680D01*
X010317Y021533D01*
X010280Y021496D01*
X010207Y021496D01*
X010170Y021533D02*
X010170Y021680D01*
X010207Y021717D01*
X010280Y021717D01*
X010317Y021680D01*
X010096Y021680D02*
X010059Y021717D01*
X009986Y021717D01*
X009949Y021680D01*
X009875Y021680D02*
X009838Y021717D01*
X009765Y021717D01*
X009728Y021680D01*
X009728Y021533D01*
X009765Y021496D01*
X009838Y021496D01*
X009875Y021533D01*
X009949Y021496D02*
X010096Y021643D01*
X010096Y021680D01*
X010096Y021496D02*
X009949Y021496D01*
X008209Y018726D02*
X008246Y018690D01*
X008246Y018653D01*
X008209Y018616D01*
X008136Y018616D01*
X008099Y018653D01*
X008099Y018690D01*
X008136Y018726D01*
X008209Y018726D01*
X008209Y018616D02*
X008246Y018579D01*
X008246Y018543D01*
X008209Y018506D01*
X008136Y018506D01*
X008099Y018543D01*
X008099Y018579D01*
X008136Y018616D01*
X008025Y018616D02*
X008025Y018543D01*
X007988Y018506D01*
X007915Y018506D01*
X007878Y018543D01*
X007878Y018616D02*
X007951Y018653D01*
X007988Y018653D01*
X008025Y018616D01*
X008025Y018726D02*
X007878Y018726D01*
X007878Y018616D01*
X007804Y018543D02*
X007767Y018506D01*
X007694Y018506D01*
X007657Y018543D01*
X007657Y018690D01*
X007694Y018726D01*
X007767Y018726D01*
X007804Y018690D01*
X007873Y018228D02*
X007726Y018228D01*
X007726Y018008D01*
X007873Y018008D01*
X007947Y018008D02*
X008057Y018008D01*
X008094Y018045D01*
X008094Y018192D01*
X008057Y018228D01*
X007947Y018228D01*
X007947Y018008D01*
X007800Y018118D02*
X007726Y018118D01*
X007652Y018008D02*
X007505Y018008D01*
X007505Y018228D01*
X008168Y018192D02*
X008205Y018228D01*
X008278Y018228D01*
X008315Y018192D01*
X008315Y018155D01*
X008168Y018008D01*
X008315Y018008D01*
X008818Y018067D02*
X008928Y018067D01*
X008965Y018030D01*
X008965Y017957D01*
X008928Y017920D01*
X008818Y017920D01*
X008818Y017847D02*
X008818Y018067D01*
X008892Y017920D02*
X008965Y017847D01*
X009039Y017957D02*
X009186Y017957D01*
X009260Y017883D02*
X009260Y017847D01*
X009260Y017883D02*
X009407Y018030D01*
X009407Y018067D01*
X009260Y018067D01*
X009149Y018067D02*
X009039Y017957D01*
X009149Y017847D02*
X009149Y018067D01*
X008406Y017390D02*
X008369Y017427D01*
X008295Y017427D01*
X008259Y017390D01*
X008259Y017354D01*
X008295Y017317D01*
X008406Y017317D01*
X008406Y017244D02*
X008406Y017390D01*
X008406Y017244D02*
X008369Y017207D01*
X008295Y017207D01*
X008259Y017244D01*
X008185Y017244D02*
X008185Y017427D01*
X008038Y017427D02*
X008038Y017244D01*
X008074Y017207D01*
X008148Y017207D01*
X008185Y017244D01*
X007875Y016591D02*
X007875Y016445D01*
X007728Y016591D01*
X007691Y016591D01*
X007655Y016555D01*
X007655Y016481D01*
X007691Y016445D01*
X007691Y016370D02*
X007728Y016370D01*
X007765Y016334D01*
X007802Y016370D01*
X007838Y016370D01*
X007875Y016334D01*
X007875Y016260D01*
X007838Y016224D01*
X007875Y016149D02*
X007802Y016076D01*
X007802Y016113D02*
X007802Y016003D01*
X007875Y016003D02*
X007655Y016003D01*
X007655Y016113D01*
X007691Y016149D01*
X007765Y016149D01*
X007802Y016113D01*
X007691Y016224D02*
X007655Y016260D01*
X007655Y016334D01*
X007691Y016370D01*
X007765Y016334D02*
X007765Y016297D01*
X007539Y016325D02*
X007502Y016288D01*
X007539Y016325D02*
X007539Y016398D01*
X007502Y016435D01*
X007428Y016435D01*
X007392Y016398D01*
X007392Y016361D01*
X007428Y016288D01*
X007318Y016288D01*
X007318Y016435D01*
X007355Y016509D02*
X007392Y016509D01*
X007428Y016546D01*
X007428Y016656D01*
X007355Y016656D02*
X007318Y016619D01*
X007318Y016546D01*
X007355Y016509D01*
X007502Y016509D02*
X007539Y016546D01*
X007539Y016619D01*
X007502Y016656D01*
X007355Y016656D01*
X007355Y016214D02*
X007318Y016177D01*
X007318Y016104D01*
X007355Y016067D01*
X007502Y016067D01*
X007539Y016104D01*
X007539Y016177D01*
X007502Y016214D01*
X007347Y017132D02*
X007384Y017169D01*
X007384Y017206D01*
X007347Y017242D01*
X007237Y017242D01*
X007237Y017169D01*
X007274Y017132D01*
X007347Y017132D01*
X007237Y017242D02*
X007311Y017316D01*
X007384Y017352D01*
X007090Y017352D02*
X007090Y017132D01*
X007163Y017132D02*
X007016Y017132D01*
X006942Y017132D02*
X006869Y017206D01*
X006905Y017206D02*
X006795Y017206D01*
X006795Y017132D02*
X006795Y017352D01*
X006905Y017352D01*
X006942Y017316D01*
X006942Y017242D01*
X006905Y017206D01*
X007016Y017279D02*
X007090Y017352D01*
X005690Y017833D02*
X005470Y017833D01*
X005470Y017943D01*
X005506Y017980D01*
X005580Y017980D01*
X005617Y017943D01*
X005617Y017833D01*
X005617Y017907D02*
X005690Y017980D01*
X005653Y018054D02*
X005690Y018091D01*
X005690Y018164D01*
X005653Y018201D01*
X005580Y018201D01*
X005543Y018164D01*
X005543Y018128D01*
X005580Y018054D01*
X005470Y018054D01*
X005470Y018201D01*
X005580Y018275D02*
X005580Y018385D01*
X005617Y018422D01*
X005653Y018422D01*
X005690Y018385D01*
X005690Y018312D01*
X005653Y018275D01*
X005580Y018275D01*
X005506Y018349D01*
X005470Y018422D01*
X005456Y016124D02*
X005456Y015977D01*
X005456Y016050D02*
X005236Y016050D01*
X005309Y015977D01*
X005272Y015903D02*
X005236Y015866D01*
X005236Y015756D01*
X005456Y015756D01*
X005456Y015866D01*
X005419Y015903D01*
X005272Y015903D01*
X008684Y014749D02*
X008684Y014676D01*
X008721Y014639D01*
X008721Y014565D02*
X008868Y014565D01*
X008904Y014529D01*
X008904Y014455D01*
X008868Y014418D01*
X008721Y014418D01*
X008684Y014455D01*
X008684Y014529D01*
X008721Y014565D01*
X008831Y014492D02*
X008904Y014565D01*
X008868Y014639D02*
X008904Y014676D01*
X008904Y014749D01*
X008868Y014786D01*
X008831Y014786D01*
X008794Y014749D01*
X008794Y014713D01*
X008794Y014749D02*
X008758Y014786D01*
X008721Y014786D01*
X008684Y014749D01*
X008485Y012628D02*
X008522Y012591D01*
X008522Y012554D01*
X008485Y012518D01*
X008522Y012481D01*
X008522Y012444D01*
X008485Y012408D01*
X008412Y012408D01*
X008375Y012444D01*
X008301Y012444D02*
X008301Y012591D01*
X008264Y012628D01*
X008154Y012628D01*
X008154Y012408D01*
X008264Y012408D01*
X008301Y012444D01*
X008375Y012591D02*
X008412Y012628D01*
X008485Y012628D01*
X008485Y012518D02*
X008448Y012518D01*
X008080Y012628D02*
X007933Y012628D01*
X007933Y012408D01*
X008080Y012408D01*
X008006Y012518D02*
X007933Y012518D01*
X007859Y012408D02*
X007712Y012408D01*
X007712Y012628D01*
X007384Y011693D02*
X007237Y011693D01*
X007237Y011583D01*
X007311Y011620D01*
X007347Y011620D01*
X007384Y011583D01*
X007384Y011509D01*
X007347Y011473D01*
X007274Y011473D01*
X007237Y011509D01*
X007163Y011473D02*
X007016Y011473D01*
X007090Y011473D02*
X007090Y011693D01*
X007016Y011620D01*
X006942Y011656D02*
X006942Y011583D01*
X006905Y011546D01*
X006795Y011546D01*
X006795Y011473D02*
X006795Y011693D01*
X006905Y011693D01*
X006942Y011656D01*
X006869Y011546D02*
X006942Y011473D01*
X005985Y012026D02*
X005765Y012026D01*
X005765Y012136D01*
X005802Y012173D01*
X005875Y012173D01*
X005912Y012136D01*
X005912Y012026D01*
X005912Y012100D02*
X005985Y012173D01*
X005948Y012247D02*
X005985Y012284D01*
X005985Y012357D01*
X005948Y012394D01*
X005875Y012394D01*
X005838Y012357D01*
X005838Y012321D01*
X005875Y012247D01*
X005765Y012247D01*
X005765Y012394D01*
X005765Y012468D02*
X005875Y012468D01*
X005838Y012542D01*
X005838Y012578D01*
X005875Y012615D01*
X005948Y012615D01*
X005985Y012578D01*
X005985Y012505D01*
X005948Y012468D01*
X005765Y012468D02*
X005765Y012615D01*
X005538Y022302D02*
X005318Y022302D01*
X005318Y022412D01*
X005355Y022449D01*
X005502Y022449D01*
X005538Y022412D01*
X005538Y022302D01*
X005538Y022523D02*
X005392Y022670D01*
X005355Y022670D01*
X005318Y022633D01*
X005318Y022560D01*
X005355Y022523D01*
X005538Y022523D02*
X005538Y022670D01*
X005470Y024871D02*
X005470Y024981D01*
X005506Y025017D01*
X005580Y025017D01*
X005617Y024981D01*
X005617Y024871D01*
X005690Y024871D02*
X005470Y024871D01*
X005617Y024944D02*
X005690Y025017D01*
X005653Y025092D02*
X005690Y025128D01*
X005690Y025202D01*
X005653Y025238D01*
X005580Y025238D01*
X005543Y025202D01*
X005543Y025165D01*
X005580Y025092D01*
X005470Y025092D01*
X005470Y025238D01*
X005470Y025313D02*
X005470Y025459D01*
X005506Y025459D01*
X005653Y025313D01*
X005690Y025313D01*
X011988Y030334D02*
X012134Y030554D01*
X012209Y030517D02*
X012209Y030480D01*
X012245Y030444D01*
X012355Y030444D01*
X012355Y030517D02*
X012355Y030370D01*
X012319Y030334D01*
X012245Y030334D01*
X012209Y030370D01*
X012134Y030334D02*
X011988Y030554D01*
X012209Y030517D02*
X012245Y030554D01*
X012319Y030554D01*
X012355Y030517D01*
X013328Y030369D02*
X013365Y030406D01*
X013402Y030406D01*
X013438Y030369D01*
X013475Y030406D01*
X013512Y030406D01*
X013548Y030369D01*
X013548Y030296D01*
X013512Y030259D01*
X013548Y030185D02*
X013548Y030038D01*
X013548Y030111D02*
X013328Y030111D01*
X013402Y030038D01*
X013438Y029964D02*
X013475Y029927D01*
X013475Y029817D01*
X013548Y029817D02*
X013328Y029817D01*
X013328Y029927D01*
X013365Y029964D01*
X013438Y029964D01*
X013475Y029890D02*
X013548Y029964D01*
X013365Y030259D02*
X013328Y030296D01*
X013328Y030369D01*
X013438Y030369D02*
X013438Y030332D01*
X014399Y030264D02*
X014399Y030118D01*
X014436Y030081D01*
X014509Y030081D01*
X014546Y030118D01*
X014620Y030081D02*
X014767Y030081D01*
X014799Y030025D02*
X014836Y029989D01*
X014836Y029952D01*
X014799Y029915D01*
X014836Y029879D01*
X014836Y029842D01*
X014799Y029805D01*
X014726Y029805D01*
X014689Y029842D01*
X014615Y029805D02*
X014541Y029879D01*
X014578Y029879D02*
X014468Y029879D01*
X014468Y029805D02*
X014468Y030025D01*
X014578Y030025D01*
X014615Y029989D01*
X014615Y029915D01*
X014578Y029879D01*
X014689Y029989D02*
X014726Y030025D01*
X014799Y030025D01*
X014878Y030081D02*
X014841Y030118D01*
X014878Y030081D02*
X014951Y030081D01*
X014988Y030118D01*
X014988Y030191D01*
X014951Y030228D01*
X014914Y030228D01*
X014841Y030191D01*
X014841Y030301D01*
X014988Y030301D01*
X015020Y030025D02*
X014947Y030025D01*
X014910Y029989D01*
X014910Y029952D01*
X014947Y029915D01*
X015057Y029915D01*
X015057Y029842D02*
X015057Y029989D01*
X015020Y030025D01*
X015057Y029842D02*
X015020Y029805D01*
X014947Y029805D01*
X014910Y029842D01*
X014799Y029915D02*
X014762Y029915D01*
X014693Y030081D02*
X014693Y030301D01*
X014620Y030228D01*
X014546Y030264D02*
X014509Y030301D01*
X014436Y030301D01*
X014399Y030264D01*
X015708Y030353D02*
X015855Y030574D01*
X015929Y030537D02*
X015929Y030500D01*
X015966Y030463D01*
X016039Y030463D01*
X016076Y030427D01*
X016076Y030390D01*
X016039Y030353D01*
X015966Y030353D01*
X015929Y030390D01*
X015929Y030427D01*
X015966Y030463D01*
X016039Y030463D02*
X016076Y030500D01*
X016076Y030537D01*
X016039Y030574D01*
X015966Y030574D01*
X015929Y030537D01*
X015855Y030353D02*
X015708Y030574D01*
X016999Y030485D02*
X016999Y030338D01*
X016999Y030485D02*
X017036Y030485D01*
X017183Y030338D01*
X017220Y030338D01*
X017220Y030264D02*
X017220Y030117D01*
X017220Y030190D02*
X016999Y030190D01*
X017073Y030117D01*
X017110Y030043D02*
X017146Y030006D01*
X017146Y029896D01*
X017146Y029969D02*
X017220Y030043D01*
X017110Y030043D02*
X017036Y030043D01*
X016999Y030006D01*
X016999Y029896D01*
X017220Y029896D01*
X018120Y029898D02*
X018230Y029898D01*
X018266Y029935D01*
X018266Y030008D01*
X018230Y030045D01*
X018120Y030045D01*
X018120Y029825D01*
X018193Y029898D02*
X018266Y029825D01*
X018341Y029935D02*
X018487Y029935D01*
X018562Y029862D02*
X018708Y030008D01*
X018708Y029862D01*
X018672Y029825D01*
X018598Y029825D01*
X018562Y029862D01*
X018562Y030008D01*
X018598Y030045D01*
X018672Y030045D01*
X018708Y030008D01*
X018652Y030051D02*
X018689Y030088D01*
X018689Y030125D01*
X018652Y030161D01*
X018542Y030161D01*
X018542Y030088D01*
X018579Y030051D01*
X018652Y030051D01*
X018542Y030161D02*
X018615Y030235D01*
X018689Y030272D01*
X018394Y030272D02*
X018394Y030051D01*
X018451Y030045D02*
X018341Y029935D01*
X018321Y030051D02*
X018468Y030051D01*
X018451Y030045D02*
X018451Y029825D01*
X018210Y030051D02*
X018247Y030088D01*
X018210Y030051D02*
X018137Y030051D01*
X018100Y030088D01*
X018100Y030235D01*
X018137Y030272D01*
X018210Y030272D01*
X018247Y030235D01*
X018321Y030198D02*
X018394Y030272D01*
X019448Y030373D02*
X019595Y030593D01*
X019669Y030593D02*
X019816Y030593D01*
X019816Y030557D01*
X019669Y030410D01*
X019669Y030373D01*
X019595Y030373D02*
X019448Y030593D01*
X021318Y029488D02*
X021318Y029268D01*
X021318Y029341D02*
X021428Y029341D01*
X021465Y029378D01*
X021465Y029451D01*
X021428Y029488D01*
X021318Y029488D01*
X021392Y029341D02*
X021465Y029268D01*
X021539Y029268D02*
X021686Y029268D01*
X021613Y029268D02*
X021613Y029488D01*
X021539Y029415D01*
X021760Y029415D02*
X021760Y029451D01*
X021797Y029488D01*
X021870Y029488D01*
X021907Y029451D01*
X021907Y029415D01*
X021870Y029378D01*
X021797Y029378D01*
X021760Y029415D01*
X021797Y029378D02*
X021760Y029341D01*
X021760Y029305D01*
X021797Y029268D01*
X021870Y029268D01*
X021907Y029305D01*
X021907Y029341D01*
X021870Y029378D01*
X017000Y028055D02*
X016927Y028018D01*
X016853Y027945D01*
X016963Y027945D01*
X017000Y027908D01*
X017000Y027872D01*
X016963Y027835D01*
X016890Y027835D01*
X016853Y027872D01*
X016853Y027945D01*
X016779Y027945D02*
X016632Y027945D01*
X016742Y028055D01*
X016742Y027835D01*
X016558Y027872D02*
X016521Y027835D01*
X016448Y027835D01*
X016411Y027872D01*
X016411Y028018D01*
X016448Y028055D01*
X016521Y028055D01*
X016558Y028018D01*
X013348Y027996D02*
X013202Y027996D01*
X013202Y027886D01*
X013275Y027923D01*
X013312Y027923D01*
X013348Y027886D01*
X013348Y027813D01*
X013312Y027776D01*
X013238Y027776D01*
X013202Y027813D01*
X013127Y027886D02*
X012981Y027886D01*
X013091Y027996D01*
X013091Y027776D01*
X012907Y027813D02*
X012870Y027776D01*
X012796Y027776D01*
X012760Y027813D01*
X012760Y027959D01*
X012796Y027996D01*
X012870Y027996D01*
X012907Y027959D01*
X036826Y024956D02*
X036863Y024992D01*
X036900Y024992D01*
X036936Y024956D01*
X036973Y024992D01*
X037010Y024992D01*
X037046Y024956D01*
X037046Y024882D01*
X037010Y024846D01*
X037046Y024771D02*
X037046Y024625D01*
X037046Y024698D02*
X036826Y024698D01*
X036900Y024625D01*
X036863Y024550D02*
X036826Y024514D01*
X036826Y024440D01*
X036863Y024404D01*
X037010Y024404D01*
X037046Y024440D01*
X037046Y024514D01*
X037010Y024550D01*
X036863Y024846D02*
X036826Y024882D01*
X036826Y024956D01*
X036936Y024956D02*
X036936Y024919D01*
X038369Y023447D02*
X038332Y023410D01*
X038332Y023263D01*
X038369Y023227D01*
X038442Y023227D01*
X038479Y023263D01*
X038479Y023410D01*
X038442Y023447D01*
X038369Y023447D01*
X038553Y023447D02*
X038700Y023227D01*
X038700Y023447D01*
X038553Y023447D02*
X038553Y023227D01*
X038524Y021429D02*
X038524Y021209D01*
X038597Y021209D02*
X038450Y021209D01*
X038450Y021356D02*
X038524Y021429D01*
X038081Y020953D02*
X038007Y020953D01*
X037970Y020916D01*
X037896Y020916D02*
X037860Y020953D01*
X037786Y020953D01*
X037749Y020916D01*
X037749Y020879D01*
X037786Y020843D01*
X037860Y020843D01*
X037896Y020806D01*
X037896Y020769D01*
X037860Y020732D01*
X037786Y020732D01*
X037749Y020769D01*
X037970Y020732D02*
X038117Y020879D01*
X038117Y020916D01*
X038081Y020953D01*
X038117Y020732D02*
X037970Y020732D01*
X039450Y021209D02*
X039597Y021356D01*
X039597Y021392D01*
X039560Y021429D01*
X039487Y021429D01*
X039450Y021392D01*
X039450Y021209D02*
X039597Y021209D01*
X040100Y020761D02*
X040210Y020651D01*
X040210Y020798D01*
X040320Y020761D02*
X040100Y020761D01*
X040136Y020577D02*
X040100Y020540D01*
X040100Y020430D01*
X040320Y020430D01*
X040320Y020540D01*
X040283Y020577D01*
X040136Y020577D01*
X040100Y020356D02*
X040100Y020209D01*
X040320Y020209D01*
X040320Y020356D01*
X040210Y020283D02*
X040210Y020209D01*
X040320Y020135D02*
X040320Y019988D01*
X040100Y019988D01*
X040875Y021203D02*
X040875Y021423D01*
X040986Y021423D01*
X041022Y021386D01*
X041022Y021313D01*
X040986Y021276D01*
X040875Y021276D01*
X040949Y021276D02*
X041022Y021203D01*
X041096Y021203D02*
X041243Y021203D01*
X041170Y021203D02*
X041170Y021423D01*
X041096Y021350D01*
X041317Y021350D02*
X041391Y021423D01*
X041391Y021203D01*
X041464Y021203D02*
X041317Y021203D01*
X041290Y026364D02*
X041290Y026585D01*
X041180Y026474D01*
X041326Y026474D01*
X041300Y026689D02*
X041226Y026689D01*
X041189Y026726D01*
X041115Y026689D02*
X040968Y026689D01*
X041115Y026836D01*
X041115Y026873D01*
X041079Y026909D01*
X041005Y026909D01*
X040968Y026873D01*
X040894Y026873D02*
X040894Y026799D01*
X040858Y026763D01*
X040747Y026763D01*
X040747Y026689D02*
X040747Y026909D01*
X040858Y026909D01*
X040894Y026873D01*
X040821Y026763D02*
X040894Y026689D01*
X040848Y026585D02*
X040884Y026548D01*
X040884Y026474D01*
X040848Y026438D01*
X040738Y026438D01*
X040811Y026438D02*
X040884Y026364D01*
X040959Y026364D02*
X041105Y026511D01*
X041105Y026548D01*
X041069Y026585D01*
X040995Y026585D01*
X040959Y026548D01*
X040848Y026585D02*
X040738Y026585D01*
X040738Y026364D01*
X040959Y026364D02*
X041105Y026364D01*
X041300Y026689D02*
X041336Y026726D01*
X041336Y026763D01*
X041300Y026799D01*
X041263Y026799D01*
X041300Y026799D02*
X041336Y026836D01*
X041336Y026873D01*
X041300Y026909D01*
X041226Y026909D01*
X041189Y026873D01*
X041209Y027014D02*
X041356Y027161D01*
X041356Y027197D01*
X041319Y027234D01*
X041246Y027234D01*
X041209Y027197D01*
X041135Y027197D02*
X041098Y027234D01*
X041025Y027234D01*
X040988Y027197D01*
X040914Y027197D02*
X040914Y027124D01*
X040877Y027087D01*
X040767Y027087D01*
X040767Y027014D02*
X040767Y027234D01*
X040877Y027234D01*
X040914Y027197D01*
X040841Y027087D02*
X040914Y027014D01*
X040988Y027014D02*
X041135Y027161D01*
X041135Y027197D01*
X041135Y027014D02*
X040988Y027014D01*
X041209Y027014D02*
X041356Y027014D01*
X039436Y027013D02*
X039436Y026976D01*
X039399Y026939D01*
X039326Y026939D01*
X039289Y026976D01*
X039289Y027013D01*
X039326Y027049D01*
X039399Y027049D01*
X039436Y027013D01*
X039399Y026939D02*
X039436Y026902D01*
X039436Y026866D01*
X039399Y026829D01*
X039326Y026829D01*
X039289Y026866D01*
X039289Y026902D01*
X039326Y026939D01*
X039215Y026829D02*
X039068Y026829D01*
X039142Y026829D02*
X039142Y027049D01*
X039068Y026976D01*
X038994Y027049D02*
X038994Y026866D01*
X038957Y026829D01*
X038884Y026829D01*
X038847Y026866D01*
X038847Y027049D01*
D18*
X039374Y025018D02*
X039376Y025036D01*
X039382Y025054D01*
X039391Y025070D01*
X039403Y025083D01*
X039418Y025094D01*
X039435Y025102D01*
X039453Y025106D01*
X039471Y025106D01*
X039489Y025102D01*
X039506Y025094D01*
X039521Y025083D01*
X039533Y025070D01*
X039542Y025054D01*
X039548Y025036D01*
X039550Y025018D01*
X039548Y025000D01*
X039542Y024982D01*
X039533Y024966D01*
X039521Y024953D01*
X039506Y024942D01*
X039489Y024934D01*
X039471Y024930D01*
X039453Y024930D01*
X039435Y024934D01*
X039418Y024942D01*
X039403Y024953D01*
X039391Y024966D01*
X039382Y024982D01*
X039376Y025000D01*
X039374Y025018D01*
X029226Y022744D02*
X029226Y019594D01*
X026076Y019594D01*
X026076Y022744D01*
X029226Y022744D01*
X026536Y016179D02*
X026538Y016199D01*
X026543Y016219D01*
X026553Y016237D01*
X026565Y016254D01*
X026580Y016268D01*
X026598Y016278D01*
X026617Y016286D01*
X026637Y016290D01*
X026657Y016290D01*
X026677Y016286D01*
X026696Y016278D01*
X026714Y016268D01*
X026729Y016254D01*
X026741Y016237D01*
X026751Y016219D01*
X026756Y016199D01*
X026758Y016179D01*
X026756Y016159D01*
X026751Y016139D01*
X026741Y016121D01*
X026729Y016104D01*
X026714Y016090D01*
X026696Y016080D01*
X026677Y016072D01*
X026657Y016068D01*
X026637Y016068D01*
X026617Y016072D01*
X026598Y016080D01*
X026580Y016090D01*
X026565Y016104D01*
X026553Y016121D01*
X026543Y016139D01*
X026538Y016159D01*
X026536Y016179D01*
X020040Y016297D02*
X020042Y016317D01*
X020047Y016337D01*
X020057Y016355D01*
X020069Y016372D01*
X020084Y016386D01*
X020102Y016396D01*
X020121Y016404D01*
X020141Y016408D01*
X020161Y016408D01*
X020181Y016404D01*
X020200Y016396D01*
X020218Y016386D01*
X020233Y016372D01*
X020245Y016355D01*
X020255Y016337D01*
X020260Y016317D01*
X020262Y016297D01*
X020260Y016277D01*
X020255Y016257D01*
X020245Y016239D01*
X020233Y016222D01*
X020218Y016208D01*
X020200Y016198D01*
X020181Y016190D01*
X020161Y016186D01*
X020141Y016186D01*
X020121Y016190D01*
X020102Y016198D01*
X020084Y016208D01*
X020069Y016222D01*
X020057Y016239D01*
X020047Y016257D01*
X020042Y016277D01*
X020040Y016297D01*
X018567Y020206D02*
X018567Y020506D01*
X018567Y020356D02*
X018117Y020356D01*
X018267Y020206D01*
X018192Y020666D02*
X018117Y020741D01*
X018117Y020891D01*
X018192Y020966D01*
X018492Y020666D01*
X018567Y020741D01*
X018567Y020891D01*
X018492Y020966D01*
X018192Y020966D01*
X018192Y020666D02*
X018492Y020666D01*
X018567Y022664D02*
X018117Y022664D01*
X018117Y022964D01*
X018117Y023125D02*
X018567Y023425D01*
X018567Y023585D02*
X018117Y023585D01*
X018117Y023810D01*
X018192Y023885D01*
X018342Y023885D01*
X018417Y023810D01*
X018417Y023585D01*
X018117Y023425D02*
X018567Y023125D01*
X018567Y022964D02*
X018567Y022664D01*
X018342Y022664D02*
X018342Y022814D01*
X018342Y024045D02*
X018342Y024346D01*
X018267Y024346D02*
X018567Y024346D01*
X018567Y024506D02*
X018117Y024506D01*
X018567Y024806D01*
X018117Y024806D01*
X018117Y024966D02*
X018117Y025191D01*
X018192Y025266D01*
X018492Y025266D01*
X018567Y025191D01*
X018567Y024966D01*
X018117Y024966D01*
X018267Y024346D02*
X018117Y024196D01*
X018267Y024045D01*
X018567Y024045D01*
X015767Y024666D02*
X015767Y024966D01*
X015767Y024816D02*
X015317Y024816D01*
X015467Y024666D01*
X014820Y030709D02*
X016970Y030709D01*
X018541Y030748D02*
X020691Y030748D01*
X013289Y030689D02*
X011139Y030689D01*
X008340Y027803D02*
X008340Y025992D01*
X005820Y025992D01*
X005820Y027803D01*
X008340Y027803D01*
X007661Y026150D02*
X007663Y026168D01*
X007669Y026186D01*
X007678Y026202D01*
X007690Y026215D01*
X007705Y026226D01*
X007722Y026234D01*
X007740Y026238D01*
X007758Y026238D01*
X007776Y026234D01*
X007793Y026226D01*
X007808Y026215D01*
X007820Y026202D01*
X007829Y026186D01*
X007835Y026168D01*
X007837Y026150D01*
X007835Y026132D01*
X007829Y026114D01*
X007820Y026098D01*
X007808Y026085D01*
X007793Y026074D01*
X007776Y026066D01*
X007758Y026062D01*
X007740Y026062D01*
X007722Y026066D01*
X007705Y026074D01*
X007690Y026085D01*
X007678Y026098D01*
X007669Y026114D01*
X007663Y026132D01*
X007661Y026150D01*
X004374Y027917D02*
X004074Y028218D01*
X003999Y028218D01*
X003924Y028143D01*
X003924Y027992D01*
X003999Y027917D01*
X004374Y027917D02*
X004374Y028218D01*
X004374Y029817D02*
X004374Y030118D01*
X004374Y029967D02*
X003924Y029967D01*
X004074Y029817D01*
X004305Y023090D02*
X004305Y022790D01*
X004305Y022940D02*
X003855Y022940D01*
X004005Y022790D01*
X004005Y021190D02*
X003930Y021190D01*
X003855Y021115D01*
X003855Y020965D01*
X003930Y020890D01*
X004005Y021190D02*
X004305Y020890D01*
X004305Y021190D01*
X005820Y020766D02*
X005820Y018955D01*
X008340Y018955D01*
X008340Y020766D01*
X005820Y020766D01*
X007661Y019112D02*
X007663Y019130D01*
X007669Y019148D01*
X007678Y019164D01*
X007690Y019177D01*
X007705Y019188D01*
X007722Y019196D01*
X007740Y019200D01*
X007758Y019200D01*
X007776Y019196D01*
X007793Y019188D01*
X007808Y019177D01*
X007820Y019164D01*
X007829Y019148D01*
X007835Y019130D01*
X007837Y019112D01*
X007835Y019094D01*
X007829Y019076D01*
X007820Y019060D01*
X007808Y019047D01*
X007793Y019036D01*
X007776Y019028D01*
X007758Y019024D01*
X007740Y019024D01*
X007722Y019028D01*
X007705Y019036D01*
X007690Y019047D01*
X007678Y019060D01*
X007669Y019076D01*
X007663Y019094D01*
X007661Y019112D01*
X004374Y016417D02*
X004374Y016117D01*
X004374Y016267D02*
X003924Y016267D01*
X004074Y016117D01*
X004074Y014517D02*
X003999Y014517D01*
X003924Y014442D01*
X003924Y014292D01*
X003999Y014217D01*
X004074Y014517D02*
X004374Y014217D01*
X004374Y014517D01*
X005820Y014663D02*
X005820Y012852D01*
X008340Y012852D01*
X008340Y014663D01*
X005820Y014663D01*
X007661Y013010D02*
X007663Y013028D01*
X007669Y013046D01*
X007678Y013062D01*
X007690Y013075D01*
X007705Y013086D01*
X007722Y013094D01*
X007740Y013098D01*
X007758Y013098D01*
X007776Y013094D01*
X007793Y013086D01*
X007808Y013075D01*
X007820Y013062D01*
X007829Y013046D01*
X007835Y013028D01*
X007837Y013010D01*
X007835Y012992D01*
X007829Y012974D01*
X007820Y012958D01*
X007808Y012945D01*
X007793Y012934D01*
X007776Y012926D01*
X007758Y012922D01*
X007740Y012922D01*
X007722Y012926D01*
X007705Y012934D01*
X007690Y012945D01*
X007678Y012958D01*
X007669Y012974D01*
X007663Y012992D01*
X007661Y013010D01*
X006871Y011114D02*
X005966Y011114D01*
X005934Y011109D01*
X005903Y011101D01*
X005874Y011089D01*
X005846Y011073D01*
X005820Y011055D01*
X005796Y011033D01*
X005775Y011009D01*
X005757Y010983D01*
X005742Y010954D01*
X005730Y010924D01*
X005722Y010893D01*
X005722Y010894D02*
X005722Y009283D01*
X005721Y009283D02*
X005735Y009261D01*
X005751Y009242D01*
X005771Y009225D01*
X005793Y009211D01*
X005816Y009200D01*
X005841Y009194D01*
X005867Y009191D01*
X005893Y009192D01*
X005918Y009197D01*
X005943Y009206D01*
X005965Y009219D01*
X005986Y009235D01*
X006003Y009254D01*
X006018Y009275D01*
X006029Y009298D01*
X006037Y009323D01*
X006352Y010189D01*
X006509Y010189D02*
X006863Y009283D01*
X006878Y009262D01*
X006895Y009244D01*
X006914Y009229D01*
X006936Y009216D01*
X006959Y009207D01*
X006984Y009201D01*
X007009Y009199D01*
X007034Y009200D01*
X007058Y009205D01*
X007082Y009214D01*
X007104Y009225D01*
X007124Y009240D01*
X007142Y009257D01*
X007157Y009277D01*
X007169Y009299D01*
X007178Y009322D01*
X007178Y009323D02*
X007182Y010854D01*
X007183Y010855D02*
X007178Y010886D01*
X007170Y010918D01*
X007158Y010948D01*
X007143Y010976D01*
X007125Y011003D01*
X007105Y011027D01*
X007081Y011049D01*
X007055Y011068D01*
X007027Y011085D01*
X006998Y011098D01*
X006967Y011107D01*
X006936Y011113D01*
X006904Y011116D01*
X006871Y011115D01*
X004374Y011266D02*
X004374Y011566D01*
X004374Y011416D02*
X003924Y011416D01*
X004074Y011266D01*
X004074Y009666D02*
X003999Y009666D01*
X003924Y009591D01*
X003924Y009441D01*
X003999Y009366D01*
X004074Y009666D02*
X004374Y009366D01*
X004374Y009666D01*
X004299Y007666D02*
X004374Y007591D01*
X004374Y007441D01*
X004299Y007366D01*
X004149Y007516D02*
X004149Y007591D01*
X004224Y007666D01*
X004299Y007666D01*
X004149Y007591D02*
X004074Y007666D01*
X003999Y007666D01*
X003924Y007591D01*
X003924Y007441D01*
X003999Y007366D01*
X005702Y006772D02*
X005706Y005244D01*
X005708Y005215D01*
X005713Y005187D01*
X005723Y005160D01*
X005735Y005134D01*
X005751Y005110D01*
X005770Y005088D01*
X005792Y005069D01*
X005816Y005053D01*
X005842Y005041D01*
X005869Y005031D01*
X005897Y005026D01*
X005926Y005024D01*
X006824Y005020D01*
X006824Y005019D02*
X006859Y005022D01*
X006892Y005029D01*
X006925Y005039D01*
X006957Y005053D01*
X006986Y005069D01*
X007014Y005089D01*
X007040Y005112D01*
X007063Y005138D01*
X007083Y005166D01*
X007100Y005195D01*
X007114Y005227D01*
X007124Y005260D01*
X007123Y005260D02*
X007131Y006768D01*
X007132Y006768D02*
X007118Y006790D01*
X007102Y006809D01*
X007082Y006826D01*
X007060Y006840D01*
X007037Y006851D01*
X007012Y006857D01*
X006986Y006860D01*
X006960Y006859D01*
X006935Y006854D01*
X006910Y006845D01*
X006888Y006832D01*
X006867Y006816D01*
X006850Y006797D01*
X006835Y006776D01*
X006824Y006753D01*
X006816Y006728D01*
X006588Y006177D01*
X006297Y006154D02*
X006017Y006811D01*
X006002Y006832D01*
X005985Y006850D01*
X005966Y006865D01*
X005944Y006878D01*
X005921Y006887D01*
X005896Y006893D01*
X005871Y006895D01*
X005846Y006894D01*
X005822Y006889D01*
X005798Y006880D01*
X005776Y006869D01*
X005756Y006854D01*
X005738Y006837D01*
X005723Y006817D01*
X005711Y006795D01*
X005702Y006772D01*
X004374Y005591D02*
X003924Y005591D01*
X004149Y005366D01*
X004149Y005666D01*
X013170Y016297D02*
X013172Y016317D01*
X013177Y016337D01*
X013187Y016355D01*
X013199Y016372D01*
X013214Y016386D01*
X013232Y016396D01*
X013251Y016404D01*
X013271Y016408D01*
X013291Y016408D01*
X013311Y016404D01*
X013330Y016396D01*
X013348Y016386D01*
X013363Y016372D01*
X013375Y016355D01*
X013385Y016337D01*
X013390Y016317D01*
X013392Y016297D01*
X013390Y016277D01*
X013385Y016257D01*
X013375Y016239D01*
X013363Y016222D01*
X013348Y016208D01*
X013330Y016198D01*
X013311Y016190D01*
X013291Y016186D01*
X013271Y016186D01*
X013251Y016190D01*
X013232Y016198D01*
X013214Y016208D01*
X013199Y016222D01*
X013187Y016239D01*
X013177Y016257D01*
X013172Y016277D01*
X013170Y016297D01*
X035024Y014867D02*
X035174Y015017D01*
X035174Y014567D01*
X035024Y014567D02*
X035325Y014567D01*
X035485Y014567D02*
X035785Y014867D01*
X035785Y014942D01*
X035710Y015017D01*
X035560Y015017D01*
X035485Y014942D01*
X035485Y014567D02*
X035785Y014567D01*
X035945Y014717D02*
X036095Y014567D01*
X036245Y014717D01*
X036245Y015017D01*
X035945Y015017D02*
X035945Y014717D01*
D19*
X030082Y012547D03*
X029787Y012547D03*
X023527Y012429D03*
X023232Y012429D03*
X016913Y012862D03*
X016617Y012862D03*
X032415Y005392D03*
X032710Y005392D03*
X035623Y005392D03*
X035919Y005392D03*
X039117Y005392D03*
X039413Y005392D03*
D20*
X039265Y005392D03*
X035771Y005392D03*
X032562Y005392D03*
X029934Y012547D03*
X023379Y012429D03*
X016765Y012862D03*
X008468Y006031D03*
X007021Y012478D03*
X006824Y018089D03*
X006873Y024929D03*
X040879Y020402D03*
D21*
X040259Y021051D02*
X040041Y021051D01*
X040259Y021051D02*
X040259Y023591D01*
X040041Y023591D01*
X039814Y023108D02*
X039814Y021533D01*
X039224Y021533D01*
X039224Y023108D01*
X039814Y023108D01*
X039041Y023591D02*
X038987Y023591D01*
X038814Y023108D02*
X038814Y021533D01*
X038224Y021533D01*
X038224Y023108D01*
X038814Y023108D01*
X037987Y023591D02*
X037769Y023591D01*
X037769Y021051D01*
X038261Y021051D01*
X037779Y021533D01*
X037987Y021051D02*
X038261Y021051D01*
X038987Y021051D02*
X039041Y021051D01*
X039205Y011289D02*
X041786Y011289D01*
X041786Y009889D01*
X039205Y009889D01*
X039205Y011289D01*
X038223Y011269D02*
X035642Y011269D01*
X035642Y009869D01*
X038223Y009869D01*
X038223Y011269D01*
X034935Y011190D02*
X034935Y009790D01*
X032355Y009790D01*
X032355Y011190D01*
X034935Y011190D01*
X010879Y010539D02*
X010879Y007291D01*
X009797Y007291D01*
X008655Y007291D02*
X007572Y007291D01*
X007572Y010539D01*
X008143Y011110D01*
X008655Y011110D01*
X009797Y011110D02*
X010308Y011110D01*
X010879Y010539D01*
X008675Y010638D02*
X008603Y010608D01*
X008534Y010575D01*
X008466Y010539D01*
X008399Y010499D01*
X008335Y010456D01*
X008273Y010410D01*
X008214Y010360D01*
X008157Y010308D01*
X008103Y010253D01*
X008052Y010196D01*
X008003Y010135D01*
X007958Y010073D01*
X007916Y010008D01*
X007877Y009941D01*
X007841Y009873D01*
X007809Y009802D01*
X007781Y009731D01*
X007756Y009657D01*
X007735Y009583D01*
X007718Y009508D01*
X007704Y009432D01*
X007695Y009355D01*
X007689Y009278D01*
X007687Y009201D01*
X007689Y009124D01*
X007695Y009047D01*
X007704Y008970D01*
X007718Y008894D01*
X007735Y008819D01*
X007756Y008745D01*
X007781Y008671D01*
X007809Y008600D01*
X007841Y008529D01*
X007877Y008461D01*
X007916Y008394D01*
X007958Y008329D01*
X008003Y008267D01*
X008052Y008206D01*
X008103Y008149D01*
X008157Y008094D01*
X008214Y008042D01*
X008273Y007992D01*
X008335Y007946D01*
X008399Y007903D01*
X008466Y007863D01*
X008534Y007827D01*
X008603Y007794D01*
X008675Y007764D01*
X009777Y007764D02*
X009849Y007794D01*
X009918Y007827D01*
X009986Y007863D01*
X010053Y007903D01*
X010117Y007946D01*
X010179Y007992D01*
X010238Y008042D01*
X010295Y008094D01*
X010349Y008149D01*
X010400Y008206D01*
X010449Y008267D01*
X010494Y008329D01*
X010536Y008394D01*
X010575Y008461D01*
X010611Y008529D01*
X010643Y008600D01*
X010671Y008671D01*
X010696Y008745D01*
X010717Y008819D01*
X010734Y008894D01*
X010748Y008970D01*
X010757Y009047D01*
X010763Y009124D01*
X010765Y009201D01*
X010763Y009278D01*
X010757Y009355D01*
X010748Y009432D01*
X010734Y009508D01*
X010717Y009583D01*
X010696Y009657D01*
X010671Y009731D01*
X010643Y009802D01*
X010611Y009873D01*
X010575Y009941D01*
X010536Y010008D01*
X010494Y010073D01*
X010449Y010135D01*
X010400Y010196D01*
X010349Y010253D01*
X010295Y010308D01*
X010238Y010360D01*
X010179Y010410D01*
X010117Y010456D01*
X010053Y010499D01*
X009986Y010539D01*
X009918Y010575D01*
X009849Y010608D01*
X009777Y010638D01*
D22*
X007021Y012331D03*
X007021Y012626D03*
X006824Y017941D03*
X006824Y018236D03*
X006873Y024781D03*
X006873Y025077D03*
X008468Y006179D03*
X008468Y005884D03*
X040879Y020254D03*
X040879Y020549D03*
D23*
X037035Y025701D02*
X014035Y025701D01*
X014035Y027701D01*
X036035Y027701D01*
X036035Y026701D01*
X037035Y026701D01*
X037035Y025701D01*
X037035Y026701D02*
X037035Y027701D01*
X036035Y027701D01*
X027405Y024760D02*
X027407Y024782D01*
X027413Y024804D01*
X027422Y024824D01*
X027435Y024842D01*
X027451Y024858D01*
X027469Y024871D01*
X027489Y024880D01*
X027511Y024886D01*
X027533Y024888D01*
X027555Y024886D01*
X027577Y024880D01*
X027597Y024871D01*
X027615Y024858D01*
X027631Y024842D01*
X027644Y024824D01*
X027653Y024804D01*
X027659Y024782D01*
X027661Y024760D01*
X027659Y024738D01*
X027653Y024716D01*
X027644Y024696D01*
X027631Y024678D01*
X027615Y024662D01*
X027597Y024649D01*
X027577Y024640D01*
X027555Y024634D01*
X027533Y024632D01*
X027511Y024634D01*
X027489Y024640D01*
X027469Y024649D01*
X027451Y024662D01*
X027435Y024678D01*
X027422Y024696D01*
X027413Y024716D01*
X027407Y024738D01*
X027405Y024760D01*
X025791Y022311D02*
X025564Y022311D01*
X025791Y022311D02*
X025791Y020539D01*
X025564Y020539D01*
X024354Y020539D02*
X024354Y022311D01*
X024580Y022311D01*
X021041Y029498D02*
X020791Y029498D01*
X020791Y029748D01*
X020291Y029748D01*
X020291Y029498D01*
X019791Y029498D01*
X019791Y029748D01*
X019291Y029748D01*
X019291Y029498D01*
X018791Y029498D01*
X018791Y029748D01*
X018291Y029748D01*
X018291Y029498D01*
X018041Y029498D01*
X018041Y030748D01*
X018541Y030748D01*
X018541Y033898D01*
X018641Y034098D01*
X020061Y034098D01*
X020021Y034098D02*
X020441Y034098D01*
X020541Y033898D01*
X020541Y030748D01*
X020691Y030748D02*
X020691Y033198D01*
X020561Y033338D01*
X018521Y033338D02*
X018391Y033198D01*
X018391Y030748D01*
X017320Y030709D02*
X016970Y030709D01*
X016970Y033159D01*
X016840Y033299D01*
X016820Y033859D02*
X016720Y034059D01*
X016300Y034059D01*
X016340Y034059D02*
X014920Y034059D01*
X014820Y033859D01*
X014820Y030709D01*
X014320Y030709D01*
X014320Y029459D01*
X014570Y029459D01*
X014570Y029709D01*
X015070Y029709D01*
X015070Y029459D01*
X015570Y029459D01*
X015570Y029709D01*
X016070Y029709D01*
X016070Y029459D01*
X016570Y029459D01*
X016570Y029709D01*
X017070Y029709D01*
X017070Y029459D01*
X017320Y029459D01*
X017320Y030709D01*
X016820Y030709D02*
X016820Y033859D01*
X014800Y033299D02*
X014670Y033159D01*
X014670Y030709D01*
X013639Y030689D02*
X013289Y030689D01*
X013289Y033139D01*
X013159Y033279D01*
X013139Y033839D02*
X013039Y034039D01*
X012619Y034039D01*
X012659Y034039D02*
X011239Y034039D01*
X011139Y033839D01*
X011139Y030689D01*
X010639Y030689D01*
X010639Y029439D01*
X010889Y029439D01*
X010889Y029689D01*
X011389Y029689D01*
X011389Y029439D01*
X011889Y029439D01*
X011889Y029689D01*
X012389Y029689D01*
X012389Y029439D01*
X012889Y029439D01*
X012889Y029689D01*
X013389Y029689D01*
X013389Y029439D01*
X013639Y029439D01*
X013639Y030689D01*
X013139Y030689D02*
X013139Y033839D01*
X011119Y033279D02*
X010989Y033139D01*
X010989Y030689D01*
X007159Y030047D02*
X007159Y028276D01*
X006932Y028276D01*
X005722Y028276D02*
X005722Y030047D01*
X005948Y030047D01*
X006932Y030047D02*
X007159Y030047D01*
X007159Y023157D02*
X006932Y023157D01*
X007159Y023157D02*
X007159Y021386D01*
X006932Y021386D01*
X005948Y028275D02*
X005835Y028276D01*
X005722Y028275D01*
X005722Y023157D02*
X005948Y023157D01*
X005722Y023157D02*
X005722Y021386D01*
X005722Y016839D02*
X005948Y016839D01*
X005722Y016839D02*
X005722Y015067D01*
X005722Y021386D02*
X005835Y021387D01*
X005948Y021386D01*
X006932Y016839D02*
X007159Y016839D01*
X007159Y015067D01*
X006932Y015067D01*
X014035Y008656D02*
X014035Y006656D01*
X037035Y006656D01*
X037035Y007656D01*
X036035Y007656D01*
X036035Y008656D01*
X037035Y008656D01*
X037035Y007656D01*
X036035Y008656D02*
X014035Y008656D01*
X013928Y004829D02*
X013428Y004829D01*
X013428Y004579D01*
X012928Y004579D01*
X012928Y004829D01*
X012678Y004829D01*
X012678Y003579D01*
X013028Y003579D01*
X013028Y001129D01*
X013158Y000989D01*
X013178Y000429D02*
X013278Y000229D01*
X014698Y000229D01*
X014658Y000229D02*
X016078Y000229D01*
X016178Y000429D01*
X016178Y003579D01*
X016678Y003579D01*
X016678Y004829D01*
X016428Y004829D01*
X016428Y004579D01*
X015928Y004579D01*
X015928Y004829D01*
X015428Y004829D01*
X015428Y004579D01*
X014928Y004579D01*
X014928Y004829D01*
X014428Y004829D01*
X014428Y004579D01*
X013928Y004579D01*
X013928Y004829D01*
X013178Y003579D02*
X013178Y000429D01*
X016198Y000989D02*
X016328Y001129D01*
X016328Y003579D01*
X016178Y003579D02*
X013028Y003579D01*
X019293Y003500D02*
X019643Y003500D01*
X019643Y001050D01*
X019773Y000910D01*
X019793Y000350D02*
X019893Y000150D01*
X021313Y000150D01*
X021273Y000150D02*
X022693Y000150D01*
X022793Y000350D01*
X022793Y003500D01*
X023293Y003500D01*
X023293Y004750D01*
X023043Y004750D01*
X023043Y004500D01*
X022543Y004500D01*
X022543Y004750D01*
X022043Y004750D01*
X022043Y004500D01*
X021543Y004500D01*
X021543Y004750D01*
X021043Y004750D01*
X021043Y004500D01*
X020543Y004500D01*
X020543Y004750D01*
X020043Y004750D01*
X020043Y004500D01*
X019543Y004500D01*
X019543Y004750D01*
X019293Y004750D01*
X019293Y003500D01*
X019643Y003500D02*
X022793Y003500D01*
X022943Y003500D02*
X022943Y001050D01*
X022813Y000910D01*
X019793Y000350D02*
X019793Y003500D01*
X025710Y003520D02*
X026060Y003520D01*
X026060Y001070D01*
X026190Y000930D01*
X026210Y000370D02*
X026310Y000170D01*
X027730Y000170D01*
X027690Y000170D02*
X029110Y000170D01*
X029210Y000370D01*
X029210Y003520D01*
X029710Y003520D01*
X029710Y004770D01*
X029460Y004770D01*
X029460Y004520D01*
X028960Y004520D01*
X028960Y004770D01*
X028460Y004770D01*
X028460Y004520D01*
X027960Y004520D01*
X027960Y004770D01*
X027460Y004770D01*
X027460Y004520D01*
X026960Y004520D01*
X026960Y004770D01*
X026460Y004770D01*
X026460Y004520D01*
X025960Y004520D01*
X025960Y004770D01*
X025710Y004770D01*
X025710Y003520D01*
X026060Y003520D02*
X029210Y003520D01*
X029360Y003520D02*
X029360Y001070D01*
X029230Y000930D01*
X026210Y000370D02*
X026210Y003520D01*
X032891Y003579D02*
X033241Y003579D01*
X033241Y001129D01*
X033371Y000989D01*
X033391Y000429D02*
X033491Y000229D01*
X033871Y000229D01*
X033911Y000229D01*
X033871Y000229D02*
X034291Y000229D01*
X034391Y000429D01*
X034391Y003579D01*
X034891Y003579D01*
X034891Y004829D01*
X034641Y004829D01*
X034641Y004579D01*
X034141Y004579D01*
X034141Y004829D01*
X033641Y004829D01*
X033641Y004579D01*
X033141Y004579D01*
X033141Y004829D01*
X032891Y004829D01*
X032891Y003579D01*
X033241Y003579D02*
X034391Y003579D01*
X034541Y003579D02*
X034541Y001129D01*
X034411Y000989D01*
X033391Y000429D02*
X033391Y003579D01*
X036080Y003579D02*
X036430Y003579D01*
X036430Y001129D01*
X036560Y000989D01*
X036580Y000429D02*
X036680Y000229D01*
X037060Y000229D01*
X037100Y000229D01*
X037060Y000229D02*
X037480Y000229D01*
X037580Y000429D01*
X037580Y003579D01*
X038080Y003579D01*
X038080Y004829D01*
X037830Y004829D01*
X037830Y004579D01*
X037330Y004579D01*
X037330Y004829D01*
X036830Y004829D01*
X036830Y004579D01*
X036330Y004579D01*
X036330Y004829D01*
X036080Y004829D01*
X036080Y003579D01*
X036430Y003579D02*
X037580Y003579D01*
X037730Y003579D02*
X037730Y001129D01*
X037600Y000989D01*
X036580Y000429D02*
X036580Y003579D01*
X039604Y003539D02*
X039954Y003539D01*
X039954Y001089D01*
X040084Y000949D01*
X040104Y000389D02*
X040204Y000189D01*
X040584Y000189D01*
X040624Y000189D01*
X040584Y000189D02*
X041004Y000189D01*
X041104Y000389D01*
X041104Y003539D01*
X041604Y003539D01*
X041604Y004789D01*
X041354Y004789D01*
X041354Y004539D01*
X040854Y004539D01*
X040854Y004789D01*
X040354Y004789D01*
X040354Y004539D01*
X039854Y004539D01*
X039854Y004789D01*
X039604Y004789D01*
X039604Y003539D01*
X039954Y003539D02*
X041104Y003539D01*
X041254Y003539D02*
X041254Y001089D01*
X041124Y000949D01*
X040104Y000389D02*
X040104Y003539D01*
X024580Y020539D02*
X024467Y020540D01*
X024354Y020539D01*
X021041Y029498D02*
X021041Y030748D01*
X020691Y030748D01*
X005948Y015067D02*
X005835Y015068D01*
X005722Y015067D01*
D24*
X013258Y004151D02*
X013258Y003864D01*
X013042Y004079D01*
X013473Y004079D01*
X016022Y003957D02*
X016453Y003957D01*
X016453Y003814D02*
X016453Y004101D01*
X016166Y003814D02*
X016022Y003957D01*
X019657Y004000D02*
X019872Y003785D01*
X019872Y004072D01*
X020087Y004000D02*
X019657Y004000D01*
X022637Y003879D02*
X023067Y003879D01*
X023067Y004022D02*
X023067Y003735D01*
X022780Y003735D02*
X022637Y003879D01*
X026074Y004020D02*
X026289Y003805D01*
X026289Y004092D01*
X026504Y004020D02*
X026074Y004020D01*
X029054Y003898D02*
X029197Y003755D01*
X029054Y003898D02*
X029484Y003898D01*
X029484Y003755D02*
X029484Y004042D01*
X033255Y004079D02*
X033255Y003936D01*
X033327Y003864D01*
X033255Y004079D02*
X033327Y004151D01*
X033399Y004151D01*
X033685Y003864D01*
X033685Y004151D01*
X034235Y003957D02*
X034665Y003957D01*
X034665Y003814D02*
X034665Y004101D01*
X034379Y003814D02*
X034235Y003957D01*
X036444Y003936D02*
X036516Y003864D01*
X036444Y003936D02*
X036444Y004079D01*
X036516Y004151D01*
X036587Y004151D01*
X036874Y003864D01*
X036874Y004151D01*
X037424Y003957D02*
X037854Y003957D01*
X037854Y003814D02*
X037854Y004101D01*
X037567Y003814D02*
X037424Y003957D01*
X039968Y003896D02*
X040039Y003825D01*
X039968Y003896D02*
X039968Y004040D01*
X040039Y004111D01*
X040111Y004111D01*
X040398Y003825D01*
X040398Y004111D01*
X040948Y003918D02*
X041378Y003918D01*
X041378Y003775D02*
X041378Y004061D01*
X041091Y003775D02*
X040948Y003918D01*
X037650Y007954D02*
X037319Y007954D01*
X037319Y008119D01*
X037374Y008174D01*
X037485Y008174D01*
X037540Y008119D01*
X037540Y007954D01*
X037540Y008322D02*
X037485Y008377D01*
X037485Y008487D01*
X037540Y008542D01*
X037595Y008542D01*
X037650Y008487D01*
X037650Y008377D01*
X037595Y008322D01*
X037540Y008322D01*
X037485Y008377D02*
X037430Y008322D01*
X037374Y008322D01*
X037319Y008377D01*
X037319Y008487D01*
X037374Y008542D01*
X037430Y008542D01*
X037485Y008487D01*
X037540Y026999D02*
X037540Y027164D01*
X037485Y027219D01*
X037374Y027219D01*
X037319Y027164D01*
X037319Y026999D01*
X037650Y026999D01*
X037595Y027367D02*
X037650Y027423D01*
X037650Y027533D01*
X037595Y027588D01*
X037374Y027588D01*
X037319Y027533D01*
X037319Y027423D01*
X037374Y027367D01*
X037430Y027367D01*
X037485Y027423D01*
X037485Y027588D01*
X020676Y030144D02*
X020604Y030072D01*
X020676Y030144D02*
X020676Y030288D01*
X020604Y030359D01*
X020533Y030359D01*
X020461Y030288D01*
X020461Y030216D01*
X020461Y030288D02*
X020389Y030359D01*
X020318Y030359D01*
X020246Y030288D01*
X020246Y030144D01*
X020318Y030072D01*
X018696Y030122D02*
X018696Y030409D01*
X018696Y030266D02*
X018266Y030266D01*
X018409Y030122D01*
X016956Y030105D02*
X016884Y030033D01*
X016956Y030105D02*
X016956Y030248D01*
X016884Y030320D01*
X016812Y030320D01*
X016741Y030248D01*
X016741Y030177D01*
X016741Y030248D02*
X016669Y030320D01*
X016597Y030320D01*
X016525Y030248D01*
X016525Y030105D01*
X016597Y030033D01*
X014976Y030083D02*
X014976Y030370D01*
X014976Y030227D02*
X014545Y030227D01*
X014689Y030083D01*
X013275Y030085D02*
X013203Y030013D01*
X013275Y030085D02*
X013275Y030229D01*
X013203Y030300D01*
X013131Y030300D01*
X013059Y030229D01*
X013059Y030157D01*
X013059Y030229D02*
X012988Y030300D01*
X012916Y030300D01*
X012844Y030229D01*
X012844Y030085D01*
X012916Y030013D01*
X011295Y030063D02*
X011295Y030350D01*
X011295Y030207D02*
X010864Y030207D01*
X011008Y030063D01*
D25*
X034267Y030118D03*
D26*
X033527Y030113D03*
D27*
X038519Y021829D03*
X039519Y021829D03*
D28*
X025663Y021868D03*
X024482Y021868D03*
X007031Y022715D03*
X005850Y022715D03*
X005850Y016396D03*
X007031Y016396D03*
X007031Y029604D03*
X005850Y029604D03*
D29*
X030775Y029802D03*
X030775Y029812D03*
X030775Y029822D03*
X030775Y028492D03*
X030775Y028482D03*
X030775Y028472D03*
X030775Y028462D03*
X030775Y028452D03*
X030775Y028442D03*
X030775Y028432D03*
X030775Y028422D03*
D30*
X029715Y028502D03*
X029715Y028512D03*
X029715Y028522D03*
D31*
X029715Y028772D03*
X029315Y029032D03*
X029195Y028782D03*
X029215Y028772D03*
X029215Y029572D03*
X029715Y029572D03*
X029725Y029562D03*
X030745Y029642D03*
X031845Y029132D03*
X031985Y029642D03*
X030865Y028502D03*
D32*
X031330Y028502D03*
D33*
X030970Y028682D03*
X030870Y028682D03*
X030870Y028672D03*
X030890Y028942D03*
X031840Y028942D03*
X031810Y028602D03*
X031910Y028602D03*
X031770Y028502D03*
X032770Y029782D03*
X029700Y029242D03*
X028780Y029782D03*
D34*
X029095Y029472D03*
X029085Y029462D03*
X029105Y029482D03*
X029115Y029492D03*
X029125Y029502D03*
X029135Y029512D03*
X029065Y029432D03*
X029315Y029022D03*
X029115Y028852D03*
X029105Y028862D03*
X029095Y028872D03*
X029085Y028882D03*
X029075Y028892D03*
X029615Y029022D03*
X029815Y028852D03*
X029825Y028862D03*
X029835Y028872D03*
X029845Y028882D03*
X029855Y028902D03*
X029855Y029442D03*
X029845Y029452D03*
X029835Y029472D03*
X029825Y029482D03*
X029815Y029492D03*
X030695Y029032D03*
X030715Y029022D03*
X030885Y029082D03*
X030885Y029092D03*
X030885Y029102D03*
X030885Y029112D03*
X030885Y029122D03*
X030885Y029132D03*
X030885Y029142D03*
X030885Y029152D03*
X030885Y029162D03*
X030885Y029172D03*
X030885Y029182D03*
X030885Y029192D03*
X030885Y029202D03*
X030885Y029212D03*
X030885Y029222D03*
X030885Y029232D03*
X030885Y029242D03*
X030885Y029252D03*
X030885Y029262D03*
X030705Y029622D03*
X031075Y029622D03*
X031655Y029622D03*
X031715Y029362D03*
X031755Y029192D03*
X032015Y029022D03*
X032035Y029032D03*
X031815Y028722D03*
X031785Y028642D03*
X031905Y028502D03*
X030885Y028512D03*
X032025Y029622D03*
D35*
X032405Y028522D03*
X032405Y028512D03*
X032405Y028502D03*
X030285Y028712D03*
D36*
X031320Y028512D03*
D37*
X030970Y028672D03*
X030860Y028702D03*
X031780Y028512D03*
X031790Y028522D03*
X031800Y028542D03*
X031800Y028552D03*
X031810Y028572D03*
X031810Y028582D03*
X031910Y028632D03*
D38*
X031910Y028512D03*
X031820Y028712D03*
X031650Y029032D03*
X031620Y029052D03*
X031740Y029202D03*
X031950Y029202D03*
X031960Y029212D03*
X031970Y029232D03*
X031960Y029432D03*
X031950Y029442D03*
X032040Y029612D03*
X032060Y029602D03*
X031750Y029442D03*
X031640Y029612D03*
X031090Y029612D03*
X030890Y029522D03*
X030690Y029612D03*
X029900Y029362D03*
X029890Y029382D03*
X029880Y029402D03*
X029870Y029422D03*
X029860Y029432D03*
X029840Y029462D03*
X029240Y029262D03*
X029240Y029082D03*
X029030Y028972D03*
X029040Y028952D03*
X029050Y028932D03*
X029060Y028912D03*
X029070Y028902D03*
X029030Y029372D03*
X029040Y029392D03*
X029050Y029412D03*
X029060Y029422D03*
X029070Y029442D03*
X029080Y029452D03*
X029540Y029082D03*
X029860Y028912D03*
X029870Y028922D03*
X029880Y028932D03*
X029880Y028942D03*
X029850Y028892D03*
X030680Y029042D03*
X031080Y029032D03*
X031110Y029052D03*
X030970Y028732D03*
X030890Y028522D03*
X032050Y029042D03*
D39*
X031330Y028612D03*
X031310Y028522D03*
D40*
X030895Y028532D03*
X030875Y028632D03*
X031095Y029042D03*
X031125Y029062D03*
X031135Y029072D03*
X031635Y029042D03*
X031735Y029212D03*
X031725Y029222D03*
X031715Y029252D03*
X031715Y029352D03*
X031715Y029382D03*
X031725Y029412D03*
X031735Y029432D03*
X031605Y029582D03*
X031615Y029592D03*
X031625Y029602D03*
X031965Y029422D03*
X031975Y029402D03*
X031975Y029392D03*
X031985Y029382D03*
X031985Y029372D03*
X031985Y029362D03*
X031985Y029352D03*
X031985Y029342D03*
X031985Y029332D03*
X031985Y029312D03*
X031985Y029302D03*
X031985Y029292D03*
X031985Y029282D03*
X031985Y029272D03*
X031985Y029262D03*
X031975Y029252D03*
X031975Y029242D03*
X031965Y029222D03*
X031845Y029122D03*
X032065Y029052D03*
X032075Y029062D03*
X032085Y029072D03*
X031825Y028702D03*
X031905Y028532D03*
X031905Y028522D03*
X032075Y029592D03*
X031125Y029582D03*
X031115Y029592D03*
X031105Y029602D03*
X030885Y029542D03*
X030885Y029532D03*
X030885Y029512D03*
X030885Y029502D03*
X030675Y029602D03*
X030655Y029592D03*
X029915Y029332D03*
X029915Y029322D03*
X029915Y029312D03*
X029925Y029292D03*
X029925Y029282D03*
X029935Y029232D03*
X029935Y029222D03*
X029935Y029212D03*
X029935Y029202D03*
X029935Y029142D03*
X029935Y029132D03*
X029935Y029122D03*
X029935Y029112D03*
X029925Y029062D03*
X029925Y029052D03*
X029925Y029042D03*
X029915Y029022D03*
X029915Y029012D03*
X029905Y028992D03*
X029905Y028982D03*
X029895Y028972D03*
X029895Y028962D03*
X029885Y028952D03*
X029705Y029262D03*
X029545Y029262D03*
X029535Y029252D03*
X029525Y029232D03*
X029515Y029202D03*
X029515Y029192D03*
X029515Y029182D03*
X029515Y029162D03*
X029515Y029152D03*
X029515Y029142D03*
X029525Y029112D03*
X029525Y029102D03*
X029535Y029092D03*
X029225Y029102D03*
X029215Y029122D03*
X029215Y029132D03*
X029215Y029142D03*
X029215Y029202D03*
X029215Y029212D03*
X029225Y029242D03*
X029235Y029252D03*
X029025Y029352D03*
X029025Y029362D03*
X029015Y029342D03*
X029015Y029332D03*
X029005Y029322D03*
X029005Y029312D03*
X029005Y029302D03*
X028995Y029282D03*
X028995Y029272D03*
X028995Y029262D03*
X028985Y029192D03*
X028985Y029182D03*
X028985Y029172D03*
X028985Y029162D03*
X028985Y029152D03*
X028985Y029142D03*
X028995Y029072D03*
X028995Y029062D03*
X029005Y029042D03*
X029005Y029032D03*
X029005Y029022D03*
X029015Y029012D03*
X029015Y029002D03*
X029015Y028992D03*
X029025Y028982D03*
X029035Y028962D03*
X029045Y028942D03*
X029055Y028922D03*
X029035Y029382D03*
X029045Y029402D03*
X029875Y029412D03*
X029885Y029392D03*
X029895Y029372D03*
X029905Y029352D03*
X029905Y029342D03*
X030645Y029072D03*
X030655Y029062D03*
X030665Y029052D03*
D41*
X031300Y028582D03*
X031300Y028572D03*
X031300Y028562D03*
X029060Y028532D03*
D42*
X030115Y028532D03*
D43*
X031305Y028532D03*
X031305Y028542D03*
X031305Y028552D03*
X031325Y028622D03*
D44*
X030975Y028662D03*
X031795Y028532D03*
X031805Y028562D03*
X031905Y028642D03*
X031715Y029312D03*
X029695Y029232D03*
X029395Y029112D03*
D45*
X030280Y028702D03*
X032400Y028542D03*
X032400Y028532D03*
D46*
X031355Y028712D03*
X031345Y028702D03*
X031335Y028692D03*
X031335Y028682D03*
X029465Y028732D03*
X029035Y028542D03*
X029465Y029612D03*
D47*
X030140Y028542D03*
D48*
X029910Y029002D03*
X029920Y029032D03*
X029930Y029072D03*
X029930Y029082D03*
X029930Y029092D03*
X029930Y029102D03*
X029940Y029152D03*
X029940Y029162D03*
X029940Y029172D03*
X029940Y029182D03*
X029940Y029192D03*
X029930Y029242D03*
X029930Y029252D03*
X029930Y029262D03*
X029930Y029272D03*
X029920Y029302D03*
X029620Y029322D03*
X029530Y029242D03*
X029520Y029222D03*
X029520Y029212D03*
X029510Y029172D03*
X029520Y029132D03*
X029520Y029122D03*
X029400Y029262D03*
X029320Y029322D03*
X029220Y029232D03*
X029220Y029222D03*
X029210Y029192D03*
X029210Y029182D03*
X029210Y029172D03*
X029210Y029162D03*
X029210Y029152D03*
X029220Y029112D03*
X029230Y029092D03*
X029000Y029052D03*
X028990Y029082D03*
X028990Y029092D03*
X028990Y029102D03*
X028990Y029112D03*
X028990Y029122D03*
X028990Y029132D03*
X028990Y029202D03*
X028990Y029212D03*
X028990Y029222D03*
X028990Y029232D03*
X028990Y029242D03*
X028990Y029252D03*
X029000Y029292D03*
X029710Y029082D03*
X030600Y029122D03*
X030630Y029082D03*
X030820Y028732D03*
X030880Y028622D03*
X030890Y028612D03*
X030890Y028602D03*
X030900Y028592D03*
X030900Y028582D03*
X030900Y028572D03*
X030900Y028562D03*
X030900Y028552D03*
X030900Y028542D03*
X030760Y028562D03*
X030760Y028572D03*
X030760Y028582D03*
X030970Y028722D03*
X031140Y029082D03*
X031150Y029092D03*
X031160Y029102D03*
X031170Y029112D03*
X031560Y029112D03*
X031570Y029102D03*
X031580Y029092D03*
X031590Y029082D03*
X031600Y029072D03*
X031610Y029062D03*
X031720Y029232D03*
X031720Y029242D03*
X031720Y029392D03*
X031720Y029402D03*
X031730Y029422D03*
X031580Y029562D03*
X031590Y029572D03*
X031550Y029522D03*
X031180Y029522D03*
X031160Y029552D03*
X031150Y029562D03*
X031140Y029572D03*
X030650Y029582D03*
X030640Y029572D03*
X030630Y029562D03*
X030620Y029552D03*
X030610Y029542D03*
X031700Y028572D03*
X031700Y028562D03*
X031800Y028632D03*
X031820Y028692D03*
X031910Y028542D03*
X032100Y029082D03*
X032110Y029092D03*
X031990Y029322D03*
X031970Y029412D03*
X032110Y029552D03*
X032120Y029542D03*
X032100Y029562D03*
X032090Y029572D03*
X032080Y029582D03*
D49*
X029460Y029622D03*
X029460Y028722D03*
X029020Y028552D03*
D50*
X030155Y028552D03*
D51*
X029475Y028652D03*
X029405Y029082D03*
X029705Y029252D03*
X030555Y029202D03*
X030565Y029182D03*
X030575Y029162D03*
X030585Y029142D03*
X030595Y029132D03*
X030605Y029112D03*
X030615Y029102D03*
X030625Y029092D03*
X030545Y029412D03*
X030555Y029442D03*
X030565Y029472D03*
X030575Y029482D03*
X030575Y029492D03*
X030585Y029502D03*
X030585Y029512D03*
X030595Y029522D03*
X030605Y029532D03*
X030885Y029552D03*
X030885Y029492D03*
X031165Y029542D03*
X031175Y029532D03*
X031185Y029512D03*
X031195Y029502D03*
X031205Y029482D03*
X031215Y029462D03*
X031225Y029432D03*
X031235Y029252D03*
X031215Y029182D03*
X031205Y029172D03*
X031205Y029162D03*
X031195Y029152D03*
X031195Y029142D03*
X031185Y029132D03*
X031175Y029122D03*
X031495Y029252D03*
X031515Y029192D03*
X031525Y029172D03*
X031535Y029152D03*
X031545Y029132D03*
X031555Y029122D03*
X031715Y029342D03*
X031505Y029432D03*
X031515Y029462D03*
X031525Y029482D03*
X031535Y029502D03*
X031545Y029512D03*
X031555Y029532D03*
X031565Y029542D03*
X031575Y029552D03*
X032125Y029532D03*
X032135Y029522D03*
X032145Y029512D03*
X032145Y029502D03*
X032155Y029492D03*
X032165Y029472D03*
X032185Y029412D03*
X032175Y029202D03*
X032165Y029182D03*
X032165Y029172D03*
X032155Y029162D03*
X032145Y029142D03*
X032135Y029132D03*
X032135Y029122D03*
X032125Y029112D03*
X032115Y029102D03*
X031825Y028682D03*
X031825Y028672D03*
X031805Y028622D03*
X030975Y028712D03*
X030875Y028642D03*
X030755Y028652D03*
X030755Y028662D03*
X030755Y028672D03*
X030755Y028592D03*
X030755Y028552D03*
D52*
X030750Y028682D03*
X030970Y028702D03*
X031220Y029192D03*
X031220Y029202D03*
X031220Y029212D03*
X031230Y029222D03*
X031230Y029232D03*
X031230Y029242D03*
X031240Y029262D03*
X031240Y029272D03*
X031240Y029282D03*
X031240Y029292D03*
X031240Y029302D03*
X031240Y029312D03*
X031240Y029322D03*
X031240Y029332D03*
X031240Y029342D03*
X031240Y029352D03*
X031240Y029362D03*
X031240Y029372D03*
X031240Y029382D03*
X031240Y029392D03*
X031230Y029402D03*
X031230Y029412D03*
X031230Y029422D03*
X031220Y029442D03*
X031220Y029452D03*
X031210Y029472D03*
X031200Y029492D03*
X031490Y029392D03*
X031490Y029382D03*
X031490Y029372D03*
X031490Y029362D03*
X031490Y029352D03*
X031490Y029342D03*
X031490Y029332D03*
X031490Y029322D03*
X031490Y029312D03*
X031490Y029302D03*
X031490Y029292D03*
X031490Y029282D03*
X031490Y029272D03*
X031490Y029262D03*
X031500Y029242D03*
X031500Y029232D03*
X031500Y029222D03*
X031510Y029212D03*
X031510Y029202D03*
X031520Y029182D03*
X031530Y029162D03*
X031540Y029142D03*
X031500Y029402D03*
X031500Y029412D03*
X031500Y029422D03*
X031510Y029442D03*
X031510Y029452D03*
X031520Y029472D03*
X031530Y029492D03*
X032160Y029482D03*
X032170Y029462D03*
X032170Y029452D03*
X032180Y029442D03*
X032180Y029432D03*
X032180Y029422D03*
X032190Y029402D03*
X032190Y029392D03*
X032190Y029382D03*
X032190Y029372D03*
X032190Y029362D03*
X032190Y029352D03*
X032190Y029342D03*
X032200Y029332D03*
X032200Y029322D03*
X032190Y029312D03*
X032190Y029302D03*
X032190Y029292D03*
X032190Y029282D03*
X032190Y029272D03*
X032190Y029262D03*
X032190Y029252D03*
X032190Y029242D03*
X032180Y029232D03*
X032180Y029222D03*
X032180Y029212D03*
X032170Y029192D03*
X032150Y029152D03*
X031820Y028662D03*
X031700Y028662D03*
X031700Y028672D03*
X031690Y028582D03*
X031700Y028552D03*
X030580Y029152D03*
X030570Y029172D03*
X030560Y029192D03*
X030550Y029212D03*
X030550Y029222D03*
X030550Y029232D03*
X030540Y029242D03*
X030540Y029252D03*
X030540Y029262D03*
X030540Y029272D03*
X030540Y029282D03*
X030540Y029292D03*
X030540Y029302D03*
X030530Y029312D03*
X030530Y029322D03*
X030530Y029332D03*
X030530Y029342D03*
X030540Y029352D03*
X030540Y029362D03*
X030540Y029372D03*
X030540Y029382D03*
X030540Y029392D03*
X030540Y029402D03*
X030550Y029422D03*
X030550Y029432D03*
X030560Y029452D03*
X030560Y029462D03*
X029710Y029092D03*
X029410Y029092D03*
X029400Y029252D03*
D53*
X030275Y028692D03*
X032395Y028572D03*
X032395Y028562D03*
X032395Y028552D03*
D54*
X029465Y028712D03*
X029005Y028562D03*
D55*
X030170Y028562D03*
D56*
X028990Y028572D03*
D57*
X030185Y028572D03*
D58*
X028980Y028582D03*
X029460Y029642D03*
D59*
X030195Y028582D03*
D60*
X030270Y028682D03*
X032390Y028602D03*
X032390Y028592D03*
X032390Y028582D03*
D61*
X028970Y028592D03*
D62*
X030205Y028592D03*
D63*
X031350Y028592D03*
D64*
X031805Y028592D03*
X031905Y028612D03*
X031905Y028622D03*
X031715Y029322D03*
X030855Y028712D03*
X030845Y028722D03*
X030865Y028692D03*
X029705Y029102D03*
X029405Y029102D03*
X029395Y029242D03*
X028775Y029242D03*
X028775Y029232D03*
X028775Y029222D03*
X028775Y029212D03*
X028775Y029202D03*
X028775Y029192D03*
X028775Y029182D03*
X028775Y029172D03*
X028775Y029162D03*
X028775Y029152D03*
X028775Y029142D03*
X028775Y029132D03*
X028775Y029122D03*
X028775Y029112D03*
X028775Y029102D03*
X028775Y029092D03*
X028775Y029082D03*
X028775Y029072D03*
X028775Y029062D03*
X028775Y029052D03*
X028775Y029042D03*
X028775Y029032D03*
X028775Y029022D03*
X028775Y029012D03*
X028775Y029002D03*
X028775Y028992D03*
X028775Y028982D03*
X028775Y028972D03*
X028775Y028962D03*
X028775Y028952D03*
X028775Y028942D03*
X028775Y028932D03*
X028775Y028922D03*
X028775Y028912D03*
X028775Y028902D03*
X028775Y028892D03*
X028775Y028882D03*
X028775Y028872D03*
X028775Y028862D03*
X028775Y028852D03*
X028775Y028842D03*
X028775Y029252D03*
X028775Y029262D03*
X028775Y029272D03*
X028775Y029282D03*
X028775Y029292D03*
X028775Y029302D03*
X028775Y029312D03*
X028775Y029322D03*
X028775Y029332D03*
X028775Y029342D03*
X028775Y029352D03*
X028775Y029362D03*
X028775Y029372D03*
X028775Y029382D03*
X028775Y029392D03*
X028775Y029402D03*
X028775Y029412D03*
X028775Y029422D03*
X028775Y029432D03*
X028775Y029442D03*
X028775Y029452D03*
X028775Y029462D03*
X028775Y029472D03*
X028775Y029482D03*
X028775Y029492D03*
X028775Y029502D03*
X028775Y029512D03*
X028775Y029522D03*
X028775Y029532D03*
X028775Y029542D03*
X028775Y029552D03*
X028775Y029562D03*
X028775Y029572D03*
X028775Y029582D03*
X028775Y029592D03*
X028775Y029602D03*
X028775Y029612D03*
X028775Y029622D03*
X028775Y029632D03*
X028775Y029642D03*
X028775Y029652D03*
X028775Y029662D03*
X028775Y029672D03*
X028775Y029682D03*
X028775Y029692D03*
X028775Y029702D03*
X028775Y029712D03*
X028775Y029722D03*
X028775Y029732D03*
X028775Y029742D03*
X028775Y029752D03*
X028775Y029762D03*
X028775Y029772D03*
X032775Y029772D03*
X032775Y029762D03*
X032775Y029752D03*
X032775Y029742D03*
X032775Y029732D03*
X032775Y029722D03*
X032775Y029712D03*
X032775Y029702D03*
X032775Y029692D03*
X032775Y029682D03*
X032775Y029672D03*
X032775Y029662D03*
X032775Y029652D03*
X032775Y029642D03*
X032775Y029632D03*
X032775Y029622D03*
X032775Y029612D03*
X032775Y029602D03*
X032775Y029592D03*
X032775Y029582D03*
X032775Y029572D03*
X032775Y029562D03*
X032775Y029552D03*
X032775Y029542D03*
X032775Y029532D03*
X032775Y029522D03*
X032775Y029512D03*
X032775Y029502D03*
X032775Y029492D03*
X032775Y029482D03*
X032775Y029472D03*
X032775Y029462D03*
X032775Y029452D03*
X032775Y029442D03*
X032775Y029432D03*
X032775Y029422D03*
X032775Y029412D03*
X032775Y029402D03*
X032775Y029392D03*
X032775Y029382D03*
X032775Y029372D03*
X032775Y029362D03*
X032775Y029352D03*
X032775Y029342D03*
X032775Y029332D03*
X032775Y029322D03*
X032775Y029312D03*
X032775Y029302D03*
X032775Y029292D03*
X032775Y029282D03*
X032775Y029272D03*
X032775Y029262D03*
X032775Y029252D03*
X032775Y029242D03*
X032775Y029232D03*
X032775Y029222D03*
X032775Y029212D03*
X032775Y029202D03*
X032775Y029192D03*
X032775Y029182D03*
X032775Y029172D03*
X032775Y029162D03*
X032775Y029152D03*
X032775Y029142D03*
X032775Y029132D03*
X032775Y029122D03*
X032775Y029112D03*
X032775Y029102D03*
X032775Y029092D03*
X032775Y029082D03*
X032775Y029072D03*
X032775Y029062D03*
X032775Y029052D03*
X032775Y029042D03*
X032775Y029032D03*
X032775Y029022D03*
X032775Y029012D03*
X032775Y029002D03*
X032775Y028992D03*
X032775Y028982D03*
X032775Y028972D03*
X032775Y028962D03*
X032775Y028952D03*
X032775Y028942D03*
X032775Y028932D03*
X032775Y028922D03*
X032775Y028912D03*
X032775Y028902D03*
X032775Y028892D03*
X032775Y028882D03*
X032775Y028872D03*
X032775Y028862D03*
X032775Y028852D03*
X032775Y028842D03*
D65*
X031840Y029652D03*
X030890Y029652D03*
X029460Y029652D03*
X028960Y028602D03*
D66*
X030215Y028602D03*
D67*
X031335Y028602D03*
D68*
X028955Y028612D03*
D69*
X030225Y028612D03*
D70*
X030875Y028652D03*
X030875Y028662D03*
X030975Y028692D03*
X031695Y028682D03*
X031805Y028612D03*
X031715Y029332D03*
X031835Y029522D03*
X030885Y029482D03*
X030885Y029562D03*
X032765Y029792D03*
X028785Y029792D03*
D71*
X030265Y028672D03*
X032385Y028622D03*
X032385Y028612D03*
D72*
X028945Y028622D03*
D73*
X030230Y028622D03*
D74*
X029460Y028682D03*
X028940Y028632D03*
X030890Y029662D03*
X031840Y029662D03*
D75*
X030240Y028632D03*
D76*
X031325Y028632D03*
D77*
X032380Y028632D03*
X032380Y028642D03*
X032380Y028652D03*
X030260Y028662D03*
D78*
X030890Y028982D03*
X031840Y028982D03*
X029460Y029662D03*
X028930Y028642D03*
D79*
X030245Y028642D03*
X032365Y028712D03*
X032365Y028722D03*
X032365Y028732D03*
D80*
X031370Y028732D03*
X031320Y028642D03*
D81*
X028925Y028652D03*
D82*
X030250Y028652D03*
X032370Y028692D03*
X032370Y028702D03*
D83*
X031325Y028652D03*
D84*
X031770Y028652D03*
X029620Y029032D03*
X029230Y028762D03*
D85*
X028920Y028662D03*
X030890Y029672D03*
X031840Y029672D03*
D86*
X031840Y029692D03*
X031840Y029152D03*
X029620Y029062D03*
X029620Y029282D03*
X029320Y029282D03*
X029280Y028742D03*
X029460Y028662D03*
X028870Y028762D03*
D87*
X031330Y028672D03*
X031330Y028662D03*
X031360Y028722D03*
D88*
X032375Y028682D03*
X032375Y028672D03*
X032375Y028662D03*
D89*
X028915Y028672D03*
D90*
X029460Y028672D03*
X030890Y028972D03*
X031840Y028972D03*
D91*
X028905Y028682D03*
D92*
X028900Y028692D03*
X029460Y029672D03*
X030890Y029682D03*
X031840Y029682D03*
X031840Y029182D03*
D93*
X029465Y028692D03*
D94*
X028895Y028702D03*
X031845Y029172D03*
X031845Y029462D03*
D95*
X029465Y028702D03*
D96*
X028890Y028712D03*
D97*
X028885Y028722D03*
X028885Y028732D03*
X029295Y029602D03*
X029625Y029602D03*
X030885Y028962D03*
X031845Y028962D03*
X031845Y029472D03*
D98*
X030290Y028722D03*
D99*
X030295Y028732D03*
D100*
X031040Y029012D03*
X031030Y029642D03*
X030890Y029702D03*
X031700Y029642D03*
X031840Y029702D03*
X031770Y029452D03*
X031690Y029012D03*
X031810Y028732D03*
X029760Y028802D03*
X029750Y028792D03*
X029730Y028782D03*
X029620Y029312D03*
X029740Y029552D03*
X029320Y029312D03*
X029170Y029542D03*
X029180Y029552D03*
X029200Y029562D03*
X029180Y028792D03*
D101*
X028880Y028742D03*
X029320Y029072D03*
X029320Y029272D03*
X029620Y029072D03*
X031840Y029162D03*
D102*
X031845Y029492D03*
X030885Y029692D03*
X029645Y028742D03*
X029315Y029052D03*
X028865Y028782D03*
X028865Y028772D03*
D103*
X031355Y028742D03*
D104*
X031845Y029482D03*
X029625Y029272D03*
X029315Y029062D03*
X028875Y028752D03*
D105*
X028855Y028802D03*
X028855Y028812D03*
X029255Y028752D03*
X029675Y028752D03*
X029255Y029592D03*
X030775Y029002D03*
X030885Y029422D03*
X030885Y029432D03*
X031735Y029002D03*
X031845Y029142D03*
X031955Y029002D03*
D106*
X031360Y028752D03*
D107*
X029695Y028762D03*
X029625Y029302D03*
X029315Y029302D03*
X029235Y029582D03*
X029465Y029682D03*
X028845Y028832D03*
D108*
X031365Y028762D03*
D109*
X031370Y028772D03*
D110*
X031375Y028782D03*
X031375Y028792D03*
D111*
X031000Y029002D03*
X030890Y029272D03*
X030890Y029282D03*
X030890Y029292D03*
X030890Y029302D03*
X030890Y029312D03*
X030890Y029322D03*
X030890Y029332D03*
X030890Y029342D03*
X030890Y029352D03*
X030890Y029362D03*
X030890Y029372D03*
X030890Y029382D03*
X030890Y029392D03*
X030890Y029402D03*
X030890Y029412D03*
X029670Y029592D03*
X029620Y029292D03*
X029620Y029052D03*
X029320Y029292D03*
X028860Y028792D03*
D112*
X029155Y028812D03*
X029165Y028802D03*
X029775Y028812D03*
X029785Y028822D03*
X029795Y028832D03*
X029755Y029542D03*
X029155Y029532D03*
X029145Y029522D03*
X030725Y029632D03*
X031055Y029632D03*
X031675Y029632D03*
X031845Y029512D03*
X031925Y029452D03*
X032005Y029632D03*
X031715Y029372D03*
X031995Y029012D03*
X030735Y029012D03*
D113*
X031380Y028812D03*
X031380Y028802D03*
D114*
X031840Y028952D03*
X031840Y029502D03*
X030890Y028952D03*
X029620Y029042D03*
X029320Y029042D03*
X028850Y028822D03*
X029690Y029582D03*
D115*
X029770Y029532D03*
X029780Y029522D03*
X029790Y029512D03*
X029800Y029502D03*
X029810Y028842D03*
X029140Y028822D03*
X029130Y028832D03*
X029120Y028842D03*
X031060Y029022D03*
X031670Y029022D03*
X031930Y029192D03*
D116*
X031385Y028822D03*
D117*
X031390Y028832D03*
D118*
X031840Y028992D03*
X030890Y028992D03*
D119*
X029460Y029632D03*
D120*
X028397Y024990D02*
X028343Y024990D01*
X028344Y024991D02*
X028342Y025006D01*
X028336Y025020D01*
X028328Y025033D01*
X028318Y025043D01*
X028305Y025051D01*
X028291Y025057D01*
X028276Y025059D01*
X028275Y025112D01*
X028276Y025113D01*
X028297Y025111D01*
X028317Y025105D01*
X028336Y025096D01*
X028354Y025084D01*
X028369Y025069D01*
X028381Y025051D01*
X028390Y025032D01*
X028396Y025012D01*
X028398Y024991D01*
X028393Y024991D01*
X028391Y025011D01*
X028385Y025031D01*
X028376Y025049D01*
X028365Y025065D01*
X028350Y025080D01*
X028334Y025091D01*
X028316Y025100D01*
X028296Y025106D01*
X028276Y025108D01*
X028276Y025103D01*
X028295Y025101D01*
X028314Y025095D01*
X028331Y025087D01*
X028347Y025076D01*
X028361Y025062D01*
X028372Y025046D01*
X028380Y025029D01*
X028386Y025010D01*
X028388Y024991D01*
X028383Y024991D01*
X028381Y025009D01*
X028376Y025027D01*
X028368Y025044D01*
X028357Y025059D01*
X028344Y025072D01*
X028329Y025083D01*
X028312Y025091D01*
X028294Y025096D01*
X028276Y025098D01*
X028276Y025093D01*
X028296Y025091D01*
X028315Y025084D01*
X028332Y025075D01*
X028347Y025062D01*
X028360Y025047D01*
X028369Y025030D01*
X028376Y025011D01*
X028378Y024991D01*
X028373Y024991D01*
X028371Y025010D01*
X028365Y025028D01*
X028356Y025044D01*
X028344Y025059D01*
X028329Y025071D01*
X028313Y025080D01*
X028295Y025086D01*
X028276Y025088D01*
X028276Y025083D01*
X028294Y025081D01*
X028311Y025075D01*
X028326Y025067D01*
X028340Y025055D01*
X028352Y025041D01*
X028360Y025026D01*
X028366Y025009D01*
X028368Y024991D01*
X028363Y024991D01*
X028361Y025008D01*
X028356Y025024D01*
X028347Y025039D01*
X028337Y025052D01*
X028324Y025062D01*
X028309Y025071D01*
X028293Y025076D01*
X028276Y025078D01*
X028276Y025073D01*
X028292Y025071D01*
X028307Y025066D01*
X028321Y025058D01*
X028333Y025048D01*
X028343Y025036D01*
X028351Y025022D01*
X028356Y025007D01*
X028358Y024991D01*
X028353Y024991D01*
X028350Y025008D01*
X028345Y025024D01*
X028335Y025038D01*
X028323Y025050D01*
X028309Y025060D01*
X028293Y025065D01*
X028276Y025068D01*
X028276Y025063D01*
X028292Y025061D01*
X028307Y025055D01*
X028320Y025046D01*
X028331Y025035D01*
X028340Y025022D01*
X028346Y025007D01*
X028348Y024991D01*
X027298Y025112D02*
X027298Y025058D01*
X027297Y025059D02*
X027282Y025057D01*
X027268Y025051D01*
X027255Y025043D01*
X027245Y025033D01*
X027237Y025020D01*
X027231Y025006D01*
X027229Y024991D01*
X027176Y024990D01*
X027175Y024991D01*
X027177Y025012D01*
X027183Y025032D01*
X027192Y025051D01*
X027204Y025069D01*
X027219Y025084D01*
X027237Y025096D01*
X027256Y025105D01*
X027276Y025111D01*
X027297Y025113D01*
X027297Y025108D01*
X027277Y025106D01*
X027257Y025100D01*
X027239Y025091D01*
X027223Y025080D01*
X027208Y025065D01*
X027197Y025049D01*
X027188Y025031D01*
X027182Y025011D01*
X027180Y024991D01*
X027185Y024991D01*
X027187Y025010D01*
X027193Y025029D01*
X027201Y025046D01*
X027212Y025062D01*
X027226Y025076D01*
X027242Y025087D01*
X027259Y025095D01*
X027278Y025101D01*
X027297Y025103D01*
X027297Y025098D01*
X027279Y025096D01*
X027261Y025091D01*
X027244Y025083D01*
X027229Y025072D01*
X027216Y025059D01*
X027205Y025044D01*
X027197Y025027D01*
X027192Y025009D01*
X027190Y024991D01*
X027195Y024991D01*
X027197Y025011D01*
X027204Y025030D01*
X027213Y025047D01*
X027226Y025062D01*
X027241Y025075D01*
X027258Y025084D01*
X027277Y025091D01*
X027297Y025093D01*
X027297Y025088D01*
X027278Y025086D01*
X027260Y025080D01*
X027244Y025071D01*
X027229Y025059D01*
X027217Y025044D01*
X027208Y025028D01*
X027202Y025010D01*
X027200Y024991D01*
X027205Y024991D01*
X027207Y025009D01*
X027213Y025026D01*
X027221Y025041D01*
X027233Y025055D01*
X027247Y025067D01*
X027262Y025075D01*
X027279Y025081D01*
X027297Y025083D01*
X027297Y025078D01*
X027280Y025076D01*
X027264Y025071D01*
X027249Y025062D01*
X027236Y025052D01*
X027226Y025039D01*
X027217Y025024D01*
X027212Y025008D01*
X027210Y024991D01*
X027215Y024991D01*
X027217Y025007D01*
X027222Y025022D01*
X027230Y025036D01*
X027240Y025048D01*
X027252Y025058D01*
X027266Y025066D01*
X027281Y025071D01*
X027297Y025073D01*
X027297Y025068D01*
X027280Y025065D01*
X027264Y025060D01*
X027250Y025050D01*
X027238Y025038D01*
X027228Y025024D01*
X027223Y025008D01*
X027220Y024991D01*
X027225Y024991D01*
X027227Y025007D01*
X027233Y025022D01*
X027242Y025035D01*
X027253Y025046D01*
X027266Y025055D01*
X027281Y025061D01*
X027297Y025063D01*
M02*
