G75*
%MOIN*%
%OFA0B0*%
%FSLAX24Y24*%
%IPPOS*%
%LPD*%
%AMOC8*
5,1,8,0,0,1.08239X$1,22.5*
%
%ADD10C,0.0000*%
D10*
X002552Y003472D02*
X009875Y003472D01*
X009876Y003473D02*
X009910Y003476D01*
X009944Y003483D01*
X009978Y003494D01*
X010010Y003507D01*
X010040Y003524D01*
X010069Y003543D01*
X010096Y003565D01*
X010121Y003590D01*
X010142Y003617D01*
X010162Y003646D01*
X010178Y003677D01*
X010191Y003710D01*
X010201Y003743D01*
X010207Y003777D01*
X010211Y003812D01*
X010210Y003847D01*
X010210Y003846D02*
X010210Y004654D01*
X010486Y004654D01*
X010486Y003886D01*
X010485Y003886D02*
X010484Y003848D01*
X010487Y003810D01*
X010493Y003773D01*
X010503Y003736D01*
X010517Y003701D01*
X010533Y003667D01*
X010554Y003635D01*
X010577Y003605D01*
X010603Y003578D01*
X010631Y003553D01*
X010662Y003531D01*
X010695Y003513D01*
X010729Y003497D01*
X010765Y003485D01*
X010802Y003477D01*
X010839Y003472D01*
X010840Y003472D02*
X031056Y003472D01*
X031057Y003473D02*
X031086Y003476D01*
X031115Y003483D01*
X031143Y003493D01*
X031170Y003506D01*
X031195Y003522D01*
X031217Y003542D01*
X031238Y003563D01*
X031255Y003587D01*
X031269Y003613D01*
X031280Y003641D01*
X031288Y003670D01*
X031292Y003699D01*
X031293Y003729D01*
X031293Y003728D02*
X031293Y004555D01*
X031608Y004555D01*
X031608Y003728D01*
X031608Y003729D02*
X031609Y003699D01*
X031613Y003670D01*
X031621Y003641D01*
X031632Y003613D01*
X031646Y003587D01*
X031663Y003563D01*
X031684Y003542D01*
X031706Y003522D01*
X031731Y003506D01*
X031758Y003493D01*
X031786Y003483D01*
X031815Y003476D01*
X031844Y003473D01*
X031844Y003472D02*
X041430Y003472D01*
X041471Y003471D01*
X041511Y003474D01*
X041551Y003480D01*
X041591Y003490D01*
X041629Y003503D01*
X041666Y003519D01*
X041701Y003539D01*
X041735Y003561D01*
X041767Y003587D01*
X041796Y003615D01*
X041822Y003645D01*
X041846Y003678D01*
X041867Y003713D01*
X041885Y003749D01*
X041900Y003787D01*
X041911Y003825D01*
X041919Y003865D01*
X041923Y003905D01*
X041923Y003906D02*
X041923Y012823D01*
X036486Y012823D01*
X036486Y019909D01*
X041923Y019909D01*
X041923Y030441D01*
X041923Y030440D02*
X041918Y030480D01*
X041910Y030519D01*
X041898Y030558D01*
X041883Y030595D01*
X041865Y030631D01*
X041844Y030665D01*
X041820Y030697D01*
X041793Y030727D01*
X041764Y030754D01*
X041733Y030779D01*
X041699Y030801D01*
X041664Y030820D01*
X041627Y030835D01*
X041589Y030848D01*
X041550Y030857D01*
X041511Y030863D01*
X041471Y030865D01*
X041431Y030864D01*
X041430Y030864D02*
X026125Y030864D01*
X026125Y030854D02*
X022434Y030854D01*
X022435Y030854D02*
X022407Y030847D01*
X022379Y030837D01*
X022354Y030824D01*
X022330Y030808D01*
X022308Y030790D01*
X022288Y030768D01*
X022271Y030745D01*
X022258Y030720D01*
X022247Y030693D01*
X022240Y030665D01*
X022236Y030636D01*
X022235Y030607D01*
X022238Y030579D01*
X022237Y030579D02*
X022237Y029654D01*
X021982Y029654D01*
X021982Y030579D01*
X021981Y030579D02*
X021984Y030607D01*
X021983Y030636D01*
X021979Y030665D01*
X021972Y030693D01*
X021961Y030720D01*
X021948Y030745D01*
X021931Y030768D01*
X021911Y030790D01*
X021889Y030808D01*
X021865Y030824D01*
X021840Y030837D01*
X021812Y030847D01*
X021784Y030854D01*
X021785Y030854D02*
X010958Y030854D01*
X010917Y030852D01*
X010876Y030847D01*
X010836Y030838D01*
X010797Y030826D01*
X010759Y030810D01*
X010722Y030791D01*
X010687Y030769D01*
X010655Y030744D01*
X010624Y030716D01*
X010596Y030685D01*
X010571Y030653D01*
X010549Y030618D01*
X010530Y030581D01*
X010514Y030543D01*
X010502Y030504D01*
X010493Y030464D01*
X010488Y030423D01*
X010486Y030382D01*
X010486Y029437D01*
X010171Y029437D01*
X010171Y030382D01*
X010174Y030421D01*
X010173Y030460D01*
X010169Y030498D01*
X010162Y030537D01*
X010151Y030574D01*
X010136Y030610D01*
X010119Y030645D01*
X010098Y030678D01*
X010074Y030709D01*
X010047Y030737D01*
X010018Y030763D01*
X009987Y030786D01*
X009954Y030807D01*
X009919Y030824D01*
X009882Y030837D01*
X009845Y030848D01*
X009806Y030855D01*
X009806Y030854D02*
X002552Y030854D01*
X002552Y003472D01*
M02*
