%
M48
M72
T01C0.0120
T02C0.0120
T03C0.0138
T04C0.0157
T05C0.0197
T06C0.0236
T07C0.0400
T08C0.0550
T09C0.0630
%
T01
X21056Y14949
X21529Y14850
X21312Y17665
X21086Y18630
X21844Y18610
X20564Y18650
X14954Y18650
X14216Y18630
X14442Y17665
X9610Y22951
X16529Y30096
X21056Y30326
X27060Y18512
X27828Y17528
X38123Y24673
X38084Y27094
X41194Y24634
T02
X13566Y8827
X13881Y8846
X15043Y8846
X15338Y8846
X16165Y9870
X16440Y9870
X16440Y10146
X16165Y10146
X15958Y12577
X15958Y12892
X15102Y12823
X15102Y13118
X15102Y13413
X15102Y13709
X14708Y13709
X14708Y13413
X14708Y13118
X14708Y12823
X14314Y12823
X14314Y13118
X14314Y13413
X14314Y13709
X13921Y13709
X13921Y13413
X13921Y13118
X13921Y12823
X13527Y12823
X13527Y13118
X13527Y13413
X13527Y13709
X12976Y13906
X12602Y13906
X8999Y14004
X8606Y14004
X8606Y13512
X8999Y13512
X8999Y13020
X8606Y13020
X8547Y15362
X8802Y16543
X8271Y17606
X8655Y19122
X9098Y19122
X9098Y19614
X8655Y19614
X8655Y20106
X9098Y20106
X8527Y21366
X8645Y22567
X8212Y23472
X8655Y26159
X9098Y26159
X9098Y26652
X8655Y26652
X8655Y27144
X9098Y27144
X8547Y28472
X8665Y29752
X11027Y20215
X11381Y20215
X11736Y20195
X12110Y20195
X12110Y19309
X11716Y19309
X11342Y19309
X11007Y19309
X12759Y17134
X13921Y17154
X14216Y17154
X14216Y16858
X13921Y16858
X19649Y17154
X20791Y17154
X21086Y17154
X21086Y16858
X20791Y16858
X19698Y19496
X22080Y22429
X28054Y22980
X28054Y23276
X28350Y23276
X28350Y22980
X29580Y19201
X27592Y17026
X27582Y16740
X27287Y16740
X27287Y17035
X26204Y17035
X29915Y14909
X28468Y13591
X28468Y13295
X28468Y13000
X28468Y12705
X28074Y12705
X28074Y13000
X28074Y13295
X28074Y13591
X27680Y13591
X27680Y13295
X27680Y13000
X27680Y12705
X27287Y12705
X27287Y13000
X27287Y13295
X27287Y13591
X26893Y13591
X26893Y13295
X26893Y13000
X26893Y12705
X26440Y13689
X26106Y13689
X29334Y12783
X29334Y12488
X29413Y10067
X29413Y9752
X29098Y9732
X29098Y10047
X28566Y8709
X28232Y8709
X26795Y8709
X26499Y8709
X26007Y9772
X26007Y10047
X26007Y10343
X23330Y10421
X22720Y10579
X22503Y8846
X22188Y8827
X20673Y8787
X20318Y8787
X19590Y9378
X19590Y9693
X19590Y10028
X19590Y10343
X20397Y12823
X20397Y13118
X20397Y13413
X20397Y13709
X20791Y13709
X20791Y13413
X20791Y13118
X20791Y12823
X21184Y12823
X21184Y13118
X21184Y13413
X21184Y13709
X21578Y13709
X21578Y13413
X21578Y13118
X21578Y12823
X21972Y12823
X21972Y13118
X21972Y13413
X21972Y13709
X22867Y12911
X22867Y12616
X19865Y13925
X19570Y13925
X11499Y9437
X11499Y9142
X11184Y9122
X11184Y9437
X34511Y10106
X37799Y10205
X41421Y10264
X41391Y8541
X39009Y20392
X39029Y20844
T03
X10308Y22429
X10387Y24831
T04
X13950Y14949
X14659Y14890
X15190Y14949
X16765Y14949
X17139Y15480
X16765Y16583
X15781Y16720
X15800Y17154
X15800Y18020
X13182Y17646
X10328Y18256
X9363Y18236
X9797Y19732
X13694Y20323
X18714Y21937
X18930Y22941
X21844Y20874
X21765Y20402
X22060Y18925
X22769Y18020
X23261Y18945
X24541Y19240
X25702Y19713
X27552Y18472
X29108Y18079
X32356Y16839
X32710Y16622
X33989Y17311
X34600Y17587
X34580Y18118
X31391Y20933
X35643Y21543
X40702Y21563
X31863Y14496
X29049Y13945
X28576Y14870
X27828Y14929
X27297Y14772
X25978Y15028
X24797Y14791
X24541Y13965
X23438Y14870
X22080Y14850
X22828Y16720
X23517Y16760
X25860Y16248
X25761Y17961
X23930Y21563
X23930Y23276
X23222Y23906
X26352Y24299
X26804Y23276
X22986Y26760
X20033Y20480
X18891Y19260
X19245Y17882
X20033Y17744
X24600Y11445
X32060Y7744
X32887Y10441
X35249Y11760
X36273Y12469
X35938Y10441
X39698Y10992
X41135Y7882
T05
X38773Y25992
T06
X12503Y11396
X15299Y11396
X20151Y11396
X22169Y11396
X26696Y11376
X28665Y11346
T07
X13178Y5579
X14178Y5579
X15178Y5579
X16178Y5579
X16535Y7156
X17535Y7156
X17535Y8156
X16535Y8156
X15535Y8156
X14535Y8156
X14535Y7156
X15535Y7156
X18535Y7156
X19535Y7156
X20535Y7156
X20535Y8156
X19535Y8156
X18535Y8156
X19793Y5500
X20793Y5500
X21793Y5500
X22793Y5500
X22535Y7156
X23535Y7156
X23535Y8156
X22535Y8156
X21535Y8156
X21535Y7156
X24535Y7156
X25535Y7156
X25535Y8156
X24535Y8156
X26535Y8156
X27535Y8156
X28535Y8156
X29535Y8156
X30535Y8156
X31535Y8156
X32535Y8156
X33535Y8156
X34535Y8156
X35535Y8156
X36535Y8156
X36535Y7156
X35535Y7156
X34535Y7156
X33535Y7156
X32535Y7156
X31535Y7156
X30535Y7156
X29535Y7156
X28535Y7156
X27535Y7156
X26535Y7156
X26210Y5520
X27210Y5520
X28210Y5520
X29210Y5520
X33391Y5579
X34391Y5579
X36580Y5579
X37580Y5579
X40104Y5539
X41104Y5539
X17442Y20902
X17442Y21902
X16442Y21902
X16442Y20902
X16442Y22902
X17442Y22902
X17442Y23902
X16442Y23902
X16442Y24902
X17442Y24902
X17535Y26201
X16535Y26201
X16535Y27201
X17535Y27201
X18535Y27201
X19535Y27201
X20535Y27201
X21535Y27201
X22535Y27201
X23535Y27201
X24535Y27201
X25535Y27201
X26535Y27201
X27535Y27201
X28535Y27201
X29535Y27201
X30535Y27201
X31535Y27201
X32535Y27201
X33535Y27201
X34535Y27201
X35535Y27201
X36535Y27201
X36535Y26201
X35535Y26201
X34535Y26201
X33535Y26201
X32535Y26201
X31535Y26201
X30535Y26201
X29535Y26201
X28535Y26201
X27535Y26201
X26535Y26201
X25535Y26201
X24535Y26201
X23535Y26201
X22535Y26201
X21535Y26201
X20535Y26201
X19535Y26201
X18535Y26201
X18541Y28748
X19541Y28748
X20541Y28748
X16820Y28709
X15820Y28709
X14820Y28709
X14535Y27201
X15535Y27201
X15535Y26201
X14535Y26201
X13139Y28689
X12139Y28689
X11139Y28689
T08
X4149Y4902
X4149Y6902
X4149Y8902
X4149Y10902
X4149Y13752
X4149Y15752
X4080Y20425
X4080Y22425
X4149Y27453
X4149Y29453
T09
X5761Y5677
X7100Y5677
X7100Y10559
X5761Y10559
M30
