G75*
%MOIN*%
%OFA0B0*%
%FSLAX25Y25*%
%IPPOS*%
%LPD*%
%AMOC8*
5,1,8,0,0,1.08239X$1,22.5*
%
%ADD10C,0.08274*%
%ADD11R,0.01800X0.06200*%
%ADD12R,0.03156X0.03943*%
%ADD13R,0.05518X0.06306*%
%ADD14R,0.06306X0.05518*%
%ADD15R,0.03550X0.03550*%
%ADD16R,0.03943X0.03156*%
%ADD17R,0.06400X0.06400*%
%ADD18C,0.06400*%
%ADD19C,0.08650*%
%ADD20R,0.08274X0.08274*%
%ADD21R,0.01581X0.04337*%
%ADD22R,0.06699X0.07487*%
%ADD23R,0.07487X0.29928*%
%ADD24R,0.02500X0.08200*%
%ADD25C,0.05000*%
%ADD26C,0.04337*%
%ADD27C,0.05400*%
%ADD28R,0.04731X0.02369*%
%ADD29R,0.14180X0.17329*%
%ADD30OC8,0.06400*%
%ADD31C,0.09849*%
%ADD32R,0.02600X0.08200*%
%ADD33R,0.01975X0.03156*%
%ADD34R,0.04337X0.05912*%
%ADD35C,0.00277*%
%ADD36R,0.03156X0.01384*%
%ADD37C,0.01655*%
%ADD38R,0.14567X0.18504*%
%ADD39R,0.03156X0.01975*%
%ADD40R,0.10243X0.12211*%
D10*
X0169772Y0108740D03*
D11*
X0163024Y0183657D03*
X0160424Y0183657D03*
X0157824Y0183657D03*
X0155324Y0183657D03*
X0152724Y0183657D03*
X0150224Y0183657D03*
X0147624Y0183657D03*
X0145024Y0183657D03*
X0145024Y0206657D03*
X0147624Y0206657D03*
X0150224Y0206657D03*
X0152724Y0206657D03*
X0155324Y0206657D03*
X0157824Y0206657D03*
X0160424Y0206657D03*
X0163024Y0206657D03*
X0163794Y0222437D03*
X0166294Y0222437D03*
X0161194Y0222437D03*
X0158694Y0222437D03*
X0156094Y0222437D03*
X0153494Y0222437D03*
X0150994Y0222437D03*
X0148394Y0222437D03*
X0145894Y0222437D03*
X0143294Y0222437D03*
X0140694Y0222437D03*
X0138194Y0222437D03*
X0135594Y0222437D03*
X0133094Y0222437D03*
X0133094Y0245437D03*
X0135594Y0245437D03*
X0138194Y0245437D03*
X0140694Y0245437D03*
X0143294Y0245437D03*
X0145894Y0245437D03*
X0148394Y0245437D03*
X0150994Y0245437D03*
X0153494Y0245437D03*
X0156094Y0245437D03*
X0158694Y0245437D03*
X0161194Y0245437D03*
X0163794Y0245437D03*
X0166294Y0245437D03*
X0198568Y0205870D03*
X0201168Y0205870D03*
X0203768Y0205870D03*
X0206268Y0205870D03*
X0208868Y0205870D03*
X0211368Y0205870D03*
X0213968Y0205870D03*
X0216568Y0205870D03*
X0216568Y0182870D03*
X0213968Y0182870D03*
X0211368Y0182870D03*
X0208868Y0182870D03*
X0206268Y0182870D03*
X0203768Y0182870D03*
X0201168Y0182870D03*
X0198568Y0182870D03*
X0251914Y0183854D03*
X0254514Y0183854D03*
X0257114Y0183854D03*
X0259614Y0183854D03*
X0262214Y0183854D03*
X0264714Y0183854D03*
X0267314Y0183854D03*
X0269914Y0183854D03*
X0269914Y0206854D03*
X0267314Y0206854D03*
X0264714Y0206854D03*
X0262214Y0206854D03*
X0259614Y0206854D03*
X0257114Y0206854D03*
X0254514Y0206854D03*
X0251914Y0206854D03*
X0301914Y0206657D03*
X0304514Y0206657D03*
X0307114Y0206657D03*
X0309614Y0206657D03*
X0312214Y0206657D03*
X0314714Y0206657D03*
X0317314Y0206657D03*
X0319914Y0206657D03*
X0319914Y0183657D03*
X0317314Y0183657D03*
X0314714Y0183657D03*
X0312214Y0183657D03*
X0309614Y0183657D03*
X0307114Y0183657D03*
X0304514Y0183657D03*
X0301914Y0183657D03*
X0353883Y0182476D03*
X0356483Y0182476D03*
X0359083Y0182476D03*
X0361583Y0182476D03*
X0364183Y0182476D03*
X0366683Y0182476D03*
X0369283Y0182476D03*
X0371883Y0182476D03*
X0371883Y0205476D03*
X0369283Y0205476D03*
X0366683Y0205476D03*
X0364183Y0205476D03*
X0361583Y0205476D03*
X0359083Y0205476D03*
X0356483Y0205476D03*
X0353883Y0205476D03*
D12*
X0349497Y0190433D03*
X0349497Y0185512D03*
X0344379Y0185512D03*
X0344379Y0190433D03*
X0336505Y0186299D03*
X0331387Y0186299D03*
X0344969Y0167205D03*
X0350087Y0167205D03*
X0348119Y0147717D03*
X0343001Y0147717D03*
X0343001Y0143386D03*
X0348119Y0143386D03*
X0349103Y0137874D03*
X0343985Y0137874D03*
X0346150Y0132165D03*
X0351269Y0132165D03*
X0351269Y0127835D03*
X0356387Y0127835D03*
X0303828Y0127638D03*
X0298709Y0127638D03*
X0297922Y0132362D03*
X0292804Y0132362D03*
X0292410Y0137874D03*
X0297528Y0137874D03*
X0295954Y0143386D03*
X0290835Y0143386D03*
X0290835Y0147717D03*
X0295954Y0147717D03*
X0296741Y0167598D03*
X0291623Y0167598D03*
X0291032Y0186102D03*
X0291032Y0190433D03*
X0296150Y0190433D03*
X0296150Y0186102D03*
X0285324Y0189055D03*
X0280206Y0189055D03*
X0246544Y0188661D03*
X0246544Y0184134D03*
X0241426Y0184134D03*
X0241426Y0188661D03*
X0234733Y0185906D03*
X0229615Y0185906D03*
X0241229Y0167205D03*
X0246347Y0167205D03*
X0246150Y0147717D03*
X0241032Y0147717D03*
X0241032Y0143386D03*
X0246150Y0143386D03*
X0247528Y0137776D03*
X0242410Y0137776D03*
X0242607Y0132165D03*
X0247725Y0132165D03*
X0249497Y0127835D03*
X0254615Y0127835D03*
X0201072Y0127835D03*
X0195954Y0127835D03*
X0195363Y0132165D03*
X0190245Y0132165D03*
X0188670Y0137776D03*
X0193788Y0137776D03*
X0192017Y0143386D03*
X0186898Y0143386D03*
X0186898Y0147717D03*
X0192017Y0147717D03*
X0191426Y0168386D03*
X0186308Y0168386D03*
X0186702Y0185906D03*
X0186702Y0190433D03*
X0179418Y0186693D03*
X0174300Y0186693D03*
X0191820Y0185906D03*
X0191820Y0190433D03*
X0166150Y0215709D03*
X0161032Y0215709D03*
X0188572Y0217008D03*
X0193690Y0217008D03*
X0136111Y0190236D03*
X0130993Y0190236D03*
X0130993Y0185118D03*
X0136111Y0185118D03*
X0136308Y0162283D03*
X0141426Y0162283D03*
X0138276Y0147717D03*
X0133158Y0147717D03*
X0133158Y0143386D03*
X0138276Y0143386D03*
X0139226Y0137776D03*
X0134108Y0137776D03*
X0134339Y0132165D03*
X0139457Y0132165D03*
X0141723Y0127858D03*
X0146841Y0127858D03*
X0103237Y0118878D03*
X0098119Y0118878D03*
X0096347Y0175079D03*
X0101465Y0175079D03*
X0100284Y0184823D03*
X0095166Y0184823D03*
X0105894Y0215728D03*
X0111013Y0215728D03*
X0100776Y0242894D03*
X0095658Y0242894D03*
X0095658Y0254213D03*
X0100776Y0254213D03*
X0241623Y0281575D03*
X0246741Y0281575D03*
X0273316Y0281772D03*
X0278434Y0281772D03*
X0305402Y0280984D03*
X0310520Y0280984D03*
X0338276Y0280197D03*
X0343394Y0280197D03*
X0369772Y0279606D03*
X0374891Y0279606D03*
X0402253Y0279606D03*
X0407371Y0279606D03*
X0421446Y0258543D03*
X0426564Y0258543D03*
X0426564Y0254114D03*
X0421446Y0254114D03*
X0357174Y0251654D03*
X0352056Y0251654D03*
X0352056Y0246732D03*
X0357174Y0246732D03*
X0383158Y0186693D03*
X0388276Y0186693D03*
X0454812Y0202638D03*
X0459930Y0202638D03*
X0089556Y0037776D03*
X0084438Y0037776D03*
D13*
X0154615Y0167500D03*
X0162095Y0167500D03*
X0209339Y0167303D03*
X0216820Y0167303D03*
X0263080Y0167500D03*
X0270560Y0167500D03*
X0312292Y0167500D03*
X0319772Y0167500D03*
X0364457Y0167500D03*
X0371938Y0167500D03*
X0350166Y0230827D03*
X0419359Y0238799D03*
D14*
X0374398Y0130394D03*
X0374398Y0122913D03*
X0364457Y0120157D03*
X0364457Y0127638D03*
X0322824Y0129409D03*
X0322824Y0121929D03*
X0312686Y0119764D03*
X0312686Y0127244D03*
X0272922Y0128720D03*
X0272922Y0121240D03*
X0263080Y0120157D03*
X0263080Y0127638D03*
X0219871Y0126555D03*
X0219871Y0119075D03*
X0209339Y0120157D03*
X0209339Y0127638D03*
X0164359Y0128917D03*
X0164359Y0121437D03*
X0154615Y0120157D03*
X0154615Y0127638D03*
D15*
X0102646Y0123799D03*
X0096741Y0123799D03*
X0094772Y0179902D03*
X0100678Y0179902D03*
X0101170Y0248307D03*
X0095265Y0248307D03*
X0338473Y0061496D03*
X0338473Y0055591D03*
X0366524Y0055492D03*
X0366524Y0061398D03*
X0394674Y0061201D03*
X0394674Y0055295D03*
X0421938Y0055098D03*
X0421938Y0061004D03*
X0465835Y0202638D03*
X0471741Y0202638D03*
X0102942Y0037677D03*
X0097036Y0037677D03*
D16*
X0091820Y0118878D03*
X0091820Y0123996D03*
X0103335Y0150866D03*
X0103335Y0155984D03*
X0107371Y0162382D03*
X0107371Y0167500D03*
X0088867Y0178819D03*
X0088867Y0183937D03*
X0131190Y0178031D03*
X0135520Y0178031D03*
X0135520Y0172913D03*
X0131190Y0172913D03*
X0148476Y0170666D03*
X0148476Y0165548D03*
X0166820Y0159921D03*
X0166820Y0154803D03*
X0181583Y0145354D03*
X0181583Y0140236D03*
X0184733Y0132559D03*
X0184733Y0127441D03*
X0223513Y0154803D03*
X0223513Y0159921D03*
X0235324Y0144764D03*
X0235324Y0139646D03*
X0235422Y0132854D03*
X0235422Y0127736D03*
X0275087Y0155394D03*
X0275087Y0160512D03*
X0256780Y0164843D03*
X0256780Y0169961D03*
X0245757Y0171732D03*
X0241426Y0171732D03*
X0241426Y0176850D03*
X0245757Y0176850D03*
X0246347Y0201654D03*
X0246347Y0206772D03*
X0269969Y0223307D03*
X0269969Y0228425D03*
X0252056Y0246437D03*
X0247233Y0246437D03*
X0242410Y0246240D03*
X0242410Y0251358D03*
X0247233Y0251555D03*
X0252056Y0251555D03*
X0230993Y0251457D03*
X0226662Y0251358D03*
X0222135Y0251358D03*
X0216820Y0251654D03*
X0211800Y0251555D03*
X0211800Y0246437D03*
X0216820Y0246535D03*
X0222135Y0246240D03*
X0226662Y0246240D03*
X0230993Y0246339D03*
X0205894Y0246437D03*
X0205894Y0251555D03*
X0199497Y0229213D03*
X0199497Y0224094D03*
X0192804Y0206378D03*
X0192804Y0201260D03*
X0191032Y0178031D03*
X0186702Y0178031D03*
X0186702Y0172913D03*
X0191032Y0172913D03*
X0203040Y0170551D03*
X0203040Y0165433D03*
X0139248Y0201239D03*
X0139248Y0206357D03*
X0088867Y0248209D03*
X0088867Y0253327D03*
X0123414Y0262579D03*
X0123414Y0267697D03*
X0128828Y0146535D03*
X0128828Y0141417D03*
X0129221Y0132362D03*
X0129221Y0127244D03*
X0286997Y0126850D03*
X0286997Y0131969D03*
X0286898Y0138858D03*
X0286898Y0143976D03*
X0305993Y0165039D03*
X0305993Y0170157D03*
X0296741Y0173307D03*
X0292410Y0173307D03*
X0292410Y0178425D03*
X0296741Y0178425D03*
X0295363Y0201063D03*
X0295363Y0206181D03*
X0318591Y0221732D03*
X0318591Y0226850D03*
X0317017Y0240630D03*
X0317017Y0245748D03*
X0339851Y0239449D03*
X0339851Y0234331D03*
X0341623Y0244764D03*
X0345954Y0244764D03*
X0345954Y0249882D03*
X0341623Y0249882D03*
X0348119Y0217008D03*
X0348119Y0211890D03*
X0347725Y0205591D03*
X0347725Y0200472D03*
X0349300Y0178031D03*
X0344969Y0178031D03*
X0344969Y0172913D03*
X0349300Y0172913D03*
X0358158Y0170354D03*
X0358158Y0165236D03*
X0378434Y0159134D03*
X0378434Y0154016D03*
X0340442Y0133051D03*
X0340442Y0127933D03*
X0338670Y0140827D03*
X0338670Y0145945D03*
X0325678Y0155000D03*
X0325678Y0160118D03*
X0407371Y0097913D03*
X0407371Y0092795D03*
X0409143Y0075669D03*
X0409143Y0070551D03*
X0417410Y0061004D03*
X0417410Y0055886D03*
X0431387Y0071732D03*
X0431387Y0076850D03*
X0431583Y0090827D03*
X0431583Y0095945D03*
X0389851Y0061201D03*
X0389851Y0056083D03*
X0361997Y0056280D03*
X0361997Y0061398D03*
X0333749Y0061496D03*
X0333749Y0056378D03*
X0416918Y0218976D03*
X0416918Y0224094D03*
X0409438Y0242106D03*
X0409438Y0247224D03*
X0410816Y0254311D03*
X0415639Y0254311D03*
X0415639Y0259429D03*
X0410816Y0259429D03*
D17*
X0394241Y0271024D03*
X0404772Y0288071D03*
X0372961Y0288071D03*
X0341072Y0288071D03*
X0308001Y0288071D03*
X0275914Y0288071D03*
X0243631Y0288071D03*
X0218513Y0288071D03*
X0194891Y0288071D03*
X0173040Y0288465D03*
X0126702Y0287677D03*
X0394241Y0080571D03*
X0383040Y0055000D03*
X0355087Y0055000D03*
X0320796Y0055000D03*
X0277883Y0055197D03*
X0234969Y0055000D03*
X0192253Y0055000D03*
X0149733Y0055000D03*
X0411387Y0055000D03*
X0438946Y0055000D03*
D18*
X0428946Y0052000D02*
X0428946Y0058000D01*
X0401387Y0058000D02*
X0401387Y0052000D01*
X0373040Y0052000D02*
X0373040Y0058000D01*
X0345087Y0058000D02*
X0345087Y0052000D01*
X0310796Y0052000D02*
X0310796Y0058000D01*
X0300796Y0058000D02*
X0300796Y0052000D01*
X0290796Y0052000D02*
X0290796Y0058000D01*
X0267883Y0058197D02*
X0267883Y0052197D01*
X0257883Y0052197D02*
X0257883Y0058197D01*
X0247883Y0058197D02*
X0247883Y0052197D01*
X0224969Y0052000D02*
X0224969Y0058000D01*
X0214969Y0058000D02*
X0214969Y0052000D01*
X0204969Y0052000D02*
X0204969Y0058000D01*
X0182253Y0058000D02*
X0182253Y0052000D01*
X0172253Y0052000D02*
X0172253Y0058000D01*
X0162253Y0058000D02*
X0162253Y0052000D01*
X0139733Y0052000D02*
X0139733Y0058000D01*
X0129733Y0058000D02*
X0129733Y0052000D01*
X0119733Y0052000D02*
X0119733Y0058000D01*
X0119922Y0223740D02*
X0125922Y0223740D01*
X0125922Y0233740D02*
X0119922Y0233740D01*
X0119922Y0243740D02*
X0125922Y0243740D01*
X0136702Y0284677D02*
X0136702Y0290677D01*
X0146702Y0290677D02*
X0146702Y0284677D01*
X0183040Y0285465D02*
X0183040Y0291465D01*
X0204891Y0291071D02*
X0204891Y0285071D01*
X0228513Y0285071D02*
X0228513Y0291071D01*
X0253631Y0291071D02*
X0253631Y0285071D01*
X0263631Y0285071D02*
X0263631Y0291071D01*
X0285914Y0291071D02*
X0285914Y0285071D01*
X0295914Y0285071D02*
X0295914Y0291071D01*
X0318001Y0291071D02*
X0318001Y0285071D01*
X0328001Y0285071D02*
X0328001Y0291071D01*
X0351072Y0291071D02*
X0351072Y0285071D01*
X0361072Y0285071D02*
X0361072Y0291071D01*
X0382961Y0291071D02*
X0382961Y0285071D01*
X0392961Y0285071D02*
X0392961Y0291071D01*
X0414772Y0291071D02*
X0414772Y0285071D01*
X0424772Y0285071D02*
X0424772Y0291071D01*
X0434772Y0291071D02*
X0434772Y0285071D01*
D19*
X0074508Y0048031D02*
X0066258Y0048031D01*
X0066258Y0068031D02*
X0074508Y0068031D01*
X0074508Y0088031D02*
X0066258Y0088031D01*
X0066258Y0108031D02*
X0074508Y0108031D01*
X0074508Y0136535D02*
X0066258Y0136535D01*
X0066258Y0156535D02*
X0074508Y0156535D01*
X0074508Y0185039D02*
X0066258Y0185039D01*
X0066258Y0205039D02*
X0074508Y0205039D01*
X0074508Y0225039D02*
X0066258Y0225039D01*
X0066258Y0245039D02*
X0074508Y0245039D01*
X0074508Y0273543D02*
X0066258Y0273543D01*
X0066258Y0293543D02*
X0074508Y0293543D01*
D20*
X0093296Y0298504D03*
X0093296Y0282756D03*
X0093296Y0229606D03*
X0093296Y0213858D03*
X0092312Y0166417D03*
X0092312Y0150669D03*
X0112292Y0086102D03*
X0112292Y0070354D03*
X0366229Y0223307D03*
X0366229Y0239055D03*
X0435225Y0231476D03*
X0435225Y0247224D03*
D21*
X0423217Y0248406D03*
X0421249Y0248406D03*
X0419300Y0248406D03*
X0417312Y0248406D03*
X0415343Y0248406D03*
X0415343Y0229508D03*
X0417312Y0229508D03*
X0419300Y0229508D03*
X0421249Y0229508D03*
X0423217Y0229508D03*
X0354024Y0221535D03*
X0352056Y0221535D03*
X0350107Y0221535D03*
X0348119Y0221535D03*
X0346150Y0221535D03*
X0346150Y0240433D03*
X0348119Y0240433D03*
X0350107Y0240433D03*
X0352056Y0240433D03*
X0354024Y0240433D03*
D22*
X0354221Y0214646D03*
X0365245Y0214646D03*
X0383552Y0214646D03*
X0383552Y0206575D03*
X0394576Y0206575D03*
X0394576Y0214646D03*
X0423709Y0222520D03*
X0434733Y0222520D03*
X0449005Y0222618D03*
X0448906Y0214252D03*
X0459930Y0214252D03*
X0460028Y0222618D03*
D23*
X0470265Y0244173D03*
X0448217Y0244173D03*
X0401662Y0234724D03*
X0379615Y0234724D03*
D24*
X0194103Y0244228D03*
X0189103Y0244228D03*
X0184103Y0244228D03*
X0179103Y0244228D03*
X0179103Y0224828D03*
X0184103Y0224828D03*
X0189103Y0224828D03*
X0194103Y0224828D03*
D25*
X0154123Y0286988D02*
X0154125Y0287106D01*
X0154131Y0287225D01*
X0154141Y0287343D01*
X0154155Y0287460D01*
X0154172Y0287577D01*
X0154194Y0287694D01*
X0154220Y0287809D01*
X0154249Y0287924D01*
X0154282Y0288038D01*
X0154319Y0288150D01*
X0154360Y0288261D01*
X0154404Y0288371D01*
X0154452Y0288479D01*
X0154504Y0288586D01*
X0154559Y0288691D01*
X0154618Y0288794D01*
X0154680Y0288894D01*
X0154745Y0288993D01*
X0154814Y0289090D01*
X0154885Y0289184D01*
X0154960Y0289275D01*
X0155038Y0289365D01*
X0155119Y0289451D01*
X0155203Y0289535D01*
X0155289Y0289616D01*
X0155379Y0289694D01*
X0155470Y0289769D01*
X0155564Y0289840D01*
X0155661Y0289909D01*
X0155760Y0289974D01*
X0155860Y0290036D01*
X0155963Y0290095D01*
X0156068Y0290150D01*
X0156175Y0290202D01*
X0156283Y0290250D01*
X0156393Y0290294D01*
X0156504Y0290335D01*
X0156616Y0290372D01*
X0156730Y0290405D01*
X0156845Y0290434D01*
X0156960Y0290460D01*
X0157077Y0290482D01*
X0157194Y0290499D01*
X0157311Y0290513D01*
X0157429Y0290523D01*
X0157548Y0290529D01*
X0157666Y0290531D01*
X0157784Y0290529D01*
X0157903Y0290523D01*
X0158021Y0290513D01*
X0158138Y0290499D01*
X0158255Y0290482D01*
X0158372Y0290460D01*
X0158487Y0290434D01*
X0158602Y0290405D01*
X0158716Y0290372D01*
X0158828Y0290335D01*
X0158939Y0290294D01*
X0159049Y0290250D01*
X0159157Y0290202D01*
X0159264Y0290150D01*
X0159369Y0290095D01*
X0159472Y0290036D01*
X0159572Y0289974D01*
X0159671Y0289909D01*
X0159768Y0289840D01*
X0159862Y0289769D01*
X0159953Y0289694D01*
X0160043Y0289616D01*
X0160129Y0289535D01*
X0160213Y0289451D01*
X0160294Y0289365D01*
X0160372Y0289275D01*
X0160447Y0289184D01*
X0160518Y0289090D01*
X0160587Y0288993D01*
X0160652Y0288894D01*
X0160714Y0288794D01*
X0160773Y0288691D01*
X0160828Y0288586D01*
X0160880Y0288479D01*
X0160928Y0288371D01*
X0160972Y0288261D01*
X0161013Y0288150D01*
X0161050Y0288038D01*
X0161083Y0287924D01*
X0161112Y0287809D01*
X0161138Y0287694D01*
X0161160Y0287577D01*
X0161177Y0287460D01*
X0161191Y0287343D01*
X0161201Y0287225D01*
X0161207Y0287106D01*
X0161209Y0286988D01*
X0161207Y0286870D01*
X0161201Y0286751D01*
X0161191Y0286633D01*
X0161177Y0286516D01*
X0161160Y0286399D01*
X0161138Y0286282D01*
X0161112Y0286167D01*
X0161083Y0286052D01*
X0161050Y0285938D01*
X0161013Y0285826D01*
X0160972Y0285715D01*
X0160928Y0285605D01*
X0160880Y0285497D01*
X0160828Y0285390D01*
X0160773Y0285285D01*
X0160714Y0285182D01*
X0160652Y0285082D01*
X0160587Y0284983D01*
X0160518Y0284886D01*
X0160447Y0284792D01*
X0160372Y0284701D01*
X0160294Y0284611D01*
X0160213Y0284525D01*
X0160129Y0284441D01*
X0160043Y0284360D01*
X0159953Y0284282D01*
X0159862Y0284207D01*
X0159768Y0284136D01*
X0159671Y0284067D01*
X0159572Y0284002D01*
X0159472Y0283940D01*
X0159369Y0283881D01*
X0159264Y0283826D01*
X0159157Y0283774D01*
X0159049Y0283726D01*
X0158939Y0283682D01*
X0158828Y0283641D01*
X0158716Y0283604D01*
X0158602Y0283571D01*
X0158487Y0283542D01*
X0158372Y0283516D01*
X0158255Y0283494D01*
X0158138Y0283477D01*
X0158021Y0283463D01*
X0157903Y0283453D01*
X0157784Y0283447D01*
X0157666Y0283445D01*
X0157548Y0283447D01*
X0157429Y0283453D01*
X0157311Y0283463D01*
X0157194Y0283477D01*
X0157077Y0283494D01*
X0156960Y0283516D01*
X0156845Y0283542D01*
X0156730Y0283571D01*
X0156616Y0283604D01*
X0156504Y0283641D01*
X0156393Y0283682D01*
X0156283Y0283726D01*
X0156175Y0283774D01*
X0156068Y0283826D01*
X0155963Y0283881D01*
X0155860Y0283940D01*
X0155760Y0284002D01*
X0155661Y0284067D01*
X0155564Y0284136D01*
X0155470Y0284207D01*
X0155379Y0284282D01*
X0155289Y0284360D01*
X0155203Y0284441D01*
X0155119Y0284525D01*
X0155038Y0284611D01*
X0154960Y0284701D01*
X0154885Y0284792D01*
X0154814Y0284886D01*
X0154745Y0284983D01*
X0154680Y0285082D01*
X0154618Y0285182D01*
X0154559Y0285285D01*
X0154504Y0285390D01*
X0154452Y0285497D01*
X0154404Y0285605D01*
X0154360Y0285715D01*
X0154319Y0285826D01*
X0154282Y0285938D01*
X0154249Y0286052D01*
X0154220Y0286167D01*
X0154194Y0286282D01*
X0154172Y0286399D01*
X0154155Y0286516D01*
X0154141Y0286633D01*
X0154131Y0286751D01*
X0154125Y0286870D01*
X0154123Y0286988D01*
X0440639Y0113858D02*
X0440641Y0113976D01*
X0440647Y0114095D01*
X0440657Y0114213D01*
X0440671Y0114330D01*
X0440688Y0114447D01*
X0440710Y0114564D01*
X0440736Y0114679D01*
X0440765Y0114794D01*
X0440798Y0114908D01*
X0440835Y0115020D01*
X0440876Y0115131D01*
X0440920Y0115241D01*
X0440968Y0115349D01*
X0441020Y0115456D01*
X0441075Y0115561D01*
X0441134Y0115664D01*
X0441196Y0115764D01*
X0441261Y0115863D01*
X0441330Y0115960D01*
X0441401Y0116054D01*
X0441476Y0116145D01*
X0441554Y0116235D01*
X0441635Y0116321D01*
X0441719Y0116405D01*
X0441805Y0116486D01*
X0441895Y0116564D01*
X0441986Y0116639D01*
X0442080Y0116710D01*
X0442177Y0116779D01*
X0442276Y0116844D01*
X0442376Y0116906D01*
X0442479Y0116965D01*
X0442584Y0117020D01*
X0442691Y0117072D01*
X0442799Y0117120D01*
X0442909Y0117164D01*
X0443020Y0117205D01*
X0443132Y0117242D01*
X0443246Y0117275D01*
X0443361Y0117304D01*
X0443476Y0117330D01*
X0443593Y0117352D01*
X0443710Y0117369D01*
X0443827Y0117383D01*
X0443945Y0117393D01*
X0444064Y0117399D01*
X0444182Y0117401D01*
X0444300Y0117399D01*
X0444419Y0117393D01*
X0444537Y0117383D01*
X0444654Y0117369D01*
X0444771Y0117352D01*
X0444888Y0117330D01*
X0445003Y0117304D01*
X0445118Y0117275D01*
X0445232Y0117242D01*
X0445344Y0117205D01*
X0445455Y0117164D01*
X0445565Y0117120D01*
X0445673Y0117072D01*
X0445780Y0117020D01*
X0445885Y0116965D01*
X0445988Y0116906D01*
X0446088Y0116844D01*
X0446187Y0116779D01*
X0446284Y0116710D01*
X0446378Y0116639D01*
X0446469Y0116564D01*
X0446559Y0116486D01*
X0446645Y0116405D01*
X0446729Y0116321D01*
X0446810Y0116235D01*
X0446888Y0116145D01*
X0446963Y0116054D01*
X0447034Y0115960D01*
X0447103Y0115863D01*
X0447168Y0115764D01*
X0447230Y0115664D01*
X0447289Y0115561D01*
X0447344Y0115456D01*
X0447396Y0115349D01*
X0447444Y0115241D01*
X0447488Y0115131D01*
X0447529Y0115020D01*
X0447566Y0114908D01*
X0447599Y0114794D01*
X0447628Y0114679D01*
X0447654Y0114564D01*
X0447676Y0114447D01*
X0447693Y0114330D01*
X0447707Y0114213D01*
X0447717Y0114095D01*
X0447723Y0113976D01*
X0447725Y0113858D01*
X0447723Y0113740D01*
X0447717Y0113621D01*
X0447707Y0113503D01*
X0447693Y0113386D01*
X0447676Y0113269D01*
X0447654Y0113152D01*
X0447628Y0113037D01*
X0447599Y0112922D01*
X0447566Y0112808D01*
X0447529Y0112696D01*
X0447488Y0112585D01*
X0447444Y0112475D01*
X0447396Y0112367D01*
X0447344Y0112260D01*
X0447289Y0112155D01*
X0447230Y0112052D01*
X0447168Y0111952D01*
X0447103Y0111853D01*
X0447034Y0111756D01*
X0446963Y0111662D01*
X0446888Y0111571D01*
X0446810Y0111481D01*
X0446729Y0111395D01*
X0446645Y0111311D01*
X0446559Y0111230D01*
X0446469Y0111152D01*
X0446378Y0111077D01*
X0446284Y0111006D01*
X0446187Y0110937D01*
X0446088Y0110872D01*
X0445988Y0110810D01*
X0445885Y0110751D01*
X0445780Y0110696D01*
X0445673Y0110644D01*
X0445565Y0110596D01*
X0445455Y0110552D01*
X0445344Y0110511D01*
X0445232Y0110474D01*
X0445118Y0110441D01*
X0445003Y0110412D01*
X0444888Y0110386D01*
X0444771Y0110364D01*
X0444654Y0110347D01*
X0444537Y0110333D01*
X0444419Y0110323D01*
X0444300Y0110317D01*
X0444182Y0110315D01*
X0444064Y0110317D01*
X0443945Y0110323D01*
X0443827Y0110333D01*
X0443710Y0110347D01*
X0443593Y0110364D01*
X0443476Y0110386D01*
X0443361Y0110412D01*
X0443246Y0110441D01*
X0443132Y0110474D01*
X0443020Y0110511D01*
X0442909Y0110552D01*
X0442799Y0110596D01*
X0442691Y0110644D01*
X0442584Y0110696D01*
X0442479Y0110751D01*
X0442376Y0110810D01*
X0442276Y0110872D01*
X0442177Y0110937D01*
X0442080Y0111006D01*
X0441986Y0111077D01*
X0441895Y0111152D01*
X0441805Y0111230D01*
X0441719Y0111311D01*
X0441635Y0111395D01*
X0441554Y0111481D01*
X0441476Y0111571D01*
X0441401Y0111662D01*
X0441330Y0111756D01*
X0441261Y0111853D01*
X0441196Y0111952D01*
X0441134Y0112052D01*
X0441075Y0112155D01*
X0441020Y0112260D01*
X0440968Y0112367D01*
X0440920Y0112475D01*
X0440876Y0112585D01*
X0440835Y0112696D01*
X0440798Y0112808D01*
X0440765Y0112922D01*
X0440736Y0113037D01*
X0440710Y0113152D01*
X0440688Y0113269D01*
X0440671Y0113386D01*
X0440657Y0113503D01*
X0440647Y0113621D01*
X0440641Y0113740D01*
X0440639Y0113858D01*
D26*
X0444182Y0113858D03*
X0157666Y0286988D03*
D27*
X0404615Y0214843D03*
X0404615Y0208445D03*
X0404713Y0201850D03*
X0139261Y0079016D03*
D28*
X0107174Y0129094D03*
X0107174Y0134094D03*
X0107174Y0139094D03*
X0107174Y0144094D03*
X0084339Y0144094D03*
X0084339Y0139094D03*
X0084339Y0134094D03*
X0084339Y0129094D03*
X0084339Y0190118D03*
X0084339Y0195118D03*
X0084339Y0200118D03*
X0084339Y0205118D03*
X0107174Y0205118D03*
X0107174Y0200118D03*
X0107174Y0195118D03*
X0107174Y0190118D03*
X0107765Y0260492D03*
X0107765Y0265492D03*
X0107765Y0270492D03*
X0107765Y0275492D03*
X0084930Y0275492D03*
X0084930Y0270492D03*
X0084930Y0265492D03*
X0084930Y0260492D03*
D29*
X0093394Y0267992D03*
X0092804Y0197618D03*
X0092804Y0136594D03*
D30*
X0174241Y0080571D03*
X0184241Y0080571D03*
X0194241Y0080571D03*
X0204241Y0080571D03*
X0214241Y0080571D03*
X0224241Y0080571D03*
X0234241Y0080571D03*
X0244241Y0080571D03*
X0254241Y0080571D03*
X0264241Y0080571D03*
X0274241Y0080571D03*
X0284241Y0080571D03*
X0294241Y0080571D03*
X0304241Y0080571D03*
X0314241Y0080571D03*
X0324241Y0080571D03*
X0334241Y0080571D03*
X0344241Y0080571D03*
X0354241Y0080571D03*
X0364241Y0080571D03*
X0374241Y0080571D03*
X0384241Y0080571D03*
X0384241Y0070571D03*
X0394241Y0070571D03*
X0374241Y0070571D03*
X0364241Y0070571D03*
X0354241Y0070571D03*
X0344241Y0070571D03*
X0334241Y0070571D03*
X0324241Y0070571D03*
X0314241Y0070571D03*
X0304241Y0070571D03*
X0294241Y0070571D03*
X0284241Y0070571D03*
X0274241Y0070571D03*
X0264241Y0070571D03*
X0254241Y0070571D03*
X0244241Y0070571D03*
X0234241Y0070571D03*
X0224241Y0070571D03*
X0214241Y0070571D03*
X0204241Y0070571D03*
X0194241Y0070571D03*
X0184241Y0070571D03*
X0174241Y0070571D03*
X0174241Y0261024D03*
X0184241Y0261024D03*
X0194241Y0261024D03*
X0204241Y0261024D03*
X0214241Y0261024D03*
X0224241Y0261024D03*
X0234241Y0261024D03*
X0234241Y0271024D03*
X0224241Y0271024D03*
X0214241Y0271024D03*
X0204241Y0271024D03*
X0194241Y0271024D03*
X0184241Y0271024D03*
X0174241Y0271024D03*
X0244241Y0271024D03*
X0254241Y0271024D03*
X0264241Y0271024D03*
X0274241Y0271024D03*
X0284241Y0271024D03*
X0294241Y0271024D03*
X0304241Y0271024D03*
X0314241Y0271024D03*
X0324241Y0271024D03*
X0334241Y0271024D03*
X0344241Y0271024D03*
X0354241Y0271024D03*
X0364241Y0271024D03*
X0374241Y0271024D03*
X0384241Y0271024D03*
X0384241Y0261024D03*
X0394241Y0261024D03*
X0374241Y0261024D03*
X0364241Y0261024D03*
X0354241Y0261024D03*
X0344241Y0261024D03*
X0334241Y0261024D03*
X0324241Y0261024D03*
X0314241Y0261024D03*
X0304241Y0261024D03*
X0294241Y0261024D03*
X0284241Y0261024D03*
X0274241Y0261024D03*
X0264241Y0261024D03*
X0254241Y0261024D03*
X0244241Y0261024D03*
D31*
X0100875Y0104843D03*
X0087489Y0104843D03*
X0087489Y0051850D03*
X0100875Y0051850D03*
D32*
X0275501Y0223450D03*
X0280501Y0223450D03*
X0285501Y0223450D03*
X0290501Y0223450D03*
X0295501Y0223450D03*
X0300501Y0223450D03*
X0305501Y0223450D03*
X0310501Y0223450D03*
X0310501Y0242850D03*
X0305501Y0242850D03*
X0300501Y0242850D03*
X0295501Y0242850D03*
X0290501Y0242850D03*
X0285501Y0242850D03*
X0280501Y0242850D03*
X0275501Y0242850D03*
D33*
X0321741Y0245157D03*
X0326859Y0245157D03*
X0326859Y0238465D03*
X0324300Y0238465D03*
X0321741Y0238465D03*
X0322922Y0227244D03*
X0328040Y0227244D03*
X0328040Y0220551D03*
X0325481Y0220551D03*
X0322922Y0220551D03*
D34*
X0417607Y0099685D03*
X0413867Y0091024D03*
X0421347Y0091024D03*
X0417804Y0079803D03*
X0421544Y0071142D03*
X0414064Y0071142D03*
X0436702Y0071535D03*
X0444182Y0071535D03*
X0440442Y0080197D03*
X0437489Y0090630D03*
X0444969Y0090630D03*
X0441229Y0099291D03*
D35*
X0374165Y0137714D02*
X0371285Y0137714D01*
X0371285Y0138822D01*
X0374165Y0138822D01*
X0374165Y0137714D01*
X0374165Y0137990D02*
X0371285Y0137990D01*
X0371285Y0138266D02*
X0374165Y0138266D01*
X0374165Y0138542D02*
X0371285Y0138542D01*
X0371285Y0138818D02*
X0374165Y0138818D01*
X0374165Y0139682D02*
X0371285Y0139682D01*
X0371285Y0140790D01*
X0374165Y0140790D01*
X0374165Y0139682D01*
X0374165Y0139958D02*
X0371285Y0139958D01*
X0371285Y0140234D02*
X0374165Y0140234D01*
X0374165Y0140510D02*
X0371285Y0140510D01*
X0371285Y0140786D02*
X0374165Y0140786D01*
X0374165Y0141651D02*
X0371285Y0141651D01*
X0371285Y0142759D01*
X0374165Y0142759D01*
X0374165Y0141651D01*
X0374165Y0141927D02*
X0371285Y0141927D01*
X0371285Y0142203D02*
X0374165Y0142203D01*
X0374165Y0142479D02*
X0371285Y0142479D01*
X0371285Y0142755D02*
X0374165Y0142755D01*
X0374165Y0143619D02*
X0371285Y0143619D01*
X0371285Y0144727D01*
X0374165Y0144727D01*
X0374165Y0143619D01*
X0374165Y0143895D02*
X0371285Y0143895D01*
X0371285Y0144171D02*
X0374165Y0144171D01*
X0374165Y0144447D02*
X0371285Y0144447D01*
X0371285Y0144723D02*
X0374165Y0144723D01*
X0374165Y0145588D02*
X0371285Y0145588D01*
X0371285Y0146696D01*
X0374165Y0146696D01*
X0374165Y0145588D01*
X0374165Y0145864D02*
X0371285Y0145864D01*
X0371285Y0146140D02*
X0374165Y0146140D01*
X0374165Y0146416D02*
X0371285Y0146416D01*
X0371285Y0146692D02*
X0374165Y0146692D01*
X0374165Y0147556D02*
X0371285Y0147556D01*
X0371285Y0148664D01*
X0374165Y0148664D01*
X0374165Y0147556D01*
X0374165Y0147832D02*
X0371285Y0147832D01*
X0371285Y0148108D02*
X0374165Y0148108D01*
X0374165Y0148384D02*
X0371285Y0148384D01*
X0371285Y0148660D02*
X0374165Y0148660D01*
X0374165Y0149525D02*
X0371285Y0149525D01*
X0371285Y0150633D01*
X0374165Y0150633D01*
X0374165Y0149525D01*
X0374165Y0149801D02*
X0371285Y0149801D01*
X0371285Y0150077D02*
X0374165Y0150077D01*
X0374165Y0150353D02*
X0371285Y0150353D01*
X0371285Y0150629D02*
X0374165Y0150629D01*
X0374165Y0151493D02*
X0371285Y0151493D01*
X0371285Y0152601D01*
X0374165Y0152601D01*
X0374165Y0151493D01*
X0374165Y0151769D02*
X0371285Y0151769D01*
X0371285Y0152045D02*
X0374165Y0152045D01*
X0374165Y0152321D02*
X0371285Y0152321D01*
X0371285Y0152597D02*
X0374165Y0152597D01*
X0374165Y0153462D02*
X0371285Y0153462D01*
X0371285Y0154570D01*
X0374165Y0154570D01*
X0374165Y0153462D01*
X0374165Y0153738D02*
X0371285Y0153738D01*
X0371285Y0154014D02*
X0374165Y0154014D01*
X0374165Y0154290D02*
X0371285Y0154290D01*
X0371285Y0154566D02*
X0374165Y0154566D01*
X0374165Y0155430D02*
X0371285Y0155430D01*
X0371285Y0156538D01*
X0374165Y0156538D01*
X0374165Y0155430D01*
X0374165Y0155706D02*
X0371285Y0155706D01*
X0371285Y0155982D02*
X0374165Y0155982D01*
X0374165Y0156258D02*
X0371285Y0156258D01*
X0371285Y0156534D02*
X0374165Y0156534D01*
X0370720Y0157103D02*
X0370720Y0159983D01*
X0370720Y0157103D02*
X0369612Y0157103D01*
X0369612Y0159983D01*
X0370720Y0159983D01*
X0370720Y0157379D02*
X0369612Y0157379D01*
X0369612Y0157655D02*
X0370720Y0157655D01*
X0370720Y0157931D02*
X0369612Y0157931D01*
X0369612Y0158207D02*
X0370720Y0158207D01*
X0370720Y0158483D02*
X0369612Y0158483D01*
X0369612Y0158759D02*
X0370720Y0158759D01*
X0370720Y0159035D02*
X0369612Y0159035D01*
X0369612Y0159311D02*
X0370720Y0159311D01*
X0370720Y0159587D02*
X0369612Y0159587D01*
X0369612Y0159863D02*
X0370720Y0159863D01*
X0368752Y0159983D02*
X0368752Y0155923D01*
X0367644Y0155923D01*
X0367644Y0159983D01*
X0368752Y0159983D01*
X0368752Y0156199D02*
X0367644Y0156199D01*
X0367644Y0156475D02*
X0368752Y0156475D01*
X0368752Y0156751D02*
X0367644Y0156751D01*
X0367644Y0157027D02*
X0368752Y0157027D01*
X0368752Y0157303D02*
X0367644Y0157303D01*
X0367644Y0157579D02*
X0368752Y0157579D01*
X0368752Y0157855D02*
X0367644Y0157855D01*
X0367644Y0158131D02*
X0368752Y0158131D01*
X0368752Y0158407D02*
X0367644Y0158407D01*
X0367644Y0158683D02*
X0368752Y0158683D01*
X0368752Y0158959D02*
X0367644Y0158959D01*
X0367644Y0159235D02*
X0368752Y0159235D01*
X0368752Y0159511D02*
X0367644Y0159511D01*
X0367644Y0159787D02*
X0368752Y0159787D01*
X0366783Y0159983D02*
X0366783Y0157103D01*
X0365675Y0157103D01*
X0365675Y0159983D01*
X0366783Y0159983D01*
X0366783Y0157379D02*
X0365675Y0157379D01*
X0365675Y0157655D02*
X0366783Y0157655D01*
X0366783Y0157931D02*
X0365675Y0157931D01*
X0365675Y0158207D02*
X0366783Y0158207D01*
X0366783Y0158483D02*
X0365675Y0158483D01*
X0365675Y0158759D02*
X0366783Y0158759D01*
X0366783Y0159035D02*
X0365675Y0159035D01*
X0365675Y0159311D02*
X0366783Y0159311D01*
X0366783Y0159587D02*
X0365675Y0159587D01*
X0365675Y0159863D02*
X0366783Y0159863D01*
X0364815Y0159983D02*
X0364815Y0157103D01*
X0363707Y0157103D01*
X0363707Y0159983D01*
X0364815Y0159983D01*
X0364815Y0157379D02*
X0363707Y0157379D01*
X0363707Y0157655D02*
X0364815Y0157655D01*
X0364815Y0157931D02*
X0363707Y0157931D01*
X0363707Y0158207D02*
X0364815Y0158207D01*
X0364815Y0158483D02*
X0363707Y0158483D01*
X0363707Y0158759D02*
X0364815Y0158759D01*
X0364815Y0159035D02*
X0363707Y0159035D01*
X0363707Y0159311D02*
X0364815Y0159311D01*
X0364815Y0159587D02*
X0363707Y0159587D01*
X0363707Y0159863D02*
X0364815Y0159863D01*
X0362846Y0159983D02*
X0362846Y0157103D01*
X0361738Y0157103D01*
X0361738Y0159983D01*
X0362846Y0159983D01*
X0362846Y0157379D02*
X0361738Y0157379D01*
X0361738Y0157655D02*
X0362846Y0157655D01*
X0362846Y0157931D02*
X0361738Y0157931D01*
X0361738Y0158207D02*
X0362846Y0158207D01*
X0362846Y0158483D02*
X0361738Y0158483D01*
X0361738Y0158759D02*
X0362846Y0158759D01*
X0362846Y0159035D02*
X0361738Y0159035D01*
X0361738Y0159311D02*
X0362846Y0159311D01*
X0362846Y0159587D02*
X0361738Y0159587D01*
X0361738Y0159863D02*
X0362846Y0159863D01*
X0360878Y0159983D02*
X0360878Y0157103D01*
X0359770Y0157103D01*
X0359770Y0159983D01*
X0360878Y0159983D01*
X0360878Y0157379D02*
X0359770Y0157379D01*
X0359770Y0157655D02*
X0360878Y0157655D01*
X0360878Y0157931D02*
X0359770Y0157931D01*
X0359770Y0158207D02*
X0360878Y0158207D01*
X0360878Y0158483D02*
X0359770Y0158483D01*
X0359770Y0158759D02*
X0360878Y0158759D01*
X0360878Y0159035D02*
X0359770Y0159035D01*
X0359770Y0159311D02*
X0360878Y0159311D01*
X0360878Y0159587D02*
X0359770Y0159587D01*
X0359770Y0159863D02*
X0360878Y0159863D01*
X0358909Y0159983D02*
X0358909Y0157103D01*
X0357801Y0157103D01*
X0357801Y0159983D01*
X0358909Y0159983D01*
X0358909Y0157379D02*
X0357801Y0157379D01*
X0357801Y0157655D02*
X0358909Y0157655D01*
X0358909Y0157931D02*
X0357801Y0157931D01*
X0357801Y0158207D02*
X0358909Y0158207D01*
X0358909Y0158483D02*
X0357801Y0158483D01*
X0357801Y0158759D02*
X0358909Y0158759D01*
X0358909Y0159035D02*
X0357801Y0159035D01*
X0357801Y0159311D02*
X0358909Y0159311D01*
X0358909Y0159587D02*
X0357801Y0159587D01*
X0357801Y0159863D02*
X0358909Y0159863D01*
X0356941Y0159983D02*
X0356941Y0157103D01*
X0355833Y0157103D01*
X0355833Y0159983D01*
X0356941Y0159983D01*
X0356941Y0157379D02*
X0355833Y0157379D01*
X0355833Y0157655D02*
X0356941Y0157655D01*
X0356941Y0157931D02*
X0355833Y0157931D01*
X0355833Y0158207D02*
X0356941Y0158207D01*
X0356941Y0158483D02*
X0355833Y0158483D01*
X0355833Y0158759D02*
X0356941Y0158759D01*
X0356941Y0159035D02*
X0355833Y0159035D01*
X0355833Y0159311D02*
X0356941Y0159311D01*
X0356941Y0159587D02*
X0355833Y0159587D01*
X0355833Y0159863D02*
X0356941Y0159863D01*
X0355268Y0156538D02*
X0352388Y0156538D01*
X0355268Y0156538D02*
X0355268Y0155430D01*
X0352388Y0155430D01*
X0352388Y0156538D01*
X0352388Y0155706D02*
X0355268Y0155706D01*
X0355268Y0155982D02*
X0352388Y0155982D01*
X0352388Y0156258D02*
X0355268Y0156258D01*
X0355268Y0156534D02*
X0352388Y0156534D01*
X0352388Y0154570D02*
X0355268Y0154570D01*
X0355268Y0153462D01*
X0352388Y0153462D01*
X0352388Y0154570D01*
X0352388Y0153738D02*
X0355268Y0153738D01*
X0355268Y0154014D02*
X0352388Y0154014D01*
X0352388Y0154290D02*
X0355268Y0154290D01*
X0355268Y0154566D02*
X0352388Y0154566D01*
X0352388Y0152601D02*
X0355268Y0152601D01*
X0355268Y0151493D01*
X0352388Y0151493D01*
X0352388Y0152601D01*
X0352388Y0151769D02*
X0355268Y0151769D01*
X0355268Y0152045D02*
X0352388Y0152045D01*
X0352388Y0152321D02*
X0355268Y0152321D01*
X0355268Y0152597D02*
X0352388Y0152597D01*
X0352388Y0150633D02*
X0355268Y0150633D01*
X0355268Y0149525D01*
X0352388Y0149525D01*
X0352388Y0150633D01*
X0352388Y0149801D02*
X0355268Y0149801D01*
X0355268Y0150077D02*
X0352388Y0150077D01*
X0352388Y0150353D02*
X0355268Y0150353D01*
X0355268Y0150629D02*
X0352388Y0150629D01*
X0352388Y0148664D02*
X0355268Y0148664D01*
X0355268Y0147556D01*
X0352388Y0147556D01*
X0352388Y0148664D01*
X0352388Y0147832D02*
X0355268Y0147832D01*
X0355268Y0148108D02*
X0352388Y0148108D01*
X0352388Y0148384D02*
X0355268Y0148384D01*
X0355268Y0148660D02*
X0352388Y0148660D01*
X0352388Y0146696D02*
X0356448Y0146696D01*
X0356448Y0145588D01*
X0352388Y0145588D01*
X0352388Y0146696D01*
X0352388Y0145864D02*
X0356448Y0145864D01*
X0356448Y0146140D02*
X0352388Y0146140D01*
X0352388Y0146416D02*
X0356448Y0146416D01*
X0356448Y0146692D02*
X0352388Y0146692D01*
X0352388Y0144727D02*
X0355268Y0144727D01*
X0355268Y0143619D01*
X0352388Y0143619D01*
X0352388Y0144727D01*
X0352388Y0143895D02*
X0355268Y0143895D01*
X0355268Y0144171D02*
X0352388Y0144171D01*
X0352388Y0144447D02*
X0355268Y0144447D01*
X0355268Y0144723D02*
X0352388Y0144723D01*
X0352388Y0142759D02*
X0355268Y0142759D01*
X0355268Y0141651D01*
X0352388Y0141651D01*
X0352388Y0142759D01*
X0352388Y0141927D02*
X0355268Y0141927D01*
X0355268Y0142203D02*
X0352388Y0142203D01*
X0352388Y0142479D02*
X0355268Y0142479D01*
X0355268Y0142755D02*
X0352388Y0142755D01*
X0352388Y0140790D02*
X0355268Y0140790D01*
X0355268Y0139682D01*
X0352388Y0139682D01*
X0352388Y0140790D01*
X0352388Y0139958D02*
X0355268Y0139958D01*
X0355268Y0140234D02*
X0352388Y0140234D01*
X0352388Y0140510D02*
X0355268Y0140510D01*
X0355268Y0140786D02*
X0352388Y0140786D01*
X0355833Y0137149D02*
X0355833Y0134269D01*
X0355833Y0137149D02*
X0356941Y0137149D01*
X0356941Y0134269D01*
X0355833Y0134269D01*
X0355833Y0134545D02*
X0356941Y0134545D01*
X0356941Y0134821D02*
X0355833Y0134821D01*
X0355833Y0135097D02*
X0356941Y0135097D01*
X0356941Y0135373D02*
X0355833Y0135373D01*
X0355833Y0135649D02*
X0356941Y0135649D01*
X0356941Y0135925D02*
X0355833Y0135925D01*
X0355833Y0136201D02*
X0356941Y0136201D01*
X0356941Y0136477D02*
X0355833Y0136477D01*
X0355833Y0136753D02*
X0356941Y0136753D01*
X0356941Y0137029D02*
X0355833Y0137029D01*
X0357801Y0137149D02*
X0357801Y0134269D01*
X0357801Y0137149D02*
X0358909Y0137149D01*
X0358909Y0134269D01*
X0357801Y0134269D01*
X0357801Y0134545D02*
X0358909Y0134545D01*
X0358909Y0134821D02*
X0357801Y0134821D01*
X0357801Y0135097D02*
X0358909Y0135097D01*
X0358909Y0135373D02*
X0357801Y0135373D01*
X0357801Y0135649D02*
X0358909Y0135649D01*
X0358909Y0135925D02*
X0357801Y0135925D01*
X0357801Y0136201D02*
X0358909Y0136201D01*
X0358909Y0136477D02*
X0357801Y0136477D01*
X0357801Y0136753D02*
X0358909Y0136753D01*
X0358909Y0137029D02*
X0357801Y0137029D01*
X0359770Y0137149D02*
X0359770Y0134269D01*
X0359770Y0137149D02*
X0360878Y0137149D01*
X0360878Y0134269D01*
X0359770Y0134269D01*
X0359770Y0134545D02*
X0360878Y0134545D01*
X0360878Y0134821D02*
X0359770Y0134821D01*
X0359770Y0135097D02*
X0360878Y0135097D01*
X0360878Y0135373D02*
X0359770Y0135373D01*
X0359770Y0135649D02*
X0360878Y0135649D01*
X0360878Y0135925D02*
X0359770Y0135925D01*
X0359770Y0136201D02*
X0360878Y0136201D01*
X0360878Y0136477D02*
X0359770Y0136477D01*
X0359770Y0136753D02*
X0360878Y0136753D01*
X0360878Y0137029D02*
X0359770Y0137029D01*
X0361738Y0137149D02*
X0361738Y0134269D01*
X0361738Y0137149D02*
X0362846Y0137149D01*
X0362846Y0134269D01*
X0361738Y0134269D01*
X0361738Y0134545D02*
X0362846Y0134545D01*
X0362846Y0134821D02*
X0361738Y0134821D01*
X0361738Y0135097D02*
X0362846Y0135097D01*
X0362846Y0135373D02*
X0361738Y0135373D01*
X0361738Y0135649D02*
X0362846Y0135649D01*
X0362846Y0135925D02*
X0361738Y0135925D01*
X0361738Y0136201D02*
X0362846Y0136201D01*
X0362846Y0136477D02*
X0361738Y0136477D01*
X0361738Y0136753D02*
X0362846Y0136753D01*
X0362846Y0137029D02*
X0361738Y0137029D01*
X0363707Y0137149D02*
X0363707Y0134269D01*
X0363707Y0137149D02*
X0364815Y0137149D01*
X0364815Y0134269D01*
X0363707Y0134269D01*
X0363707Y0134545D02*
X0364815Y0134545D01*
X0364815Y0134821D02*
X0363707Y0134821D01*
X0363707Y0135097D02*
X0364815Y0135097D01*
X0364815Y0135373D02*
X0363707Y0135373D01*
X0363707Y0135649D02*
X0364815Y0135649D01*
X0364815Y0135925D02*
X0363707Y0135925D01*
X0363707Y0136201D02*
X0364815Y0136201D01*
X0364815Y0136477D02*
X0363707Y0136477D01*
X0363707Y0136753D02*
X0364815Y0136753D01*
X0364815Y0137029D02*
X0363707Y0137029D01*
X0365675Y0137149D02*
X0365675Y0134269D01*
X0365675Y0137149D02*
X0366783Y0137149D01*
X0366783Y0134269D01*
X0365675Y0134269D01*
X0365675Y0134545D02*
X0366783Y0134545D01*
X0366783Y0134821D02*
X0365675Y0134821D01*
X0365675Y0135097D02*
X0366783Y0135097D01*
X0366783Y0135373D02*
X0365675Y0135373D01*
X0365675Y0135649D02*
X0366783Y0135649D01*
X0366783Y0135925D02*
X0365675Y0135925D01*
X0365675Y0136201D02*
X0366783Y0136201D01*
X0366783Y0136477D02*
X0365675Y0136477D01*
X0365675Y0136753D02*
X0366783Y0136753D01*
X0366783Y0137029D02*
X0365675Y0137029D01*
X0367644Y0138329D02*
X0367644Y0134269D01*
X0367644Y0138329D02*
X0368752Y0138329D01*
X0368752Y0134269D01*
X0367644Y0134269D01*
X0367644Y0134545D02*
X0368752Y0134545D01*
X0368752Y0134821D02*
X0367644Y0134821D01*
X0367644Y0135097D02*
X0368752Y0135097D01*
X0368752Y0135373D02*
X0367644Y0135373D01*
X0367644Y0135649D02*
X0368752Y0135649D01*
X0368752Y0135925D02*
X0367644Y0135925D01*
X0367644Y0136201D02*
X0368752Y0136201D01*
X0368752Y0136477D02*
X0367644Y0136477D01*
X0367644Y0136753D02*
X0368752Y0136753D01*
X0368752Y0137029D02*
X0367644Y0137029D01*
X0367644Y0137305D02*
X0368752Y0137305D01*
X0368752Y0137581D02*
X0367644Y0137581D01*
X0367644Y0137857D02*
X0368752Y0137857D01*
X0368752Y0138133D02*
X0367644Y0138133D01*
X0369612Y0137149D02*
X0369612Y0134269D01*
X0369612Y0137149D02*
X0370720Y0137149D01*
X0370720Y0134269D01*
X0369612Y0134269D01*
X0369612Y0134545D02*
X0370720Y0134545D01*
X0370720Y0134821D02*
X0369612Y0134821D01*
X0369612Y0135097D02*
X0370720Y0135097D01*
X0370720Y0135373D02*
X0369612Y0135373D01*
X0369612Y0135649D02*
X0370720Y0135649D01*
X0370720Y0135925D02*
X0369612Y0135925D01*
X0369612Y0136201D02*
X0370720Y0136201D01*
X0370720Y0136477D02*
X0369612Y0136477D01*
X0369612Y0136753D02*
X0370720Y0136753D01*
X0370720Y0137029D02*
X0369612Y0137029D01*
X0322000Y0137714D02*
X0319120Y0137714D01*
X0319120Y0138822D01*
X0322000Y0138822D01*
X0322000Y0137714D01*
X0322000Y0137990D02*
X0319120Y0137990D01*
X0319120Y0138266D02*
X0322000Y0138266D01*
X0322000Y0138542D02*
X0319120Y0138542D01*
X0319120Y0138818D02*
X0322000Y0138818D01*
X0322000Y0139682D02*
X0319120Y0139682D01*
X0319120Y0140790D01*
X0322000Y0140790D01*
X0322000Y0139682D01*
X0322000Y0139958D02*
X0319120Y0139958D01*
X0319120Y0140234D02*
X0322000Y0140234D01*
X0322000Y0140510D02*
X0319120Y0140510D01*
X0319120Y0140786D02*
X0322000Y0140786D01*
X0322000Y0141651D02*
X0319120Y0141651D01*
X0319120Y0142759D01*
X0322000Y0142759D01*
X0322000Y0141651D01*
X0322000Y0141927D02*
X0319120Y0141927D01*
X0319120Y0142203D02*
X0322000Y0142203D01*
X0322000Y0142479D02*
X0319120Y0142479D01*
X0319120Y0142755D02*
X0322000Y0142755D01*
X0322000Y0143619D02*
X0319120Y0143619D01*
X0319120Y0144727D01*
X0322000Y0144727D01*
X0322000Y0143619D01*
X0322000Y0143895D02*
X0319120Y0143895D01*
X0319120Y0144171D02*
X0322000Y0144171D01*
X0322000Y0144447D02*
X0319120Y0144447D01*
X0319120Y0144723D02*
X0322000Y0144723D01*
X0322000Y0145588D02*
X0319120Y0145588D01*
X0319120Y0146696D01*
X0322000Y0146696D01*
X0322000Y0145588D01*
X0322000Y0145864D02*
X0319120Y0145864D01*
X0319120Y0146140D02*
X0322000Y0146140D01*
X0322000Y0146416D02*
X0319120Y0146416D01*
X0319120Y0146692D02*
X0322000Y0146692D01*
X0322000Y0147556D02*
X0319120Y0147556D01*
X0319120Y0148664D01*
X0322000Y0148664D01*
X0322000Y0147556D01*
X0322000Y0147832D02*
X0319120Y0147832D01*
X0319120Y0148108D02*
X0322000Y0148108D01*
X0322000Y0148384D02*
X0319120Y0148384D01*
X0319120Y0148660D02*
X0322000Y0148660D01*
X0322000Y0149525D02*
X0319120Y0149525D01*
X0319120Y0150633D01*
X0322000Y0150633D01*
X0322000Y0149525D01*
X0322000Y0149801D02*
X0319120Y0149801D01*
X0319120Y0150077D02*
X0322000Y0150077D01*
X0322000Y0150353D02*
X0319120Y0150353D01*
X0319120Y0150629D02*
X0322000Y0150629D01*
X0322000Y0151493D02*
X0319120Y0151493D01*
X0319120Y0152601D01*
X0322000Y0152601D01*
X0322000Y0151493D01*
X0322000Y0151769D02*
X0319120Y0151769D01*
X0319120Y0152045D02*
X0322000Y0152045D01*
X0322000Y0152321D02*
X0319120Y0152321D01*
X0319120Y0152597D02*
X0322000Y0152597D01*
X0322000Y0153462D02*
X0319120Y0153462D01*
X0319120Y0154570D01*
X0322000Y0154570D01*
X0322000Y0153462D01*
X0322000Y0153738D02*
X0319120Y0153738D01*
X0319120Y0154014D02*
X0322000Y0154014D01*
X0322000Y0154290D02*
X0319120Y0154290D01*
X0319120Y0154566D02*
X0322000Y0154566D01*
X0322000Y0155430D02*
X0319120Y0155430D01*
X0319120Y0156538D01*
X0322000Y0156538D01*
X0322000Y0155430D01*
X0322000Y0155706D02*
X0319120Y0155706D01*
X0319120Y0155982D02*
X0322000Y0155982D01*
X0322000Y0156258D02*
X0319120Y0156258D01*
X0319120Y0156534D02*
X0322000Y0156534D01*
X0318555Y0157103D02*
X0318555Y0159983D01*
X0318555Y0157103D02*
X0317447Y0157103D01*
X0317447Y0159983D01*
X0318555Y0159983D01*
X0318555Y0157379D02*
X0317447Y0157379D01*
X0317447Y0157655D02*
X0318555Y0157655D01*
X0318555Y0157931D02*
X0317447Y0157931D01*
X0317447Y0158207D02*
X0318555Y0158207D01*
X0318555Y0158483D02*
X0317447Y0158483D01*
X0317447Y0158759D02*
X0318555Y0158759D01*
X0318555Y0159035D02*
X0317447Y0159035D01*
X0317447Y0159311D02*
X0318555Y0159311D01*
X0318555Y0159587D02*
X0317447Y0159587D01*
X0317447Y0159863D02*
X0318555Y0159863D01*
X0316586Y0159983D02*
X0316586Y0155923D01*
X0315478Y0155923D01*
X0315478Y0159983D01*
X0316586Y0159983D01*
X0316586Y0156199D02*
X0315478Y0156199D01*
X0315478Y0156475D02*
X0316586Y0156475D01*
X0316586Y0156751D02*
X0315478Y0156751D01*
X0315478Y0157027D02*
X0316586Y0157027D01*
X0316586Y0157303D02*
X0315478Y0157303D01*
X0315478Y0157579D02*
X0316586Y0157579D01*
X0316586Y0157855D02*
X0315478Y0157855D01*
X0315478Y0158131D02*
X0316586Y0158131D01*
X0316586Y0158407D02*
X0315478Y0158407D01*
X0315478Y0158683D02*
X0316586Y0158683D01*
X0316586Y0158959D02*
X0315478Y0158959D01*
X0315478Y0159235D02*
X0316586Y0159235D01*
X0316586Y0159511D02*
X0315478Y0159511D01*
X0315478Y0159787D02*
X0316586Y0159787D01*
X0314618Y0159983D02*
X0314618Y0157103D01*
X0313510Y0157103D01*
X0313510Y0159983D01*
X0314618Y0159983D01*
X0314618Y0157379D02*
X0313510Y0157379D01*
X0313510Y0157655D02*
X0314618Y0157655D01*
X0314618Y0157931D02*
X0313510Y0157931D01*
X0313510Y0158207D02*
X0314618Y0158207D01*
X0314618Y0158483D02*
X0313510Y0158483D01*
X0313510Y0158759D02*
X0314618Y0158759D01*
X0314618Y0159035D02*
X0313510Y0159035D01*
X0313510Y0159311D02*
X0314618Y0159311D01*
X0314618Y0159587D02*
X0313510Y0159587D01*
X0313510Y0159863D02*
X0314618Y0159863D01*
X0312649Y0159983D02*
X0312649Y0157103D01*
X0311541Y0157103D01*
X0311541Y0159983D01*
X0312649Y0159983D01*
X0312649Y0157379D02*
X0311541Y0157379D01*
X0311541Y0157655D02*
X0312649Y0157655D01*
X0312649Y0157931D02*
X0311541Y0157931D01*
X0311541Y0158207D02*
X0312649Y0158207D01*
X0312649Y0158483D02*
X0311541Y0158483D01*
X0311541Y0158759D02*
X0312649Y0158759D01*
X0312649Y0159035D02*
X0311541Y0159035D01*
X0311541Y0159311D02*
X0312649Y0159311D01*
X0312649Y0159587D02*
X0311541Y0159587D01*
X0311541Y0159863D02*
X0312649Y0159863D01*
X0310681Y0159983D02*
X0310681Y0157103D01*
X0309573Y0157103D01*
X0309573Y0159983D01*
X0310681Y0159983D01*
X0310681Y0157379D02*
X0309573Y0157379D01*
X0309573Y0157655D02*
X0310681Y0157655D01*
X0310681Y0157931D02*
X0309573Y0157931D01*
X0309573Y0158207D02*
X0310681Y0158207D01*
X0310681Y0158483D02*
X0309573Y0158483D01*
X0309573Y0158759D02*
X0310681Y0158759D01*
X0310681Y0159035D02*
X0309573Y0159035D01*
X0309573Y0159311D02*
X0310681Y0159311D01*
X0310681Y0159587D02*
X0309573Y0159587D01*
X0309573Y0159863D02*
X0310681Y0159863D01*
X0308712Y0159983D02*
X0308712Y0157103D01*
X0307604Y0157103D01*
X0307604Y0159983D01*
X0308712Y0159983D01*
X0308712Y0157379D02*
X0307604Y0157379D01*
X0307604Y0157655D02*
X0308712Y0157655D01*
X0308712Y0157931D02*
X0307604Y0157931D01*
X0307604Y0158207D02*
X0308712Y0158207D01*
X0308712Y0158483D02*
X0307604Y0158483D01*
X0307604Y0158759D02*
X0308712Y0158759D01*
X0308712Y0159035D02*
X0307604Y0159035D01*
X0307604Y0159311D02*
X0308712Y0159311D01*
X0308712Y0159587D02*
X0307604Y0159587D01*
X0307604Y0159863D02*
X0308712Y0159863D01*
X0306744Y0159983D02*
X0306744Y0157103D01*
X0305636Y0157103D01*
X0305636Y0159983D01*
X0306744Y0159983D01*
X0306744Y0157379D02*
X0305636Y0157379D01*
X0305636Y0157655D02*
X0306744Y0157655D01*
X0306744Y0157931D02*
X0305636Y0157931D01*
X0305636Y0158207D02*
X0306744Y0158207D01*
X0306744Y0158483D02*
X0305636Y0158483D01*
X0305636Y0158759D02*
X0306744Y0158759D01*
X0306744Y0159035D02*
X0305636Y0159035D01*
X0305636Y0159311D02*
X0306744Y0159311D01*
X0306744Y0159587D02*
X0305636Y0159587D01*
X0305636Y0159863D02*
X0306744Y0159863D01*
X0304775Y0159983D02*
X0304775Y0157103D01*
X0303667Y0157103D01*
X0303667Y0159983D01*
X0304775Y0159983D01*
X0304775Y0157379D02*
X0303667Y0157379D01*
X0303667Y0157655D02*
X0304775Y0157655D01*
X0304775Y0157931D02*
X0303667Y0157931D01*
X0303667Y0158207D02*
X0304775Y0158207D01*
X0304775Y0158483D02*
X0303667Y0158483D01*
X0303667Y0158759D02*
X0304775Y0158759D01*
X0304775Y0159035D02*
X0303667Y0159035D01*
X0303667Y0159311D02*
X0304775Y0159311D01*
X0304775Y0159587D02*
X0303667Y0159587D01*
X0303667Y0159863D02*
X0304775Y0159863D01*
X0303102Y0156538D02*
X0300222Y0156538D01*
X0303102Y0156538D02*
X0303102Y0155430D01*
X0300222Y0155430D01*
X0300222Y0156538D01*
X0300222Y0155706D02*
X0303102Y0155706D01*
X0303102Y0155982D02*
X0300222Y0155982D01*
X0300222Y0156258D02*
X0303102Y0156258D01*
X0303102Y0156534D02*
X0300222Y0156534D01*
X0300222Y0154570D02*
X0303102Y0154570D01*
X0303102Y0153462D01*
X0300222Y0153462D01*
X0300222Y0154570D01*
X0300222Y0153738D02*
X0303102Y0153738D01*
X0303102Y0154014D02*
X0300222Y0154014D01*
X0300222Y0154290D02*
X0303102Y0154290D01*
X0303102Y0154566D02*
X0300222Y0154566D01*
X0300222Y0152601D02*
X0303102Y0152601D01*
X0303102Y0151493D01*
X0300222Y0151493D01*
X0300222Y0152601D01*
X0300222Y0151769D02*
X0303102Y0151769D01*
X0303102Y0152045D02*
X0300222Y0152045D01*
X0300222Y0152321D02*
X0303102Y0152321D01*
X0303102Y0152597D02*
X0300222Y0152597D01*
X0300222Y0150633D02*
X0303102Y0150633D01*
X0303102Y0149525D01*
X0300222Y0149525D01*
X0300222Y0150633D01*
X0300222Y0149801D02*
X0303102Y0149801D01*
X0303102Y0150077D02*
X0300222Y0150077D01*
X0300222Y0150353D02*
X0303102Y0150353D01*
X0303102Y0150629D02*
X0300222Y0150629D01*
X0300222Y0148664D02*
X0303102Y0148664D01*
X0303102Y0147556D01*
X0300222Y0147556D01*
X0300222Y0148664D01*
X0300222Y0147832D02*
X0303102Y0147832D01*
X0303102Y0148108D02*
X0300222Y0148108D01*
X0300222Y0148384D02*
X0303102Y0148384D01*
X0303102Y0148660D02*
X0300222Y0148660D01*
X0300223Y0146696D02*
X0304283Y0146696D01*
X0304283Y0145588D01*
X0300223Y0145588D01*
X0300223Y0146696D01*
X0300223Y0145864D02*
X0304283Y0145864D01*
X0304283Y0146140D02*
X0300223Y0146140D01*
X0300223Y0146416D02*
X0304283Y0146416D01*
X0304283Y0146692D02*
X0300223Y0146692D01*
X0300222Y0144727D02*
X0303102Y0144727D01*
X0303102Y0143619D01*
X0300222Y0143619D01*
X0300222Y0144727D01*
X0300222Y0143895D02*
X0303102Y0143895D01*
X0303102Y0144171D02*
X0300222Y0144171D01*
X0300222Y0144447D02*
X0303102Y0144447D01*
X0303102Y0144723D02*
X0300222Y0144723D01*
X0300222Y0142759D02*
X0303102Y0142759D01*
X0303102Y0141651D01*
X0300222Y0141651D01*
X0300222Y0142759D01*
X0300222Y0141927D02*
X0303102Y0141927D01*
X0303102Y0142203D02*
X0300222Y0142203D01*
X0300222Y0142479D02*
X0303102Y0142479D01*
X0303102Y0142755D02*
X0300222Y0142755D01*
X0300222Y0140790D02*
X0303102Y0140790D01*
X0303102Y0139682D01*
X0300222Y0139682D01*
X0300222Y0140790D01*
X0300222Y0139958D02*
X0303102Y0139958D01*
X0303102Y0140234D02*
X0300222Y0140234D01*
X0300222Y0140510D02*
X0303102Y0140510D01*
X0303102Y0140786D02*
X0300222Y0140786D01*
X0303667Y0137149D02*
X0303667Y0134269D01*
X0303667Y0137149D02*
X0304775Y0137149D01*
X0304775Y0134269D01*
X0303667Y0134269D01*
X0303667Y0134545D02*
X0304775Y0134545D01*
X0304775Y0134821D02*
X0303667Y0134821D01*
X0303667Y0135097D02*
X0304775Y0135097D01*
X0304775Y0135373D02*
X0303667Y0135373D01*
X0303667Y0135649D02*
X0304775Y0135649D01*
X0304775Y0135925D02*
X0303667Y0135925D01*
X0303667Y0136201D02*
X0304775Y0136201D01*
X0304775Y0136477D02*
X0303667Y0136477D01*
X0303667Y0136753D02*
X0304775Y0136753D01*
X0304775Y0137029D02*
X0303667Y0137029D01*
X0305636Y0137149D02*
X0305636Y0134269D01*
X0305636Y0137149D02*
X0306744Y0137149D01*
X0306744Y0134269D01*
X0305636Y0134269D01*
X0305636Y0134545D02*
X0306744Y0134545D01*
X0306744Y0134821D02*
X0305636Y0134821D01*
X0305636Y0135097D02*
X0306744Y0135097D01*
X0306744Y0135373D02*
X0305636Y0135373D01*
X0305636Y0135649D02*
X0306744Y0135649D01*
X0306744Y0135925D02*
X0305636Y0135925D01*
X0305636Y0136201D02*
X0306744Y0136201D01*
X0306744Y0136477D02*
X0305636Y0136477D01*
X0305636Y0136753D02*
X0306744Y0136753D01*
X0306744Y0137029D02*
X0305636Y0137029D01*
X0307604Y0137149D02*
X0307604Y0134269D01*
X0307604Y0137149D02*
X0308712Y0137149D01*
X0308712Y0134269D01*
X0307604Y0134269D01*
X0307604Y0134545D02*
X0308712Y0134545D01*
X0308712Y0134821D02*
X0307604Y0134821D01*
X0307604Y0135097D02*
X0308712Y0135097D01*
X0308712Y0135373D02*
X0307604Y0135373D01*
X0307604Y0135649D02*
X0308712Y0135649D01*
X0308712Y0135925D02*
X0307604Y0135925D01*
X0307604Y0136201D02*
X0308712Y0136201D01*
X0308712Y0136477D02*
X0307604Y0136477D01*
X0307604Y0136753D02*
X0308712Y0136753D01*
X0308712Y0137029D02*
X0307604Y0137029D01*
X0309573Y0137149D02*
X0309573Y0134269D01*
X0309573Y0137149D02*
X0310681Y0137149D01*
X0310681Y0134269D01*
X0309573Y0134269D01*
X0309573Y0134545D02*
X0310681Y0134545D01*
X0310681Y0134821D02*
X0309573Y0134821D01*
X0309573Y0135097D02*
X0310681Y0135097D01*
X0310681Y0135373D02*
X0309573Y0135373D01*
X0309573Y0135649D02*
X0310681Y0135649D01*
X0310681Y0135925D02*
X0309573Y0135925D01*
X0309573Y0136201D02*
X0310681Y0136201D01*
X0310681Y0136477D02*
X0309573Y0136477D01*
X0309573Y0136753D02*
X0310681Y0136753D01*
X0310681Y0137029D02*
X0309573Y0137029D01*
X0311541Y0137149D02*
X0311541Y0134269D01*
X0311541Y0137149D02*
X0312649Y0137149D01*
X0312649Y0134269D01*
X0311541Y0134269D01*
X0311541Y0134545D02*
X0312649Y0134545D01*
X0312649Y0134821D02*
X0311541Y0134821D01*
X0311541Y0135097D02*
X0312649Y0135097D01*
X0312649Y0135373D02*
X0311541Y0135373D01*
X0311541Y0135649D02*
X0312649Y0135649D01*
X0312649Y0135925D02*
X0311541Y0135925D01*
X0311541Y0136201D02*
X0312649Y0136201D01*
X0312649Y0136477D02*
X0311541Y0136477D01*
X0311541Y0136753D02*
X0312649Y0136753D01*
X0312649Y0137029D02*
X0311541Y0137029D01*
X0313510Y0137149D02*
X0313510Y0134269D01*
X0313510Y0137149D02*
X0314618Y0137149D01*
X0314618Y0134269D01*
X0313510Y0134269D01*
X0313510Y0134545D02*
X0314618Y0134545D01*
X0314618Y0134821D02*
X0313510Y0134821D01*
X0313510Y0135097D02*
X0314618Y0135097D01*
X0314618Y0135373D02*
X0313510Y0135373D01*
X0313510Y0135649D02*
X0314618Y0135649D01*
X0314618Y0135925D02*
X0313510Y0135925D01*
X0313510Y0136201D02*
X0314618Y0136201D01*
X0314618Y0136477D02*
X0313510Y0136477D01*
X0313510Y0136753D02*
X0314618Y0136753D01*
X0314618Y0137029D02*
X0313510Y0137029D01*
X0315478Y0138329D02*
X0315478Y0134269D01*
X0315478Y0138329D02*
X0316586Y0138329D01*
X0316586Y0134269D01*
X0315478Y0134269D01*
X0315478Y0134545D02*
X0316586Y0134545D01*
X0316586Y0134821D02*
X0315478Y0134821D01*
X0315478Y0135097D02*
X0316586Y0135097D01*
X0316586Y0135373D02*
X0315478Y0135373D01*
X0315478Y0135649D02*
X0316586Y0135649D01*
X0316586Y0135925D02*
X0315478Y0135925D01*
X0315478Y0136201D02*
X0316586Y0136201D01*
X0316586Y0136477D02*
X0315478Y0136477D01*
X0315478Y0136753D02*
X0316586Y0136753D01*
X0316586Y0137029D02*
X0315478Y0137029D01*
X0315478Y0137305D02*
X0316586Y0137305D01*
X0316586Y0137581D02*
X0315478Y0137581D01*
X0315478Y0137857D02*
X0316586Y0137857D01*
X0316586Y0138133D02*
X0315478Y0138133D01*
X0317447Y0137149D02*
X0317447Y0134269D01*
X0317447Y0137149D02*
X0318555Y0137149D01*
X0318555Y0134269D01*
X0317447Y0134269D01*
X0317447Y0134545D02*
X0318555Y0134545D01*
X0318555Y0134821D02*
X0317447Y0134821D01*
X0317447Y0135097D02*
X0318555Y0135097D01*
X0318555Y0135373D02*
X0317447Y0135373D01*
X0317447Y0135649D02*
X0318555Y0135649D01*
X0318555Y0135925D02*
X0317447Y0135925D01*
X0317447Y0136201D02*
X0318555Y0136201D01*
X0318555Y0136477D02*
X0317447Y0136477D01*
X0317447Y0136753D02*
X0318555Y0136753D01*
X0318555Y0137029D02*
X0317447Y0137029D01*
X0272197Y0137714D02*
X0269317Y0137714D01*
X0269317Y0138822D01*
X0272197Y0138822D01*
X0272197Y0137714D01*
X0272197Y0137990D02*
X0269317Y0137990D01*
X0269317Y0138266D02*
X0272197Y0138266D01*
X0272197Y0138542D02*
X0269317Y0138542D01*
X0269317Y0138818D02*
X0272197Y0138818D01*
X0272197Y0139682D02*
X0269317Y0139682D01*
X0269317Y0140790D01*
X0272197Y0140790D01*
X0272197Y0139682D01*
X0272197Y0139958D02*
X0269317Y0139958D01*
X0269317Y0140234D02*
X0272197Y0140234D01*
X0272197Y0140510D02*
X0269317Y0140510D01*
X0269317Y0140786D02*
X0272197Y0140786D01*
X0272197Y0141651D02*
X0269317Y0141651D01*
X0269317Y0142759D01*
X0272197Y0142759D01*
X0272197Y0141651D01*
X0272197Y0141927D02*
X0269317Y0141927D01*
X0269317Y0142203D02*
X0272197Y0142203D01*
X0272197Y0142479D02*
X0269317Y0142479D01*
X0269317Y0142755D02*
X0272197Y0142755D01*
X0272197Y0143619D02*
X0269317Y0143619D01*
X0269317Y0144727D01*
X0272197Y0144727D01*
X0272197Y0143619D01*
X0272197Y0143895D02*
X0269317Y0143895D01*
X0269317Y0144171D02*
X0272197Y0144171D01*
X0272197Y0144447D02*
X0269317Y0144447D01*
X0269317Y0144723D02*
X0272197Y0144723D01*
X0272197Y0145588D02*
X0269317Y0145588D01*
X0269317Y0146696D01*
X0272197Y0146696D01*
X0272197Y0145588D01*
X0272197Y0145864D02*
X0269317Y0145864D01*
X0269317Y0146140D02*
X0272197Y0146140D01*
X0272197Y0146416D02*
X0269317Y0146416D01*
X0269317Y0146692D02*
X0272197Y0146692D01*
X0272197Y0147556D02*
X0269317Y0147556D01*
X0269317Y0148664D01*
X0272197Y0148664D01*
X0272197Y0147556D01*
X0272197Y0147832D02*
X0269317Y0147832D01*
X0269317Y0148108D02*
X0272197Y0148108D01*
X0272197Y0148384D02*
X0269317Y0148384D01*
X0269317Y0148660D02*
X0272197Y0148660D01*
X0272197Y0149525D02*
X0269317Y0149525D01*
X0269317Y0150633D01*
X0272197Y0150633D01*
X0272197Y0149525D01*
X0272197Y0149801D02*
X0269317Y0149801D01*
X0269317Y0150077D02*
X0272197Y0150077D01*
X0272197Y0150353D02*
X0269317Y0150353D01*
X0269317Y0150629D02*
X0272197Y0150629D01*
X0272197Y0151493D02*
X0269317Y0151493D01*
X0269317Y0152601D01*
X0272197Y0152601D01*
X0272197Y0151493D01*
X0272197Y0151769D02*
X0269317Y0151769D01*
X0269317Y0152045D02*
X0272197Y0152045D01*
X0272197Y0152321D02*
X0269317Y0152321D01*
X0269317Y0152597D02*
X0272197Y0152597D01*
X0272197Y0153462D02*
X0269317Y0153462D01*
X0269317Y0154570D01*
X0272197Y0154570D01*
X0272197Y0153462D01*
X0272197Y0153738D02*
X0269317Y0153738D01*
X0269317Y0154014D02*
X0272197Y0154014D01*
X0272197Y0154290D02*
X0269317Y0154290D01*
X0269317Y0154566D02*
X0272197Y0154566D01*
X0272197Y0155430D02*
X0269317Y0155430D01*
X0269317Y0156538D01*
X0272197Y0156538D01*
X0272197Y0155430D01*
X0272197Y0155706D02*
X0269317Y0155706D01*
X0269317Y0155982D02*
X0272197Y0155982D01*
X0272197Y0156258D02*
X0269317Y0156258D01*
X0269317Y0156534D02*
X0272197Y0156534D01*
X0268752Y0157103D02*
X0268752Y0159983D01*
X0268752Y0157103D02*
X0267644Y0157103D01*
X0267644Y0159983D01*
X0268752Y0159983D01*
X0268752Y0157379D02*
X0267644Y0157379D01*
X0267644Y0157655D02*
X0268752Y0157655D01*
X0268752Y0157931D02*
X0267644Y0157931D01*
X0267644Y0158207D02*
X0268752Y0158207D01*
X0268752Y0158483D02*
X0267644Y0158483D01*
X0267644Y0158759D02*
X0268752Y0158759D01*
X0268752Y0159035D02*
X0267644Y0159035D01*
X0267644Y0159311D02*
X0268752Y0159311D01*
X0268752Y0159587D02*
X0267644Y0159587D01*
X0267644Y0159863D02*
X0268752Y0159863D01*
X0266783Y0159983D02*
X0266783Y0155923D01*
X0265675Y0155923D01*
X0265675Y0159983D01*
X0266783Y0159983D01*
X0266783Y0156199D02*
X0265675Y0156199D01*
X0265675Y0156475D02*
X0266783Y0156475D01*
X0266783Y0156751D02*
X0265675Y0156751D01*
X0265675Y0157027D02*
X0266783Y0157027D01*
X0266783Y0157303D02*
X0265675Y0157303D01*
X0265675Y0157579D02*
X0266783Y0157579D01*
X0266783Y0157855D02*
X0265675Y0157855D01*
X0265675Y0158131D02*
X0266783Y0158131D01*
X0266783Y0158407D02*
X0265675Y0158407D01*
X0265675Y0158683D02*
X0266783Y0158683D01*
X0266783Y0158959D02*
X0265675Y0158959D01*
X0265675Y0159235D02*
X0266783Y0159235D01*
X0266783Y0159511D02*
X0265675Y0159511D01*
X0265675Y0159787D02*
X0266783Y0159787D01*
X0264815Y0159983D02*
X0264815Y0157103D01*
X0263707Y0157103D01*
X0263707Y0159983D01*
X0264815Y0159983D01*
X0264815Y0157379D02*
X0263707Y0157379D01*
X0263707Y0157655D02*
X0264815Y0157655D01*
X0264815Y0157931D02*
X0263707Y0157931D01*
X0263707Y0158207D02*
X0264815Y0158207D01*
X0264815Y0158483D02*
X0263707Y0158483D01*
X0263707Y0158759D02*
X0264815Y0158759D01*
X0264815Y0159035D02*
X0263707Y0159035D01*
X0263707Y0159311D02*
X0264815Y0159311D01*
X0264815Y0159587D02*
X0263707Y0159587D01*
X0263707Y0159863D02*
X0264815Y0159863D01*
X0262846Y0159983D02*
X0262846Y0157103D01*
X0261738Y0157103D01*
X0261738Y0159983D01*
X0262846Y0159983D01*
X0262846Y0157379D02*
X0261738Y0157379D01*
X0261738Y0157655D02*
X0262846Y0157655D01*
X0262846Y0157931D02*
X0261738Y0157931D01*
X0261738Y0158207D02*
X0262846Y0158207D01*
X0262846Y0158483D02*
X0261738Y0158483D01*
X0261738Y0158759D02*
X0262846Y0158759D01*
X0262846Y0159035D02*
X0261738Y0159035D01*
X0261738Y0159311D02*
X0262846Y0159311D01*
X0262846Y0159587D02*
X0261738Y0159587D01*
X0261738Y0159863D02*
X0262846Y0159863D01*
X0260878Y0159983D02*
X0260878Y0157103D01*
X0259770Y0157103D01*
X0259770Y0159983D01*
X0260878Y0159983D01*
X0260878Y0157379D02*
X0259770Y0157379D01*
X0259770Y0157655D02*
X0260878Y0157655D01*
X0260878Y0157931D02*
X0259770Y0157931D01*
X0259770Y0158207D02*
X0260878Y0158207D01*
X0260878Y0158483D02*
X0259770Y0158483D01*
X0259770Y0158759D02*
X0260878Y0158759D01*
X0260878Y0159035D02*
X0259770Y0159035D01*
X0259770Y0159311D02*
X0260878Y0159311D01*
X0260878Y0159587D02*
X0259770Y0159587D01*
X0259770Y0159863D02*
X0260878Y0159863D01*
X0258909Y0159983D02*
X0258909Y0157103D01*
X0257801Y0157103D01*
X0257801Y0159983D01*
X0258909Y0159983D01*
X0258909Y0157379D02*
X0257801Y0157379D01*
X0257801Y0157655D02*
X0258909Y0157655D01*
X0258909Y0157931D02*
X0257801Y0157931D01*
X0257801Y0158207D02*
X0258909Y0158207D01*
X0258909Y0158483D02*
X0257801Y0158483D01*
X0257801Y0158759D02*
X0258909Y0158759D01*
X0258909Y0159035D02*
X0257801Y0159035D01*
X0257801Y0159311D02*
X0258909Y0159311D01*
X0258909Y0159587D02*
X0257801Y0159587D01*
X0257801Y0159863D02*
X0258909Y0159863D01*
X0256941Y0159983D02*
X0256941Y0157103D01*
X0255833Y0157103D01*
X0255833Y0159983D01*
X0256941Y0159983D01*
X0256941Y0157379D02*
X0255833Y0157379D01*
X0255833Y0157655D02*
X0256941Y0157655D01*
X0256941Y0157931D02*
X0255833Y0157931D01*
X0255833Y0158207D02*
X0256941Y0158207D01*
X0256941Y0158483D02*
X0255833Y0158483D01*
X0255833Y0158759D02*
X0256941Y0158759D01*
X0256941Y0159035D02*
X0255833Y0159035D01*
X0255833Y0159311D02*
X0256941Y0159311D01*
X0256941Y0159587D02*
X0255833Y0159587D01*
X0255833Y0159863D02*
X0256941Y0159863D01*
X0254972Y0159983D02*
X0254972Y0157103D01*
X0253864Y0157103D01*
X0253864Y0159983D01*
X0254972Y0159983D01*
X0254972Y0157379D02*
X0253864Y0157379D01*
X0253864Y0157655D02*
X0254972Y0157655D01*
X0254972Y0157931D02*
X0253864Y0157931D01*
X0253864Y0158207D02*
X0254972Y0158207D01*
X0254972Y0158483D02*
X0253864Y0158483D01*
X0253864Y0158759D02*
X0254972Y0158759D01*
X0254972Y0159035D02*
X0253864Y0159035D01*
X0253864Y0159311D02*
X0254972Y0159311D01*
X0254972Y0159587D02*
X0253864Y0159587D01*
X0253864Y0159863D02*
X0254972Y0159863D01*
X0253299Y0156538D02*
X0250419Y0156538D01*
X0253299Y0156538D02*
X0253299Y0155430D01*
X0250419Y0155430D01*
X0250419Y0156538D01*
X0250419Y0155706D02*
X0253299Y0155706D01*
X0253299Y0155982D02*
X0250419Y0155982D01*
X0250419Y0156258D02*
X0253299Y0156258D01*
X0253299Y0156534D02*
X0250419Y0156534D01*
X0250419Y0154570D02*
X0253299Y0154570D01*
X0253299Y0153462D01*
X0250419Y0153462D01*
X0250419Y0154570D01*
X0250419Y0153738D02*
X0253299Y0153738D01*
X0253299Y0154014D02*
X0250419Y0154014D01*
X0250419Y0154290D02*
X0253299Y0154290D01*
X0253299Y0154566D02*
X0250419Y0154566D01*
X0250419Y0152601D02*
X0253299Y0152601D01*
X0253299Y0151493D01*
X0250419Y0151493D01*
X0250419Y0152601D01*
X0250419Y0151769D02*
X0253299Y0151769D01*
X0253299Y0152045D02*
X0250419Y0152045D01*
X0250419Y0152321D02*
X0253299Y0152321D01*
X0253299Y0152597D02*
X0250419Y0152597D01*
X0250419Y0150633D02*
X0253299Y0150633D01*
X0253299Y0149525D01*
X0250419Y0149525D01*
X0250419Y0150633D01*
X0250419Y0149801D02*
X0253299Y0149801D01*
X0253299Y0150077D02*
X0250419Y0150077D01*
X0250419Y0150353D02*
X0253299Y0150353D01*
X0253299Y0150629D02*
X0250419Y0150629D01*
X0250419Y0148664D02*
X0253299Y0148664D01*
X0253299Y0147556D01*
X0250419Y0147556D01*
X0250419Y0148664D01*
X0250419Y0147832D02*
X0253299Y0147832D01*
X0253299Y0148108D02*
X0250419Y0148108D01*
X0250419Y0148384D02*
X0253299Y0148384D01*
X0253299Y0148660D02*
X0250419Y0148660D01*
X0250420Y0146696D02*
X0254480Y0146696D01*
X0254480Y0145588D01*
X0250420Y0145588D01*
X0250420Y0146696D01*
X0250420Y0145864D02*
X0254480Y0145864D01*
X0254480Y0146140D02*
X0250420Y0146140D01*
X0250420Y0146416D02*
X0254480Y0146416D01*
X0254480Y0146692D02*
X0250420Y0146692D01*
X0250419Y0144727D02*
X0253299Y0144727D01*
X0253299Y0143619D01*
X0250419Y0143619D01*
X0250419Y0144727D01*
X0250419Y0143895D02*
X0253299Y0143895D01*
X0253299Y0144171D02*
X0250419Y0144171D01*
X0250419Y0144447D02*
X0253299Y0144447D01*
X0253299Y0144723D02*
X0250419Y0144723D01*
X0250419Y0142759D02*
X0253299Y0142759D01*
X0253299Y0141651D01*
X0250419Y0141651D01*
X0250419Y0142759D01*
X0250419Y0141927D02*
X0253299Y0141927D01*
X0253299Y0142203D02*
X0250419Y0142203D01*
X0250419Y0142479D02*
X0253299Y0142479D01*
X0253299Y0142755D02*
X0250419Y0142755D01*
X0250419Y0140790D02*
X0253299Y0140790D01*
X0253299Y0139682D01*
X0250419Y0139682D01*
X0250419Y0140790D01*
X0250419Y0139958D02*
X0253299Y0139958D01*
X0253299Y0140234D02*
X0250419Y0140234D01*
X0250419Y0140510D02*
X0253299Y0140510D01*
X0253299Y0140786D02*
X0250419Y0140786D01*
X0253864Y0137149D02*
X0253864Y0134269D01*
X0253864Y0137149D02*
X0254972Y0137149D01*
X0254972Y0134269D01*
X0253864Y0134269D01*
X0253864Y0134545D02*
X0254972Y0134545D01*
X0254972Y0134821D02*
X0253864Y0134821D01*
X0253864Y0135097D02*
X0254972Y0135097D01*
X0254972Y0135373D02*
X0253864Y0135373D01*
X0253864Y0135649D02*
X0254972Y0135649D01*
X0254972Y0135925D02*
X0253864Y0135925D01*
X0253864Y0136201D02*
X0254972Y0136201D01*
X0254972Y0136477D02*
X0253864Y0136477D01*
X0253864Y0136753D02*
X0254972Y0136753D01*
X0254972Y0137029D02*
X0253864Y0137029D01*
X0255833Y0137149D02*
X0255833Y0134269D01*
X0255833Y0137149D02*
X0256941Y0137149D01*
X0256941Y0134269D01*
X0255833Y0134269D01*
X0255833Y0134545D02*
X0256941Y0134545D01*
X0256941Y0134821D02*
X0255833Y0134821D01*
X0255833Y0135097D02*
X0256941Y0135097D01*
X0256941Y0135373D02*
X0255833Y0135373D01*
X0255833Y0135649D02*
X0256941Y0135649D01*
X0256941Y0135925D02*
X0255833Y0135925D01*
X0255833Y0136201D02*
X0256941Y0136201D01*
X0256941Y0136477D02*
X0255833Y0136477D01*
X0255833Y0136753D02*
X0256941Y0136753D01*
X0256941Y0137029D02*
X0255833Y0137029D01*
X0257801Y0137149D02*
X0257801Y0134269D01*
X0257801Y0137149D02*
X0258909Y0137149D01*
X0258909Y0134269D01*
X0257801Y0134269D01*
X0257801Y0134545D02*
X0258909Y0134545D01*
X0258909Y0134821D02*
X0257801Y0134821D01*
X0257801Y0135097D02*
X0258909Y0135097D01*
X0258909Y0135373D02*
X0257801Y0135373D01*
X0257801Y0135649D02*
X0258909Y0135649D01*
X0258909Y0135925D02*
X0257801Y0135925D01*
X0257801Y0136201D02*
X0258909Y0136201D01*
X0258909Y0136477D02*
X0257801Y0136477D01*
X0257801Y0136753D02*
X0258909Y0136753D01*
X0258909Y0137029D02*
X0257801Y0137029D01*
X0259770Y0137149D02*
X0259770Y0134269D01*
X0259770Y0137149D02*
X0260878Y0137149D01*
X0260878Y0134269D01*
X0259770Y0134269D01*
X0259770Y0134545D02*
X0260878Y0134545D01*
X0260878Y0134821D02*
X0259770Y0134821D01*
X0259770Y0135097D02*
X0260878Y0135097D01*
X0260878Y0135373D02*
X0259770Y0135373D01*
X0259770Y0135649D02*
X0260878Y0135649D01*
X0260878Y0135925D02*
X0259770Y0135925D01*
X0259770Y0136201D02*
X0260878Y0136201D01*
X0260878Y0136477D02*
X0259770Y0136477D01*
X0259770Y0136753D02*
X0260878Y0136753D01*
X0260878Y0137029D02*
X0259770Y0137029D01*
X0261738Y0137149D02*
X0261738Y0134269D01*
X0261738Y0137149D02*
X0262846Y0137149D01*
X0262846Y0134269D01*
X0261738Y0134269D01*
X0261738Y0134545D02*
X0262846Y0134545D01*
X0262846Y0134821D02*
X0261738Y0134821D01*
X0261738Y0135097D02*
X0262846Y0135097D01*
X0262846Y0135373D02*
X0261738Y0135373D01*
X0261738Y0135649D02*
X0262846Y0135649D01*
X0262846Y0135925D02*
X0261738Y0135925D01*
X0261738Y0136201D02*
X0262846Y0136201D01*
X0262846Y0136477D02*
X0261738Y0136477D01*
X0261738Y0136753D02*
X0262846Y0136753D01*
X0262846Y0137029D02*
X0261738Y0137029D01*
X0263707Y0137149D02*
X0263707Y0134269D01*
X0263707Y0137149D02*
X0264815Y0137149D01*
X0264815Y0134269D01*
X0263707Y0134269D01*
X0263707Y0134545D02*
X0264815Y0134545D01*
X0264815Y0134821D02*
X0263707Y0134821D01*
X0263707Y0135097D02*
X0264815Y0135097D01*
X0264815Y0135373D02*
X0263707Y0135373D01*
X0263707Y0135649D02*
X0264815Y0135649D01*
X0264815Y0135925D02*
X0263707Y0135925D01*
X0263707Y0136201D02*
X0264815Y0136201D01*
X0264815Y0136477D02*
X0263707Y0136477D01*
X0263707Y0136753D02*
X0264815Y0136753D01*
X0264815Y0137029D02*
X0263707Y0137029D01*
X0265675Y0138329D02*
X0265675Y0134269D01*
X0265675Y0138329D02*
X0266783Y0138329D01*
X0266783Y0134269D01*
X0265675Y0134269D01*
X0265675Y0134545D02*
X0266783Y0134545D01*
X0266783Y0134821D02*
X0265675Y0134821D01*
X0265675Y0135097D02*
X0266783Y0135097D01*
X0266783Y0135373D02*
X0265675Y0135373D01*
X0265675Y0135649D02*
X0266783Y0135649D01*
X0266783Y0135925D02*
X0265675Y0135925D01*
X0265675Y0136201D02*
X0266783Y0136201D01*
X0266783Y0136477D02*
X0265675Y0136477D01*
X0265675Y0136753D02*
X0266783Y0136753D01*
X0266783Y0137029D02*
X0265675Y0137029D01*
X0265675Y0137305D02*
X0266783Y0137305D01*
X0266783Y0137581D02*
X0265675Y0137581D01*
X0265675Y0137857D02*
X0266783Y0137857D01*
X0266783Y0138133D02*
X0265675Y0138133D01*
X0267644Y0137149D02*
X0267644Y0134269D01*
X0267644Y0137149D02*
X0268752Y0137149D01*
X0268752Y0134269D01*
X0267644Y0134269D01*
X0267644Y0134545D02*
X0268752Y0134545D01*
X0268752Y0134821D02*
X0267644Y0134821D01*
X0267644Y0135097D02*
X0268752Y0135097D01*
X0268752Y0135373D02*
X0267644Y0135373D01*
X0267644Y0135649D02*
X0268752Y0135649D01*
X0268752Y0135925D02*
X0267644Y0135925D01*
X0267644Y0136201D02*
X0268752Y0136201D01*
X0268752Y0136477D02*
X0267644Y0136477D01*
X0267644Y0136753D02*
X0268752Y0136753D01*
X0268752Y0137029D02*
X0267644Y0137029D01*
X0218850Y0137517D02*
X0215970Y0137517D01*
X0215970Y0138625D01*
X0218850Y0138625D01*
X0218850Y0137517D01*
X0218850Y0137793D02*
X0215970Y0137793D01*
X0215970Y0138069D02*
X0218850Y0138069D01*
X0218850Y0138345D02*
X0215970Y0138345D01*
X0215970Y0138621D02*
X0218850Y0138621D01*
X0218850Y0139485D02*
X0215970Y0139485D01*
X0215970Y0140593D01*
X0218850Y0140593D01*
X0218850Y0139485D01*
X0218850Y0139761D02*
X0215970Y0139761D01*
X0215970Y0140037D02*
X0218850Y0140037D01*
X0218850Y0140313D02*
X0215970Y0140313D01*
X0215970Y0140589D02*
X0218850Y0140589D01*
X0218850Y0141454D02*
X0215970Y0141454D01*
X0215970Y0142562D01*
X0218850Y0142562D01*
X0218850Y0141454D01*
X0218850Y0141730D02*
X0215970Y0141730D01*
X0215970Y0142006D02*
X0218850Y0142006D01*
X0218850Y0142282D02*
X0215970Y0142282D01*
X0215970Y0142558D02*
X0218850Y0142558D01*
X0218850Y0143422D02*
X0215970Y0143422D01*
X0215970Y0144530D01*
X0218850Y0144530D01*
X0218850Y0143422D01*
X0218850Y0143698D02*
X0215970Y0143698D01*
X0215970Y0143974D02*
X0218850Y0143974D01*
X0218850Y0144250D02*
X0215970Y0144250D01*
X0215970Y0144526D02*
X0218850Y0144526D01*
X0218850Y0145391D02*
X0215970Y0145391D01*
X0215970Y0146499D01*
X0218850Y0146499D01*
X0218850Y0145391D01*
X0218850Y0145667D02*
X0215970Y0145667D01*
X0215970Y0145943D02*
X0218850Y0145943D01*
X0218850Y0146219D02*
X0215970Y0146219D01*
X0215970Y0146495D02*
X0218850Y0146495D01*
X0218850Y0147359D02*
X0215970Y0147359D01*
X0215970Y0148467D01*
X0218850Y0148467D01*
X0218850Y0147359D01*
X0218850Y0147635D02*
X0215970Y0147635D01*
X0215970Y0147911D02*
X0218850Y0147911D01*
X0218850Y0148187D02*
X0215970Y0148187D01*
X0215970Y0148463D02*
X0218850Y0148463D01*
X0218850Y0149328D02*
X0215970Y0149328D01*
X0215970Y0150436D01*
X0218850Y0150436D01*
X0218850Y0149328D01*
X0218850Y0149604D02*
X0215970Y0149604D01*
X0215970Y0149880D02*
X0218850Y0149880D01*
X0218850Y0150156D02*
X0215970Y0150156D01*
X0215970Y0150432D02*
X0218850Y0150432D01*
X0218850Y0151296D02*
X0215970Y0151296D01*
X0215970Y0152404D01*
X0218850Y0152404D01*
X0218850Y0151296D01*
X0218850Y0151572D02*
X0215970Y0151572D01*
X0215970Y0151848D02*
X0218850Y0151848D01*
X0218850Y0152124D02*
X0215970Y0152124D01*
X0215970Y0152400D02*
X0218850Y0152400D01*
X0218850Y0153265D02*
X0215970Y0153265D01*
X0215970Y0154373D01*
X0218850Y0154373D01*
X0218850Y0153265D01*
X0218850Y0153541D02*
X0215970Y0153541D01*
X0215970Y0153817D02*
X0218850Y0153817D01*
X0218850Y0154093D02*
X0215970Y0154093D01*
X0215970Y0154369D02*
X0218850Y0154369D01*
X0218850Y0155233D02*
X0215970Y0155233D01*
X0215970Y0156341D01*
X0218850Y0156341D01*
X0218850Y0155233D01*
X0218850Y0155509D02*
X0215970Y0155509D01*
X0215970Y0155785D02*
X0218850Y0155785D01*
X0218850Y0156061D02*
X0215970Y0156061D01*
X0215970Y0156337D02*
X0218850Y0156337D01*
X0215405Y0156906D02*
X0215405Y0159786D01*
X0215405Y0156906D02*
X0214297Y0156906D01*
X0214297Y0159786D01*
X0215405Y0159786D01*
X0215405Y0157182D02*
X0214297Y0157182D01*
X0214297Y0157458D02*
X0215405Y0157458D01*
X0215405Y0157734D02*
X0214297Y0157734D01*
X0214297Y0158010D02*
X0215405Y0158010D01*
X0215405Y0158286D02*
X0214297Y0158286D01*
X0214297Y0158562D02*
X0215405Y0158562D01*
X0215405Y0158838D02*
X0214297Y0158838D01*
X0214297Y0159114D02*
X0215405Y0159114D01*
X0215405Y0159390D02*
X0214297Y0159390D01*
X0214297Y0159666D02*
X0215405Y0159666D01*
X0213437Y0159786D02*
X0213437Y0155726D01*
X0212329Y0155726D01*
X0212329Y0159786D01*
X0213437Y0159786D01*
X0213437Y0156002D02*
X0212329Y0156002D01*
X0212329Y0156278D02*
X0213437Y0156278D01*
X0213437Y0156554D02*
X0212329Y0156554D01*
X0212329Y0156830D02*
X0213437Y0156830D01*
X0213437Y0157106D02*
X0212329Y0157106D01*
X0212329Y0157382D02*
X0213437Y0157382D01*
X0213437Y0157658D02*
X0212329Y0157658D01*
X0212329Y0157934D02*
X0213437Y0157934D01*
X0213437Y0158210D02*
X0212329Y0158210D01*
X0212329Y0158486D02*
X0213437Y0158486D01*
X0213437Y0158762D02*
X0212329Y0158762D01*
X0212329Y0159038D02*
X0213437Y0159038D01*
X0213437Y0159314D02*
X0212329Y0159314D01*
X0212329Y0159590D02*
X0213437Y0159590D01*
X0211468Y0159786D02*
X0211468Y0156906D01*
X0210360Y0156906D01*
X0210360Y0159786D01*
X0211468Y0159786D01*
X0211468Y0157182D02*
X0210360Y0157182D01*
X0210360Y0157458D02*
X0211468Y0157458D01*
X0211468Y0157734D02*
X0210360Y0157734D01*
X0210360Y0158010D02*
X0211468Y0158010D01*
X0211468Y0158286D02*
X0210360Y0158286D01*
X0210360Y0158562D02*
X0211468Y0158562D01*
X0211468Y0158838D02*
X0210360Y0158838D01*
X0210360Y0159114D02*
X0211468Y0159114D01*
X0211468Y0159390D02*
X0210360Y0159390D01*
X0210360Y0159666D02*
X0211468Y0159666D01*
X0209500Y0159786D02*
X0209500Y0156906D01*
X0208392Y0156906D01*
X0208392Y0159786D01*
X0209500Y0159786D01*
X0209500Y0157182D02*
X0208392Y0157182D01*
X0208392Y0157458D02*
X0209500Y0157458D01*
X0209500Y0157734D02*
X0208392Y0157734D01*
X0208392Y0158010D02*
X0209500Y0158010D01*
X0209500Y0158286D02*
X0208392Y0158286D01*
X0208392Y0158562D02*
X0209500Y0158562D01*
X0209500Y0158838D02*
X0208392Y0158838D01*
X0208392Y0159114D02*
X0209500Y0159114D01*
X0209500Y0159390D02*
X0208392Y0159390D01*
X0208392Y0159666D02*
X0209500Y0159666D01*
X0207531Y0159786D02*
X0207531Y0156906D01*
X0206423Y0156906D01*
X0206423Y0159786D01*
X0207531Y0159786D01*
X0207531Y0157182D02*
X0206423Y0157182D01*
X0206423Y0157458D02*
X0207531Y0157458D01*
X0207531Y0157734D02*
X0206423Y0157734D01*
X0206423Y0158010D02*
X0207531Y0158010D01*
X0207531Y0158286D02*
X0206423Y0158286D01*
X0206423Y0158562D02*
X0207531Y0158562D01*
X0207531Y0158838D02*
X0206423Y0158838D01*
X0206423Y0159114D02*
X0207531Y0159114D01*
X0207531Y0159390D02*
X0206423Y0159390D01*
X0206423Y0159666D02*
X0207531Y0159666D01*
X0205563Y0159786D02*
X0205563Y0156906D01*
X0204455Y0156906D01*
X0204455Y0159786D01*
X0205563Y0159786D01*
X0205563Y0157182D02*
X0204455Y0157182D01*
X0204455Y0157458D02*
X0205563Y0157458D01*
X0205563Y0157734D02*
X0204455Y0157734D01*
X0204455Y0158010D02*
X0205563Y0158010D01*
X0205563Y0158286D02*
X0204455Y0158286D01*
X0204455Y0158562D02*
X0205563Y0158562D01*
X0205563Y0158838D02*
X0204455Y0158838D01*
X0204455Y0159114D02*
X0205563Y0159114D01*
X0205563Y0159390D02*
X0204455Y0159390D01*
X0204455Y0159666D02*
X0205563Y0159666D01*
X0203594Y0159786D02*
X0203594Y0156906D01*
X0202486Y0156906D01*
X0202486Y0159786D01*
X0203594Y0159786D01*
X0203594Y0157182D02*
X0202486Y0157182D01*
X0202486Y0157458D02*
X0203594Y0157458D01*
X0203594Y0157734D02*
X0202486Y0157734D01*
X0202486Y0158010D02*
X0203594Y0158010D01*
X0203594Y0158286D02*
X0202486Y0158286D01*
X0202486Y0158562D02*
X0203594Y0158562D01*
X0203594Y0158838D02*
X0202486Y0158838D01*
X0202486Y0159114D02*
X0203594Y0159114D01*
X0203594Y0159390D02*
X0202486Y0159390D01*
X0202486Y0159666D02*
X0203594Y0159666D01*
X0201626Y0159786D02*
X0201626Y0156906D01*
X0200518Y0156906D01*
X0200518Y0159786D01*
X0201626Y0159786D01*
X0201626Y0157182D02*
X0200518Y0157182D01*
X0200518Y0157458D02*
X0201626Y0157458D01*
X0201626Y0157734D02*
X0200518Y0157734D01*
X0200518Y0158010D02*
X0201626Y0158010D01*
X0201626Y0158286D02*
X0200518Y0158286D01*
X0200518Y0158562D02*
X0201626Y0158562D01*
X0201626Y0158838D02*
X0200518Y0158838D01*
X0200518Y0159114D02*
X0201626Y0159114D01*
X0201626Y0159390D02*
X0200518Y0159390D01*
X0200518Y0159666D02*
X0201626Y0159666D01*
X0199953Y0156341D02*
X0197073Y0156341D01*
X0199953Y0156341D02*
X0199953Y0155233D01*
X0197073Y0155233D01*
X0197073Y0156341D01*
X0197073Y0155509D02*
X0199953Y0155509D01*
X0199953Y0155785D02*
X0197073Y0155785D01*
X0197073Y0156061D02*
X0199953Y0156061D01*
X0199953Y0156337D02*
X0197073Y0156337D01*
X0197073Y0154373D02*
X0199953Y0154373D01*
X0199953Y0153265D01*
X0197073Y0153265D01*
X0197073Y0154373D01*
X0197073Y0153541D02*
X0199953Y0153541D01*
X0199953Y0153817D02*
X0197073Y0153817D01*
X0197073Y0154093D02*
X0199953Y0154093D01*
X0199953Y0154369D02*
X0197073Y0154369D01*
X0197073Y0152404D02*
X0199953Y0152404D01*
X0199953Y0151296D01*
X0197073Y0151296D01*
X0197073Y0152404D01*
X0197073Y0151572D02*
X0199953Y0151572D01*
X0199953Y0151848D02*
X0197073Y0151848D01*
X0197073Y0152124D02*
X0199953Y0152124D01*
X0199953Y0152400D02*
X0197073Y0152400D01*
X0197073Y0150436D02*
X0199953Y0150436D01*
X0199953Y0149328D01*
X0197073Y0149328D01*
X0197073Y0150436D01*
X0197073Y0149604D02*
X0199953Y0149604D01*
X0199953Y0149880D02*
X0197073Y0149880D01*
X0197073Y0150156D02*
X0199953Y0150156D01*
X0199953Y0150432D02*
X0197073Y0150432D01*
X0197073Y0148467D02*
X0199953Y0148467D01*
X0199953Y0147359D01*
X0197073Y0147359D01*
X0197073Y0148467D01*
X0197073Y0147635D02*
X0199953Y0147635D01*
X0199953Y0147911D02*
X0197073Y0147911D01*
X0197073Y0148187D02*
X0199953Y0148187D01*
X0199953Y0148463D02*
X0197073Y0148463D01*
X0197073Y0146499D02*
X0201133Y0146499D01*
X0201133Y0145391D01*
X0197073Y0145391D01*
X0197073Y0146499D01*
X0197073Y0145667D02*
X0201133Y0145667D01*
X0201133Y0145943D02*
X0197073Y0145943D01*
X0197073Y0146219D02*
X0201133Y0146219D01*
X0201133Y0146495D02*
X0197073Y0146495D01*
X0197073Y0144530D02*
X0199953Y0144530D01*
X0199953Y0143422D01*
X0197073Y0143422D01*
X0197073Y0144530D01*
X0197073Y0143698D02*
X0199953Y0143698D01*
X0199953Y0143974D02*
X0197073Y0143974D01*
X0197073Y0144250D02*
X0199953Y0144250D01*
X0199953Y0144526D02*
X0197073Y0144526D01*
X0197073Y0142562D02*
X0199953Y0142562D01*
X0199953Y0141454D01*
X0197073Y0141454D01*
X0197073Y0142562D01*
X0197073Y0141730D02*
X0199953Y0141730D01*
X0199953Y0142006D02*
X0197073Y0142006D01*
X0197073Y0142282D02*
X0199953Y0142282D01*
X0199953Y0142558D02*
X0197073Y0142558D01*
X0197073Y0140593D02*
X0199953Y0140593D01*
X0199953Y0139485D01*
X0197073Y0139485D01*
X0197073Y0140593D01*
X0197073Y0139761D02*
X0199953Y0139761D01*
X0199953Y0140037D02*
X0197073Y0140037D01*
X0197073Y0140313D02*
X0199953Y0140313D01*
X0199953Y0140589D02*
X0197073Y0140589D01*
X0200518Y0136952D02*
X0200518Y0134072D01*
X0200518Y0136952D02*
X0201626Y0136952D01*
X0201626Y0134072D01*
X0200518Y0134072D01*
X0200518Y0134348D02*
X0201626Y0134348D01*
X0201626Y0134624D02*
X0200518Y0134624D01*
X0200518Y0134900D02*
X0201626Y0134900D01*
X0201626Y0135176D02*
X0200518Y0135176D01*
X0200518Y0135452D02*
X0201626Y0135452D01*
X0201626Y0135728D02*
X0200518Y0135728D01*
X0200518Y0136004D02*
X0201626Y0136004D01*
X0201626Y0136280D02*
X0200518Y0136280D01*
X0200518Y0136556D02*
X0201626Y0136556D01*
X0201626Y0136832D02*
X0200518Y0136832D01*
X0202486Y0136952D02*
X0202486Y0134072D01*
X0202486Y0136952D02*
X0203594Y0136952D01*
X0203594Y0134072D01*
X0202486Y0134072D01*
X0202486Y0134348D02*
X0203594Y0134348D01*
X0203594Y0134624D02*
X0202486Y0134624D01*
X0202486Y0134900D02*
X0203594Y0134900D01*
X0203594Y0135176D02*
X0202486Y0135176D01*
X0202486Y0135452D02*
X0203594Y0135452D01*
X0203594Y0135728D02*
X0202486Y0135728D01*
X0202486Y0136004D02*
X0203594Y0136004D01*
X0203594Y0136280D02*
X0202486Y0136280D01*
X0202486Y0136556D02*
X0203594Y0136556D01*
X0203594Y0136832D02*
X0202486Y0136832D01*
X0204455Y0136952D02*
X0204455Y0134072D01*
X0204455Y0136952D02*
X0205563Y0136952D01*
X0205563Y0134072D01*
X0204455Y0134072D01*
X0204455Y0134348D02*
X0205563Y0134348D01*
X0205563Y0134624D02*
X0204455Y0134624D01*
X0204455Y0134900D02*
X0205563Y0134900D01*
X0205563Y0135176D02*
X0204455Y0135176D01*
X0204455Y0135452D02*
X0205563Y0135452D01*
X0205563Y0135728D02*
X0204455Y0135728D01*
X0204455Y0136004D02*
X0205563Y0136004D01*
X0205563Y0136280D02*
X0204455Y0136280D01*
X0204455Y0136556D02*
X0205563Y0136556D01*
X0205563Y0136832D02*
X0204455Y0136832D01*
X0206423Y0136952D02*
X0206423Y0134072D01*
X0206423Y0136952D02*
X0207531Y0136952D01*
X0207531Y0134072D01*
X0206423Y0134072D01*
X0206423Y0134348D02*
X0207531Y0134348D01*
X0207531Y0134624D02*
X0206423Y0134624D01*
X0206423Y0134900D02*
X0207531Y0134900D01*
X0207531Y0135176D02*
X0206423Y0135176D01*
X0206423Y0135452D02*
X0207531Y0135452D01*
X0207531Y0135728D02*
X0206423Y0135728D01*
X0206423Y0136004D02*
X0207531Y0136004D01*
X0207531Y0136280D02*
X0206423Y0136280D01*
X0206423Y0136556D02*
X0207531Y0136556D01*
X0207531Y0136832D02*
X0206423Y0136832D01*
X0208392Y0136952D02*
X0208392Y0134072D01*
X0208392Y0136952D02*
X0209500Y0136952D01*
X0209500Y0134072D01*
X0208392Y0134072D01*
X0208392Y0134348D02*
X0209500Y0134348D01*
X0209500Y0134624D02*
X0208392Y0134624D01*
X0208392Y0134900D02*
X0209500Y0134900D01*
X0209500Y0135176D02*
X0208392Y0135176D01*
X0208392Y0135452D02*
X0209500Y0135452D01*
X0209500Y0135728D02*
X0208392Y0135728D01*
X0208392Y0136004D02*
X0209500Y0136004D01*
X0209500Y0136280D02*
X0208392Y0136280D01*
X0208392Y0136556D02*
X0209500Y0136556D01*
X0209500Y0136832D02*
X0208392Y0136832D01*
X0210360Y0136952D02*
X0210360Y0134072D01*
X0210360Y0136952D02*
X0211468Y0136952D01*
X0211468Y0134072D01*
X0210360Y0134072D01*
X0210360Y0134348D02*
X0211468Y0134348D01*
X0211468Y0134624D02*
X0210360Y0134624D01*
X0210360Y0134900D02*
X0211468Y0134900D01*
X0211468Y0135176D02*
X0210360Y0135176D01*
X0210360Y0135452D02*
X0211468Y0135452D01*
X0211468Y0135728D02*
X0210360Y0135728D01*
X0210360Y0136004D02*
X0211468Y0136004D01*
X0211468Y0136280D02*
X0210360Y0136280D01*
X0210360Y0136556D02*
X0211468Y0136556D01*
X0211468Y0136832D02*
X0210360Y0136832D01*
X0212329Y0138132D02*
X0212329Y0134072D01*
X0212329Y0138132D02*
X0213437Y0138132D01*
X0213437Y0134072D01*
X0212329Y0134072D01*
X0212329Y0134348D02*
X0213437Y0134348D01*
X0213437Y0134624D02*
X0212329Y0134624D01*
X0212329Y0134900D02*
X0213437Y0134900D01*
X0213437Y0135176D02*
X0212329Y0135176D01*
X0212329Y0135452D02*
X0213437Y0135452D01*
X0213437Y0135728D02*
X0212329Y0135728D01*
X0212329Y0136004D02*
X0213437Y0136004D01*
X0213437Y0136280D02*
X0212329Y0136280D01*
X0212329Y0136556D02*
X0213437Y0136556D01*
X0213437Y0136832D02*
X0212329Y0136832D01*
X0212329Y0137108D02*
X0213437Y0137108D01*
X0213437Y0137384D02*
X0212329Y0137384D01*
X0212329Y0137660D02*
X0213437Y0137660D01*
X0213437Y0137936D02*
X0212329Y0137936D01*
X0214297Y0136952D02*
X0214297Y0134072D01*
X0214297Y0136952D02*
X0215405Y0136952D01*
X0215405Y0134072D01*
X0214297Y0134072D01*
X0214297Y0134348D02*
X0215405Y0134348D01*
X0215405Y0134624D02*
X0214297Y0134624D01*
X0214297Y0134900D02*
X0215405Y0134900D01*
X0215405Y0135176D02*
X0214297Y0135176D01*
X0214297Y0135452D02*
X0215405Y0135452D01*
X0215405Y0135728D02*
X0214297Y0135728D01*
X0214297Y0136004D02*
X0215405Y0136004D01*
X0215405Y0136280D02*
X0214297Y0136280D01*
X0214297Y0136556D02*
X0215405Y0136556D01*
X0215405Y0136832D02*
X0214297Y0136832D01*
X0164323Y0137517D02*
X0161443Y0137517D01*
X0161443Y0138625D01*
X0164323Y0138625D01*
X0164323Y0137517D01*
X0164323Y0137793D02*
X0161443Y0137793D01*
X0161443Y0138069D02*
X0164323Y0138069D01*
X0164323Y0138345D02*
X0161443Y0138345D01*
X0161443Y0138621D02*
X0164323Y0138621D01*
X0164323Y0139485D02*
X0161443Y0139485D01*
X0161443Y0140593D01*
X0164323Y0140593D01*
X0164323Y0139485D01*
X0164323Y0139761D02*
X0161443Y0139761D01*
X0161443Y0140037D02*
X0164323Y0140037D01*
X0164323Y0140313D02*
X0161443Y0140313D01*
X0161443Y0140589D02*
X0164323Y0140589D01*
X0164323Y0141454D02*
X0161443Y0141454D01*
X0161443Y0142562D01*
X0164323Y0142562D01*
X0164323Y0141454D01*
X0164323Y0141730D02*
X0161443Y0141730D01*
X0161443Y0142006D02*
X0164323Y0142006D01*
X0164323Y0142282D02*
X0161443Y0142282D01*
X0161443Y0142558D02*
X0164323Y0142558D01*
X0164323Y0143422D02*
X0161443Y0143422D01*
X0161443Y0144530D01*
X0164323Y0144530D01*
X0164323Y0143422D01*
X0164323Y0143698D02*
X0161443Y0143698D01*
X0161443Y0143974D02*
X0164323Y0143974D01*
X0164323Y0144250D02*
X0161443Y0144250D01*
X0161443Y0144526D02*
X0164323Y0144526D01*
X0164323Y0145391D02*
X0161443Y0145391D01*
X0161443Y0146499D01*
X0164323Y0146499D01*
X0164323Y0145391D01*
X0164323Y0145667D02*
X0161443Y0145667D01*
X0161443Y0145943D02*
X0164323Y0145943D01*
X0164323Y0146219D02*
X0161443Y0146219D01*
X0161443Y0146495D02*
X0164323Y0146495D01*
X0164323Y0147359D02*
X0161443Y0147359D01*
X0161443Y0148467D01*
X0164323Y0148467D01*
X0164323Y0147359D01*
X0164323Y0147635D02*
X0161443Y0147635D01*
X0161443Y0147911D02*
X0164323Y0147911D01*
X0164323Y0148187D02*
X0161443Y0148187D01*
X0161443Y0148463D02*
X0164323Y0148463D01*
X0164323Y0149328D02*
X0161443Y0149328D01*
X0161443Y0150436D01*
X0164323Y0150436D01*
X0164323Y0149328D01*
X0164323Y0149604D02*
X0161443Y0149604D01*
X0161443Y0149880D02*
X0164323Y0149880D01*
X0164323Y0150156D02*
X0161443Y0150156D01*
X0161443Y0150432D02*
X0164323Y0150432D01*
X0164323Y0151296D02*
X0161443Y0151296D01*
X0161443Y0152404D01*
X0164323Y0152404D01*
X0164323Y0151296D01*
X0164323Y0151572D02*
X0161443Y0151572D01*
X0161443Y0151848D02*
X0164323Y0151848D01*
X0164323Y0152124D02*
X0161443Y0152124D01*
X0161443Y0152400D02*
X0164323Y0152400D01*
X0164323Y0153265D02*
X0161443Y0153265D01*
X0161443Y0154373D01*
X0164323Y0154373D01*
X0164323Y0153265D01*
X0164323Y0153541D02*
X0161443Y0153541D01*
X0161443Y0153817D02*
X0164323Y0153817D01*
X0164323Y0154093D02*
X0161443Y0154093D01*
X0161443Y0154369D02*
X0164323Y0154369D01*
X0164323Y0155233D02*
X0161443Y0155233D01*
X0161443Y0156341D01*
X0164323Y0156341D01*
X0164323Y0155233D01*
X0164323Y0155509D02*
X0161443Y0155509D01*
X0161443Y0155785D02*
X0164323Y0155785D01*
X0164323Y0156061D02*
X0161443Y0156061D01*
X0161443Y0156337D02*
X0164323Y0156337D01*
X0160878Y0156906D02*
X0160878Y0159786D01*
X0160878Y0156906D02*
X0159770Y0156906D01*
X0159770Y0159786D01*
X0160878Y0159786D01*
X0160878Y0157182D02*
X0159770Y0157182D01*
X0159770Y0157458D02*
X0160878Y0157458D01*
X0160878Y0157734D02*
X0159770Y0157734D01*
X0159770Y0158010D02*
X0160878Y0158010D01*
X0160878Y0158286D02*
X0159770Y0158286D01*
X0159770Y0158562D02*
X0160878Y0158562D01*
X0160878Y0158838D02*
X0159770Y0158838D01*
X0159770Y0159114D02*
X0160878Y0159114D01*
X0160878Y0159390D02*
X0159770Y0159390D01*
X0159770Y0159666D02*
X0160878Y0159666D01*
X0158909Y0159786D02*
X0158909Y0155726D01*
X0157801Y0155726D01*
X0157801Y0159786D01*
X0158909Y0159786D01*
X0158909Y0156002D02*
X0157801Y0156002D01*
X0157801Y0156278D02*
X0158909Y0156278D01*
X0158909Y0156554D02*
X0157801Y0156554D01*
X0157801Y0156830D02*
X0158909Y0156830D01*
X0158909Y0157106D02*
X0157801Y0157106D01*
X0157801Y0157382D02*
X0158909Y0157382D01*
X0158909Y0157658D02*
X0157801Y0157658D01*
X0157801Y0157934D02*
X0158909Y0157934D01*
X0158909Y0158210D02*
X0157801Y0158210D01*
X0157801Y0158486D02*
X0158909Y0158486D01*
X0158909Y0158762D02*
X0157801Y0158762D01*
X0157801Y0159038D02*
X0158909Y0159038D01*
X0158909Y0159314D02*
X0157801Y0159314D01*
X0157801Y0159590D02*
X0158909Y0159590D01*
X0156941Y0159786D02*
X0156941Y0156906D01*
X0155833Y0156906D01*
X0155833Y0159786D01*
X0156941Y0159786D01*
X0156941Y0157182D02*
X0155833Y0157182D01*
X0155833Y0157458D02*
X0156941Y0157458D01*
X0156941Y0157734D02*
X0155833Y0157734D01*
X0155833Y0158010D02*
X0156941Y0158010D01*
X0156941Y0158286D02*
X0155833Y0158286D01*
X0155833Y0158562D02*
X0156941Y0158562D01*
X0156941Y0158838D02*
X0155833Y0158838D01*
X0155833Y0159114D02*
X0156941Y0159114D01*
X0156941Y0159390D02*
X0155833Y0159390D01*
X0155833Y0159666D02*
X0156941Y0159666D01*
X0154972Y0159786D02*
X0154972Y0156906D01*
X0153864Y0156906D01*
X0153864Y0159786D01*
X0154972Y0159786D01*
X0154972Y0157182D02*
X0153864Y0157182D01*
X0153864Y0157458D02*
X0154972Y0157458D01*
X0154972Y0157734D02*
X0153864Y0157734D01*
X0153864Y0158010D02*
X0154972Y0158010D01*
X0154972Y0158286D02*
X0153864Y0158286D01*
X0153864Y0158562D02*
X0154972Y0158562D01*
X0154972Y0158838D02*
X0153864Y0158838D01*
X0153864Y0159114D02*
X0154972Y0159114D01*
X0154972Y0159390D02*
X0153864Y0159390D01*
X0153864Y0159666D02*
X0154972Y0159666D01*
X0153004Y0159786D02*
X0153004Y0156906D01*
X0151896Y0156906D01*
X0151896Y0159786D01*
X0153004Y0159786D01*
X0153004Y0157182D02*
X0151896Y0157182D01*
X0151896Y0157458D02*
X0153004Y0157458D01*
X0153004Y0157734D02*
X0151896Y0157734D01*
X0151896Y0158010D02*
X0153004Y0158010D01*
X0153004Y0158286D02*
X0151896Y0158286D01*
X0151896Y0158562D02*
X0153004Y0158562D01*
X0153004Y0158838D02*
X0151896Y0158838D01*
X0151896Y0159114D02*
X0153004Y0159114D01*
X0153004Y0159390D02*
X0151896Y0159390D01*
X0151896Y0159666D02*
X0153004Y0159666D01*
X0151035Y0159786D02*
X0151035Y0156906D01*
X0149927Y0156906D01*
X0149927Y0159786D01*
X0151035Y0159786D01*
X0151035Y0157182D02*
X0149927Y0157182D01*
X0149927Y0157458D02*
X0151035Y0157458D01*
X0151035Y0157734D02*
X0149927Y0157734D01*
X0149927Y0158010D02*
X0151035Y0158010D01*
X0151035Y0158286D02*
X0149927Y0158286D01*
X0149927Y0158562D02*
X0151035Y0158562D01*
X0151035Y0158838D02*
X0149927Y0158838D01*
X0149927Y0159114D02*
X0151035Y0159114D01*
X0151035Y0159390D02*
X0149927Y0159390D01*
X0149927Y0159666D02*
X0151035Y0159666D01*
X0149067Y0159786D02*
X0149067Y0156906D01*
X0147959Y0156906D01*
X0147959Y0159786D01*
X0149067Y0159786D01*
X0149067Y0157182D02*
X0147959Y0157182D01*
X0147959Y0157458D02*
X0149067Y0157458D01*
X0149067Y0157734D02*
X0147959Y0157734D01*
X0147959Y0158010D02*
X0149067Y0158010D01*
X0149067Y0158286D02*
X0147959Y0158286D01*
X0147959Y0158562D02*
X0149067Y0158562D01*
X0149067Y0158838D02*
X0147959Y0158838D01*
X0147959Y0159114D02*
X0149067Y0159114D01*
X0149067Y0159390D02*
X0147959Y0159390D01*
X0147959Y0159666D02*
X0149067Y0159666D01*
X0147098Y0159786D02*
X0147098Y0156906D01*
X0145990Y0156906D01*
X0145990Y0159786D01*
X0147098Y0159786D01*
X0147098Y0157182D02*
X0145990Y0157182D01*
X0145990Y0157458D02*
X0147098Y0157458D01*
X0147098Y0157734D02*
X0145990Y0157734D01*
X0145990Y0158010D02*
X0147098Y0158010D01*
X0147098Y0158286D02*
X0145990Y0158286D01*
X0145990Y0158562D02*
X0147098Y0158562D01*
X0147098Y0158838D02*
X0145990Y0158838D01*
X0145990Y0159114D02*
X0147098Y0159114D01*
X0147098Y0159390D02*
X0145990Y0159390D01*
X0145990Y0159666D02*
X0147098Y0159666D01*
X0145425Y0156341D02*
X0142545Y0156341D01*
X0145425Y0156341D02*
X0145425Y0155233D01*
X0142545Y0155233D01*
X0142545Y0156341D01*
X0142545Y0155509D02*
X0145425Y0155509D01*
X0145425Y0155785D02*
X0142545Y0155785D01*
X0142545Y0156061D02*
X0145425Y0156061D01*
X0145425Y0156337D02*
X0142545Y0156337D01*
X0142545Y0154373D02*
X0145425Y0154373D01*
X0145425Y0153265D01*
X0142545Y0153265D01*
X0142545Y0154373D01*
X0142545Y0153541D02*
X0145425Y0153541D01*
X0145425Y0153817D02*
X0142545Y0153817D01*
X0142545Y0154093D02*
X0145425Y0154093D01*
X0145425Y0154369D02*
X0142545Y0154369D01*
X0142545Y0152404D02*
X0145425Y0152404D01*
X0145425Y0151296D01*
X0142545Y0151296D01*
X0142545Y0152404D01*
X0142545Y0151572D02*
X0145425Y0151572D01*
X0145425Y0151848D02*
X0142545Y0151848D01*
X0142545Y0152124D02*
X0145425Y0152124D01*
X0145425Y0152400D02*
X0142545Y0152400D01*
X0142545Y0150436D02*
X0145425Y0150436D01*
X0145425Y0149328D01*
X0142545Y0149328D01*
X0142545Y0150436D01*
X0142545Y0149604D02*
X0145425Y0149604D01*
X0145425Y0149880D02*
X0142545Y0149880D01*
X0142545Y0150156D02*
X0145425Y0150156D01*
X0145425Y0150432D02*
X0142545Y0150432D01*
X0142545Y0148467D02*
X0145425Y0148467D01*
X0145425Y0147359D01*
X0142545Y0147359D01*
X0142545Y0148467D01*
X0142545Y0147635D02*
X0145425Y0147635D01*
X0145425Y0147911D02*
X0142545Y0147911D01*
X0142545Y0148187D02*
X0145425Y0148187D01*
X0145425Y0148463D02*
X0142545Y0148463D01*
X0142546Y0146499D02*
X0146606Y0146499D01*
X0146606Y0145391D01*
X0142546Y0145391D01*
X0142546Y0146499D01*
X0142546Y0145667D02*
X0146606Y0145667D01*
X0146606Y0145943D02*
X0142546Y0145943D01*
X0142546Y0146219D02*
X0146606Y0146219D01*
X0146606Y0146495D02*
X0142546Y0146495D01*
X0142545Y0144530D02*
X0145425Y0144530D01*
X0145425Y0143422D01*
X0142545Y0143422D01*
X0142545Y0144530D01*
X0142545Y0143698D02*
X0145425Y0143698D01*
X0145425Y0143974D02*
X0142545Y0143974D01*
X0142545Y0144250D02*
X0145425Y0144250D01*
X0145425Y0144526D02*
X0142545Y0144526D01*
X0142545Y0142562D02*
X0145425Y0142562D01*
X0145425Y0141454D01*
X0142545Y0141454D01*
X0142545Y0142562D01*
X0142545Y0141730D02*
X0145425Y0141730D01*
X0145425Y0142006D02*
X0142545Y0142006D01*
X0142545Y0142282D02*
X0145425Y0142282D01*
X0145425Y0142558D02*
X0142545Y0142558D01*
X0142545Y0140593D02*
X0145425Y0140593D01*
X0145425Y0139485D01*
X0142545Y0139485D01*
X0142545Y0140593D01*
X0142545Y0139761D02*
X0145425Y0139761D01*
X0145425Y0140037D02*
X0142545Y0140037D01*
X0142545Y0140313D02*
X0145425Y0140313D01*
X0145425Y0140589D02*
X0142545Y0140589D01*
X0145990Y0136952D02*
X0145990Y0134072D01*
X0145990Y0136952D02*
X0147098Y0136952D01*
X0147098Y0134072D01*
X0145990Y0134072D01*
X0145990Y0134348D02*
X0147098Y0134348D01*
X0147098Y0134624D02*
X0145990Y0134624D01*
X0145990Y0134900D02*
X0147098Y0134900D01*
X0147098Y0135176D02*
X0145990Y0135176D01*
X0145990Y0135452D02*
X0147098Y0135452D01*
X0147098Y0135728D02*
X0145990Y0135728D01*
X0145990Y0136004D02*
X0147098Y0136004D01*
X0147098Y0136280D02*
X0145990Y0136280D01*
X0145990Y0136556D02*
X0147098Y0136556D01*
X0147098Y0136832D02*
X0145990Y0136832D01*
X0147959Y0136952D02*
X0147959Y0134072D01*
X0147959Y0136952D02*
X0149067Y0136952D01*
X0149067Y0134072D01*
X0147959Y0134072D01*
X0147959Y0134348D02*
X0149067Y0134348D01*
X0149067Y0134624D02*
X0147959Y0134624D01*
X0147959Y0134900D02*
X0149067Y0134900D01*
X0149067Y0135176D02*
X0147959Y0135176D01*
X0147959Y0135452D02*
X0149067Y0135452D01*
X0149067Y0135728D02*
X0147959Y0135728D01*
X0147959Y0136004D02*
X0149067Y0136004D01*
X0149067Y0136280D02*
X0147959Y0136280D01*
X0147959Y0136556D02*
X0149067Y0136556D01*
X0149067Y0136832D02*
X0147959Y0136832D01*
X0149927Y0136952D02*
X0149927Y0134072D01*
X0149927Y0136952D02*
X0151035Y0136952D01*
X0151035Y0134072D01*
X0149927Y0134072D01*
X0149927Y0134348D02*
X0151035Y0134348D01*
X0151035Y0134624D02*
X0149927Y0134624D01*
X0149927Y0134900D02*
X0151035Y0134900D01*
X0151035Y0135176D02*
X0149927Y0135176D01*
X0149927Y0135452D02*
X0151035Y0135452D01*
X0151035Y0135728D02*
X0149927Y0135728D01*
X0149927Y0136004D02*
X0151035Y0136004D01*
X0151035Y0136280D02*
X0149927Y0136280D01*
X0149927Y0136556D02*
X0151035Y0136556D01*
X0151035Y0136832D02*
X0149927Y0136832D01*
X0151896Y0136952D02*
X0151896Y0134072D01*
X0151896Y0136952D02*
X0153004Y0136952D01*
X0153004Y0134072D01*
X0151896Y0134072D01*
X0151896Y0134348D02*
X0153004Y0134348D01*
X0153004Y0134624D02*
X0151896Y0134624D01*
X0151896Y0134900D02*
X0153004Y0134900D01*
X0153004Y0135176D02*
X0151896Y0135176D01*
X0151896Y0135452D02*
X0153004Y0135452D01*
X0153004Y0135728D02*
X0151896Y0135728D01*
X0151896Y0136004D02*
X0153004Y0136004D01*
X0153004Y0136280D02*
X0151896Y0136280D01*
X0151896Y0136556D02*
X0153004Y0136556D01*
X0153004Y0136832D02*
X0151896Y0136832D01*
X0153864Y0136952D02*
X0153864Y0134072D01*
X0153864Y0136952D02*
X0154972Y0136952D01*
X0154972Y0134072D01*
X0153864Y0134072D01*
X0153864Y0134348D02*
X0154972Y0134348D01*
X0154972Y0134624D02*
X0153864Y0134624D01*
X0153864Y0134900D02*
X0154972Y0134900D01*
X0154972Y0135176D02*
X0153864Y0135176D01*
X0153864Y0135452D02*
X0154972Y0135452D01*
X0154972Y0135728D02*
X0153864Y0135728D01*
X0153864Y0136004D02*
X0154972Y0136004D01*
X0154972Y0136280D02*
X0153864Y0136280D01*
X0153864Y0136556D02*
X0154972Y0136556D01*
X0154972Y0136832D02*
X0153864Y0136832D01*
X0155833Y0136952D02*
X0155833Y0134072D01*
X0155833Y0136952D02*
X0156941Y0136952D01*
X0156941Y0134072D01*
X0155833Y0134072D01*
X0155833Y0134348D02*
X0156941Y0134348D01*
X0156941Y0134624D02*
X0155833Y0134624D01*
X0155833Y0134900D02*
X0156941Y0134900D01*
X0156941Y0135176D02*
X0155833Y0135176D01*
X0155833Y0135452D02*
X0156941Y0135452D01*
X0156941Y0135728D02*
X0155833Y0135728D01*
X0155833Y0136004D02*
X0156941Y0136004D01*
X0156941Y0136280D02*
X0155833Y0136280D01*
X0155833Y0136556D02*
X0156941Y0136556D01*
X0156941Y0136832D02*
X0155833Y0136832D01*
X0157801Y0138132D02*
X0157801Y0134072D01*
X0157801Y0138132D02*
X0158909Y0138132D01*
X0158909Y0134072D01*
X0157801Y0134072D01*
X0157801Y0134348D02*
X0158909Y0134348D01*
X0158909Y0134624D02*
X0157801Y0134624D01*
X0157801Y0134900D02*
X0158909Y0134900D01*
X0158909Y0135176D02*
X0157801Y0135176D01*
X0157801Y0135452D02*
X0158909Y0135452D01*
X0158909Y0135728D02*
X0157801Y0135728D01*
X0157801Y0136004D02*
X0158909Y0136004D01*
X0158909Y0136280D02*
X0157801Y0136280D01*
X0157801Y0136556D02*
X0158909Y0136556D01*
X0158909Y0136832D02*
X0157801Y0136832D01*
X0157801Y0137108D02*
X0158909Y0137108D01*
X0158909Y0137384D02*
X0157801Y0137384D01*
X0157801Y0137660D02*
X0158909Y0137660D01*
X0158909Y0137936D02*
X0157801Y0137936D01*
X0159770Y0136952D02*
X0159770Y0134072D01*
X0159770Y0136952D02*
X0160878Y0136952D01*
X0160878Y0134072D01*
X0159770Y0134072D01*
X0159770Y0134348D02*
X0160878Y0134348D01*
X0160878Y0134624D02*
X0159770Y0134624D01*
X0159770Y0134900D02*
X0160878Y0134900D01*
X0160878Y0135176D02*
X0159770Y0135176D01*
X0159770Y0135452D02*
X0160878Y0135452D01*
X0160878Y0135728D02*
X0159770Y0135728D01*
X0159770Y0136004D02*
X0160878Y0136004D01*
X0160878Y0136280D02*
X0159770Y0136280D01*
X0159770Y0136556D02*
X0160878Y0136556D01*
X0160878Y0136832D02*
X0159770Y0136832D01*
D36*
X0143985Y0138071D03*
X0198513Y0138071D03*
X0251859Y0138268D03*
X0301662Y0138268D03*
X0353828Y0138268D03*
D37*
X0359966Y0152404D02*
X0366586Y0152404D01*
X0366586Y0141848D01*
X0359966Y0141848D01*
X0359966Y0152404D01*
X0359966Y0143502D02*
X0366586Y0143502D01*
X0366586Y0145156D02*
X0359966Y0145156D01*
X0359966Y0146810D02*
X0366586Y0146810D01*
X0366586Y0148464D02*
X0359966Y0148464D01*
X0359966Y0150118D02*
X0366586Y0150118D01*
X0366586Y0151772D02*
X0359966Y0151772D01*
X0314421Y0152404D02*
X0307801Y0152404D01*
X0314421Y0152404D02*
X0314421Y0141848D01*
X0307801Y0141848D01*
X0307801Y0152404D01*
X0307801Y0143502D02*
X0314421Y0143502D01*
X0314421Y0145156D02*
X0307801Y0145156D01*
X0307801Y0146810D02*
X0314421Y0146810D01*
X0314421Y0148464D02*
X0307801Y0148464D01*
X0307801Y0150118D02*
X0314421Y0150118D01*
X0314421Y0151772D02*
X0307801Y0151772D01*
X0264618Y0152404D02*
X0257998Y0152404D01*
X0264618Y0152404D02*
X0264618Y0141848D01*
X0257998Y0141848D01*
X0257998Y0152404D01*
X0257998Y0143502D02*
X0264618Y0143502D01*
X0264618Y0145156D02*
X0257998Y0145156D01*
X0257998Y0146810D02*
X0264618Y0146810D01*
X0264618Y0148464D02*
X0257998Y0148464D01*
X0257998Y0150118D02*
X0264618Y0150118D01*
X0264618Y0151772D02*
X0257998Y0151772D01*
X0211271Y0152207D02*
X0204651Y0152207D01*
X0211271Y0152207D02*
X0211271Y0141651D01*
X0204651Y0141651D01*
X0204651Y0152207D01*
X0204651Y0143305D02*
X0211271Y0143305D01*
X0211271Y0144959D02*
X0204651Y0144959D01*
X0204651Y0146613D02*
X0211271Y0146613D01*
X0211271Y0148267D02*
X0204651Y0148267D01*
X0204651Y0149921D02*
X0211271Y0149921D01*
X0211271Y0151575D02*
X0204651Y0151575D01*
X0156744Y0152207D02*
X0150124Y0152207D01*
X0156744Y0152207D02*
X0156744Y0141651D01*
X0150124Y0141651D01*
X0150124Y0152207D01*
X0150124Y0143305D02*
X0156744Y0143305D01*
X0156744Y0144959D02*
X0150124Y0144959D01*
X0150124Y0146613D02*
X0156744Y0146613D01*
X0156744Y0148267D02*
X0150124Y0148267D01*
X0150124Y0149921D02*
X0156744Y0149921D01*
X0156744Y0151575D02*
X0150124Y0151575D01*
D38*
X0153434Y0146929D03*
X0207961Y0146929D03*
X0261308Y0147126D03*
X0311111Y0147126D03*
X0363276Y0147126D03*
D39*
X0382371Y0168386D03*
X0382371Y0170945D03*
X0382371Y0173504D03*
X0382371Y0177047D03*
X0382371Y0179606D03*
X0382371Y0182165D03*
X0389064Y0182165D03*
X0389064Y0177047D03*
X0389064Y0173504D03*
X0389064Y0168386D03*
X0388867Y0191220D03*
X0388867Y0196339D03*
X0382174Y0196339D03*
X0382174Y0193780D03*
X0382174Y0191220D03*
X0336702Y0192008D03*
X0336702Y0197126D03*
X0330009Y0197126D03*
X0330009Y0194567D03*
X0330009Y0192008D03*
X0330599Y0182362D03*
X0330599Y0179803D03*
X0330599Y0177244D03*
X0330796Y0173504D03*
X0330796Y0170945D03*
X0330796Y0168386D03*
X0337489Y0168386D03*
X0337489Y0173504D03*
X0337292Y0177244D03*
X0337292Y0182362D03*
X0285520Y0184134D03*
X0285520Y0179016D03*
X0285914Y0175472D03*
X0279221Y0175472D03*
X0279221Y0172913D03*
X0279221Y0170354D03*
X0285914Y0170354D03*
X0278828Y0179016D03*
X0278828Y0181575D03*
X0278828Y0184134D03*
X0278828Y0193386D03*
X0278828Y0195945D03*
X0278828Y0198504D03*
X0285520Y0198504D03*
X0285520Y0193386D03*
X0235324Y0193386D03*
X0235324Y0198504D03*
X0228631Y0198504D03*
X0228631Y0195945D03*
X0228631Y0193386D03*
X0228828Y0181575D03*
X0228828Y0179016D03*
X0228828Y0176457D03*
X0228828Y0171929D03*
X0228828Y0169370D03*
X0228828Y0166811D03*
X0235520Y0166811D03*
X0235520Y0171929D03*
X0235520Y0176457D03*
X0235520Y0181575D03*
X0179615Y0181378D03*
X0179615Y0176260D03*
X0179615Y0172520D03*
X0172922Y0172520D03*
X0172922Y0169961D03*
X0172922Y0167402D03*
X0179615Y0167402D03*
X0172922Y0176260D03*
X0172922Y0178819D03*
X0172922Y0181378D03*
X0172922Y0192402D03*
X0172922Y0194961D03*
X0172922Y0197520D03*
X0179615Y0197520D03*
X0179615Y0192402D03*
D40*
X0187784Y0118583D03*
X0187784Y0092992D03*
X0242607Y0093189D03*
X0242607Y0118780D03*
X0292410Y0118189D03*
X0292410Y0092598D03*
X0343493Y0092598D03*
X0343493Y0118189D03*
X0134044Y0118091D03*
X0134044Y0092500D03*
M02*
