G75*
%MOIN*%
%OFA0B0*%
%FSLAX25Y25*%
%IPPOS*%
%LPD*%
%AMOC8*
5,1,8,0,0,1.08239X$1,22.5*
%
%ADD10R,0.14370X0.18110*%
%ADD11C,0.08274*%
%ADD12R,0.06400X0.06400*%
%ADD13C,0.06400*%
%ADD14C,0.08650*%
%ADD15OC8,0.06400*%
%ADD16C,0.09849*%
D10*
X0153532Y0146732D03*
X0208060Y0146929D03*
X0261406Y0147323D03*
X0311209Y0147126D03*
X0363178Y0147126D03*
D11*
X0169772Y0108740D03*
D12*
X0149733Y0055000D03*
X0192253Y0055000D03*
X0234969Y0055000D03*
X0277883Y0055197D03*
X0320796Y0055000D03*
X0355087Y0055000D03*
X0383040Y0055000D03*
X0411387Y0055000D03*
X0438946Y0055000D03*
X0394241Y0080571D03*
X0394241Y0271024D03*
X0404772Y0288071D03*
X0372961Y0288071D03*
X0341072Y0288071D03*
X0308001Y0288071D03*
X0275914Y0288071D03*
X0243631Y0288071D03*
X0218513Y0288071D03*
X0194891Y0288071D03*
X0173040Y0288465D03*
X0126702Y0287677D03*
D13*
X0136702Y0290677D02*
X0136702Y0284677D01*
X0146702Y0284677D02*
X0146702Y0290677D01*
X0183040Y0291465D02*
X0183040Y0285465D01*
X0204891Y0285071D02*
X0204891Y0291071D01*
X0228513Y0291071D02*
X0228513Y0285071D01*
X0253631Y0285071D02*
X0253631Y0291071D01*
X0263631Y0291071D02*
X0263631Y0285071D01*
X0285914Y0285071D02*
X0285914Y0291071D01*
X0295914Y0291071D02*
X0295914Y0285071D01*
X0318001Y0285071D02*
X0318001Y0291071D01*
X0328001Y0291071D02*
X0328001Y0285071D01*
X0351072Y0285071D02*
X0351072Y0291071D01*
X0361072Y0291071D02*
X0361072Y0285071D01*
X0382961Y0285071D02*
X0382961Y0291071D01*
X0392961Y0291071D02*
X0392961Y0285071D01*
X0414772Y0285071D02*
X0414772Y0291071D01*
X0424772Y0291071D02*
X0424772Y0285071D01*
X0434772Y0285071D02*
X0434772Y0291071D01*
X0125922Y0243740D02*
X0119922Y0243740D01*
X0119922Y0233740D02*
X0125922Y0233740D01*
X0125922Y0223740D02*
X0119922Y0223740D01*
X0119733Y0058000D02*
X0119733Y0052000D01*
X0129733Y0052000D02*
X0129733Y0058000D01*
X0139733Y0058000D02*
X0139733Y0052000D01*
X0162253Y0052000D02*
X0162253Y0058000D01*
X0172253Y0058000D02*
X0172253Y0052000D01*
X0182253Y0052000D02*
X0182253Y0058000D01*
X0204969Y0058000D02*
X0204969Y0052000D01*
X0214969Y0052000D02*
X0214969Y0058000D01*
X0224969Y0058000D02*
X0224969Y0052000D01*
X0247883Y0052197D02*
X0247883Y0058197D01*
X0257883Y0058197D02*
X0257883Y0052197D01*
X0267883Y0052197D02*
X0267883Y0058197D01*
X0290796Y0058000D02*
X0290796Y0052000D01*
X0300796Y0052000D02*
X0300796Y0058000D01*
X0310796Y0058000D02*
X0310796Y0052000D01*
X0345087Y0052000D02*
X0345087Y0058000D01*
X0373040Y0058000D02*
X0373040Y0052000D01*
X0401387Y0052000D02*
X0401387Y0058000D01*
X0428946Y0058000D02*
X0428946Y0052000D01*
D14*
X0074508Y0048031D02*
X0066258Y0048031D01*
X0066258Y0068031D02*
X0074508Y0068031D01*
X0074508Y0088031D02*
X0066258Y0088031D01*
X0066258Y0108031D02*
X0074508Y0108031D01*
X0074508Y0136535D02*
X0066258Y0136535D01*
X0066258Y0156535D02*
X0074508Y0156535D01*
X0074508Y0185039D02*
X0066258Y0185039D01*
X0066258Y0205039D02*
X0074508Y0205039D01*
X0074508Y0225039D02*
X0066258Y0225039D01*
X0066258Y0245039D02*
X0074508Y0245039D01*
X0074508Y0273543D02*
X0066258Y0273543D01*
X0066258Y0293543D02*
X0074508Y0293543D01*
D15*
X0174241Y0271024D03*
X0184241Y0271024D03*
X0194241Y0271024D03*
X0204241Y0271024D03*
X0214241Y0271024D03*
X0224241Y0271024D03*
X0234241Y0271024D03*
X0244241Y0271024D03*
X0254241Y0271024D03*
X0264241Y0271024D03*
X0274241Y0271024D03*
X0284241Y0271024D03*
X0294241Y0271024D03*
X0304241Y0271024D03*
X0314241Y0271024D03*
X0324241Y0271024D03*
X0334241Y0271024D03*
X0344241Y0271024D03*
X0354241Y0271024D03*
X0364241Y0271024D03*
X0374241Y0271024D03*
X0384241Y0271024D03*
X0384241Y0261024D03*
X0394241Y0261024D03*
X0374241Y0261024D03*
X0364241Y0261024D03*
X0354241Y0261024D03*
X0344241Y0261024D03*
X0334241Y0261024D03*
X0324241Y0261024D03*
X0314241Y0261024D03*
X0304241Y0261024D03*
X0294241Y0261024D03*
X0284241Y0261024D03*
X0274241Y0261024D03*
X0264241Y0261024D03*
X0254241Y0261024D03*
X0244241Y0261024D03*
X0234241Y0261024D03*
X0224241Y0261024D03*
X0214241Y0261024D03*
X0204241Y0261024D03*
X0194241Y0261024D03*
X0184241Y0261024D03*
X0174241Y0261024D03*
X0174241Y0080571D03*
X0184241Y0080571D03*
X0194241Y0080571D03*
X0204241Y0080571D03*
X0214241Y0080571D03*
X0224241Y0080571D03*
X0234241Y0080571D03*
X0244241Y0080571D03*
X0254241Y0080571D03*
X0264241Y0080571D03*
X0274241Y0080571D03*
X0284241Y0080571D03*
X0294241Y0080571D03*
X0304241Y0080571D03*
X0314241Y0080571D03*
X0324241Y0080571D03*
X0334241Y0080571D03*
X0344241Y0080571D03*
X0354241Y0080571D03*
X0364241Y0080571D03*
X0374241Y0080571D03*
X0384241Y0080571D03*
X0384241Y0070571D03*
X0394241Y0070571D03*
X0374241Y0070571D03*
X0364241Y0070571D03*
X0354241Y0070571D03*
X0344241Y0070571D03*
X0334241Y0070571D03*
X0324241Y0070571D03*
X0314241Y0070571D03*
X0304241Y0070571D03*
X0294241Y0070571D03*
X0284241Y0070571D03*
X0274241Y0070571D03*
X0264241Y0070571D03*
X0254241Y0070571D03*
X0244241Y0070571D03*
X0234241Y0070571D03*
X0224241Y0070571D03*
X0214241Y0070571D03*
X0204241Y0070571D03*
X0194241Y0070571D03*
X0184241Y0070571D03*
X0174241Y0070571D03*
D16*
X0100875Y0051850D03*
X0087489Y0051850D03*
X0087489Y0104843D03*
X0100875Y0104843D03*
M02*
