%
M48
M72
T01C0.01181
T02C0.01201
T03C0.04000
T04C0.05500
T05C0.06299
T06C0.07874
%
T01
X81190Y61102
X105993Y61299
X134733Y78917
X121938Y86890
X121741Y90433
X123316Y93780
X123316Y98701
X116229Y112283
X146741Y111496
X149694Y118583
X146938Y124488
X147135Y132165
X166032Y133543
X168198Y139252
X172135Y140630
X178040Y142008
X168788Y148701
X165835Y147717
X166820Y152047
X158158Y161693
X151859Y161890
X148513Y161890
X140639Y154803
X127646Y162283
X125678Y157953
X122528Y153819
X110717Y162283
X92804Y171535
X147725Y193976
X155206Y202441
X159733Y201457
X162883Y202638
X168985Y192992
X176269Y195354
X182371Y206378
X188080Y210512
X196544Y206378
X201269Y211102
X210914Y214055
X213670Y210512
X216623Y211693
X208946Y201457
X203631Y201654
X238276Y206575
X249891Y206575
X254024Y211299
X256977Y212087
X264654Y213071
X257371Y222126
X251465Y232756
X241623Y224488
X242213Y242008
X238670Y243976
X247135Y242795
X264064Y236496
X269182Y235709
X281780Y232953
X285717Y234724
X295363Y236693
X299497Y229606
X303040Y228819
X310520Y236693
X314851Y233740
X317017Y238465
X321741Y233740
X331190Y235709
X329221Y248504
X325284Y255394
X313473Y250276
X305599Y248504
X300087Y253228
X287095Y253819
X281583Y249094
X259536Y265630
X246938Y265827
X246741Y277638
X268985Y277835
X299103Y276850
X329024Y266220
X347528Y276063
X368985Y255787
X392607Y242795
X392607Y234724
X392804Y228425
X413473Y218976
X421544Y216811
X425875Y216811
X425284Y229606
X428237Y229606
X460127Y239055
X460127Y246732
X460127Y254016
X432568Y258740
X402056Y255000
X360520Y221535
X356583Y221535
X359339Y217402
X359339Y214055
X351269Y206181
X344379Y211890
X339851Y212480
X339851Y206181
X338670Y221142
X318198Y212087
X314654Y211890
X305993Y211496
X299300Y209724
X299103Y206174
X307174Y201654
X312292Y201654
X315442Y201654
X319772Y202244
X300284Y217992
X290639Y214646
X288473Y206181
X275284Y206181
X269772Y201654
X262292Y201457
X264654Y162283
X259930Y162087
X256387Y162087
X244379Y160709
X235717Y155591
X223513Y151850
X223906Y148307
X220757Y147717
X221544Y139843
X223906Y137283
X228040Y139646
X221150Y131969
X201662Y132165
X201072Y123898
X204418Y119173
X201465Y113661
X212489Y102441
X210520Y93386
X206977Y92205
X228828Y91811
X229221Y75276
X253237Y85709
X256977Y90827
X267017Y84724
X265048Y103031
X258158Y109724
X254812Y114055
X254615Y124291
X254812Y132362
X274497Y134331
X274103Y139646
X278434Y140039
X286702Y135512
X276662Y149882
X274694Y152244
X274103Y147913
X286505Y151260
X287883Y158740
X298316Y155591
X305993Y162283
X309733Y162480
X314654Y162480
X328631Y152244
X329024Y148504
X324103Y149980
X324103Y139843
X324891Y133937
X330796Y137087
X333749Y140236
X351072Y154213
X351662Y161299
X347331Y161299
X341328Y160512
X338080Y158150
X357371Y161693
X361898Y162283
X367017Y162283
X375678Y147913
X378828Y147913
X380009Y150669
X385422Y144075
X388670Y147520
X389064Y150669
X375383Y135020
X357174Y132165
X356387Y122520
X349891Y110512
X339654Y100472
X332765Y106181
X330009Y108346
X330894Y103031
X332765Y90433
X338473Y77244
X339064Y73110
X350973Y95157
X354024Y97520
X361111Y94764
X369576Y103622
X381190Y92598
X376269Y86102
X387883Y103622
X413080Y99685
X417607Y95551
X409930Y88858
X437686Y86102
X441229Y94764
X436702Y67008
X361898Y52244
X315639Y92992
X306583Y102047
X307765Y109724
X304024Y114843
X303828Y123701
X304615Y132362
X298414Y85217
X195363Y156772
X187292Y156575
X182961Y157362
X203040Y162677
X206583Y162087
X211308Y162087
X157961Y211299
X150678Y215433
X148316Y213465
X141229Y210315
X142804Y206378
X133158Y210118
X130796Y213465
X138080Y217598
X129812Y220157
X119772Y213465
X121938Y210118
X118001Y217598
X105993Y227835
X115835Y239055
X135127Y239055
X143198Y233150
X138473Y228819
X147331Y227835
X153631Y234921
X161308Y229606
X163670Y227441
X153631Y217598
X179024Y230000
X184143Y230591
X199103Y235118
X205993Y242402
X216426Y243780
X226662Y241614
X201072Y254409
X191820Y251654
X184536Y251654
X166229Y279016
X136505Y275472
X147331Y251654
X93394Y236299
X94182Y304016
X353434Y190827
X356583Y194567
X359143Y200669
X364064Y197323
X366623Y200472
X370560Y200866
X391623Y200276
X449103Y202638
X172528Y96535
X163276Y87087
X166032Y85118
X157371Y101063
T02
X156091Y111496
X156091Y114449
X152942Y114449
X152942Y111496
X162194Y116909
X165048Y116909
X180993Y126161
X180993Y129114
X180993Y131969
X180993Y134823
X193099Y128720
X197036Y119370
X196938Y116220
X208060Y114843
X208060Y111890
X211209Y111890
X211209Y114843
X218001Y114252
X221741Y114449
X238867Y105886
X242410Y105984
X245954Y105984
X261406Y112087
X261406Y115039
X264556Y115039
X264556Y112087
X271249Y115827
X274497Y115728
X285127Y116516
X285028Y119469
X285028Y122421
X285127Y113366
X299792Y123012
X310422Y115039
X310422Y112087
X313572Y112087
X313572Y115039
X321446Y117106
X325186Y117106
X336406Y122421
X336505Y125768
X336406Y128917
X336406Y132165
X348020Y127244
X357765Y139350
X361111Y139350
X361111Y142697
X361111Y145846
X361111Y148602
X361111Y151555
X357765Y151555
X357765Y148602
X357765Y145846
X357765Y142697
X365048Y142697
X365048Y145846
X365048Y148602
X365048Y151555
X368394Y151555
X368394Y148602
X368394Y145846
X368394Y142697
X368394Y139350
X365048Y139350
X365048Y154902
X368394Y154902
X361111Y154902
X357765Y154902
X376564Y165630
X376564Y168976
X386013Y179606
X385717Y193583
X378631Y192795
X378631Y196142
X378729Y204803
X378729Y208543
X378729Y212874
X378729Y216614
X370068Y216614
X370068Y212677
X361603Y209921
X351170Y203031
X369871Y197323
X349595Y181969
X358060Y173898
X361013Y173898
X334044Y180000
X333552Y190039
X323709Y192795
X323513Y196142
X304615Y191811
X299891Y189646
X297627Y181969
X305894Y174094
X308847Y174094
X299300Y161496
X294379Y161496
X306190Y154705
X309339Y154705
X309339Y151358
X309339Y148406
X309339Y145650
X306190Y145650
X306190Y148406
X306190Y151358
X313080Y151555
X313080Y148602
X313080Y145846
X313080Y142697
X316229Y142697
X316426Y145846
X316426Y148602
X316426Y151555
X316426Y154902
X313080Y154902
X325186Y165827
X325186Y168780
X330501Y164843
X309339Y142500
X306190Y142500
X306190Y139350
X309339Y139350
X313080Y139350
X316426Y139350
X294083Y151260
X282076Y165039
X275580Y164646
X275580Y167205
X266820Y154902
X266820Y151752
X266820Y148799
X266820Y145846
X266820Y142697
X266820Y139350
X263473Y139350
X263473Y142697
X263473Y145846
X263473Y148799
X263473Y151752
X263473Y154902
X259536Y154902
X259536Y151752
X259536Y148799
X259536Y145846
X259536Y142697
X256190Y142697
X256190Y145846
X256190Y148799
X256190Y151752
X256190Y154902
X249694Y164055
X256288Y174094
X259044Y174094
X246446Y180394
X252253Y190039
X231780Y189646
X225284Y195354
X225284Y198504
X232272Y179016
X222430Y168583
X222430Y165827
X228926Y162480
X228926Y158740
X213473Y154508
X213473Y151555
X213473Y148602
X213473Y145453
X213473Y142303
X213473Y139350
X209733Y139350
X209733Y142303
X209733Y145453
X209733Y148602
X209733Y151555
X209733Y154508
X205993Y154508
X205993Y151555
X205993Y148602
X205993Y145453
X205993Y142303
X205993Y139350
X202450Y139350
X202450Y142500
X202450Y145453
X202450Y148602
X202450Y151555
X202450Y154508
X189457Y151555
X192804Y164252
X196150Y168976
X202548Y174488
X205304Y174488
X193296Y181772
X195757Y188858
X176269Y190236
X166721Y183543
X176269Y178720
X167312Y167795
X167312Y164843
X172430Y164055
X158355Y154508
X155206Y154508
X155206Y151358
X155206Y148406
X155206Y145453
X155206Y142500
X158355Y142500
X158355Y145453
X158355Y148406
X158355Y151358
X151662Y151358
X151662Y148406
X151662Y145453
X151662Y142500
X151662Y139350
X148119Y139350
X148119Y142500
X148119Y145453
X148119Y148406
X148119Y151358
X148119Y154508
X151662Y154508
X135914Y151358
X155206Y139350
X158355Y139350
X137489Y128524
X114556Y131575
X111997Y134134
X114556Y136693
X111997Y139055
X114556Y141024
X111997Y129016
X128335Y109626
X135225Y105098
X135225Y102146
X138375Y102146
X138375Y105098
X114950Y64252
X111997Y64252
X111997Y61102
X114950Y61102
X195461Y102441
X198611Y102441
X231485Y133445
X231387Y137579
X246150Y128524
X250580Y120354
X250580Y117303
X254024Y120650
X256190Y139350
X259536Y139350
X243788Y151161
X282666Y181575
X282371Y192598
X274891Y194173
X275284Y197717
X309635Y211299
X318690Y218386
X310816Y229213
X328532Y241614
X343394Y241713
X348513Y232461
X348513Y229508
X351662Y229508
X351662Y232461
X356977Y239547
X356977Y242894
X362292Y244469
X365442Y244469
X368985Y244469
X372135Y244469
X364064Y252441
X364457Y230295
X361308Y230295
X368001Y230295
X371150Y230295
X399792Y216614
X399792Y212874
X399792Y208543
X399792Y205000
X439359Y212480
X439359Y216220
X443887Y216220
X443887Y212480
X443887Y220551
X443887Y224291
X439359Y224291
X439359Y220551
X440442Y237972
X437292Y237972
X433749Y237972
X430599Y237972
X420757Y237579
X420757Y240335
X417804Y240335
X417804Y237579
X409339Y236791
X426072Y246831
X426072Y249980
X430402Y252539
X433552Y252539
X437095Y252539
X440245Y252539
X452942Y262480
X456682Y262480
X410914Y251161
X465146Y224291
X465146Y220551
X465146Y216220
X465146Y212480
X339654Y229114
X331288Y224094
X372725Y117894
X376072Y117992
X365737Y115236
X365737Y112283
X362587Y112283
X362587Y115236
X355894Y108937
X352942Y108937
X352942Y105984
X355894Y105984
X316131Y105984
X313965Y103819
X303926Y111102
X301957Y108839
X249398Y91811
X333749Y53031
X389851Y52441
X417410Y51850
X421643Y66024
X421643Y76260
X422233Y83937
X422233Y96732
X445265Y84921
X444477Y76850
X444083Y66220
X445658Y96535
X169379Y245551
X151072Y238661
X148316Y240630
X150678Y232953
X117312Y260610
X113473Y260610
X113473Y265335
X117312Y265335
X117312Y270256
X113670Y270256
X114162Y202441
X112095Y200079
X114359Y197717
X112095Y195157
X114162Y192402
X112095Y190039
X135422Y181378
X148217Y174685
X150776Y174685
X143198Y189646
T03
X122922Y223740
X122922Y233740
X122922Y243740
X174241Y261024
X184241Y261024
X194241Y261024
X204241Y261024
X214241Y261024
X224241Y261024
X234241Y261024
X234241Y271024
X224241Y271024
X214241Y271024
X204241Y271024
X194241Y271024
X184241Y271024
X174241Y271024
X173040Y288465
X183040Y288465
X194891Y288071
X204891Y288071
X218513Y288071
X228513Y288071
X243631Y288071
X253631Y288071
X263631Y288071
X275914Y288071
X285914Y288071
X295914Y288071
X308001Y288071
X318001Y288071
X328001Y288071
X341072Y288071
X351072Y288071
X361072Y288071
X372961Y288071
X382961Y288071
X392961Y288071
X404772Y288071
X414772Y288071
X424772Y288071
X434772Y288071
X394241Y271024
X384241Y271024
X374241Y271024
X364241Y271024
X354241Y271024
X344241Y271024
X334241Y271024
X324241Y271024
X314241Y271024
X304241Y271024
X294241Y271024
X284241Y271024
X274241Y271024
X264241Y271024
X254241Y271024
X244241Y271024
X244241Y261024
X254241Y261024
X264241Y261024
X274241Y261024
X284241Y261024
X294241Y261024
X304241Y261024
X314241Y261024
X324241Y261024
X334241Y261024
X344241Y261024
X354241Y261024
X364241Y261024
X374241Y261024
X384241Y261024
X394241Y261024
X394241Y80571
X384241Y80571
X374241Y80571
X364241Y80571
X354241Y80571
X344241Y80571
X334241Y80571
X324241Y80571
X314241Y80571
X304241Y80571
X294241Y80571
X284241Y80571
X274241Y80571
X264241Y80571
X254241Y80571
X244241Y80571
X234241Y80571
X224241Y80571
X214241Y80571
X204241Y80571
X194241Y80571
X184241Y80571
X174241Y80571
X174241Y70571
X184241Y70571
X194241Y70571
X204241Y70571
X214241Y70571
X224241Y70571
X234241Y70571
X244241Y70571
X254241Y70571
X264241Y70571
X274241Y70571
X284241Y70571
X294241Y70571
X304241Y70571
X314241Y70571
X324241Y70571
X334241Y70571
X344241Y70571
X354241Y70571
X364241Y70571
X374241Y70571
X384241Y70571
X394241Y70571
X401387Y55000
X411387Y55000
X428946Y55000
X438946Y55000
X383040Y55000
X373040Y55000
X355087Y55000
X345087Y55000
X320796Y55000
X310796Y55000
X300796Y55000
X290796Y55000
X277883Y55197
X267883Y55197
X257883Y55197
X247883Y55197
X234969Y55000
X224969Y55000
X214969Y55000
X204969Y55000
X192253Y55000
X182253Y55000
X172253Y55000
X162253Y55000
X149733Y55000
X139733Y55000
X129733Y55000
X119733Y55000
X126702Y287677
X136702Y287677
X146702Y287677
T04
X70383Y48031
X70383Y68031
X70383Y88031
X70383Y108031
X70383Y136535
X70383Y156535
X70383Y185039
X70383Y205039
X70383Y225039
X70383Y245039
X70383Y273543
X70383Y293543
T05
X87489Y104843
X100875Y104843
X100875Y51850
X87489Y51850
T06
X169772Y108740
M30
