G75*
%MOIN*%
%OFA0B0*%
%FSLAX25Y25*%
%IPPOS*%
%LPD*%
%AMOC8*
5,1,8,0,0,1.08239X$1,22.5*
%
%ADD10C,0.00000*%
D10*
X0054418Y0033740D02*
X0104418Y0033740D01*
X0104537Y0033754D01*
X0104657Y0033773D01*
X0104775Y0033795D01*
X0104893Y0033821D01*
X0105010Y0033850D01*
X0105125Y0033884D01*
X0105240Y0033921D01*
X0105354Y0033962D01*
X0105466Y0034006D01*
X0105576Y0034054D01*
X0105685Y0034106D01*
X0105793Y0034161D01*
X0105898Y0034219D01*
X0106002Y0034281D01*
X0106103Y0034346D01*
X0106203Y0034414D01*
X0106300Y0034486D01*
X0106394Y0034560D01*
X0106487Y0034638D01*
X0106577Y0034718D01*
X0106664Y0034801D01*
X0106748Y0034887D01*
X0106830Y0034976D01*
X0106909Y0035067D01*
X0106985Y0035161D01*
X0107058Y0035257D01*
X0107127Y0035355D01*
X0107194Y0035456D01*
X0107257Y0035558D01*
X0107317Y0035663D01*
X0107374Y0035769D01*
X0107427Y0035878D01*
X0107476Y0035988D01*
X0107522Y0036099D01*
X0107565Y0036212D01*
X0107604Y0036326D01*
X0107639Y0036441D01*
X0107670Y0036558D01*
X0107698Y0036675D01*
X0107722Y0036793D01*
X0107742Y0036912D01*
X0107758Y0037032D01*
X0107771Y0037151D01*
X0107779Y0037272D01*
X0107784Y0037392D01*
X0107785Y0037513D01*
X0107782Y0037633D01*
X0107775Y0037754D01*
X0107764Y0037874D01*
X0107765Y0037874D02*
X0107765Y0049685D01*
X0111111Y0049685D01*
X0111111Y0049291D01*
X0111111Y0049292D02*
X0111117Y0049177D01*
X0111126Y0049062D01*
X0111139Y0048947D01*
X0111155Y0048833D01*
X0111176Y0048720D01*
X0111200Y0048607D01*
X0111228Y0048496D01*
X0111260Y0048385D01*
X0111295Y0048275D01*
X0111334Y0048167D01*
X0111377Y0048060D01*
X0111423Y0047955D01*
X0111473Y0047851D01*
X0111526Y0047749D01*
X0111583Y0047648D01*
X0111642Y0047550D01*
X0111706Y0047454D01*
X0111772Y0047359D01*
X0111841Y0047268D01*
X0111914Y0047178D01*
X0111989Y0047091D01*
X0112067Y0047006D01*
X0112148Y0046925D01*
X0112232Y0046846D01*
X0112318Y0046769D01*
X0112407Y0046696D01*
X0112498Y0046626D01*
X0112592Y0046558D01*
X0112688Y0046494D01*
X0112785Y0046434D01*
X0112885Y0046376D01*
X0112987Y0046322D01*
X0113090Y0046271D01*
X0113195Y0046224D01*
X0113302Y0046180D01*
X0113410Y0046140D01*
X0113519Y0046104D01*
X0113629Y0046071D01*
X0113741Y0046042D01*
X0113853Y0046016D01*
X0113966Y0045995D01*
X0114080Y0045977D01*
X0114194Y0045963D01*
X0114309Y0045953D01*
X0114424Y0045947D01*
X0114539Y0045944D01*
X0114654Y0045945D01*
X0325875Y0045945D01*
X0325959Y0045960D01*
X0326042Y0045979D01*
X0326124Y0046002D01*
X0326204Y0046028D01*
X0326284Y0046058D01*
X0326362Y0046091D01*
X0326439Y0046128D01*
X0326513Y0046168D01*
X0326586Y0046212D01*
X0326657Y0046258D01*
X0326726Y0046308D01*
X0326792Y0046361D01*
X0326856Y0046417D01*
X0326918Y0046476D01*
X0326977Y0046537D01*
X0327033Y0046601D01*
X0327086Y0046668D01*
X0327136Y0046736D01*
X0327182Y0046807D01*
X0327226Y0046880D01*
X0327266Y0046955D01*
X0327303Y0047031D01*
X0327337Y0047109D01*
X0327366Y0047189D01*
X0327393Y0047270D01*
X0327415Y0047352D01*
X0327434Y0047434D01*
X0327450Y0047518D01*
X0327461Y0047602D01*
X0327469Y0047687D01*
X0327473Y0047772D01*
X0327473Y0047857D01*
X0327469Y0047941D01*
X0327461Y0048026D01*
X0327450Y0048110D01*
X0327450Y0050276D01*
X0331387Y0050276D01*
X0331387Y0048504D01*
X0331386Y0048504D02*
X0331384Y0048405D01*
X0331386Y0048306D01*
X0331392Y0048207D01*
X0331402Y0048108D01*
X0331416Y0048010D01*
X0331434Y0047913D01*
X0331456Y0047816D01*
X0331481Y0047720D01*
X0331511Y0047625D01*
X0331544Y0047532D01*
X0331581Y0047440D01*
X0331622Y0047349D01*
X0331666Y0047261D01*
X0331714Y0047174D01*
X0331766Y0047089D01*
X0331820Y0047006D01*
X0331878Y0046926D01*
X0331940Y0046848D01*
X0332004Y0046772D01*
X0332071Y0046699D01*
X0332141Y0046629D01*
X0332214Y0046562D01*
X0332290Y0046498D01*
X0332368Y0046437D01*
X0332448Y0046379D01*
X0332531Y0046324D01*
X0332616Y0046273D01*
X0332703Y0046225D01*
X0332792Y0046180D01*
X0332882Y0046140D01*
X0332974Y0046103D01*
X0333068Y0046070D01*
X0333162Y0046040D01*
X0333258Y0046014D01*
X0333355Y0045993D01*
X0333453Y0045975D01*
X0333551Y0045961D01*
X0333650Y0045951D01*
X0333749Y0045945D01*
X0447528Y0045945D01*
X0447529Y0045945D02*
X0447663Y0045939D01*
X0447798Y0045936D01*
X0447933Y0045937D01*
X0448068Y0045942D01*
X0448202Y0045951D01*
X0448336Y0045964D01*
X0448470Y0045981D01*
X0448603Y0046002D01*
X0448736Y0046027D01*
X0448868Y0046055D01*
X0448999Y0046087D01*
X0449129Y0046123D01*
X0449257Y0046163D01*
X0449385Y0046207D01*
X0449511Y0046254D01*
X0449636Y0046305D01*
X0449759Y0046359D01*
X0449881Y0046417D01*
X0450001Y0046479D01*
X0450119Y0046544D01*
X0450235Y0046613D01*
X0450349Y0046684D01*
X0450461Y0046759D01*
X0450571Y0046838D01*
X0450679Y0046919D01*
X0450784Y0047004D01*
X0450886Y0047091D01*
X0450986Y0047182D01*
X0451083Y0047275D01*
X0451178Y0047372D01*
X0451269Y0047470D01*
X0451358Y0047572D01*
X0451444Y0047676D01*
X0451526Y0047783D01*
X0451606Y0047891D01*
X0451682Y0048003D01*
X0451755Y0048116D01*
X0451825Y0048231D01*
X0451891Y0048349D01*
X0451954Y0048468D01*
X0452014Y0048589D01*
X0452070Y0048712D01*
X0452122Y0048836D01*
X0452171Y0048962D01*
X0452216Y0049089D01*
X0452257Y0049217D01*
X0452294Y0049346D01*
X0452328Y0049477D01*
X0452358Y0049608D01*
X0452384Y0049741D01*
X0452406Y0049874D01*
X0452425Y0050007D01*
X0452439Y0050141D01*
X0452450Y0050276D01*
X0452450Y0127047D01*
X0394969Y0127047D01*
X0394969Y0194173D01*
X0476859Y0194173D01*
X0476859Y0255000D01*
X0476858Y0255000D02*
X0476863Y0255982D01*
X0476844Y0256965D01*
X0476801Y0257946D01*
X0476735Y0258926D01*
X0476645Y0259905D01*
X0476531Y0260881D01*
X0476394Y0261853D01*
X0476233Y0262823D01*
X0476049Y0263788D01*
X0475842Y0264748D01*
X0475611Y0265703D01*
X0475358Y0266652D01*
X0475082Y0267595D01*
X0474783Y0268531D01*
X0474461Y0269459D01*
X0474117Y0270379D01*
X0473751Y0271291D01*
X0473363Y0272194D01*
X0472953Y0273087D01*
X0472522Y0273970D01*
X0472070Y0274842D01*
X0471597Y0275703D01*
X0471103Y0276552D01*
X0470588Y0277389D01*
X0470054Y0278213D01*
X0469500Y0279025D01*
X0468926Y0279822D01*
X0468334Y0280606D01*
X0467722Y0281375D01*
X0467092Y0282129D01*
X0466444Y0282867D01*
X0465779Y0283590D01*
X0465096Y0284296D01*
X0464396Y0284986D01*
X0463680Y0285658D01*
X0462948Y0286314D01*
X0462200Y0286951D01*
X0461437Y0287570D01*
X0460659Y0288170D01*
X0459867Y0288751D01*
X0459062Y0289313D01*
X0458242Y0289856D01*
X0457410Y0290378D01*
X0456566Y0290880D01*
X0455710Y0291362D01*
X0454842Y0291823D01*
X0453963Y0292262D01*
X0453074Y0292681D01*
X0452176Y0293077D01*
X0451268Y0293452D01*
X0450351Y0293805D01*
X0449426Y0294136D01*
X0448493Y0294444D01*
X0447553Y0294729D01*
X0446606Y0294992D01*
X0445653Y0295232D01*
X0444695Y0295449D01*
X0443732Y0295642D01*
X0442764Y0295812D01*
X0441793Y0295959D01*
X0440818Y0296082D01*
X0439841Y0296181D01*
X0438861Y0296257D01*
X0437880Y0296310D01*
X0436898Y0296338D01*
X0436898Y0296339D02*
X0240146Y0296339D01*
X0240147Y0296339D02*
X0240057Y0296332D01*
X0239967Y0296322D01*
X0239878Y0296308D01*
X0239789Y0296290D01*
X0239702Y0296268D01*
X0239615Y0296243D01*
X0239530Y0296213D01*
X0239446Y0296180D01*
X0239363Y0296144D01*
X0239282Y0296103D01*
X0239203Y0296060D01*
X0239126Y0296013D01*
X0239052Y0295962D01*
X0238979Y0295908D01*
X0238909Y0295852D01*
X0238841Y0295792D01*
X0238776Y0295729D01*
X0238714Y0295664D01*
X0238655Y0295596D01*
X0238599Y0295525D01*
X0238546Y0295452D01*
X0238496Y0295377D01*
X0238449Y0295299D01*
X0238406Y0295220D01*
X0238366Y0295139D01*
X0238330Y0295056D01*
X0238298Y0294972D01*
X0238269Y0294886D01*
X0238244Y0294800D01*
X0238223Y0294712D01*
X0238206Y0294623D01*
X0238193Y0294534D01*
X0238183Y0294444D01*
X0238178Y0294354D01*
X0238176Y0294264D01*
X0238178Y0294174D01*
X0238178Y0294173D02*
X0238178Y0292795D01*
X0234733Y0292795D01*
X0234733Y0294764D01*
X0234734Y0294764D02*
X0234737Y0294838D01*
X0234736Y0294913D01*
X0234732Y0294988D01*
X0234723Y0295063D01*
X0234711Y0295137D01*
X0234695Y0295210D01*
X0234676Y0295283D01*
X0234653Y0295354D01*
X0234626Y0295424D01*
X0234596Y0295493D01*
X0234562Y0295560D01*
X0234525Y0295625D01*
X0234485Y0295688D01*
X0234442Y0295749D01*
X0234395Y0295808D01*
X0234346Y0295864D01*
X0234294Y0295918D01*
X0234239Y0295969D01*
X0234181Y0296018D01*
X0234122Y0296063D01*
X0234060Y0296105D01*
X0233996Y0296144D01*
X0233930Y0296180D01*
X0233862Y0296213D01*
X0233793Y0296242D01*
X0233722Y0296267D01*
X0233651Y0296289D01*
X0233578Y0296307D01*
X0233504Y0296321D01*
X0233430Y0296332D01*
X0233355Y0296339D01*
X0168591Y0296339D01*
X0168501Y0296341D01*
X0168411Y0296339D01*
X0168321Y0296334D01*
X0168231Y0296324D01*
X0168142Y0296311D01*
X0168053Y0296294D01*
X0167965Y0296273D01*
X0167879Y0296248D01*
X0167793Y0296219D01*
X0167709Y0296187D01*
X0167626Y0296151D01*
X0167545Y0296111D01*
X0167466Y0296068D01*
X0167388Y0296021D01*
X0167313Y0295971D01*
X0167240Y0295918D01*
X0167169Y0295862D01*
X0167101Y0295803D01*
X0167036Y0295741D01*
X0166973Y0295676D01*
X0166913Y0295608D01*
X0166857Y0295538D01*
X0166803Y0295465D01*
X0166752Y0295391D01*
X0166705Y0295314D01*
X0166662Y0295235D01*
X0166621Y0295154D01*
X0166585Y0295071D01*
X0166552Y0294987D01*
X0166522Y0294902D01*
X0166497Y0294815D01*
X0166475Y0294728D01*
X0166457Y0294639D01*
X0166443Y0294550D01*
X0166433Y0294460D01*
X0166426Y0294370D01*
X0166426Y0292795D01*
X0163276Y0292795D01*
X0163276Y0293780D01*
X0163277Y0293780D02*
X0163279Y0293876D01*
X0163277Y0293973D01*
X0163272Y0294070D01*
X0163262Y0294166D01*
X0163249Y0294262D01*
X0163232Y0294357D01*
X0163211Y0294451D01*
X0163187Y0294545D01*
X0163159Y0294637D01*
X0163127Y0294729D01*
X0163092Y0294819D01*
X0163053Y0294908D01*
X0163011Y0294995D01*
X0162966Y0295080D01*
X0162917Y0295163D01*
X0162865Y0295245D01*
X0162810Y0295324D01*
X0162751Y0295401D01*
X0162690Y0295476D01*
X0162626Y0295549D01*
X0162559Y0295618D01*
X0162489Y0295685D01*
X0162417Y0295750D01*
X0162342Y0295811D01*
X0162265Y0295870D01*
X0162186Y0295925D01*
X0162104Y0295977D01*
X0162021Y0296026D01*
X0161936Y0296072D01*
X0161849Y0296114D01*
X0161760Y0296153D01*
X0161670Y0296188D01*
X0161579Y0296220D01*
X0161486Y0296248D01*
X0161393Y0296273D01*
X0161298Y0296293D01*
X0161203Y0296310D01*
X0161107Y0296324D01*
X0161011Y0296333D01*
X0160914Y0296339D01*
X0115245Y0296339D01*
X0115122Y0296346D01*
X0114999Y0296350D01*
X0114875Y0296349D01*
X0114752Y0296345D01*
X0114629Y0296337D01*
X0114506Y0296324D01*
X0114384Y0296308D01*
X0114262Y0296288D01*
X0114141Y0296264D01*
X0114021Y0296236D01*
X0113901Y0296204D01*
X0113783Y0296169D01*
X0113666Y0296130D01*
X0113551Y0296087D01*
X0113436Y0296040D01*
X0113324Y0295990D01*
X0113213Y0295936D01*
X0113103Y0295878D01*
X0112996Y0295817D01*
X0112891Y0295753D01*
X0112787Y0295685D01*
X0112687Y0295614D01*
X0112588Y0295540D01*
X0112492Y0295463D01*
X0112398Y0295383D01*
X0112307Y0295299D01*
X0112218Y0295213D01*
X0112133Y0295124D01*
X0112050Y0295033D01*
X0111971Y0294938D01*
X0111894Y0294842D01*
X0111820Y0294742D01*
X0111750Y0294641D01*
X0111683Y0294537D01*
X0111620Y0294432D01*
X0111559Y0294324D01*
X0111503Y0294214D01*
X0111450Y0294103D01*
X0111400Y0293990D01*
X0111354Y0293875D01*
X0111312Y0293759D01*
X0111273Y0293642D01*
X0111239Y0293524D01*
X0111208Y0293404D01*
X0111181Y0293284D01*
X0111157Y0293163D01*
X0111138Y0293041D01*
X0111123Y0292918D01*
X0111111Y0292795D01*
X0107765Y0292795D01*
X0107765Y0304409D01*
X0107766Y0304409D02*
X0107760Y0304520D01*
X0107751Y0304631D01*
X0107738Y0304741D01*
X0107722Y0304851D01*
X0107702Y0304960D01*
X0107678Y0305068D01*
X0107650Y0305176D01*
X0107618Y0305282D01*
X0107584Y0305388D01*
X0107545Y0305492D01*
X0107503Y0305594D01*
X0107457Y0305695D01*
X0107408Y0305795D01*
X0107356Y0305893D01*
X0107300Y0305989D01*
X0107241Y0306083D01*
X0107179Y0306175D01*
X0107114Y0306265D01*
X0107046Y0306352D01*
X0106975Y0306437D01*
X0106901Y0306520D01*
X0106824Y0306600D01*
X0106744Y0306678D01*
X0106662Y0306752D01*
X0106578Y0306824D01*
X0106491Y0306893D01*
X0106401Y0306959D01*
X0106310Y0307022D01*
X0106216Y0307081D01*
X0106121Y0307138D01*
X0106023Y0307191D01*
X0105924Y0307241D01*
X0105823Y0307287D01*
X0105721Y0307330D01*
X0105617Y0307369D01*
X0105512Y0307405D01*
X0105406Y0307437D01*
X0105299Y0307466D01*
X0105190Y0307490D01*
X0105082Y0307512D01*
X0104972Y0307529D01*
X0104862Y0307543D01*
X0104751Y0307553D01*
X0104640Y0307559D01*
X0104530Y0307561D01*
X0104419Y0307560D01*
X0104418Y0307559D02*
X0054418Y0307559D01*
X0054418Y0033740D01*
X0165835Y0108740D02*
X0165837Y0108865D01*
X0165843Y0108990D01*
X0165853Y0109114D01*
X0165867Y0109238D01*
X0165884Y0109362D01*
X0165906Y0109485D01*
X0165932Y0109607D01*
X0165961Y0109729D01*
X0165994Y0109849D01*
X0166032Y0109968D01*
X0166072Y0110087D01*
X0166117Y0110203D01*
X0166165Y0110318D01*
X0166217Y0110432D01*
X0166273Y0110544D01*
X0166332Y0110654D01*
X0166394Y0110762D01*
X0166460Y0110869D01*
X0166529Y0110973D01*
X0166602Y0111074D01*
X0166677Y0111174D01*
X0166756Y0111271D01*
X0166838Y0111365D01*
X0166923Y0111457D01*
X0167010Y0111546D01*
X0167101Y0111632D01*
X0167194Y0111715D01*
X0167290Y0111796D01*
X0167388Y0111873D01*
X0167488Y0111947D01*
X0167591Y0112018D01*
X0167696Y0112085D01*
X0167804Y0112150D01*
X0167913Y0112210D01*
X0168024Y0112268D01*
X0168137Y0112321D01*
X0168251Y0112371D01*
X0168367Y0112418D01*
X0168484Y0112460D01*
X0168603Y0112499D01*
X0168723Y0112535D01*
X0168844Y0112566D01*
X0168966Y0112594D01*
X0169088Y0112617D01*
X0169212Y0112637D01*
X0169336Y0112653D01*
X0169460Y0112665D01*
X0169585Y0112673D01*
X0169710Y0112677D01*
X0169834Y0112677D01*
X0169959Y0112673D01*
X0170084Y0112665D01*
X0170208Y0112653D01*
X0170332Y0112637D01*
X0170456Y0112617D01*
X0170578Y0112594D01*
X0170700Y0112566D01*
X0170821Y0112535D01*
X0170941Y0112499D01*
X0171060Y0112460D01*
X0171177Y0112418D01*
X0171293Y0112371D01*
X0171407Y0112321D01*
X0171520Y0112268D01*
X0171631Y0112210D01*
X0171741Y0112150D01*
X0171848Y0112085D01*
X0171953Y0112018D01*
X0172056Y0111947D01*
X0172156Y0111873D01*
X0172254Y0111796D01*
X0172350Y0111715D01*
X0172443Y0111632D01*
X0172534Y0111546D01*
X0172621Y0111457D01*
X0172706Y0111365D01*
X0172788Y0111271D01*
X0172867Y0111174D01*
X0172942Y0111074D01*
X0173015Y0110973D01*
X0173084Y0110869D01*
X0173150Y0110762D01*
X0173212Y0110654D01*
X0173271Y0110544D01*
X0173327Y0110432D01*
X0173379Y0110318D01*
X0173427Y0110203D01*
X0173472Y0110087D01*
X0173512Y0109968D01*
X0173550Y0109849D01*
X0173583Y0109729D01*
X0173612Y0109607D01*
X0173638Y0109485D01*
X0173660Y0109362D01*
X0173677Y0109238D01*
X0173691Y0109114D01*
X0173701Y0108990D01*
X0173707Y0108865D01*
X0173709Y0108740D01*
X0173707Y0108615D01*
X0173701Y0108490D01*
X0173691Y0108366D01*
X0173677Y0108242D01*
X0173660Y0108118D01*
X0173638Y0107995D01*
X0173612Y0107873D01*
X0173583Y0107751D01*
X0173550Y0107631D01*
X0173512Y0107512D01*
X0173472Y0107393D01*
X0173427Y0107277D01*
X0173379Y0107162D01*
X0173327Y0107048D01*
X0173271Y0106936D01*
X0173212Y0106826D01*
X0173150Y0106718D01*
X0173084Y0106611D01*
X0173015Y0106507D01*
X0172942Y0106406D01*
X0172867Y0106306D01*
X0172788Y0106209D01*
X0172706Y0106115D01*
X0172621Y0106023D01*
X0172534Y0105934D01*
X0172443Y0105848D01*
X0172350Y0105765D01*
X0172254Y0105684D01*
X0172156Y0105607D01*
X0172056Y0105533D01*
X0171953Y0105462D01*
X0171848Y0105395D01*
X0171740Y0105330D01*
X0171631Y0105270D01*
X0171520Y0105212D01*
X0171407Y0105159D01*
X0171293Y0105109D01*
X0171177Y0105062D01*
X0171060Y0105020D01*
X0170941Y0104981D01*
X0170821Y0104945D01*
X0170700Y0104914D01*
X0170578Y0104886D01*
X0170456Y0104863D01*
X0170332Y0104843D01*
X0170208Y0104827D01*
X0170084Y0104815D01*
X0169959Y0104807D01*
X0169834Y0104803D01*
X0169710Y0104803D01*
X0169585Y0104807D01*
X0169460Y0104815D01*
X0169336Y0104827D01*
X0169212Y0104843D01*
X0169088Y0104863D01*
X0168966Y0104886D01*
X0168844Y0104914D01*
X0168723Y0104945D01*
X0168603Y0104981D01*
X0168484Y0105020D01*
X0168367Y0105062D01*
X0168251Y0105109D01*
X0168137Y0105159D01*
X0168024Y0105212D01*
X0167913Y0105270D01*
X0167803Y0105330D01*
X0167696Y0105395D01*
X0167591Y0105462D01*
X0167488Y0105533D01*
X0167388Y0105607D01*
X0167290Y0105684D01*
X0167194Y0105765D01*
X0167101Y0105848D01*
X0167010Y0105934D01*
X0166923Y0106023D01*
X0166838Y0106115D01*
X0166756Y0106209D01*
X0166677Y0106306D01*
X0166602Y0106406D01*
X0166529Y0106507D01*
X0166460Y0106611D01*
X0166394Y0106718D01*
X0166332Y0106826D01*
X0166273Y0106936D01*
X0166217Y0107048D01*
X0166165Y0107162D01*
X0166117Y0107277D01*
X0166072Y0107393D01*
X0166032Y0107512D01*
X0165994Y0107631D01*
X0165961Y0107751D01*
X0165932Y0107873D01*
X0165906Y0107995D01*
X0165884Y0108118D01*
X0165867Y0108242D01*
X0165853Y0108366D01*
X0165843Y0108490D01*
X0165837Y0108615D01*
X0165835Y0108740D01*
M02*
