G75*
%MOIN*%
%OFA0B0*%
%FSLAX25Y25*%
%IPPOS*%
%LPD*%
%AMOC8*
5,1,8,0,0,1.08239X$1,22.5*
%
%ADD10R,0.01800X0.06200*%
%ADD11R,0.03156X0.03943*%
%ADD12R,0.05518X0.06306*%
%ADD13R,0.06306X0.05518*%
%ADD14R,0.03550X0.03550*%
%ADD15R,0.03943X0.03156*%
%ADD16R,0.06400X0.06400*%
%ADD17C,0.06400*%
%ADD18C,0.08650*%
%ADD19R,0.08274X0.08274*%
%ADD20R,0.01581X0.04337*%
%ADD21R,0.06699X0.07487*%
%ADD22R,0.07487X0.29928*%
%ADD23R,0.02500X0.08200*%
%ADD24C,0.05000*%
%ADD25C,0.04337*%
%ADD26C,0.05400*%
%ADD27R,0.04731X0.02369*%
%ADD28R,0.14180X0.17329*%
%ADD29OC8,0.06400*%
%ADD30C,0.09849*%
%ADD31R,0.02600X0.08200*%
%ADD32R,0.01975X0.03156*%
%ADD33R,0.04337X0.05912*%
%ADD34R,0.03400X0.13200*%
%ADD35C,0.00277*%
%ADD36R,0.03156X0.01384*%
%ADD37C,0.01655*%
%ADD38R,0.14567X0.18504*%
%ADD39R,0.03156X0.01975*%
D10*
X0115442Y0183657D03*
X0118042Y0183657D03*
X0120642Y0183657D03*
X0123142Y0183657D03*
X0125742Y0183657D03*
X0128242Y0183657D03*
X0130842Y0183657D03*
X0133442Y0183657D03*
X0133442Y0206657D03*
X0130842Y0206657D03*
X0128242Y0206657D03*
X0125742Y0206657D03*
X0123142Y0206657D03*
X0120642Y0206657D03*
X0118042Y0206657D03*
X0115442Y0206657D03*
X0116449Y0222634D03*
X0113949Y0222634D03*
X0111349Y0222634D03*
X0108749Y0222634D03*
X0106249Y0222634D03*
X0103649Y0222634D03*
X0101149Y0222634D03*
X0119049Y0222634D03*
X0121549Y0222634D03*
X0124149Y0222634D03*
X0126749Y0222634D03*
X0129249Y0222634D03*
X0131849Y0222634D03*
X0134349Y0222634D03*
X0134349Y0245634D03*
X0131849Y0245634D03*
X0129249Y0245634D03*
X0126749Y0245634D03*
X0124149Y0245634D03*
X0121549Y0245634D03*
X0119049Y0245634D03*
X0116449Y0245634D03*
X0113949Y0245634D03*
X0111349Y0245634D03*
X0108749Y0245634D03*
X0106249Y0245634D03*
X0103649Y0245634D03*
X0101149Y0245634D03*
X0168985Y0205870D03*
X0171585Y0205870D03*
X0174185Y0205870D03*
X0176685Y0205870D03*
X0179285Y0205870D03*
X0181785Y0205870D03*
X0184385Y0205870D03*
X0186985Y0205870D03*
X0186985Y0182870D03*
X0184385Y0182870D03*
X0181785Y0182870D03*
X0179285Y0182870D03*
X0176685Y0182870D03*
X0174185Y0182870D03*
X0171585Y0182870D03*
X0168985Y0182870D03*
X0222331Y0183854D03*
X0224931Y0183854D03*
X0227531Y0183854D03*
X0230031Y0183854D03*
X0232631Y0183854D03*
X0235131Y0183854D03*
X0237731Y0183854D03*
X0240331Y0183854D03*
X0240331Y0206854D03*
X0237731Y0206854D03*
X0235131Y0206854D03*
X0232631Y0206854D03*
X0230031Y0206854D03*
X0227531Y0206854D03*
X0224931Y0206854D03*
X0222331Y0206854D03*
X0272331Y0206657D03*
X0274931Y0206657D03*
X0277531Y0206657D03*
X0280031Y0206657D03*
X0282631Y0206657D03*
X0285131Y0206657D03*
X0287731Y0206657D03*
X0290331Y0206657D03*
X0290331Y0183657D03*
X0287731Y0183657D03*
X0285131Y0183657D03*
X0282631Y0183657D03*
X0280031Y0183657D03*
X0277531Y0183657D03*
X0274931Y0183657D03*
X0272331Y0183657D03*
X0324300Y0182476D03*
X0326900Y0182476D03*
X0329500Y0182476D03*
X0332000Y0182476D03*
X0334600Y0182476D03*
X0337100Y0182476D03*
X0339700Y0182476D03*
X0342300Y0182476D03*
X0342300Y0205476D03*
X0339700Y0205476D03*
X0337100Y0205476D03*
X0334600Y0205476D03*
X0332000Y0205476D03*
X0329500Y0205476D03*
X0326900Y0205476D03*
X0324300Y0205476D03*
D11*
X0054855Y0037776D03*
X0059973Y0037776D03*
X0068536Y0118878D03*
X0073654Y0118878D03*
X0104757Y0132165D03*
X0109875Y0132165D03*
X0112140Y0127858D03*
X0117258Y0127858D03*
X0109643Y0137776D03*
X0104525Y0137776D03*
X0103576Y0143386D03*
X0108694Y0143386D03*
X0108694Y0147717D03*
X0103576Y0147717D03*
X0106725Y0162283D03*
X0111843Y0162283D03*
X0106528Y0185118D03*
X0101410Y0185118D03*
X0101410Y0190236D03*
X0106528Y0190236D03*
X0129087Y0216299D03*
X0134206Y0216299D03*
X0158989Y0217008D03*
X0164107Y0217008D03*
X0162237Y0190433D03*
X0162237Y0185906D03*
X0157119Y0185906D03*
X0157119Y0190433D03*
X0149835Y0186693D03*
X0144717Y0186693D03*
X0156725Y0168386D03*
X0161843Y0168386D03*
X0162434Y0147717D03*
X0157316Y0147717D03*
X0157316Y0143386D03*
X0162434Y0143386D03*
X0164206Y0137776D03*
X0159087Y0137776D03*
X0160465Y0132165D03*
X0165583Y0132165D03*
X0166371Y0127835D03*
X0171489Y0127835D03*
X0213024Y0132165D03*
X0218143Y0132165D03*
X0219914Y0127835D03*
X0225032Y0127835D03*
X0217946Y0137776D03*
X0212828Y0137776D03*
X0211450Y0143386D03*
X0216568Y0143386D03*
X0216568Y0147717D03*
X0211450Y0147717D03*
X0211646Y0167205D03*
X0216765Y0167205D03*
X0216961Y0184134D03*
X0216961Y0188661D03*
X0211843Y0188661D03*
X0211843Y0184134D03*
X0205150Y0185709D03*
X0200032Y0185709D03*
X0250623Y0189055D03*
X0255741Y0189055D03*
X0261450Y0190433D03*
X0261450Y0186102D03*
X0266568Y0186102D03*
X0266568Y0190433D03*
X0267158Y0167598D03*
X0262040Y0167598D03*
X0261253Y0147717D03*
X0266371Y0147717D03*
X0266371Y0143386D03*
X0261253Y0143386D03*
X0262828Y0137874D03*
X0267946Y0137874D03*
X0268339Y0132362D03*
X0269127Y0127638D03*
X0263221Y0132362D03*
X0274245Y0127638D03*
X0314402Y0137874D03*
X0313418Y0143386D03*
X0318536Y0143386D03*
X0319520Y0137874D03*
X0321686Y0132165D03*
X0321686Y0127835D03*
X0326804Y0127835D03*
X0316568Y0132165D03*
X0318536Y0147717D03*
X0313418Y0147717D03*
X0315387Y0167205D03*
X0320505Y0167205D03*
X0319914Y0185512D03*
X0319914Y0190433D03*
X0314796Y0190433D03*
X0314796Y0185512D03*
X0306922Y0187283D03*
X0301804Y0187283D03*
X0353576Y0186693D03*
X0358694Y0186693D03*
X0425229Y0202638D03*
X0430347Y0202638D03*
X0396981Y0254114D03*
X0391863Y0254114D03*
X0391863Y0258543D03*
X0396981Y0258543D03*
X0377788Y0279606D03*
X0372670Y0279606D03*
X0345308Y0279606D03*
X0340190Y0279606D03*
X0313812Y0280197D03*
X0308694Y0280197D03*
X0280938Y0280984D03*
X0275820Y0280984D03*
X0248851Y0281772D03*
X0243733Y0281772D03*
X0217158Y0281575D03*
X0212040Y0281575D03*
X0322473Y0251654D03*
X0327591Y0251654D03*
X0327591Y0246732D03*
X0322473Y0246732D03*
X0081430Y0215728D03*
X0076312Y0215728D03*
X0071194Y0242894D03*
X0066076Y0242894D03*
X0066076Y0254213D03*
X0071194Y0254213D03*
X0070702Y0184823D03*
X0065583Y0184823D03*
X0066765Y0175079D03*
X0071883Y0175079D03*
D12*
X0125032Y0167500D03*
X0132513Y0167500D03*
X0179757Y0167303D03*
X0187237Y0167303D03*
X0233497Y0167500D03*
X0240977Y0167500D03*
X0282709Y0167500D03*
X0290190Y0167500D03*
X0334875Y0167500D03*
X0342355Y0167500D03*
X0320583Y0230827D03*
X0389776Y0238799D03*
D13*
X0334875Y0127638D03*
X0334875Y0120157D03*
X0282513Y0120157D03*
X0282513Y0127638D03*
X0233497Y0127638D03*
X0233497Y0120157D03*
X0179757Y0120157D03*
X0179757Y0127638D03*
X0125032Y0127638D03*
X0125032Y0120157D03*
D14*
X0073064Y0123799D03*
X0067158Y0123799D03*
X0065190Y0179902D03*
X0071095Y0179902D03*
X0071587Y0248307D03*
X0065682Y0248307D03*
X0309284Y0057756D03*
X0309284Y0051850D03*
X0336942Y0051161D03*
X0336942Y0057067D03*
X0365091Y0058839D03*
X0365091Y0052933D03*
X0392355Y0052933D03*
X0392355Y0058839D03*
X0436253Y0202638D03*
X0442158Y0202638D03*
X0073359Y0037677D03*
X0067454Y0037677D03*
D15*
X0062237Y0118878D03*
X0062237Y0123996D03*
X0073753Y0150866D03*
X0073753Y0155984D03*
X0077788Y0162382D03*
X0077788Y0167500D03*
X0059284Y0178819D03*
X0059284Y0183937D03*
X0101607Y0178031D03*
X0105938Y0178031D03*
X0105938Y0172913D03*
X0101607Y0172913D03*
X0118893Y0170666D03*
X0118893Y0165548D03*
X0137237Y0159921D03*
X0137237Y0154803D03*
X0152001Y0145354D03*
X0152001Y0140236D03*
X0155150Y0132559D03*
X0155150Y0127441D03*
X0193930Y0154803D03*
X0193930Y0159921D03*
X0205741Y0144764D03*
X0205741Y0139646D03*
X0207513Y0132165D03*
X0207513Y0127047D03*
X0245505Y0155394D03*
X0245505Y0160512D03*
X0227198Y0164843D03*
X0227198Y0169961D03*
X0216174Y0171732D03*
X0211843Y0171732D03*
X0211843Y0176850D03*
X0216174Y0176850D03*
X0216765Y0201654D03*
X0216765Y0206772D03*
X0240387Y0223307D03*
X0240387Y0228425D03*
X0222473Y0246437D03*
X0217650Y0246437D03*
X0212828Y0246240D03*
X0212828Y0251358D03*
X0217650Y0251555D03*
X0222473Y0251555D03*
X0201410Y0251457D03*
X0197080Y0251358D03*
X0192552Y0251358D03*
X0187237Y0251654D03*
X0182217Y0251555D03*
X0176312Y0251555D03*
X0176312Y0246437D03*
X0182217Y0246437D03*
X0187237Y0246535D03*
X0192552Y0246240D03*
X0197080Y0246240D03*
X0201410Y0246339D03*
X0169914Y0229213D03*
X0169914Y0224094D03*
X0163221Y0206378D03*
X0163221Y0201260D03*
X0161450Y0178031D03*
X0157119Y0178031D03*
X0157119Y0172913D03*
X0161450Y0172913D03*
X0173457Y0170551D03*
X0173457Y0165433D03*
X0109665Y0201239D03*
X0109665Y0206357D03*
X0059284Y0248209D03*
X0059284Y0253327D03*
X0093831Y0262579D03*
X0093831Y0267697D03*
X0099245Y0146535D03*
X0099245Y0141417D03*
X0099639Y0132362D03*
X0099639Y0127244D03*
X0257316Y0138858D03*
X0257316Y0143976D03*
X0258300Y0131969D03*
X0258300Y0126850D03*
X0296095Y0155000D03*
X0296095Y0160118D03*
X0309087Y0145945D03*
X0309087Y0140827D03*
X0310859Y0132165D03*
X0310859Y0127047D03*
X0348851Y0154016D03*
X0348851Y0159134D03*
X0328576Y0165236D03*
X0328576Y0170354D03*
X0319717Y0172913D03*
X0315387Y0172913D03*
X0315387Y0178031D03*
X0319717Y0178031D03*
X0318143Y0200472D03*
X0318143Y0205591D03*
X0318536Y0211890D03*
X0318536Y0217008D03*
X0310269Y0234331D03*
X0310269Y0239449D03*
X0312040Y0244764D03*
X0316371Y0244764D03*
X0316371Y0249882D03*
X0312040Y0249882D03*
X0287434Y0245748D03*
X0287434Y0240630D03*
X0289009Y0226850D03*
X0289009Y0221732D03*
X0265780Y0206181D03*
X0265780Y0201063D03*
X0263615Y0178425D03*
X0267946Y0178425D03*
X0267946Y0173307D03*
X0263615Y0173307D03*
X0276410Y0170157D03*
X0276410Y0165039D03*
X0371489Y0097913D03*
X0371489Y0092795D03*
X0373261Y0075669D03*
X0373261Y0070551D03*
X0360269Y0058839D03*
X0360269Y0053720D03*
X0387828Y0053720D03*
X0387828Y0058839D03*
X0395505Y0071732D03*
X0395505Y0076850D03*
X0395702Y0090827D03*
X0395702Y0095945D03*
X0332414Y0057067D03*
X0332414Y0051949D03*
X0305150Y0052638D03*
X0305150Y0057756D03*
X0387335Y0218976D03*
X0387335Y0224094D03*
X0379855Y0242106D03*
X0379855Y0247224D03*
X0381233Y0254311D03*
X0386056Y0254311D03*
X0386056Y0259429D03*
X0381233Y0259429D03*
D16*
X0364658Y0271024D03*
X0375190Y0288071D03*
X0343379Y0288071D03*
X0311489Y0288071D03*
X0278418Y0288071D03*
X0246331Y0288071D03*
X0214048Y0288071D03*
X0188930Y0288071D03*
X0165308Y0288071D03*
X0143457Y0288465D03*
X0097119Y0287677D03*
X0364658Y0080571D03*
X0353457Y0055000D03*
X0325505Y0055000D03*
X0291213Y0055000D03*
X0248300Y0055197D03*
X0205387Y0055000D03*
X0162670Y0055000D03*
X0120150Y0055000D03*
X0381804Y0055000D03*
X0409363Y0055000D03*
D17*
X0399363Y0052000D02*
X0399363Y0058000D01*
X0371804Y0058000D02*
X0371804Y0052000D01*
X0343457Y0052000D02*
X0343457Y0058000D01*
X0315505Y0058000D02*
X0315505Y0052000D01*
X0281213Y0052000D02*
X0281213Y0058000D01*
X0271213Y0058000D02*
X0271213Y0052000D01*
X0261213Y0052000D02*
X0261213Y0058000D01*
X0238300Y0058197D02*
X0238300Y0052197D01*
X0228300Y0052197D02*
X0228300Y0058197D01*
X0218300Y0058197D02*
X0218300Y0052197D01*
X0195387Y0052000D02*
X0195387Y0058000D01*
X0185387Y0058000D02*
X0185387Y0052000D01*
X0175387Y0052000D02*
X0175387Y0058000D01*
X0152670Y0058000D02*
X0152670Y0052000D01*
X0142670Y0052000D02*
X0142670Y0058000D01*
X0132670Y0058000D02*
X0132670Y0052000D01*
X0110150Y0052000D02*
X0110150Y0058000D01*
X0100150Y0058000D02*
X0100150Y0052000D01*
X0090150Y0052000D02*
X0090150Y0058000D01*
X0107119Y0284677D02*
X0107119Y0290677D01*
X0117119Y0290677D02*
X0117119Y0284677D01*
X0153457Y0285465D02*
X0153457Y0291465D01*
X0175308Y0291071D02*
X0175308Y0285071D01*
X0198930Y0285071D02*
X0198930Y0291071D01*
X0224048Y0291071D02*
X0224048Y0285071D01*
X0234048Y0285071D02*
X0234048Y0291071D01*
X0256331Y0291071D02*
X0256331Y0285071D01*
X0266331Y0285071D02*
X0266331Y0291071D01*
X0288418Y0291071D02*
X0288418Y0285071D01*
X0298418Y0285071D02*
X0298418Y0291071D01*
X0321489Y0291071D02*
X0321489Y0285071D01*
X0331489Y0285071D02*
X0331489Y0291071D01*
X0353379Y0291071D02*
X0353379Y0285071D01*
X0363379Y0285071D02*
X0363379Y0291071D01*
X0385190Y0291071D02*
X0385190Y0285071D01*
X0395190Y0285071D02*
X0395190Y0291071D01*
X0405190Y0291071D02*
X0405190Y0285071D01*
D18*
X0044925Y0293543D02*
X0036675Y0293543D01*
X0036675Y0273543D02*
X0044925Y0273543D01*
X0044925Y0245039D02*
X0036675Y0245039D01*
X0036675Y0225039D02*
X0044925Y0225039D01*
X0044925Y0205039D02*
X0036675Y0205039D01*
X0036675Y0185039D02*
X0044925Y0185039D01*
X0044925Y0156535D02*
X0036675Y0156535D01*
X0036675Y0136535D02*
X0044925Y0136535D01*
X0044925Y0108031D02*
X0036675Y0108031D01*
X0036675Y0088031D02*
X0044925Y0088031D01*
X0044925Y0068031D02*
X0036675Y0068031D01*
X0036675Y0048031D02*
X0044925Y0048031D01*
D19*
X0082709Y0070354D03*
X0082709Y0086102D03*
X0062729Y0150669D03*
X0062729Y0166417D03*
X0063713Y0213858D03*
X0063713Y0229606D03*
X0063713Y0282756D03*
X0063713Y0298504D03*
X0336646Y0239055D03*
X0336646Y0223307D03*
X0405643Y0231476D03*
X0405643Y0247224D03*
D20*
X0393635Y0248406D03*
X0391666Y0248406D03*
X0389717Y0248406D03*
X0387729Y0248406D03*
X0385761Y0248406D03*
X0385761Y0229508D03*
X0387729Y0229508D03*
X0389717Y0229508D03*
X0391666Y0229508D03*
X0393635Y0229508D03*
X0324442Y0221535D03*
X0322473Y0221535D03*
X0320524Y0221535D03*
X0318536Y0221535D03*
X0316568Y0221535D03*
X0316568Y0240433D03*
X0318536Y0240433D03*
X0320524Y0240433D03*
X0322473Y0240433D03*
X0324442Y0240433D03*
D21*
X0324639Y0214646D03*
X0335662Y0214646D03*
X0353969Y0214646D03*
X0353969Y0206575D03*
X0364993Y0206575D03*
X0364993Y0214646D03*
X0394127Y0222520D03*
X0405150Y0222520D03*
X0419422Y0222618D03*
X0419324Y0214252D03*
X0430347Y0214252D03*
X0430446Y0222618D03*
D22*
X0440682Y0244173D03*
X0418635Y0244173D03*
X0372080Y0234724D03*
X0350032Y0234724D03*
D23*
X0164520Y0244228D03*
X0159520Y0244228D03*
X0154520Y0244228D03*
X0149520Y0244228D03*
X0149520Y0224828D03*
X0154520Y0224828D03*
X0159520Y0224828D03*
X0164520Y0224828D03*
D24*
X0124540Y0286988D02*
X0124542Y0287106D01*
X0124548Y0287225D01*
X0124558Y0287343D01*
X0124572Y0287460D01*
X0124589Y0287577D01*
X0124611Y0287694D01*
X0124637Y0287809D01*
X0124666Y0287924D01*
X0124699Y0288038D01*
X0124736Y0288150D01*
X0124777Y0288261D01*
X0124821Y0288371D01*
X0124869Y0288479D01*
X0124921Y0288586D01*
X0124976Y0288691D01*
X0125035Y0288794D01*
X0125097Y0288894D01*
X0125162Y0288993D01*
X0125231Y0289090D01*
X0125302Y0289184D01*
X0125377Y0289275D01*
X0125455Y0289365D01*
X0125536Y0289451D01*
X0125620Y0289535D01*
X0125706Y0289616D01*
X0125796Y0289694D01*
X0125887Y0289769D01*
X0125981Y0289840D01*
X0126078Y0289909D01*
X0126177Y0289974D01*
X0126277Y0290036D01*
X0126380Y0290095D01*
X0126485Y0290150D01*
X0126592Y0290202D01*
X0126700Y0290250D01*
X0126810Y0290294D01*
X0126921Y0290335D01*
X0127033Y0290372D01*
X0127147Y0290405D01*
X0127262Y0290434D01*
X0127377Y0290460D01*
X0127494Y0290482D01*
X0127611Y0290499D01*
X0127728Y0290513D01*
X0127846Y0290523D01*
X0127965Y0290529D01*
X0128083Y0290531D01*
X0128201Y0290529D01*
X0128320Y0290523D01*
X0128438Y0290513D01*
X0128555Y0290499D01*
X0128672Y0290482D01*
X0128789Y0290460D01*
X0128904Y0290434D01*
X0129019Y0290405D01*
X0129133Y0290372D01*
X0129245Y0290335D01*
X0129356Y0290294D01*
X0129466Y0290250D01*
X0129574Y0290202D01*
X0129681Y0290150D01*
X0129786Y0290095D01*
X0129889Y0290036D01*
X0129989Y0289974D01*
X0130088Y0289909D01*
X0130185Y0289840D01*
X0130279Y0289769D01*
X0130370Y0289694D01*
X0130460Y0289616D01*
X0130546Y0289535D01*
X0130630Y0289451D01*
X0130711Y0289365D01*
X0130789Y0289275D01*
X0130864Y0289184D01*
X0130935Y0289090D01*
X0131004Y0288993D01*
X0131069Y0288894D01*
X0131131Y0288794D01*
X0131190Y0288691D01*
X0131245Y0288586D01*
X0131297Y0288479D01*
X0131345Y0288371D01*
X0131389Y0288261D01*
X0131430Y0288150D01*
X0131467Y0288038D01*
X0131500Y0287924D01*
X0131529Y0287809D01*
X0131555Y0287694D01*
X0131577Y0287577D01*
X0131594Y0287460D01*
X0131608Y0287343D01*
X0131618Y0287225D01*
X0131624Y0287106D01*
X0131626Y0286988D01*
X0131624Y0286870D01*
X0131618Y0286751D01*
X0131608Y0286633D01*
X0131594Y0286516D01*
X0131577Y0286399D01*
X0131555Y0286282D01*
X0131529Y0286167D01*
X0131500Y0286052D01*
X0131467Y0285938D01*
X0131430Y0285826D01*
X0131389Y0285715D01*
X0131345Y0285605D01*
X0131297Y0285497D01*
X0131245Y0285390D01*
X0131190Y0285285D01*
X0131131Y0285182D01*
X0131069Y0285082D01*
X0131004Y0284983D01*
X0130935Y0284886D01*
X0130864Y0284792D01*
X0130789Y0284701D01*
X0130711Y0284611D01*
X0130630Y0284525D01*
X0130546Y0284441D01*
X0130460Y0284360D01*
X0130370Y0284282D01*
X0130279Y0284207D01*
X0130185Y0284136D01*
X0130088Y0284067D01*
X0129989Y0284002D01*
X0129889Y0283940D01*
X0129786Y0283881D01*
X0129681Y0283826D01*
X0129574Y0283774D01*
X0129466Y0283726D01*
X0129356Y0283682D01*
X0129245Y0283641D01*
X0129133Y0283604D01*
X0129019Y0283571D01*
X0128904Y0283542D01*
X0128789Y0283516D01*
X0128672Y0283494D01*
X0128555Y0283477D01*
X0128438Y0283463D01*
X0128320Y0283453D01*
X0128201Y0283447D01*
X0128083Y0283445D01*
X0127965Y0283447D01*
X0127846Y0283453D01*
X0127728Y0283463D01*
X0127611Y0283477D01*
X0127494Y0283494D01*
X0127377Y0283516D01*
X0127262Y0283542D01*
X0127147Y0283571D01*
X0127033Y0283604D01*
X0126921Y0283641D01*
X0126810Y0283682D01*
X0126700Y0283726D01*
X0126592Y0283774D01*
X0126485Y0283826D01*
X0126380Y0283881D01*
X0126277Y0283940D01*
X0126177Y0284002D01*
X0126078Y0284067D01*
X0125981Y0284136D01*
X0125887Y0284207D01*
X0125796Y0284282D01*
X0125706Y0284360D01*
X0125620Y0284441D01*
X0125536Y0284525D01*
X0125455Y0284611D01*
X0125377Y0284701D01*
X0125302Y0284792D01*
X0125231Y0284886D01*
X0125162Y0284983D01*
X0125097Y0285082D01*
X0125035Y0285182D01*
X0124976Y0285285D01*
X0124921Y0285390D01*
X0124869Y0285497D01*
X0124821Y0285605D01*
X0124777Y0285715D01*
X0124736Y0285826D01*
X0124699Y0285938D01*
X0124666Y0286052D01*
X0124637Y0286167D01*
X0124611Y0286282D01*
X0124589Y0286399D01*
X0124572Y0286516D01*
X0124558Y0286633D01*
X0124548Y0286751D01*
X0124542Y0286870D01*
X0124540Y0286988D01*
X0406726Y0112677D02*
X0406728Y0112795D01*
X0406734Y0112914D01*
X0406744Y0113032D01*
X0406758Y0113149D01*
X0406775Y0113266D01*
X0406797Y0113383D01*
X0406823Y0113498D01*
X0406852Y0113613D01*
X0406885Y0113727D01*
X0406922Y0113839D01*
X0406963Y0113950D01*
X0407007Y0114060D01*
X0407055Y0114168D01*
X0407107Y0114275D01*
X0407162Y0114380D01*
X0407221Y0114483D01*
X0407283Y0114583D01*
X0407348Y0114682D01*
X0407417Y0114779D01*
X0407488Y0114873D01*
X0407563Y0114964D01*
X0407641Y0115054D01*
X0407722Y0115140D01*
X0407806Y0115224D01*
X0407892Y0115305D01*
X0407982Y0115383D01*
X0408073Y0115458D01*
X0408167Y0115529D01*
X0408264Y0115598D01*
X0408363Y0115663D01*
X0408463Y0115725D01*
X0408566Y0115784D01*
X0408671Y0115839D01*
X0408778Y0115891D01*
X0408886Y0115939D01*
X0408996Y0115983D01*
X0409107Y0116024D01*
X0409219Y0116061D01*
X0409333Y0116094D01*
X0409448Y0116123D01*
X0409563Y0116149D01*
X0409680Y0116171D01*
X0409797Y0116188D01*
X0409914Y0116202D01*
X0410032Y0116212D01*
X0410151Y0116218D01*
X0410269Y0116220D01*
X0410387Y0116218D01*
X0410506Y0116212D01*
X0410624Y0116202D01*
X0410741Y0116188D01*
X0410858Y0116171D01*
X0410975Y0116149D01*
X0411090Y0116123D01*
X0411205Y0116094D01*
X0411319Y0116061D01*
X0411431Y0116024D01*
X0411542Y0115983D01*
X0411652Y0115939D01*
X0411760Y0115891D01*
X0411867Y0115839D01*
X0411972Y0115784D01*
X0412075Y0115725D01*
X0412175Y0115663D01*
X0412274Y0115598D01*
X0412371Y0115529D01*
X0412465Y0115458D01*
X0412556Y0115383D01*
X0412646Y0115305D01*
X0412732Y0115224D01*
X0412816Y0115140D01*
X0412897Y0115054D01*
X0412975Y0114964D01*
X0413050Y0114873D01*
X0413121Y0114779D01*
X0413190Y0114682D01*
X0413255Y0114583D01*
X0413317Y0114483D01*
X0413376Y0114380D01*
X0413431Y0114275D01*
X0413483Y0114168D01*
X0413531Y0114060D01*
X0413575Y0113950D01*
X0413616Y0113839D01*
X0413653Y0113727D01*
X0413686Y0113613D01*
X0413715Y0113498D01*
X0413741Y0113383D01*
X0413763Y0113266D01*
X0413780Y0113149D01*
X0413794Y0113032D01*
X0413804Y0112914D01*
X0413810Y0112795D01*
X0413812Y0112677D01*
X0413810Y0112559D01*
X0413804Y0112440D01*
X0413794Y0112322D01*
X0413780Y0112205D01*
X0413763Y0112088D01*
X0413741Y0111971D01*
X0413715Y0111856D01*
X0413686Y0111741D01*
X0413653Y0111627D01*
X0413616Y0111515D01*
X0413575Y0111404D01*
X0413531Y0111294D01*
X0413483Y0111186D01*
X0413431Y0111079D01*
X0413376Y0110974D01*
X0413317Y0110871D01*
X0413255Y0110771D01*
X0413190Y0110672D01*
X0413121Y0110575D01*
X0413050Y0110481D01*
X0412975Y0110390D01*
X0412897Y0110300D01*
X0412816Y0110214D01*
X0412732Y0110130D01*
X0412646Y0110049D01*
X0412556Y0109971D01*
X0412465Y0109896D01*
X0412371Y0109825D01*
X0412274Y0109756D01*
X0412175Y0109691D01*
X0412075Y0109629D01*
X0411972Y0109570D01*
X0411867Y0109515D01*
X0411760Y0109463D01*
X0411652Y0109415D01*
X0411542Y0109371D01*
X0411431Y0109330D01*
X0411319Y0109293D01*
X0411205Y0109260D01*
X0411090Y0109231D01*
X0410975Y0109205D01*
X0410858Y0109183D01*
X0410741Y0109166D01*
X0410624Y0109152D01*
X0410506Y0109142D01*
X0410387Y0109136D01*
X0410269Y0109134D01*
X0410151Y0109136D01*
X0410032Y0109142D01*
X0409914Y0109152D01*
X0409797Y0109166D01*
X0409680Y0109183D01*
X0409563Y0109205D01*
X0409448Y0109231D01*
X0409333Y0109260D01*
X0409219Y0109293D01*
X0409107Y0109330D01*
X0408996Y0109371D01*
X0408886Y0109415D01*
X0408778Y0109463D01*
X0408671Y0109515D01*
X0408566Y0109570D01*
X0408463Y0109629D01*
X0408363Y0109691D01*
X0408264Y0109756D01*
X0408167Y0109825D01*
X0408073Y0109896D01*
X0407982Y0109971D01*
X0407892Y0110049D01*
X0407806Y0110130D01*
X0407722Y0110214D01*
X0407641Y0110300D01*
X0407563Y0110390D01*
X0407488Y0110481D01*
X0407417Y0110575D01*
X0407348Y0110672D01*
X0407283Y0110771D01*
X0407221Y0110871D01*
X0407162Y0110974D01*
X0407107Y0111079D01*
X0407055Y0111186D01*
X0407007Y0111294D01*
X0406963Y0111404D01*
X0406922Y0111515D01*
X0406885Y0111627D01*
X0406852Y0111741D01*
X0406823Y0111856D01*
X0406797Y0111971D01*
X0406775Y0112088D01*
X0406758Y0112205D01*
X0406744Y0112322D01*
X0406734Y0112440D01*
X0406728Y0112559D01*
X0406726Y0112677D01*
D25*
X0410269Y0112677D03*
X0128083Y0286988D03*
D26*
X0347867Y0198996D03*
X0378772Y0206575D03*
X0403083Y0265039D03*
X0107709Y0086890D03*
D27*
X0077591Y0129094D03*
X0077591Y0134094D03*
X0077591Y0139094D03*
X0077591Y0144094D03*
X0054757Y0144094D03*
X0054757Y0139094D03*
X0054757Y0134094D03*
X0054757Y0129094D03*
X0054757Y0190118D03*
X0054757Y0195118D03*
X0054757Y0200118D03*
X0054757Y0205118D03*
X0077591Y0205118D03*
X0077591Y0200118D03*
X0077591Y0195118D03*
X0077591Y0190118D03*
X0078182Y0260492D03*
X0078182Y0265492D03*
X0078182Y0270492D03*
X0078182Y0275492D03*
X0055347Y0275492D03*
X0055347Y0270492D03*
X0055347Y0265492D03*
X0055347Y0260492D03*
D28*
X0063812Y0267992D03*
X0063221Y0197618D03*
X0063221Y0136594D03*
D29*
X0144658Y0080571D03*
X0154658Y0080571D03*
X0164658Y0080571D03*
X0174658Y0080571D03*
X0174658Y0070571D03*
X0164658Y0070571D03*
X0154658Y0070571D03*
X0144658Y0070571D03*
X0184658Y0070571D03*
X0194658Y0070571D03*
X0204658Y0070571D03*
X0214658Y0070571D03*
X0214658Y0080571D03*
X0204658Y0080571D03*
X0194658Y0080571D03*
X0184658Y0080571D03*
X0224658Y0080571D03*
X0234658Y0080571D03*
X0244658Y0080571D03*
X0254658Y0080571D03*
X0264658Y0080571D03*
X0264658Y0070571D03*
X0254658Y0070571D03*
X0244658Y0070571D03*
X0234658Y0070571D03*
X0224658Y0070571D03*
X0274658Y0070571D03*
X0284658Y0070571D03*
X0294658Y0070571D03*
X0304658Y0070571D03*
X0304658Y0080571D03*
X0294658Y0080571D03*
X0284658Y0080571D03*
X0274658Y0080571D03*
X0314658Y0080571D03*
X0324658Y0080571D03*
X0334658Y0080571D03*
X0344658Y0080571D03*
X0354658Y0080571D03*
X0354658Y0070571D03*
X0344658Y0070571D03*
X0334658Y0070571D03*
X0324658Y0070571D03*
X0314658Y0070571D03*
X0364658Y0070571D03*
X0364658Y0261024D03*
X0354658Y0261024D03*
X0344658Y0261024D03*
X0334658Y0261024D03*
X0324658Y0261024D03*
X0314658Y0261024D03*
X0314658Y0271024D03*
X0324658Y0271024D03*
X0334658Y0271024D03*
X0344658Y0271024D03*
X0354658Y0271024D03*
X0304658Y0271024D03*
X0294658Y0271024D03*
X0284658Y0271024D03*
X0274658Y0271024D03*
X0264658Y0271024D03*
X0254658Y0271024D03*
X0244658Y0271024D03*
X0234658Y0271024D03*
X0224658Y0271024D03*
X0214658Y0271024D03*
X0204658Y0271024D03*
X0194658Y0271024D03*
X0184658Y0271024D03*
X0174658Y0271024D03*
X0164658Y0271024D03*
X0154658Y0271024D03*
X0144658Y0271024D03*
X0144658Y0261024D03*
X0154658Y0261024D03*
X0164658Y0261024D03*
X0174658Y0261024D03*
X0184658Y0261024D03*
X0194658Y0261024D03*
X0204658Y0261024D03*
X0214658Y0261024D03*
X0224658Y0261024D03*
X0234658Y0261024D03*
X0244658Y0261024D03*
X0254658Y0261024D03*
X0264658Y0261024D03*
X0274658Y0261024D03*
X0284658Y0261024D03*
X0294658Y0261024D03*
X0304658Y0261024D03*
D30*
X0071292Y0104843D03*
X0057906Y0104843D03*
X0057906Y0051850D03*
X0071292Y0051850D03*
D31*
X0245918Y0223450D03*
X0250918Y0223450D03*
X0255918Y0223450D03*
X0260918Y0223450D03*
X0265918Y0223450D03*
X0270918Y0223450D03*
X0275918Y0223450D03*
X0280918Y0223450D03*
X0280918Y0242850D03*
X0275918Y0242850D03*
X0270918Y0242850D03*
X0265918Y0242850D03*
X0260918Y0242850D03*
X0255918Y0242850D03*
X0250918Y0242850D03*
X0245918Y0242850D03*
D32*
X0292158Y0245157D03*
X0297276Y0245157D03*
X0297276Y0238465D03*
X0294717Y0238465D03*
X0292158Y0238465D03*
X0293339Y0227244D03*
X0298457Y0227244D03*
X0298457Y0220551D03*
X0295898Y0220551D03*
X0293339Y0220551D03*
X0299048Y0200866D03*
X0301607Y0200866D03*
X0304166Y0200866D03*
X0304166Y0194173D03*
X0299048Y0194173D03*
X0144520Y0192598D03*
X0139402Y0192598D03*
X0139402Y0199291D03*
X0141961Y0199291D03*
X0144520Y0199291D03*
D33*
X0381725Y0099685D03*
X0377985Y0091024D03*
X0385465Y0091024D03*
X0381922Y0079803D03*
X0378182Y0071142D03*
X0385662Y0071142D03*
X0400820Y0071535D03*
X0408300Y0071535D03*
X0404560Y0080197D03*
X0401607Y0090630D03*
X0409087Y0090630D03*
X0405347Y0099291D03*
D34*
X0315583Y0100421D03*
X0315583Y0119421D03*
X0265190Y0119421D03*
X0265190Y0100421D03*
X0214009Y0100421D03*
X0214009Y0119421D03*
X0161450Y0119421D03*
X0161450Y0100421D03*
X0105938Y0100421D03*
X0105938Y0119421D03*
D35*
X0116407Y0134072D02*
X0116407Y0136952D01*
X0117515Y0136952D01*
X0117515Y0134072D01*
X0116407Y0134072D01*
X0116407Y0134348D02*
X0117515Y0134348D01*
X0117515Y0134624D02*
X0116407Y0134624D01*
X0116407Y0134900D02*
X0117515Y0134900D01*
X0117515Y0135176D02*
X0116407Y0135176D01*
X0116407Y0135452D02*
X0117515Y0135452D01*
X0117515Y0135728D02*
X0116407Y0135728D01*
X0116407Y0136004D02*
X0117515Y0136004D01*
X0117515Y0136280D02*
X0116407Y0136280D01*
X0116407Y0136556D02*
X0117515Y0136556D01*
X0117515Y0136832D02*
X0116407Y0136832D01*
X0118376Y0136952D02*
X0118376Y0134072D01*
X0118376Y0136952D02*
X0119484Y0136952D01*
X0119484Y0134072D01*
X0118376Y0134072D01*
X0118376Y0134348D02*
X0119484Y0134348D01*
X0119484Y0134624D02*
X0118376Y0134624D01*
X0118376Y0134900D02*
X0119484Y0134900D01*
X0119484Y0135176D02*
X0118376Y0135176D01*
X0118376Y0135452D02*
X0119484Y0135452D01*
X0119484Y0135728D02*
X0118376Y0135728D01*
X0118376Y0136004D02*
X0119484Y0136004D01*
X0119484Y0136280D02*
X0118376Y0136280D01*
X0118376Y0136556D02*
X0119484Y0136556D01*
X0119484Y0136832D02*
X0118376Y0136832D01*
X0120344Y0136952D02*
X0120344Y0134072D01*
X0120344Y0136952D02*
X0121452Y0136952D01*
X0121452Y0134072D01*
X0120344Y0134072D01*
X0120344Y0134348D02*
X0121452Y0134348D01*
X0121452Y0134624D02*
X0120344Y0134624D01*
X0120344Y0134900D02*
X0121452Y0134900D01*
X0121452Y0135176D02*
X0120344Y0135176D01*
X0120344Y0135452D02*
X0121452Y0135452D01*
X0121452Y0135728D02*
X0120344Y0135728D01*
X0120344Y0136004D02*
X0121452Y0136004D01*
X0121452Y0136280D02*
X0120344Y0136280D01*
X0120344Y0136556D02*
X0121452Y0136556D01*
X0121452Y0136832D02*
X0120344Y0136832D01*
X0122313Y0136952D02*
X0122313Y0134072D01*
X0122313Y0136952D02*
X0123421Y0136952D01*
X0123421Y0134072D01*
X0122313Y0134072D01*
X0122313Y0134348D02*
X0123421Y0134348D01*
X0123421Y0134624D02*
X0122313Y0134624D01*
X0122313Y0134900D02*
X0123421Y0134900D01*
X0123421Y0135176D02*
X0122313Y0135176D01*
X0122313Y0135452D02*
X0123421Y0135452D01*
X0123421Y0135728D02*
X0122313Y0135728D01*
X0122313Y0136004D02*
X0123421Y0136004D01*
X0123421Y0136280D02*
X0122313Y0136280D01*
X0122313Y0136556D02*
X0123421Y0136556D01*
X0123421Y0136832D02*
X0122313Y0136832D01*
X0124281Y0136952D02*
X0124281Y0134072D01*
X0124281Y0136952D02*
X0125389Y0136952D01*
X0125389Y0134072D01*
X0124281Y0134072D01*
X0124281Y0134348D02*
X0125389Y0134348D01*
X0125389Y0134624D02*
X0124281Y0134624D01*
X0124281Y0134900D02*
X0125389Y0134900D01*
X0125389Y0135176D02*
X0124281Y0135176D01*
X0124281Y0135452D02*
X0125389Y0135452D01*
X0125389Y0135728D02*
X0124281Y0135728D01*
X0124281Y0136004D02*
X0125389Y0136004D01*
X0125389Y0136280D02*
X0124281Y0136280D01*
X0124281Y0136556D02*
X0125389Y0136556D01*
X0125389Y0136832D02*
X0124281Y0136832D01*
X0126250Y0136952D02*
X0126250Y0134072D01*
X0126250Y0136952D02*
X0127358Y0136952D01*
X0127358Y0134072D01*
X0126250Y0134072D01*
X0126250Y0134348D02*
X0127358Y0134348D01*
X0127358Y0134624D02*
X0126250Y0134624D01*
X0126250Y0134900D02*
X0127358Y0134900D01*
X0127358Y0135176D02*
X0126250Y0135176D01*
X0126250Y0135452D02*
X0127358Y0135452D01*
X0127358Y0135728D02*
X0126250Y0135728D01*
X0126250Y0136004D02*
X0127358Y0136004D01*
X0127358Y0136280D02*
X0126250Y0136280D01*
X0126250Y0136556D02*
X0127358Y0136556D01*
X0127358Y0136832D02*
X0126250Y0136832D01*
X0128218Y0138132D02*
X0128218Y0134072D01*
X0128218Y0138132D02*
X0129326Y0138132D01*
X0129326Y0134072D01*
X0128218Y0134072D01*
X0128218Y0134348D02*
X0129326Y0134348D01*
X0129326Y0134624D02*
X0128218Y0134624D01*
X0128218Y0134900D02*
X0129326Y0134900D01*
X0129326Y0135176D02*
X0128218Y0135176D01*
X0128218Y0135452D02*
X0129326Y0135452D01*
X0129326Y0135728D02*
X0128218Y0135728D01*
X0128218Y0136004D02*
X0129326Y0136004D01*
X0129326Y0136280D02*
X0128218Y0136280D01*
X0128218Y0136556D02*
X0129326Y0136556D01*
X0129326Y0136832D02*
X0128218Y0136832D01*
X0128218Y0137108D02*
X0129326Y0137108D01*
X0129326Y0137384D02*
X0128218Y0137384D01*
X0128218Y0137660D02*
X0129326Y0137660D01*
X0129326Y0137936D02*
X0128218Y0137936D01*
X0130187Y0136952D02*
X0130187Y0134072D01*
X0130187Y0136952D02*
X0131295Y0136952D01*
X0131295Y0134072D01*
X0130187Y0134072D01*
X0130187Y0134348D02*
X0131295Y0134348D01*
X0131295Y0134624D02*
X0130187Y0134624D01*
X0130187Y0134900D02*
X0131295Y0134900D01*
X0131295Y0135176D02*
X0130187Y0135176D01*
X0130187Y0135452D02*
X0131295Y0135452D01*
X0131295Y0135728D02*
X0130187Y0135728D01*
X0130187Y0136004D02*
X0131295Y0136004D01*
X0131295Y0136280D02*
X0130187Y0136280D01*
X0130187Y0136556D02*
X0131295Y0136556D01*
X0131295Y0136832D02*
X0130187Y0136832D01*
X0131860Y0137517D02*
X0134740Y0137517D01*
X0131860Y0137517D02*
X0131860Y0138625D01*
X0134740Y0138625D01*
X0134740Y0137517D01*
X0134740Y0137793D02*
X0131860Y0137793D01*
X0131860Y0138069D02*
X0134740Y0138069D01*
X0134740Y0138345D02*
X0131860Y0138345D01*
X0131860Y0138621D02*
X0134740Y0138621D01*
X0134740Y0139485D02*
X0131860Y0139485D01*
X0131860Y0140593D01*
X0134740Y0140593D01*
X0134740Y0139485D01*
X0134740Y0139761D02*
X0131860Y0139761D01*
X0131860Y0140037D02*
X0134740Y0140037D01*
X0134740Y0140313D02*
X0131860Y0140313D01*
X0131860Y0140589D02*
X0134740Y0140589D01*
X0134740Y0141454D02*
X0131860Y0141454D01*
X0131860Y0142562D01*
X0134740Y0142562D01*
X0134740Y0141454D01*
X0134740Y0141730D02*
X0131860Y0141730D01*
X0131860Y0142006D02*
X0134740Y0142006D01*
X0134740Y0142282D02*
X0131860Y0142282D01*
X0131860Y0142558D02*
X0134740Y0142558D01*
X0134740Y0143422D02*
X0131860Y0143422D01*
X0131860Y0144530D01*
X0134740Y0144530D01*
X0134740Y0143422D01*
X0134740Y0143698D02*
X0131860Y0143698D01*
X0131860Y0143974D02*
X0134740Y0143974D01*
X0134740Y0144250D02*
X0131860Y0144250D01*
X0131860Y0144526D02*
X0134740Y0144526D01*
X0134740Y0145391D02*
X0131860Y0145391D01*
X0131860Y0146499D01*
X0134740Y0146499D01*
X0134740Y0145391D01*
X0134740Y0145667D02*
X0131860Y0145667D01*
X0131860Y0145943D02*
X0134740Y0145943D01*
X0134740Y0146219D02*
X0131860Y0146219D01*
X0131860Y0146495D02*
X0134740Y0146495D01*
X0134740Y0147359D02*
X0131860Y0147359D01*
X0131860Y0148467D01*
X0134740Y0148467D01*
X0134740Y0147359D01*
X0134740Y0147635D02*
X0131860Y0147635D01*
X0131860Y0147911D02*
X0134740Y0147911D01*
X0134740Y0148187D02*
X0131860Y0148187D01*
X0131860Y0148463D02*
X0134740Y0148463D01*
X0134740Y0149328D02*
X0131860Y0149328D01*
X0131860Y0150436D01*
X0134740Y0150436D01*
X0134740Y0149328D01*
X0134740Y0149604D02*
X0131860Y0149604D01*
X0131860Y0149880D02*
X0134740Y0149880D01*
X0134740Y0150156D02*
X0131860Y0150156D01*
X0131860Y0150432D02*
X0134740Y0150432D01*
X0134740Y0151296D02*
X0131860Y0151296D01*
X0131860Y0152404D01*
X0134740Y0152404D01*
X0134740Y0151296D01*
X0134740Y0151572D02*
X0131860Y0151572D01*
X0131860Y0151848D02*
X0134740Y0151848D01*
X0134740Y0152124D02*
X0131860Y0152124D01*
X0131860Y0152400D02*
X0134740Y0152400D01*
X0134740Y0153265D02*
X0131860Y0153265D01*
X0131860Y0154373D01*
X0134740Y0154373D01*
X0134740Y0153265D01*
X0134740Y0153541D02*
X0131860Y0153541D01*
X0131860Y0153817D02*
X0134740Y0153817D01*
X0134740Y0154093D02*
X0131860Y0154093D01*
X0131860Y0154369D02*
X0134740Y0154369D01*
X0134740Y0155233D02*
X0131860Y0155233D01*
X0131860Y0156341D01*
X0134740Y0156341D01*
X0134740Y0155233D01*
X0134740Y0155509D02*
X0131860Y0155509D01*
X0131860Y0155785D02*
X0134740Y0155785D01*
X0134740Y0156061D02*
X0131860Y0156061D01*
X0131860Y0156337D02*
X0134740Y0156337D01*
X0131295Y0156906D02*
X0131295Y0159786D01*
X0131295Y0156906D02*
X0130187Y0156906D01*
X0130187Y0159786D01*
X0131295Y0159786D01*
X0131295Y0157182D02*
X0130187Y0157182D01*
X0130187Y0157458D02*
X0131295Y0157458D01*
X0131295Y0157734D02*
X0130187Y0157734D01*
X0130187Y0158010D02*
X0131295Y0158010D01*
X0131295Y0158286D02*
X0130187Y0158286D01*
X0130187Y0158562D02*
X0131295Y0158562D01*
X0131295Y0158838D02*
X0130187Y0158838D01*
X0130187Y0159114D02*
X0131295Y0159114D01*
X0131295Y0159390D02*
X0130187Y0159390D01*
X0130187Y0159666D02*
X0131295Y0159666D01*
X0129326Y0159786D02*
X0129326Y0155726D01*
X0128218Y0155726D01*
X0128218Y0159786D01*
X0129326Y0159786D01*
X0129326Y0156002D02*
X0128218Y0156002D01*
X0128218Y0156278D02*
X0129326Y0156278D01*
X0129326Y0156554D02*
X0128218Y0156554D01*
X0128218Y0156830D02*
X0129326Y0156830D01*
X0129326Y0157106D02*
X0128218Y0157106D01*
X0128218Y0157382D02*
X0129326Y0157382D01*
X0129326Y0157658D02*
X0128218Y0157658D01*
X0128218Y0157934D02*
X0129326Y0157934D01*
X0129326Y0158210D02*
X0128218Y0158210D01*
X0128218Y0158486D02*
X0129326Y0158486D01*
X0129326Y0158762D02*
X0128218Y0158762D01*
X0128218Y0159038D02*
X0129326Y0159038D01*
X0129326Y0159314D02*
X0128218Y0159314D01*
X0128218Y0159590D02*
X0129326Y0159590D01*
X0127358Y0159786D02*
X0127358Y0156906D01*
X0126250Y0156906D01*
X0126250Y0159786D01*
X0127358Y0159786D01*
X0127358Y0157182D02*
X0126250Y0157182D01*
X0126250Y0157458D02*
X0127358Y0157458D01*
X0127358Y0157734D02*
X0126250Y0157734D01*
X0126250Y0158010D02*
X0127358Y0158010D01*
X0127358Y0158286D02*
X0126250Y0158286D01*
X0126250Y0158562D02*
X0127358Y0158562D01*
X0127358Y0158838D02*
X0126250Y0158838D01*
X0126250Y0159114D02*
X0127358Y0159114D01*
X0127358Y0159390D02*
X0126250Y0159390D01*
X0126250Y0159666D02*
X0127358Y0159666D01*
X0125389Y0159786D02*
X0125389Y0156906D01*
X0124281Y0156906D01*
X0124281Y0159786D01*
X0125389Y0159786D01*
X0125389Y0157182D02*
X0124281Y0157182D01*
X0124281Y0157458D02*
X0125389Y0157458D01*
X0125389Y0157734D02*
X0124281Y0157734D01*
X0124281Y0158010D02*
X0125389Y0158010D01*
X0125389Y0158286D02*
X0124281Y0158286D01*
X0124281Y0158562D02*
X0125389Y0158562D01*
X0125389Y0158838D02*
X0124281Y0158838D01*
X0124281Y0159114D02*
X0125389Y0159114D01*
X0125389Y0159390D02*
X0124281Y0159390D01*
X0124281Y0159666D02*
X0125389Y0159666D01*
X0123421Y0159786D02*
X0123421Y0156906D01*
X0122313Y0156906D01*
X0122313Y0159786D01*
X0123421Y0159786D01*
X0123421Y0157182D02*
X0122313Y0157182D01*
X0122313Y0157458D02*
X0123421Y0157458D01*
X0123421Y0157734D02*
X0122313Y0157734D01*
X0122313Y0158010D02*
X0123421Y0158010D01*
X0123421Y0158286D02*
X0122313Y0158286D01*
X0122313Y0158562D02*
X0123421Y0158562D01*
X0123421Y0158838D02*
X0122313Y0158838D01*
X0122313Y0159114D02*
X0123421Y0159114D01*
X0123421Y0159390D02*
X0122313Y0159390D01*
X0122313Y0159666D02*
X0123421Y0159666D01*
X0121452Y0159786D02*
X0121452Y0156906D01*
X0120344Y0156906D01*
X0120344Y0159786D01*
X0121452Y0159786D01*
X0121452Y0157182D02*
X0120344Y0157182D01*
X0120344Y0157458D02*
X0121452Y0157458D01*
X0121452Y0157734D02*
X0120344Y0157734D01*
X0120344Y0158010D02*
X0121452Y0158010D01*
X0121452Y0158286D02*
X0120344Y0158286D01*
X0120344Y0158562D02*
X0121452Y0158562D01*
X0121452Y0158838D02*
X0120344Y0158838D01*
X0120344Y0159114D02*
X0121452Y0159114D01*
X0121452Y0159390D02*
X0120344Y0159390D01*
X0120344Y0159666D02*
X0121452Y0159666D01*
X0119484Y0159786D02*
X0119484Y0156906D01*
X0118376Y0156906D01*
X0118376Y0159786D01*
X0119484Y0159786D01*
X0119484Y0157182D02*
X0118376Y0157182D01*
X0118376Y0157458D02*
X0119484Y0157458D01*
X0119484Y0157734D02*
X0118376Y0157734D01*
X0118376Y0158010D02*
X0119484Y0158010D01*
X0119484Y0158286D02*
X0118376Y0158286D01*
X0118376Y0158562D02*
X0119484Y0158562D01*
X0119484Y0158838D02*
X0118376Y0158838D01*
X0118376Y0159114D02*
X0119484Y0159114D01*
X0119484Y0159390D02*
X0118376Y0159390D01*
X0118376Y0159666D02*
X0119484Y0159666D01*
X0117515Y0159786D02*
X0117515Y0156906D01*
X0116407Y0156906D01*
X0116407Y0159786D01*
X0117515Y0159786D01*
X0117515Y0157182D02*
X0116407Y0157182D01*
X0116407Y0157458D02*
X0117515Y0157458D01*
X0117515Y0157734D02*
X0116407Y0157734D01*
X0116407Y0158010D02*
X0117515Y0158010D01*
X0117515Y0158286D02*
X0116407Y0158286D01*
X0116407Y0158562D02*
X0117515Y0158562D01*
X0117515Y0158838D02*
X0116407Y0158838D01*
X0116407Y0159114D02*
X0117515Y0159114D01*
X0117515Y0159390D02*
X0116407Y0159390D01*
X0116407Y0159666D02*
X0117515Y0159666D01*
X0115842Y0156341D02*
X0112962Y0156341D01*
X0115842Y0156341D02*
X0115842Y0155233D01*
X0112962Y0155233D01*
X0112962Y0156341D01*
X0112962Y0155509D02*
X0115842Y0155509D01*
X0115842Y0155785D02*
X0112962Y0155785D01*
X0112962Y0156061D02*
X0115842Y0156061D01*
X0115842Y0156337D02*
X0112962Y0156337D01*
X0112962Y0154373D02*
X0115842Y0154373D01*
X0115842Y0153265D01*
X0112962Y0153265D01*
X0112962Y0154373D01*
X0112962Y0153541D02*
X0115842Y0153541D01*
X0115842Y0153817D02*
X0112962Y0153817D01*
X0112962Y0154093D02*
X0115842Y0154093D01*
X0115842Y0154369D02*
X0112962Y0154369D01*
X0112962Y0152404D02*
X0115842Y0152404D01*
X0115842Y0151296D01*
X0112962Y0151296D01*
X0112962Y0152404D01*
X0112962Y0151572D02*
X0115842Y0151572D01*
X0115842Y0151848D02*
X0112962Y0151848D01*
X0112962Y0152124D02*
X0115842Y0152124D01*
X0115842Y0152400D02*
X0112962Y0152400D01*
X0112962Y0150436D02*
X0115842Y0150436D01*
X0115842Y0149328D01*
X0112962Y0149328D01*
X0112962Y0150436D01*
X0112962Y0149604D02*
X0115842Y0149604D01*
X0115842Y0149880D02*
X0112962Y0149880D01*
X0112962Y0150156D02*
X0115842Y0150156D01*
X0115842Y0150432D02*
X0112962Y0150432D01*
X0112962Y0148467D02*
X0115842Y0148467D01*
X0115842Y0147359D01*
X0112962Y0147359D01*
X0112962Y0148467D01*
X0112962Y0147635D02*
X0115842Y0147635D01*
X0115842Y0147911D02*
X0112962Y0147911D01*
X0112962Y0148187D02*
X0115842Y0148187D01*
X0115842Y0148463D02*
X0112962Y0148463D01*
X0112963Y0146499D02*
X0117023Y0146499D01*
X0117023Y0145391D01*
X0112963Y0145391D01*
X0112963Y0146499D01*
X0112963Y0145667D02*
X0117023Y0145667D01*
X0117023Y0145943D02*
X0112963Y0145943D01*
X0112963Y0146219D02*
X0117023Y0146219D01*
X0117023Y0146495D02*
X0112963Y0146495D01*
X0112962Y0144530D02*
X0115842Y0144530D01*
X0115842Y0143422D01*
X0112962Y0143422D01*
X0112962Y0144530D01*
X0112962Y0143698D02*
X0115842Y0143698D01*
X0115842Y0143974D02*
X0112962Y0143974D01*
X0112962Y0144250D02*
X0115842Y0144250D01*
X0115842Y0144526D02*
X0112962Y0144526D01*
X0112962Y0142562D02*
X0115842Y0142562D01*
X0115842Y0141454D01*
X0112962Y0141454D01*
X0112962Y0142562D01*
X0112962Y0141730D02*
X0115842Y0141730D01*
X0115842Y0142006D02*
X0112962Y0142006D01*
X0112962Y0142282D02*
X0115842Y0142282D01*
X0115842Y0142558D02*
X0112962Y0142558D01*
X0112962Y0140593D02*
X0115842Y0140593D01*
X0115842Y0139485D01*
X0112962Y0139485D01*
X0112962Y0140593D01*
X0112962Y0139761D02*
X0115842Y0139761D01*
X0115842Y0140037D02*
X0112962Y0140037D01*
X0112962Y0140313D02*
X0115842Y0140313D01*
X0115842Y0140589D02*
X0112962Y0140589D01*
X0167490Y0140593D02*
X0170370Y0140593D01*
X0170370Y0139485D01*
X0167490Y0139485D01*
X0167490Y0140593D01*
X0167490Y0139761D02*
X0170370Y0139761D01*
X0170370Y0140037D02*
X0167490Y0140037D01*
X0167490Y0140313D02*
X0170370Y0140313D01*
X0170370Y0140589D02*
X0167490Y0140589D01*
X0167490Y0142562D02*
X0170370Y0142562D01*
X0170370Y0141454D01*
X0167490Y0141454D01*
X0167490Y0142562D01*
X0167490Y0141730D02*
X0170370Y0141730D01*
X0170370Y0142006D02*
X0167490Y0142006D01*
X0167490Y0142282D02*
X0170370Y0142282D01*
X0170370Y0142558D02*
X0167490Y0142558D01*
X0167490Y0144530D02*
X0170370Y0144530D01*
X0170370Y0143422D01*
X0167490Y0143422D01*
X0167490Y0144530D01*
X0167490Y0143698D02*
X0170370Y0143698D01*
X0170370Y0143974D02*
X0167490Y0143974D01*
X0167490Y0144250D02*
X0170370Y0144250D01*
X0170370Y0144526D02*
X0167490Y0144526D01*
X0167490Y0146499D02*
X0171550Y0146499D01*
X0171550Y0145391D01*
X0167490Y0145391D01*
X0167490Y0146499D01*
X0167490Y0145667D02*
X0171550Y0145667D01*
X0171550Y0145943D02*
X0167490Y0145943D01*
X0167490Y0146219D02*
X0171550Y0146219D01*
X0171550Y0146495D02*
X0167490Y0146495D01*
X0167490Y0148467D02*
X0170370Y0148467D01*
X0170370Y0147359D01*
X0167490Y0147359D01*
X0167490Y0148467D01*
X0167490Y0147635D02*
X0170370Y0147635D01*
X0170370Y0147911D02*
X0167490Y0147911D01*
X0167490Y0148187D02*
X0170370Y0148187D01*
X0170370Y0148463D02*
X0167490Y0148463D01*
X0167490Y0150436D02*
X0170370Y0150436D01*
X0170370Y0149328D01*
X0167490Y0149328D01*
X0167490Y0150436D01*
X0167490Y0149604D02*
X0170370Y0149604D01*
X0170370Y0149880D02*
X0167490Y0149880D01*
X0167490Y0150156D02*
X0170370Y0150156D01*
X0170370Y0150432D02*
X0167490Y0150432D01*
X0167490Y0152404D02*
X0170370Y0152404D01*
X0170370Y0151296D01*
X0167490Y0151296D01*
X0167490Y0152404D01*
X0167490Y0151572D02*
X0170370Y0151572D01*
X0170370Y0151848D02*
X0167490Y0151848D01*
X0167490Y0152124D02*
X0170370Y0152124D01*
X0170370Y0152400D02*
X0167490Y0152400D01*
X0167490Y0154373D02*
X0170370Y0154373D01*
X0170370Y0153265D01*
X0167490Y0153265D01*
X0167490Y0154373D01*
X0167490Y0153541D02*
X0170370Y0153541D01*
X0170370Y0153817D02*
X0167490Y0153817D01*
X0167490Y0154093D02*
X0170370Y0154093D01*
X0170370Y0154369D02*
X0167490Y0154369D01*
X0167490Y0156341D02*
X0170370Y0156341D01*
X0170370Y0155233D01*
X0167490Y0155233D01*
X0167490Y0156341D01*
X0167490Y0155509D02*
X0170370Y0155509D01*
X0170370Y0155785D02*
X0167490Y0155785D01*
X0167490Y0156061D02*
X0170370Y0156061D01*
X0170370Y0156337D02*
X0167490Y0156337D01*
X0172043Y0156906D02*
X0172043Y0159786D01*
X0172043Y0156906D02*
X0170935Y0156906D01*
X0170935Y0159786D01*
X0172043Y0159786D01*
X0172043Y0157182D02*
X0170935Y0157182D01*
X0170935Y0157458D02*
X0172043Y0157458D01*
X0172043Y0157734D02*
X0170935Y0157734D01*
X0170935Y0158010D02*
X0172043Y0158010D01*
X0172043Y0158286D02*
X0170935Y0158286D01*
X0170935Y0158562D02*
X0172043Y0158562D01*
X0172043Y0158838D02*
X0170935Y0158838D01*
X0170935Y0159114D02*
X0172043Y0159114D01*
X0172043Y0159390D02*
X0170935Y0159390D01*
X0170935Y0159666D02*
X0172043Y0159666D01*
X0174011Y0159786D02*
X0174011Y0156906D01*
X0172903Y0156906D01*
X0172903Y0159786D01*
X0174011Y0159786D01*
X0174011Y0157182D02*
X0172903Y0157182D01*
X0172903Y0157458D02*
X0174011Y0157458D01*
X0174011Y0157734D02*
X0172903Y0157734D01*
X0172903Y0158010D02*
X0174011Y0158010D01*
X0174011Y0158286D02*
X0172903Y0158286D01*
X0172903Y0158562D02*
X0174011Y0158562D01*
X0174011Y0158838D02*
X0172903Y0158838D01*
X0172903Y0159114D02*
X0174011Y0159114D01*
X0174011Y0159390D02*
X0172903Y0159390D01*
X0172903Y0159666D02*
X0174011Y0159666D01*
X0175980Y0159786D02*
X0175980Y0156906D01*
X0174872Y0156906D01*
X0174872Y0159786D01*
X0175980Y0159786D01*
X0175980Y0157182D02*
X0174872Y0157182D01*
X0174872Y0157458D02*
X0175980Y0157458D01*
X0175980Y0157734D02*
X0174872Y0157734D01*
X0174872Y0158010D02*
X0175980Y0158010D01*
X0175980Y0158286D02*
X0174872Y0158286D01*
X0174872Y0158562D02*
X0175980Y0158562D01*
X0175980Y0158838D02*
X0174872Y0158838D01*
X0174872Y0159114D02*
X0175980Y0159114D01*
X0175980Y0159390D02*
X0174872Y0159390D01*
X0174872Y0159666D02*
X0175980Y0159666D01*
X0177948Y0159786D02*
X0177948Y0156906D01*
X0176840Y0156906D01*
X0176840Y0159786D01*
X0177948Y0159786D01*
X0177948Y0157182D02*
X0176840Y0157182D01*
X0176840Y0157458D02*
X0177948Y0157458D01*
X0177948Y0157734D02*
X0176840Y0157734D01*
X0176840Y0158010D02*
X0177948Y0158010D01*
X0177948Y0158286D02*
X0176840Y0158286D01*
X0176840Y0158562D02*
X0177948Y0158562D01*
X0177948Y0158838D02*
X0176840Y0158838D01*
X0176840Y0159114D02*
X0177948Y0159114D01*
X0177948Y0159390D02*
X0176840Y0159390D01*
X0176840Y0159666D02*
X0177948Y0159666D01*
X0179917Y0159786D02*
X0179917Y0156906D01*
X0178809Y0156906D01*
X0178809Y0159786D01*
X0179917Y0159786D01*
X0179917Y0157182D02*
X0178809Y0157182D01*
X0178809Y0157458D02*
X0179917Y0157458D01*
X0179917Y0157734D02*
X0178809Y0157734D01*
X0178809Y0158010D02*
X0179917Y0158010D01*
X0179917Y0158286D02*
X0178809Y0158286D01*
X0178809Y0158562D02*
X0179917Y0158562D01*
X0179917Y0158838D02*
X0178809Y0158838D01*
X0178809Y0159114D02*
X0179917Y0159114D01*
X0179917Y0159390D02*
X0178809Y0159390D01*
X0178809Y0159666D02*
X0179917Y0159666D01*
X0181885Y0159786D02*
X0181885Y0156906D01*
X0180777Y0156906D01*
X0180777Y0159786D01*
X0181885Y0159786D01*
X0181885Y0157182D02*
X0180777Y0157182D01*
X0180777Y0157458D02*
X0181885Y0157458D01*
X0181885Y0157734D02*
X0180777Y0157734D01*
X0180777Y0158010D02*
X0181885Y0158010D01*
X0181885Y0158286D02*
X0180777Y0158286D01*
X0180777Y0158562D02*
X0181885Y0158562D01*
X0181885Y0158838D02*
X0180777Y0158838D01*
X0180777Y0159114D02*
X0181885Y0159114D01*
X0181885Y0159390D02*
X0180777Y0159390D01*
X0180777Y0159666D02*
X0181885Y0159666D01*
X0183854Y0159786D02*
X0183854Y0155726D01*
X0182746Y0155726D01*
X0182746Y0159786D01*
X0183854Y0159786D01*
X0183854Y0156002D02*
X0182746Y0156002D01*
X0182746Y0156278D02*
X0183854Y0156278D01*
X0183854Y0156554D02*
X0182746Y0156554D01*
X0182746Y0156830D02*
X0183854Y0156830D01*
X0183854Y0157106D02*
X0182746Y0157106D01*
X0182746Y0157382D02*
X0183854Y0157382D01*
X0183854Y0157658D02*
X0182746Y0157658D01*
X0182746Y0157934D02*
X0183854Y0157934D01*
X0183854Y0158210D02*
X0182746Y0158210D01*
X0182746Y0158486D02*
X0183854Y0158486D01*
X0183854Y0158762D02*
X0182746Y0158762D01*
X0182746Y0159038D02*
X0183854Y0159038D01*
X0183854Y0159314D02*
X0182746Y0159314D01*
X0182746Y0159590D02*
X0183854Y0159590D01*
X0185823Y0159786D02*
X0185823Y0156906D01*
X0184715Y0156906D01*
X0184715Y0159786D01*
X0185823Y0159786D01*
X0185823Y0157182D02*
X0184715Y0157182D01*
X0184715Y0157458D02*
X0185823Y0157458D01*
X0185823Y0157734D02*
X0184715Y0157734D01*
X0184715Y0158010D02*
X0185823Y0158010D01*
X0185823Y0158286D02*
X0184715Y0158286D01*
X0184715Y0158562D02*
X0185823Y0158562D01*
X0185823Y0158838D02*
X0184715Y0158838D01*
X0184715Y0159114D02*
X0185823Y0159114D01*
X0185823Y0159390D02*
X0184715Y0159390D01*
X0184715Y0159666D02*
X0185823Y0159666D01*
X0186388Y0155233D02*
X0189268Y0155233D01*
X0186388Y0155233D02*
X0186388Y0156341D01*
X0189268Y0156341D01*
X0189268Y0155233D01*
X0189268Y0155509D02*
X0186388Y0155509D01*
X0186388Y0155785D02*
X0189268Y0155785D01*
X0189268Y0156061D02*
X0186388Y0156061D01*
X0186388Y0156337D02*
X0189268Y0156337D01*
X0189268Y0153265D02*
X0186388Y0153265D01*
X0186388Y0154373D01*
X0189268Y0154373D01*
X0189268Y0153265D01*
X0189268Y0153541D02*
X0186388Y0153541D01*
X0186388Y0153817D02*
X0189268Y0153817D01*
X0189268Y0154093D02*
X0186388Y0154093D01*
X0186388Y0154369D02*
X0189268Y0154369D01*
X0189268Y0151296D02*
X0186388Y0151296D01*
X0186388Y0152404D01*
X0189268Y0152404D01*
X0189268Y0151296D01*
X0189268Y0151572D02*
X0186388Y0151572D01*
X0186388Y0151848D02*
X0189268Y0151848D01*
X0189268Y0152124D02*
X0186388Y0152124D01*
X0186388Y0152400D02*
X0189268Y0152400D01*
X0189268Y0149328D02*
X0186388Y0149328D01*
X0186388Y0150436D01*
X0189268Y0150436D01*
X0189268Y0149328D01*
X0189268Y0149604D02*
X0186388Y0149604D01*
X0186388Y0149880D02*
X0189268Y0149880D01*
X0189268Y0150156D02*
X0186388Y0150156D01*
X0186388Y0150432D02*
X0189268Y0150432D01*
X0189268Y0147359D02*
X0186388Y0147359D01*
X0186388Y0148467D01*
X0189268Y0148467D01*
X0189268Y0147359D01*
X0189268Y0147635D02*
X0186388Y0147635D01*
X0186388Y0147911D02*
X0189268Y0147911D01*
X0189268Y0148187D02*
X0186388Y0148187D01*
X0186388Y0148463D02*
X0189268Y0148463D01*
X0189268Y0145391D02*
X0186388Y0145391D01*
X0186388Y0146499D01*
X0189268Y0146499D01*
X0189268Y0145391D01*
X0189268Y0145667D02*
X0186388Y0145667D01*
X0186388Y0145943D02*
X0189268Y0145943D01*
X0189268Y0146219D02*
X0186388Y0146219D01*
X0186388Y0146495D02*
X0189268Y0146495D01*
X0189268Y0143422D02*
X0186388Y0143422D01*
X0186388Y0144530D01*
X0189268Y0144530D01*
X0189268Y0143422D01*
X0189268Y0143698D02*
X0186388Y0143698D01*
X0186388Y0143974D02*
X0189268Y0143974D01*
X0189268Y0144250D02*
X0186388Y0144250D01*
X0186388Y0144526D02*
X0189268Y0144526D01*
X0189268Y0141454D02*
X0186388Y0141454D01*
X0186388Y0142562D01*
X0189268Y0142562D01*
X0189268Y0141454D01*
X0189268Y0141730D02*
X0186388Y0141730D01*
X0186388Y0142006D02*
X0189268Y0142006D01*
X0189268Y0142282D02*
X0186388Y0142282D01*
X0186388Y0142558D02*
X0189268Y0142558D01*
X0189268Y0139485D02*
X0186388Y0139485D01*
X0186388Y0140593D01*
X0189268Y0140593D01*
X0189268Y0139485D01*
X0189268Y0139761D02*
X0186388Y0139761D01*
X0186388Y0140037D02*
X0189268Y0140037D01*
X0189268Y0140313D02*
X0186388Y0140313D01*
X0186388Y0140589D02*
X0189268Y0140589D01*
X0189268Y0137517D02*
X0186388Y0137517D01*
X0186388Y0138625D01*
X0189268Y0138625D01*
X0189268Y0137517D01*
X0189268Y0137793D02*
X0186388Y0137793D01*
X0186388Y0138069D02*
X0189268Y0138069D01*
X0189268Y0138345D02*
X0186388Y0138345D01*
X0186388Y0138621D02*
X0189268Y0138621D01*
X0184715Y0136952D02*
X0184715Y0134072D01*
X0184715Y0136952D02*
X0185823Y0136952D01*
X0185823Y0134072D01*
X0184715Y0134072D01*
X0184715Y0134348D02*
X0185823Y0134348D01*
X0185823Y0134624D02*
X0184715Y0134624D01*
X0184715Y0134900D02*
X0185823Y0134900D01*
X0185823Y0135176D02*
X0184715Y0135176D01*
X0184715Y0135452D02*
X0185823Y0135452D01*
X0185823Y0135728D02*
X0184715Y0135728D01*
X0184715Y0136004D02*
X0185823Y0136004D01*
X0185823Y0136280D02*
X0184715Y0136280D01*
X0184715Y0136556D02*
X0185823Y0136556D01*
X0185823Y0136832D02*
X0184715Y0136832D01*
X0182746Y0138132D02*
X0182746Y0134072D01*
X0182746Y0138132D02*
X0183854Y0138132D01*
X0183854Y0134072D01*
X0182746Y0134072D01*
X0182746Y0134348D02*
X0183854Y0134348D01*
X0183854Y0134624D02*
X0182746Y0134624D01*
X0182746Y0134900D02*
X0183854Y0134900D01*
X0183854Y0135176D02*
X0182746Y0135176D01*
X0182746Y0135452D02*
X0183854Y0135452D01*
X0183854Y0135728D02*
X0182746Y0135728D01*
X0182746Y0136004D02*
X0183854Y0136004D01*
X0183854Y0136280D02*
X0182746Y0136280D01*
X0182746Y0136556D02*
X0183854Y0136556D01*
X0183854Y0136832D02*
X0182746Y0136832D01*
X0182746Y0137108D02*
X0183854Y0137108D01*
X0183854Y0137384D02*
X0182746Y0137384D01*
X0182746Y0137660D02*
X0183854Y0137660D01*
X0183854Y0137936D02*
X0182746Y0137936D01*
X0180777Y0136952D02*
X0180777Y0134072D01*
X0180777Y0136952D02*
X0181885Y0136952D01*
X0181885Y0134072D01*
X0180777Y0134072D01*
X0180777Y0134348D02*
X0181885Y0134348D01*
X0181885Y0134624D02*
X0180777Y0134624D01*
X0180777Y0134900D02*
X0181885Y0134900D01*
X0181885Y0135176D02*
X0180777Y0135176D01*
X0180777Y0135452D02*
X0181885Y0135452D01*
X0181885Y0135728D02*
X0180777Y0135728D01*
X0180777Y0136004D02*
X0181885Y0136004D01*
X0181885Y0136280D02*
X0180777Y0136280D01*
X0180777Y0136556D02*
X0181885Y0136556D01*
X0181885Y0136832D02*
X0180777Y0136832D01*
X0178809Y0136952D02*
X0178809Y0134072D01*
X0178809Y0136952D02*
X0179917Y0136952D01*
X0179917Y0134072D01*
X0178809Y0134072D01*
X0178809Y0134348D02*
X0179917Y0134348D01*
X0179917Y0134624D02*
X0178809Y0134624D01*
X0178809Y0134900D02*
X0179917Y0134900D01*
X0179917Y0135176D02*
X0178809Y0135176D01*
X0178809Y0135452D02*
X0179917Y0135452D01*
X0179917Y0135728D02*
X0178809Y0135728D01*
X0178809Y0136004D02*
X0179917Y0136004D01*
X0179917Y0136280D02*
X0178809Y0136280D01*
X0178809Y0136556D02*
X0179917Y0136556D01*
X0179917Y0136832D02*
X0178809Y0136832D01*
X0176840Y0136952D02*
X0176840Y0134072D01*
X0176840Y0136952D02*
X0177948Y0136952D01*
X0177948Y0134072D01*
X0176840Y0134072D01*
X0176840Y0134348D02*
X0177948Y0134348D01*
X0177948Y0134624D02*
X0176840Y0134624D01*
X0176840Y0134900D02*
X0177948Y0134900D01*
X0177948Y0135176D02*
X0176840Y0135176D01*
X0176840Y0135452D02*
X0177948Y0135452D01*
X0177948Y0135728D02*
X0176840Y0135728D01*
X0176840Y0136004D02*
X0177948Y0136004D01*
X0177948Y0136280D02*
X0176840Y0136280D01*
X0176840Y0136556D02*
X0177948Y0136556D01*
X0177948Y0136832D02*
X0176840Y0136832D01*
X0174872Y0136952D02*
X0174872Y0134072D01*
X0174872Y0136952D02*
X0175980Y0136952D01*
X0175980Y0134072D01*
X0174872Y0134072D01*
X0174872Y0134348D02*
X0175980Y0134348D01*
X0175980Y0134624D02*
X0174872Y0134624D01*
X0174872Y0134900D02*
X0175980Y0134900D01*
X0175980Y0135176D02*
X0174872Y0135176D01*
X0174872Y0135452D02*
X0175980Y0135452D01*
X0175980Y0135728D02*
X0174872Y0135728D01*
X0174872Y0136004D02*
X0175980Y0136004D01*
X0175980Y0136280D02*
X0174872Y0136280D01*
X0174872Y0136556D02*
X0175980Y0136556D01*
X0175980Y0136832D02*
X0174872Y0136832D01*
X0172903Y0136952D02*
X0172903Y0134072D01*
X0172903Y0136952D02*
X0174011Y0136952D01*
X0174011Y0134072D01*
X0172903Y0134072D01*
X0172903Y0134348D02*
X0174011Y0134348D01*
X0174011Y0134624D02*
X0172903Y0134624D01*
X0172903Y0134900D02*
X0174011Y0134900D01*
X0174011Y0135176D02*
X0172903Y0135176D01*
X0172903Y0135452D02*
X0174011Y0135452D01*
X0174011Y0135728D02*
X0172903Y0135728D01*
X0172903Y0136004D02*
X0174011Y0136004D01*
X0174011Y0136280D02*
X0172903Y0136280D01*
X0172903Y0136556D02*
X0174011Y0136556D01*
X0174011Y0136832D02*
X0172903Y0136832D01*
X0170935Y0136952D02*
X0170935Y0134072D01*
X0170935Y0136952D02*
X0172043Y0136952D01*
X0172043Y0134072D01*
X0170935Y0134072D01*
X0170935Y0134348D02*
X0172043Y0134348D01*
X0172043Y0134624D02*
X0170935Y0134624D01*
X0170935Y0134900D02*
X0172043Y0134900D01*
X0172043Y0135176D02*
X0170935Y0135176D01*
X0170935Y0135452D02*
X0172043Y0135452D01*
X0172043Y0135728D02*
X0170935Y0135728D01*
X0170935Y0136004D02*
X0172043Y0136004D01*
X0172043Y0136280D02*
X0170935Y0136280D01*
X0170935Y0136556D02*
X0172043Y0136556D01*
X0172043Y0136832D02*
X0170935Y0136832D01*
X0220836Y0140790D02*
X0223716Y0140790D01*
X0223716Y0139682D01*
X0220836Y0139682D01*
X0220836Y0140790D01*
X0220836Y0139958D02*
X0223716Y0139958D01*
X0223716Y0140234D02*
X0220836Y0140234D01*
X0220836Y0140510D02*
X0223716Y0140510D01*
X0223716Y0140786D02*
X0220836Y0140786D01*
X0220836Y0142759D02*
X0223716Y0142759D01*
X0223716Y0141651D01*
X0220836Y0141651D01*
X0220836Y0142759D01*
X0220836Y0141927D02*
X0223716Y0141927D01*
X0223716Y0142203D02*
X0220836Y0142203D01*
X0220836Y0142479D02*
X0223716Y0142479D01*
X0223716Y0142755D02*
X0220836Y0142755D01*
X0220836Y0144727D02*
X0223716Y0144727D01*
X0223716Y0143619D01*
X0220836Y0143619D01*
X0220836Y0144727D01*
X0220836Y0143895D02*
X0223716Y0143895D01*
X0223716Y0144171D02*
X0220836Y0144171D01*
X0220836Y0144447D02*
X0223716Y0144447D01*
X0223716Y0144723D02*
X0220836Y0144723D01*
X0220837Y0146696D02*
X0224897Y0146696D01*
X0224897Y0145588D01*
X0220837Y0145588D01*
X0220837Y0146696D01*
X0220837Y0145864D02*
X0224897Y0145864D01*
X0224897Y0146140D02*
X0220837Y0146140D01*
X0220837Y0146416D02*
X0224897Y0146416D01*
X0224897Y0146692D02*
X0220837Y0146692D01*
X0220836Y0148664D02*
X0223716Y0148664D01*
X0223716Y0147556D01*
X0220836Y0147556D01*
X0220836Y0148664D01*
X0220836Y0147832D02*
X0223716Y0147832D01*
X0223716Y0148108D02*
X0220836Y0148108D01*
X0220836Y0148384D02*
X0223716Y0148384D01*
X0223716Y0148660D02*
X0220836Y0148660D01*
X0220836Y0150633D02*
X0223716Y0150633D01*
X0223716Y0149525D01*
X0220836Y0149525D01*
X0220836Y0150633D01*
X0220836Y0149801D02*
X0223716Y0149801D01*
X0223716Y0150077D02*
X0220836Y0150077D01*
X0220836Y0150353D02*
X0223716Y0150353D01*
X0223716Y0150629D02*
X0220836Y0150629D01*
X0220836Y0152601D02*
X0223716Y0152601D01*
X0223716Y0151493D01*
X0220836Y0151493D01*
X0220836Y0152601D01*
X0220836Y0151769D02*
X0223716Y0151769D01*
X0223716Y0152045D02*
X0220836Y0152045D01*
X0220836Y0152321D02*
X0223716Y0152321D01*
X0223716Y0152597D02*
X0220836Y0152597D01*
X0220836Y0154570D02*
X0223716Y0154570D01*
X0223716Y0153462D01*
X0220836Y0153462D01*
X0220836Y0154570D01*
X0220836Y0153738D02*
X0223716Y0153738D01*
X0223716Y0154014D02*
X0220836Y0154014D01*
X0220836Y0154290D02*
X0223716Y0154290D01*
X0223716Y0154566D02*
X0220836Y0154566D01*
X0220836Y0156538D02*
X0223716Y0156538D01*
X0223716Y0155430D01*
X0220836Y0155430D01*
X0220836Y0156538D01*
X0220836Y0155706D02*
X0223716Y0155706D01*
X0223716Y0155982D02*
X0220836Y0155982D01*
X0220836Y0156258D02*
X0223716Y0156258D01*
X0223716Y0156534D02*
X0220836Y0156534D01*
X0225389Y0157103D02*
X0225389Y0159983D01*
X0225389Y0157103D02*
X0224281Y0157103D01*
X0224281Y0159983D01*
X0225389Y0159983D01*
X0225389Y0157379D02*
X0224281Y0157379D01*
X0224281Y0157655D02*
X0225389Y0157655D01*
X0225389Y0157931D02*
X0224281Y0157931D01*
X0224281Y0158207D02*
X0225389Y0158207D01*
X0225389Y0158483D02*
X0224281Y0158483D01*
X0224281Y0158759D02*
X0225389Y0158759D01*
X0225389Y0159035D02*
X0224281Y0159035D01*
X0224281Y0159311D02*
X0225389Y0159311D01*
X0225389Y0159587D02*
X0224281Y0159587D01*
X0224281Y0159863D02*
X0225389Y0159863D01*
X0227358Y0159983D02*
X0227358Y0157103D01*
X0226250Y0157103D01*
X0226250Y0159983D01*
X0227358Y0159983D01*
X0227358Y0157379D02*
X0226250Y0157379D01*
X0226250Y0157655D02*
X0227358Y0157655D01*
X0227358Y0157931D02*
X0226250Y0157931D01*
X0226250Y0158207D02*
X0227358Y0158207D01*
X0227358Y0158483D02*
X0226250Y0158483D01*
X0226250Y0158759D02*
X0227358Y0158759D01*
X0227358Y0159035D02*
X0226250Y0159035D01*
X0226250Y0159311D02*
X0227358Y0159311D01*
X0227358Y0159587D02*
X0226250Y0159587D01*
X0226250Y0159863D02*
X0227358Y0159863D01*
X0229326Y0159983D02*
X0229326Y0157103D01*
X0228218Y0157103D01*
X0228218Y0159983D01*
X0229326Y0159983D01*
X0229326Y0157379D02*
X0228218Y0157379D01*
X0228218Y0157655D02*
X0229326Y0157655D01*
X0229326Y0157931D02*
X0228218Y0157931D01*
X0228218Y0158207D02*
X0229326Y0158207D01*
X0229326Y0158483D02*
X0228218Y0158483D01*
X0228218Y0158759D02*
X0229326Y0158759D01*
X0229326Y0159035D02*
X0228218Y0159035D01*
X0228218Y0159311D02*
X0229326Y0159311D01*
X0229326Y0159587D02*
X0228218Y0159587D01*
X0228218Y0159863D02*
X0229326Y0159863D01*
X0231295Y0159983D02*
X0231295Y0157103D01*
X0230187Y0157103D01*
X0230187Y0159983D01*
X0231295Y0159983D01*
X0231295Y0157379D02*
X0230187Y0157379D01*
X0230187Y0157655D02*
X0231295Y0157655D01*
X0231295Y0157931D02*
X0230187Y0157931D01*
X0230187Y0158207D02*
X0231295Y0158207D01*
X0231295Y0158483D02*
X0230187Y0158483D01*
X0230187Y0158759D02*
X0231295Y0158759D01*
X0231295Y0159035D02*
X0230187Y0159035D01*
X0230187Y0159311D02*
X0231295Y0159311D01*
X0231295Y0159587D02*
X0230187Y0159587D01*
X0230187Y0159863D02*
X0231295Y0159863D01*
X0233263Y0159983D02*
X0233263Y0157103D01*
X0232155Y0157103D01*
X0232155Y0159983D01*
X0233263Y0159983D01*
X0233263Y0157379D02*
X0232155Y0157379D01*
X0232155Y0157655D02*
X0233263Y0157655D01*
X0233263Y0157931D02*
X0232155Y0157931D01*
X0232155Y0158207D02*
X0233263Y0158207D01*
X0233263Y0158483D02*
X0232155Y0158483D01*
X0232155Y0158759D02*
X0233263Y0158759D01*
X0233263Y0159035D02*
X0232155Y0159035D01*
X0232155Y0159311D02*
X0233263Y0159311D01*
X0233263Y0159587D02*
X0232155Y0159587D01*
X0232155Y0159863D02*
X0233263Y0159863D01*
X0235232Y0159983D02*
X0235232Y0157103D01*
X0234124Y0157103D01*
X0234124Y0159983D01*
X0235232Y0159983D01*
X0235232Y0157379D02*
X0234124Y0157379D01*
X0234124Y0157655D02*
X0235232Y0157655D01*
X0235232Y0157931D02*
X0234124Y0157931D01*
X0234124Y0158207D02*
X0235232Y0158207D01*
X0235232Y0158483D02*
X0234124Y0158483D01*
X0234124Y0158759D02*
X0235232Y0158759D01*
X0235232Y0159035D02*
X0234124Y0159035D01*
X0234124Y0159311D02*
X0235232Y0159311D01*
X0235232Y0159587D02*
X0234124Y0159587D01*
X0234124Y0159863D02*
X0235232Y0159863D01*
X0237200Y0159983D02*
X0237200Y0155923D01*
X0236092Y0155923D01*
X0236092Y0159983D01*
X0237200Y0159983D01*
X0237200Y0156199D02*
X0236092Y0156199D01*
X0236092Y0156475D02*
X0237200Y0156475D01*
X0237200Y0156751D02*
X0236092Y0156751D01*
X0236092Y0157027D02*
X0237200Y0157027D01*
X0237200Y0157303D02*
X0236092Y0157303D01*
X0236092Y0157579D02*
X0237200Y0157579D01*
X0237200Y0157855D02*
X0236092Y0157855D01*
X0236092Y0158131D02*
X0237200Y0158131D01*
X0237200Y0158407D02*
X0236092Y0158407D01*
X0236092Y0158683D02*
X0237200Y0158683D01*
X0237200Y0158959D02*
X0236092Y0158959D01*
X0236092Y0159235D02*
X0237200Y0159235D01*
X0237200Y0159511D02*
X0236092Y0159511D01*
X0236092Y0159787D02*
X0237200Y0159787D01*
X0239169Y0159983D02*
X0239169Y0157103D01*
X0238061Y0157103D01*
X0238061Y0159983D01*
X0239169Y0159983D01*
X0239169Y0157379D02*
X0238061Y0157379D01*
X0238061Y0157655D02*
X0239169Y0157655D01*
X0239169Y0157931D02*
X0238061Y0157931D01*
X0238061Y0158207D02*
X0239169Y0158207D01*
X0239169Y0158483D02*
X0238061Y0158483D01*
X0238061Y0158759D02*
X0239169Y0158759D01*
X0239169Y0159035D02*
X0238061Y0159035D01*
X0238061Y0159311D02*
X0239169Y0159311D01*
X0239169Y0159587D02*
X0238061Y0159587D01*
X0238061Y0159863D02*
X0239169Y0159863D01*
X0239734Y0155430D02*
X0242614Y0155430D01*
X0239734Y0155430D02*
X0239734Y0156538D01*
X0242614Y0156538D01*
X0242614Y0155430D01*
X0242614Y0155706D02*
X0239734Y0155706D01*
X0239734Y0155982D02*
X0242614Y0155982D01*
X0242614Y0156258D02*
X0239734Y0156258D01*
X0239734Y0156534D02*
X0242614Y0156534D01*
X0242614Y0153462D02*
X0239734Y0153462D01*
X0239734Y0154570D01*
X0242614Y0154570D01*
X0242614Y0153462D01*
X0242614Y0153738D02*
X0239734Y0153738D01*
X0239734Y0154014D02*
X0242614Y0154014D01*
X0242614Y0154290D02*
X0239734Y0154290D01*
X0239734Y0154566D02*
X0242614Y0154566D01*
X0242614Y0151493D02*
X0239734Y0151493D01*
X0239734Y0152601D01*
X0242614Y0152601D01*
X0242614Y0151493D01*
X0242614Y0151769D02*
X0239734Y0151769D01*
X0239734Y0152045D02*
X0242614Y0152045D01*
X0242614Y0152321D02*
X0239734Y0152321D01*
X0239734Y0152597D02*
X0242614Y0152597D01*
X0242614Y0149525D02*
X0239734Y0149525D01*
X0239734Y0150633D01*
X0242614Y0150633D01*
X0242614Y0149525D01*
X0242614Y0149801D02*
X0239734Y0149801D01*
X0239734Y0150077D02*
X0242614Y0150077D01*
X0242614Y0150353D02*
X0239734Y0150353D01*
X0239734Y0150629D02*
X0242614Y0150629D01*
X0242614Y0147556D02*
X0239734Y0147556D01*
X0239734Y0148664D01*
X0242614Y0148664D01*
X0242614Y0147556D01*
X0242614Y0147832D02*
X0239734Y0147832D01*
X0239734Y0148108D02*
X0242614Y0148108D01*
X0242614Y0148384D02*
X0239734Y0148384D01*
X0239734Y0148660D02*
X0242614Y0148660D01*
X0242614Y0145588D02*
X0239734Y0145588D01*
X0239734Y0146696D01*
X0242614Y0146696D01*
X0242614Y0145588D01*
X0242614Y0145864D02*
X0239734Y0145864D01*
X0239734Y0146140D02*
X0242614Y0146140D01*
X0242614Y0146416D02*
X0239734Y0146416D01*
X0239734Y0146692D02*
X0242614Y0146692D01*
X0242614Y0143619D02*
X0239734Y0143619D01*
X0239734Y0144727D01*
X0242614Y0144727D01*
X0242614Y0143619D01*
X0242614Y0143895D02*
X0239734Y0143895D01*
X0239734Y0144171D02*
X0242614Y0144171D01*
X0242614Y0144447D02*
X0239734Y0144447D01*
X0239734Y0144723D02*
X0242614Y0144723D01*
X0242614Y0141651D02*
X0239734Y0141651D01*
X0239734Y0142759D01*
X0242614Y0142759D01*
X0242614Y0141651D01*
X0242614Y0141927D02*
X0239734Y0141927D01*
X0239734Y0142203D02*
X0242614Y0142203D01*
X0242614Y0142479D02*
X0239734Y0142479D01*
X0239734Y0142755D02*
X0242614Y0142755D01*
X0242614Y0139682D02*
X0239734Y0139682D01*
X0239734Y0140790D01*
X0242614Y0140790D01*
X0242614Y0139682D01*
X0242614Y0139958D02*
X0239734Y0139958D01*
X0239734Y0140234D02*
X0242614Y0140234D01*
X0242614Y0140510D02*
X0239734Y0140510D01*
X0239734Y0140786D02*
X0242614Y0140786D01*
X0242614Y0137714D02*
X0239734Y0137714D01*
X0239734Y0138822D01*
X0242614Y0138822D01*
X0242614Y0137714D01*
X0242614Y0137990D02*
X0239734Y0137990D01*
X0239734Y0138266D02*
X0242614Y0138266D01*
X0242614Y0138542D02*
X0239734Y0138542D01*
X0239734Y0138818D02*
X0242614Y0138818D01*
X0238061Y0137149D02*
X0238061Y0134269D01*
X0238061Y0137149D02*
X0239169Y0137149D01*
X0239169Y0134269D01*
X0238061Y0134269D01*
X0238061Y0134545D02*
X0239169Y0134545D01*
X0239169Y0134821D02*
X0238061Y0134821D01*
X0238061Y0135097D02*
X0239169Y0135097D01*
X0239169Y0135373D02*
X0238061Y0135373D01*
X0238061Y0135649D02*
X0239169Y0135649D01*
X0239169Y0135925D02*
X0238061Y0135925D01*
X0238061Y0136201D02*
X0239169Y0136201D01*
X0239169Y0136477D02*
X0238061Y0136477D01*
X0238061Y0136753D02*
X0239169Y0136753D01*
X0239169Y0137029D02*
X0238061Y0137029D01*
X0236092Y0138329D02*
X0236092Y0134269D01*
X0236092Y0138329D02*
X0237200Y0138329D01*
X0237200Y0134269D01*
X0236092Y0134269D01*
X0236092Y0134545D02*
X0237200Y0134545D01*
X0237200Y0134821D02*
X0236092Y0134821D01*
X0236092Y0135097D02*
X0237200Y0135097D01*
X0237200Y0135373D02*
X0236092Y0135373D01*
X0236092Y0135649D02*
X0237200Y0135649D01*
X0237200Y0135925D02*
X0236092Y0135925D01*
X0236092Y0136201D02*
X0237200Y0136201D01*
X0237200Y0136477D02*
X0236092Y0136477D01*
X0236092Y0136753D02*
X0237200Y0136753D01*
X0237200Y0137029D02*
X0236092Y0137029D01*
X0236092Y0137305D02*
X0237200Y0137305D01*
X0237200Y0137581D02*
X0236092Y0137581D01*
X0236092Y0137857D02*
X0237200Y0137857D01*
X0237200Y0138133D02*
X0236092Y0138133D01*
X0234124Y0137149D02*
X0234124Y0134269D01*
X0234124Y0137149D02*
X0235232Y0137149D01*
X0235232Y0134269D01*
X0234124Y0134269D01*
X0234124Y0134545D02*
X0235232Y0134545D01*
X0235232Y0134821D02*
X0234124Y0134821D01*
X0234124Y0135097D02*
X0235232Y0135097D01*
X0235232Y0135373D02*
X0234124Y0135373D01*
X0234124Y0135649D02*
X0235232Y0135649D01*
X0235232Y0135925D02*
X0234124Y0135925D01*
X0234124Y0136201D02*
X0235232Y0136201D01*
X0235232Y0136477D02*
X0234124Y0136477D01*
X0234124Y0136753D02*
X0235232Y0136753D01*
X0235232Y0137029D02*
X0234124Y0137029D01*
X0232155Y0137149D02*
X0232155Y0134269D01*
X0232155Y0137149D02*
X0233263Y0137149D01*
X0233263Y0134269D01*
X0232155Y0134269D01*
X0232155Y0134545D02*
X0233263Y0134545D01*
X0233263Y0134821D02*
X0232155Y0134821D01*
X0232155Y0135097D02*
X0233263Y0135097D01*
X0233263Y0135373D02*
X0232155Y0135373D01*
X0232155Y0135649D02*
X0233263Y0135649D01*
X0233263Y0135925D02*
X0232155Y0135925D01*
X0232155Y0136201D02*
X0233263Y0136201D01*
X0233263Y0136477D02*
X0232155Y0136477D01*
X0232155Y0136753D02*
X0233263Y0136753D01*
X0233263Y0137029D02*
X0232155Y0137029D01*
X0230187Y0137149D02*
X0230187Y0134269D01*
X0230187Y0137149D02*
X0231295Y0137149D01*
X0231295Y0134269D01*
X0230187Y0134269D01*
X0230187Y0134545D02*
X0231295Y0134545D01*
X0231295Y0134821D02*
X0230187Y0134821D01*
X0230187Y0135097D02*
X0231295Y0135097D01*
X0231295Y0135373D02*
X0230187Y0135373D01*
X0230187Y0135649D02*
X0231295Y0135649D01*
X0231295Y0135925D02*
X0230187Y0135925D01*
X0230187Y0136201D02*
X0231295Y0136201D01*
X0231295Y0136477D02*
X0230187Y0136477D01*
X0230187Y0136753D02*
X0231295Y0136753D01*
X0231295Y0137029D02*
X0230187Y0137029D01*
X0228218Y0137149D02*
X0228218Y0134269D01*
X0228218Y0137149D02*
X0229326Y0137149D01*
X0229326Y0134269D01*
X0228218Y0134269D01*
X0228218Y0134545D02*
X0229326Y0134545D01*
X0229326Y0134821D02*
X0228218Y0134821D01*
X0228218Y0135097D02*
X0229326Y0135097D01*
X0229326Y0135373D02*
X0228218Y0135373D01*
X0228218Y0135649D02*
X0229326Y0135649D01*
X0229326Y0135925D02*
X0228218Y0135925D01*
X0228218Y0136201D02*
X0229326Y0136201D01*
X0229326Y0136477D02*
X0228218Y0136477D01*
X0228218Y0136753D02*
X0229326Y0136753D01*
X0229326Y0137029D02*
X0228218Y0137029D01*
X0226250Y0137149D02*
X0226250Y0134269D01*
X0226250Y0137149D02*
X0227358Y0137149D01*
X0227358Y0134269D01*
X0226250Y0134269D01*
X0226250Y0134545D02*
X0227358Y0134545D01*
X0227358Y0134821D02*
X0226250Y0134821D01*
X0226250Y0135097D02*
X0227358Y0135097D01*
X0227358Y0135373D02*
X0226250Y0135373D01*
X0226250Y0135649D02*
X0227358Y0135649D01*
X0227358Y0135925D02*
X0226250Y0135925D01*
X0226250Y0136201D02*
X0227358Y0136201D01*
X0227358Y0136477D02*
X0226250Y0136477D01*
X0226250Y0136753D02*
X0227358Y0136753D01*
X0227358Y0137029D02*
X0226250Y0137029D01*
X0224281Y0137149D02*
X0224281Y0134269D01*
X0224281Y0137149D02*
X0225389Y0137149D01*
X0225389Y0134269D01*
X0224281Y0134269D01*
X0224281Y0134545D02*
X0225389Y0134545D01*
X0225389Y0134821D02*
X0224281Y0134821D01*
X0224281Y0135097D02*
X0225389Y0135097D01*
X0225389Y0135373D02*
X0224281Y0135373D01*
X0224281Y0135649D02*
X0225389Y0135649D01*
X0225389Y0135925D02*
X0224281Y0135925D01*
X0224281Y0136201D02*
X0225389Y0136201D01*
X0225389Y0136477D02*
X0224281Y0136477D01*
X0224281Y0136753D02*
X0225389Y0136753D01*
X0225389Y0137029D02*
X0224281Y0137029D01*
X0270640Y0140790D02*
X0273520Y0140790D01*
X0273520Y0139682D01*
X0270640Y0139682D01*
X0270640Y0140790D01*
X0270640Y0139958D02*
X0273520Y0139958D01*
X0273520Y0140234D02*
X0270640Y0140234D01*
X0270640Y0140510D02*
X0273520Y0140510D01*
X0273520Y0140786D02*
X0270640Y0140786D01*
X0270640Y0142759D02*
X0273520Y0142759D01*
X0273520Y0141651D01*
X0270640Y0141651D01*
X0270640Y0142759D01*
X0270640Y0141927D02*
X0273520Y0141927D01*
X0273520Y0142203D02*
X0270640Y0142203D01*
X0270640Y0142479D02*
X0273520Y0142479D01*
X0273520Y0142755D02*
X0270640Y0142755D01*
X0270640Y0144727D02*
X0273520Y0144727D01*
X0273520Y0143619D01*
X0270640Y0143619D01*
X0270640Y0144727D01*
X0270640Y0143895D02*
X0273520Y0143895D01*
X0273520Y0144171D02*
X0270640Y0144171D01*
X0270640Y0144447D02*
X0273520Y0144447D01*
X0273520Y0144723D02*
X0270640Y0144723D01*
X0270640Y0146696D02*
X0274700Y0146696D01*
X0274700Y0145588D01*
X0270640Y0145588D01*
X0270640Y0146696D01*
X0270640Y0145864D02*
X0274700Y0145864D01*
X0274700Y0146140D02*
X0270640Y0146140D01*
X0270640Y0146416D02*
X0274700Y0146416D01*
X0274700Y0146692D02*
X0270640Y0146692D01*
X0270640Y0148664D02*
X0273520Y0148664D01*
X0273520Y0147556D01*
X0270640Y0147556D01*
X0270640Y0148664D01*
X0270640Y0147832D02*
X0273520Y0147832D01*
X0273520Y0148108D02*
X0270640Y0148108D01*
X0270640Y0148384D02*
X0273520Y0148384D01*
X0273520Y0148660D02*
X0270640Y0148660D01*
X0270640Y0150633D02*
X0273520Y0150633D01*
X0273520Y0149525D01*
X0270640Y0149525D01*
X0270640Y0150633D01*
X0270640Y0149801D02*
X0273520Y0149801D01*
X0273520Y0150077D02*
X0270640Y0150077D01*
X0270640Y0150353D02*
X0273520Y0150353D01*
X0273520Y0150629D02*
X0270640Y0150629D01*
X0270640Y0152601D02*
X0273520Y0152601D01*
X0273520Y0151493D01*
X0270640Y0151493D01*
X0270640Y0152601D01*
X0270640Y0151769D02*
X0273520Y0151769D01*
X0273520Y0152045D02*
X0270640Y0152045D01*
X0270640Y0152321D02*
X0273520Y0152321D01*
X0273520Y0152597D02*
X0270640Y0152597D01*
X0270640Y0154570D02*
X0273520Y0154570D01*
X0273520Y0153462D01*
X0270640Y0153462D01*
X0270640Y0154570D01*
X0270640Y0153738D02*
X0273520Y0153738D01*
X0273520Y0154014D02*
X0270640Y0154014D01*
X0270640Y0154290D02*
X0273520Y0154290D01*
X0273520Y0154566D02*
X0270640Y0154566D01*
X0270640Y0156538D02*
X0273520Y0156538D01*
X0273520Y0155430D01*
X0270640Y0155430D01*
X0270640Y0156538D01*
X0270640Y0155706D02*
X0273520Y0155706D01*
X0273520Y0155982D02*
X0270640Y0155982D01*
X0270640Y0156258D02*
X0273520Y0156258D01*
X0273520Y0156534D02*
X0270640Y0156534D01*
X0275193Y0157103D02*
X0275193Y0159983D01*
X0275193Y0157103D02*
X0274085Y0157103D01*
X0274085Y0159983D01*
X0275193Y0159983D01*
X0275193Y0157379D02*
X0274085Y0157379D01*
X0274085Y0157655D02*
X0275193Y0157655D01*
X0275193Y0157931D02*
X0274085Y0157931D01*
X0274085Y0158207D02*
X0275193Y0158207D01*
X0275193Y0158483D02*
X0274085Y0158483D01*
X0274085Y0158759D02*
X0275193Y0158759D01*
X0275193Y0159035D02*
X0274085Y0159035D01*
X0274085Y0159311D02*
X0275193Y0159311D01*
X0275193Y0159587D02*
X0274085Y0159587D01*
X0274085Y0159863D02*
X0275193Y0159863D01*
X0277161Y0159983D02*
X0277161Y0157103D01*
X0276053Y0157103D01*
X0276053Y0159983D01*
X0277161Y0159983D01*
X0277161Y0157379D02*
X0276053Y0157379D01*
X0276053Y0157655D02*
X0277161Y0157655D01*
X0277161Y0157931D02*
X0276053Y0157931D01*
X0276053Y0158207D02*
X0277161Y0158207D01*
X0277161Y0158483D02*
X0276053Y0158483D01*
X0276053Y0158759D02*
X0277161Y0158759D01*
X0277161Y0159035D02*
X0276053Y0159035D01*
X0276053Y0159311D02*
X0277161Y0159311D01*
X0277161Y0159587D02*
X0276053Y0159587D01*
X0276053Y0159863D02*
X0277161Y0159863D01*
X0279130Y0159983D02*
X0279130Y0157103D01*
X0278022Y0157103D01*
X0278022Y0159983D01*
X0279130Y0159983D01*
X0279130Y0157379D02*
X0278022Y0157379D01*
X0278022Y0157655D02*
X0279130Y0157655D01*
X0279130Y0157931D02*
X0278022Y0157931D01*
X0278022Y0158207D02*
X0279130Y0158207D01*
X0279130Y0158483D02*
X0278022Y0158483D01*
X0278022Y0158759D02*
X0279130Y0158759D01*
X0279130Y0159035D02*
X0278022Y0159035D01*
X0278022Y0159311D02*
X0279130Y0159311D01*
X0279130Y0159587D02*
X0278022Y0159587D01*
X0278022Y0159863D02*
X0279130Y0159863D01*
X0281098Y0159983D02*
X0281098Y0157103D01*
X0279990Y0157103D01*
X0279990Y0159983D01*
X0281098Y0159983D01*
X0281098Y0157379D02*
X0279990Y0157379D01*
X0279990Y0157655D02*
X0281098Y0157655D01*
X0281098Y0157931D02*
X0279990Y0157931D01*
X0279990Y0158207D02*
X0281098Y0158207D01*
X0281098Y0158483D02*
X0279990Y0158483D01*
X0279990Y0158759D02*
X0281098Y0158759D01*
X0281098Y0159035D02*
X0279990Y0159035D01*
X0279990Y0159311D02*
X0281098Y0159311D01*
X0281098Y0159587D02*
X0279990Y0159587D01*
X0279990Y0159863D02*
X0281098Y0159863D01*
X0283067Y0159983D02*
X0283067Y0157103D01*
X0281959Y0157103D01*
X0281959Y0159983D01*
X0283067Y0159983D01*
X0283067Y0157379D02*
X0281959Y0157379D01*
X0281959Y0157655D02*
X0283067Y0157655D01*
X0283067Y0157931D02*
X0281959Y0157931D01*
X0281959Y0158207D02*
X0283067Y0158207D01*
X0283067Y0158483D02*
X0281959Y0158483D01*
X0281959Y0158759D02*
X0283067Y0158759D01*
X0283067Y0159035D02*
X0281959Y0159035D01*
X0281959Y0159311D02*
X0283067Y0159311D01*
X0283067Y0159587D02*
X0281959Y0159587D01*
X0281959Y0159863D02*
X0283067Y0159863D01*
X0285035Y0159983D02*
X0285035Y0157103D01*
X0283927Y0157103D01*
X0283927Y0159983D01*
X0285035Y0159983D01*
X0285035Y0157379D02*
X0283927Y0157379D01*
X0283927Y0157655D02*
X0285035Y0157655D01*
X0285035Y0157931D02*
X0283927Y0157931D01*
X0283927Y0158207D02*
X0285035Y0158207D01*
X0285035Y0158483D02*
X0283927Y0158483D01*
X0283927Y0158759D02*
X0285035Y0158759D01*
X0285035Y0159035D02*
X0283927Y0159035D01*
X0283927Y0159311D02*
X0285035Y0159311D01*
X0285035Y0159587D02*
X0283927Y0159587D01*
X0283927Y0159863D02*
X0285035Y0159863D01*
X0287004Y0159983D02*
X0287004Y0155923D01*
X0285896Y0155923D01*
X0285896Y0159983D01*
X0287004Y0159983D01*
X0287004Y0156199D02*
X0285896Y0156199D01*
X0285896Y0156475D02*
X0287004Y0156475D01*
X0287004Y0156751D02*
X0285896Y0156751D01*
X0285896Y0157027D02*
X0287004Y0157027D01*
X0287004Y0157303D02*
X0285896Y0157303D01*
X0285896Y0157579D02*
X0287004Y0157579D01*
X0287004Y0157855D02*
X0285896Y0157855D01*
X0285896Y0158131D02*
X0287004Y0158131D01*
X0287004Y0158407D02*
X0285896Y0158407D01*
X0285896Y0158683D02*
X0287004Y0158683D01*
X0287004Y0158959D02*
X0285896Y0158959D01*
X0285896Y0159235D02*
X0287004Y0159235D01*
X0287004Y0159511D02*
X0285896Y0159511D01*
X0285896Y0159787D02*
X0287004Y0159787D01*
X0288972Y0159983D02*
X0288972Y0157103D01*
X0287864Y0157103D01*
X0287864Y0159983D01*
X0288972Y0159983D01*
X0288972Y0157379D02*
X0287864Y0157379D01*
X0287864Y0157655D02*
X0288972Y0157655D01*
X0288972Y0157931D02*
X0287864Y0157931D01*
X0287864Y0158207D02*
X0288972Y0158207D01*
X0288972Y0158483D02*
X0287864Y0158483D01*
X0287864Y0158759D02*
X0288972Y0158759D01*
X0288972Y0159035D02*
X0287864Y0159035D01*
X0287864Y0159311D02*
X0288972Y0159311D01*
X0288972Y0159587D02*
X0287864Y0159587D01*
X0287864Y0159863D02*
X0288972Y0159863D01*
X0289537Y0155430D02*
X0292417Y0155430D01*
X0289537Y0155430D02*
X0289537Y0156538D01*
X0292417Y0156538D01*
X0292417Y0155430D01*
X0292417Y0155706D02*
X0289537Y0155706D01*
X0289537Y0155982D02*
X0292417Y0155982D01*
X0292417Y0156258D02*
X0289537Y0156258D01*
X0289537Y0156534D02*
X0292417Y0156534D01*
X0292417Y0153462D02*
X0289537Y0153462D01*
X0289537Y0154570D01*
X0292417Y0154570D01*
X0292417Y0153462D01*
X0292417Y0153738D02*
X0289537Y0153738D01*
X0289537Y0154014D02*
X0292417Y0154014D01*
X0292417Y0154290D02*
X0289537Y0154290D01*
X0289537Y0154566D02*
X0292417Y0154566D01*
X0292417Y0151493D02*
X0289537Y0151493D01*
X0289537Y0152601D01*
X0292417Y0152601D01*
X0292417Y0151493D01*
X0292417Y0151769D02*
X0289537Y0151769D01*
X0289537Y0152045D02*
X0292417Y0152045D01*
X0292417Y0152321D02*
X0289537Y0152321D01*
X0289537Y0152597D02*
X0292417Y0152597D01*
X0292417Y0149525D02*
X0289537Y0149525D01*
X0289537Y0150633D01*
X0292417Y0150633D01*
X0292417Y0149525D01*
X0292417Y0149801D02*
X0289537Y0149801D01*
X0289537Y0150077D02*
X0292417Y0150077D01*
X0292417Y0150353D02*
X0289537Y0150353D01*
X0289537Y0150629D02*
X0292417Y0150629D01*
X0292417Y0147556D02*
X0289537Y0147556D01*
X0289537Y0148664D01*
X0292417Y0148664D01*
X0292417Y0147556D01*
X0292417Y0147832D02*
X0289537Y0147832D01*
X0289537Y0148108D02*
X0292417Y0148108D01*
X0292417Y0148384D02*
X0289537Y0148384D01*
X0289537Y0148660D02*
X0292417Y0148660D01*
X0292417Y0145588D02*
X0289537Y0145588D01*
X0289537Y0146696D01*
X0292417Y0146696D01*
X0292417Y0145588D01*
X0292417Y0145864D02*
X0289537Y0145864D01*
X0289537Y0146140D02*
X0292417Y0146140D01*
X0292417Y0146416D02*
X0289537Y0146416D01*
X0289537Y0146692D02*
X0292417Y0146692D01*
X0292417Y0143619D02*
X0289537Y0143619D01*
X0289537Y0144727D01*
X0292417Y0144727D01*
X0292417Y0143619D01*
X0292417Y0143895D02*
X0289537Y0143895D01*
X0289537Y0144171D02*
X0292417Y0144171D01*
X0292417Y0144447D02*
X0289537Y0144447D01*
X0289537Y0144723D02*
X0292417Y0144723D01*
X0292417Y0141651D02*
X0289537Y0141651D01*
X0289537Y0142759D01*
X0292417Y0142759D01*
X0292417Y0141651D01*
X0292417Y0141927D02*
X0289537Y0141927D01*
X0289537Y0142203D02*
X0292417Y0142203D01*
X0292417Y0142479D02*
X0289537Y0142479D01*
X0289537Y0142755D02*
X0292417Y0142755D01*
X0292417Y0139682D02*
X0289537Y0139682D01*
X0289537Y0140790D01*
X0292417Y0140790D01*
X0292417Y0139682D01*
X0292417Y0139958D02*
X0289537Y0139958D01*
X0289537Y0140234D02*
X0292417Y0140234D01*
X0292417Y0140510D02*
X0289537Y0140510D01*
X0289537Y0140786D02*
X0292417Y0140786D01*
X0292417Y0137714D02*
X0289537Y0137714D01*
X0289537Y0138822D01*
X0292417Y0138822D01*
X0292417Y0137714D01*
X0292417Y0137990D02*
X0289537Y0137990D01*
X0289537Y0138266D02*
X0292417Y0138266D01*
X0292417Y0138542D02*
X0289537Y0138542D01*
X0289537Y0138818D02*
X0292417Y0138818D01*
X0287864Y0137149D02*
X0287864Y0134269D01*
X0287864Y0137149D02*
X0288972Y0137149D01*
X0288972Y0134269D01*
X0287864Y0134269D01*
X0287864Y0134545D02*
X0288972Y0134545D01*
X0288972Y0134821D02*
X0287864Y0134821D01*
X0287864Y0135097D02*
X0288972Y0135097D01*
X0288972Y0135373D02*
X0287864Y0135373D01*
X0287864Y0135649D02*
X0288972Y0135649D01*
X0288972Y0135925D02*
X0287864Y0135925D01*
X0287864Y0136201D02*
X0288972Y0136201D01*
X0288972Y0136477D02*
X0287864Y0136477D01*
X0287864Y0136753D02*
X0288972Y0136753D01*
X0288972Y0137029D02*
X0287864Y0137029D01*
X0285896Y0138329D02*
X0285896Y0134269D01*
X0285896Y0138329D02*
X0287004Y0138329D01*
X0287004Y0134269D01*
X0285896Y0134269D01*
X0285896Y0134545D02*
X0287004Y0134545D01*
X0287004Y0134821D02*
X0285896Y0134821D01*
X0285896Y0135097D02*
X0287004Y0135097D01*
X0287004Y0135373D02*
X0285896Y0135373D01*
X0285896Y0135649D02*
X0287004Y0135649D01*
X0287004Y0135925D02*
X0285896Y0135925D01*
X0285896Y0136201D02*
X0287004Y0136201D01*
X0287004Y0136477D02*
X0285896Y0136477D01*
X0285896Y0136753D02*
X0287004Y0136753D01*
X0287004Y0137029D02*
X0285896Y0137029D01*
X0285896Y0137305D02*
X0287004Y0137305D01*
X0287004Y0137581D02*
X0285896Y0137581D01*
X0285896Y0137857D02*
X0287004Y0137857D01*
X0287004Y0138133D02*
X0285896Y0138133D01*
X0283927Y0137149D02*
X0283927Y0134269D01*
X0283927Y0137149D02*
X0285035Y0137149D01*
X0285035Y0134269D01*
X0283927Y0134269D01*
X0283927Y0134545D02*
X0285035Y0134545D01*
X0285035Y0134821D02*
X0283927Y0134821D01*
X0283927Y0135097D02*
X0285035Y0135097D01*
X0285035Y0135373D02*
X0283927Y0135373D01*
X0283927Y0135649D02*
X0285035Y0135649D01*
X0285035Y0135925D02*
X0283927Y0135925D01*
X0283927Y0136201D02*
X0285035Y0136201D01*
X0285035Y0136477D02*
X0283927Y0136477D01*
X0283927Y0136753D02*
X0285035Y0136753D01*
X0285035Y0137029D02*
X0283927Y0137029D01*
X0281959Y0137149D02*
X0281959Y0134269D01*
X0281959Y0137149D02*
X0283067Y0137149D01*
X0283067Y0134269D01*
X0281959Y0134269D01*
X0281959Y0134545D02*
X0283067Y0134545D01*
X0283067Y0134821D02*
X0281959Y0134821D01*
X0281959Y0135097D02*
X0283067Y0135097D01*
X0283067Y0135373D02*
X0281959Y0135373D01*
X0281959Y0135649D02*
X0283067Y0135649D01*
X0283067Y0135925D02*
X0281959Y0135925D01*
X0281959Y0136201D02*
X0283067Y0136201D01*
X0283067Y0136477D02*
X0281959Y0136477D01*
X0281959Y0136753D02*
X0283067Y0136753D01*
X0283067Y0137029D02*
X0281959Y0137029D01*
X0279990Y0137149D02*
X0279990Y0134269D01*
X0279990Y0137149D02*
X0281098Y0137149D01*
X0281098Y0134269D01*
X0279990Y0134269D01*
X0279990Y0134545D02*
X0281098Y0134545D01*
X0281098Y0134821D02*
X0279990Y0134821D01*
X0279990Y0135097D02*
X0281098Y0135097D01*
X0281098Y0135373D02*
X0279990Y0135373D01*
X0279990Y0135649D02*
X0281098Y0135649D01*
X0281098Y0135925D02*
X0279990Y0135925D01*
X0279990Y0136201D02*
X0281098Y0136201D01*
X0281098Y0136477D02*
X0279990Y0136477D01*
X0279990Y0136753D02*
X0281098Y0136753D01*
X0281098Y0137029D02*
X0279990Y0137029D01*
X0278022Y0137149D02*
X0278022Y0134269D01*
X0278022Y0137149D02*
X0279130Y0137149D01*
X0279130Y0134269D01*
X0278022Y0134269D01*
X0278022Y0134545D02*
X0279130Y0134545D01*
X0279130Y0134821D02*
X0278022Y0134821D01*
X0278022Y0135097D02*
X0279130Y0135097D01*
X0279130Y0135373D02*
X0278022Y0135373D01*
X0278022Y0135649D02*
X0279130Y0135649D01*
X0279130Y0135925D02*
X0278022Y0135925D01*
X0278022Y0136201D02*
X0279130Y0136201D01*
X0279130Y0136477D02*
X0278022Y0136477D01*
X0278022Y0136753D02*
X0279130Y0136753D01*
X0279130Y0137029D02*
X0278022Y0137029D01*
X0276053Y0137149D02*
X0276053Y0134269D01*
X0276053Y0137149D02*
X0277161Y0137149D01*
X0277161Y0134269D01*
X0276053Y0134269D01*
X0276053Y0134545D02*
X0277161Y0134545D01*
X0277161Y0134821D02*
X0276053Y0134821D01*
X0276053Y0135097D02*
X0277161Y0135097D01*
X0277161Y0135373D02*
X0276053Y0135373D01*
X0276053Y0135649D02*
X0277161Y0135649D01*
X0277161Y0135925D02*
X0276053Y0135925D01*
X0276053Y0136201D02*
X0277161Y0136201D01*
X0277161Y0136477D02*
X0276053Y0136477D01*
X0276053Y0136753D02*
X0277161Y0136753D01*
X0277161Y0137029D02*
X0276053Y0137029D01*
X0274085Y0137149D02*
X0274085Y0134269D01*
X0274085Y0137149D02*
X0275193Y0137149D01*
X0275193Y0134269D01*
X0274085Y0134269D01*
X0274085Y0134545D02*
X0275193Y0134545D01*
X0275193Y0134821D02*
X0274085Y0134821D01*
X0274085Y0135097D02*
X0275193Y0135097D01*
X0275193Y0135373D02*
X0274085Y0135373D01*
X0274085Y0135649D02*
X0275193Y0135649D01*
X0275193Y0135925D02*
X0274085Y0135925D01*
X0274085Y0136201D02*
X0275193Y0136201D01*
X0275193Y0136477D02*
X0274085Y0136477D01*
X0274085Y0136753D02*
X0275193Y0136753D01*
X0275193Y0137029D02*
X0274085Y0137029D01*
X0322805Y0140790D02*
X0325685Y0140790D01*
X0325685Y0139682D01*
X0322805Y0139682D01*
X0322805Y0140790D01*
X0322805Y0139958D02*
X0325685Y0139958D01*
X0325685Y0140234D02*
X0322805Y0140234D01*
X0322805Y0140510D02*
X0325685Y0140510D01*
X0325685Y0140786D02*
X0322805Y0140786D01*
X0322805Y0142759D02*
X0325685Y0142759D01*
X0325685Y0141651D01*
X0322805Y0141651D01*
X0322805Y0142759D01*
X0322805Y0141927D02*
X0325685Y0141927D01*
X0325685Y0142203D02*
X0322805Y0142203D01*
X0322805Y0142479D02*
X0325685Y0142479D01*
X0325685Y0142755D02*
X0322805Y0142755D01*
X0322805Y0144727D02*
X0325685Y0144727D01*
X0325685Y0143619D01*
X0322805Y0143619D01*
X0322805Y0144727D01*
X0322805Y0143895D02*
X0325685Y0143895D01*
X0325685Y0144171D02*
X0322805Y0144171D01*
X0322805Y0144447D02*
X0325685Y0144447D01*
X0325685Y0144723D02*
X0322805Y0144723D01*
X0322805Y0146696D02*
X0326865Y0146696D01*
X0326865Y0145588D01*
X0322805Y0145588D01*
X0322805Y0146696D01*
X0322805Y0145864D02*
X0326865Y0145864D01*
X0326865Y0146140D02*
X0322805Y0146140D01*
X0322805Y0146416D02*
X0326865Y0146416D01*
X0326865Y0146692D02*
X0322805Y0146692D01*
X0322805Y0148664D02*
X0325685Y0148664D01*
X0325685Y0147556D01*
X0322805Y0147556D01*
X0322805Y0148664D01*
X0322805Y0147832D02*
X0325685Y0147832D01*
X0325685Y0148108D02*
X0322805Y0148108D01*
X0322805Y0148384D02*
X0325685Y0148384D01*
X0325685Y0148660D02*
X0322805Y0148660D01*
X0322805Y0150633D02*
X0325685Y0150633D01*
X0325685Y0149525D01*
X0322805Y0149525D01*
X0322805Y0150633D01*
X0322805Y0149801D02*
X0325685Y0149801D01*
X0325685Y0150077D02*
X0322805Y0150077D01*
X0322805Y0150353D02*
X0325685Y0150353D01*
X0325685Y0150629D02*
X0322805Y0150629D01*
X0322805Y0152601D02*
X0325685Y0152601D01*
X0325685Y0151493D01*
X0322805Y0151493D01*
X0322805Y0152601D01*
X0322805Y0151769D02*
X0325685Y0151769D01*
X0325685Y0152045D02*
X0322805Y0152045D01*
X0322805Y0152321D02*
X0325685Y0152321D01*
X0325685Y0152597D02*
X0322805Y0152597D01*
X0322805Y0154570D02*
X0325685Y0154570D01*
X0325685Y0153462D01*
X0322805Y0153462D01*
X0322805Y0154570D01*
X0322805Y0153738D02*
X0325685Y0153738D01*
X0325685Y0154014D02*
X0322805Y0154014D01*
X0322805Y0154290D02*
X0325685Y0154290D01*
X0325685Y0154566D02*
X0322805Y0154566D01*
X0322805Y0156538D02*
X0325685Y0156538D01*
X0325685Y0155430D01*
X0322805Y0155430D01*
X0322805Y0156538D01*
X0322805Y0155706D02*
X0325685Y0155706D01*
X0325685Y0155982D02*
X0322805Y0155982D01*
X0322805Y0156258D02*
X0325685Y0156258D01*
X0325685Y0156534D02*
X0322805Y0156534D01*
X0327358Y0157103D02*
X0327358Y0159983D01*
X0327358Y0157103D02*
X0326250Y0157103D01*
X0326250Y0159983D01*
X0327358Y0159983D01*
X0327358Y0157379D02*
X0326250Y0157379D01*
X0326250Y0157655D02*
X0327358Y0157655D01*
X0327358Y0157931D02*
X0326250Y0157931D01*
X0326250Y0158207D02*
X0327358Y0158207D01*
X0327358Y0158483D02*
X0326250Y0158483D01*
X0326250Y0158759D02*
X0327358Y0158759D01*
X0327358Y0159035D02*
X0326250Y0159035D01*
X0326250Y0159311D02*
X0327358Y0159311D01*
X0327358Y0159587D02*
X0326250Y0159587D01*
X0326250Y0159863D02*
X0327358Y0159863D01*
X0329326Y0159983D02*
X0329326Y0157103D01*
X0328218Y0157103D01*
X0328218Y0159983D01*
X0329326Y0159983D01*
X0329326Y0157379D02*
X0328218Y0157379D01*
X0328218Y0157655D02*
X0329326Y0157655D01*
X0329326Y0157931D02*
X0328218Y0157931D01*
X0328218Y0158207D02*
X0329326Y0158207D01*
X0329326Y0158483D02*
X0328218Y0158483D01*
X0328218Y0158759D02*
X0329326Y0158759D01*
X0329326Y0159035D02*
X0328218Y0159035D01*
X0328218Y0159311D02*
X0329326Y0159311D01*
X0329326Y0159587D02*
X0328218Y0159587D01*
X0328218Y0159863D02*
X0329326Y0159863D01*
X0331295Y0159983D02*
X0331295Y0157103D01*
X0330187Y0157103D01*
X0330187Y0159983D01*
X0331295Y0159983D01*
X0331295Y0157379D02*
X0330187Y0157379D01*
X0330187Y0157655D02*
X0331295Y0157655D01*
X0331295Y0157931D02*
X0330187Y0157931D01*
X0330187Y0158207D02*
X0331295Y0158207D01*
X0331295Y0158483D02*
X0330187Y0158483D01*
X0330187Y0158759D02*
X0331295Y0158759D01*
X0331295Y0159035D02*
X0330187Y0159035D01*
X0330187Y0159311D02*
X0331295Y0159311D01*
X0331295Y0159587D02*
X0330187Y0159587D01*
X0330187Y0159863D02*
X0331295Y0159863D01*
X0333263Y0159983D02*
X0333263Y0157103D01*
X0332155Y0157103D01*
X0332155Y0159983D01*
X0333263Y0159983D01*
X0333263Y0157379D02*
X0332155Y0157379D01*
X0332155Y0157655D02*
X0333263Y0157655D01*
X0333263Y0157931D02*
X0332155Y0157931D01*
X0332155Y0158207D02*
X0333263Y0158207D01*
X0333263Y0158483D02*
X0332155Y0158483D01*
X0332155Y0158759D02*
X0333263Y0158759D01*
X0333263Y0159035D02*
X0332155Y0159035D01*
X0332155Y0159311D02*
X0333263Y0159311D01*
X0333263Y0159587D02*
X0332155Y0159587D01*
X0332155Y0159863D02*
X0333263Y0159863D01*
X0335232Y0159983D02*
X0335232Y0157103D01*
X0334124Y0157103D01*
X0334124Y0159983D01*
X0335232Y0159983D01*
X0335232Y0157379D02*
X0334124Y0157379D01*
X0334124Y0157655D02*
X0335232Y0157655D01*
X0335232Y0157931D02*
X0334124Y0157931D01*
X0334124Y0158207D02*
X0335232Y0158207D01*
X0335232Y0158483D02*
X0334124Y0158483D01*
X0334124Y0158759D02*
X0335232Y0158759D01*
X0335232Y0159035D02*
X0334124Y0159035D01*
X0334124Y0159311D02*
X0335232Y0159311D01*
X0335232Y0159587D02*
X0334124Y0159587D01*
X0334124Y0159863D02*
X0335232Y0159863D01*
X0337200Y0159983D02*
X0337200Y0157103D01*
X0336092Y0157103D01*
X0336092Y0159983D01*
X0337200Y0159983D01*
X0337200Y0157379D02*
X0336092Y0157379D01*
X0336092Y0157655D02*
X0337200Y0157655D01*
X0337200Y0157931D02*
X0336092Y0157931D01*
X0336092Y0158207D02*
X0337200Y0158207D01*
X0337200Y0158483D02*
X0336092Y0158483D01*
X0336092Y0158759D02*
X0337200Y0158759D01*
X0337200Y0159035D02*
X0336092Y0159035D01*
X0336092Y0159311D02*
X0337200Y0159311D01*
X0337200Y0159587D02*
X0336092Y0159587D01*
X0336092Y0159863D02*
X0337200Y0159863D01*
X0339169Y0159983D02*
X0339169Y0155923D01*
X0338061Y0155923D01*
X0338061Y0159983D01*
X0339169Y0159983D01*
X0339169Y0156199D02*
X0338061Y0156199D01*
X0338061Y0156475D02*
X0339169Y0156475D01*
X0339169Y0156751D02*
X0338061Y0156751D01*
X0338061Y0157027D02*
X0339169Y0157027D01*
X0339169Y0157303D02*
X0338061Y0157303D01*
X0338061Y0157579D02*
X0339169Y0157579D01*
X0339169Y0157855D02*
X0338061Y0157855D01*
X0338061Y0158131D02*
X0339169Y0158131D01*
X0339169Y0158407D02*
X0338061Y0158407D01*
X0338061Y0158683D02*
X0339169Y0158683D01*
X0339169Y0158959D02*
X0338061Y0158959D01*
X0338061Y0159235D02*
X0339169Y0159235D01*
X0339169Y0159511D02*
X0338061Y0159511D01*
X0338061Y0159787D02*
X0339169Y0159787D01*
X0341137Y0159983D02*
X0341137Y0157103D01*
X0340029Y0157103D01*
X0340029Y0159983D01*
X0341137Y0159983D01*
X0341137Y0157379D02*
X0340029Y0157379D01*
X0340029Y0157655D02*
X0341137Y0157655D01*
X0341137Y0157931D02*
X0340029Y0157931D01*
X0340029Y0158207D02*
X0341137Y0158207D01*
X0341137Y0158483D02*
X0340029Y0158483D01*
X0340029Y0158759D02*
X0341137Y0158759D01*
X0341137Y0159035D02*
X0340029Y0159035D01*
X0340029Y0159311D02*
X0341137Y0159311D01*
X0341137Y0159587D02*
X0340029Y0159587D01*
X0340029Y0159863D02*
X0341137Y0159863D01*
X0341703Y0155430D02*
X0344583Y0155430D01*
X0341703Y0155430D02*
X0341703Y0156538D01*
X0344583Y0156538D01*
X0344583Y0155430D01*
X0344583Y0155706D02*
X0341703Y0155706D01*
X0341703Y0155982D02*
X0344583Y0155982D01*
X0344583Y0156258D02*
X0341703Y0156258D01*
X0341703Y0156534D02*
X0344583Y0156534D01*
X0344583Y0153462D02*
X0341703Y0153462D01*
X0341703Y0154570D01*
X0344583Y0154570D01*
X0344583Y0153462D01*
X0344583Y0153738D02*
X0341703Y0153738D01*
X0341703Y0154014D02*
X0344583Y0154014D01*
X0344583Y0154290D02*
X0341703Y0154290D01*
X0341703Y0154566D02*
X0344583Y0154566D01*
X0344583Y0151493D02*
X0341703Y0151493D01*
X0341703Y0152601D01*
X0344583Y0152601D01*
X0344583Y0151493D01*
X0344583Y0151769D02*
X0341703Y0151769D01*
X0341703Y0152045D02*
X0344583Y0152045D01*
X0344583Y0152321D02*
X0341703Y0152321D01*
X0341703Y0152597D02*
X0344583Y0152597D01*
X0344583Y0149525D02*
X0341703Y0149525D01*
X0341703Y0150633D01*
X0344583Y0150633D01*
X0344583Y0149525D01*
X0344583Y0149801D02*
X0341703Y0149801D01*
X0341703Y0150077D02*
X0344583Y0150077D01*
X0344583Y0150353D02*
X0341703Y0150353D01*
X0341703Y0150629D02*
X0344583Y0150629D01*
X0344583Y0147556D02*
X0341703Y0147556D01*
X0341703Y0148664D01*
X0344583Y0148664D01*
X0344583Y0147556D01*
X0344583Y0147832D02*
X0341703Y0147832D01*
X0341703Y0148108D02*
X0344583Y0148108D01*
X0344583Y0148384D02*
X0341703Y0148384D01*
X0341703Y0148660D02*
X0344583Y0148660D01*
X0344583Y0145588D02*
X0341703Y0145588D01*
X0341703Y0146696D01*
X0344583Y0146696D01*
X0344583Y0145588D01*
X0344583Y0145864D02*
X0341703Y0145864D01*
X0341703Y0146140D02*
X0344583Y0146140D01*
X0344583Y0146416D02*
X0341703Y0146416D01*
X0341703Y0146692D02*
X0344583Y0146692D01*
X0344583Y0143619D02*
X0341703Y0143619D01*
X0341703Y0144727D01*
X0344583Y0144727D01*
X0344583Y0143619D01*
X0344583Y0143895D02*
X0341703Y0143895D01*
X0341703Y0144171D02*
X0344583Y0144171D01*
X0344583Y0144447D02*
X0341703Y0144447D01*
X0341703Y0144723D02*
X0344583Y0144723D01*
X0344583Y0141651D02*
X0341703Y0141651D01*
X0341703Y0142759D01*
X0344583Y0142759D01*
X0344583Y0141651D01*
X0344583Y0141927D02*
X0341703Y0141927D01*
X0341703Y0142203D02*
X0344583Y0142203D01*
X0344583Y0142479D02*
X0341703Y0142479D01*
X0341703Y0142755D02*
X0344583Y0142755D01*
X0344583Y0139682D02*
X0341703Y0139682D01*
X0341703Y0140790D01*
X0344583Y0140790D01*
X0344583Y0139682D01*
X0344583Y0139958D02*
X0341703Y0139958D01*
X0341703Y0140234D02*
X0344583Y0140234D01*
X0344583Y0140510D02*
X0341703Y0140510D01*
X0341703Y0140786D02*
X0344583Y0140786D01*
X0344583Y0137714D02*
X0341703Y0137714D01*
X0341703Y0138822D01*
X0344583Y0138822D01*
X0344583Y0137714D01*
X0344583Y0137990D02*
X0341703Y0137990D01*
X0341703Y0138266D02*
X0344583Y0138266D01*
X0344583Y0138542D02*
X0341703Y0138542D01*
X0341703Y0138818D02*
X0344583Y0138818D01*
X0340029Y0137149D02*
X0340029Y0134269D01*
X0340029Y0137149D02*
X0341137Y0137149D01*
X0341137Y0134269D01*
X0340029Y0134269D01*
X0340029Y0134545D02*
X0341137Y0134545D01*
X0341137Y0134821D02*
X0340029Y0134821D01*
X0340029Y0135097D02*
X0341137Y0135097D01*
X0341137Y0135373D02*
X0340029Y0135373D01*
X0340029Y0135649D02*
X0341137Y0135649D01*
X0341137Y0135925D02*
X0340029Y0135925D01*
X0340029Y0136201D02*
X0341137Y0136201D01*
X0341137Y0136477D02*
X0340029Y0136477D01*
X0340029Y0136753D02*
X0341137Y0136753D01*
X0341137Y0137029D02*
X0340029Y0137029D01*
X0338061Y0138329D02*
X0338061Y0134269D01*
X0338061Y0138329D02*
X0339169Y0138329D01*
X0339169Y0134269D01*
X0338061Y0134269D01*
X0338061Y0134545D02*
X0339169Y0134545D01*
X0339169Y0134821D02*
X0338061Y0134821D01*
X0338061Y0135097D02*
X0339169Y0135097D01*
X0339169Y0135373D02*
X0338061Y0135373D01*
X0338061Y0135649D02*
X0339169Y0135649D01*
X0339169Y0135925D02*
X0338061Y0135925D01*
X0338061Y0136201D02*
X0339169Y0136201D01*
X0339169Y0136477D02*
X0338061Y0136477D01*
X0338061Y0136753D02*
X0339169Y0136753D01*
X0339169Y0137029D02*
X0338061Y0137029D01*
X0338061Y0137305D02*
X0339169Y0137305D01*
X0339169Y0137581D02*
X0338061Y0137581D01*
X0338061Y0137857D02*
X0339169Y0137857D01*
X0339169Y0138133D02*
X0338061Y0138133D01*
X0336092Y0137149D02*
X0336092Y0134269D01*
X0336092Y0137149D02*
X0337200Y0137149D01*
X0337200Y0134269D01*
X0336092Y0134269D01*
X0336092Y0134545D02*
X0337200Y0134545D01*
X0337200Y0134821D02*
X0336092Y0134821D01*
X0336092Y0135097D02*
X0337200Y0135097D01*
X0337200Y0135373D02*
X0336092Y0135373D01*
X0336092Y0135649D02*
X0337200Y0135649D01*
X0337200Y0135925D02*
X0336092Y0135925D01*
X0336092Y0136201D02*
X0337200Y0136201D01*
X0337200Y0136477D02*
X0336092Y0136477D01*
X0336092Y0136753D02*
X0337200Y0136753D01*
X0337200Y0137029D02*
X0336092Y0137029D01*
X0334124Y0137149D02*
X0334124Y0134269D01*
X0334124Y0137149D02*
X0335232Y0137149D01*
X0335232Y0134269D01*
X0334124Y0134269D01*
X0334124Y0134545D02*
X0335232Y0134545D01*
X0335232Y0134821D02*
X0334124Y0134821D01*
X0334124Y0135097D02*
X0335232Y0135097D01*
X0335232Y0135373D02*
X0334124Y0135373D01*
X0334124Y0135649D02*
X0335232Y0135649D01*
X0335232Y0135925D02*
X0334124Y0135925D01*
X0334124Y0136201D02*
X0335232Y0136201D01*
X0335232Y0136477D02*
X0334124Y0136477D01*
X0334124Y0136753D02*
X0335232Y0136753D01*
X0335232Y0137029D02*
X0334124Y0137029D01*
X0332155Y0137149D02*
X0332155Y0134269D01*
X0332155Y0137149D02*
X0333263Y0137149D01*
X0333263Y0134269D01*
X0332155Y0134269D01*
X0332155Y0134545D02*
X0333263Y0134545D01*
X0333263Y0134821D02*
X0332155Y0134821D01*
X0332155Y0135097D02*
X0333263Y0135097D01*
X0333263Y0135373D02*
X0332155Y0135373D01*
X0332155Y0135649D02*
X0333263Y0135649D01*
X0333263Y0135925D02*
X0332155Y0135925D01*
X0332155Y0136201D02*
X0333263Y0136201D01*
X0333263Y0136477D02*
X0332155Y0136477D01*
X0332155Y0136753D02*
X0333263Y0136753D01*
X0333263Y0137029D02*
X0332155Y0137029D01*
X0330187Y0137149D02*
X0330187Y0134269D01*
X0330187Y0137149D02*
X0331295Y0137149D01*
X0331295Y0134269D01*
X0330187Y0134269D01*
X0330187Y0134545D02*
X0331295Y0134545D01*
X0331295Y0134821D02*
X0330187Y0134821D01*
X0330187Y0135097D02*
X0331295Y0135097D01*
X0331295Y0135373D02*
X0330187Y0135373D01*
X0330187Y0135649D02*
X0331295Y0135649D01*
X0331295Y0135925D02*
X0330187Y0135925D01*
X0330187Y0136201D02*
X0331295Y0136201D01*
X0331295Y0136477D02*
X0330187Y0136477D01*
X0330187Y0136753D02*
X0331295Y0136753D01*
X0331295Y0137029D02*
X0330187Y0137029D01*
X0328218Y0137149D02*
X0328218Y0134269D01*
X0328218Y0137149D02*
X0329326Y0137149D01*
X0329326Y0134269D01*
X0328218Y0134269D01*
X0328218Y0134545D02*
X0329326Y0134545D01*
X0329326Y0134821D02*
X0328218Y0134821D01*
X0328218Y0135097D02*
X0329326Y0135097D01*
X0329326Y0135373D02*
X0328218Y0135373D01*
X0328218Y0135649D02*
X0329326Y0135649D01*
X0329326Y0135925D02*
X0328218Y0135925D01*
X0328218Y0136201D02*
X0329326Y0136201D01*
X0329326Y0136477D02*
X0328218Y0136477D01*
X0328218Y0136753D02*
X0329326Y0136753D01*
X0329326Y0137029D02*
X0328218Y0137029D01*
X0326250Y0137149D02*
X0326250Y0134269D01*
X0326250Y0137149D02*
X0327358Y0137149D01*
X0327358Y0134269D01*
X0326250Y0134269D01*
X0326250Y0134545D02*
X0327358Y0134545D01*
X0327358Y0134821D02*
X0326250Y0134821D01*
X0326250Y0135097D02*
X0327358Y0135097D01*
X0327358Y0135373D02*
X0326250Y0135373D01*
X0326250Y0135649D02*
X0327358Y0135649D01*
X0327358Y0135925D02*
X0326250Y0135925D01*
X0326250Y0136201D02*
X0327358Y0136201D01*
X0327358Y0136477D02*
X0326250Y0136477D01*
X0326250Y0136753D02*
X0327358Y0136753D01*
X0327358Y0137029D02*
X0326250Y0137029D01*
D36*
X0324245Y0138268D03*
X0272080Y0138268D03*
X0222276Y0138268D03*
X0168930Y0138071D03*
X0114402Y0138071D03*
D37*
X0120541Y0152207D02*
X0127161Y0152207D01*
X0127161Y0141651D01*
X0120541Y0141651D01*
X0120541Y0152207D01*
X0120541Y0143305D02*
X0127161Y0143305D01*
X0127161Y0144959D02*
X0120541Y0144959D01*
X0120541Y0146613D02*
X0127161Y0146613D01*
X0127161Y0148267D02*
X0120541Y0148267D01*
X0120541Y0149921D02*
X0127161Y0149921D01*
X0127161Y0151575D02*
X0120541Y0151575D01*
X0175069Y0152207D02*
X0181689Y0152207D01*
X0181689Y0141651D01*
X0175069Y0141651D01*
X0175069Y0152207D01*
X0175069Y0143305D02*
X0181689Y0143305D01*
X0181689Y0144959D02*
X0175069Y0144959D01*
X0175069Y0146613D02*
X0181689Y0146613D01*
X0181689Y0148267D02*
X0175069Y0148267D01*
X0175069Y0149921D02*
X0181689Y0149921D01*
X0181689Y0151575D02*
X0175069Y0151575D01*
X0228415Y0152404D02*
X0235035Y0152404D01*
X0235035Y0141848D01*
X0228415Y0141848D01*
X0228415Y0152404D01*
X0228415Y0143502D02*
X0235035Y0143502D01*
X0235035Y0145156D02*
X0228415Y0145156D01*
X0228415Y0146810D02*
X0235035Y0146810D01*
X0235035Y0148464D02*
X0228415Y0148464D01*
X0228415Y0150118D02*
X0235035Y0150118D01*
X0235035Y0151772D02*
X0228415Y0151772D01*
X0278218Y0152404D02*
X0284838Y0152404D01*
X0284838Y0141848D01*
X0278218Y0141848D01*
X0278218Y0152404D01*
X0278218Y0143502D02*
X0284838Y0143502D01*
X0284838Y0145156D02*
X0278218Y0145156D01*
X0278218Y0146810D02*
X0284838Y0146810D01*
X0284838Y0148464D02*
X0278218Y0148464D01*
X0278218Y0150118D02*
X0284838Y0150118D01*
X0284838Y0151772D02*
X0278218Y0151772D01*
X0330384Y0152404D02*
X0337004Y0152404D01*
X0337004Y0141848D01*
X0330384Y0141848D01*
X0330384Y0152404D01*
X0330384Y0143502D02*
X0337004Y0143502D01*
X0337004Y0145156D02*
X0330384Y0145156D01*
X0330384Y0146810D02*
X0337004Y0146810D01*
X0337004Y0148464D02*
X0330384Y0148464D01*
X0330384Y0150118D02*
X0337004Y0150118D01*
X0337004Y0151772D02*
X0330384Y0151772D01*
D38*
X0333694Y0147126D03*
X0281528Y0147126D03*
X0231725Y0147126D03*
X0178379Y0146929D03*
X0123851Y0146929D03*
D39*
X0143339Y0167402D03*
X0143339Y0169961D03*
X0143339Y0172520D03*
X0143339Y0176260D03*
X0143339Y0178819D03*
X0143339Y0181378D03*
X0150032Y0181378D03*
X0150032Y0176260D03*
X0150032Y0172520D03*
X0150032Y0167402D03*
X0199245Y0166811D03*
X0199245Y0169370D03*
X0199245Y0171929D03*
X0199245Y0176457D03*
X0199245Y0179016D03*
X0199245Y0181575D03*
X0205938Y0181575D03*
X0205938Y0176457D03*
X0205938Y0171929D03*
X0205938Y0166811D03*
X0249639Y0170354D03*
X0249639Y0172913D03*
X0249639Y0175472D03*
X0249245Y0179016D03*
X0249245Y0181575D03*
X0249245Y0184134D03*
X0255938Y0184134D03*
X0255938Y0179016D03*
X0256331Y0175472D03*
X0256331Y0170354D03*
X0301213Y0170945D03*
X0301213Y0173504D03*
X0301017Y0177244D03*
X0301017Y0179803D03*
X0301017Y0182362D03*
X0307709Y0182362D03*
X0307709Y0177244D03*
X0307906Y0173504D03*
X0307906Y0168386D03*
X0301213Y0168386D03*
X0352788Y0168386D03*
X0352788Y0170945D03*
X0352788Y0173504D03*
X0352788Y0177047D03*
X0352788Y0179606D03*
X0352788Y0182165D03*
X0359481Y0182165D03*
X0359481Y0177047D03*
X0359481Y0173504D03*
X0359481Y0168386D03*
M02*
