G75*
%MOIN*%
%OFA0B0*%
%FSLAX25Y25*%
%IPPOS*%
%LPD*%
%AMOC8*
5,1,8,0,0,1.08239X$1,22.5*
%
%ADD10R,0.01400X0.05800*%
%ADD11R,0.02756X0.03543*%
%ADD12R,0.05118X0.05906*%
%ADD13R,0.05906X0.05118*%
%ADD14R,0.03150X0.03150*%
%ADD15R,0.03543X0.02756*%
%ADD16R,0.07874X0.07874*%
%ADD17R,0.01181X0.03937*%
%ADD18R,0.06299X0.07087*%
%ADD19R,0.07087X0.29528*%
%ADD20R,0.02100X0.07800*%
%ADD21R,0.04331X0.01969*%
%ADD22R,0.13780X0.16929*%
%ADD23R,0.02200X0.07800*%
%ADD24R,0.01575X0.02756*%
%ADD25R,0.03937X0.05512*%
%ADD26R,0.03000X0.12800*%
%ADD27C,0.00197*%
%ADD28R,0.02756X0.00984*%
%ADD29C,0.01575*%
%ADD30R,0.02756X0.01575*%
D10*
X0115442Y0183657D03*
X0118042Y0183657D03*
X0120642Y0183657D03*
X0123142Y0183657D03*
X0125742Y0183657D03*
X0128242Y0183657D03*
X0130842Y0183657D03*
X0133442Y0183657D03*
X0133442Y0206657D03*
X0130842Y0206657D03*
X0128242Y0206657D03*
X0125742Y0206657D03*
X0123142Y0206657D03*
X0120642Y0206657D03*
X0118042Y0206657D03*
X0115442Y0206657D03*
X0116449Y0222634D03*
X0113949Y0222634D03*
X0111349Y0222634D03*
X0108749Y0222634D03*
X0106249Y0222634D03*
X0103649Y0222634D03*
X0101149Y0222634D03*
X0119049Y0222634D03*
X0121549Y0222634D03*
X0124149Y0222634D03*
X0126749Y0222634D03*
X0129249Y0222634D03*
X0131849Y0222634D03*
X0134349Y0222634D03*
X0134349Y0245634D03*
X0131849Y0245634D03*
X0129249Y0245634D03*
X0126749Y0245634D03*
X0124149Y0245634D03*
X0121549Y0245634D03*
X0119049Y0245634D03*
X0116449Y0245634D03*
X0113949Y0245634D03*
X0111349Y0245634D03*
X0108749Y0245634D03*
X0106249Y0245634D03*
X0103649Y0245634D03*
X0101149Y0245634D03*
X0168985Y0205870D03*
X0171585Y0205870D03*
X0174185Y0205870D03*
X0176685Y0205870D03*
X0179285Y0205870D03*
X0181785Y0205870D03*
X0184385Y0205870D03*
X0186985Y0205870D03*
X0186985Y0182870D03*
X0184385Y0182870D03*
X0181785Y0182870D03*
X0179285Y0182870D03*
X0176685Y0182870D03*
X0174185Y0182870D03*
X0171585Y0182870D03*
X0168985Y0182870D03*
X0222331Y0183854D03*
X0224931Y0183854D03*
X0227531Y0183854D03*
X0230031Y0183854D03*
X0232631Y0183854D03*
X0235131Y0183854D03*
X0237731Y0183854D03*
X0240331Y0183854D03*
X0240331Y0206854D03*
X0237731Y0206854D03*
X0235131Y0206854D03*
X0232631Y0206854D03*
X0230031Y0206854D03*
X0227531Y0206854D03*
X0224931Y0206854D03*
X0222331Y0206854D03*
X0272331Y0206657D03*
X0274931Y0206657D03*
X0277531Y0206657D03*
X0280031Y0206657D03*
X0282631Y0206657D03*
X0285131Y0206657D03*
X0287731Y0206657D03*
X0290331Y0206657D03*
X0290331Y0183657D03*
X0287731Y0183657D03*
X0285131Y0183657D03*
X0282631Y0183657D03*
X0280031Y0183657D03*
X0277531Y0183657D03*
X0274931Y0183657D03*
X0272331Y0183657D03*
X0324300Y0182476D03*
X0326900Y0182476D03*
X0329500Y0182476D03*
X0332000Y0182476D03*
X0334600Y0182476D03*
X0337100Y0182476D03*
X0339700Y0182476D03*
X0342300Y0182476D03*
X0342300Y0205476D03*
X0339700Y0205476D03*
X0337100Y0205476D03*
X0334600Y0205476D03*
X0332000Y0205476D03*
X0329500Y0205476D03*
X0326900Y0205476D03*
X0324300Y0205476D03*
D11*
X0054855Y0037776D03*
X0059973Y0037776D03*
X0068536Y0118878D03*
X0073654Y0118878D03*
X0104757Y0132165D03*
X0109875Y0132165D03*
X0112140Y0127858D03*
X0117258Y0127858D03*
X0109643Y0137776D03*
X0104525Y0137776D03*
X0103576Y0143386D03*
X0108694Y0143386D03*
X0108694Y0147717D03*
X0103576Y0147717D03*
X0106725Y0162283D03*
X0111843Y0162283D03*
X0106528Y0185118D03*
X0101410Y0185118D03*
X0101410Y0190236D03*
X0106528Y0190236D03*
X0129087Y0216299D03*
X0134206Y0216299D03*
X0158989Y0217008D03*
X0164107Y0217008D03*
X0162237Y0190433D03*
X0162237Y0185906D03*
X0157119Y0185906D03*
X0157119Y0190433D03*
X0149835Y0186693D03*
X0144717Y0186693D03*
X0156725Y0168386D03*
X0161843Y0168386D03*
X0162434Y0147717D03*
X0157316Y0147717D03*
X0157316Y0143386D03*
X0162434Y0143386D03*
X0164206Y0137776D03*
X0159087Y0137776D03*
X0160465Y0132165D03*
X0165583Y0132165D03*
X0166371Y0127835D03*
X0171489Y0127835D03*
X0213024Y0132165D03*
X0218143Y0132165D03*
X0219914Y0127835D03*
X0225032Y0127835D03*
X0217946Y0137776D03*
X0212828Y0137776D03*
X0211450Y0143386D03*
X0216568Y0143386D03*
X0216568Y0147717D03*
X0211450Y0147717D03*
X0211646Y0167205D03*
X0216765Y0167205D03*
X0216961Y0184134D03*
X0216961Y0188661D03*
X0211843Y0188661D03*
X0211843Y0184134D03*
X0205150Y0185709D03*
X0200032Y0185709D03*
X0250623Y0189055D03*
X0255741Y0189055D03*
X0261450Y0190433D03*
X0261450Y0186102D03*
X0266568Y0186102D03*
X0266568Y0190433D03*
X0267158Y0167598D03*
X0262040Y0167598D03*
X0261253Y0147717D03*
X0266371Y0147717D03*
X0266371Y0143386D03*
X0261253Y0143386D03*
X0262828Y0137874D03*
X0267946Y0137874D03*
X0268339Y0132362D03*
X0269127Y0127638D03*
X0263221Y0132362D03*
X0274245Y0127638D03*
X0314402Y0137874D03*
X0313418Y0143386D03*
X0318536Y0143386D03*
X0319520Y0137874D03*
X0321686Y0132165D03*
X0321686Y0127835D03*
X0326804Y0127835D03*
X0316568Y0132165D03*
X0318536Y0147717D03*
X0313418Y0147717D03*
X0315387Y0167205D03*
X0320505Y0167205D03*
X0319914Y0185512D03*
X0319914Y0190433D03*
X0314796Y0190433D03*
X0314796Y0185512D03*
X0306922Y0187283D03*
X0301804Y0187283D03*
X0353576Y0186693D03*
X0358694Y0186693D03*
X0425229Y0202638D03*
X0430347Y0202638D03*
X0396981Y0254114D03*
X0391863Y0254114D03*
X0391863Y0258543D03*
X0396981Y0258543D03*
X0377788Y0279606D03*
X0372670Y0279606D03*
X0345308Y0279606D03*
X0340190Y0279606D03*
X0313812Y0280197D03*
X0308694Y0280197D03*
X0280938Y0280984D03*
X0275820Y0280984D03*
X0248851Y0281772D03*
X0243733Y0281772D03*
X0217158Y0281575D03*
X0212040Y0281575D03*
X0322473Y0251654D03*
X0327591Y0251654D03*
X0327591Y0246732D03*
X0322473Y0246732D03*
X0081430Y0215728D03*
X0076312Y0215728D03*
X0071194Y0242894D03*
X0066076Y0242894D03*
X0066076Y0254213D03*
X0071194Y0254213D03*
X0070702Y0184823D03*
X0065583Y0184823D03*
X0066765Y0175079D03*
X0071883Y0175079D03*
D12*
X0125032Y0167500D03*
X0132513Y0167500D03*
X0179757Y0167303D03*
X0187237Y0167303D03*
X0233497Y0167500D03*
X0240977Y0167500D03*
X0282709Y0167500D03*
X0290190Y0167500D03*
X0334875Y0167500D03*
X0342355Y0167500D03*
X0320583Y0230827D03*
X0389776Y0238799D03*
D13*
X0334875Y0127638D03*
X0334875Y0120157D03*
X0282513Y0120157D03*
X0282513Y0127638D03*
X0233497Y0127638D03*
X0233497Y0120157D03*
X0179757Y0120157D03*
X0179757Y0127638D03*
X0125032Y0127638D03*
X0125032Y0120157D03*
D14*
X0073064Y0123799D03*
X0067158Y0123799D03*
X0065190Y0179902D03*
X0071095Y0179902D03*
X0071587Y0248307D03*
X0065682Y0248307D03*
X0309284Y0057756D03*
X0309284Y0051850D03*
X0336942Y0051161D03*
X0336942Y0057067D03*
X0365091Y0058839D03*
X0365091Y0052933D03*
X0392355Y0052933D03*
X0392355Y0058839D03*
X0436253Y0202638D03*
X0442158Y0202638D03*
X0073359Y0037677D03*
X0067454Y0037677D03*
D15*
X0062237Y0118878D03*
X0062237Y0123996D03*
X0073753Y0150866D03*
X0073753Y0155984D03*
X0077788Y0162382D03*
X0077788Y0167500D03*
X0059284Y0178819D03*
X0059284Y0183937D03*
X0101607Y0178031D03*
X0105938Y0178031D03*
X0105938Y0172913D03*
X0101607Y0172913D03*
X0118893Y0170666D03*
X0118893Y0165548D03*
X0137237Y0159921D03*
X0137237Y0154803D03*
X0152001Y0145354D03*
X0152001Y0140236D03*
X0155150Y0132559D03*
X0155150Y0127441D03*
X0193930Y0154803D03*
X0193930Y0159921D03*
X0205741Y0144764D03*
X0205741Y0139646D03*
X0207513Y0132165D03*
X0207513Y0127047D03*
X0245505Y0155394D03*
X0245505Y0160512D03*
X0227198Y0164843D03*
X0227198Y0169961D03*
X0216174Y0171732D03*
X0211843Y0171732D03*
X0211843Y0176850D03*
X0216174Y0176850D03*
X0216765Y0201654D03*
X0216765Y0206772D03*
X0240387Y0223307D03*
X0240387Y0228425D03*
X0222473Y0246437D03*
X0217650Y0246437D03*
X0212828Y0246240D03*
X0212828Y0251358D03*
X0217650Y0251555D03*
X0222473Y0251555D03*
X0201410Y0251457D03*
X0197080Y0251358D03*
X0192552Y0251358D03*
X0187237Y0251654D03*
X0182217Y0251555D03*
X0176312Y0251555D03*
X0176312Y0246437D03*
X0182217Y0246437D03*
X0187237Y0246535D03*
X0192552Y0246240D03*
X0197080Y0246240D03*
X0201410Y0246339D03*
X0169914Y0229213D03*
X0169914Y0224094D03*
X0163221Y0206378D03*
X0163221Y0201260D03*
X0161450Y0178031D03*
X0157119Y0178031D03*
X0157119Y0172913D03*
X0161450Y0172913D03*
X0173457Y0170551D03*
X0173457Y0165433D03*
X0109665Y0201239D03*
X0109665Y0206357D03*
X0059284Y0248209D03*
X0059284Y0253327D03*
X0093831Y0262579D03*
X0093831Y0267697D03*
X0099245Y0146535D03*
X0099245Y0141417D03*
X0099639Y0132362D03*
X0099639Y0127244D03*
X0257316Y0138858D03*
X0257316Y0143976D03*
X0258300Y0131969D03*
X0258300Y0126850D03*
X0296095Y0155000D03*
X0296095Y0160118D03*
X0309087Y0145945D03*
X0309087Y0140827D03*
X0310859Y0132165D03*
X0310859Y0127047D03*
X0348851Y0154016D03*
X0348851Y0159134D03*
X0328576Y0165236D03*
X0328576Y0170354D03*
X0319717Y0172913D03*
X0315387Y0172913D03*
X0315387Y0178031D03*
X0319717Y0178031D03*
X0318143Y0200472D03*
X0318143Y0205591D03*
X0318536Y0211890D03*
X0318536Y0217008D03*
X0310269Y0234331D03*
X0310269Y0239449D03*
X0312040Y0244764D03*
X0316371Y0244764D03*
X0316371Y0249882D03*
X0312040Y0249882D03*
X0287434Y0245748D03*
X0287434Y0240630D03*
X0289009Y0226850D03*
X0289009Y0221732D03*
X0265780Y0206181D03*
X0265780Y0201063D03*
X0263615Y0178425D03*
X0267946Y0178425D03*
X0267946Y0173307D03*
X0263615Y0173307D03*
X0276410Y0170157D03*
X0276410Y0165039D03*
X0371489Y0097913D03*
X0371489Y0092795D03*
X0373261Y0075669D03*
X0373261Y0070551D03*
X0360269Y0058839D03*
X0360269Y0053720D03*
X0387828Y0053720D03*
X0387828Y0058839D03*
X0395505Y0071732D03*
X0395505Y0076850D03*
X0395702Y0090827D03*
X0395702Y0095945D03*
X0332414Y0057067D03*
X0332414Y0051949D03*
X0305150Y0052638D03*
X0305150Y0057756D03*
X0387335Y0218976D03*
X0387335Y0224094D03*
X0379855Y0242106D03*
X0379855Y0247224D03*
X0381233Y0254311D03*
X0386056Y0254311D03*
X0386056Y0259429D03*
X0381233Y0259429D03*
D16*
X0405643Y0247224D03*
X0405643Y0231476D03*
X0336646Y0239055D03*
X0336646Y0223307D03*
X0082709Y0086102D03*
X0082709Y0070354D03*
X0062729Y0150669D03*
X0062729Y0166417D03*
X0063713Y0213858D03*
X0063713Y0229606D03*
X0063713Y0282756D03*
X0063713Y0298504D03*
D17*
X0316568Y0240433D03*
X0318536Y0240433D03*
X0320524Y0240433D03*
X0322473Y0240433D03*
X0324442Y0240433D03*
X0324442Y0221535D03*
X0322473Y0221535D03*
X0320524Y0221535D03*
X0318536Y0221535D03*
X0316568Y0221535D03*
X0385761Y0229508D03*
X0387729Y0229508D03*
X0389717Y0229508D03*
X0391666Y0229508D03*
X0393635Y0229508D03*
X0393635Y0248406D03*
X0391666Y0248406D03*
X0389717Y0248406D03*
X0387729Y0248406D03*
X0385761Y0248406D03*
D18*
X0394127Y0222520D03*
X0405150Y0222520D03*
X0419422Y0222618D03*
X0419324Y0214252D03*
X0430347Y0214252D03*
X0430446Y0222618D03*
X0364993Y0214646D03*
X0364993Y0206575D03*
X0353969Y0206575D03*
X0353969Y0214646D03*
X0335662Y0214646D03*
X0324639Y0214646D03*
D19*
X0350032Y0234724D03*
X0372080Y0234724D03*
X0418635Y0244173D03*
X0440682Y0244173D03*
D20*
X0164520Y0244228D03*
X0159520Y0244228D03*
X0154520Y0244228D03*
X0149520Y0244228D03*
X0149520Y0224828D03*
X0154520Y0224828D03*
X0159520Y0224828D03*
X0164520Y0224828D03*
D21*
X0077591Y0205118D03*
X0077591Y0200118D03*
X0077591Y0195118D03*
X0077591Y0190118D03*
X0054757Y0190118D03*
X0054757Y0195118D03*
X0054757Y0200118D03*
X0054757Y0205118D03*
X0055347Y0260492D03*
X0055347Y0265492D03*
X0055347Y0270492D03*
X0055347Y0275492D03*
X0078182Y0275492D03*
X0078182Y0270492D03*
X0078182Y0265492D03*
X0078182Y0260492D03*
X0077591Y0144094D03*
X0077591Y0139094D03*
X0077591Y0134094D03*
X0077591Y0129094D03*
X0054757Y0129094D03*
X0054757Y0134094D03*
X0054757Y0139094D03*
X0054757Y0144094D03*
D22*
X0063221Y0136594D03*
X0063221Y0197618D03*
X0063812Y0267992D03*
D23*
X0245918Y0242850D03*
X0250918Y0242850D03*
X0255918Y0242850D03*
X0260918Y0242850D03*
X0265918Y0242850D03*
X0270918Y0242850D03*
X0275918Y0242850D03*
X0280918Y0242850D03*
X0280918Y0223450D03*
X0275918Y0223450D03*
X0270918Y0223450D03*
X0265918Y0223450D03*
X0260918Y0223450D03*
X0255918Y0223450D03*
X0250918Y0223450D03*
X0245918Y0223450D03*
D24*
X0293339Y0220551D03*
X0295898Y0220551D03*
X0298457Y0220551D03*
X0298457Y0227244D03*
X0293339Y0227244D03*
X0292158Y0238465D03*
X0294717Y0238465D03*
X0297276Y0238465D03*
X0297276Y0245157D03*
X0292158Y0245157D03*
X0299048Y0200866D03*
X0301607Y0200866D03*
X0304166Y0200866D03*
X0304166Y0194173D03*
X0299048Y0194173D03*
X0144520Y0192598D03*
X0139402Y0192598D03*
X0139402Y0199291D03*
X0141961Y0199291D03*
X0144520Y0199291D03*
D25*
X0381725Y0099685D03*
X0377985Y0091024D03*
X0385465Y0091024D03*
X0381922Y0079803D03*
X0378182Y0071142D03*
X0385662Y0071142D03*
X0400820Y0071535D03*
X0408300Y0071535D03*
X0404560Y0080197D03*
X0401607Y0090630D03*
X0409087Y0090630D03*
X0405347Y0099291D03*
D26*
X0315583Y0100421D03*
X0315583Y0119421D03*
X0265190Y0119421D03*
X0265190Y0100421D03*
X0214009Y0100421D03*
X0214009Y0119421D03*
X0161450Y0119421D03*
X0161450Y0100421D03*
X0105938Y0100421D03*
X0105938Y0119421D03*
D27*
X0116567Y0134232D02*
X0116567Y0136792D01*
X0117355Y0136792D01*
X0117355Y0134232D01*
X0116567Y0134232D01*
X0116567Y0134428D02*
X0117355Y0134428D01*
X0117355Y0134624D02*
X0116567Y0134624D01*
X0116567Y0134820D02*
X0117355Y0134820D01*
X0117355Y0135016D02*
X0116567Y0135016D01*
X0116567Y0135212D02*
X0117355Y0135212D01*
X0117355Y0135408D02*
X0116567Y0135408D01*
X0116567Y0135604D02*
X0117355Y0135604D01*
X0117355Y0135800D02*
X0116567Y0135800D01*
X0116567Y0135996D02*
X0117355Y0135996D01*
X0117355Y0136192D02*
X0116567Y0136192D01*
X0116567Y0136388D02*
X0117355Y0136388D01*
X0117355Y0136584D02*
X0116567Y0136584D01*
X0116567Y0136780D02*
X0117355Y0136780D01*
X0118536Y0136792D02*
X0118536Y0134232D01*
X0118536Y0136792D02*
X0119324Y0136792D01*
X0119324Y0134232D01*
X0118536Y0134232D01*
X0118536Y0134428D02*
X0119324Y0134428D01*
X0119324Y0134624D02*
X0118536Y0134624D01*
X0118536Y0134820D02*
X0119324Y0134820D01*
X0119324Y0135016D02*
X0118536Y0135016D01*
X0118536Y0135212D02*
X0119324Y0135212D01*
X0119324Y0135408D02*
X0118536Y0135408D01*
X0118536Y0135604D02*
X0119324Y0135604D01*
X0119324Y0135800D02*
X0118536Y0135800D01*
X0118536Y0135996D02*
X0119324Y0135996D01*
X0119324Y0136192D02*
X0118536Y0136192D01*
X0118536Y0136388D02*
X0119324Y0136388D01*
X0119324Y0136584D02*
X0118536Y0136584D01*
X0118536Y0136780D02*
X0119324Y0136780D01*
X0120504Y0136792D02*
X0120504Y0134232D01*
X0120504Y0136792D02*
X0121292Y0136792D01*
X0121292Y0134232D01*
X0120504Y0134232D01*
X0120504Y0134428D02*
X0121292Y0134428D01*
X0121292Y0134624D02*
X0120504Y0134624D01*
X0120504Y0134820D02*
X0121292Y0134820D01*
X0121292Y0135016D02*
X0120504Y0135016D01*
X0120504Y0135212D02*
X0121292Y0135212D01*
X0121292Y0135408D02*
X0120504Y0135408D01*
X0120504Y0135604D02*
X0121292Y0135604D01*
X0121292Y0135800D02*
X0120504Y0135800D01*
X0120504Y0135996D02*
X0121292Y0135996D01*
X0121292Y0136192D02*
X0120504Y0136192D01*
X0120504Y0136388D02*
X0121292Y0136388D01*
X0121292Y0136584D02*
X0120504Y0136584D01*
X0120504Y0136780D02*
X0121292Y0136780D01*
X0122473Y0136792D02*
X0122473Y0134232D01*
X0122473Y0136792D02*
X0123261Y0136792D01*
X0123261Y0134232D01*
X0122473Y0134232D01*
X0122473Y0134428D02*
X0123261Y0134428D01*
X0123261Y0134624D02*
X0122473Y0134624D01*
X0122473Y0134820D02*
X0123261Y0134820D01*
X0123261Y0135016D02*
X0122473Y0135016D01*
X0122473Y0135212D02*
X0123261Y0135212D01*
X0123261Y0135408D02*
X0122473Y0135408D01*
X0122473Y0135604D02*
X0123261Y0135604D01*
X0123261Y0135800D02*
X0122473Y0135800D01*
X0122473Y0135996D02*
X0123261Y0135996D01*
X0123261Y0136192D02*
X0122473Y0136192D01*
X0122473Y0136388D02*
X0123261Y0136388D01*
X0123261Y0136584D02*
X0122473Y0136584D01*
X0122473Y0136780D02*
X0123261Y0136780D01*
X0124441Y0136792D02*
X0124441Y0134232D01*
X0124441Y0136792D02*
X0125229Y0136792D01*
X0125229Y0134232D01*
X0124441Y0134232D01*
X0124441Y0134428D02*
X0125229Y0134428D01*
X0125229Y0134624D02*
X0124441Y0134624D01*
X0124441Y0134820D02*
X0125229Y0134820D01*
X0125229Y0135016D02*
X0124441Y0135016D01*
X0124441Y0135212D02*
X0125229Y0135212D01*
X0125229Y0135408D02*
X0124441Y0135408D01*
X0124441Y0135604D02*
X0125229Y0135604D01*
X0125229Y0135800D02*
X0124441Y0135800D01*
X0124441Y0135996D02*
X0125229Y0135996D01*
X0125229Y0136192D02*
X0124441Y0136192D01*
X0124441Y0136388D02*
X0125229Y0136388D01*
X0125229Y0136584D02*
X0124441Y0136584D01*
X0124441Y0136780D02*
X0125229Y0136780D01*
X0126410Y0136792D02*
X0126410Y0134232D01*
X0126410Y0136792D02*
X0127198Y0136792D01*
X0127198Y0134232D01*
X0126410Y0134232D01*
X0126410Y0134428D02*
X0127198Y0134428D01*
X0127198Y0134624D02*
X0126410Y0134624D01*
X0126410Y0134820D02*
X0127198Y0134820D01*
X0127198Y0135016D02*
X0126410Y0135016D01*
X0126410Y0135212D02*
X0127198Y0135212D01*
X0127198Y0135408D02*
X0126410Y0135408D01*
X0126410Y0135604D02*
X0127198Y0135604D01*
X0127198Y0135800D02*
X0126410Y0135800D01*
X0126410Y0135996D02*
X0127198Y0135996D01*
X0127198Y0136192D02*
X0126410Y0136192D01*
X0126410Y0136388D02*
X0127198Y0136388D01*
X0127198Y0136584D02*
X0126410Y0136584D01*
X0126410Y0136780D02*
X0127198Y0136780D01*
X0128378Y0137972D02*
X0128378Y0134232D01*
X0128378Y0137972D02*
X0129166Y0137972D01*
X0129166Y0134232D01*
X0128378Y0134232D01*
X0128378Y0134428D02*
X0129166Y0134428D01*
X0129166Y0134624D02*
X0128378Y0134624D01*
X0128378Y0134820D02*
X0129166Y0134820D01*
X0129166Y0135016D02*
X0128378Y0135016D01*
X0128378Y0135212D02*
X0129166Y0135212D01*
X0129166Y0135408D02*
X0128378Y0135408D01*
X0128378Y0135604D02*
X0129166Y0135604D01*
X0129166Y0135800D02*
X0128378Y0135800D01*
X0128378Y0135996D02*
X0129166Y0135996D01*
X0129166Y0136192D02*
X0128378Y0136192D01*
X0128378Y0136388D02*
X0129166Y0136388D01*
X0129166Y0136584D02*
X0128378Y0136584D01*
X0128378Y0136780D02*
X0129166Y0136780D01*
X0129166Y0136976D02*
X0128378Y0136976D01*
X0128378Y0137172D02*
X0129166Y0137172D01*
X0129166Y0137368D02*
X0128378Y0137368D01*
X0128378Y0137564D02*
X0129166Y0137564D01*
X0129166Y0137760D02*
X0128378Y0137760D01*
X0128378Y0137956D02*
X0129166Y0137956D01*
X0130347Y0136792D02*
X0130347Y0134232D01*
X0130347Y0136792D02*
X0131135Y0136792D01*
X0131135Y0134232D01*
X0130347Y0134232D01*
X0130347Y0134428D02*
X0131135Y0134428D01*
X0131135Y0134624D02*
X0130347Y0134624D01*
X0130347Y0134820D02*
X0131135Y0134820D01*
X0131135Y0135016D02*
X0130347Y0135016D01*
X0130347Y0135212D02*
X0131135Y0135212D01*
X0131135Y0135408D02*
X0130347Y0135408D01*
X0130347Y0135604D02*
X0131135Y0135604D01*
X0131135Y0135800D02*
X0130347Y0135800D01*
X0130347Y0135996D02*
X0131135Y0135996D01*
X0131135Y0136192D02*
X0130347Y0136192D01*
X0130347Y0136388D02*
X0131135Y0136388D01*
X0131135Y0136584D02*
X0130347Y0136584D01*
X0130347Y0136780D02*
X0131135Y0136780D01*
X0132020Y0137677D02*
X0134580Y0137677D01*
X0132020Y0137677D02*
X0132020Y0138465D01*
X0134580Y0138465D01*
X0134580Y0137677D01*
X0134580Y0137873D02*
X0132020Y0137873D01*
X0132020Y0138069D02*
X0134580Y0138069D01*
X0134580Y0138265D02*
X0132020Y0138265D01*
X0132020Y0138461D02*
X0134580Y0138461D01*
X0134580Y0139645D02*
X0132020Y0139645D01*
X0132020Y0140433D01*
X0134580Y0140433D01*
X0134580Y0139645D01*
X0134580Y0139841D02*
X0132020Y0139841D01*
X0132020Y0140037D02*
X0134580Y0140037D01*
X0134580Y0140233D02*
X0132020Y0140233D01*
X0132020Y0140429D02*
X0134580Y0140429D01*
X0134580Y0141614D02*
X0132020Y0141614D01*
X0132020Y0142402D01*
X0134580Y0142402D01*
X0134580Y0141614D01*
X0134580Y0141810D02*
X0132020Y0141810D01*
X0132020Y0142006D02*
X0134580Y0142006D01*
X0134580Y0142202D02*
X0132020Y0142202D01*
X0132020Y0142398D02*
X0134580Y0142398D01*
X0134580Y0143582D02*
X0132020Y0143582D01*
X0132020Y0144370D01*
X0134580Y0144370D01*
X0134580Y0143582D01*
X0134580Y0143778D02*
X0132020Y0143778D01*
X0132020Y0143974D02*
X0134580Y0143974D01*
X0134580Y0144170D02*
X0132020Y0144170D01*
X0132020Y0144366D02*
X0134580Y0144366D01*
X0134580Y0145551D02*
X0132020Y0145551D01*
X0132020Y0146339D01*
X0134580Y0146339D01*
X0134580Y0145551D01*
X0134580Y0145747D02*
X0132020Y0145747D01*
X0132020Y0145943D02*
X0134580Y0145943D01*
X0134580Y0146139D02*
X0132020Y0146139D01*
X0132020Y0146335D02*
X0134580Y0146335D01*
X0134580Y0147519D02*
X0132020Y0147519D01*
X0132020Y0148307D01*
X0134580Y0148307D01*
X0134580Y0147519D01*
X0134580Y0147715D02*
X0132020Y0147715D01*
X0132020Y0147911D02*
X0134580Y0147911D01*
X0134580Y0148107D02*
X0132020Y0148107D01*
X0132020Y0148303D02*
X0134580Y0148303D01*
X0134580Y0149488D02*
X0132020Y0149488D01*
X0132020Y0150276D01*
X0134580Y0150276D01*
X0134580Y0149488D01*
X0134580Y0149684D02*
X0132020Y0149684D01*
X0132020Y0149880D02*
X0134580Y0149880D01*
X0134580Y0150076D02*
X0132020Y0150076D01*
X0132020Y0150272D02*
X0134580Y0150272D01*
X0134580Y0151456D02*
X0132020Y0151456D01*
X0132020Y0152244D01*
X0134580Y0152244D01*
X0134580Y0151456D01*
X0134580Y0151652D02*
X0132020Y0151652D01*
X0132020Y0151848D02*
X0134580Y0151848D01*
X0134580Y0152044D02*
X0132020Y0152044D01*
X0132020Y0152240D02*
X0134580Y0152240D01*
X0134580Y0153425D02*
X0132020Y0153425D01*
X0132020Y0154213D01*
X0134580Y0154213D01*
X0134580Y0153425D01*
X0134580Y0153621D02*
X0132020Y0153621D01*
X0132020Y0153817D02*
X0134580Y0153817D01*
X0134580Y0154013D02*
X0132020Y0154013D01*
X0132020Y0154209D02*
X0134580Y0154209D01*
X0134580Y0155393D02*
X0132020Y0155393D01*
X0132020Y0156181D01*
X0134580Y0156181D01*
X0134580Y0155393D01*
X0134580Y0155589D02*
X0132020Y0155589D01*
X0132020Y0155785D02*
X0134580Y0155785D01*
X0134580Y0155981D02*
X0132020Y0155981D01*
X0132020Y0156177D02*
X0134580Y0156177D01*
X0131135Y0157066D02*
X0131135Y0159626D01*
X0131135Y0157066D02*
X0130347Y0157066D01*
X0130347Y0159626D01*
X0131135Y0159626D01*
X0131135Y0157262D02*
X0130347Y0157262D01*
X0130347Y0157458D02*
X0131135Y0157458D01*
X0131135Y0157654D02*
X0130347Y0157654D01*
X0130347Y0157850D02*
X0131135Y0157850D01*
X0131135Y0158046D02*
X0130347Y0158046D01*
X0130347Y0158242D02*
X0131135Y0158242D01*
X0131135Y0158438D02*
X0130347Y0158438D01*
X0130347Y0158634D02*
X0131135Y0158634D01*
X0131135Y0158830D02*
X0130347Y0158830D01*
X0130347Y0159026D02*
X0131135Y0159026D01*
X0131135Y0159222D02*
X0130347Y0159222D01*
X0130347Y0159418D02*
X0131135Y0159418D01*
X0131135Y0159614D02*
X0130347Y0159614D01*
X0129166Y0159626D02*
X0129166Y0155886D01*
X0128378Y0155886D01*
X0128378Y0159626D01*
X0129166Y0159626D01*
X0129166Y0156082D02*
X0128378Y0156082D01*
X0128378Y0156278D02*
X0129166Y0156278D01*
X0129166Y0156474D02*
X0128378Y0156474D01*
X0128378Y0156670D02*
X0129166Y0156670D01*
X0129166Y0156866D02*
X0128378Y0156866D01*
X0128378Y0157062D02*
X0129166Y0157062D01*
X0129166Y0157258D02*
X0128378Y0157258D01*
X0128378Y0157454D02*
X0129166Y0157454D01*
X0129166Y0157650D02*
X0128378Y0157650D01*
X0128378Y0157846D02*
X0129166Y0157846D01*
X0129166Y0158042D02*
X0128378Y0158042D01*
X0128378Y0158238D02*
X0129166Y0158238D01*
X0129166Y0158434D02*
X0128378Y0158434D01*
X0128378Y0158630D02*
X0129166Y0158630D01*
X0129166Y0158826D02*
X0128378Y0158826D01*
X0128378Y0159022D02*
X0129166Y0159022D01*
X0129166Y0159218D02*
X0128378Y0159218D01*
X0128378Y0159414D02*
X0129166Y0159414D01*
X0129166Y0159610D02*
X0128378Y0159610D01*
X0127198Y0159626D02*
X0127198Y0157066D01*
X0126410Y0157066D01*
X0126410Y0159626D01*
X0127198Y0159626D01*
X0127198Y0157262D02*
X0126410Y0157262D01*
X0126410Y0157458D02*
X0127198Y0157458D01*
X0127198Y0157654D02*
X0126410Y0157654D01*
X0126410Y0157850D02*
X0127198Y0157850D01*
X0127198Y0158046D02*
X0126410Y0158046D01*
X0126410Y0158242D02*
X0127198Y0158242D01*
X0127198Y0158438D02*
X0126410Y0158438D01*
X0126410Y0158634D02*
X0127198Y0158634D01*
X0127198Y0158830D02*
X0126410Y0158830D01*
X0126410Y0159026D02*
X0127198Y0159026D01*
X0127198Y0159222D02*
X0126410Y0159222D01*
X0126410Y0159418D02*
X0127198Y0159418D01*
X0127198Y0159614D02*
X0126410Y0159614D01*
X0125229Y0159626D02*
X0125229Y0157066D01*
X0124441Y0157066D01*
X0124441Y0159626D01*
X0125229Y0159626D01*
X0125229Y0157262D02*
X0124441Y0157262D01*
X0124441Y0157458D02*
X0125229Y0157458D01*
X0125229Y0157654D02*
X0124441Y0157654D01*
X0124441Y0157850D02*
X0125229Y0157850D01*
X0125229Y0158046D02*
X0124441Y0158046D01*
X0124441Y0158242D02*
X0125229Y0158242D01*
X0125229Y0158438D02*
X0124441Y0158438D01*
X0124441Y0158634D02*
X0125229Y0158634D01*
X0125229Y0158830D02*
X0124441Y0158830D01*
X0124441Y0159026D02*
X0125229Y0159026D01*
X0125229Y0159222D02*
X0124441Y0159222D01*
X0124441Y0159418D02*
X0125229Y0159418D01*
X0125229Y0159614D02*
X0124441Y0159614D01*
X0123261Y0159626D02*
X0123261Y0157066D01*
X0122473Y0157066D01*
X0122473Y0159626D01*
X0123261Y0159626D01*
X0123261Y0157262D02*
X0122473Y0157262D01*
X0122473Y0157458D02*
X0123261Y0157458D01*
X0123261Y0157654D02*
X0122473Y0157654D01*
X0122473Y0157850D02*
X0123261Y0157850D01*
X0123261Y0158046D02*
X0122473Y0158046D01*
X0122473Y0158242D02*
X0123261Y0158242D01*
X0123261Y0158438D02*
X0122473Y0158438D01*
X0122473Y0158634D02*
X0123261Y0158634D01*
X0123261Y0158830D02*
X0122473Y0158830D01*
X0122473Y0159026D02*
X0123261Y0159026D01*
X0123261Y0159222D02*
X0122473Y0159222D01*
X0122473Y0159418D02*
X0123261Y0159418D01*
X0123261Y0159614D02*
X0122473Y0159614D01*
X0121292Y0159626D02*
X0121292Y0157066D01*
X0120504Y0157066D01*
X0120504Y0159626D01*
X0121292Y0159626D01*
X0121292Y0157262D02*
X0120504Y0157262D01*
X0120504Y0157458D02*
X0121292Y0157458D01*
X0121292Y0157654D02*
X0120504Y0157654D01*
X0120504Y0157850D02*
X0121292Y0157850D01*
X0121292Y0158046D02*
X0120504Y0158046D01*
X0120504Y0158242D02*
X0121292Y0158242D01*
X0121292Y0158438D02*
X0120504Y0158438D01*
X0120504Y0158634D02*
X0121292Y0158634D01*
X0121292Y0158830D02*
X0120504Y0158830D01*
X0120504Y0159026D02*
X0121292Y0159026D01*
X0121292Y0159222D02*
X0120504Y0159222D01*
X0120504Y0159418D02*
X0121292Y0159418D01*
X0121292Y0159614D02*
X0120504Y0159614D01*
X0119324Y0159626D02*
X0119324Y0157066D01*
X0118536Y0157066D01*
X0118536Y0159626D01*
X0119324Y0159626D01*
X0119324Y0157262D02*
X0118536Y0157262D01*
X0118536Y0157458D02*
X0119324Y0157458D01*
X0119324Y0157654D02*
X0118536Y0157654D01*
X0118536Y0157850D02*
X0119324Y0157850D01*
X0119324Y0158046D02*
X0118536Y0158046D01*
X0118536Y0158242D02*
X0119324Y0158242D01*
X0119324Y0158438D02*
X0118536Y0158438D01*
X0118536Y0158634D02*
X0119324Y0158634D01*
X0119324Y0158830D02*
X0118536Y0158830D01*
X0118536Y0159026D02*
X0119324Y0159026D01*
X0119324Y0159222D02*
X0118536Y0159222D01*
X0118536Y0159418D02*
X0119324Y0159418D01*
X0119324Y0159614D02*
X0118536Y0159614D01*
X0117355Y0159626D02*
X0117355Y0157066D01*
X0116567Y0157066D01*
X0116567Y0159626D01*
X0117355Y0159626D01*
X0117355Y0157262D02*
X0116567Y0157262D01*
X0116567Y0157458D02*
X0117355Y0157458D01*
X0117355Y0157654D02*
X0116567Y0157654D01*
X0116567Y0157850D02*
X0117355Y0157850D01*
X0117355Y0158046D02*
X0116567Y0158046D01*
X0116567Y0158242D02*
X0117355Y0158242D01*
X0117355Y0158438D02*
X0116567Y0158438D01*
X0116567Y0158634D02*
X0117355Y0158634D01*
X0117355Y0158830D02*
X0116567Y0158830D01*
X0116567Y0159026D02*
X0117355Y0159026D01*
X0117355Y0159222D02*
X0116567Y0159222D01*
X0116567Y0159418D02*
X0117355Y0159418D01*
X0117355Y0159614D02*
X0116567Y0159614D01*
X0115682Y0156181D02*
X0113122Y0156181D01*
X0115682Y0156181D02*
X0115682Y0155393D01*
X0113122Y0155393D01*
X0113122Y0156181D01*
X0113122Y0155589D02*
X0115682Y0155589D01*
X0115682Y0155785D02*
X0113122Y0155785D01*
X0113122Y0155981D02*
X0115682Y0155981D01*
X0115682Y0156177D02*
X0113122Y0156177D01*
X0113122Y0154213D02*
X0115682Y0154213D01*
X0115682Y0153425D01*
X0113122Y0153425D01*
X0113122Y0154213D01*
X0113122Y0153621D02*
X0115682Y0153621D01*
X0115682Y0153817D02*
X0113122Y0153817D01*
X0113122Y0154013D02*
X0115682Y0154013D01*
X0115682Y0154209D02*
X0113122Y0154209D01*
X0113122Y0152244D02*
X0115682Y0152244D01*
X0115682Y0151456D01*
X0113122Y0151456D01*
X0113122Y0152244D01*
X0113122Y0151652D02*
X0115682Y0151652D01*
X0115682Y0151848D02*
X0113122Y0151848D01*
X0113122Y0152044D02*
X0115682Y0152044D01*
X0115682Y0152240D02*
X0113122Y0152240D01*
X0113122Y0150276D02*
X0115682Y0150276D01*
X0115682Y0149488D01*
X0113122Y0149488D01*
X0113122Y0150276D01*
X0113122Y0149684D02*
X0115682Y0149684D01*
X0115682Y0149880D02*
X0113122Y0149880D01*
X0113122Y0150076D02*
X0115682Y0150076D01*
X0115682Y0150272D02*
X0113122Y0150272D01*
X0113122Y0148307D02*
X0115682Y0148307D01*
X0115682Y0147519D01*
X0113122Y0147519D01*
X0113122Y0148307D01*
X0113122Y0147715D02*
X0115682Y0147715D01*
X0115682Y0147911D02*
X0113122Y0147911D01*
X0113122Y0148107D02*
X0115682Y0148107D01*
X0115682Y0148303D02*
X0113122Y0148303D01*
X0113123Y0146339D02*
X0116863Y0146339D01*
X0116863Y0145551D01*
X0113123Y0145551D01*
X0113123Y0146339D01*
X0113123Y0145747D02*
X0116863Y0145747D01*
X0116863Y0145943D02*
X0113123Y0145943D01*
X0113123Y0146139D02*
X0116863Y0146139D01*
X0116863Y0146335D02*
X0113123Y0146335D01*
X0113122Y0144370D02*
X0115682Y0144370D01*
X0115682Y0143582D01*
X0113122Y0143582D01*
X0113122Y0144370D01*
X0113122Y0143778D02*
X0115682Y0143778D01*
X0115682Y0143974D02*
X0113122Y0143974D01*
X0113122Y0144170D02*
X0115682Y0144170D01*
X0115682Y0144366D02*
X0113122Y0144366D01*
X0113122Y0142402D02*
X0115682Y0142402D01*
X0115682Y0141614D01*
X0113122Y0141614D01*
X0113122Y0142402D01*
X0113122Y0141810D02*
X0115682Y0141810D01*
X0115682Y0142006D02*
X0113122Y0142006D01*
X0113122Y0142202D02*
X0115682Y0142202D01*
X0115682Y0142398D02*
X0113122Y0142398D01*
X0113122Y0140433D02*
X0115682Y0140433D01*
X0115682Y0139645D01*
X0113122Y0139645D01*
X0113122Y0140433D01*
X0113122Y0139841D02*
X0115682Y0139841D01*
X0115682Y0140037D02*
X0113122Y0140037D01*
X0113122Y0140233D02*
X0115682Y0140233D01*
X0115682Y0140429D02*
X0113122Y0140429D01*
X0167650Y0140433D02*
X0170210Y0140433D01*
X0170210Y0139645D01*
X0167650Y0139645D01*
X0167650Y0140433D01*
X0167650Y0139841D02*
X0170210Y0139841D01*
X0170210Y0140037D02*
X0167650Y0140037D01*
X0167650Y0140233D02*
X0170210Y0140233D01*
X0170210Y0140429D02*
X0167650Y0140429D01*
X0167650Y0142402D02*
X0170210Y0142402D01*
X0170210Y0141614D01*
X0167650Y0141614D01*
X0167650Y0142402D01*
X0167650Y0141810D02*
X0170210Y0141810D01*
X0170210Y0142006D02*
X0167650Y0142006D01*
X0167650Y0142202D02*
X0170210Y0142202D01*
X0170210Y0142398D02*
X0167650Y0142398D01*
X0167650Y0144370D02*
X0170210Y0144370D01*
X0170210Y0143582D01*
X0167650Y0143582D01*
X0167650Y0144370D01*
X0167650Y0143778D02*
X0170210Y0143778D01*
X0170210Y0143974D02*
X0167650Y0143974D01*
X0167650Y0144170D02*
X0170210Y0144170D01*
X0170210Y0144366D02*
X0167650Y0144366D01*
X0167650Y0146339D02*
X0171390Y0146339D01*
X0171390Y0145551D01*
X0167650Y0145551D01*
X0167650Y0146339D01*
X0167650Y0145747D02*
X0171390Y0145747D01*
X0171390Y0145943D02*
X0167650Y0145943D01*
X0167650Y0146139D02*
X0171390Y0146139D01*
X0171390Y0146335D02*
X0167650Y0146335D01*
X0167650Y0148307D02*
X0170210Y0148307D01*
X0170210Y0147519D01*
X0167650Y0147519D01*
X0167650Y0148307D01*
X0167650Y0147715D02*
X0170210Y0147715D01*
X0170210Y0147911D02*
X0167650Y0147911D01*
X0167650Y0148107D02*
X0170210Y0148107D01*
X0170210Y0148303D02*
X0167650Y0148303D01*
X0167650Y0150276D02*
X0170210Y0150276D01*
X0170210Y0149488D01*
X0167650Y0149488D01*
X0167650Y0150276D01*
X0167650Y0149684D02*
X0170210Y0149684D01*
X0170210Y0149880D02*
X0167650Y0149880D01*
X0167650Y0150076D02*
X0170210Y0150076D01*
X0170210Y0150272D02*
X0167650Y0150272D01*
X0167650Y0152244D02*
X0170210Y0152244D01*
X0170210Y0151456D01*
X0167650Y0151456D01*
X0167650Y0152244D01*
X0167650Y0151652D02*
X0170210Y0151652D01*
X0170210Y0151848D02*
X0167650Y0151848D01*
X0167650Y0152044D02*
X0170210Y0152044D01*
X0170210Y0152240D02*
X0167650Y0152240D01*
X0167650Y0154213D02*
X0170210Y0154213D01*
X0170210Y0153425D01*
X0167650Y0153425D01*
X0167650Y0154213D01*
X0167650Y0153621D02*
X0170210Y0153621D01*
X0170210Y0153817D02*
X0167650Y0153817D01*
X0167650Y0154013D02*
X0170210Y0154013D01*
X0170210Y0154209D02*
X0167650Y0154209D01*
X0167650Y0156181D02*
X0170210Y0156181D01*
X0170210Y0155393D01*
X0167650Y0155393D01*
X0167650Y0156181D01*
X0167650Y0155589D02*
X0170210Y0155589D01*
X0170210Y0155785D02*
X0167650Y0155785D01*
X0167650Y0155981D02*
X0170210Y0155981D01*
X0170210Y0156177D02*
X0167650Y0156177D01*
X0171883Y0157066D02*
X0171883Y0159626D01*
X0171883Y0157066D02*
X0171095Y0157066D01*
X0171095Y0159626D01*
X0171883Y0159626D01*
X0171883Y0157262D02*
X0171095Y0157262D01*
X0171095Y0157458D02*
X0171883Y0157458D01*
X0171883Y0157654D02*
X0171095Y0157654D01*
X0171095Y0157850D02*
X0171883Y0157850D01*
X0171883Y0158046D02*
X0171095Y0158046D01*
X0171095Y0158242D02*
X0171883Y0158242D01*
X0171883Y0158438D02*
X0171095Y0158438D01*
X0171095Y0158634D02*
X0171883Y0158634D01*
X0171883Y0158830D02*
X0171095Y0158830D01*
X0171095Y0159026D02*
X0171883Y0159026D01*
X0171883Y0159222D02*
X0171095Y0159222D01*
X0171095Y0159418D02*
X0171883Y0159418D01*
X0171883Y0159614D02*
X0171095Y0159614D01*
X0173851Y0159626D02*
X0173851Y0157066D01*
X0173063Y0157066D01*
X0173063Y0159626D01*
X0173851Y0159626D01*
X0173851Y0157262D02*
X0173063Y0157262D01*
X0173063Y0157458D02*
X0173851Y0157458D01*
X0173851Y0157654D02*
X0173063Y0157654D01*
X0173063Y0157850D02*
X0173851Y0157850D01*
X0173851Y0158046D02*
X0173063Y0158046D01*
X0173063Y0158242D02*
X0173851Y0158242D01*
X0173851Y0158438D02*
X0173063Y0158438D01*
X0173063Y0158634D02*
X0173851Y0158634D01*
X0173851Y0158830D02*
X0173063Y0158830D01*
X0173063Y0159026D02*
X0173851Y0159026D01*
X0173851Y0159222D02*
X0173063Y0159222D01*
X0173063Y0159418D02*
X0173851Y0159418D01*
X0173851Y0159614D02*
X0173063Y0159614D01*
X0175820Y0159626D02*
X0175820Y0157066D01*
X0175032Y0157066D01*
X0175032Y0159626D01*
X0175820Y0159626D01*
X0175820Y0157262D02*
X0175032Y0157262D01*
X0175032Y0157458D02*
X0175820Y0157458D01*
X0175820Y0157654D02*
X0175032Y0157654D01*
X0175032Y0157850D02*
X0175820Y0157850D01*
X0175820Y0158046D02*
X0175032Y0158046D01*
X0175032Y0158242D02*
X0175820Y0158242D01*
X0175820Y0158438D02*
X0175032Y0158438D01*
X0175032Y0158634D02*
X0175820Y0158634D01*
X0175820Y0158830D02*
X0175032Y0158830D01*
X0175032Y0159026D02*
X0175820Y0159026D01*
X0175820Y0159222D02*
X0175032Y0159222D01*
X0175032Y0159418D02*
X0175820Y0159418D01*
X0175820Y0159614D02*
X0175032Y0159614D01*
X0177788Y0159626D02*
X0177788Y0157066D01*
X0177000Y0157066D01*
X0177000Y0159626D01*
X0177788Y0159626D01*
X0177788Y0157262D02*
X0177000Y0157262D01*
X0177000Y0157458D02*
X0177788Y0157458D01*
X0177788Y0157654D02*
X0177000Y0157654D01*
X0177000Y0157850D02*
X0177788Y0157850D01*
X0177788Y0158046D02*
X0177000Y0158046D01*
X0177000Y0158242D02*
X0177788Y0158242D01*
X0177788Y0158438D02*
X0177000Y0158438D01*
X0177000Y0158634D02*
X0177788Y0158634D01*
X0177788Y0158830D02*
X0177000Y0158830D01*
X0177000Y0159026D02*
X0177788Y0159026D01*
X0177788Y0159222D02*
X0177000Y0159222D01*
X0177000Y0159418D02*
X0177788Y0159418D01*
X0177788Y0159614D02*
X0177000Y0159614D01*
X0179757Y0159626D02*
X0179757Y0157066D01*
X0178969Y0157066D01*
X0178969Y0159626D01*
X0179757Y0159626D01*
X0179757Y0157262D02*
X0178969Y0157262D01*
X0178969Y0157458D02*
X0179757Y0157458D01*
X0179757Y0157654D02*
X0178969Y0157654D01*
X0178969Y0157850D02*
X0179757Y0157850D01*
X0179757Y0158046D02*
X0178969Y0158046D01*
X0178969Y0158242D02*
X0179757Y0158242D01*
X0179757Y0158438D02*
X0178969Y0158438D01*
X0178969Y0158634D02*
X0179757Y0158634D01*
X0179757Y0158830D02*
X0178969Y0158830D01*
X0178969Y0159026D02*
X0179757Y0159026D01*
X0179757Y0159222D02*
X0178969Y0159222D01*
X0178969Y0159418D02*
X0179757Y0159418D01*
X0179757Y0159614D02*
X0178969Y0159614D01*
X0181725Y0159626D02*
X0181725Y0157066D01*
X0180937Y0157066D01*
X0180937Y0159626D01*
X0181725Y0159626D01*
X0181725Y0157262D02*
X0180937Y0157262D01*
X0180937Y0157458D02*
X0181725Y0157458D01*
X0181725Y0157654D02*
X0180937Y0157654D01*
X0180937Y0157850D02*
X0181725Y0157850D01*
X0181725Y0158046D02*
X0180937Y0158046D01*
X0180937Y0158242D02*
X0181725Y0158242D01*
X0181725Y0158438D02*
X0180937Y0158438D01*
X0180937Y0158634D02*
X0181725Y0158634D01*
X0181725Y0158830D02*
X0180937Y0158830D01*
X0180937Y0159026D02*
X0181725Y0159026D01*
X0181725Y0159222D02*
X0180937Y0159222D01*
X0180937Y0159418D02*
X0181725Y0159418D01*
X0181725Y0159614D02*
X0180937Y0159614D01*
X0183694Y0159626D02*
X0183694Y0155886D01*
X0182906Y0155886D01*
X0182906Y0159626D01*
X0183694Y0159626D01*
X0183694Y0156082D02*
X0182906Y0156082D01*
X0182906Y0156278D02*
X0183694Y0156278D01*
X0183694Y0156474D02*
X0182906Y0156474D01*
X0182906Y0156670D02*
X0183694Y0156670D01*
X0183694Y0156866D02*
X0182906Y0156866D01*
X0182906Y0157062D02*
X0183694Y0157062D01*
X0183694Y0157258D02*
X0182906Y0157258D01*
X0182906Y0157454D02*
X0183694Y0157454D01*
X0183694Y0157650D02*
X0182906Y0157650D01*
X0182906Y0157846D02*
X0183694Y0157846D01*
X0183694Y0158042D02*
X0182906Y0158042D01*
X0182906Y0158238D02*
X0183694Y0158238D01*
X0183694Y0158434D02*
X0182906Y0158434D01*
X0182906Y0158630D02*
X0183694Y0158630D01*
X0183694Y0158826D02*
X0182906Y0158826D01*
X0182906Y0159022D02*
X0183694Y0159022D01*
X0183694Y0159218D02*
X0182906Y0159218D01*
X0182906Y0159414D02*
X0183694Y0159414D01*
X0183694Y0159610D02*
X0182906Y0159610D01*
X0185663Y0159626D02*
X0185663Y0157066D01*
X0184875Y0157066D01*
X0184875Y0159626D01*
X0185663Y0159626D01*
X0185663Y0157262D02*
X0184875Y0157262D01*
X0184875Y0157458D02*
X0185663Y0157458D01*
X0185663Y0157654D02*
X0184875Y0157654D01*
X0184875Y0157850D02*
X0185663Y0157850D01*
X0185663Y0158046D02*
X0184875Y0158046D01*
X0184875Y0158242D02*
X0185663Y0158242D01*
X0185663Y0158438D02*
X0184875Y0158438D01*
X0184875Y0158634D02*
X0185663Y0158634D01*
X0185663Y0158830D02*
X0184875Y0158830D01*
X0184875Y0159026D02*
X0185663Y0159026D01*
X0185663Y0159222D02*
X0184875Y0159222D01*
X0184875Y0159418D02*
X0185663Y0159418D01*
X0185663Y0159614D02*
X0184875Y0159614D01*
X0186548Y0155393D02*
X0189108Y0155393D01*
X0186548Y0155393D02*
X0186548Y0156181D01*
X0189108Y0156181D01*
X0189108Y0155393D01*
X0189108Y0155589D02*
X0186548Y0155589D01*
X0186548Y0155785D02*
X0189108Y0155785D01*
X0189108Y0155981D02*
X0186548Y0155981D01*
X0186548Y0156177D02*
X0189108Y0156177D01*
X0189108Y0153425D02*
X0186548Y0153425D01*
X0186548Y0154213D01*
X0189108Y0154213D01*
X0189108Y0153425D01*
X0189108Y0153621D02*
X0186548Y0153621D01*
X0186548Y0153817D02*
X0189108Y0153817D01*
X0189108Y0154013D02*
X0186548Y0154013D01*
X0186548Y0154209D02*
X0189108Y0154209D01*
X0189108Y0151456D02*
X0186548Y0151456D01*
X0186548Y0152244D01*
X0189108Y0152244D01*
X0189108Y0151456D01*
X0189108Y0151652D02*
X0186548Y0151652D01*
X0186548Y0151848D02*
X0189108Y0151848D01*
X0189108Y0152044D02*
X0186548Y0152044D01*
X0186548Y0152240D02*
X0189108Y0152240D01*
X0189108Y0149488D02*
X0186548Y0149488D01*
X0186548Y0150276D01*
X0189108Y0150276D01*
X0189108Y0149488D01*
X0189108Y0149684D02*
X0186548Y0149684D01*
X0186548Y0149880D02*
X0189108Y0149880D01*
X0189108Y0150076D02*
X0186548Y0150076D01*
X0186548Y0150272D02*
X0189108Y0150272D01*
X0189108Y0147519D02*
X0186548Y0147519D01*
X0186548Y0148307D01*
X0189108Y0148307D01*
X0189108Y0147519D01*
X0189108Y0147715D02*
X0186548Y0147715D01*
X0186548Y0147911D02*
X0189108Y0147911D01*
X0189108Y0148107D02*
X0186548Y0148107D01*
X0186548Y0148303D02*
X0189108Y0148303D01*
X0189108Y0145551D02*
X0186548Y0145551D01*
X0186548Y0146339D01*
X0189108Y0146339D01*
X0189108Y0145551D01*
X0189108Y0145747D02*
X0186548Y0145747D01*
X0186548Y0145943D02*
X0189108Y0145943D01*
X0189108Y0146139D02*
X0186548Y0146139D01*
X0186548Y0146335D02*
X0189108Y0146335D01*
X0189108Y0143582D02*
X0186548Y0143582D01*
X0186548Y0144370D01*
X0189108Y0144370D01*
X0189108Y0143582D01*
X0189108Y0143778D02*
X0186548Y0143778D01*
X0186548Y0143974D02*
X0189108Y0143974D01*
X0189108Y0144170D02*
X0186548Y0144170D01*
X0186548Y0144366D02*
X0189108Y0144366D01*
X0189108Y0141614D02*
X0186548Y0141614D01*
X0186548Y0142402D01*
X0189108Y0142402D01*
X0189108Y0141614D01*
X0189108Y0141810D02*
X0186548Y0141810D01*
X0186548Y0142006D02*
X0189108Y0142006D01*
X0189108Y0142202D02*
X0186548Y0142202D01*
X0186548Y0142398D02*
X0189108Y0142398D01*
X0189108Y0139645D02*
X0186548Y0139645D01*
X0186548Y0140433D01*
X0189108Y0140433D01*
X0189108Y0139645D01*
X0189108Y0139841D02*
X0186548Y0139841D01*
X0186548Y0140037D02*
X0189108Y0140037D01*
X0189108Y0140233D02*
X0186548Y0140233D01*
X0186548Y0140429D02*
X0189108Y0140429D01*
X0189108Y0137677D02*
X0186548Y0137677D01*
X0186548Y0138465D01*
X0189108Y0138465D01*
X0189108Y0137677D01*
X0189108Y0137873D02*
X0186548Y0137873D01*
X0186548Y0138069D02*
X0189108Y0138069D01*
X0189108Y0138265D02*
X0186548Y0138265D01*
X0186548Y0138461D02*
X0189108Y0138461D01*
X0184875Y0136792D02*
X0184875Y0134232D01*
X0184875Y0136792D02*
X0185663Y0136792D01*
X0185663Y0134232D01*
X0184875Y0134232D01*
X0184875Y0134428D02*
X0185663Y0134428D01*
X0185663Y0134624D02*
X0184875Y0134624D01*
X0184875Y0134820D02*
X0185663Y0134820D01*
X0185663Y0135016D02*
X0184875Y0135016D01*
X0184875Y0135212D02*
X0185663Y0135212D01*
X0185663Y0135408D02*
X0184875Y0135408D01*
X0184875Y0135604D02*
X0185663Y0135604D01*
X0185663Y0135800D02*
X0184875Y0135800D01*
X0184875Y0135996D02*
X0185663Y0135996D01*
X0185663Y0136192D02*
X0184875Y0136192D01*
X0184875Y0136388D02*
X0185663Y0136388D01*
X0185663Y0136584D02*
X0184875Y0136584D01*
X0184875Y0136780D02*
X0185663Y0136780D01*
X0182906Y0137972D02*
X0182906Y0134232D01*
X0182906Y0137972D02*
X0183694Y0137972D01*
X0183694Y0134232D01*
X0182906Y0134232D01*
X0182906Y0134428D02*
X0183694Y0134428D01*
X0183694Y0134624D02*
X0182906Y0134624D01*
X0182906Y0134820D02*
X0183694Y0134820D01*
X0183694Y0135016D02*
X0182906Y0135016D01*
X0182906Y0135212D02*
X0183694Y0135212D01*
X0183694Y0135408D02*
X0182906Y0135408D01*
X0182906Y0135604D02*
X0183694Y0135604D01*
X0183694Y0135800D02*
X0182906Y0135800D01*
X0182906Y0135996D02*
X0183694Y0135996D01*
X0183694Y0136192D02*
X0182906Y0136192D01*
X0182906Y0136388D02*
X0183694Y0136388D01*
X0183694Y0136584D02*
X0182906Y0136584D01*
X0182906Y0136780D02*
X0183694Y0136780D01*
X0183694Y0136976D02*
X0182906Y0136976D01*
X0182906Y0137172D02*
X0183694Y0137172D01*
X0183694Y0137368D02*
X0182906Y0137368D01*
X0182906Y0137564D02*
X0183694Y0137564D01*
X0183694Y0137760D02*
X0182906Y0137760D01*
X0182906Y0137956D02*
X0183694Y0137956D01*
X0180937Y0136792D02*
X0180937Y0134232D01*
X0180937Y0136792D02*
X0181725Y0136792D01*
X0181725Y0134232D01*
X0180937Y0134232D01*
X0180937Y0134428D02*
X0181725Y0134428D01*
X0181725Y0134624D02*
X0180937Y0134624D01*
X0180937Y0134820D02*
X0181725Y0134820D01*
X0181725Y0135016D02*
X0180937Y0135016D01*
X0180937Y0135212D02*
X0181725Y0135212D01*
X0181725Y0135408D02*
X0180937Y0135408D01*
X0180937Y0135604D02*
X0181725Y0135604D01*
X0181725Y0135800D02*
X0180937Y0135800D01*
X0180937Y0135996D02*
X0181725Y0135996D01*
X0181725Y0136192D02*
X0180937Y0136192D01*
X0180937Y0136388D02*
X0181725Y0136388D01*
X0181725Y0136584D02*
X0180937Y0136584D01*
X0180937Y0136780D02*
X0181725Y0136780D01*
X0178969Y0136792D02*
X0178969Y0134232D01*
X0178969Y0136792D02*
X0179757Y0136792D01*
X0179757Y0134232D01*
X0178969Y0134232D01*
X0178969Y0134428D02*
X0179757Y0134428D01*
X0179757Y0134624D02*
X0178969Y0134624D01*
X0178969Y0134820D02*
X0179757Y0134820D01*
X0179757Y0135016D02*
X0178969Y0135016D01*
X0178969Y0135212D02*
X0179757Y0135212D01*
X0179757Y0135408D02*
X0178969Y0135408D01*
X0178969Y0135604D02*
X0179757Y0135604D01*
X0179757Y0135800D02*
X0178969Y0135800D01*
X0178969Y0135996D02*
X0179757Y0135996D01*
X0179757Y0136192D02*
X0178969Y0136192D01*
X0178969Y0136388D02*
X0179757Y0136388D01*
X0179757Y0136584D02*
X0178969Y0136584D01*
X0178969Y0136780D02*
X0179757Y0136780D01*
X0177000Y0136792D02*
X0177000Y0134232D01*
X0177000Y0136792D02*
X0177788Y0136792D01*
X0177788Y0134232D01*
X0177000Y0134232D01*
X0177000Y0134428D02*
X0177788Y0134428D01*
X0177788Y0134624D02*
X0177000Y0134624D01*
X0177000Y0134820D02*
X0177788Y0134820D01*
X0177788Y0135016D02*
X0177000Y0135016D01*
X0177000Y0135212D02*
X0177788Y0135212D01*
X0177788Y0135408D02*
X0177000Y0135408D01*
X0177000Y0135604D02*
X0177788Y0135604D01*
X0177788Y0135800D02*
X0177000Y0135800D01*
X0177000Y0135996D02*
X0177788Y0135996D01*
X0177788Y0136192D02*
X0177000Y0136192D01*
X0177000Y0136388D02*
X0177788Y0136388D01*
X0177788Y0136584D02*
X0177000Y0136584D01*
X0177000Y0136780D02*
X0177788Y0136780D01*
X0175032Y0136792D02*
X0175032Y0134232D01*
X0175032Y0136792D02*
X0175820Y0136792D01*
X0175820Y0134232D01*
X0175032Y0134232D01*
X0175032Y0134428D02*
X0175820Y0134428D01*
X0175820Y0134624D02*
X0175032Y0134624D01*
X0175032Y0134820D02*
X0175820Y0134820D01*
X0175820Y0135016D02*
X0175032Y0135016D01*
X0175032Y0135212D02*
X0175820Y0135212D01*
X0175820Y0135408D02*
X0175032Y0135408D01*
X0175032Y0135604D02*
X0175820Y0135604D01*
X0175820Y0135800D02*
X0175032Y0135800D01*
X0175032Y0135996D02*
X0175820Y0135996D01*
X0175820Y0136192D02*
X0175032Y0136192D01*
X0175032Y0136388D02*
X0175820Y0136388D01*
X0175820Y0136584D02*
X0175032Y0136584D01*
X0175032Y0136780D02*
X0175820Y0136780D01*
X0173063Y0136792D02*
X0173063Y0134232D01*
X0173063Y0136792D02*
X0173851Y0136792D01*
X0173851Y0134232D01*
X0173063Y0134232D01*
X0173063Y0134428D02*
X0173851Y0134428D01*
X0173851Y0134624D02*
X0173063Y0134624D01*
X0173063Y0134820D02*
X0173851Y0134820D01*
X0173851Y0135016D02*
X0173063Y0135016D01*
X0173063Y0135212D02*
X0173851Y0135212D01*
X0173851Y0135408D02*
X0173063Y0135408D01*
X0173063Y0135604D02*
X0173851Y0135604D01*
X0173851Y0135800D02*
X0173063Y0135800D01*
X0173063Y0135996D02*
X0173851Y0135996D01*
X0173851Y0136192D02*
X0173063Y0136192D01*
X0173063Y0136388D02*
X0173851Y0136388D01*
X0173851Y0136584D02*
X0173063Y0136584D01*
X0173063Y0136780D02*
X0173851Y0136780D01*
X0171095Y0136792D02*
X0171095Y0134232D01*
X0171095Y0136792D02*
X0171883Y0136792D01*
X0171883Y0134232D01*
X0171095Y0134232D01*
X0171095Y0134428D02*
X0171883Y0134428D01*
X0171883Y0134624D02*
X0171095Y0134624D01*
X0171095Y0134820D02*
X0171883Y0134820D01*
X0171883Y0135016D02*
X0171095Y0135016D01*
X0171095Y0135212D02*
X0171883Y0135212D01*
X0171883Y0135408D02*
X0171095Y0135408D01*
X0171095Y0135604D02*
X0171883Y0135604D01*
X0171883Y0135800D02*
X0171095Y0135800D01*
X0171095Y0135996D02*
X0171883Y0135996D01*
X0171883Y0136192D02*
X0171095Y0136192D01*
X0171095Y0136388D02*
X0171883Y0136388D01*
X0171883Y0136584D02*
X0171095Y0136584D01*
X0171095Y0136780D02*
X0171883Y0136780D01*
X0220996Y0140630D02*
X0223556Y0140630D01*
X0223556Y0139842D01*
X0220996Y0139842D01*
X0220996Y0140630D01*
X0220996Y0140038D02*
X0223556Y0140038D01*
X0223556Y0140234D02*
X0220996Y0140234D01*
X0220996Y0140430D02*
X0223556Y0140430D01*
X0223556Y0140626D02*
X0220996Y0140626D01*
X0220996Y0142599D02*
X0223556Y0142599D01*
X0223556Y0141811D01*
X0220996Y0141811D01*
X0220996Y0142599D01*
X0220996Y0142007D02*
X0223556Y0142007D01*
X0223556Y0142203D02*
X0220996Y0142203D01*
X0220996Y0142399D02*
X0223556Y0142399D01*
X0223556Y0142595D02*
X0220996Y0142595D01*
X0220996Y0144567D02*
X0223556Y0144567D01*
X0223556Y0143779D01*
X0220996Y0143779D01*
X0220996Y0144567D01*
X0220996Y0143975D02*
X0223556Y0143975D01*
X0223556Y0144171D02*
X0220996Y0144171D01*
X0220996Y0144367D02*
X0223556Y0144367D01*
X0223556Y0144563D02*
X0220996Y0144563D01*
X0220997Y0146536D02*
X0224737Y0146536D01*
X0224737Y0145748D01*
X0220997Y0145748D01*
X0220997Y0146536D01*
X0220997Y0145944D02*
X0224737Y0145944D01*
X0224737Y0146140D02*
X0220997Y0146140D01*
X0220997Y0146336D02*
X0224737Y0146336D01*
X0224737Y0146532D02*
X0220997Y0146532D01*
X0220996Y0148504D02*
X0223556Y0148504D01*
X0223556Y0147716D01*
X0220996Y0147716D01*
X0220996Y0148504D01*
X0220996Y0147912D02*
X0223556Y0147912D01*
X0223556Y0148108D02*
X0220996Y0148108D01*
X0220996Y0148304D02*
X0223556Y0148304D01*
X0223556Y0148500D02*
X0220996Y0148500D01*
X0220996Y0150473D02*
X0223556Y0150473D01*
X0223556Y0149685D01*
X0220996Y0149685D01*
X0220996Y0150473D01*
X0220996Y0149881D02*
X0223556Y0149881D01*
X0223556Y0150077D02*
X0220996Y0150077D01*
X0220996Y0150273D02*
X0223556Y0150273D01*
X0223556Y0150469D02*
X0220996Y0150469D01*
X0220996Y0152441D02*
X0223556Y0152441D01*
X0223556Y0151653D01*
X0220996Y0151653D01*
X0220996Y0152441D01*
X0220996Y0151849D02*
X0223556Y0151849D01*
X0223556Y0152045D02*
X0220996Y0152045D01*
X0220996Y0152241D02*
X0223556Y0152241D01*
X0223556Y0152437D02*
X0220996Y0152437D01*
X0220996Y0154410D02*
X0223556Y0154410D01*
X0223556Y0153622D01*
X0220996Y0153622D01*
X0220996Y0154410D01*
X0220996Y0153818D02*
X0223556Y0153818D01*
X0223556Y0154014D02*
X0220996Y0154014D01*
X0220996Y0154210D02*
X0223556Y0154210D01*
X0223556Y0154406D02*
X0220996Y0154406D01*
X0220996Y0156378D02*
X0223556Y0156378D01*
X0223556Y0155590D01*
X0220996Y0155590D01*
X0220996Y0156378D01*
X0220996Y0155786D02*
X0223556Y0155786D01*
X0223556Y0155982D02*
X0220996Y0155982D01*
X0220996Y0156178D02*
X0223556Y0156178D01*
X0223556Y0156374D02*
X0220996Y0156374D01*
X0225229Y0157263D02*
X0225229Y0159823D01*
X0225229Y0157263D02*
X0224441Y0157263D01*
X0224441Y0159823D01*
X0225229Y0159823D01*
X0225229Y0157459D02*
X0224441Y0157459D01*
X0224441Y0157655D02*
X0225229Y0157655D01*
X0225229Y0157851D02*
X0224441Y0157851D01*
X0224441Y0158047D02*
X0225229Y0158047D01*
X0225229Y0158243D02*
X0224441Y0158243D01*
X0224441Y0158439D02*
X0225229Y0158439D01*
X0225229Y0158635D02*
X0224441Y0158635D01*
X0224441Y0158831D02*
X0225229Y0158831D01*
X0225229Y0159027D02*
X0224441Y0159027D01*
X0224441Y0159223D02*
X0225229Y0159223D01*
X0225229Y0159419D02*
X0224441Y0159419D01*
X0224441Y0159615D02*
X0225229Y0159615D01*
X0225229Y0159811D02*
X0224441Y0159811D01*
X0227198Y0159823D02*
X0227198Y0157263D01*
X0226410Y0157263D01*
X0226410Y0159823D01*
X0227198Y0159823D01*
X0227198Y0157459D02*
X0226410Y0157459D01*
X0226410Y0157655D02*
X0227198Y0157655D01*
X0227198Y0157851D02*
X0226410Y0157851D01*
X0226410Y0158047D02*
X0227198Y0158047D01*
X0227198Y0158243D02*
X0226410Y0158243D01*
X0226410Y0158439D02*
X0227198Y0158439D01*
X0227198Y0158635D02*
X0226410Y0158635D01*
X0226410Y0158831D02*
X0227198Y0158831D01*
X0227198Y0159027D02*
X0226410Y0159027D01*
X0226410Y0159223D02*
X0227198Y0159223D01*
X0227198Y0159419D02*
X0226410Y0159419D01*
X0226410Y0159615D02*
X0227198Y0159615D01*
X0227198Y0159811D02*
X0226410Y0159811D01*
X0229166Y0159823D02*
X0229166Y0157263D01*
X0228378Y0157263D01*
X0228378Y0159823D01*
X0229166Y0159823D01*
X0229166Y0157459D02*
X0228378Y0157459D01*
X0228378Y0157655D02*
X0229166Y0157655D01*
X0229166Y0157851D02*
X0228378Y0157851D01*
X0228378Y0158047D02*
X0229166Y0158047D01*
X0229166Y0158243D02*
X0228378Y0158243D01*
X0228378Y0158439D02*
X0229166Y0158439D01*
X0229166Y0158635D02*
X0228378Y0158635D01*
X0228378Y0158831D02*
X0229166Y0158831D01*
X0229166Y0159027D02*
X0228378Y0159027D01*
X0228378Y0159223D02*
X0229166Y0159223D01*
X0229166Y0159419D02*
X0228378Y0159419D01*
X0228378Y0159615D02*
X0229166Y0159615D01*
X0229166Y0159811D02*
X0228378Y0159811D01*
X0231135Y0159823D02*
X0231135Y0157263D01*
X0230347Y0157263D01*
X0230347Y0159823D01*
X0231135Y0159823D01*
X0231135Y0157459D02*
X0230347Y0157459D01*
X0230347Y0157655D02*
X0231135Y0157655D01*
X0231135Y0157851D02*
X0230347Y0157851D01*
X0230347Y0158047D02*
X0231135Y0158047D01*
X0231135Y0158243D02*
X0230347Y0158243D01*
X0230347Y0158439D02*
X0231135Y0158439D01*
X0231135Y0158635D02*
X0230347Y0158635D01*
X0230347Y0158831D02*
X0231135Y0158831D01*
X0231135Y0159027D02*
X0230347Y0159027D01*
X0230347Y0159223D02*
X0231135Y0159223D01*
X0231135Y0159419D02*
X0230347Y0159419D01*
X0230347Y0159615D02*
X0231135Y0159615D01*
X0231135Y0159811D02*
X0230347Y0159811D01*
X0233103Y0159823D02*
X0233103Y0157263D01*
X0232315Y0157263D01*
X0232315Y0159823D01*
X0233103Y0159823D01*
X0233103Y0157459D02*
X0232315Y0157459D01*
X0232315Y0157655D02*
X0233103Y0157655D01*
X0233103Y0157851D02*
X0232315Y0157851D01*
X0232315Y0158047D02*
X0233103Y0158047D01*
X0233103Y0158243D02*
X0232315Y0158243D01*
X0232315Y0158439D02*
X0233103Y0158439D01*
X0233103Y0158635D02*
X0232315Y0158635D01*
X0232315Y0158831D02*
X0233103Y0158831D01*
X0233103Y0159027D02*
X0232315Y0159027D01*
X0232315Y0159223D02*
X0233103Y0159223D01*
X0233103Y0159419D02*
X0232315Y0159419D01*
X0232315Y0159615D02*
X0233103Y0159615D01*
X0233103Y0159811D02*
X0232315Y0159811D01*
X0235072Y0159823D02*
X0235072Y0157263D01*
X0234284Y0157263D01*
X0234284Y0159823D01*
X0235072Y0159823D01*
X0235072Y0157459D02*
X0234284Y0157459D01*
X0234284Y0157655D02*
X0235072Y0157655D01*
X0235072Y0157851D02*
X0234284Y0157851D01*
X0234284Y0158047D02*
X0235072Y0158047D01*
X0235072Y0158243D02*
X0234284Y0158243D01*
X0234284Y0158439D02*
X0235072Y0158439D01*
X0235072Y0158635D02*
X0234284Y0158635D01*
X0234284Y0158831D02*
X0235072Y0158831D01*
X0235072Y0159027D02*
X0234284Y0159027D01*
X0234284Y0159223D02*
X0235072Y0159223D01*
X0235072Y0159419D02*
X0234284Y0159419D01*
X0234284Y0159615D02*
X0235072Y0159615D01*
X0235072Y0159811D02*
X0234284Y0159811D01*
X0237040Y0159823D02*
X0237040Y0156083D01*
X0236252Y0156083D01*
X0236252Y0159823D01*
X0237040Y0159823D01*
X0237040Y0156279D02*
X0236252Y0156279D01*
X0236252Y0156475D02*
X0237040Y0156475D01*
X0237040Y0156671D02*
X0236252Y0156671D01*
X0236252Y0156867D02*
X0237040Y0156867D01*
X0237040Y0157063D02*
X0236252Y0157063D01*
X0236252Y0157259D02*
X0237040Y0157259D01*
X0237040Y0157455D02*
X0236252Y0157455D01*
X0236252Y0157651D02*
X0237040Y0157651D01*
X0237040Y0157847D02*
X0236252Y0157847D01*
X0236252Y0158043D02*
X0237040Y0158043D01*
X0237040Y0158239D02*
X0236252Y0158239D01*
X0236252Y0158435D02*
X0237040Y0158435D01*
X0237040Y0158631D02*
X0236252Y0158631D01*
X0236252Y0158827D02*
X0237040Y0158827D01*
X0237040Y0159023D02*
X0236252Y0159023D01*
X0236252Y0159219D02*
X0237040Y0159219D01*
X0237040Y0159415D02*
X0236252Y0159415D01*
X0236252Y0159611D02*
X0237040Y0159611D01*
X0237040Y0159807D02*
X0236252Y0159807D01*
X0239009Y0159823D02*
X0239009Y0157263D01*
X0238221Y0157263D01*
X0238221Y0159823D01*
X0239009Y0159823D01*
X0239009Y0157459D02*
X0238221Y0157459D01*
X0238221Y0157655D02*
X0239009Y0157655D01*
X0239009Y0157851D02*
X0238221Y0157851D01*
X0238221Y0158047D02*
X0239009Y0158047D01*
X0239009Y0158243D02*
X0238221Y0158243D01*
X0238221Y0158439D02*
X0239009Y0158439D01*
X0239009Y0158635D02*
X0238221Y0158635D01*
X0238221Y0158831D02*
X0239009Y0158831D01*
X0239009Y0159027D02*
X0238221Y0159027D01*
X0238221Y0159223D02*
X0239009Y0159223D01*
X0239009Y0159419D02*
X0238221Y0159419D01*
X0238221Y0159615D02*
X0239009Y0159615D01*
X0239009Y0159811D02*
X0238221Y0159811D01*
X0239894Y0155590D02*
X0242454Y0155590D01*
X0239894Y0155590D02*
X0239894Y0156378D01*
X0242454Y0156378D01*
X0242454Y0155590D01*
X0242454Y0155786D02*
X0239894Y0155786D01*
X0239894Y0155982D02*
X0242454Y0155982D01*
X0242454Y0156178D02*
X0239894Y0156178D01*
X0239894Y0156374D02*
X0242454Y0156374D01*
X0242454Y0153622D02*
X0239894Y0153622D01*
X0239894Y0154410D01*
X0242454Y0154410D01*
X0242454Y0153622D01*
X0242454Y0153818D02*
X0239894Y0153818D01*
X0239894Y0154014D02*
X0242454Y0154014D01*
X0242454Y0154210D02*
X0239894Y0154210D01*
X0239894Y0154406D02*
X0242454Y0154406D01*
X0242454Y0151653D02*
X0239894Y0151653D01*
X0239894Y0152441D01*
X0242454Y0152441D01*
X0242454Y0151653D01*
X0242454Y0151849D02*
X0239894Y0151849D01*
X0239894Y0152045D02*
X0242454Y0152045D01*
X0242454Y0152241D02*
X0239894Y0152241D01*
X0239894Y0152437D02*
X0242454Y0152437D01*
X0242454Y0149685D02*
X0239894Y0149685D01*
X0239894Y0150473D01*
X0242454Y0150473D01*
X0242454Y0149685D01*
X0242454Y0149881D02*
X0239894Y0149881D01*
X0239894Y0150077D02*
X0242454Y0150077D01*
X0242454Y0150273D02*
X0239894Y0150273D01*
X0239894Y0150469D02*
X0242454Y0150469D01*
X0242454Y0147716D02*
X0239894Y0147716D01*
X0239894Y0148504D01*
X0242454Y0148504D01*
X0242454Y0147716D01*
X0242454Y0147912D02*
X0239894Y0147912D01*
X0239894Y0148108D02*
X0242454Y0148108D01*
X0242454Y0148304D02*
X0239894Y0148304D01*
X0239894Y0148500D02*
X0242454Y0148500D01*
X0242454Y0145748D02*
X0239894Y0145748D01*
X0239894Y0146536D01*
X0242454Y0146536D01*
X0242454Y0145748D01*
X0242454Y0145944D02*
X0239894Y0145944D01*
X0239894Y0146140D02*
X0242454Y0146140D01*
X0242454Y0146336D02*
X0239894Y0146336D01*
X0239894Y0146532D02*
X0242454Y0146532D01*
X0242454Y0143779D02*
X0239894Y0143779D01*
X0239894Y0144567D01*
X0242454Y0144567D01*
X0242454Y0143779D01*
X0242454Y0143975D02*
X0239894Y0143975D01*
X0239894Y0144171D02*
X0242454Y0144171D01*
X0242454Y0144367D02*
X0239894Y0144367D01*
X0239894Y0144563D02*
X0242454Y0144563D01*
X0242454Y0141811D02*
X0239894Y0141811D01*
X0239894Y0142599D01*
X0242454Y0142599D01*
X0242454Y0141811D01*
X0242454Y0142007D02*
X0239894Y0142007D01*
X0239894Y0142203D02*
X0242454Y0142203D01*
X0242454Y0142399D02*
X0239894Y0142399D01*
X0239894Y0142595D02*
X0242454Y0142595D01*
X0242454Y0139842D02*
X0239894Y0139842D01*
X0239894Y0140630D01*
X0242454Y0140630D01*
X0242454Y0139842D01*
X0242454Y0140038D02*
X0239894Y0140038D01*
X0239894Y0140234D02*
X0242454Y0140234D01*
X0242454Y0140430D02*
X0239894Y0140430D01*
X0239894Y0140626D02*
X0242454Y0140626D01*
X0242454Y0137874D02*
X0239894Y0137874D01*
X0239894Y0138662D01*
X0242454Y0138662D01*
X0242454Y0137874D01*
X0242454Y0138070D02*
X0239894Y0138070D01*
X0239894Y0138266D02*
X0242454Y0138266D01*
X0242454Y0138462D02*
X0239894Y0138462D01*
X0239894Y0138658D02*
X0242454Y0138658D01*
X0238221Y0136989D02*
X0238221Y0134429D01*
X0238221Y0136989D02*
X0239009Y0136989D01*
X0239009Y0134429D01*
X0238221Y0134429D01*
X0238221Y0134625D02*
X0239009Y0134625D01*
X0239009Y0134821D02*
X0238221Y0134821D01*
X0238221Y0135017D02*
X0239009Y0135017D01*
X0239009Y0135213D02*
X0238221Y0135213D01*
X0238221Y0135409D02*
X0239009Y0135409D01*
X0239009Y0135605D02*
X0238221Y0135605D01*
X0238221Y0135801D02*
X0239009Y0135801D01*
X0239009Y0135997D02*
X0238221Y0135997D01*
X0238221Y0136193D02*
X0239009Y0136193D01*
X0239009Y0136389D02*
X0238221Y0136389D01*
X0238221Y0136585D02*
X0239009Y0136585D01*
X0239009Y0136781D02*
X0238221Y0136781D01*
X0238221Y0136977D02*
X0239009Y0136977D01*
X0236252Y0138169D02*
X0236252Y0134429D01*
X0236252Y0138169D02*
X0237040Y0138169D01*
X0237040Y0134429D01*
X0236252Y0134429D01*
X0236252Y0134625D02*
X0237040Y0134625D01*
X0237040Y0134821D02*
X0236252Y0134821D01*
X0236252Y0135017D02*
X0237040Y0135017D01*
X0237040Y0135213D02*
X0236252Y0135213D01*
X0236252Y0135409D02*
X0237040Y0135409D01*
X0237040Y0135605D02*
X0236252Y0135605D01*
X0236252Y0135801D02*
X0237040Y0135801D01*
X0237040Y0135997D02*
X0236252Y0135997D01*
X0236252Y0136193D02*
X0237040Y0136193D01*
X0237040Y0136389D02*
X0236252Y0136389D01*
X0236252Y0136585D02*
X0237040Y0136585D01*
X0237040Y0136781D02*
X0236252Y0136781D01*
X0236252Y0136977D02*
X0237040Y0136977D01*
X0237040Y0137173D02*
X0236252Y0137173D01*
X0236252Y0137369D02*
X0237040Y0137369D01*
X0237040Y0137565D02*
X0236252Y0137565D01*
X0236252Y0137761D02*
X0237040Y0137761D01*
X0237040Y0137957D02*
X0236252Y0137957D01*
X0236252Y0138153D02*
X0237040Y0138153D01*
X0234284Y0136989D02*
X0234284Y0134429D01*
X0234284Y0136989D02*
X0235072Y0136989D01*
X0235072Y0134429D01*
X0234284Y0134429D01*
X0234284Y0134625D02*
X0235072Y0134625D01*
X0235072Y0134821D02*
X0234284Y0134821D01*
X0234284Y0135017D02*
X0235072Y0135017D01*
X0235072Y0135213D02*
X0234284Y0135213D01*
X0234284Y0135409D02*
X0235072Y0135409D01*
X0235072Y0135605D02*
X0234284Y0135605D01*
X0234284Y0135801D02*
X0235072Y0135801D01*
X0235072Y0135997D02*
X0234284Y0135997D01*
X0234284Y0136193D02*
X0235072Y0136193D01*
X0235072Y0136389D02*
X0234284Y0136389D01*
X0234284Y0136585D02*
X0235072Y0136585D01*
X0235072Y0136781D02*
X0234284Y0136781D01*
X0234284Y0136977D02*
X0235072Y0136977D01*
X0232315Y0136989D02*
X0232315Y0134429D01*
X0232315Y0136989D02*
X0233103Y0136989D01*
X0233103Y0134429D01*
X0232315Y0134429D01*
X0232315Y0134625D02*
X0233103Y0134625D01*
X0233103Y0134821D02*
X0232315Y0134821D01*
X0232315Y0135017D02*
X0233103Y0135017D01*
X0233103Y0135213D02*
X0232315Y0135213D01*
X0232315Y0135409D02*
X0233103Y0135409D01*
X0233103Y0135605D02*
X0232315Y0135605D01*
X0232315Y0135801D02*
X0233103Y0135801D01*
X0233103Y0135997D02*
X0232315Y0135997D01*
X0232315Y0136193D02*
X0233103Y0136193D01*
X0233103Y0136389D02*
X0232315Y0136389D01*
X0232315Y0136585D02*
X0233103Y0136585D01*
X0233103Y0136781D02*
X0232315Y0136781D01*
X0232315Y0136977D02*
X0233103Y0136977D01*
X0230347Y0136989D02*
X0230347Y0134429D01*
X0230347Y0136989D02*
X0231135Y0136989D01*
X0231135Y0134429D01*
X0230347Y0134429D01*
X0230347Y0134625D02*
X0231135Y0134625D01*
X0231135Y0134821D02*
X0230347Y0134821D01*
X0230347Y0135017D02*
X0231135Y0135017D01*
X0231135Y0135213D02*
X0230347Y0135213D01*
X0230347Y0135409D02*
X0231135Y0135409D01*
X0231135Y0135605D02*
X0230347Y0135605D01*
X0230347Y0135801D02*
X0231135Y0135801D01*
X0231135Y0135997D02*
X0230347Y0135997D01*
X0230347Y0136193D02*
X0231135Y0136193D01*
X0231135Y0136389D02*
X0230347Y0136389D01*
X0230347Y0136585D02*
X0231135Y0136585D01*
X0231135Y0136781D02*
X0230347Y0136781D01*
X0230347Y0136977D02*
X0231135Y0136977D01*
X0228378Y0136989D02*
X0228378Y0134429D01*
X0228378Y0136989D02*
X0229166Y0136989D01*
X0229166Y0134429D01*
X0228378Y0134429D01*
X0228378Y0134625D02*
X0229166Y0134625D01*
X0229166Y0134821D02*
X0228378Y0134821D01*
X0228378Y0135017D02*
X0229166Y0135017D01*
X0229166Y0135213D02*
X0228378Y0135213D01*
X0228378Y0135409D02*
X0229166Y0135409D01*
X0229166Y0135605D02*
X0228378Y0135605D01*
X0228378Y0135801D02*
X0229166Y0135801D01*
X0229166Y0135997D02*
X0228378Y0135997D01*
X0228378Y0136193D02*
X0229166Y0136193D01*
X0229166Y0136389D02*
X0228378Y0136389D01*
X0228378Y0136585D02*
X0229166Y0136585D01*
X0229166Y0136781D02*
X0228378Y0136781D01*
X0228378Y0136977D02*
X0229166Y0136977D01*
X0226410Y0136989D02*
X0226410Y0134429D01*
X0226410Y0136989D02*
X0227198Y0136989D01*
X0227198Y0134429D01*
X0226410Y0134429D01*
X0226410Y0134625D02*
X0227198Y0134625D01*
X0227198Y0134821D02*
X0226410Y0134821D01*
X0226410Y0135017D02*
X0227198Y0135017D01*
X0227198Y0135213D02*
X0226410Y0135213D01*
X0226410Y0135409D02*
X0227198Y0135409D01*
X0227198Y0135605D02*
X0226410Y0135605D01*
X0226410Y0135801D02*
X0227198Y0135801D01*
X0227198Y0135997D02*
X0226410Y0135997D01*
X0226410Y0136193D02*
X0227198Y0136193D01*
X0227198Y0136389D02*
X0226410Y0136389D01*
X0226410Y0136585D02*
X0227198Y0136585D01*
X0227198Y0136781D02*
X0226410Y0136781D01*
X0226410Y0136977D02*
X0227198Y0136977D01*
X0224441Y0136989D02*
X0224441Y0134429D01*
X0224441Y0136989D02*
X0225229Y0136989D01*
X0225229Y0134429D01*
X0224441Y0134429D01*
X0224441Y0134625D02*
X0225229Y0134625D01*
X0225229Y0134821D02*
X0224441Y0134821D01*
X0224441Y0135017D02*
X0225229Y0135017D01*
X0225229Y0135213D02*
X0224441Y0135213D01*
X0224441Y0135409D02*
X0225229Y0135409D01*
X0225229Y0135605D02*
X0224441Y0135605D01*
X0224441Y0135801D02*
X0225229Y0135801D01*
X0225229Y0135997D02*
X0224441Y0135997D01*
X0224441Y0136193D02*
X0225229Y0136193D01*
X0225229Y0136389D02*
X0224441Y0136389D01*
X0224441Y0136585D02*
X0225229Y0136585D01*
X0225229Y0136781D02*
X0224441Y0136781D01*
X0224441Y0136977D02*
X0225229Y0136977D01*
X0270800Y0140630D02*
X0273360Y0140630D01*
X0273360Y0139842D01*
X0270800Y0139842D01*
X0270800Y0140630D01*
X0270800Y0140038D02*
X0273360Y0140038D01*
X0273360Y0140234D02*
X0270800Y0140234D01*
X0270800Y0140430D02*
X0273360Y0140430D01*
X0273360Y0140626D02*
X0270800Y0140626D01*
X0270800Y0142599D02*
X0273360Y0142599D01*
X0273360Y0141811D01*
X0270800Y0141811D01*
X0270800Y0142599D01*
X0270800Y0142007D02*
X0273360Y0142007D01*
X0273360Y0142203D02*
X0270800Y0142203D01*
X0270800Y0142399D02*
X0273360Y0142399D01*
X0273360Y0142595D02*
X0270800Y0142595D01*
X0270800Y0144567D02*
X0273360Y0144567D01*
X0273360Y0143779D01*
X0270800Y0143779D01*
X0270800Y0144567D01*
X0270800Y0143975D02*
X0273360Y0143975D01*
X0273360Y0144171D02*
X0270800Y0144171D01*
X0270800Y0144367D02*
X0273360Y0144367D01*
X0273360Y0144563D02*
X0270800Y0144563D01*
X0270800Y0146536D02*
X0274540Y0146536D01*
X0274540Y0145748D01*
X0270800Y0145748D01*
X0270800Y0146536D01*
X0270800Y0145944D02*
X0274540Y0145944D01*
X0274540Y0146140D02*
X0270800Y0146140D01*
X0270800Y0146336D02*
X0274540Y0146336D01*
X0274540Y0146532D02*
X0270800Y0146532D01*
X0270800Y0148504D02*
X0273360Y0148504D01*
X0273360Y0147716D01*
X0270800Y0147716D01*
X0270800Y0148504D01*
X0270800Y0147912D02*
X0273360Y0147912D01*
X0273360Y0148108D02*
X0270800Y0148108D01*
X0270800Y0148304D02*
X0273360Y0148304D01*
X0273360Y0148500D02*
X0270800Y0148500D01*
X0270800Y0150473D02*
X0273360Y0150473D01*
X0273360Y0149685D01*
X0270800Y0149685D01*
X0270800Y0150473D01*
X0270800Y0149881D02*
X0273360Y0149881D01*
X0273360Y0150077D02*
X0270800Y0150077D01*
X0270800Y0150273D02*
X0273360Y0150273D01*
X0273360Y0150469D02*
X0270800Y0150469D01*
X0270800Y0152441D02*
X0273360Y0152441D01*
X0273360Y0151653D01*
X0270800Y0151653D01*
X0270800Y0152441D01*
X0270800Y0151849D02*
X0273360Y0151849D01*
X0273360Y0152045D02*
X0270800Y0152045D01*
X0270800Y0152241D02*
X0273360Y0152241D01*
X0273360Y0152437D02*
X0270800Y0152437D01*
X0270800Y0154410D02*
X0273360Y0154410D01*
X0273360Y0153622D01*
X0270800Y0153622D01*
X0270800Y0154410D01*
X0270800Y0153818D02*
X0273360Y0153818D01*
X0273360Y0154014D02*
X0270800Y0154014D01*
X0270800Y0154210D02*
X0273360Y0154210D01*
X0273360Y0154406D02*
X0270800Y0154406D01*
X0270800Y0156378D02*
X0273360Y0156378D01*
X0273360Y0155590D01*
X0270800Y0155590D01*
X0270800Y0156378D01*
X0270800Y0155786D02*
X0273360Y0155786D01*
X0273360Y0155982D02*
X0270800Y0155982D01*
X0270800Y0156178D02*
X0273360Y0156178D01*
X0273360Y0156374D02*
X0270800Y0156374D01*
X0275033Y0157263D02*
X0275033Y0159823D01*
X0275033Y0157263D02*
X0274245Y0157263D01*
X0274245Y0159823D01*
X0275033Y0159823D01*
X0275033Y0157459D02*
X0274245Y0157459D01*
X0274245Y0157655D02*
X0275033Y0157655D01*
X0275033Y0157851D02*
X0274245Y0157851D01*
X0274245Y0158047D02*
X0275033Y0158047D01*
X0275033Y0158243D02*
X0274245Y0158243D01*
X0274245Y0158439D02*
X0275033Y0158439D01*
X0275033Y0158635D02*
X0274245Y0158635D01*
X0274245Y0158831D02*
X0275033Y0158831D01*
X0275033Y0159027D02*
X0274245Y0159027D01*
X0274245Y0159223D02*
X0275033Y0159223D01*
X0275033Y0159419D02*
X0274245Y0159419D01*
X0274245Y0159615D02*
X0275033Y0159615D01*
X0275033Y0159811D02*
X0274245Y0159811D01*
X0277001Y0159823D02*
X0277001Y0157263D01*
X0276213Y0157263D01*
X0276213Y0159823D01*
X0277001Y0159823D01*
X0277001Y0157459D02*
X0276213Y0157459D01*
X0276213Y0157655D02*
X0277001Y0157655D01*
X0277001Y0157851D02*
X0276213Y0157851D01*
X0276213Y0158047D02*
X0277001Y0158047D01*
X0277001Y0158243D02*
X0276213Y0158243D01*
X0276213Y0158439D02*
X0277001Y0158439D01*
X0277001Y0158635D02*
X0276213Y0158635D01*
X0276213Y0158831D02*
X0277001Y0158831D01*
X0277001Y0159027D02*
X0276213Y0159027D01*
X0276213Y0159223D02*
X0277001Y0159223D01*
X0277001Y0159419D02*
X0276213Y0159419D01*
X0276213Y0159615D02*
X0277001Y0159615D01*
X0277001Y0159811D02*
X0276213Y0159811D01*
X0278970Y0159823D02*
X0278970Y0157263D01*
X0278182Y0157263D01*
X0278182Y0159823D01*
X0278970Y0159823D01*
X0278970Y0157459D02*
X0278182Y0157459D01*
X0278182Y0157655D02*
X0278970Y0157655D01*
X0278970Y0157851D02*
X0278182Y0157851D01*
X0278182Y0158047D02*
X0278970Y0158047D01*
X0278970Y0158243D02*
X0278182Y0158243D01*
X0278182Y0158439D02*
X0278970Y0158439D01*
X0278970Y0158635D02*
X0278182Y0158635D01*
X0278182Y0158831D02*
X0278970Y0158831D01*
X0278970Y0159027D02*
X0278182Y0159027D01*
X0278182Y0159223D02*
X0278970Y0159223D01*
X0278970Y0159419D02*
X0278182Y0159419D01*
X0278182Y0159615D02*
X0278970Y0159615D01*
X0278970Y0159811D02*
X0278182Y0159811D01*
X0280938Y0159823D02*
X0280938Y0157263D01*
X0280150Y0157263D01*
X0280150Y0159823D01*
X0280938Y0159823D01*
X0280938Y0157459D02*
X0280150Y0157459D01*
X0280150Y0157655D02*
X0280938Y0157655D01*
X0280938Y0157851D02*
X0280150Y0157851D01*
X0280150Y0158047D02*
X0280938Y0158047D01*
X0280938Y0158243D02*
X0280150Y0158243D01*
X0280150Y0158439D02*
X0280938Y0158439D01*
X0280938Y0158635D02*
X0280150Y0158635D01*
X0280150Y0158831D02*
X0280938Y0158831D01*
X0280938Y0159027D02*
X0280150Y0159027D01*
X0280150Y0159223D02*
X0280938Y0159223D01*
X0280938Y0159419D02*
X0280150Y0159419D01*
X0280150Y0159615D02*
X0280938Y0159615D01*
X0280938Y0159811D02*
X0280150Y0159811D01*
X0282907Y0159823D02*
X0282907Y0157263D01*
X0282119Y0157263D01*
X0282119Y0159823D01*
X0282907Y0159823D01*
X0282907Y0157459D02*
X0282119Y0157459D01*
X0282119Y0157655D02*
X0282907Y0157655D01*
X0282907Y0157851D02*
X0282119Y0157851D01*
X0282119Y0158047D02*
X0282907Y0158047D01*
X0282907Y0158243D02*
X0282119Y0158243D01*
X0282119Y0158439D02*
X0282907Y0158439D01*
X0282907Y0158635D02*
X0282119Y0158635D01*
X0282119Y0158831D02*
X0282907Y0158831D01*
X0282907Y0159027D02*
X0282119Y0159027D01*
X0282119Y0159223D02*
X0282907Y0159223D01*
X0282907Y0159419D02*
X0282119Y0159419D01*
X0282119Y0159615D02*
X0282907Y0159615D01*
X0282907Y0159811D02*
X0282119Y0159811D01*
X0284875Y0159823D02*
X0284875Y0157263D01*
X0284087Y0157263D01*
X0284087Y0159823D01*
X0284875Y0159823D01*
X0284875Y0157459D02*
X0284087Y0157459D01*
X0284087Y0157655D02*
X0284875Y0157655D01*
X0284875Y0157851D02*
X0284087Y0157851D01*
X0284087Y0158047D02*
X0284875Y0158047D01*
X0284875Y0158243D02*
X0284087Y0158243D01*
X0284087Y0158439D02*
X0284875Y0158439D01*
X0284875Y0158635D02*
X0284087Y0158635D01*
X0284087Y0158831D02*
X0284875Y0158831D01*
X0284875Y0159027D02*
X0284087Y0159027D01*
X0284087Y0159223D02*
X0284875Y0159223D01*
X0284875Y0159419D02*
X0284087Y0159419D01*
X0284087Y0159615D02*
X0284875Y0159615D01*
X0284875Y0159811D02*
X0284087Y0159811D01*
X0286844Y0159823D02*
X0286844Y0156083D01*
X0286056Y0156083D01*
X0286056Y0159823D01*
X0286844Y0159823D01*
X0286844Y0156279D02*
X0286056Y0156279D01*
X0286056Y0156475D02*
X0286844Y0156475D01*
X0286844Y0156671D02*
X0286056Y0156671D01*
X0286056Y0156867D02*
X0286844Y0156867D01*
X0286844Y0157063D02*
X0286056Y0157063D01*
X0286056Y0157259D02*
X0286844Y0157259D01*
X0286844Y0157455D02*
X0286056Y0157455D01*
X0286056Y0157651D02*
X0286844Y0157651D01*
X0286844Y0157847D02*
X0286056Y0157847D01*
X0286056Y0158043D02*
X0286844Y0158043D01*
X0286844Y0158239D02*
X0286056Y0158239D01*
X0286056Y0158435D02*
X0286844Y0158435D01*
X0286844Y0158631D02*
X0286056Y0158631D01*
X0286056Y0158827D02*
X0286844Y0158827D01*
X0286844Y0159023D02*
X0286056Y0159023D01*
X0286056Y0159219D02*
X0286844Y0159219D01*
X0286844Y0159415D02*
X0286056Y0159415D01*
X0286056Y0159611D02*
X0286844Y0159611D01*
X0286844Y0159807D02*
X0286056Y0159807D01*
X0288812Y0159823D02*
X0288812Y0157263D01*
X0288024Y0157263D01*
X0288024Y0159823D01*
X0288812Y0159823D01*
X0288812Y0157459D02*
X0288024Y0157459D01*
X0288024Y0157655D02*
X0288812Y0157655D01*
X0288812Y0157851D02*
X0288024Y0157851D01*
X0288024Y0158047D02*
X0288812Y0158047D01*
X0288812Y0158243D02*
X0288024Y0158243D01*
X0288024Y0158439D02*
X0288812Y0158439D01*
X0288812Y0158635D02*
X0288024Y0158635D01*
X0288024Y0158831D02*
X0288812Y0158831D01*
X0288812Y0159027D02*
X0288024Y0159027D01*
X0288024Y0159223D02*
X0288812Y0159223D01*
X0288812Y0159419D02*
X0288024Y0159419D01*
X0288024Y0159615D02*
X0288812Y0159615D01*
X0288812Y0159811D02*
X0288024Y0159811D01*
X0289697Y0155590D02*
X0292257Y0155590D01*
X0289697Y0155590D02*
X0289697Y0156378D01*
X0292257Y0156378D01*
X0292257Y0155590D01*
X0292257Y0155786D02*
X0289697Y0155786D01*
X0289697Y0155982D02*
X0292257Y0155982D01*
X0292257Y0156178D02*
X0289697Y0156178D01*
X0289697Y0156374D02*
X0292257Y0156374D01*
X0292257Y0153622D02*
X0289697Y0153622D01*
X0289697Y0154410D01*
X0292257Y0154410D01*
X0292257Y0153622D01*
X0292257Y0153818D02*
X0289697Y0153818D01*
X0289697Y0154014D02*
X0292257Y0154014D01*
X0292257Y0154210D02*
X0289697Y0154210D01*
X0289697Y0154406D02*
X0292257Y0154406D01*
X0292257Y0151653D02*
X0289697Y0151653D01*
X0289697Y0152441D01*
X0292257Y0152441D01*
X0292257Y0151653D01*
X0292257Y0151849D02*
X0289697Y0151849D01*
X0289697Y0152045D02*
X0292257Y0152045D01*
X0292257Y0152241D02*
X0289697Y0152241D01*
X0289697Y0152437D02*
X0292257Y0152437D01*
X0292257Y0149685D02*
X0289697Y0149685D01*
X0289697Y0150473D01*
X0292257Y0150473D01*
X0292257Y0149685D01*
X0292257Y0149881D02*
X0289697Y0149881D01*
X0289697Y0150077D02*
X0292257Y0150077D01*
X0292257Y0150273D02*
X0289697Y0150273D01*
X0289697Y0150469D02*
X0292257Y0150469D01*
X0292257Y0147716D02*
X0289697Y0147716D01*
X0289697Y0148504D01*
X0292257Y0148504D01*
X0292257Y0147716D01*
X0292257Y0147912D02*
X0289697Y0147912D01*
X0289697Y0148108D02*
X0292257Y0148108D01*
X0292257Y0148304D02*
X0289697Y0148304D01*
X0289697Y0148500D02*
X0292257Y0148500D01*
X0292257Y0145748D02*
X0289697Y0145748D01*
X0289697Y0146536D01*
X0292257Y0146536D01*
X0292257Y0145748D01*
X0292257Y0145944D02*
X0289697Y0145944D01*
X0289697Y0146140D02*
X0292257Y0146140D01*
X0292257Y0146336D02*
X0289697Y0146336D01*
X0289697Y0146532D02*
X0292257Y0146532D01*
X0292257Y0143779D02*
X0289697Y0143779D01*
X0289697Y0144567D01*
X0292257Y0144567D01*
X0292257Y0143779D01*
X0292257Y0143975D02*
X0289697Y0143975D01*
X0289697Y0144171D02*
X0292257Y0144171D01*
X0292257Y0144367D02*
X0289697Y0144367D01*
X0289697Y0144563D02*
X0292257Y0144563D01*
X0292257Y0141811D02*
X0289697Y0141811D01*
X0289697Y0142599D01*
X0292257Y0142599D01*
X0292257Y0141811D01*
X0292257Y0142007D02*
X0289697Y0142007D01*
X0289697Y0142203D02*
X0292257Y0142203D01*
X0292257Y0142399D02*
X0289697Y0142399D01*
X0289697Y0142595D02*
X0292257Y0142595D01*
X0292257Y0139842D02*
X0289697Y0139842D01*
X0289697Y0140630D01*
X0292257Y0140630D01*
X0292257Y0139842D01*
X0292257Y0140038D02*
X0289697Y0140038D01*
X0289697Y0140234D02*
X0292257Y0140234D01*
X0292257Y0140430D02*
X0289697Y0140430D01*
X0289697Y0140626D02*
X0292257Y0140626D01*
X0292257Y0137874D02*
X0289697Y0137874D01*
X0289697Y0138662D01*
X0292257Y0138662D01*
X0292257Y0137874D01*
X0292257Y0138070D02*
X0289697Y0138070D01*
X0289697Y0138266D02*
X0292257Y0138266D01*
X0292257Y0138462D02*
X0289697Y0138462D01*
X0289697Y0138658D02*
X0292257Y0138658D01*
X0288024Y0136989D02*
X0288024Y0134429D01*
X0288024Y0136989D02*
X0288812Y0136989D01*
X0288812Y0134429D01*
X0288024Y0134429D01*
X0288024Y0134625D02*
X0288812Y0134625D01*
X0288812Y0134821D02*
X0288024Y0134821D01*
X0288024Y0135017D02*
X0288812Y0135017D01*
X0288812Y0135213D02*
X0288024Y0135213D01*
X0288024Y0135409D02*
X0288812Y0135409D01*
X0288812Y0135605D02*
X0288024Y0135605D01*
X0288024Y0135801D02*
X0288812Y0135801D01*
X0288812Y0135997D02*
X0288024Y0135997D01*
X0288024Y0136193D02*
X0288812Y0136193D01*
X0288812Y0136389D02*
X0288024Y0136389D01*
X0288024Y0136585D02*
X0288812Y0136585D01*
X0288812Y0136781D02*
X0288024Y0136781D01*
X0288024Y0136977D02*
X0288812Y0136977D01*
X0286056Y0138169D02*
X0286056Y0134429D01*
X0286056Y0138169D02*
X0286844Y0138169D01*
X0286844Y0134429D01*
X0286056Y0134429D01*
X0286056Y0134625D02*
X0286844Y0134625D01*
X0286844Y0134821D02*
X0286056Y0134821D01*
X0286056Y0135017D02*
X0286844Y0135017D01*
X0286844Y0135213D02*
X0286056Y0135213D01*
X0286056Y0135409D02*
X0286844Y0135409D01*
X0286844Y0135605D02*
X0286056Y0135605D01*
X0286056Y0135801D02*
X0286844Y0135801D01*
X0286844Y0135997D02*
X0286056Y0135997D01*
X0286056Y0136193D02*
X0286844Y0136193D01*
X0286844Y0136389D02*
X0286056Y0136389D01*
X0286056Y0136585D02*
X0286844Y0136585D01*
X0286844Y0136781D02*
X0286056Y0136781D01*
X0286056Y0136977D02*
X0286844Y0136977D01*
X0286844Y0137173D02*
X0286056Y0137173D01*
X0286056Y0137369D02*
X0286844Y0137369D01*
X0286844Y0137565D02*
X0286056Y0137565D01*
X0286056Y0137761D02*
X0286844Y0137761D01*
X0286844Y0137957D02*
X0286056Y0137957D01*
X0286056Y0138153D02*
X0286844Y0138153D01*
X0284087Y0136989D02*
X0284087Y0134429D01*
X0284087Y0136989D02*
X0284875Y0136989D01*
X0284875Y0134429D01*
X0284087Y0134429D01*
X0284087Y0134625D02*
X0284875Y0134625D01*
X0284875Y0134821D02*
X0284087Y0134821D01*
X0284087Y0135017D02*
X0284875Y0135017D01*
X0284875Y0135213D02*
X0284087Y0135213D01*
X0284087Y0135409D02*
X0284875Y0135409D01*
X0284875Y0135605D02*
X0284087Y0135605D01*
X0284087Y0135801D02*
X0284875Y0135801D01*
X0284875Y0135997D02*
X0284087Y0135997D01*
X0284087Y0136193D02*
X0284875Y0136193D01*
X0284875Y0136389D02*
X0284087Y0136389D01*
X0284087Y0136585D02*
X0284875Y0136585D01*
X0284875Y0136781D02*
X0284087Y0136781D01*
X0284087Y0136977D02*
X0284875Y0136977D01*
X0282119Y0136989D02*
X0282119Y0134429D01*
X0282119Y0136989D02*
X0282907Y0136989D01*
X0282907Y0134429D01*
X0282119Y0134429D01*
X0282119Y0134625D02*
X0282907Y0134625D01*
X0282907Y0134821D02*
X0282119Y0134821D01*
X0282119Y0135017D02*
X0282907Y0135017D01*
X0282907Y0135213D02*
X0282119Y0135213D01*
X0282119Y0135409D02*
X0282907Y0135409D01*
X0282907Y0135605D02*
X0282119Y0135605D01*
X0282119Y0135801D02*
X0282907Y0135801D01*
X0282907Y0135997D02*
X0282119Y0135997D01*
X0282119Y0136193D02*
X0282907Y0136193D01*
X0282907Y0136389D02*
X0282119Y0136389D01*
X0282119Y0136585D02*
X0282907Y0136585D01*
X0282907Y0136781D02*
X0282119Y0136781D01*
X0282119Y0136977D02*
X0282907Y0136977D01*
X0280150Y0136989D02*
X0280150Y0134429D01*
X0280150Y0136989D02*
X0280938Y0136989D01*
X0280938Y0134429D01*
X0280150Y0134429D01*
X0280150Y0134625D02*
X0280938Y0134625D01*
X0280938Y0134821D02*
X0280150Y0134821D01*
X0280150Y0135017D02*
X0280938Y0135017D01*
X0280938Y0135213D02*
X0280150Y0135213D01*
X0280150Y0135409D02*
X0280938Y0135409D01*
X0280938Y0135605D02*
X0280150Y0135605D01*
X0280150Y0135801D02*
X0280938Y0135801D01*
X0280938Y0135997D02*
X0280150Y0135997D01*
X0280150Y0136193D02*
X0280938Y0136193D01*
X0280938Y0136389D02*
X0280150Y0136389D01*
X0280150Y0136585D02*
X0280938Y0136585D01*
X0280938Y0136781D02*
X0280150Y0136781D01*
X0280150Y0136977D02*
X0280938Y0136977D01*
X0278182Y0136989D02*
X0278182Y0134429D01*
X0278182Y0136989D02*
X0278970Y0136989D01*
X0278970Y0134429D01*
X0278182Y0134429D01*
X0278182Y0134625D02*
X0278970Y0134625D01*
X0278970Y0134821D02*
X0278182Y0134821D01*
X0278182Y0135017D02*
X0278970Y0135017D01*
X0278970Y0135213D02*
X0278182Y0135213D01*
X0278182Y0135409D02*
X0278970Y0135409D01*
X0278970Y0135605D02*
X0278182Y0135605D01*
X0278182Y0135801D02*
X0278970Y0135801D01*
X0278970Y0135997D02*
X0278182Y0135997D01*
X0278182Y0136193D02*
X0278970Y0136193D01*
X0278970Y0136389D02*
X0278182Y0136389D01*
X0278182Y0136585D02*
X0278970Y0136585D01*
X0278970Y0136781D02*
X0278182Y0136781D01*
X0278182Y0136977D02*
X0278970Y0136977D01*
X0276213Y0136989D02*
X0276213Y0134429D01*
X0276213Y0136989D02*
X0277001Y0136989D01*
X0277001Y0134429D01*
X0276213Y0134429D01*
X0276213Y0134625D02*
X0277001Y0134625D01*
X0277001Y0134821D02*
X0276213Y0134821D01*
X0276213Y0135017D02*
X0277001Y0135017D01*
X0277001Y0135213D02*
X0276213Y0135213D01*
X0276213Y0135409D02*
X0277001Y0135409D01*
X0277001Y0135605D02*
X0276213Y0135605D01*
X0276213Y0135801D02*
X0277001Y0135801D01*
X0277001Y0135997D02*
X0276213Y0135997D01*
X0276213Y0136193D02*
X0277001Y0136193D01*
X0277001Y0136389D02*
X0276213Y0136389D01*
X0276213Y0136585D02*
X0277001Y0136585D01*
X0277001Y0136781D02*
X0276213Y0136781D01*
X0276213Y0136977D02*
X0277001Y0136977D01*
X0274245Y0136989D02*
X0274245Y0134429D01*
X0274245Y0136989D02*
X0275033Y0136989D01*
X0275033Y0134429D01*
X0274245Y0134429D01*
X0274245Y0134625D02*
X0275033Y0134625D01*
X0275033Y0134821D02*
X0274245Y0134821D01*
X0274245Y0135017D02*
X0275033Y0135017D01*
X0275033Y0135213D02*
X0274245Y0135213D01*
X0274245Y0135409D02*
X0275033Y0135409D01*
X0275033Y0135605D02*
X0274245Y0135605D01*
X0274245Y0135801D02*
X0275033Y0135801D01*
X0275033Y0135997D02*
X0274245Y0135997D01*
X0274245Y0136193D02*
X0275033Y0136193D01*
X0275033Y0136389D02*
X0274245Y0136389D01*
X0274245Y0136585D02*
X0275033Y0136585D01*
X0275033Y0136781D02*
X0274245Y0136781D01*
X0274245Y0136977D02*
X0275033Y0136977D01*
X0322965Y0140630D02*
X0325525Y0140630D01*
X0325525Y0139842D01*
X0322965Y0139842D01*
X0322965Y0140630D01*
X0322965Y0140038D02*
X0325525Y0140038D01*
X0325525Y0140234D02*
X0322965Y0140234D01*
X0322965Y0140430D02*
X0325525Y0140430D01*
X0325525Y0140626D02*
X0322965Y0140626D01*
X0322965Y0142599D02*
X0325525Y0142599D01*
X0325525Y0141811D01*
X0322965Y0141811D01*
X0322965Y0142599D01*
X0322965Y0142007D02*
X0325525Y0142007D01*
X0325525Y0142203D02*
X0322965Y0142203D01*
X0322965Y0142399D02*
X0325525Y0142399D01*
X0325525Y0142595D02*
X0322965Y0142595D01*
X0322965Y0144567D02*
X0325525Y0144567D01*
X0325525Y0143779D01*
X0322965Y0143779D01*
X0322965Y0144567D01*
X0322965Y0143975D02*
X0325525Y0143975D01*
X0325525Y0144171D02*
X0322965Y0144171D01*
X0322965Y0144367D02*
X0325525Y0144367D01*
X0325525Y0144563D02*
X0322965Y0144563D01*
X0322965Y0146536D02*
X0326705Y0146536D01*
X0326705Y0145748D01*
X0322965Y0145748D01*
X0322965Y0146536D01*
X0322965Y0145944D02*
X0326705Y0145944D01*
X0326705Y0146140D02*
X0322965Y0146140D01*
X0322965Y0146336D02*
X0326705Y0146336D01*
X0326705Y0146532D02*
X0322965Y0146532D01*
X0322965Y0148504D02*
X0325525Y0148504D01*
X0325525Y0147716D01*
X0322965Y0147716D01*
X0322965Y0148504D01*
X0322965Y0147912D02*
X0325525Y0147912D01*
X0325525Y0148108D02*
X0322965Y0148108D01*
X0322965Y0148304D02*
X0325525Y0148304D01*
X0325525Y0148500D02*
X0322965Y0148500D01*
X0322965Y0150473D02*
X0325525Y0150473D01*
X0325525Y0149685D01*
X0322965Y0149685D01*
X0322965Y0150473D01*
X0322965Y0149881D02*
X0325525Y0149881D01*
X0325525Y0150077D02*
X0322965Y0150077D01*
X0322965Y0150273D02*
X0325525Y0150273D01*
X0325525Y0150469D02*
X0322965Y0150469D01*
X0322965Y0152441D02*
X0325525Y0152441D01*
X0325525Y0151653D01*
X0322965Y0151653D01*
X0322965Y0152441D01*
X0322965Y0151849D02*
X0325525Y0151849D01*
X0325525Y0152045D02*
X0322965Y0152045D01*
X0322965Y0152241D02*
X0325525Y0152241D01*
X0325525Y0152437D02*
X0322965Y0152437D01*
X0322965Y0154410D02*
X0325525Y0154410D01*
X0325525Y0153622D01*
X0322965Y0153622D01*
X0322965Y0154410D01*
X0322965Y0153818D02*
X0325525Y0153818D01*
X0325525Y0154014D02*
X0322965Y0154014D01*
X0322965Y0154210D02*
X0325525Y0154210D01*
X0325525Y0154406D02*
X0322965Y0154406D01*
X0322965Y0156378D02*
X0325525Y0156378D01*
X0325525Y0155590D01*
X0322965Y0155590D01*
X0322965Y0156378D01*
X0322965Y0155786D02*
X0325525Y0155786D01*
X0325525Y0155982D02*
X0322965Y0155982D01*
X0322965Y0156178D02*
X0325525Y0156178D01*
X0325525Y0156374D02*
X0322965Y0156374D01*
X0327198Y0157263D02*
X0327198Y0159823D01*
X0327198Y0157263D02*
X0326410Y0157263D01*
X0326410Y0159823D01*
X0327198Y0159823D01*
X0327198Y0157459D02*
X0326410Y0157459D01*
X0326410Y0157655D02*
X0327198Y0157655D01*
X0327198Y0157851D02*
X0326410Y0157851D01*
X0326410Y0158047D02*
X0327198Y0158047D01*
X0327198Y0158243D02*
X0326410Y0158243D01*
X0326410Y0158439D02*
X0327198Y0158439D01*
X0327198Y0158635D02*
X0326410Y0158635D01*
X0326410Y0158831D02*
X0327198Y0158831D01*
X0327198Y0159027D02*
X0326410Y0159027D01*
X0326410Y0159223D02*
X0327198Y0159223D01*
X0327198Y0159419D02*
X0326410Y0159419D01*
X0326410Y0159615D02*
X0327198Y0159615D01*
X0327198Y0159811D02*
X0326410Y0159811D01*
X0329166Y0159823D02*
X0329166Y0157263D01*
X0328378Y0157263D01*
X0328378Y0159823D01*
X0329166Y0159823D01*
X0329166Y0157459D02*
X0328378Y0157459D01*
X0328378Y0157655D02*
X0329166Y0157655D01*
X0329166Y0157851D02*
X0328378Y0157851D01*
X0328378Y0158047D02*
X0329166Y0158047D01*
X0329166Y0158243D02*
X0328378Y0158243D01*
X0328378Y0158439D02*
X0329166Y0158439D01*
X0329166Y0158635D02*
X0328378Y0158635D01*
X0328378Y0158831D02*
X0329166Y0158831D01*
X0329166Y0159027D02*
X0328378Y0159027D01*
X0328378Y0159223D02*
X0329166Y0159223D01*
X0329166Y0159419D02*
X0328378Y0159419D01*
X0328378Y0159615D02*
X0329166Y0159615D01*
X0329166Y0159811D02*
X0328378Y0159811D01*
X0331135Y0159823D02*
X0331135Y0157263D01*
X0330347Y0157263D01*
X0330347Y0159823D01*
X0331135Y0159823D01*
X0331135Y0157459D02*
X0330347Y0157459D01*
X0330347Y0157655D02*
X0331135Y0157655D01*
X0331135Y0157851D02*
X0330347Y0157851D01*
X0330347Y0158047D02*
X0331135Y0158047D01*
X0331135Y0158243D02*
X0330347Y0158243D01*
X0330347Y0158439D02*
X0331135Y0158439D01*
X0331135Y0158635D02*
X0330347Y0158635D01*
X0330347Y0158831D02*
X0331135Y0158831D01*
X0331135Y0159027D02*
X0330347Y0159027D01*
X0330347Y0159223D02*
X0331135Y0159223D01*
X0331135Y0159419D02*
X0330347Y0159419D01*
X0330347Y0159615D02*
X0331135Y0159615D01*
X0331135Y0159811D02*
X0330347Y0159811D01*
X0333103Y0159823D02*
X0333103Y0157263D01*
X0332315Y0157263D01*
X0332315Y0159823D01*
X0333103Y0159823D01*
X0333103Y0157459D02*
X0332315Y0157459D01*
X0332315Y0157655D02*
X0333103Y0157655D01*
X0333103Y0157851D02*
X0332315Y0157851D01*
X0332315Y0158047D02*
X0333103Y0158047D01*
X0333103Y0158243D02*
X0332315Y0158243D01*
X0332315Y0158439D02*
X0333103Y0158439D01*
X0333103Y0158635D02*
X0332315Y0158635D01*
X0332315Y0158831D02*
X0333103Y0158831D01*
X0333103Y0159027D02*
X0332315Y0159027D01*
X0332315Y0159223D02*
X0333103Y0159223D01*
X0333103Y0159419D02*
X0332315Y0159419D01*
X0332315Y0159615D02*
X0333103Y0159615D01*
X0333103Y0159811D02*
X0332315Y0159811D01*
X0335072Y0159823D02*
X0335072Y0157263D01*
X0334284Y0157263D01*
X0334284Y0159823D01*
X0335072Y0159823D01*
X0335072Y0157459D02*
X0334284Y0157459D01*
X0334284Y0157655D02*
X0335072Y0157655D01*
X0335072Y0157851D02*
X0334284Y0157851D01*
X0334284Y0158047D02*
X0335072Y0158047D01*
X0335072Y0158243D02*
X0334284Y0158243D01*
X0334284Y0158439D02*
X0335072Y0158439D01*
X0335072Y0158635D02*
X0334284Y0158635D01*
X0334284Y0158831D02*
X0335072Y0158831D01*
X0335072Y0159027D02*
X0334284Y0159027D01*
X0334284Y0159223D02*
X0335072Y0159223D01*
X0335072Y0159419D02*
X0334284Y0159419D01*
X0334284Y0159615D02*
X0335072Y0159615D01*
X0335072Y0159811D02*
X0334284Y0159811D01*
X0337040Y0159823D02*
X0337040Y0157263D01*
X0336252Y0157263D01*
X0336252Y0159823D01*
X0337040Y0159823D01*
X0337040Y0157459D02*
X0336252Y0157459D01*
X0336252Y0157655D02*
X0337040Y0157655D01*
X0337040Y0157851D02*
X0336252Y0157851D01*
X0336252Y0158047D02*
X0337040Y0158047D01*
X0337040Y0158243D02*
X0336252Y0158243D01*
X0336252Y0158439D02*
X0337040Y0158439D01*
X0337040Y0158635D02*
X0336252Y0158635D01*
X0336252Y0158831D02*
X0337040Y0158831D01*
X0337040Y0159027D02*
X0336252Y0159027D01*
X0336252Y0159223D02*
X0337040Y0159223D01*
X0337040Y0159419D02*
X0336252Y0159419D01*
X0336252Y0159615D02*
X0337040Y0159615D01*
X0337040Y0159811D02*
X0336252Y0159811D01*
X0339009Y0159823D02*
X0339009Y0156083D01*
X0338221Y0156083D01*
X0338221Y0159823D01*
X0339009Y0159823D01*
X0339009Y0156279D02*
X0338221Y0156279D01*
X0338221Y0156475D02*
X0339009Y0156475D01*
X0339009Y0156671D02*
X0338221Y0156671D01*
X0338221Y0156867D02*
X0339009Y0156867D01*
X0339009Y0157063D02*
X0338221Y0157063D01*
X0338221Y0157259D02*
X0339009Y0157259D01*
X0339009Y0157455D02*
X0338221Y0157455D01*
X0338221Y0157651D02*
X0339009Y0157651D01*
X0339009Y0157847D02*
X0338221Y0157847D01*
X0338221Y0158043D02*
X0339009Y0158043D01*
X0339009Y0158239D02*
X0338221Y0158239D01*
X0338221Y0158435D02*
X0339009Y0158435D01*
X0339009Y0158631D02*
X0338221Y0158631D01*
X0338221Y0158827D02*
X0339009Y0158827D01*
X0339009Y0159023D02*
X0338221Y0159023D01*
X0338221Y0159219D02*
X0339009Y0159219D01*
X0339009Y0159415D02*
X0338221Y0159415D01*
X0338221Y0159611D02*
X0339009Y0159611D01*
X0339009Y0159807D02*
X0338221Y0159807D01*
X0340977Y0159823D02*
X0340977Y0157263D01*
X0340189Y0157263D01*
X0340189Y0159823D01*
X0340977Y0159823D01*
X0340977Y0157459D02*
X0340189Y0157459D01*
X0340189Y0157655D02*
X0340977Y0157655D01*
X0340977Y0157851D02*
X0340189Y0157851D01*
X0340189Y0158047D02*
X0340977Y0158047D01*
X0340977Y0158243D02*
X0340189Y0158243D01*
X0340189Y0158439D02*
X0340977Y0158439D01*
X0340977Y0158635D02*
X0340189Y0158635D01*
X0340189Y0158831D02*
X0340977Y0158831D01*
X0340977Y0159027D02*
X0340189Y0159027D01*
X0340189Y0159223D02*
X0340977Y0159223D01*
X0340977Y0159419D02*
X0340189Y0159419D01*
X0340189Y0159615D02*
X0340977Y0159615D01*
X0340977Y0159811D02*
X0340189Y0159811D01*
X0341863Y0155590D02*
X0344423Y0155590D01*
X0341863Y0155590D02*
X0341863Y0156378D01*
X0344423Y0156378D01*
X0344423Y0155590D01*
X0344423Y0155786D02*
X0341863Y0155786D01*
X0341863Y0155982D02*
X0344423Y0155982D01*
X0344423Y0156178D02*
X0341863Y0156178D01*
X0341863Y0156374D02*
X0344423Y0156374D01*
X0344423Y0153622D02*
X0341863Y0153622D01*
X0341863Y0154410D01*
X0344423Y0154410D01*
X0344423Y0153622D01*
X0344423Y0153818D02*
X0341863Y0153818D01*
X0341863Y0154014D02*
X0344423Y0154014D01*
X0344423Y0154210D02*
X0341863Y0154210D01*
X0341863Y0154406D02*
X0344423Y0154406D01*
X0344423Y0151653D02*
X0341863Y0151653D01*
X0341863Y0152441D01*
X0344423Y0152441D01*
X0344423Y0151653D01*
X0344423Y0151849D02*
X0341863Y0151849D01*
X0341863Y0152045D02*
X0344423Y0152045D01*
X0344423Y0152241D02*
X0341863Y0152241D01*
X0341863Y0152437D02*
X0344423Y0152437D01*
X0344423Y0149685D02*
X0341863Y0149685D01*
X0341863Y0150473D01*
X0344423Y0150473D01*
X0344423Y0149685D01*
X0344423Y0149881D02*
X0341863Y0149881D01*
X0341863Y0150077D02*
X0344423Y0150077D01*
X0344423Y0150273D02*
X0341863Y0150273D01*
X0341863Y0150469D02*
X0344423Y0150469D01*
X0344423Y0147716D02*
X0341863Y0147716D01*
X0341863Y0148504D01*
X0344423Y0148504D01*
X0344423Y0147716D01*
X0344423Y0147912D02*
X0341863Y0147912D01*
X0341863Y0148108D02*
X0344423Y0148108D01*
X0344423Y0148304D02*
X0341863Y0148304D01*
X0341863Y0148500D02*
X0344423Y0148500D01*
X0344423Y0145748D02*
X0341863Y0145748D01*
X0341863Y0146536D01*
X0344423Y0146536D01*
X0344423Y0145748D01*
X0344423Y0145944D02*
X0341863Y0145944D01*
X0341863Y0146140D02*
X0344423Y0146140D01*
X0344423Y0146336D02*
X0341863Y0146336D01*
X0341863Y0146532D02*
X0344423Y0146532D01*
X0344423Y0143779D02*
X0341863Y0143779D01*
X0341863Y0144567D01*
X0344423Y0144567D01*
X0344423Y0143779D01*
X0344423Y0143975D02*
X0341863Y0143975D01*
X0341863Y0144171D02*
X0344423Y0144171D01*
X0344423Y0144367D02*
X0341863Y0144367D01*
X0341863Y0144563D02*
X0344423Y0144563D01*
X0344423Y0141811D02*
X0341863Y0141811D01*
X0341863Y0142599D01*
X0344423Y0142599D01*
X0344423Y0141811D01*
X0344423Y0142007D02*
X0341863Y0142007D01*
X0341863Y0142203D02*
X0344423Y0142203D01*
X0344423Y0142399D02*
X0341863Y0142399D01*
X0341863Y0142595D02*
X0344423Y0142595D01*
X0344423Y0139842D02*
X0341863Y0139842D01*
X0341863Y0140630D01*
X0344423Y0140630D01*
X0344423Y0139842D01*
X0344423Y0140038D02*
X0341863Y0140038D01*
X0341863Y0140234D02*
X0344423Y0140234D01*
X0344423Y0140430D02*
X0341863Y0140430D01*
X0341863Y0140626D02*
X0344423Y0140626D01*
X0344423Y0137874D02*
X0341863Y0137874D01*
X0341863Y0138662D01*
X0344423Y0138662D01*
X0344423Y0137874D01*
X0344423Y0138070D02*
X0341863Y0138070D01*
X0341863Y0138266D02*
X0344423Y0138266D01*
X0344423Y0138462D02*
X0341863Y0138462D01*
X0341863Y0138658D02*
X0344423Y0138658D01*
X0340189Y0136989D02*
X0340189Y0134429D01*
X0340189Y0136989D02*
X0340977Y0136989D01*
X0340977Y0134429D01*
X0340189Y0134429D01*
X0340189Y0134625D02*
X0340977Y0134625D01*
X0340977Y0134821D02*
X0340189Y0134821D01*
X0340189Y0135017D02*
X0340977Y0135017D01*
X0340977Y0135213D02*
X0340189Y0135213D01*
X0340189Y0135409D02*
X0340977Y0135409D01*
X0340977Y0135605D02*
X0340189Y0135605D01*
X0340189Y0135801D02*
X0340977Y0135801D01*
X0340977Y0135997D02*
X0340189Y0135997D01*
X0340189Y0136193D02*
X0340977Y0136193D01*
X0340977Y0136389D02*
X0340189Y0136389D01*
X0340189Y0136585D02*
X0340977Y0136585D01*
X0340977Y0136781D02*
X0340189Y0136781D01*
X0340189Y0136977D02*
X0340977Y0136977D01*
X0338221Y0138169D02*
X0338221Y0134429D01*
X0338221Y0138169D02*
X0339009Y0138169D01*
X0339009Y0134429D01*
X0338221Y0134429D01*
X0338221Y0134625D02*
X0339009Y0134625D01*
X0339009Y0134821D02*
X0338221Y0134821D01*
X0338221Y0135017D02*
X0339009Y0135017D01*
X0339009Y0135213D02*
X0338221Y0135213D01*
X0338221Y0135409D02*
X0339009Y0135409D01*
X0339009Y0135605D02*
X0338221Y0135605D01*
X0338221Y0135801D02*
X0339009Y0135801D01*
X0339009Y0135997D02*
X0338221Y0135997D01*
X0338221Y0136193D02*
X0339009Y0136193D01*
X0339009Y0136389D02*
X0338221Y0136389D01*
X0338221Y0136585D02*
X0339009Y0136585D01*
X0339009Y0136781D02*
X0338221Y0136781D01*
X0338221Y0136977D02*
X0339009Y0136977D01*
X0339009Y0137173D02*
X0338221Y0137173D01*
X0338221Y0137369D02*
X0339009Y0137369D01*
X0339009Y0137565D02*
X0338221Y0137565D01*
X0338221Y0137761D02*
X0339009Y0137761D01*
X0339009Y0137957D02*
X0338221Y0137957D01*
X0338221Y0138153D02*
X0339009Y0138153D01*
X0336252Y0136989D02*
X0336252Y0134429D01*
X0336252Y0136989D02*
X0337040Y0136989D01*
X0337040Y0134429D01*
X0336252Y0134429D01*
X0336252Y0134625D02*
X0337040Y0134625D01*
X0337040Y0134821D02*
X0336252Y0134821D01*
X0336252Y0135017D02*
X0337040Y0135017D01*
X0337040Y0135213D02*
X0336252Y0135213D01*
X0336252Y0135409D02*
X0337040Y0135409D01*
X0337040Y0135605D02*
X0336252Y0135605D01*
X0336252Y0135801D02*
X0337040Y0135801D01*
X0337040Y0135997D02*
X0336252Y0135997D01*
X0336252Y0136193D02*
X0337040Y0136193D01*
X0337040Y0136389D02*
X0336252Y0136389D01*
X0336252Y0136585D02*
X0337040Y0136585D01*
X0337040Y0136781D02*
X0336252Y0136781D01*
X0336252Y0136977D02*
X0337040Y0136977D01*
X0334284Y0136989D02*
X0334284Y0134429D01*
X0334284Y0136989D02*
X0335072Y0136989D01*
X0335072Y0134429D01*
X0334284Y0134429D01*
X0334284Y0134625D02*
X0335072Y0134625D01*
X0335072Y0134821D02*
X0334284Y0134821D01*
X0334284Y0135017D02*
X0335072Y0135017D01*
X0335072Y0135213D02*
X0334284Y0135213D01*
X0334284Y0135409D02*
X0335072Y0135409D01*
X0335072Y0135605D02*
X0334284Y0135605D01*
X0334284Y0135801D02*
X0335072Y0135801D01*
X0335072Y0135997D02*
X0334284Y0135997D01*
X0334284Y0136193D02*
X0335072Y0136193D01*
X0335072Y0136389D02*
X0334284Y0136389D01*
X0334284Y0136585D02*
X0335072Y0136585D01*
X0335072Y0136781D02*
X0334284Y0136781D01*
X0334284Y0136977D02*
X0335072Y0136977D01*
X0332315Y0136989D02*
X0332315Y0134429D01*
X0332315Y0136989D02*
X0333103Y0136989D01*
X0333103Y0134429D01*
X0332315Y0134429D01*
X0332315Y0134625D02*
X0333103Y0134625D01*
X0333103Y0134821D02*
X0332315Y0134821D01*
X0332315Y0135017D02*
X0333103Y0135017D01*
X0333103Y0135213D02*
X0332315Y0135213D01*
X0332315Y0135409D02*
X0333103Y0135409D01*
X0333103Y0135605D02*
X0332315Y0135605D01*
X0332315Y0135801D02*
X0333103Y0135801D01*
X0333103Y0135997D02*
X0332315Y0135997D01*
X0332315Y0136193D02*
X0333103Y0136193D01*
X0333103Y0136389D02*
X0332315Y0136389D01*
X0332315Y0136585D02*
X0333103Y0136585D01*
X0333103Y0136781D02*
X0332315Y0136781D01*
X0332315Y0136977D02*
X0333103Y0136977D01*
X0330347Y0136989D02*
X0330347Y0134429D01*
X0330347Y0136989D02*
X0331135Y0136989D01*
X0331135Y0134429D01*
X0330347Y0134429D01*
X0330347Y0134625D02*
X0331135Y0134625D01*
X0331135Y0134821D02*
X0330347Y0134821D01*
X0330347Y0135017D02*
X0331135Y0135017D01*
X0331135Y0135213D02*
X0330347Y0135213D01*
X0330347Y0135409D02*
X0331135Y0135409D01*
X0331135Y0135605D02*
X0330347Y0135605D01*
X0330347Y0135801D02*
X0331135Y0135801D01*
X0331135Y0135997D02*
X0330347Y0135997D01*
X0330347Y0136193D02*
X0331135Y0136193D01*
X0331135Y0136389D02*
X0330347Y0136389D01*
X0330347Y0136585D02*
X0331135Y0136585D01*
X0331135Y0136781D02*
X0330347Y0136781D01*
X0330347Y0136977D02*
X0331135Y0136977D01*
X0328378Y0136989D02*
X0328378Y0134429D01*
X0328378Y0136989D02*
X0329166Y0136989D01*
X0329166Y0134429D01*
X0328378Y0134429D01*
X0328378Y0134625D02*
X0329166Y0134625D01*
X0329166Y0134821D02*
X0328378Y0134821D01*
X0328378Y0135017D02*
X0329166Y0135017D01*
X0329166Y0135213D02*
X0328378Y0135213D01*
X0328378Y0135409D02*
X0329166Y0135409D01*
X0329166Y0135605D02*
X0328378Y0135605D01*
X0328378Y0135801D02*
X0329166Y0135801D01*
X0329166Y0135997D02*
X0328378Y0135997D01*
X0328378Y0136193D02*
X0329166Y0136193D01*
X0329166Y0136389D02*
X0328378Y0136389D01*
X0328378Y0136585D02*
X0329166Y0136585D01*
X0329166Y0136781D02*
X0328378Y0136781D01*
X0328378Y0136977D02*
X0329166Y0136977D01*
X0326410Y0136989D02*
X0326410Y0134429D01*
X0326410Y0136989D02*
X0327198Y0136989D01*
X0327198Y0134429D01*
X0326410Y0134429D01*
X0326410Y0134625D02*
X0327198Y0134625D01*
X0327198Y0134821D02*
X0326410Y0134821D01*
X0326410Y0135017D02*
X0327198Y0135017D01*
X0327198Y0135213D02*
X0326410Y0135213D01*
X0326410Y0135409D02*
X0327198Y0135409D01*
X0327198Y0135605D02*
X0326410Y0135605D01*
X0326410Y0135801D02*
X0327198Y0135801D01*
X0327198Y0135997D02*
X0326410Y0135997D01*
X0326410Y0136193D02*
X0327198Y0136193D01*
X0327198Y0136389D02*
X0326410Y0136389D01*
X0326410Y0136585D02*
X0327198Y0136585D01*
X0327198Y0136781D02*
X0326410Y0136781D01*
X0326410Y0136977D02*
X0327198Y0136977D01*
D28*
X0324245Y0138268D03*
X0272080Y0138268D03*
X0222276Y0138268D03*
X0168930Y0138071D03*
X0114402Y0138071D03*
D29*
X0120701Y0152047D02*
X0127001Y0152047D01*
X0127001Y0141811D01*
X0120701Y0141811D01*
X0120701Y0152047D01*
X0120701Y0143385D02*
X0127001Y0143385D01*
X0127001Y0144959D02*
X0120701Y0144959D01*
X0120701Y0146533D02*
X0127001Y0146533D01*
X0127001Y0148107D02*
X0120701Y0148107D01*
X0120701Y0149681D02*
X0127001Y0149681D01*
X0127001Y0151255D02*
X0120701Y0151255D01*
X0175229Y0152047D02*
X0181529Y0152047D01*
X0181529Y0141811D01*
X0175229Y0141811D01*
X0175229Y0152047D01*
X0175229Y0143385D02*
X0181529Y0143385D01*
X0181529Y0144959D02*
X0175229Y0144959D01*
X0175229Y0146533D02*
X0181529Y0146533D01*
X0181529Y0148107D02*
X0175229Y0148107D01*
X0175229Y0149681D02*
X0181529Y0149681D01*
X0181529Y0151255D02*
X0175229Y0151255D01*
X0228575Y0152244D02*
X0234875Y0152244D01*
X0234875Y0142008D01*
X0228575Y0142008D01*
X0228575Y0152244D01*
X0228575Y0143582D02*
X0234875Y0143582D01*
X0234875Y0145156D02*
X0228575Y0145156D01*
X0228575Y0146730D02*
X0234875Y0146730D01*
X0234875Y0148304D02*
X0228575Y0148304D01*
X0228575Y0149878D02*
X0234875Y0149878D01*
X0234875Y0151452D02*
X0228575Y0151452D01*
X0278378Y0152244D02*
X0284678Y0152244D01*
X0284678Y0142008D01*
X0278378Y0142008D01*
X0278378Y0152244D01*
X0278378Y0143582D02*
X0284678Y0143582D01*
X0284678Y0145156D02*
X0278378Y0145156D01*
X0278378Y0146730D02*
X0284678Y0146730D01*
X0284678Y0148304D02*
X0278378Y0148304D01*
X0278378Y0149878D02*
X0284678Y0149878D01*
X0284678Y0151452D02*
X0278378Y0151452D01*
X0330544Y0152244D02*
X0336844Y0152244D01*
X0336844Y0142008D01*
X0330544Y0142008D01*
X0330544Y0152244D01*
X0330544Y0143582D02*
X0336844Y0143582D01*
X0336844Y0145156D02*
X0330544Y0145156D01*
X0330544Y0146730D02*
X0336844Y0146730D01*
X0336844Y0148304D02*
X0330544Y0148304D01*
X0330544Y0149878D02*
X0336844Y0149878D01*
X0336844Y0151452D02*
X0330544Y0151452D01*
D30*
X0352788Y0168386D03*
X0352788Y0170945D03*
X0352788Y0173504D03*
X0352788Y0177047D03*
X0352788Y0179606D03*
X0352788Y0182165D03*
X0359481Y0182165D03*
X0359481Y0177047D03*
X0359481Y0173504D03*
X0359481Y0168386D03*
X0307906Y0168386D03*
X0307906Y0173504D03*
X0307709Y0177244D03*
X0301017Y0177244D03*
X0301017Y0179803D03*
X0301017Y0182362D03*
X0307709Y0182362D03*
X0301213Y0173504D03*
X0301213Y0170945D03*
X0301213Y0168386D03*
X0256331Y0170354D03*
X0256331Y0175472D03*
X0255938Y0179016D03*
X0255938Y0184134D03*
X0249245Y0184134D03*
X0249245Y0181575D03*
X0249245Y0179016D03*
X0249639Y0175472D03*
X0249639Y0172913D03*
X0249639Y0170354D03*
X0205938Y0171929D03*
X0205938Y0176457D03*
X0205938Y0181575D03*
X0199245Y0181575D03*
X0199245Y0179016D03*
X0199245Y0176457D03*
X0199245Y0171929D03*
X0199245Y0169370D03*
X0199245Y0166811D03*
X0205938Y0166811D03*
X0150032Y0167402D03*
X0150032Y0172520D03*
X0150032Y0176260D03*
X0150032Y0181378D03*
X0143339Y0181378D03*
X0143339Y0178819D03*
X0143339Y0176260D03*
X0143339Y0172520D03*
X0143339Y0169961D03*
X0143339Y0167402D03*
M02*
