%
M48
M72
T01C0.01181
T02C0.01201
T03C0.04000
T04C0.05500
T05C0.06299
%
T01
X51607Y61102
X76410Y61299
X92355Y86890
X92158Y90433
X93733Y93780
X93733Y98701
X102591Y86890
X127788Y101063
X117158Y111496
X120111Y118583
X117355Y124488
X117552Y132165
X138615Y139252
X142552Y140630
X148457Y142008
X139206Y148701
X136253Y147717
X137237Y152047
X128576Y161693
X122276Y161890
X118930Y161890
X111253Y166811
X111056Y154803
X98064Y162283
X96095Y157953
X92946Y153819
X81135Y162283
X63221Y171535
X113418Y189646
X117946Y197126
X125623Y202441
X130150Y201457
X133300Y202638
X141961Y195748
X145898Y195945
X139402Y189646
X150623Y206378
X158497Y210512
X166961Y206378
X171686Y211102
X181331Y214055
X184087Y210512
X187040Y211693
X179363Y201457
X174048Y201654
X208694Y206575
X220308Y206575
X224442Y211299
X227394Y212087
X235072Y213071
X227788Y222126
X221883Y232756
X212040Y224488
X212631Y242008
X209087Y243976
X217552Y242795
X234481Y236496
X239599Y235709
X252198Y232953
X256135Y234724
X265780Y236693
X269914Y229606
X273457Y228819
X280938Y236693
X285269Y233740
X287434Y238465
X292158Y233740
X301607Y235709
X299639Y248504
X295702Y255394
X283891Y250276
X276017Y248504
X270505Y253228
X257513Y253819
X252001Y249094
X229954Y265630
X217355Y265827
X217158Y277638
X239402Y277835
X269520Y276850
X299442Y266220
X317946Y276063
X339402Y255787
X363024Y242795
X363024Y234724
X363221Y228425
X383891Y218976
X391961Y216811
X396292Y216811
X395702Y229606
X398654Y229606
X430544Y239055
X430544Y246732
X430544Y254016
X402985Y258740
X372473Y255000
X330938Y221535
X327001Y221535
X329757Y217402
X329757Y214055
X321686Y206181
X314796Y211890
X310269Y212480
X308694Y206181
X307119Y196142
X301607Y196535
X299048Y190827
X290190Y202244
X285859Y201654
X282709Y201654
X277591Y202441
X274835Y197126
X270111Y190433
X269520Y206174
X269717Y209724
X276410Y211496
X270702Y217992
X261056Y214646
X258891Y206181
X245702Y206181
X240190Y201654
X232709Y201457
X235072Y162283
X230347Y162087
X226804Y162087
X214796Y160709
X206135Y155591
X193930Y151850
X194324Y148307
X191174Y147717
X191961Y139843
X194324Y137283
X198457Y139646
X172080Y132165
X171489Y123898
X174835Y119173
X171883Y113661
X182906Y102441
X180938Y93386
X177394Y92205
X199245Y91811
X199639Y75276
X223654Y85709
X227394Y90827
X237434Y84724
X235465Y103031
X228576Y109724
X225229Y114055
X225032Y124291
X225229Y132362
X244520Y139646
X248851Y140039
X257119Y135512
X247080Y149882
X245111Y152244
X244520Y147913
X256922Y151260
X258300Y158740
X264796Y161693
X269717Y161693
X276410Y162283
X280150Y162480
X285072Y162480
X299048Y152244
X299442Y148504
X294520Y150079
X294520Y139843
X301213Y137087
X304166Y140236
X321489Y154213
X322080Y161299
X317749Y161299
X311843Y160512
X308497Y158150
X327788Y161693
X332316Y162283
X337434Y162283
X346095Y147913
X349245Y147913
X350426Y150669
X359481Y150669
X346095Y127835
X349442Y125079
X326804Y122520
X327591Y132165
X320308Y110512
X310072Y99882
X304954Y106181
X301410Y103031
X300426Y108346
X284284Y103622
X278182Y109724
X274442Y114843
X274245Y123701
X275032Y132362
X268733Y155591
X323851Y190827
X327001Y194173
X329560Y200669
X334481Y197323
X337040Y200472
X340977Y200866
X361843Y192205
X309087Y221142
X288615Y212087
X285072Y211890
X197080Y241614
X186843Y243780
X176410Y242402
X169520Y235315
X154560Y230591
X149442Y230000
X145308Y235118
X131528Y227047
X129166Y229606
X121292Y235118
X114993Y227638
X108891Y231181
X100426Y239055
X111253Y241220
X117749Y251654
X106922Y275472
X133891Y279213
X154954Y251654
X162237Y251654
X171489Y254409
X124048Y217598
X119127Y216614
X116568Y213465
X110465Y210315
X113221Y206378
X103576Y210118
X101213Y213465
X105938Y217402
X97670Y221732
X88418Y217598
X90190Y213465
X92355Y210118
X76410Y227835
X86253Y239055
X63812Y236299
X128379Y211299
X162631Y163071
X165780Y156772
X157709Y156575
X153379Y157362
X173457Y162677
X177001Y162087
X181725Y162087
X142355Y96142
X133694Y87087
X136450Y85118
X86646Y112283
X268536Y85709
X286056Y92992
X303182Y90433
X308891Y77244
X309481Y73110
X319520Y95157
X324442Y97520
X331528Y94764
X339993Y103622
X348851Y103425
X351607Y92598
X346686Y86102
X374048Y88858
X381725Y95551
X377198Y99685
X401804Y86102
X405347Y94764
X400820Y67008
X387828Y50079
X360269Y49685
X332316Y49094
X305150Y48701
X419520Y202638
X64599Y304016
T02
X84087Y270256
X87729Y270256
X87729Y265335
X83891Y265335
X83891Y260610
X87729Y260610
X84580Y202441
X82513Y200079
X84776Y197717
X82513Y195157
X84580Y192402
X82513Y190039
X105839Y181378
X118635Y174685
X121194Y174685
X137729Y167795
X137729Y164843
X142847Y164055
X128772Y154508
X125623Y154508
X125623Y151358
X125623Y148406
X125623Y145453
X125623Y142500
X128772Y142500
X128772Y145453
X128772Y148406
X128772Y151358
X122080Y151358
X122080Y148406
X122080Y145453
X122080Y142500
X122080Y139350
X125623Y139350
X128772Y139350
X118536Y139350
X118536Y142500
X118536Y145453
X118536Y148406
X118536Y151358
X118536Y154508
X122080Y154508
X106331Y151358
X84973Y141024
X82414Y139055
X84973Y136693
X82414Y134134
X84973Y131575
X82414Y129016
X98950Y122717
X101706Y122717
X101706Y119764
X98950Y119764
X107906Y128524
X123359Y114449
X123359Y111496
X126509Y111496
X126509Y114449
X114304Y102638
X114304Y99685
X111154Y99685
X111154Y102638
X155052Y119567
X157808Y119567
X157808Y122520
X155052Y122520
X163418Y128720
X172867Y139350
X172867Y142500
X172867Y145453
X172867Y148602
X172867Y151555
X172867Y154508
X176410Y154508
X176410Y151555
X176410Y148602
X176410Y145453
X176410Y142303
X176410Y139350
X180150Y139350
X180150Y142303
X180150Y145453
X180150Y148602
X180150Y151555
X180150Y154508
X183891Y154508
X183891Y151555
X183891Y148602
X183891Y145453
X183891Y142303
X183891Y139350
X201804Y137579
X216568Y128524
X209383Y122717
X206627Y122717
X206627Y119764
X209383Y119764
X218635Y105591
X218635Y102638
X221784Y102638
X221784Y105591
X231824Y112087
X231824Y115039
X234973Y115039
X234973Y112087
X258398Y119961
X261154Y119961
X261154Y122913
X258398Y122913
X269324Y122618
X280839Y115039
X280839Y112087
X283989Y112087
X283989Y115039
X272572Y106181
X272572Y103228
X269422Y103228
X269422Y106181
X308989Y119961
X311745Y119961
X311745Y122913
X308989Y122913
X318438Y127244
X328182Y139350
X331528Y139350
X331528Y142697
X331528Y145846
X331528Y148602
X331528Y151555
X328182Y151555
X328182Y148602
X328182Y145846
X328182Y142697
X335465Y142697
X335465Y145846
X335465Y148602
X335465Y151555
X335465Y154902
X338812Y154902
X338812Y151555
X338812Y148602
X338812Y145846
X338812Y142697
X338812Y139350
X335465Y139350
X331528Y154902
X328182Y154902
X346981Y165630
X346981Y168976
X356430Y179606
X333398Y193780
X321587Y203031
X332020Y209921
X340485Y212677
X340485Y216614
X349146Y216614
X349146Y212874
X349146Y208543
X349146Y204803
X370209Y204803
X370209Y208543
X370209Y212874
X370209Y216614
X379757Y236791
X388221Y237579
X388221Y240335
X391174Y240335
X391174Y237579
X401017Y237972
X404166Y237972
X407709Y237972
X410859Y237972
X396489Y246831
X396489Y249980
X400820Y252539
X403969Y252539
X407513Y252539
X410662Y252539
X423359Y262480
X427099Y262480
X435564Y224291
X435564Y220551
X435564Y216220
X435564Y212480
X414304Y212480
X414304Y216220
X409776Y216220
X409776Y212480
X409776Y220551
X409776Y224291
X414304Y224291
X414304Y220551
X381331Y251161
X342552Y244469
X339402Y244469
X335859Y244469
X332709Y244469
X327394Y242894
X327394Y239547
X322080Y232461
X322080Y229508
X318930Y229508
X318930Y232461
X310072Y229114
X301706Y224094
X289107Y218386
X280052Y211299
X281233Y229213
X298950Y241614
X313812Y241713
X331725Y230295
X334875Y230295
X338418Y230295
X341568Y230295
X320013Y181969
X328477Y173898
X331430Y173898
X304461Y180000
X295603Y168780
X295603Y165827
X300918Y164843
X286843Y154902
X283497Y154902
X283497Y151555
X283497Y148602
X283497Y145846
X283497Y142697
X286646Y142697
X286843Y145846
X286843Y148602
X286843Y151555
X279757Y151358
X279757Y148406
X279757Y145650
X276607Y145650
X276607Y148406
X276607Y151358
X276607Y154705
X279757Y154705
X279757Y142500
X279757Y139350
X276607Y139350
X276607Y142500
X283497Y139350
X286843Y139350
X264501Y151260
X252493Y165039
X245997Y164646
X245997Y167205
X237237Y154902
X237237Y151752
X237237Y148799
X237237Y145846
X237237Y142697
X233891Y142697
X233891Y145846
X233891Y148799
X233891Y151752
X233891Y154902
X229954Y154902
X229954Y151752
X229954Y148799
X229954Y145846
X229954Y142697
X229954Y139350
X226607Y139350
X226607Y142697
X226607Y145846
X226607Y148799
X226607Y151752
X226607Y154902
X214206Y151161
X199343Y158740
X199343Y162480
X192847Y165827
X192847Y168583
X202690Y179016
X217650Y180394
X226706Y174094
X229461Y174094
X253083Y181575
X268044Y181969
X276312Y174094
X279265Y174094
X237237Y139350
X233891Y139350
X181627Y114843
X181627Y111890
X178477Y111890
X178477Y114843
X169028Y105394
X169028Y102441
X165879Y102441
X165879Y105394
X159875Y151555
X172965Y174488
X175721Y174488
X164304Y181969
X146686Y178720
X137139Y183543
X85367Y64252
X82414Y64252
X82414Y61102
X85367Y61102
X323359Y105984
X326312Y105984
X326312Y108937
X323359Y108937
X333005Y112283
X333005Y115236
X336154Y115236
X336154Y112283
X386351Y96732
X386351Y83937
X385761Y76260
X385761Y66024
X408202Y66220
X408595Y76850
X409383Y84921
X409776Y96535
T03
X364658Y80571
X354658Y80571
X344658Y80571
X334658Y80571
X324658Y80571
X314658Y80571
X304658Y80571
X294658Y80571
X284658Y80571
X274658Y80571
X264658Y80571
X254658Y80571
X244658Y80571
X234658Y80571
X224658Y80571
X214658Y80571
X204658Y80571
X194658Y80571
X184658Y80571
X174658Y80571
X164658Y80571
X154658Y80571
X144658Y80571
X144658Y70571
X154658Y70571
X164658Y70571
X174658Y70571
X184658Y70571
X194658Y70571
X204658Y70571
X214658Y70571
X224658Y70571
X234658Y70571
X244658Y70571
X254658Y70571
X264658Y70571
X274658Y70571
X284658Y70571
X294658Y70571
X304658Y70571
X314658Y70571
X324658Y70571
X334658Y70571
X344658Y70571
X354658Y70571
X364658Y70571
X371804Y55000
X381804Y55000
X399363Y55000
X409363Y55000
X353457Y55000
X343457Y55000
X325505Y55000
X315505Y55000
X291213Y55000
X281213Y55000
X271213Y55000
X261213Y55000
X248300Y55197
X238300Y55197
X228300Y55197
X218300Y55197
X205387Y55000
X195387Y55000
X185387Y55000
X175387Y55000
X162670Y55000
X152670Y55000
X142670Y55000
X132670Y55000
X120150Y55000
X110150Y55000
X100150Y55000
X90150Y55000
X144658Y261024
X154658Y261024
X164658Y261024
X174658Y261024
X174658Y271024
X164658Y271024
X154658Y271024
X144658Y271024
X143457Y288465
X153457Y288465
X165308Y288071
X175308Y288071
X188930Y288071
X198930Y288071
X214048Y288071
X224048Y288071
X234048Y288071
X246331Y288071
X256331Y288071
X266331Y288071
X278418Y288071
X288418Y288071
X298418Y288071
X311489Y288071
X321489Y288071
X331489Y288071
X343379Y288071
X353379Y288071
X363379Y288071
X375190Y288071
X385190Y288071
X395190Y288071
X405190Y288071
X364658Y271024
X354658Y271024
X344658Y271024
X334658Y271024
X324658Y271024
X314658Y271024
X304658Y271024
X294658Y271024
X284658Y271024
X274658Y271024
X264658Y271024
X254658Y271024
X244658Y271024
X234658Y271024
X224658Y271024
X214658Y271024
X204658Y271024
X194658Y271024
X184658Y271024
X184658Y261024
X194658Y261024
X204658Y261024
X214658Y261024
X224658Y261024
X234658Y261024
X244658Y261024
X254658Y261024
X264658Y261024
X274658Y261024
X284658Y261024
X294658Y261024
X304658Y261024
X314658Y261024
X324658Y261024
X334658Y261024
X344658Y261024
X354658Y261024
X364658Y261024
X117119Y287677
X107119Y287677
X97119Y287677
T04
X40800Y48031
X40800Y68031
X40800Y88031
X40800Y108031
X40800Y136535
X40800Y156535
X40800Y185039
X40800Y205039
X40800Y225039
X40800Y245039
X40800Y273543
X40800Y293543
T05
X57906Y104843
X71292Y104843
X71292Y51850
X57906Y51850
M30
