G75*
%MOIN*%
%OFA0B0*%
%FSLAX25Y25*%
%IPPOS*%
%LPD*%
%AMOC8*
5,1,8,0,0,1.08239X$1,22.5*
%
%ADD10C,0.00000*%
D10*
X0024835Y0033740D02*
X0074835Y0033740D01*
X0074836Y0033740D02*
X0074955Y0033754D01*
X0075075Y0033773D01*
X0075193Y0033795D01*
X0075311Y0033821D01*
X0075428Y0033850D01*
X0075543Y0033884D01*
X0075658Y0033921D01*
X0075772Y0033962D01*
X0075884Y0034006D01*
X0075994Y0034054D01*
X0076103Y0034106D01*
X0076211Y0034161D01*
X0076316Y0034219D01*
X0076420Y0034281D01*
X0076521Y0034346D01*
X0076621Y0034414D01*
X0076718Y0034486D01*
X0076812Y0034560D01*
X0076905Y0034638D01*
X0076995Y0034718D01*
X0077082Y0034801D01*
X0077166Y0034887D01*
X0077248Y0034976D01*
X0077327Y0035067D01*
X0077403Y0035161D01*
X0077476Y0035257D01*
X0077545Y0035355D01*
X0077612Y0035456D01*
X0077675Y0035558D01*
X0077735Y0035663D01*
X0077792Y0035769D01*
X0077845Y0035878D01*
X0077894Y0035988D01*
X0077940Y0036099D01*
X0077983Y0036212D01*
X0078022Y0036326D01*
X0078057Y0036441D01*
X0078088Y0036558D01*
X0078116Y0036675D01*
X0078140Y0036793D01*
X0078160Y0036912D01*
X0078176Y0037032D01*
X0078189Y0037151D01*
X0078197Y0037272D01*
X0078202Y0037392D01*
X0078203Y0037513D01*
X0078200Y0037633D01*
X0078193Y0037754D01*
X0078182Y0037874D01*
X0078182Y0049685D01*
X0081528Y0049685D01*
X0081528Y0049291D01*
X0081528Y0049292D02*
X0081534Y0049177D01*
X0081543Y0049062D01*
X0081556Y0048947D01*
X0081572Y0048833D01*
X0081593Y0048720D01*
X0081617Y0048607D01*
X0081645Y0048496D01*
X0081677Y0048385D01*
X0081712Y0048275D01*
X0081751Y0048167D01*
X0081794Y0048060D01*
X0081840Y0047955D01*
X0081890Y0047851D01*
X0081943Y0047749D01*
X0082000Y0047648D01*
X0082059Y0047550D01*
X0082123Y0047454D01*
X0082189Y0047359D01*
X0082258Y0047268D01*
X0082331Y0047178D01*
X0082406Y0047091D01*
X0082484Y0047006D01*
X0082565Y0046925D01*
X0082649Y0046846D01*
X0082735Y0046769D01*
X0082824Y0046696D01*
X0082915Y0046626D01*
X0083009Y0046558D01*
X0083105Y0046494D01*
X0083202Y0046434D01*
X0083302Y0046376D01*
X0083404Y0046322D01*
X0083507Y0046271D01*
X0083612Y0046224D01*
X0083719Y0046180D01*
X0083827Y0046140D01*
X0083936Y0046104D01*
X0084046Y0046071D01*
X0084158Y0046042D01*
X0084270Y0046016D01*
X0084383Y0045995D01*
X0084497Y0045977D01*
X0084611Y0045963D01*
X0084726Y0045953D01*
X0084841Y0045947D01*
X0084956Y0045944D01*
X0085071Y0045945D01*
X0085072Y0045945D02*
X0296292Y0045945D01*
X0296376Y0045960D01*
X0296459Y0045979D01*
X0296541Y0046002D01*
X0296621Y0046028D01*
X0296701Y0046058D01*
X0296779Y0046091D01*
X0296856Y0046128D01*
X0296930Y0046168D01*
X0297003Y0046212D01*
X0297074Y0046258D01*
X0297143Y0046308D01*
X0297209Y0046361D01*
X0297273Y0046417D01*
X0297335Y0046476D01*
X0297394Y0046537D01*
X0297450Y0046601D01*
X0297503Y0046668D01*
X0297553Y0046736D01*
X0297599Y0046807D01*
X0297643Y0046880D01*
X0297683Y0046955D01*
X0297720Y0047031D01*
X0297754Y0047109D01*
X0297783Y0047189D01*
X0297810Y0047270D01*
X0297832Y0047352D01*
X0297851Y0047434D01*
X0297867Y0047518D01*
X0297878Y0047602D01*
X0297886Y0047687D01*
X0297890Y0047772D01*
X0297890Y0047857D01*
X0297886Y0047941D01*
X0297878Y0048026D01*
X0297867Y0048110D01*
X0297867Y0050276D01*
X0301804Y0050276D01*
X0301804Y0048504D01*
X0301802Y0048405D01*
X0301804Y0048306D01*
X0301810Y0048207D01*
X0301820Y0048108D01*
X0301834Y0048010D01*
X0301852Y0047913D01*
X0301874Y0047816D01*
X0301899Y0047720D01*
X0301929Y0047625D01*
X0301962Y0047532D01*
X0301999Y0047440D01*
X0302040Y0047349D01*
X0302084Y0047261D01*
X0302132Y0047174D01*
X0302184Y0047089D01*
X0302238Y0047006D01*
X0302296Y0046926D01*
X0302358Y0046848D01*
X0302422Y0046772D01*
X0302489Y0046699D01*
X0302559Y0046629D01*
X0302632Y0046562D01*
X0302708Y0046498D01*
X0302786Y0046437D01*
X0302866Y0046379D01*
X0302949Y0046324D01*
X0303034Y0046273D01*
X0303121Y0046225D01*
X0303210Y0046180D01*
X0303300Y0046140D01*
X0303392Y0046103D01*
X0303486Y0046070D01*
X0303580Y0046040D01*
X0303676Y0046014D01*
X0303773Y0045993D01*
X0303871Y0045975D01*
X0303969Y0045961D01*
X0304068Y0045951D01*
X0304167Y0045945D01*
X0304166Y0045945D02*
X0413221Y0045945D01*
X0413222Y0045945D02*
X0413356Y0045939D01*
X0413491Y0045936D01*
X0413626Y0045937D01*
X0413761Y0045942D01*
X0413895Y0045951D01*
X0414029Y0045964D01*
X0414163Y0045981D01*
X0414296Y0046002D01*
X0414429Y0046027D01*
X0414561Y0046055D01*
X0414692Y0046087D01*
X0414822Y0046123D01*
X0414950Y0046163D01*
X0415078Y0046207D01*
X0415204Y0046254D01*
X0415329Y0046305D01*
X0415452Y0046359D01*
X0415574Y0046417D01*
X0415694Y0046479D01*
X0415812Y0046544D01*
X0415928Y0046613D01*
X0416042Y0046684D01*
X0416154Y0046759D01*
X0416264Y0046838D01*
X0416372Y0046919D01*
X0416477Y0047004D01*
X0416579Y0047091D01*
X0416679Y0047182D01*
X0416776Y0047275D01*
X0416871Y0047372D01*
X0416962Y0047470D01*
X0417051Y0047572D01*
X0417137Y0047676D01*
X0417219Y0047783D01*
X0417299Y0047891D01*
X0417375Y0048003D01*
X0417448Y0048116D01*
X0417518Y0048231D01*
X0417584Y0048349D01*
X0417647Y0048468D01*
X0417707Y0048589D01*
X0417763Y0048712D01*
X0417815Y0048836D01*
X0417864Y0048962D01*
X0417909Y0049089D01*
X0417950Y0049217D01*
X0417987Y0049346D01*
X0418021Y0049477D01*
X0418051Y0049608D01*
X0418077Y0049741D01*
X0418099Y0049874D01*
X0418118Y0050007D01*
X0418132Y0050141D01*
X0418143Y0050276D01*
X0418143Y0127047D01*
X0364171Y0127047D01*
X0364171Y0198110D01*
X0447276Y0198110D01*
X0447276Y0255000D01*
X0447281Y0255982D01*
X0447262Y0256965D01*
X0447219Y0257946D01*
X0447153Y0258926D01*
X0447063Y0259905D01*
X0446949Y0260881D01*
X0446812Y0261853D01*
X0446651Y0262823D01*
X0446467Y0263788D01*
X0446260Y0264748D01*
X0446029Y0265703D01*
X0445776Y0266652D01*
X0445500Y0267595D01*
X0445201Y0268531D01*
X0444879Y0269459D01*
X0444535Y0270379D01*
X0444169Y0271291D01*
X0443781Y0272194D01*
X0443371Y0273087D01*
X0442940Y0273970D01*
X0442488Y0274842D01*
X0442015Y0275703D01*
X0441521Y0276552D01*
X0441006Y0277389D01*
X0440472Y0278213D01*
X0439918Y0279025D01*
X0439344Y0279822D01*
X0438752Y0280606D01*
X0438140Y0281375D01*
X0437510Y0282129D01*
X0436862Y0282867D01*
X0436197Y0283590D01*
X0435514Y0284296D01*
X0434814Y0284986D01*
X0434098Y0285658D01*
X0433366Y0286314D01*
X0432618Y0286951D01*
X0431855Y0287570D01*
X0431077Y0288170D01*
X0430285Y0288751D01*
X0429480Y0289313D01*
X0428660Y0289856D01*
X0427828Y0290378D01*
X0426984Y0290880D01*
X0426128Y0291362D01*
X0425260Y0291823D01*
X0424381Y0292262D01*
X0423492Y0292681D01*
X0422594Y0293077D01*
X0421686Y0293452D01*
X0420769Y0293805D01*
X0419844Y0294136D01*
X0418911Y0294444D01*
X0417971Y0294729D01*
X0417024Y0294992D01*
X0416071Y0295232D01*
X0415113Y0295449D01*
X0414150Y0295642D01*
X0413182Y0295812D01*
X0412211Y0295959D01*
X0411236Y0296082D01*
X0410259Y0296181D01*
X0409279Y0296257D01*
X0408298Y0296310D01*
X0407316Y0296338D01*
X0407316Y0296339D02*
X0210564Y0296339D01*
X0210474Y0296332D01*
X0210384Y0296322D01*
X0210295Y0296308D01*
X0210206Y0296290D01*
X0210119Y0296268D01*
X0210032Y0296243D01*
X0209947Y0296213D01*
X0209863Y0296180D01*
X0209780Y0296144D01*
X0209699Y0296103D01*
X0209620Y0296060D01*
X0209543Y0296013D01*
X0209469Y0295962D01*
X0209396Y0295908D01*
X0209326Y0295852D01*
X0209258Y0295792D01*
X0209193Y0295729D01*
X0209131Y0295664D01*
X0209072Y0295596D01*
X0209016Y0295525D01*
X0208963Y0295452D01*
X0208913Y0295377D01*
X0208866Y0295299D01*
X0208823Y0295220D01*
X0208783Y0295139D01*
X0208747Y0295056D01*
X0208715Y0294972D01*
X0208686Y0294886D01*
X0208661Y0294800D01*
X0208640Y0294712D01*
X0208623Y0294623D01*
X0208610Y0294534D01*
X0208600Y0294444D01*
X0208595Y0294354D01*
X0208593Y0294264D01*
X0208595Y0294174D01*
X0208595Y0294173D02*
X0208595Y0292795D01*
X0205150Y0292795D01*
X0205150Y0294764D01*
X0205151Y0294764D02*
X0205154Y0294838D01*
X0205153Y0294913D01*
X0205149Y0294988D01*
X0205140Y0295063D01*
X0205128Y0295137D01*
X0205112Y0295210D01*
X0205093Y0295283D01*
X0205070Y0295354D01*
X0205043Y0295424D01*
X0205013Y0295493D01*
X0204979Y0295560D01*
X0204942Y0295625D01*
X0204902Y0295688D01*
X0204859Y0295749D01*
X0204812Y0295808D01*
X0204763Y0295864D01*
X0204711Y0295918D01*
X0204656Y0295969D01*
X0204598Y0296018D01*
X0204539Y0296063D01*
X0204477Y0296105D01*
X0204413Y0296144D01*
X0204347Y0296180D01*
X0204279Y0296213D01*
X0204210Y0296242D01*
X0204139Y0296267D01*
X0204068Y0296289D01*
X0203995Y0296307D01*
X0203921Y0296321D01*
X0203847Y0296332D01*
X0203772Y0296339D01*
X0139009Y0296339D01*
X0139008Y0296339D02*
X0138918Y0296341D01*
X0138828Y0296339D01*
X0138738Y0296334D01*
X0138648Y0296324D01*
X0138559Y0296311D01*
X0138470Y0296294D01*
X0138382Y0296273D01*
X0138296Y0296248D01*
X0138210Y0296219D01*
X0138126Y0296187D01*
X0138043Y0296151D01*
X0137962Y0296111D01*
X0137883Y0296068D01*
X0137805Y0296021D01*
X0137730Y0295971D01*
X0137657Y0295918D01*
X0137586Y0295862D01*
X0137518Y0295803D01*
X0137453Y0295741D01*
X0137390Y0295676D01*
X0137330Y0295608D01*
X0137274Y0295538D01*
X0137220Y0295465D01*
X0137169Y0295391D01*
X0137122Y0295314D01*
X0137079Y0295235D01*
X0137038Y0295154D01*
X0137002Y0295071D01*
X0136969Y0294987D01*
X0136939Y0294902D01*
X0136914Y0294815D01*
X0136892Y0294728D01*
X0136874Y0294639D01*
X0136860Y0294550D01*
X0136850Y0294460D01*
X0136843Y0294370D01*
X0136843Y0292795D01*
X0133694Y0292795D01*
X0133694Y0293780D01*
X0133696Y0293876D01*
X0133694Y0293973D01*
X0133689Y0294070D01*
X0133679Y0294166D01*
X0133666Y0294262D01*
X0133649Y0294357D01*
X0133628Y0294451D01*
X0133604Y0294545D01*
X0133576Y0294637D01*
X0133544Y0294729D01*
X0133509Y0294819D01*
X0133470Y0294908D01*
X0133428Y0294995D01*
X0133383Y0295080D01*
X0133334Y0295163D01*
X0133282Y0295245D01*
X0133227Y0295324D01*
X0133168Y0295401D01*
X0133107Y0295476D01*
X0133043Y0295549D01*
X0132976Y0295618D01*
X0132906Y0295685D01*
X0132834Y0295750D01*
X0132759Y0295811D01*
X0132682Y0295870D01*
X0132603Y0295925D01*
X0132521Y0295977D01*
X0132438Y0296026D01*
X0132353Y0296072D01*
X0132266Y0296114D01*
X0132177Y0296153D01*
X0132087Y0296188D01*
X0131996Y0296220D01*
X0131903Y0296248D01*
X0131810Y0296273D01*
X0131715Y0296293D01*
X0131620Y0296310D01*
X0131524Y0296324D01*
X0131428Y0296333D01*
X0131331Y0296339D01*
X0085662Y0296339D01*
X0085539Y0296346D01*
X0085416Y0296350D01*
X0085292Y0296349D01*
X0085169Y0296345D01*
X0085046Y0296337D01*
X0084923Y0296324D01*
X0084801Y0296308D01*
X0084679Y0296288D01*
X0084558Y0296264D01*
X0084438Y0296236D01*
X0084318Y0296204D01*
X0084200Y0296169D01*
X0084083Y0296130D01*
X0083968Y0296087D01*
X0083853Y0296040D01*
X0083741Y0295990D01*
X0083630Y0295936D01*
X0083520Y0295878D01*
X0083413Y0295817D01*
X0083308Y0295753D01*
X0083204Y0295685D01*
X0083104Y0295614D01*
X0083005Y0295540D01*
X0082909Y0295463D01*
X0082815Y0295383D01*
X0082724Y0295299D01*
X0082635Y0295213D01*
X0082550Y0295124D01*
X0082467Y0295033D01*
X0082388Y0294938D01*
X0082311Y0294842D01*
X0082237Y0294742D01*
X0082167Y0294641D01*
X0082100Y0294537D01*
X0082037Y0294432D01*
X0081976Y0294324D01*
X0081920Y0294214D01*
X0081867Y0294103D01*
X0081817Y0293990D01*
X0081771Y0293875D01*
X0081729Y0293759D01*
X0081690Y0293642D01*
X0081656Y0293524D01*
X0081625Y0293404D01*
X0081598Y0293284D01*
X0081574Y0293163D01*
X0081555Y0293041D01*
X0081540Y0292918D01*
X0081528Y0292795D01*
X0078182Y0292795D01*
X0078182Y0304409D01*
X0078183Y0304409D02*
X0078177Y0304520D01*
X0078168Y0304631D01*
X0078155Y0304741D01*
X0078139Y0304851D01*
X0078119Y0304960D01*
X0078095Y0305068D01*
X0078067Y0305176D01*
X0078035Y0305282D01*
X0078001Y0305388D01*
X0077962Y0305492D01*
X0077920Y0305594D01*
X0077874Y0305695D01*
X0077825Y0305795D01*
X0077773Y0305893D01*
X0077717Y0305989D01*
X0077658Y0306083D01*
X0077596Y0306175D01*
X0077531Y0306265D01*
X0077463Y0306352D01*
X0077392Y0306437D01*
X0077318Y0306520D01*
X0077241Y0306600D01*
X0077161Y0306678D01*
X0077079Y0306752D01*
X0076995Y0306824D01*
X0076908Y0306893D01*
X0076818Y0306959D01*
X0076727Y0307022D01*
X0076633Y0307081D01*
X0076538Y0307138D01*
X0076440Y0307191D01*
X0076341Y0307241D01*
X0076240Y0307287D01*
X0076138Y0307330D01*
X0076034Y0307369D01*
X0075929Y0307405D01*
X0075823Y0307437D01*
X0075716Y0307466D01*
X0075607Y0307490D01*
X0075499Y0307512D01*
X0075389Y0307529D01*
X0075279Y0307543D01*
X0075168Y0307553D01*
X0075057Y0307559D01*
X0074947Y0307561D01*
X0074836Y0307560D01*
X0074835Y0307559D02*
X0024835Y0307559D01*
X0024835Y0033740D01*
M02*
