%
M48
M72
T01C0.01181
T02C0.01201
T03C0.02362
T04C0.04000
T05C0.05500
T06C0.06299
%
T01
X51607Y61102
X76410Y61299
X92355Y86890
X92158Y90433
X93733Y93780
X93733Y98701
X86646Y112283
X117355Y124488
X117552Y132165
X133694Y133346
X138615Y139252
X142552Y140630
X136253Y147717
X139206Y148701
X137237Y152047
X128576Y161693
X122276Y161890
X118930Y161890
X111056Y155000
X107316Y162874
X98064Y162283
X96095Y157953
X92946Y153819
X81135Y162283
X110859Y196339
X113221Y206378
X110465Y210315
X103576Y210118
X101213Y213465
X105938Y217402
X97670Y221732
X88418Y217598
X90190Y213465
X92355Y210118
X76410Y227835
X86253Y239055
X100426Y239055
X111253Y241220
X117749Y251654
X121292Y235118
X129166Y229606
X131528Y227047
X124048Y217598
X119127Y216614
X116568Y213465
X128379Y211299
X125623Y202441
X133300Y202638
X141371Y206378
X150229Y206378
X158497Y210512
X166961Y206378
X174048Y201654
X179363Y201457
X187040Y211693
X181528Y214055
X196095Y206575
X208694Y206575
X220308Y206575
X224442Y211299
X227394Y212087
X235072Y212283
X227788Y222126
X221883Y232756
X217552Y242795
X212631Y241220
X209087Y243976
X197080Y241220
X186843Y243780
X176213Y241220
X168733Y235315
X154560Y230591
X149442Y230000
X145308Y235118
X164206Y251654
X171489Y254409
X133891Y279213
X106922Y275472
X108891Y231181
X114993Y227638
X145111Y196535
X162828Y163268
X165780Y156772
X157709Y156575
X153379Y157362
X148457Y142008
X172080Y132165
X171489Y123898
X188024Y132953
X194324Y137283
X191961Y139843
X198457Y139646
X191174Y147717
X194324Y148307
X194717Y151654
X206135Y155591
X214993Y160906
X226804Y162087
X230347Y162087
X235072Y162283
X244127Y152244
X247080Y149882
X244520Y147913
X248851Y140039
X244520Y139646
X244914Y133937
X257119Y135512
X256922Y151260
X258300Y158740
X264402Y161496
X268733Y155591
X276410Y162283
X280150Y162480
X285072Y162480
X294520Y150079
X299048Y152047
X299442Y148504
X304166Y140236
X301213Y137087
X294520Y139843
X292749Y131969
X275032Y132362
X274245Y123701
X304166Y109921
X301410Y103031
X310072Y99882
X319520Y95157
X324442Y97520
X331528Y94764
X334875Y88661
X346686Y86102
X351607Y92598
X348851Y103425
X339993Y103622
X330150Y113268
X326804Y122520
X327591Y132165
X344717Y131181
X346095Y127835
X349442Y125079
X349245Y147913
X346095Y147913
X349442Y151063
X361056Y151063
X337434Y162283
X332316Y162283
X327788Y161693
X320505Y160512
X321489Y154213
X311843Y158346
X308497Y158150
X310269Y170748
X329363Y199685
X334481Y199291
X337237Y210315
X330938Y217402
X321883Y206181
X310269Y212480
X306331Y206181
X298064Y206181
X294127Y209724
X290190Y202244
X282709Y201654
X277591Y202441
X269520Y206174
X261056Y214449
X258300Y206181
X248851Y206181
X240190Y201654
X232709Y201457
X212040Y224488
X234481Y236496
X239599Y235709
X252198Y232953
X256135Y234724
X265780Y236693
X269914Y229606
X273457Y228819
X280938Y236693
X289206Y242008
X283891Y250276
X276017Y248504
X270505Y253228
X257513Y253819
X252001Y249094
X229954Y265630
X217355Y265827
X220505Y278622
X239402Y277835
X269520Y276850
X299442Y266220
X294717Y254409
X297276Y248504
X303576Y241811
X301607Y235709
X309087Y221142
X321489Y235315
X324245Y235315
X327001Y235315
X329757Y235315
X339402Y255787
X317946Y276063
X372473Y255000
X383300Y261890
X393339Y251260
X388221Y246142
X399442Y246142
X409087Y218976
X413221Y218976
X417552Y218976
X422080Y218976
X419520Y202638
X361253Y206181
X349835Y206181
X285072Y211890
X270702Y217992
X181725Y162087
X177001Y162087
X173457Y162677
X225229Y132362
X225032Y124291
X227394Y90827
X223654Y85709
X237434Y84724
X268536Y85709
X286056Y92992
X299639Y88465
X303182Y90433
X308891Y77244
X309481Y73110
X305150Y48701
X332316Y49094
X360269Y49685
X387828Y50079
X395111Y63661
X401804Y86102
X405347Y94764
X381725Y95551
X377198Y99685
X374048Y88858
X199639Y75276
X199245Y91811
X180938Y93386
X177394Y92205
X142355Y96142
X136450Y85118
X133694Y87087
T02
X114304Y99685
X114304Y102638
X111154Y102638
X111154Y99685
X123359Y111496
X123359Y114449
X126509Y114449
X126509Y111496
X107906Y128524
X101706Y122717
X98950Y122717
X98950Y119764
X101706Y119764
X84973Y131575
X82414Y134134
X84973Y136693
X82414Y139055
X84973Y141024
X82414Y129016
X106331Y151358
X118536Y151358
X118536Y148406
X118536Y145453
X118536Y142500
X118536Y139350
X122080Y139350
X122080Y142500
X122080Y145453
X122080Y148406
X122080Y151358
X122080Y154508
X125623Y154508
X128772Y154508
X128772Y151358
X128772Y148406
X128772Y145453
X128772Y142500
X125623Y142500
X125623Y145453
X125623Y148406
X125623Y151358
X118536Y154508
X125623Y139350
X128772Y139350
X155052Y122520
X157808Y122520
X157808Y119567
X155052Y119567
X163418Y128720
X172867Y139350
X172867Y142500
X172867Y145453
X172867Y148602
X172867Y151555
X172867Y154508
X176410Y154508
X176410Y151555
X176410Y148602
X176410Y145453
X176410Y142303
X176410Y139350
X180150Y139350
X180150Y142303
X180150Y145453
X180150Y148602
X180150Y151555
X180150Y154508
X183891Y154508
X183891Y151555
X183891Y148602
X183891Y145453
X183891Y142303
X183891Y139350
X201804Y137579
X216568Y128524
X209383Y122717
X206627Y122717
X206627Y119764
X209383Y119764
X218635Y105591
X218635Y102638
X221784Y102638
X221784Y105591
X231824Y112087
X231824Y115039
X234973Y115039
X234973Y112087
X258398Y119961
X261154Y119961
X261154Y122913
X258398Y122913
X269324Y122618
X280839Y115039
X280839Y112087
X283989Y112087
X283989Y115039
X272572Y106181
X272572Y103228
X269422Y103228
X269422Y106181
X276607Y139350
X279757Y139350
X279757Y142500
X279757Y145650
X279757Y148406
X279757Y151358
X276607Y151358
X276607Y148406
X276607Y145650
X276607Y142500
X283497Y142697
X286646Y142697
X286843Y145846
X286843Y148602
X286843Y151555
X283497Y151555
X283497Y148602
X283497Y145846
X283497Y139350
X286843Y139350
X286843Y154902
X283497Y154902
X279757Y154705
X276607Y154705
X264501Y151260
X252493Y165039
X246587Y164449
X246391Y167205
X237237Y154902
X237237Y151752
X237237Y148799
X237237Y145846
X237237Y142697
X233891Y142697
X233891Y145846
X233891Y148799
X233891Y151752
X233891Y154902
X229954Y154902
X229954Y151752
X229954Y148799
X229954Y145846
X229954Y142697
X229954Y139350
X226607Y139350
X226607Y142697
X226607Y145846
X226607Y148799
X226607Y151752
X226607Y154902
X214206Y151161
X199343Y158740
X199343Y162480
X192847Y165827
X192847Y168583
X175721Y174488
X172965Y174488
X159875Y151555
X142847Y164055
X137729Y164843
X137729Y167795
X121194Y174685
X118635Y174685
X105839Y181378
X84580Y192402
X82513Y190039
X82513Y195157
X84776Y197717
X82513Y200079
X84580Y202441
X137139Y183543
X146489Y184035
X202493Y185315
X216469Y180394
X226706Y174094
X229461Y174094
X252887Y187480
X276312Y174094
X279265Y174094
X295603Y168780
X295603Y165827
X300918Y164843
X304265Y185315
X320013Y181969
X328477Y173898
X331430Y173898
X347572Y168189
X347572Y165236
X338812Y154902
X335465Y154902
X335465Y151555
X335465Y148602
X335465Y145846
X335465Y142697
X335465Y139350
X338812Y139350
X338812Y142697
X338812Y145846
X338812Y148602
X338812Y151555
X331528Y151555
X331528Y148602
X331528Y145846
X331528Y142697
X328182Y142697
X328182Y145846
X328182Y148602
X328182Y151555
X328182Y154902
X331528Y154902
X331528Y139350
X328182Y139350
X318438Y127244
X311745Y122913
X308989Y122913
X308989Y119961
X311745Y119961
X319816Y108937
X319816Y105984
X322965Y105984
X322965Y108937
X333005Y112283
X333005Y115236
X336154Y115236
X336154Y112283
X386351Y96732
X386351Y83937
X385761Y76260
X385761Y66024
X408202Y66220
X408595Y76850
X409383Y84921
X409776Y96535
X356233Y185315
X333398Y193780
X351017Y227638
X320111Y228622
X297769Y224685
X291469Y235709
X285367Y224488
X376213Y248602
X401607Y262972
X404757Y262972
X407906Y262972
X407217Y243976
X407217Y241220
X410170Y241220
X410170Y243976
X423162Y243780
X434481Y225571
X409481Y225177
X387434Y212185
X383300Y212185
X237237Y139350
X233891Y139350
X181627Y114843
X181627Y111890
X178477Y111890
X178477Y114843
X169028Y105394
X169028Y102441
X165879Y102441
X165879Y105394
X87729Y260610
X83891Y260610
X83891Y265335
X87729Y265335
X87729Y270256
X84087Y270256
T03
X310367Y235807
X310367Y231476
X310367Y226949
X314599Y216762
X323261Y231722
X329954Y225669
X339599Y225719
X335170Y235020
X331036Y239350
X331036Y243484
X331036Y247618
X331036Y251752
X356430Y227539
X360564Y227539
T04
X364658Y261024
X364658Y271024
X354658Y271024
X344658Y271024
X334658Y271024
X324658Y271024
X324658Y261024
X334658Y261024
X344658Y261024
X354658Y261024
X353379Y287677
X363379Y287677
X375190Y287480
X385190Y287480
X395190Y287480
X405190Y287480
X343379Y287677
X331489Y287480
X321489Y287480
X311489Y287480
X298418Y287874
X288418Y287874
X278418Y287874
X266331Y288268
X256331Y288268
X246331Y288268
X234048Y288268
X224048Y288268
X214048Y288268
X198930Y288071
X188930Y288071
X175308Y288071
X165308Y288071
X153457Y288465
X143457Y288465
X144658Y271024
X154658Y271024
X164658Y271024
X174658Y271024
X184658Y271024
X194658Y271024
X194658Y261024
X184658Y261024
X174658Y261024
X164658Y261024
X154658Y261024
X144658Y261024
X117119Y287677
X107119Y287677
X97119Y287677
X204658Y271024
X214658Y271024
X224658Y271024
X234658Y271024
X244658Y271024
X254658Y271024
X254658Y261024
X244658Y261024
X234658Y261024
X224658Y261024
X214658Y261024
X204658Y261024
X264658Y261024
X264658Y271024
X274658Y271024
X284658Y271024
X294658Y271024
X304658Y271024
X314658Y271024
X314658Y261024
X304658Y261024
X294658Y261024
X284658Y261024
X274658Y261024
X274658Y80571
X264658Y80571
X254658Y80571
X244658Y80571
X234658Y80571
X224658Y80571
X214658Y80571
X204658Y80571
X194658Y80571
X184658Y80571
X174658Y80571
X164658Y80571
X154658Y80571
X144658Y80571
X144658Y70571
X154658Y70571
X164658Y70571
X174658Y70571
X184658Y70571
X194658Y70571
X204658Y70571
X214658Y70571
X224658Y70571
X234658Y70571
X244658Y70571
X254658Y70571
X264658Y70571
X274658Y70571
X284658Y70571
X294658Y70571
X304658Y70571
X314658Y70571
X314658Y80571
X304658Y80571
X294658Y80571
X284658Y80571
X281213Y55000
X271213Y55000
X261213Y55000
X248300Y55197
X238300Y55197
X228300Y55197
X218300Y55197
X205387Y55000
X195387Y55000
X185387Y55000
X175387Y55000
X162670Y55000
X152670Y55000
X142670Y55000
X132670Y55000
X120150Y55000
X110150Y55000
X100150Y55000
X90150Y55000
X291213Y55000
X315505Y55000
X325505Y55000
X324658Y70571
X334658Y70571
X344658Y70571
X354658Y70571
X364658Y70571
X364658Y80571
X354658Y80571
X344658Y80571
X334658Y80571
X324658Y80571
X343457Y55000
X353457Y55000
X371804Y55000
X381804Y55000
X399363Y55000
X409363Y55000
T05
X40800Y48031
X40800Y68031
X40800Y88031
X40800Y108031
X40800Y136535
X40800Y156535
X40800Y185039
X40800Y205039
X40800Y225039
X40800Y245039
X40800Y273543
X40800Y293543
T06
X57906Y104843
X71292Y104843
X71292Y51850
X57906Y51850
M30
