G75*
%MOIN*%
%OFA0B0*%
%FSLAX24Y24*%
%IPPOS*%
%LPD*%
%AMOC8*
5,1,8,0,0,1.08239X$1,22.5*
%
%ADD10C,0.0000*%
%ADD11R,0.0520X0.0220*%
%ADD12R,0.0630X0.0512*%
%ADD13R,0.0630X0.0787*%
%ADD14R,0.0354X0.0276*%
%ADD15R,0.0276X0.0354*%
%ADD16R,0.0315X0.0315*%
%ADD17C,0.0600*%
%ADD18R,0.0394X0.0197*%
%ADD19C,0.0060*%
%ADD20C,0.0160*%
%ADD21C,0.0100*%
%ADD22C,0.0278*%
%ADD23C,0.0060*%
%ADD24C,0.0317*%
D10*
X004197Y001446D02*
X009709Y001446D01*
X009709Y001445D02*
X009764Y001448D01*
X009819Y001455D01*
X009874Y001465D01*
X009927Y001479D01*
X009980Y001496D01*
X010031Y001517D01*
X010081Y001541D01*
X010129Y001569D01*
X010176Y001599D01*
X010220Y001632D01*
X010262Y001668D01*
X010302Y001707D01*
X010339Y001748D01*
X010373Y001792D01*
X010404Y001838D01*
X010432Y001886D01*
X010457Y001935D01*
X010479Y001986D01*
X010497Y002038D01*
X010512Y002092D01*
X010523Y002146D01*
X010531Y002201D01*
X010535Y002256D01*
X010536Y002312D01*
X010536Y006682D01*
X010535Y006738D01*
X010531Y006793D01*
X010523Y006848D01*
X010512Y006902D01*
X010497Y006956D01*
X010479Y007008D01*
X010457Y007059D01*
X010432Y007108D01*
X010404Y007156D01*
X010373Y007202D01*
X010339Y007246D01*
X010302Y007287D01*
X010262Y007326D01*
X010220Y007362D01*
X010176Y007395D01*
X010129Y007425D01*
X010081Y007453D01*
X010031Y007477D01*
X009980Y007498D01*
X009927Y007515D01*
X009874Y007529D01*
X009819Y007539D01*
X009764Y007546D01*
X009709Y007549D01*
X009709Y007548D02*
X004119Y007548D01*
X003292Y006761D02*
X003292Y005659D01*
X003293Y005637D01*
X003291Y005615D01*
X003286Y005594D01*
X003277Y005574D01*
X003265Y005556D01*
X003251Y005539D01*
X003234Y005525D01*
X003215Y005514D01*
X003195Y005506D01*
X003174Y005501D01*
X001638Y005501D01*
X001638Y005502D02*
X001607Y005500D01*
X001577Y005495D01*
X001547Y005487D01*
X001518Y005475D01*
X001491Y005460D01*
X001466Y005442D01*
X001443Y005421D01*
X001422Y005398D01*
X001404Y005373D01*
X001389Y005346D01*
X001377Y005317D01*
X001369Y005287D01*
X001364Y005257D01*
X001362Y005226D01*
X001363Y005226D02*
X001363Y003769D01*
X001365Y003736D01*
X001370Y003704D01*
X001378Y003672D01*
X001390Y003641D01*
X001405Y003612D01*
X001423Y003584D01*
X001444Y003558D01*
X001467Y003535D01*
X001493Y003514D01*
X001521Y003496D01*
X001550Y003481D01*
X001581Y003469D01*
X001613Y003461D01*
X001645Y003456D01*
X001678Y003454D01*
X003134Y003454D01*
X003156Y003455D01*
X003178Y003453D01*
X003199Y003448D01*
X003219Y003439D01*
X003237Y003427D01*
X003254Y003413D01*
X003268Y003396D01*
X003279Y003377D01*
X003287Y003357D01*
X003292Y003336D01*
X003292Y002352D01*
X003291Y002352D02*
X003293Y002293D01*
X003299Y002234D01*
X003308Y002175D01*
X003322Y002118D01*
X003339Y002061D01*
X003360Y002005D01*
X003384Y001951D01*
X003412Y001899D01*
X003444Y001849D01*
X003478Y001800D01*
X003516Y001755D01*
X003556Y001711D01*
X003600Y001671D01*
X003645Y001633D01*
X003694Y001599D01*
X003744Y001567D01*
X003796Y001539D01*
X003850Y001515D01*
X003906Y001494D01*
X003963Y001477D01*
X004020Y001463D01*
X004079Y001454D01*
X004138Y001448D01*
X004197Y001446D01*
X003725Y002509D02*
X003727Y002559D01*
X003733Y002609D01*
X003743Y002658D01*
X003757Y002706D01*
X003774Y002753D01*
X003795Y002798D01*
X003820Y002842D01*
X003848Y002883D01*
X003880Y002922D01*
X003914Y002959D01*
X003951Y002993D01*
X003991Y003023D01*
X004033Y003050D01*
X004077Y003074D01*
X004123Y003095D01*
X004170Y003111D01*
X004218Y003124D01*
X004268Y003133D01*
X004317Y003138D01*
X004368Y003139D01*
X004418Y003136D01*
X004467Y003129D01*
X004516Y003118D01*
X004564Y003103D01*
X004610Y003085D01*
X004655Y003063D01*
X004698Y003037D01*
X004739Y003008D01*
X004778Y002976D01*
X004814Y002941D01*
X004846Y002903D01*
X004876Y002863D01*
X004903Y002820D01*
X004926Y002776D01*
X004945Y002730D01*
X004961Y002682D01*
X004973Y002633D01*
X004981Y002584D01*
X004985Y002534D01*
X004985Y002484D01*
X004981Y002434D01*
X004973Y002385D01*
X004961Y002336D01*
X004945Y002288D01*
X004926Y002242D01*
X004903Y002198D01*
X004876Y002155D01*
X004846Y002115D01*
X004814Y002077D01*
X004778Y002042D01*
X004739Y002010D01*
X004698Y001981D01*
X004655Y001955D01*
X004610Y001933D01*
X004564Y001915D01*
X004516Y001900D01*
X004467Y001889D01*
X004418Y001882D01*
X004368Y001879D01*
X004317Y001880D01*
X004268Y001885D01*
X004218Y001894D01*
X004170Y001907D01*
X004123Y001923D01*
X004077Y001944D01*
X004033Y001968D01*
X003991Y001995D01*
X003951Y002025D01*
X003914Y002059D01*
X003880Y002096D01*
X003848Y002135D01*
X003820Y002176D01*
X003795Y002220D01*
X003774Y002265D01*
X003757Y002312D01*
X003743Y002360D01*
X003733Y002409D01*
X003727Y002459D01*
X003725Y002509D01*
X003725Y006525D02*
X003727Y006575D01*
X003733Y006625D01*
X003743Y006674D01*
X003757Y006722D01*
X003774Y006769D01*
X003795Y006814D01*
X003820Y006858D01*
X003848Y006899D01*
X003880Y006938D01*
X003914Y006975D01*
X003951Y007009D01*
X003991Y007039D01*
X004033Y007066D01*
X004077Y007090D01*
X004123Y007111D01*
X004170Y007127D01*
X004218Y007140D01*
X004268Y007149D01*
X004317Y007154D01*
X004368Y007155D01*
X004418Y007152D01*
X004467Y007145D01*
X004516Y007134D01*
X004564Y007119D01*
X004610Y007101D01*
X004655Y007079D01*
X004698Y007053D01*
X004739Y007024D01*
X004778Y006992D01*
X004814Y006957D01*
X004846Y006919D01*
X004876Y006879D01*
X004903Y006836D01*
X004926Y006792D01*
X004945Y006746D01*
X004961Y006698D01*
X004973Y006649D01*
X004981Y006600D01*
X004985Y006550D01*
X004985Y006500D01*
X004981Y006450D01*
X004973Y006401D01*
X004961Y006352D01*
X004945Y006304D01*
X004926Y006258D01*
X004903Y006214D01*
X004876Y006171D01*
X004846Y006131D01*
X004814Y006093D01*
X004778Y006058D01*
X004739Y006026D01*
X004698Y005997D01*
X004655Y005971D01*
X004610Y005949D01*
X004564Y005931D01*
X004516Y005916D01*
X004467Y005905D01*
X004418Y005898D01*
X004368Y005895D01*
X004317Y005896D01*
X004268Y005901D01*
X004218Y005910D01*
X004170Y005923D01*
X004123Y005939D01*
X004077Y005960D01*
X004033Y005984D01*
X003991Y006011D01*
X003951Y006041D01*
X003914Y006075D01*
X003880Y006112D01*
X003848Y006151D01*
X003820Y006192D01*
X003795Y006236D01*
X003774Y006281D01*
X003757Y006328D01*
X003743Y006376D01*
X003733Y006425D01*
X003727Y006475D01*
X003725Y006525D01*
X003292Y006761D02*
X003295Y006816D01*
X003302Y006870D01*
X003313Y006924D01*
X003327Y006978D01*
X003345Y007030D01*
X003367Y007080D01*
X003392Y007130D01*
X003420Y007177D01*
X003451Y007222D01*
X003486Y007265D01*
X003523Y007306D01*
X003563Y007344D01*
X003605Y007379D01*
X003650Y007411D01*
X003697Y007441D01*
X003745Y007466D01*
X003796Y007489D01*
X003847Y007508D01*
X003900Y007523D01*
X003954Y007535D01*
X004009Y007543D01*
X004064Y007547D01*
X004119Y007548D01*
D11*
X004622Y004887D03*
X004622Y004517D03*
X004622Y004147D03*
X005702Y004147D03*
X005702Y004887D03*
D12*
X007591Y005009D03*
X007591Y004025D03*
D13*
X006449Y004517D03*
D14*
X005780Y005344D03*
X005780Y005855D03*
D15*
X006788Y005733D03*
X007300Y005733D03*
D16*
X007300Y003206D03*
X006709Y003206D03*
D17*
X008322Y003517D02*
X008922Y003517D01*
X008922Y004517D02*
X008322Y004517D01*
X008322Y005517D02*
X008922Y005517D01*
D18*
X002780Y004891D03*
X001835Y004517D03*
X002780Y004143D03*
D19*
X002799Y004139D02*
X003253Y004139D01*
X003261Y004157D02*
X003220Y004059D01*
X003220Y003952D01*
X003261Y003853D01*
X003336Y003777D01*
X003435Y003736D01*
X003542Y003736D01*
X003568Y003747D01*
X005279Y003747D01*
X005361Y003829D01*
X005459Y003927D01*
X005731Y003927D01*
X005736Y003925D01*
X005740Y003927D01*
X006007Y003927D01*
X006072Y003991D01*
X006072Y004030D01*
X006089Y004013D01*
X006810Y004013D01*
X006813Y004017D01*
X006813Y003827D01*
X006659Y003673D01*
X006577Y003591D01*
X006577Y003473D01*
X006506Y003473D01*
X006442Y003409D01*
X006442Y003003D01*
X006506Y002938D01*
X006912Y002938D01*
X006977Y003003D01*
X006977Y003409D01*
X006912Y003473D01*
X006857Y003473D01*
X006857Y003475D01*
X007093Y003711D01*
X007093Y005047D01*
X007011Y005129D01*
X006928Y005213D01*
X006928Y005446D01*
X006971Y005446D01*
X007036Y005511D01*
X007036Y005525D01*
X007041Y005506D01*
X007058Y005476D01*
X007082Y005452D01*
X007112Y005435D01*
X007145Y005426D01*
X007270Y005426D01*
X007270Y005703D01*
X007330Y005703D01*
X007330Y005763D01*
X007567Y005763D01*
X007567Y005928D01*
X007559Y005961D01*
X007541Y005990D01*
X007517Y006015D01*
X007488Y006032D01*
X007455Y006041D01*
X007330Y006041D01*
X007330Y005763D01*
X007270Y005763D01*
X007270Y006041D01*
X007145Y006041D01*
X007112Y006032D01*
X007082Y006015D01*
X007058Y005990D01*
X007041Y005961D01*
X007036Y005942D01*
X007036Y005956D01*
X006971Y006021D01*
X006604Y006021D01*
X006540Y005956D01*
X006540Y005511D01*
X006604Y005446D01*
X006648Y005446D01*
X006648Y005097D01*
X006724Y005021D01*
X006090Y005021D01*
X006083Y005047D01*
X006066Y005077D01*
X006042Y005101D01*
X006038Y005103D01*
X006061Y005126D01*
X006078Y005156D01*
X006087Y005189D01*
X006087Y005314D01*
X005810Y005314D01*
X005810Y005374D01*
X006087Y005374D01*
X006087Y005499D01*
X006078Y005532D01*
X006061Y005561D01*
X006037Y005586D01*
X006007Y005603D01*
X005988Y005608D01*
X006003Y005608D01*
X006067Y005672D01*
X006067Y006039D01*
X006003Y006103D01*
X005978Y006103D01*
X006023Y006147D01*
X006060Y006239D01*
X006060Y006338D01*
X006023Y006430D01*
X005953Y006500D01*
X005861Y006538D01*
X005762Y006538D01*
X005670Y006500D01*
X005600Y006430D01*
X005562Y006338D01*
X005562Y006239D01*
X005568Y006226D01*
X005567Y006224D01*
X005583Y006177D01*
X005584Y006103D01*
X005557Y006103D01*
X005493Y006039D01*
X005493Y005672D01*
X005557Y005608D01*
X005571Y005608D01*
X005553Y005603D01*
X005523Y005586D01*
X005499Y005561D01*
X005482Y005532D01*
X005473Y005499D01*
X005473Y005374D01*
X005750Y005374D01*
X005750Y005314D01*
X005473Y005314D01*
X005473Y005189D01*
X005482Y005156D01*
X005498Y005127D01*
X005425Y005127D01*
X005414Y005124D01*
X005450Y005211D01*
X005450Y005318D01*
X005409Y005417D01*
X005334Y005493D01*
X005235Y005534D01*
X005128Y005534D01*
X005029Y005493D01*
X004954Y005417D01*
X004913Y005318D01*
X004913Y005211D01*
X004918Y005199D01*
X004825Y005107D01*
X004316Y005107D01*
X004252Y005042D01*
X004252Y004731D01*
X004276Y004707D01*
X004045Y004707D01*
X004023Y004728D01*
X003932Y004766D01*
X003833Y004766D01*
X003741Y004728D01*
X003720Y004707D01*
X003047Y004707D01*
X003087Y004747D01*
X003087Y005035D01*
X003022Y005099D01*
X002569Y005099D01*
X002535Y005181D01*
X002460Y005257D01*
X002425Y005271D01*
X003097Y005271D01*
X003112Y005260D01*
X003190Y005271D01*
X003269Y005271D01*
X003282Y005284D01*
X003304Y005287D01*
X003460Y005410D01*
X003521Y005563D01*
X003522Y005563D01*
X003522Y005564D01*
X003533Y005593D01*
X003533Y005593D01*
X003522Y005675D01*
X003522Y006289D01*
X003626Y006038D01*
X003868Y005796D01*
X004184Y005665D01*
X004526Y005665D01*
X004842Y005796D01*
X005084Y006038D01*
X005215Y006354D01*
X005215Y006696D01*
X005084Y007012D01*
X004842Y007254D01*
X004686Y007318D01*
X009704Y007318D01*
X009800Y007309D01*
X009982Y007245D01*
X010135Y007128D01*
X010245Y006969D01*
X010301Y006784D01*
X010306Y006689D01*
X010306Y006685D01*
X010304Y006592D01*
X010306Y006590D01*
X010306Y002404D01*
X010304Y002402D01*
X010306Y002310D01*
X010306Y002306D01*
X010301Y002210D01*
X010245Y002025D01*
X010135Y001867D01*
X009982Y001750D01*
X009800Y001686D01*
X009704Y001676D01*
X004591Y001676D01*
X004842Y001780D01*
X005084Y002022D01*
X005215Y002338D01*
X005215Y002680D01*
X005084Y002996D01*
X004842Y003238D01*
X004526Y003369D01*
X004184Y003369D01*
X003868Y003238D01*
X003626Y002996D01*
X003522Y002745D01*
X003522Y003259D01*
X003533Y003274D01*
X003522Y003352D01*
X003522Y003431D01*
X003509Y003444D01*
X003505Y003466D01*
X003383Y003622D01*
X003230Y003683D01*
X003230Y003684D01*
X003229Y003684D01*
X003200Y003696D01*
X003118Y003684D01*
X001678Y003684D01*
X001661Y003686D01*
X001630Y003698D01*
X001607Y003722D01*
X001594Y003752D01*
X001593Y003769D01*
X001593Y004308D01*
X002077Y004308D01*
X002096Y004327D01*
X002485Y004327D01*
X002479Y004321D01*
X002462Y004291D01*
X002453Y004258D01*
X002453Y004162D01*
X002761Y004162D01*
X002761Y004124D01*
X002799Y004124D01*
X002799Y004162D01*
X003107Y004162D01*
X003107Y004258D01*
X003098Y004291D01*
X003081Y004321D01*
X003075Y004327D01*
X003720Y004327D01*
X003741Y004306D01*
X003833Y004268D01*
X003932Y004268D01*
X004023Y004306D01*
X004045Y004327D01*
X004276Y004327D01*
X004252Y004302D01*
X004252Y004027D01*
X003757Y004027D01*
X003757Y004059D01*
X003716Y004157D01*
X003641Y004233D01*
X003542Y004274D01*
X003435Y004274D01*
X003336Y004233D01*
X003261Y004157D01*
X003301Y004197D02*
X003107Y004197D01*
X003107Y004256D02*
X003392Y004256D01*
X003585Y004256D02*
X004252Y004256D01*
X004252Y004197D02*
X003676Y004197D01*
X003724Y004139D02*
X004252Y004139D01*
X004252Y004080D02*
X003748Y004080D01*
X003732Y004314D02*
X003085Y004314D01*
X003107Y004124D02*
X002799Y004124D01*
X002799Y003914D01*
X002994Y003914D01*
X003027Y003923D01*
X003057Y003940D01*
X003081Y003965D01*
X003098Y003994D01*
X003107Y004027D01*
X003107Y004124D01*
X003107Y004080D02*
X003229Y004080D01*
X003220Y004022D02*
X003105Y004022D01*
X003079Y003963D02*
X003220Y003963D01*
X003239Y003905D02*
X001593Y003905D01*
X001593Y003963D02*
X002480Y003963D01*
X002479Y003965D02*
X002503Y003940D01*
X002533Y003923D01*
X002566Y003914D01*
X002761Y003914D01*
X002761Y004124D01*
X002453Y004124D01*
X002453Y004027D01*
X002462Y003994D01*
X002479Y003965D01*
X002455Y004022D02*
X001593Y004022D01*
X001593Y004080D02*
X002453Y004080D01*
X002453Y004197D02*
X001593Y004197D01*
X001593Y004139D02*
X002761Y004139D01*
X002761Y004080D02*
X002799Y004080D01*
X002799Y004022D02*
X002761Y004022D01*
X002761Y003963D02*
X002799Y003963D01*
X003200Y003696D02*
X003200Y003696D01*
X003262Y003671D02*
X006657Y003671D01*
X006715Y003729D02*
X001604Y003729D01*
X001593Y003788D02*
X003326Y003788D01*
X003267Y003846D02*
X001593Y003846D01*
X001593Y004256D02*
X002453Y004256D01*
X002475Y004314D02*
X002083Y004314D01*
X001593Y004308D02*
X001593Y004308D01*
X002555Y005134D02*
X004853Y005134D01*
X004911Y005193D02*
X002524Y005193D01*
X002465Y005251D02*
X004913Y005251D01*
X004913Y005310D02*
X003332Y005310D01*
X003304Y005287D02*
X003304Y005287D01*
X003407Y005368D02*
X004933Y005368D01*
X004963Y005427D02*
X003467Y005427D01*
X003460Y005410D02*
X003460Y005410D01*
X003460Y005410D01*
X003490Y005485D02*
X005022Y005485D01*
X005341Y005485D02*
X005473Y005485D01*
X005473Y005427D02*
X005400Y005427D01*
X005430Y005368D02*
X005750Y005368D01*
X005810Y005368D02*
X006648Y005368D01*
X006648Y005310D02*
X006087Y005310D01*
X006087Y005251D02*
X006648Y005251D01*
X006648Y005193D02*
X006087Y005193D01*
X006066Y005134D02*
X006648Y005134D01*
X006669Y005075D02*
X006067Y005075D01*
X006024Y004912D02*
X005727Y004912D01*
X005727Y004862D01*
X006024Y004862D01*
X006024Y004912D01*
X006024Y004900D02*
X005727Y004900D01*
X005727Y004862D02*
X005727Y004647D01*
X005979Y004647D01*
X006012Y004656D01*
X006024Y004663D01*
X006024Y004598D01*
X005351Y004598D01*
X005258Y004504D01*
X005060Y004307D01*
X004987Y004307D01*
X004962Y004332D01*
X004992Y004361D01*
X004992Y004672D01*
X004962Y004702D01*
X004992Y004731D01*
X004992Y004877D01*
X005116Y005001D01*
X005128Y004996D01*
X005235Y004996D01*
X005316Y005030D01*
X005312Y005014D01*
X005312Y004912D01*
X005677Y004912D01*
X005677Y004862D01*
X005727Y004862D01*
X005727Y004841D02*
X005677Y004841D01*
X005677Y004862D02*
X005677Y004647D01*
X005425Y004647D01*
X005392Y004656D01*
X005362Y004673D01*
X005338Y004697D01*
X005321Y004727D01*
X005312Y004760D01*
X005312Y004862D01*
X005677Y004862D01*
X005677Y004900D02*
X005014Y004900D01*
X004992Y004841D02*
X005312Y004841D01*
X005312Y004783D02*
X004992Y004783D01*
X004985Y004724D02*
X005322Y004724D01*
X005374Y004666D02*
X004992Y004666D01*
X004992Y004607D02*
X006024Y004607D01*
X005727Y004666D02*
X005677Y004666D01*
X005677Y004724D02*
X005727Y004724D01*
X005727Y004783D02*
X005677Y004783D01*
X005312Y004958D02*
X005073Y004958D01*
X005285Y005017D02*
X005313Y005017D01*
X005418Y005134D02*
X005494Y005134D01*
X005473Y005193D02*
X005442Y005193D01*
X005450Y005251D02*
X005473Y005251D01*
X005473Y005310D02*
X005450Y005310D01*
X005489Y005544D02*
X003514Y005544D01*
X003532Y005602D02*
X005552Y005602D01*
X005504Y005661D02*
X003524Y005661D01*
X003522Y005719D02*
X004052Y005719D01*
X003911Y005778D02*
X003522Y005778D01*
X003522Y005837D02*
X003827Y005837D01*
X003768Y005895D02*
X003522Y005895D01*
X003522Y005954D02*
X003710Y005954D01*
X003651Y006012D02*
X003522Y006012D01*
X003522Y006071D02*
X003612Y006071D01*
X003588Y006129D02*
X003522Y006129D01*
X003522Y006188D02*
X003564Y006188D01*
X003539Y006246D02*
X003522Y006246D01*
X004658Y005719D02*
X005493Y005719D01*
X005493Y005778D02*
X004799Y005778D01*
X004883Y005837D02*
X005493Y005837D01*
X005493Y005895D02*
X004941Y005895D01*
X005000Y005954D02*
X005493Y005954D01*
X005493Y006012D02*
X005058Y006012D01*
X005097Y006071D02*
X005525Y006071D01*
X005584Y006129D02*
X005122Y006129D01*
X005146Y006188D02*
X005579Y006188D01*
X005562Y006246D02*
X005170Y006246D01*
X005194Y006305D02*
X005562Y006305D01*
X005573Y006363D02*
X005215Y006363D01*
X005215Y006422D02*
X005597Y006422D01*
X005651Y006480D02*
X005215Y006480D01*
X005215Y006539D02*
X010306Y006539D01*
X010304Y006598D02*
X005215Y006598D01*
X005215Y006656D02*
X010305Y006656D01*
X010304Y006715D02*
X005207Y006715D01*
X005183Y006773D02*
X010301Y006773D01*
X010286Y006832D02*
X005158Y006832D01*
X005134Y006890D02*
X010269Y006890D01*
X010251Y006949D02*
X005110Y006949D01*
X005086Y007007D02*
X010219Y007007D01*
X010178Y007066D02*
X005030Y007066D01*
X004971Y007124D02*
X010138Y007124D01*
X010063Y007183D02*
X004913Y007183D01*
X004854Y007241D02*
X009986Y007241D01*
X009825Y007300D02*
X004730Y007300D01*
X005972Y006480D02*
X010306Y006480D01*
X010306Y006422D02*
X006026Y006422D01*
X006050Y006363D02*
X010306Y006363D01*
X010306Y006305D02*
X006060Y006305D01*
X006060Y006246D02*
X010306Y006246D01*
X010306Y006188D02*
X006039Y006188D01*
X006004Y006129D02*
X010306Y006129D01*
X010306Y006071D02*
X006035Y006071D01*
X006067Y006012D02*
X006596Y006012D01*
X006540Y005954D02*
X006067Y005954D01*
X006067Y005895D02*
X006540Y005895D01*
X006540Y005837D02*
X006067Y005837D01*
X006067Y005778D02*
X006540Y005778D01*
X006540Y005719D02*
X006067Y005719D01*
X006056Y005661D02*
X006540Y005661D01*
X006540Y005602D02*
X006008Y005602D01*
X006071Y005544D02*
X006540Y005544D01*
X006565Y005485D02*
X006087Y005485D01*
X006087Y005427D02*
X006648Y005427D01*
X006928Y005427D02*
X007143Y005427D01*
X007196Y005369D02*
X007172Y005345D01*
X007155Y005315D01*
X007146Y005282D01*
X007146Y005039D01*
X007561Y005039D01*
X007561Y005395D01*
X007259Y005395D01*
X007226Y005386D01*
X007196Y005369D01*
X007195Y005368D02*
X006928Y005368D01*
X006928Y005310D02*
X007153Y005310D01*
X007146Y005251D02*
X006928Y005251D01*
X006948Y005193D02*
X007146Y005193D01*
X007146Y005134D02*
X007006Y005134D01*
X007065Y005075D02*
X007146Y005075D01*
X007093Y005017D02*
X007561Y005017D01*
X007561Y005039D02*
X007561Y004979D01*
X007621Y004979D01*
X007621Y005039D01*
X008036Y005039D01*
X008036Y005195D01*
X008042Y005189D01*
X008097Y005149D01*
X008157Y005118D01*
X008222Y005097D01*
X008289Y005087D01*
X008592Y005087D01*
X008592Y005487D01*
X007892Y005487D01*
X007892Y005483D01*
X007903Y005416D01*
X007910Y005395D01*
X007621Y005395D01*
X007621Y005039D01*
X007561Y005039D01*
X007561Y005075D02*
X007621Y005075D01*
X007621Y005017D02*
X010306Y005017D01*
X010306Y005075D02*
X008036Y005075D01*
X008036Y005134D02*
X008127Y005134D01*
X008039Y005193D02*
X008036Y005193D01*
X008036Y004979D02*
X007621Y004979D01*
X007621Y004623D01*
X007923Y004623D01*
X007912Y004598D01*
X007912Y004435D01*
X007931Y004391D01*
X007230Y004391D01*
X007166Y004326D01*
X007166Y003723D01*
X007230Y003659D01*
X007937Y003659D01*
X007912Y003598D01*
X007912Y003435D01*
X007975Y003285D01*
X008090Y003169D01*
X008241Y003107D01*
X009004Y003107D01*
X009008Y003109D01*
X008824Y002925D01*
X008114Y002925D01*
X007692Y003346D01*
X007567Y003346D01*
X007567Y003409D01*
X007503Y003473D01*
X007097Y003473D01*
X007032Y003409D01*
X007032Y003003D01*
X007097Y002938D01*
X007167Y002938D01*
X007167Y002898D01*
X007167Y002841D01*
X007168Y002840D01*
X007168Y002839D01*
X007200Y002808D01*
X007196Y002799D01*
X007196Y002692D01*
X007237Y002593D01*
X007313Y002517D01*
X007411Y002476D01*
X007518Y002476D01*
X007617Y002517D01*
X007693Y002593D01*
X007734Y002692D01*
X007734Y002799D01*
X007693Y002897D01*
X007617Y002973D01*
X007561Y002996D01*
X007567Y003003D01*
X007567Y003066D01*
X007576Y003066D01*
X007915Y002727D01*
X007998Y002645D01*
X008940Y002645D01*
X009731Y003435D01*
X009731Y004260D01*
X009495Y004496D01*
X009413Y004578D01*
X009332Y004578D01*
X009332Y004598D01*
X009270Y004749D01*
X009155Y004864D01*
X009004Y004927D01*
X008241Y004927D01*
X008090Y004864D01*
X008036Y004810D01*
X008036Y004979D01*
X008036Y004958D02*
X010306Y004958D01*
X010306Y004900D02*
X009069Y004900D01*
X009178Y004841D02*
X010306Y004841D01*
X010306Y004783D02*
X009236Y004783D01*
X009280Y004724D02*
X010306Y004724D01*
X010306Y004666D02*
X009305Y004666D01*
X009329Y004607D02*
X010306Y004607D01*
X010306Y004549D02*
X009442Y004549D01*
X009495Y004496D02*
X009495Y004496D01*
X009501Y004490D02*
X010306Y004490D01*
X010306Y004432D02*
X009559Y004432D01*
X009618Y004373D02*
X010306Y004373D01*
X010306Y004314D02*
X009676Y004314D01*
X009731Y004256D02*
X010306Y004256D01*
X010306Y004197D02*
X009731Y004197D01*
X009731Y004139D02*
X010306Y004139D01*
X010306Y004080D02*
X009731Y004080D01*
X009731Y004022D02*
X010306Y004022D01*
X010306Y003963D02*
X009731Y003963D01*
X009731Y003905D02*
X010306Y003905D01*
X010306Y003846D02*
X009731Y003846D01*
X009731Y003788D02*
X010306Y003788D01*
X010306Y003729D02*
X009731Y003729D01*
X009731Y003671D02*
X010306Y003671D01*
X010306Y003612D02*
X009731Y003612D01*
X009731Y003553D02*
X010306Y003553D01*
X010306Y003495D02*
X009731Y003495D01*
X009731Y003436D02*
X010306Y003436D01*
X010306Y003378D02*
X009674Y003378D01*
X009615Y003319D02*
X010306Y003319D01*
X010306Y003261D02*
X009556Y003261D01*
X009498Y003202D02*
X010306Y003202D01*
X010306Y003144D02*
X009439Y003144D01*
X009381Y003085D02*
X010306Y003085D01*
X010306Y003027D02*
X009322Y003027D01*
X009264Y002968D02*
X010306Y002968D01*
X010306Y002910D02*
X009205Y002910D01*
X009147Y002851D02*
X010306Y002851D01*
X010306Y002792D02*
X009088Y002792D01*
X009030Y002734D02*
X010306Y002734D01*
X010306Y002675D02*
X008971Y002675D01*
X008868Y002968D02*
X008070Y002968D01*
X008012Y003027D02*
X008926Y003027D01*
X008985Y003085D02*
X007953Y003085D01*
X007894Y003144D02*
X008152Y003144D01*
X008057Y003202D02*
X007836Y003202D01*
X007777Y003261D02*
X007999Y003261D01*
X007960Y003319D02*
X007719Y003319D01*
X007567Y003378D02*
X007936Y003378D01*
X007912Y003436D02*
X007540Y003436D01*
X007912Y003495D02*
X006877Y003495D01*
X006936Y003553D02*
X007912Y003553D01*
X007918Y003612D02*
X006994Y003612D01*
X007053Y003671D02*
X007219Y003671D01*
X007166Y003729D02*
X007093Y003729D01*
X007093Y003788D02*
X007166Y003788D01*
X007166Y003846D02*
X007093Y003846D01*
X007093Y003905D02*
X007166Y003905D01*
X007166Y003963D02*
X007093Y003963D01*
X007093Y004022D02*
X007166Y004022D01*
X007166Y004080D02*
X007093Y004080D01*
X007093Y004139D02*
X007166Y004139D01*
X007166Y004197D02*
X007093Y004197D01*
X007093Y004256D02*
X007166Y004256D01*
X007166Y004314D02*
X007093Y004314D01*
X007093Y004373D02*
X007213Y004373D01*
X007093Y004432D02*
X007914Y004432D01*
X007912Y004490D02*
X007093Y004490D01*
X007093Y004549D02*
X007912Y004549D01*
X007916Y004607D02*
X007093Y004607D01*
X007093Y004666D02*
X007180Y004666D01*
X007172Y004673D02*
X007196Y004649D01*
X007226Y004632D01*
X007259Y004623D01*
X007561Y004623D01*
X007561Y004979D01*
X007146Y004979D01*
X007146Y004736D01*
X007155Y004703D01*
X007172Y004673D01*
X007149Y004724D02*
X007093Y004724D01*
X007093Y004783D02*
X007146Y004783D01*
X007146Y004841D02*
X007093Y004841D01*
X007093Y004900D02*
X007146Y004900D01*
X007146Y004958D02*
X007093Y004958D01*
X007561Y004958D02*
X007621Y004958D01*
X007621Y004900D02*
X007561Y004900D01*
X007561Y004841D02*
X007621Y004841D01*
X007621Y004783D02*
X007561Y004783D01*
X007561Y004724D02*
X007621Y004724D01*
X007621Y004666D02*
X007561Y004666D01*
X008036Y004841D02*
X008067Y004841D01*
X008036Y004900D02*
X008176Y004900D01*
X008592Y005134D02*
X008652Y005134D01*
X008652Y005087D02*
X008956Y005087D01*
X009023Y005097D01*
X009088Y005118D01*
X009148Y005149D01*
X009203Y005189D01*
X009250Y005237D01*
X009290Y005292D01*
X009321Y005352D01*
X009342Y005416D01*
X009352Y005483D01*
X009352Y005487D01*
X008652Y005487D01*
X008652Y005087D01*
X008652Y005193D02*
X008592Y005193D01*
X008592Y005251D02*
X008652Y005251D01*
X008652Y005310D02*
X008592Y005310D01*
X008592Y005368D02*
X008652Y005368D01*
X008652Y005427D02*
X008592Y005427D01*
X008592Y005485D02*
X008652Y005485D01*
X008652Y005487D02*
X008592Y005487D01*
X008592Y005547D01*
X007892Y005547D01*
X007892Y005551D01*
X007903Y005618D01*
X007924Y005682D01*
X007955Y005742D01*
X007994Y005797D01*
X008042Y005845D01*
X008097Y005885D01*
X008157Y005915D01*
X008222Y005936D01*
X008289Y005947D01*
X008592Y005947D01*
X008592Y005547D01*
X008652Y005547D01*
X008652Y005947D01*
X008956Y005947D01*
X009023Y005936D01*
X009088Y005915D01*
X009148Y005885D01*
X009203Y005845D01*
X009250Y005797D01*
X009290Y005742D01*
X009321Y005682D01*
X009342Y005618D01*
X009352Y005551D01*
X009352Y005547D01*
X008652Y005547D01*
X008652Y005487D01*
X008652Y005544D02*
X010306Y005544D01*
X010306Y005602D02*
X009344Y005602D01*
X009328Y005661D02*
X010306Y005661D01*
X010306Y005719D02*
X009302Y005719D01*
X009264Y005778D02*
X010306Y005778D01*
X010306Y005837D02*
X009211Y005837D01*
X009127Y005895D02*
X010306Y005895D01*
X010306Y005954D02*
X007560Y005954D01*
X007567Y005895D02*
X008117Y005895D01*
X008034Y005837D02*
X007567Y005837D01*
X007567Y005778D02*
X007981Y005778D01*
X007943Y005719D02*
X007330Y005719D01*
X007330Y005703D02*
X007567Y005703D01*
X007567Y005539D01*
X007559Y005506D01*
X007541Y005476D01*
X007517Y005452D01*
X007488Y005435D01*
X007455Y005426D01*
X007330Y005426D01*
X007330Y005703D01*
X007330Y005661D02*
X007270Y005661D01*
X007270Y005602D02*
X007330Y005602D01*
X007330Y005544D02*
X007270Y005544D01*
X007270Y005485D02*
X007330Y005485D01*
X007330Y005427D02*
X007270Y005427D01*
X007456Y005427D02*
X007901Y005427D01*
X007892Y005485D02*
X007547Y005485D01*
X007567Y005544D02*
X008592Y005544D01*
X008592Y005602D02*
X008652Y005602D01*
X008652Y005661D02*
X008592Y005661D01*
X008592Y005719D02*
X008652Y005719D01*
X008652Y005778D02*
X008592Y005778D01*
X008592Y005837D02*
X008652Y005837D01*
X008652Y005895D02*
X008592Y005895D01*
X007917Y005661D02*
X007567Y005661D01*
X007567Y005602D02*
X007901Y005602D01*
X007621Y005368D02*
X007561Y005368D01*
X007561Y005310D02*
X007621Y005310D01*
X007621Y005251D02*
X007561Y005251D01*
X007561Y005193D02*
X007621Y005193D01*
X007621Y005134D02*
X007561Y005134D01*
X007053Y005485D02*
X007010Y005485D01*
X007270Y005778D02*
X007330Y005778D01*
X007330Y005837D02*
X007270Y005837D01*
X007270Y005895D02*
X007330Y005895D01*
X007330Y005954D02*
X007270Y005954D01*
X007270Y006012D02*
X007330Y006012D01*
X007079Y006012D02*
X006980Y006012D01*
X007036Y005954D02*
X007039Y005954D01*
X007520Y006012D02*
X010306Y006012D01*
X010306Y005485D02*
X009352Y005485D01*
X009344Y005427D02*
X010306Y005427D01*
X010306Y005368D02*
X009326Y005368D01*
X009299Y005310D02*
X010306Y005310D01*
X010306Y005251D02*
X009261Y005251D01*
X009206Y005193D02*
X010306Y005193D01*
X010306Y005134D02*
X009118Y005134D01*
X006813Y003963D02*
X006044Y003963D01*
X006072Y004022D02*
X006080Y004022D01*
X006774Y003788D02*
X005320Y003788D01*
X005378Y003846D02*
X006813Y003846D01*
X006813Y003905D02*
X005437Y003905D01*
X005068Y004314D02*
X004980Y004314D01*
X004992Y004373D02*
X005126Y004373D01*
X005185Y004432D02*
X004992Y004432D01*
X004992Y004490D02*
X005243Y004490D01*
X005302Y004549D02*
X004992Y004549D01*
X004259Y004724D02*
X004027Y004724D01*
X004252Y004783D02*
X003087Y004783D01*
X003087Y004841D02*
X004252Y004841D01*
X004252Y004900D02*
X003087Y004900D01*
X003087Y004958D02*
X004252Y004958D01*
X004252Y005017D02*
X003087Y005017D01*
X003046Y005075D02*
X004285Y005075D01*
X003737Y004724D02*
X003064Y004724D01*
X004032Y004314D02*
X004264Y004314D01*
X003383Y003622D02*
X003383Y003622D01*
X003383Y003622D01*
X003391Y003612D02*
X006598Y003612D01*
X006577Y003553D02*
X003437Y003553D01*
X003483Y003495D02*
X006577Y003495D01*
X006469Y003436D02*
X003516Y003436D01*
X003505Y003466D02*
X003505Y003466D01*
X003522Y003378D02*
X006442Y003378D01*
X006442Y003319D02*
X004646Y003319D01*
X004787Y003261D02*
X006442Y003261D01*
X006442Y003202D02*
X004878Y003202D01*
X004936Y003144D02*
X006442Y003144D01*
X006442Y003085D02*
X004995Y003085D01*
X005053Y003027D02*
X006442Y003027D01*
X006476Y002968D02*
X005095Y002968D01*
X005120Y002910D02*
X007167Y002910D01*
X007167Y002851D02*
X005144Y002851D01*
X005168Y002792D02*
X007196Y002792D01*
X007196Y002734D02*
X005192Y002734D01*
X005215Y002675D02*
X007203Y002675D01*
X007227Y002617D02*
X005215Y002617D01*
X005215Y002558D02*
X007272Y002558D01*
X007355Y002500D02*
X005215Y002500D01*
X005215Y002441D02*
X010306Y002441D01*
X010304Y002383D02*
X005215Y002383D01*
X005209Y002324D02*
X010305Y002324D01*
X010304Y002266D02*
X005185Y002266D01*
X005160Y002207D02*
X010300Y002207D01*
X010282Y002149D02*
X005136Y002149D01*
X005112Y002090D02*
X010265Y002090D01*
X010247Y002031D02*
X005088Y002031D01*
X005035Y001973D02*
X010209Y001973D01*
X010168Y001914D02*
X004976Y001914D01*
X004918Y001856D02*
X010121Y001856D01*
X010044Y001797D02*
X004859Y001797D01*
X004742Y001739D02*
X009951Y001739D01*
X009745Y001680D02*
X004601Y001680D01*
X003541Y002792D02*
X003522Y002792D01*
X003522Y002851D02*
X003566Y002851D01*
X003590Y002910D02*
X003522Y002910D01*
X003522Y002968D02*
X003614Y002968D01*
X003656Y003027D02*
X003522Y003027D01*
X003522Y003085D02*
X003715Y003085D01*
X003773Y003144D02*
X003522Y003144D01*
X003522Y003202D02*
X003832Y003202D01*
X003922Y003261D02*
X003523Y003261D01*
X003526Y003319D02*
X004064Y003319D01*
X006949Y003436D02*
X007060Y003436D01*
X007032Y003378D02*
X006977Y003378D01*
X006977Y003319D02*
X007032Y003319D01*
X007032Y003261D02*
X006977Y003261D01*
X006977Y003202D02*
X007032Y003202D01*
X007032Y003144D02*
X006977Y003144D01*
X006977Y003085D02*
X007032Y003085D01*
X007032Y003027D02*
X006977Y003027D01*
X006942Y002968D02*
X007067Y002968D01*
X007567Y003027D02*
X007616Y003027D01*
X007622Y002968D02*
X007674Y002968D01*
X007681Y002910D02*
X007733Y002910D01*
X007712Y002851D02*
X007791Y002851D01*
X007734Y002792D02*
X007850Y002792D01*
X007908Y002734D02*
X007734Y002734D01*
X007727Y002675D02*
X007967Y002675D01*
X007703Y002617D02*
X010306Y002617D01*
X010306Y002558D02*
X007658Y002558D01*
X007575Y002500D02*
X010306Y002500D01*
D20*
X005733Y004871D02*
X005733Y005344D01*
X005780Y005855D02*
X005772Y006210D01*
X005811Y006289D01*
X004622Y004517D02*
X003882Y004517D01*
X001835Y004517D01*
D21*
X004622Y004887D02*
X004685Y004848D01*
X005126Y004147D02*
X005418Y004438D01*
X006410Y004438D01*
X006449Y004517D01*
X007591Y004025D02*
X008107Y004025D01*
X008622Y003517D01*
X005126Y004147D02*
X004622Y004147D01*
D22*
X003882Y004517D03*
X005811Y006289D03*
D23*
X006788Y005733D02*
X006788Y005155D01*
X006953Y004989D01*
X006953Y003769D01*
X006717Y003533D01*
X006717Y003214D01*
X006709Y003206D01*
X007300Y003206D02*
X007634Y003206D01*
X008056Y002785D01*
X008882Y002785D01*
X009591Y003493D01*
X009591Y004202D01*
X009355Y004438D01*
X008654Y004438D01*
X008622Y004517D01*
X007300Y003206D02*
X007307Y003178D01*
X007307Y002899D01*
X007465Y002745D01*
X005411Y004077D02*
X005221Y003887D01*
X003607Y003887D01*
X003489Y004005D01*
X002780Y004891D02*
X002445Y004891D01*
X002307Y005029D01*
X004685Y004848D02*
X004788Y004871D01*
X005181Y005265D01*
X005702Y004147D02*
X005733Y004077D01*
X005411Y004077D01*
D24*
X003489Y004005D03*
X002307Y005029D03*
X005181Y005265D03*
X007465Y002745D03*
M02*
