G75*
%MOIN*%
%OFA0B0*%
%FSLAX24Y24*%
%IPPOS*%
%LPD*%
%AMOC8*
5,1,8,0,0,1.08239X$1,22.5*
%
%ADD10C,0.0000*%
%ADD11C,0.0030*%
%ADD12C,0.0039*%
%ADD13C,0.0060*%
%ADD14C,0.0100*%
%ADD15C,0.0040*%
%ADD16R,0.0079X0.0315*%
%ADD17R,0.0098X0.0098*%
%ADD18C,0.0050*%
%ADD19C,0.0070*%
D10*
X004197Y001446D02*
X009709Y001446D01*
X009709Y001445D02*
X009764Y001448D01*
X009819Y001455D01*
X009874Y001465D01*
X009927Y001479D01*
X009980Y001496D01*
X010031Y001517D01*
X010081Y001541D01*
X010129Y001569D01*
X010176Y001599D01*
X010220Y001632D01*
X010262Y001668D01*
X010302Y001707D01*
X010339Y001748D01*
X010373Y001792D01*
X010404Y001838D01*
X010432Y001886D01*
X010457Y001935D01*
X010479Y001986D01*
X010497Y002038D01*
X010512Y002092D01*
X010523Y002146D01*
X010531Y002201D01*
X010535Y002256D01*
X010536Y002312D01*
X010536Y006682D01*
X010535Y006738D01*
X010531Y006793D01*
X010523Y006848D01*
X010512Y006902D01*
X010497Y006956D01*
X010479Y007008D01*
X010457Y007059D01*
X010432Y007108D01*
X010404Y007156D01*
X010373Y007202D01*
X010339Y007246D01*
X010302Y007287D01*
X010262Y007326D01*
X010220Y007362D01*
X010176Y007395D01*
X010129Y007425D01*
X010081Y007453D01*
X010031Y007477D01*
X009980Y007498D01*
X009927Y007515D01*
X009874Y007529D01*
X009819Y007539D01*
X009764Y007546D01*
X009709Y007549D01*
X009709Y007548D02*
X004119Y007548D01*
X003292Y006761D02*
X003292Y005659D01*
X003293Y005637D01*
X003291Y005615D01*
X003286Y005594D01*
X003277Y005574D01*
X003265Y005556D01*
X003251Y005539D01*
X003234Y005525D01*
X003215Y005514D01*
X003195Y005506D01*
X003174Y005501D01*
X001638Y005501D01*
X001638Y005502D02*
X001607Y005500D01*
X001577Y005495D01*
X001547Y005487D01*
X001518Y005475D01*
X001491Y005460D01*
X001466Y005442D01*
X001443Y005421D01*
X001422Y005398D01*
X001404Y005373D01*
X001389Y005346D01*
X001377Y005317D01*
X001369Y005287D01*
X001364Y005257D01*
X001362Y005226D01*
X001363Y005226D02*
X001363Y003769D01*
X001365Y003736D01*
X001370Y003704D01*
X001378Y003672D01*
X001390Y003641D01*
X001405Y003612D01*
X001423Y003584D01*
X001444Y003558D01*
X001467Y003535D01*
X001493Y003514D01*
X001521Y003496D01*
X001550Y003481D01*
X001581Y003469D01*
X001613Y003461D01*
X001645Y003456D01*
X001678Y003454D01*
X003134Y003454D01*
X003156Y003455D01*
X003178Y003453D01*
X003199Y003448D01*
X003219Y003439D01*
X003237Y003427D01*
X003254Y003413D01*
X003268Y003396D01*
X003279Y003377D01*
X003287Y003357D01*
X003292Y003336D01*
X003292Y002352D01*
X003291Y002352D02*
X003293Y002293D01*
X003299Y002234D01*
X003308Y002175D01*
X003322Y002118D01*
X003339Y002061D01*
X003360Y002005D01*
X003384Y001951D01*
X003412Y001899D01*
X003444Y001849D01*
X003478Y001800D01*
X003516Y001755D01*
X003556Y001711D01*
X003600Y001671D01*
X003645Y001633D01*
X003694Y001599D01*
X003744Y001567D01*
X003796Y001539D01*
X003850Y001515D01*
X003906Y001494D01*
X003963Y001477D01*
X004020Y001463D01*
X004079Y001454D01*
X004138Y001448D01*
X004197Y001446D01*
X003725Y002509D02*
X003727Y002559D01*
X003733Y002609D01*
X003743Y002658D01*
X003757Y002706D01*
X003774Y002753D01*
X003795Y002798D01*
X003820Y002842D01*
X003848Y002883D01*
X003880Y002922D01*
X003914Y002959D01*
X003951Y002993D01*
X003991Y003023D01*
X004033Y003050D01*
X004077Y003074D01*
X004123Y003095D01*
X004170Y003111D01*
X004218Y003124D01*
X004268Y003133D01*
X004317Y003138D01*
X004368Y003139D01*
X004418Y003136D01*
X004467Y003129D01*
X004516Y003118D01*
X004564Y003103D01*
X004610Y003085D01*
X004655Y003063D01*
X004698Y003037D01*
X004739Y003008D01*
X004778Y002976D01*
X004814Y002941D01*
X004846Y002903D01*
X004876Y002863D01*
X004903Y002820D01*
X004926Y002776D01*
X004945Y002730D01*
X004961Y002682D01*
X004973Y002633D01*
X004981Y002584D01*
X004985Y002534D01*
X004985Y002484D01*
X004981Y002434D01*
X004973Y002385D01*
X004961Y002336D01*
X004945Y002288D01*
X004926Y002242D01*
X004903Y002198D01*
X004876Y002155D01*
X004846Y002115D01*
X004814Y002077D01*
X004778Y002042D01*
X004739Y002010D01*
X004698Y001981D01*
X004655Y001955D01*
X004610Y001933D01*
X004564Y001915D01*
X004516Y001900D01*
X004467Y001889D01*
X004418Y001882D01*
X004368Y001879D01*
X004317Y001880D01*
X004268Y001885D01*
X004218Y001894D01*
X004170Y001907D01*
X004123Y001923D01*
X004077Y001944D01*
X004033Y001968D01*
X003991Y001995D01*
X003951Y002025D01*
X003914Y002059D01*
X003880Y002096D01*
X003848Y002135D01*
X003820Y002176D01*
X003795Y002220D01*
X003774Y002265D01*
X003757Y002312D01*
X003743Y002360D01*
X003733Y002409D01*
X003727Y002459D01*
X003725Y002509D01*
X005042Y005127D02*
X005044Y005106D01*
X005049Y005086D01*
X005058Y005067D01*
X005070Y005050D01*
X005085Y005035D01*
X005102Y005023D01*
X005121Y005014D01*
X005141Y005009D01*
X005162Y005007D01*
X005183Y005009D01*
X005203Y005014D01*
X005222Y005023D01*
X005239Y005035D01*
X005254Y005050D01*
X005266Y005067D01*
X005275Y005086D01*
X005280Y005106D01*
X005282Y005127D01*
X003725Y006525D02*
X003727Y006575D01*
X003733Y006625D01*
X003743Y006674D01*
X003757Y006722D01*
X003774Y006769D01*
X003795Y006814D01*
X003820Y006858D01*
X003848Y006899D01*
X003880Y006938D01*
X003914Y006975D01*
X003951Y007009D01*
X003991Y007039D01*
X004033Y007066D01*
X004077Y007090D01*
X004123Y007111D01*
X004170Y007127D01*
X004218Y007140D01*
X004268Y007149D01*
X004317Y007154D01*
X004368Y007155D01*
X004418Y007152D01*
X004467Y007145D01*
X004516Y007134D01*
X004564Y007119D01*
X004610Y007101D01*
X004655Y007079D01*
X004698Y007053D01*
X004739Y007024D01*
X004778Y006992D01*
X004814Y006957D01*
X004846Y006919D01*
X004876Y006879D01*
X004903Y006836D01*
X004926Y006792D01*
X004945Y006746D01*
X004961Y006698D01*
X004973Y006649D01*
X004981Y006600D01*
X004985Y006550D01*
X004985Y006500D01*
X004981Y006450D01*
X004973Y006401D01*
X004961Y006352D01*
X004945Y006304D01*
X004926Y006258D01*
X004903Y006214D01*
X004876Y006171D01*
X004846Y006131D01*
X004814Y006093D01*
X004778Y006058D01*
X004739Y006026D01*
X004698Y005997D01*
X004655Y005971D01*
X004610Y005949D01*
X004564Y005931D01*
X004516Y005916D01*
X004467Y005905D01*
X004418Y005898D01*
X004368Y005895D01*
X004317Y005896D01*
X004268Y005901D01*
X004218Y005910D01*
X004170Y005923D01*
X004123Y005939D01*
X004077Y005960D01*
X004033Y005984D01*
X003991Y006011D01*
X003951Y006041D01*
X003914Y006075D01*
X003880Y006112D01*
X003848Y006151D01*
X003820Y006192D01*
X003795Y006236D01*
X003774Y006281D01*
X003757Y006328D01*
X003743Y006376D01*
X003733Y006425D01*
X003727Y006475D01*
X003725Y006525D01*
X003292Y006761D02*
X003295Y006816D01*
X003302Y006870D01*
X003313Y006924D01*
X003327Y006978D01*
X003345Y007030D01*
X003367Y007080D01*
X003392Y007130D01*
X003420Y007177D01*
X003451Y007222D01*
X003486Y007265D01*
X003523Y007306D01*
X003563Y007344D01*
X003605Y007379D01*
X003650Y007411D01*
X003697Y007441D01*
X003745Y007466D01*
X003796Y007489D01*
X003847Y007508D01*
X003900Y007523D01*
X003954Y007535D01*
X004009Y007543D01*
X004064Y007547D01*
X004119Y007548D01*
D11*
X005441Y006246D02*
X005441Y006053D01*
X005393Y005952D02*
X005441Y005903D01*
X005441Y005807D01*
X005393Y005758D01*
X005199Y005758D01*
X005151Y005807D01*
X005151Y005903D01*
X005199Y005952D01*
X005248Y006053D02*
X005151Y006150D01*
X005441Y006150D01*
X004620Y005464D02*
X004307Y005150D01*
X004464Y005150D02*
X004464Y005464D01*
X004307Y005464D02*
X004620Y005150D01*
X004620Y005307D02*
X004307Y005307D01*
X004270Y004480D02*
X004270Y004286D01*
X004222Y004185D02*
X003980Y004185D01*
X004077Y004286D02*
X003980Y004383D01*
X004270Y004383D01*
X004222Y004185D02*
X004270Y004137D01*
X004270Y004040D01*
X004222Y003991D01*
X003980Y003991D01*
X003400Y003952D02*
X003400Y004048D01*
X003352Y004097D01*
X003110Y004097D01*
X003158Y004198D02*
X003110Y004246D01*
X003110Y004343D01*
X003158Y004391D01*
X003206Y004391D01*
X003400Y004198D01*
X003400Y004391D01*
X003400Y003952D02*
X003352Y003903D01*
X003110Y003903D01*
X005986Y003768D02*
X005986Y003671D01*
X006034Y003623D01*
X006034Y003522D02*
X006131Y003522D01*
X006179Y003474D01*
X006179Y003328D01*
X006276Y003328D02*
X005986Y003328D01*
X005986Y003474D01*
X006034Y003522D01*
X006179Y003425D02*
X006276Y003522D01*
X006276Y003623D02*
X006082Y003817D01*
X006034Y003817D01*
X005986Y003768D01*
X006276Y003817D02*
X006276Y003623D01*
X006244Y002895D02*
X006244Y002605D01*
X006437Y002605D01*
X006538Y002605D02*
X006732Y002605D01*
X006833Y002605D02*
X006978Y002605D01*
X007027Y002653D01*
X007027Y002847D01*
X006978Y002895D01*
X006833Y002895D01*
X006833Y002605D01*
X006635Y002750D02*
X006538Y002750D01*
X006538Y002895D02*
X006538Y002605D01*
X006538Y002895D02*
X006732Y002895D01*
X007128Y002798D02*
X007224Y002895D01*
X007224Y002605D01*
X007128Y002605D02*
X007321Y002605D01*
X007874Y002769D02*
X007922Y002721D01*
X008019Y002721D01*
X008067Y002769D01*
X008067Y002866D01*
X007970Y002866D01*
X007874Y002963D02*
X007874Y002769D01*
X007874Y002963D02*
X007922Y003011D01*
X008019Y003011D01*
X008067Y002963D01*
X008168Y003011D02*
X008362Y002721D01*
X008362Y003011D01*
X008463Y003011D02*
X008608Y003011D01*
X008656Y002963D01*
X008656Y002769D01*
X008608Y002721D01*
X008463Y002721D01*
X008463Y003011D01*
X008168Y003011D02*
X008168Y002721D01*
X008128Y005989D02*
X008225Y006085D01*
X008225Y006279D01*
X008326Y006230D02*
X008326Y006037D01*
X008374Y005989D01*
X008471Y005989D01*
X008519Y006037D01*
X008620Y006037D02*
X008669Y005989D01*
X008766Y005989D01*
X008814Y006037D01*
X008620Y006037D02*
X008620Y006230D01*
X008669Y006279D01*
X008766Y006279D01*
X008814Y006230D01*
X008519Y006230D02*
X008471Y006279D01*
X008374Y006279D01*
X008326Y006230D01*
X008031Y006279D02*
X008031Y006085D01*
X008128Y005989D01*
X007257Y006127D02*
X007064Y006127D01*
X007161Y006127D02*
X007161Y006417D01*
X007064Y006321D01*
X006963Y006369D02*
X006963Y006272D01*
X006914Y006224D01*
X006769Y006224D01*
X006866Y006224D02*
X006963Y006127D01*
X006769Y006127D02*
X006769Y006417D01*
X006914Y006417D01*
X006963Y006369D01*
D12*
X005930Y002627D02*
X005300Y002627D01*
X005300Y001997D01*
X005930Y001997D01*
X006244Y001682D01*
X006244Y002312D01*
X005930Y002627D01*
X005930Y001997D01*
X006244Y002312D02*
X005615Y002312D01*
X005300Y002627D01*
X005615Y002312D02*
X005615Y001682D01*
X005300Y001997D01*
X005615Y001682D02*
X006244Y001682D01*
D13*
X005402Y003907D02*
X004922Y003907D01*
X005512Y004387D02*
X005512Y004647D01*
X005402Y005127D02*
X005282Y005127D01*
X005042Y005127D01*
X004922Y005127D01*
D14*
X006390Y005009D02*
X006390Y005403D01*
X007650Y005403D01*
X007650Y004635D02*
X007650Y004399D01*
X006390Y004025D02*
X006390Y003631D01*
X007650Y003631D01*
X009372Y003767D02*
X009622Y003767D01*
X009622Y003267D01*
X009372Y003267D01*
X009372Y003017D01*
X010622Y003017D01*
X010622Y003367D01*
X013072Y003367D01*
X013212Y003497D01*
X013772Y003517D02*
X013972Y003617D01*
X013972Y004037D01*
X013972Y003997D02*
X013972Y005417D01*
X013772Y005517D01*
X010622Y005517D01*
X010622Y006017D01*
X009372Y006017D01*
X009372Y005767D01*
X009622Y005767D01*
X009622Y005267D01*
X009372Y005267D01*
X009372Y004767D01*
X009622Y004767D01*
X009622Y004267D01*
X009372Y004267D01*
X009372Y003767D01*
X010622Y003517D02*
X013772Y003517D01*
X013212Y005537D02*
X013072Y005667D01*
X010622Y005667D01*
D15*
X010157Y004952D02*
X010157Y004712D01*
X010157Y004832D02*
X009796Y004832D01*
X009917Y004712D01*
X009796Y004584D02*
X009796Y004464D01*
X009796Y004524D02*
X010097Y004524D01*
X010157Y004464D01*
X010157Y004404D01*
X010097Y004344D01*
X006489Y005127D02*
X006491Y005152D01*
X006497Y005176D01*
X006506Y005198D01*
X006519Y005219D01*
X006535Y005238D01*
X006554Y005254D01*
X006575Y005267D01*
X006597Y005276D01*
X006621Y005282D01*
X006646Y005284D01*
X006671Y005282D01*
X006695Y005276D01*
X006717Y005267D01*
X006738Y005254D01*
X006757Y005238D01*
X006773Y005219D01*
X006786Y005198D01*
X006795Y005176D01*
X006801Y005152D01*
X006803Y005127D01*
X006801Y005102D01*
X006795Y005078D01*
X006786Y005056D01*
X006773Y005035D01*
X006757Y005016D01*
X006738Y005000D01*
X006717Y004987D01*
X006695Y004978D01*
X006671Y004972D01*
X006646Y004970D01*
X006621Y004972D01*
X006597Y004978D01*
X006575Y004987D01*
X006554Y005000D01*
X006535Y005016D01*
X006519Y005035D01*
X006506Y005056D01*
X006497Y005078D01*
X006491Y005102D01*
X006489Y005127D01*
D16*
X006646Y005127D03*
D17*
X007054Y003206D03*
D18*
X010622Y003367D02*
X010622Y005517D01*
X002622Y005088D02*
X002622Y003946D01*
X001993Y003946D01*
X001993Y005088D01*
X002622Y005088D01*
D19*
X009997Y005361D02*
X010284Y005361D01*
X010140Y005361D02*
X010140Y005792D01*
X009997Y005648D01*
X010019Y003812D02*
X010162Y003812D01*
X010234Y003740D01*
X010234Y003668D01*
X010162Y003596D01*
X010234Y003525D01*
X010234Y003453D01*
X010162Y003381D01*
X010019Y003381D01*
X009947Y003453D01*
X010090Y003596D02*
X010162Y003596D01*
X009947Y003740D02*
X010019Y003812D01*
M02*
